<svg class="main-svg" xmlns="http://www.w3.org/2000/svg" xmlns:xlink="http://www.w3.org/1999/xlink" width="650" height="200" style="" viewBox="0 0 650 200"><rect x="0" y="0" width="650" height="200" style="fill: rgb(255, 255, 255); fill-opacity: 1;"/><defs id="defs-711be7"><g class="clips"><clipPath id="clip711be7xyplot" class="plotclip"><rect width="587" height="144"/></clipPath><clipPath class="axesclip" id="clip711be7x"><rect x="50" y="0" width="587" height="200"/></clipPath><clipPath class="axesclip" id="clip711be7y"><rect x="0" y="14" width="650" height="144"/></clipPath><clipPath class="axesclip" id="clip711be7xy"><rect x="50" y="14" width="587" height="144"/></clipPath></g><g class="gradients"/></defs><g class="bglayer"/><g class="layer-below"><g class="imagelayer"/><g class="shapelayer"/></g><g class="cartesianlayer"><g class="subplot xy"><g class="layer-subplot"><g class="shapelayer"/><g class="imagelayer"/></g><g class="gridlayer"><g class="x"/><g class="y"/></g><g class="zerolinelayer"><path class="yzl zl crisp" transform="translate(0,87.53)" d="M50,0h587" style="stroke: rgb(192, 192, 192); stroke-opacity: 1; stroke-width: 2px;"/></g><path class="xlines-below"/><path class="ylines-below"/><g class="overlines-below"/><g class="xaxislayer-below"/><g class="yaxislayer-below"/><g class="overaxes-below"/><g class="plot" transform="translate(50, 14)" clip-path="url('#clip711be7xyplot')"><g class="scatterlayer mlayer"><g class="trace scatter tracee8b490" style="stroke-miterlimit: 2; opacity: 1;"><g class="fills"/><g class="errorbars"/><g class="lines"><path class="js-line" d="M0,105.98L1.17,104.42L1.76,102.93L4.11,93.01L4.7,89.77L11.74,51.6L12.33,49.99L14.09,47.57L14.68,47.6L15.85,48.85L16.44,50.05L18.78,57.97L19.37,60.56L26.42,90.81L27,92.08L28.76,93.97L29.35,93.95L30.52,92.95L31.11,92.01L33.46,85.78L34.05,83.75L41.09,60.13L41.68,59.14L43.44,57.68L44.03,57.7L45.79,59.21L46.37,60.16L49.31,67.27L49.9,68.99L55.18,82.86L55.76,83.8L58.11,85.68L58.7,85.66L60.46,84.51L61.05,83.79L63.98,78.35L64.57,77.04L69.85,66.44L70.44,65.72L72.79,64.27L73.38,64.28L75.14,65.15L75.72,65.69L78.66,69.82L79.24,70.83L85.12,79.53L85.7,79.99L88.05,80.69L88.64,80.58L90.99,79.13L91.57,78.55L100.96,68.09L101.55,67.89L103.9,67.99L104.49,68.23L107.42,70.5L108.01,71.1L115.05,77.97L115.64,78.24L118.57,78.43L119.16,78.24L122.1,76.3L122.68,75.76L130.31,69L130.9,68.79L133.84,68.85L134.42,69.09L137.95,71.83L138.53,72.43L144.99,78.42L145.58,78.67L147.92,78.87L148.51,78.71L151.45,76.72L152.03,76.13L160.25,67.52L160.84,67.3L163.19,67.4L163.77,67.68L166.12,69.71L166.71,70.41L174.93,80.86L175.51,81.14L177.86,81.05L178.45,80.72L180.8,78.26L181.38,77.39L189.6,64.51L190.19,64.16L191.95,64.01L192.54,64.26L194.88,66.75L195.47,67.7L199.58,76.44L200.17,77.76L203.69,83.99L204.28,84.58L206.04,85.31L206.62,85.19L208.39,83.71L208.97,82.86L211.91,76.49L212.49,74.92L218.36,60.9L218.95,60.19L220.71,59.31L221.3,59.46L223.06,61.26L223.65,62.29L226.58,69.94L227.17,71.82L233.04,88.56L233.63,89.4L235.39,90.43L235.97,90.25L237.74,88.11L238.32,86.89L241.26,77.83L241.84,75.61L247.13,57.21L247.71,55.96L249.48,53.88L250.06,53.78L251.24,54.54L251.82,55.38L253.58,59.62L254.17,61.55L258.28,79.03L258.87,81.63L262.39,93.78L262.98,94.9L264.74,96.26L265.32,96.01L267.08,93.11L267.67,91.47L270.61,79.39L271.19,76.44L276.48,52.19L277.06,50.56L278.83,47.87L279.41,47.75L280.59,48.75L281.17,49.85L282.93,55.39L283.52,57.89L287.63,80.42L288.22,83.75L291.74,99.25L292.33,100.68L292.91,101.69L293.5,107.21L294.09,102.22L294.67,104.37L298.2,92.84L298.78,86.3L299.37,79.53L299.96,80.47L300.54,76.85L301.13,77.12L301.72,67.65L302.31,68.3L302.89,64.76L304.65,48.86L305.24,45.03L305.83,48.81L306.41,44.7L307,37.97L307.59,39.35L308.17,39.52L308.76,37.48L309.35,43.96L310.52,39.71L311.11,40.85L312.28,51.91L312.87,52.91L315.81,79.34L316.39,76.36L318.15,94.98L318.74,89.9L319.91,105.56L320.5,103.34L321.09,100.36L321.68,101.79L322.26,111.53L322.85,108.83L323.44,113.63L324.02,104.41L324.61,112.18L325.78,99.85L326.37,101.8L326.96,92.84L327.55,97.82L329.89,73.33L330.48,71.83L331.07,75.22L331.66,50.32L332.24,57.98L332.83,55.73L333.42,57.3L334,48.2L334.59,46.92L335.18,39.97L335.76,38.6L336.35,31.2L336.94,36.27L337.53,34.13L338.11,34.51L338.7,36.91L339.29,38.08L339.87,34.81L340.46,38.19L341.05,46.25L341.63,51.28L342.22,50.89L342.81,50.14L344.57,71.26L345.16,72.55L345.74,87.83L346.33,85.18L346.92,88.79L347.5,90.09L348.09,89.61L348.68,100.14L349.27,98.03L349.85,104.23L350.44,105.47L351.03,113.26L351.61,107.25L352.2,117.91L352.79,111.76L353.37,117.13L353.96,114.28L354.55,116.39L356.31,102.18L356.9,103.57L357.48,87.76L358.07,87.82L358.66,80.19L359.24,76.04L359.83,76.87L360.42,76.99L361.59,53.63L362.18,58.34L362.77,45.99L363.35,47.82L363.94,39.86L364.53,45.96L365.11,30.64L365.7,33.63L366.29,28.21L366.88,30.33L367.46,27.56L368.05,31.9L368.64,29.45L369.81,41.53L370.4,36.79L372.16,52.82L372.75,54.7L374.51,76.78L375.09,80.04L375.68,79.37L376.27,84.27L376.85,98.85L377.44,95.09L378.03,107.74L378.61,103.83L379.2,118.89L380.96,117.83L381.55,111.62L382.14,114.11L382.72,110.58L383.31,111L383.9,115.77L384.48,113.15L385.07,103.97L385.66,104.86L386.25,101.51L386.83,102.15L387.42,91.54L388.01,98.37L388.59,82.22L389.18,78.92L389.77,65.59L390.35,65.28L390.94,59.1L391.53,46.16L392.12,52.18L392.7,41.37L393.29,47.46L394.46,30.37L395.05,25.99L395.64,32.49L396.23,25.94L396.81,25.76L397.4,27.87L398.57,28.86L399.16,31.81L400.33,46.4L400.92,33.49L401.51,41.07L402.1,61.81L402.68,58.71L403.27,63.62L404.44,77.66L405.03,88.52L405.62,90.7L406.2,97.59L406.79,99.74L407.38,106.33L407.97,109.88L408.55,108.08L409.14,110.1L409.73,123.91L410.31,122.16L410.9,124.67L411.49,115.27L412.07,120.82L412.66,112.33L413.25,119.5L413.84,114.38L414.42,117.58L415.01,100.94L415.6,104.41L416.18,104.82L419.71,55.62L420.29,58.48L421.47,44.78L422.05,42.43L422.64,47.24L423.23,28.93L423.81,32.85L424.4,27.92L424.99,32.46L425.58,23.99L426.75,25.6L427.34,27.71L427.92,24.03L428.51,27.19L429.1,31.77L429.68,23.2L430.86,50.75L431.45,59.27L432.03,57.95L432.62,69.36L433.21,85.2L433.79,84.08L434.38,83.85L434.97,85.15L435.55,103.23L436.14,103.89L436.73,106.41L437.32,113.6L437.9,111.21L439.66,124.56L440.25,114.51L440.84,122.18L441.42,115.31L442.01,122.41L442.6,115.33L443.19,118.74L443.77,116.63L445.53,99.4L446.12,85.41L446.71,92.74L447.29,86.51L448.47,66.08L449.05,72.16L450.23,50.43L450.82,56.75L452.58,29.97L453.16,25.8L453.75,27.55L454.34,21.32L456.1,30.28L456.69,24.47L457.27,38.61L457.86,28.64L459.03,41.05L459.62,41.42L460.21,43L460.79,63.58L461.38,63.79L461.97,65.57L463.73,93.76L464.32,87.79L465.49,99.96L466.08,99.66L466.67,115.02L467.25,107.52L467.84,119.19L468.43,114.75L469.01,121.4L469.6,116.91L470.19,117.25L470.77,127.31L471.95,117.48L472.54,115.46L473.12,114.56L473.71,98.36L474.3,101.65L474.88,90.44L475.47,95.16L476.06,91.93L477.82,58.35L478.41,62.59L478.99,52.76L479.58,53.82L480.17,49.29L481.93,31.63L482.51,33.19L483.69,33.67L484.28,28.24L484.86,25.11L485.45,26.2L486.62,34.27L487.21,33.48L487.8,34.78L489.56,50.83L490.15,51.08L491.32,65.2L491.91,69.87L493.67,85.13L494.25,90.57L494.84,104.52L495.43,99.69L496.02,96.15L496.6,113.27L497.19,116.87L497.78,115.48L498.36,111.58L498.95,114.57L499.54,119.06L500.12,116.59L501.89,100.39L502.47,103.46L503.06,102.67L503.65,97.51L504.23,97.17L504.82,95.06L505.99,78.64L506.58,81.31L508.93,56.3L509.52,48.92L510.1,46.3L510.69,38.72L511.28,46.99L511.86,30.63L512.45,29.65L513.04,33.86L514.21,30.78L514.8,36.73L515.97,33.58L516.56,37.78L517.15,37.7L517.73,44.82L520.08,63.86L520.67,60.24L521.84,80.31L522.43,79.69L523.02,86.51L523.6,101.68L524.19,92.35L524.78,103.67L525.37,98.94L526.54,111.6L527.13,106.14L527.71,114.65L528.3,111.43L530.06,105.58L530.65,106.77L531.24,107.48L531.82,95.12L532.41,101.06L533,89.23L533.58,93.45L534.17,83.91L534.76,80.13L535.34,83.17L537.11,64.5L537.69,63.51L538.87,56.82L539.45,56.16L540.04,46.26L540.63,48.88L541.21,40.65L541.8,41.68L542.39,45.45L542.98,42.62L543.56,43.01L544.15,45.32L544.74,42.03L545.32,46.49L545.91,41.9L546.5,46.54L547.67,54.74L548.26,58.52L548.84,65.83L549.43,62.02L552.95,82.96L553.54,83.48L554.71,97.24L555.3,96.2L555.89,95.21L556.48,94.87L557.06,101.8L559.41,95.5L560,98.9L562.93,83.38L563.52,83.08L564.69,78.39L565.28,77.85L568.22,61.52L568.8,62.09L569.98,57.2L570.56,57.74L571.15,59.79L571.74,52L572.32,54.05L572.91,59.79L574.09,55.27L574.67,57.38L575.26,57.17L575.85,61.3L576.43,60.93L577.02,63.06L582.3,78.89L582.89,79.79L583.48,80.22L584.06,83.03L584.65,86.48L585.24,84.27L585.83,84.11L586.41,84.88L587,84.77" style="vector-effect: non-scaling-stroke; fill: none; stroke: rgb(128, 128, 128); stroke-opacity: 1; stroke-width: 0.8px; opacity: 1;"/></g><g class="points"/><g class="text"/></g><g class="trace scatter trace517f62" style="stroke-miterlimit: 2; opacity: 1;"><g class="fills"/><g class="errorbars"/><g class="lines"><path class="js-line" d="M0,35.91L1.17,42.65L1.76,43.07L3.52,44.93L4.11,44.29L4.7,45.39L5.28,44.67L5.87,45.72L6.46,45L7.04,45.99L7.63,45.32L8.22,46.22L8.81,45.66L9.98,46.01L10.57,46.67L11.74,46.91L12.33,46.76L14.68,47.6L15.26,47.75L20.55,49.86L21.13,49.7L22.89,50.77L23.48,50.64L25.24,51.65L25.83,51.63L28.18,52.63L28.76,52.92L48.72,59.01L49.31,58.97L52.24,59.91L52.83,59.87L55.76,60.75L56.35,60.79L61.05,61.98L61.64,62.02L65.74,63.01L66.33,62.97L69.27,63.65L69.85,63.64L74.55,64.48L75.14,64.53L81.59,65.58L82.18,65.54L86.29,66.18L86.88,66.21L97.44,67.41L98.03,67.37L103.31,67.8L103.9,67.85L143.82,68.27L144.4,68.22L157.32,67.5L157.9,67.43L171.99,66.21L172.58,66.13L187.25,64.41L187.84,64.34L224.23,58.68L224.82,58.55L238.91,55.91L239.5,55.75L250.06,53.74L250.65,53.62L264.74,50.75L265.32,50.61L282.93,47.12L283.52,46.75L285.28,46.69L285.87,46.18L286.46,46.47L287.04,45.89L287.63,46.22L288.22,45.59L288.8,45.97L289.39,45.28L289.98,45.69L290.57,44.96L291.15,45.4L291.74,44.62L292.33,45.09L292.91,44.04L293.5,39.83L294.09,44.62L294.67,42.24L295.26,42.8L295.85,42.99L296.44,43.91L297.02,42.39L298.2,41.88L298.78,38.86L299.37,45.96L299.96,44.55L300.54,45.84L301.72,41L302.31,45.29L303.48,39.19L304.07,40.13L304.65,37.41L305.24,39.59L305.83,44.32L306.41,39.49L307,36.09L307.59,39.11L308.17,39.41L308.76,37.14L309.35,42.91L309.94,40.05L311.11,34.14L311.7,38.36L312.28,42.15L312.87,37.4L314.04,39.59L314.63,39.53L315.22,32.98L315.81,40.83L316.39,40.08L316.98,37.81L317.57,35.78L318.15,39.09L318.74,40.88L319.33,30.68L321.09,45.27L321.68,41.34L322.26,34.74L322.85,38.12L323.44,33.19L324.02,41.19L325.2,32.92L325.78,41.72L326.37,34.31L326.96,42L328.13,34.45L328.72,37.68L329.31,36.7L329.89,32.92L330.48,44.4L331.07,28.76L331.66,28.45L332.24,43.47L332.83,40.15L333.42,41.15L334,34.43L334.59,37.22L335.18,32.48L335.76,34.31L336.35,29.3L336.94,36.19L338.11,34.05L338.7,36.22L339.29,36.26L339.87,32.49L340.46,29.43L341.05,35.13L342.22,40.02L342.81,30.87L343.4,36.51L343.98,28.95L345.16,30.76L345.74,28.75L346.33,41.23L346.92,34.78L347.5,42.7L348.09,35.63L348.68,35.28L349.27,37.47L351.03,31.5L351.61,37.72L352.2,28.43L352.79,35.3L353.37,29.92L353.96,31.25L354.55,28.25L355.14,28.27L355.72,33.55L356.31,33.74L356.9,27.02L357.48,29.55L358.07,36.57L358.66,30.59L359.24,40.99L359.83,36.23L360.42,37.02L361.01,22.85L361.59,32.4L362.18,31.8L362.77,30.12L363.35,32.94L363.94,31.9L364.53,35.99L365.11,24.41L365.7,31.68L366.29,26.97L366.88,30.31L367.46,27.5L368.05,30.53L368.64,27.01L369.81,38.01L370.4,27.9L370.98,30.55L371.57,29.17L372.16,33.37L372.75,26.74L373.33,31.65L373.92,28.16L374.51,28.52L375.09,33.17L375.68,34.86L376.27,24.82L377.44,30.27L378.03,24.63L378.61,31.15L379.2,18.68L380.38,27.48L380.96,29.24L381.55,35.44L382.14,32.72L382.72,35.85L383.31,35.16L383.9,29.77L384.48,26.54L385.07,34.55L385.66,31.74L386.25,33.6L386.83,26.57L387.42,32.76L388.59,21.1L389.18,26.33L389.77,21.22L390.35,33.06L390.94,19.78L391.53,28.22L392.12,30.15L392.7,28.36L393.29,33.09L393.88,22.87L394.46,24.37L395.05,23.89L395.64,31.59L396.23,25.12L396.81,25.68L397.4,27.45L399.16,24.01L399.75,28.8L400.33,37.05L400.92,24.79L401.51,13.38L402.1,25.52L402.68,29.98L403.27,24.31L403.86,25.23L404.44,19.57L405.62,25.42L406.2,26.17L406.79,26.94L407.38,25.7L407.97,27.09L408.55,32.46L409.73,19.53L410.31,23.76L410.9,22.4L411.49,31.66L412.07,25.65L412.66,32.97L413.25,25.8L413.84,27.09L414.42,21.19L415.6,33.18L416.18,20.54L416.77,28.11L417.36,18.35L417.94,16.91L418.53,23.26L419.12,18.82L419.71,24.27L420.29,27.42L420.88,22.79L422.64,31.17L423.23,18.39L423.81,29.18L424.4,24.44L424.99,31.49L425.58,22.36L426.75,25.53L427.34,25.87L428.51,18.59L429.1,26.59L429.68,7.2L430.27,16.87L431.45,24.38L432.03,22.42L432.62,15.18L433.21,21.47L433.79,31.28L434.38,30.03L434.97,25.27L435.55,16.23L436.14,29.28L436.73,22.76L437.32,26.23L437.9,27.39L438.49,26.63L439.66,22.35L440.25,32.39L440.84,24.85L441.42,31.42L442.01,23.6L442.6,28.22L444.36,20.48L444.95,23.66L445.53,20.44L446.12,28.52L446.71,29.67L447.29,16.39L447.88,20.67L448.47,33.91L449.64,19.14L450.23,30.79L450.82,30.25L451.4,20.04L451.99,23.04L452.58,18.65L453.75,24.21L454.34,20.8L456.1,30.16L456.69,21.49L457.27,34.2L457.86,24.08L459.03,30.92L459.62,26.12L460.21,19.05L460.79,21.66L461.38,34.86L461.97,24.3L462.56,31.49L463.14,23.4L463.73,22.82L464.32,36.22L464.9,25.6L465.49,31.03L466.67,22.58L467.25,31.95L467.84,22.47L468.43,30.67L469.01,24.07L469.6,30.13L470.19,29.33L470.77,19.23L471.95,24.65L472.54,25.46L473.12,18.35L473.71,28.66L474.3,27.71L474.88,29.06L475.47,33.15L476.06,19.66L476.64,26.58L477.23,17.74L478.41,29.69L478.99,25.05L479.58,32.71L480.17,26.48L480.75,27.42L481.34,24.05L481.93,25.4L482.51,29.4L483.69,31.69L484.28,27.25L484.86,25.08L485.45,25.66L486.04,27.64L486.62,30.79L487.21,29.54L487.8,26.03L488.38,29L488.97,28.26L489.56,31.51L490.15,27.43L490.73,28.25L491.32,33.04L491.91,30.17L492.49,33.64L494.25,25.75L494.84,24.14L495.43,37.89L496.02,32.51L496.6,22.22L497.19,26.27L498.36,34.81L498.95,31.88L499.54,28L500.12,29.11L500.71,33.74L501.3,31.78L501.89,38.51L502.47,38.72L503.06,33.39L503.65,37.11L504.23,34.26L505.41,28.7L505.99,37.78L507.17,30.66L507.76,29.22L508.34,31.25L508.93,30.54L509.52,30.68L510.1,29.99L510.69,30.92L511.28,37.44L511.86,22.5L512.45,28.74L513.04,32.92L513.63,30.57L514.21,30.62L514.8,35.68L515.97,29.93L516.56,32.99L517.15,28.64L517.73,31.4L518.32,30.47L518.91,34.07L519.5,34.09L520.08,37.88L521.26,27.31L521.84,32.26L522.43,35.38L523.02,26.13L523.6,29.6L524.19,39.5L524.78,30.53L525.37,40.82L525.95,29.34L526.54,33.98L527.13,37.95L527.71,31.84L529.47,39.34L530.06,39.42L530.65,38.84L531.24,31.81L531.82,43.16L532.41,36.07L533,40.78L533.58,40.01L534.17,36.46L534.76,45.69L535.34,39.35L535.93,37.21L536.52,39.64L537.69,42.68L538.28,39.94L538.87,44.87L539.45,40.31L540.04,38.14L540.63,42.29L541.21,36.41L541.8,41.03L542.39,44.89L542.98,42.32L543.56,42.92L544.15,45.25L544.74,41.24L545.32,44.79L546.5,38.13L547.08,43.77L547.67,44.4L548.26,41.77L548.84,48.31L549.43,47.24L550.02,44.4L550.61,42.82L551.19,44.67L551.78,46.44L552.37,43.84L552.95,49.37L553.54,45.52L554.13,42.04L554.71,42.2L555.3,47.07L556.48,48.98L557.06,43.64L558.24,48.54L558.82,49.13L559.41,51.32L560,47.18L560.58,47.26L561.17,50.73L561.76,51.5L562.35,50.25L562.93,53.45L563.52,52.76L564.11,53.44L564.69,54.97L565.28,53.37L566.45,51.02L567.04,54.12L567.63,52.6L568.22,53.32L568.8,54.8L569.39,53.03L571.15,57.48L571.74,50.79L572.91,59.77L573.5,56.04L574.09,54.63L574.67,56.11L575.26,54.57L575.85,56.81L576.43,56.75L577.02,55.79L578.78,57.87L579.37,55.91L579.96,55.99L580.54,57.79L581.72,57.8L582.3,58.27L582.89,58.5L583.48,57.79L584.65,55.56L585.24,59.57L585.83,57.1L586.41,58.06L587,49.45" style="vector-effect: non-scaling-stroke; fill: none; stroke: rgb(0, 0, 0); stroke-opacity: 1; stroke-width: 0.8px; opacity: 1;"/></g><g class="points"/><g class="text"/></g><g class="trace scatter trace50bf73" style="stroke-miterlimit: 2; opacity: 1;"><g class="fills"/><g class="errorbars"/><g class="lines"><path class="js-line" d="M293.5,136.8L293.5,10.27" style="vector-effect: non-scaling-stroke; fill: none; stroke: rgb(192, 192, 192); stroke-opacity: 1; stroke-width: 2px; opacity: 1; stroke-dasharray: 9px, 9px;"/></g><g class="points"/><g class="text"/></g></g></g><g class="overplot"/><path class="xlines-above crisp" d="M0,0" style="fill: none;"/><path class="ylines-above crisp" d="M0,0" style="fill: none;"/><g class="overlines-above"/><g class="xaxislayer-above"><g class="xtick"><text text-anchor="middle" x="0" y="172.3333" transform="translate(50,0)" style="font-family: 'Latin Modern Roman'; font-size: 13.3333px; fill: rgb(0, 0, 0); fill-opacity: 1; white-space: pre;">0</text></g><g class="xtick"><text text-anchor="middle" x="0" y="172.3333" transform="translate(167.4,0)" style="font-family: 'Latin Modern Roman'; font-size: 13.3333px; fill: rgb(0, 0, 0); fill-opacity: 1; white-space: pre;">200</text></g><g class="xtick"><text text-anchor="middle" x="0" y="172.3333" transform="translate(284.8,0)" style="font-family: 'Latin Modern Roman'; font-size: 13.3333px; fill: rgb(0, 0, 0); fill-opacity: 1; white-space: pre;">400</text></g><g class="xtick"><text text-anchor="middle" x="0" y="172.3333" transform="translate(402.2,0)" style="font-family: 'Latin Modern Roman'; font-size: 13.3333px; fill: rgb(0, 0, 0); fill-opacity: 1; white-space: pre;">600</text></g><g class="xtick"><text text-anchor="middle" x="0" y="172.3333" transform="translate(519.6,0)" style="font-family: 'Latin Modern Roman'; font-size: 13.3333px; fill: rgb(0, 0, 0); fill-opacity: 1; white-space: pre;">800</text></g><g class="xtick"><text text-anchor="middle" x="0" y="172.3333" transform="translate(637,0)" style="font-family: 'Latin Modern Roman'; font-size: 13.3333px; fill: rgb(0, 0, 0); fill-opacity: 1; white-space: pre;">1000</text></g></g><g class="yaxislayer-above"><g class="ytick"><text text-anchor="end" x="49" y="4.6666549999999996" transform="translate(0,150.8)" style="font-family: 'Latin Modern Roman'; font-size: 13.3333px; fill: rgb(0, 0, 0); fill-opacity: 1; white-space: pre;">−1</text></g><g class="ytick"><text text-anchor="end" x="49" y="4.6666549999999996" transform="translate(0,119.17)" style="font-family: 'Latin Modern Roman'; font-size: 13.3333px; fill: rgb(0, 0, 0); fill-opacity: 1; white-space: pre;">−0.5</text></g><g class="ytick"><text text-anchor="end" x="49" y="4.6666549999999996" transform="translate(0,87.53)" style="font-family: 'Latin Modern Roman'; font-size: 13.3333px; fill: rgb(0, 0, 0); fill-opacity: 1; white-space: pre;">0</text></g><g class="ytick"><text text-anchor="end" x="49" y="4.6666549999999996" transform="translate(0,55.9)" style="font-family: 'Latin Modern Roman'; font-size: 13.3333px; fill: rgb(0, 0, 0); fill-opacity: 1; white-space: pre;">0.5</text></g><g class="ytick"><text text-anchor="end" x="49" y="4.6666549999999996" transform="translate(0,24.27)" style="font-family: 'Latin Modern Roman'; font-size: 13.3333px; fill: rgb(0, 0, 0); fill-opacity: 1; white-space: pre;">1</text></g></g><g class="overaxes-above"/></g></g><g class="polarlayer"/><g class="ternarylayer"/><g class="geolayer"/><g class="funnelarealayer"/><g class="pielayer"/><g class="treemaplayer"/><g class="sunburstlayer"/><g class="glimages"/><defs id="topdefs-711be7"><g class="clips"/><clipPath id="legend711be7"><rect width="361" height="31" x="0" y="0"/></clipPath></defs><g class="layer-above"><g class="imagelayer"/><g class="shapelayer"/></g><g class="infolayer"><g class="legend" pointer-events="all" transform="translate(50, 0)"><rect class="bg" shape-rendering="crispEdges" style="stroke: rgb(68, 68, 68); stroke-opacity: 1; fill: rgb(255, 255, 255); fill-opacity: 1; stroke-width: 0px;" width="361" height="31" x="0" y="0"/><g class="scrollbox" transform="translate(0, 0)" clip-path="url('#legend711be7')"><g class="groups"><g class="traces" transform="translate(0, 15.166645)" style="opacity: 1;"><text class="legendtext" text-anchor="start" x="40" y="5.199987" style="font-family: 'Latin Modern Roman'; font-size: 13.3333px; fill: rgb(0, 0, 0); fill-opacity: 1; white-space: pre;">Signal      </text><g class="layers" style="opacity: 1;"><g class="legendfill"/><g class="legendlines"><path class="js-line" d="M5,0h30" style="fill: none; stroke: rgb(128, 128, 128); stroke-opacity: 1; stroke-width: 0.8px;"/></g><g class="legendsymbols"><g class="legendpoints"/></g></g><rect class="legendtoggle" x="0" y="-10.166645" width="96.5625" height="20.33329" style="fill: rgb(0, 0, 0); fill-opacity: 0;"/></g><g class="traces" transform="translate(99.0625, 15.166645)" style="opacity: 1;"><text class="legendtext" text-anchor="start" x="40" y="5.199987" style="font-family: 'Latin Modern Roman'; font-size: 13.3333px; fill: rgb(0, 0, 0); fill-opacity: 1; white-space: pre;">Hilbert Envelope      </text><g class="layers" style="opacity: 1;"><g class="legendfill"/><g class="legendlines"><path class="js-line" d="M5,0h30" style="fill: none; stroke: rgb(0, 0, 0); stroke-opacity: 1; stroke-width: 0.8px;"/></g><g class="legendsymbols"><g class="legendpoints"/></g></g><rect class="legendtoggle" x="0" y="-10.166645" width="153.9375" height="20.33329" style="fill: rgb(0, 0, 0); fill-opacity: 0;"/></g><g class="traces" transform="translate(255.5, 15.166645)" style="opacity: 1;"><text class="legendtext" text-anchor="start" x="40" y="5.199987" style="font-family: 'Latin Modern Roman'; font-size: 13.3333px; fill: rgb(0, 0, 0); fill-opacity: 1; white-space: pre;"><tspan style="font-style:italic">i = n/2 </tspan>      </text><g class="layers" style="opacity: 1;"><g class="legendfill"/><g class="legendlines"><path class="js-line" d="M5,0h30" style="fill: none; stroke: rgb(192, 192, 192); stroke-opacity: 1; stroke-dasharray: 9px, 9px; stroke-width: 2px;"/></g><g class="legendsymbols"><g class="legendpoints"/></g></g><rect class="legendtoggle" x="0" y="-10.166645" width="102.234375" height="20.33329" style="fill: rgb(0, 0, 0); fill-opacity: 0;"/></g></g></g><rect class="scrollbar" rx="20" ry="3" width="0" height="0" style="fill: rgb(128, 139, 164); fill-opacity: 1;" x="0" y="0"/></g><g class="g-gtitle"/><g class="g-xtitle" transform="translate(0,-2.677059999999983)"><text class="xtitle" x="343.5" y="199.67705999999998" text-anchor="middle" style="font-family: 'Latin Modern Roman'; font-size: 13.33px; fill: rgb(0, 0, 0); opacity: 1; font-weight: normal; white-space: pre;"><tspan style="font-weight:bold"><tspan style="font-style:italic">i</tspan></tspan></text></g><g class="g-ytitle" transform="translate(11.5205078125,0)"><text class="ytitle" transform="rotate(-90,0.47919000000000267,86)" x="0.47919000000000267" y="86" text-anchor="middle" style="font-family: 'Latin Modern Roman'; font-size: 13.33px; fill: rgb(0, 0, 0); opacity: 1; font-weight: normal; white-space: pre;"><tspan style="font-weight:bold">Amplitude</tspan></text></g></g></svg>