<svg class="main-svg" xmlns="http://www.w3.org/2000/svg" xmlns:xlink="http://www.w3.org/1999/xlink" width="650" height="250" style="" viewBox="0 0 650 250"><rect x="0" y="0" width="650" height="250" style="fill: rgb(255, 255, 255); fill-opacity: 1;"/><defs id="defs-025019"><g class="clips"><clipPath id="clip025019xyplot" class="plotclip"><rect width="587" height="189"/></clipPath><clipPath class="axesclip" id="clip025019x"><rect x="50" y="0" width="587" height="250"/></clipPath><clipPath class="axesclip" id="clip025019y"><rect x="0" y="19" width="650" height="189"/></clipPath><clipPath class="axesclip" id="clip025019xy"><rect x="50" y="19" width="587" height="189"/></clipPath></g><g class="gradients"/></defs><g class="bglayer"/><g class="layer-below"><g class="imagelayer"/><g class="shapelayer"/></g><g class="cartesianlayer"><g class="subplot xy"><g class="layer-subplot"><g class="shapelayer"/><g class="imagelayer"/></g><g class="gridlayer"><g class="x"/><g class="y"/></g><g class="zerolinelayer"><path class="yzl zl crisp" transform="translate(0,115.51)" d="M50,0h587" style="stroke: rgb(192, 192, 192); stroke-opacity: 1; stroke-width: 2px;"/></g><path class="xlines-below"/><path class="ylines-below"/><g class="overlines-below"/><g class="xaxislayer-below"/><g class="yaxislayer-below"/><g class="overaxes-below"/><g class="plot" transform="translate(50, 19)" clip-path="url('#clip025019xyplot')"><g class="scatterlayer mlayer"><g class="trace scatter tracedb515c" style="stroke-miterlimit: 2; opacity: 1;"><g class="fills"/><g class="errorbars"/><g class="lines"><path class="js-line" d="M0,139.1L1.17,137.05L1.76,135.09L4.11,122.07L4.7,117.82L11.74,67.73L12.33,65.61L14.09,62.44L14.68,62.47L15.85,64.12L16.44,65.69L18.78,76.09L19.37,79.48L26.42,119.19L27,120.86L28.76,123.34L29.35,123.31L30.52,122L31.11,120.76L33.46,112.58L34.05,109.92L41.09,78.92L41.68,77.62L43.44,75.71L44.03,75.73L45.2,76.75L45.79,77.72L48.13,84.06L48.72,86.11L55.76,109.99L56.35,110.98L58.11,112.45L58.7,112.43L60.46,110.92L61.05,109.97L63.98,102.84L64.57,101.12L69.85,87.2L70.44,86.26L72.79,84.36L73.38,84.37L75.14,85.51L75.72,86.22L78.66,91.65L79.24,92.96L84.53,103.65L85.12,104.39L87.46,105.9L88.05,105.9L89.81,105.06L90.4,104.52L93.33,100.34L93.92,99.32L99.79,90.25L100.38,89.76L102.73,88.94L103.31,89.03L105.66,90.5L106.25,91.1L110.94,97.65L111.53,98.49L115.05,102.33L115.64,102.69L117.99,103.1L118.57,102.94L120.92,101.39L121.51,100.8L130.9,90.28L131.49,90.1L133.84,90.37L134.42,90.69L137.36,93.51L137.95,94.27L144.99,102.93L145.58,103.26L147.92,103.52L148.51,103.3L150.86,101.4L151.45,100.7L160.25,88.62L160.84,88.33L162.6,88.23L163.19,88.46L165.53,90.66L166.12,91.49L170.23,99.09L170.82,100.23L174.34,105.63L174.93,106.13L176.69,106.76L177.27,106.65L179.04,105.35L179.62,104.61L182.56,99.04L183.14,97.66L189.01,85.3L189.6,84.67L191.36,83.88L191.95,84.01L193.71,85.6L194.3,86.52L197.23,93.37L197.82,95.06L203.69,110.24L204.28,111.01L206.04,111.97L206.62,111.81L208.39,109.87L208.97,108.75L211.91,100.4L212.49,98.34L218.36,79.93L218.95,79L220.71,77.85L221.3,78.05L223.06,80.4L223.65,81.75L226.58,91.8L227.17,94.26L232.45,114.83L233.04,116.23L234.8,118.58L235.39,118.69L236.56,117.86L237.15,116.92L238.91,112.14L239.5,109.97L243.61,90.21L244.19,87.27L247.71,73.45L248.3,72.16L250.06,70.59L250.65,70.88L251.82,72.68L252.41,74.18L254.76,83.6L255.35,86.64L262.39,123.08L262.98,124.56L264.74,126.35L265.32,126.01L266.5,123.93L267.08,122.21L269.43,111.39L270.02,107.9L277.06,66.36L277.65,64.69L279.41,62.68L280,63.06L281.17,65.43L281.76,67.39L284.11,79.62L284.7,83.56L291.74,130.27L292.33,132.14L292.91,133.47L293.5,140.71L294.09,134.16L294.67,136.99L298.2,121.85L298.78,113.26L299.37,104.38L299.96,105.62L300.54,100.87L301.13,101.22L301.72,88.79L302.31,89.64L302.89,85L304.65,64.13L305.24,59.1L305.83,64.06L306.41,58.67L307,49.84L307.59,51.65L308.17,51.86L308.76,49.19L309.35,57.7L310.52,52.12L311.11,53.61L312.28,68.13L312.87,69.44L315.81,104.14L316.39,100.22L318.15,124.66L318.74,118L319.91,138.55L320.5,135.63L321.09,131.72L321.68,133.6L322.26,146.39L322.85,142.84L323.44,149.14L324.02,137.04L324.61,147.24L325.2,139.14L325.78,131.05L326.37,133.61L326.96,121.85L327.55,128.39L329.89,96.25L330.48,94.28L331.07,98.72L331.66,66.04L332.24,76.09L332.83,73.15L333.42,75.21L334,63.26L334.59,61.58L335.18,52.46L335.76,50.66L336.35,40.95L336.94,47.61L337.53,44.8L338.11,45.29L338.7,48.45L339.29,49.98L339.87,45.69L340.46,50.12L341.05,60.7L341.63,67.31L342.22,66.79L342.81,65.81L344.57,93.53L345.16,95.23L345.74,115.27L346.33,111.8L346.92,116.53L347.5,118.24L348.09,117.61L348.68,131.44L349.27,128.67L349.85,136.8L350.44,138.43L351.03,148.66L351.61,140.77L352.2,154.75L352.79,146.69L353.37,153.73L353.96,149.99L354.55,152.77L356.31,134.12L356.9,135.94L357.48,115.19L358.07,115.26L358.66,105.25L359.24,99.81L359.83,100.9L360.42,101.06L361.59,70.39L362.18,76.57L362.77,60.36L363.35,62.76L363.94,52.32L364.53,60.33L365.11,40.21L365.7,44.14L366.29,37.03L366.88,39.8L367.46,36.17L368.05,41.87L368.64,38.65L369.81,54.51L370.4,48.29L372.16,69.32L372.75,71.8L374.51,100.77L375.09,105.05L375.68,104.17L376.27,110.6L376.85,129.74L377.44,124.8L378.03,141.41L378.61,136.28L379.2,156.04L380.96,154.65L381.55,146.5L382.14,149.77L382.72,145.13L383.31,145.69L383.9,151.95L384.48,148.5L385.07,136.46L385.66,137.63L386.25,133.23L386.83,134.07L387.42,120.14L388.01,129.11L388.59,107.91L389.18,103.59L389.77,86.09L390.35,85.68L390.94,77.57L391.53,60.58L392.12,68.49L392.7,54.3L393.29,62.29L394.46,39.86L395.05,34.11L395.64,42.64L396.23,34.05L396.81,33.81L397.4,36.58L398.57,37.88L399.16,41.75L400.33,60.89L400.92,43.96L401.51,53.91L402.1,81.12L402.68,77.05L403.27,83.5L404.44,101.93L405.03,116.19L405.62,119.04L406.2,128.08L406.79,130.9L407.38,139.56L407.97,144.22L408.55,141.85L409.14,144.51L409.73,162.63L410.31,160.33L410.9,163.63L411.49,151.3L412.07,158.58L412.66,147.44L413.25,156.84L413.84,150.12L414.42,154.33L415.01,132.49L415.6,137.03L416.18,137.58L419.71,73.01L420.29,76.76L421.47,58.77L422.05,55.69L422.64,62L423.23,37.97L423.81,43.12L424.4,36.65L424.99,42.6L425.58,31.49L426.75,33.59L427.34,36.37L427.92,31.54L428.51,35.69L429.1,41.7L429.68,30.45L430.86,66.62L431.45,77.79L432.03,76.06L432.62,91.03L433.21,111.82L433.79,110.35L434.38,110.06L434.97,111.76L435.55,135.49L436.14,136.36L436.73,139.67L437.32,149.1L437.9,145.96L439.66,163.48L440.25,150.29L440.84,160.36L441.42,151.34L442.01,160.66L442.6,151.37L443.19,155.84L443.77,153.07L445.53,130.46L446.12,112.11L446.71,121.73L447.29,113.54L448.47,86.74L449.05,94.71L450.23,66.19L450.82,74.49L452.58,39.33L453.16,33.86L453.75,36.16L454.34,27.98L456.1,39.74L456.69,32.12L457.27,50.67L457.86,37.58L459.03,53.88L459.62,54.37L460.21,56.43L460.79,83.44L461.38,83.73L461.97,86.06L463.73,123.06L464.32,115.23L465.49,131.19L466.08,130.8L466.67,150.96L467.25,141.13L467.84,156.44L468.43,150.61L469.01,159.33L469.6,153.44L470.19,153.89L470.77,167.1L471.95,154.19L472.54,151.55L473.12,150.37L473.71,129.09L474.3,133.42L474.88,118.71L475.47,124.9L476.06,120.65L477.82,76.59L478.41,82.15L478.99,69.25L479.58,70.64L480.17,64.69L481.93,41.52L482.51,43.57L483.69,44.2L484.28,37.06L484.86,32.95L485.45,34.39L486.62,44.98L487.21,43.95L487.8,45.65L489.56,66.71L490.15,67.04L491.32,85.58L491.91,91.71L493.67,111.73L494.25,118.88L494.84,137.18L495.43,130.84L496.02,126.19L496.6,148.67L497.19,153.39L497.78,151.57L498.36,146.44L498.95,150.37L499.54,156.26L500.12,153.02L501.89,131.76L502.47,135.79L503.06,134.76L503.65,127.98L504.23,127.53L504.82,124.77L505.99,103.22L506.58,106.73L508.93,73.89L509.52,64.21L510.1,60.76L510.69,50.82L511.28,61.67L511.86,40.2L512.45,38.92L513.04,44.44L513.63,40.29L514.21,40.4L514.8,48.2L515.97,44.08L516.56,49.59L517.15,49.49L517.73,58.83L520.08,83.81L520.67,79.07L521.84,105.41L522.43,104.59L523.02,113.55L523.6,133.46L524.19,121.21L524.78,136.06L525.37,129.86L526.54,146.48L527.13,139.31L527.71,150.47L528.3,146.25L530.06,138.57L530.65,140.14L531.24,141.07L531.82,124.85L532.41,132.65L533,117.12L533.58,122.65L534.17,110.13L534.76,105.17L535.34,109.15L537.11,84.66L537.69,83.36L538.87,74.57L539.45,73.71L540.04,60.72L540.63,64.16L541.21,53.35L541.8,54.7L542.39,59.65L542.98,55.93L543.56,56.45L544.15,59.49L544.74,55.16L545.32,61.02L545.91,55L546.5,61.08L547.67,71.84L548.26,76.81L548.84,86.4L549.43,81.4L552.95,108.88L553.54,109.56L554.71,127.63L555.3,126.26L555.89,124.97L556.48,124.52L557.06,133.61L559.41,125.34L560,129.81L562.93,109.43L563.52,109.04L564.69,102.89L565.28,102.18L568.22,80.75L568.8,81.49L569.98,75.08L570.56,75.78L571.15,78.47L571.74,68.24L572.32,70.94L572.91,78.48L574.09,72.54L574.67,75.31L575.26,75.04L575.85,80.45L576.43,79.96L577.02,82.76L581.72,102.48L582.3,103.54L583.48,105.29L584.06,108.98L584.65,113.51L585.24,110.61L585.83,110.39L586.41,111.4L587,111.26" style="vector-effect: non-scaling-stroke; fill: none; stroke: rgb(128, 128, 128); stroke-opacity: 1; stroke-width: 0.8px; opacity: 1;"/></g><g class="points"/><g class="text"/></g><g class="trace scatter tracefdd694" style="stroke-miterlimit: 2; opacity: 1;"><g class="fills"/><g class="errorbars"/><g class="lines"><path class="js-line" d="M0,47.13L1.17,55.97L1.76,56.53L3.52,58.97L4.11,58.13L4.7,59.57L5.28,58.62L5.87,60.01L6.46,59.06L7.04,60.36L7.63,59.49L8.22,60.67L8.81,59.93L9.39,60.96L9.98,60.38L11.15,60.87L11.74,61.56L12.91,61.9L13.5,61.91L18.2,64.24L18.78,64.1L20.55,65.44L21.13,65.23L22.89,66.64L23.48,66.47L25.24,67.8L25.83,67.77L28.18,69.07L28.76,69.45L45.2,76.17L45.79,76.29L49.9,77.85L50.48,77.79L52.24,78.63L52.83,78.58L55.18,79.39L55.76,79.74L59.29,80.76L59.87,80.98L68.68,83.24L69.27,83.54L72.2,84.09L72.79,84.26L98.62,88.6L99.2,88.56L104.49,89.06L105.07,89.16L112.7,89.6L113.29,89.72L119.16,89.92L119.75,89.98L135.01,89.92L135.6,89.95L145.58,89.48L146.16,89.46L170.82,87.06L171.4,86.95L183.14,85.23L183.73,85.11L197.23,82.77L197.82,82.66L234.8,74.42L235.39,74.27L285.87,60.62L286.46,60.99L288.22,59.83L288.8,60.33L289.39,59.43L289.98,59.97L290.57,59.01L291.15,59.59L291.74,58.57L292.33,59.18L292.91,57.8L293.5,52.27L294.09,58.56L294.67,55.44L296.44,57.63L297.02,55.63L298.2,54.96L298.78,51.01L299.37,60.32L299.96,58.47L300.54,60.16L301.72,53.81L302.31,59.45L303.48,51.43L304.07,52.67L304.65,49.1L305.24,51.96L305.83,58.18L306.41,51.82L307,47.37L307.59,51.33L308.17,51.73L308.76,48.75L309.35,56.32L309.94,52.57L311.11,44.81L311.7,50.35L312.28,55.32L312.87,49.08L314.04,51.96L314.63,51.88L315.22,43.29L315.81,53.59L316.39,52.61L316.98,49.63L317.57,46.97L318.15,51.31L318.74,53.66L319.33,40.26L321.09,59.41L321.68,54.25L322.26,45.6L322.85,50.04L323.44,43.57L324.02,54.07L325.2,43.21L325.78,54.76L326.37,45.03L326.96,55.12L328.13,45.21L328.72,49.45L329.31,48.17L329.89,43.21L330.48,58.27L331.07,37.75L331.66,37.34L332.24,57.05L332.83,52.7L333.42,54.01L334,45.19L334.59,48.85L335.18,42.64L335.76,45.04L336.35,38.45L336.94,47.5L337.53,44.55L338.11,44.69L338.7,47.54L339.29,47.59L339.87,42.64L340.46,38.63L341.05,46.11L342.22,52.52L342.81,40.52L343.4,47.92L343.98,38L345.16,40.37L345.74,37.74L346.33,54.12L346.92,45.65L347.5,56.04L348.09,46.76L348.68,46.31L349.27,49.18L351.03,41.34L351.61,49.51L352.2,37.31L352.79,46.33L353.37,39.27L353.96,41.01L354.55,37.08L355.14,37.1L355.72,44.03L356.31,44.29L356.9,35.46L357.48,38.79L358.07,48L358.66,40.15L359.24,53.81L359.83,47.55L360.42,48.59L361.01,29.98L361.59,42.53L362.18,41.74L362.77,39.54L363.35,43.23L363.94,41.87L364.53,47.24L365.11,32.03L365.7,41.58L366.29,35.39L366.88,39.78L367.46,36.09L368.05,40.07L368.64,35.45L369.81,49.89L370.4,36.62L370.98,40.1L371.57,38.29L372.16,43.79L372.75,35.1L373.33,41.54L373.92,36.95L374.51,37.43L375.09,43.53L375.68,45.75L376.27,32.58L377.44,39.73L378.03,32.33L378.61,40.89L379.2,24.52L380.38,36.07L380.96,38.37L381.55,46.52L382.14,42.95L382.72,47.06L383.31,46.15L383.9,39.08L384.48,34.84L385.07,45.35L385.66,41.66L386.25,44.1L386.83,34.88L387.42,42.99L388.59,27.69L389.18,34.56L389.77,27.84L390.35,43.4L390.94,25.96L391.53,37.04L392.12,39.58L392.7,37.22L393.29,43.43L393.88,30.02L394.46,31.99L395.05,31.36L395.64,41.46L396.23,32.97L396.81,33.7L397.4,36.03L398.57,33.55L399.16,31.51L400.33,48.62L400.92,32.54L401.51,17.56L402.1,33.5L402.68,39.35L403.27,31.9L403.86,33.11L404.44,25.69L405.62,33.36L406.2,34.34L406.79,35.36L407.38,33.73L407.97,35.56L408.55,42.6L409.73,25.64L410.31,31.19L410.9,29.4L411.49,41.56L412.07,33.67L412.66,43.27L413.25,33.86L413.84,35.56L414.42,27.81L415.6,43.55L416.18,26.96L416.77,36.9L417.36,24.08L417.94,22.2L418.53,30.53L419.12,24.7L419.71,31.86L420.29,35.98L420.88,29.91L422.64,40.91L423.23,24.14L423.81,38.3L424.4,32.08L424.99,41.33L425.58,29.35L426.75,33.5L427.34,33.96L428.51,24.4L429.1,34.9L429.68,9.45L430.27,22.14L431.45,32L432.03,29.42L432.62,19.92L433.21,28.18L433.79,41.06L434.38,39.42L434.97,33.16L435.55,21.3L436.14,38.43L436.73,29.87L437.32,34.42L437.9,35.95L438.49,34.95L439.66,29.34L440.25,42.51L440.84,32.61L441.42,41.24L442.01,30.98L442.6,37.04L444.36,26.88L444.95,31.05L445.53,26.83L446.12,37.44L446.71,38.94L447.29,21.51L447.88,27.13L448.47,44.51L449.64,25.12L450.23,40.41L450.82,39.7L451.4,26.3L451.99,30.24L452.58,24.48L453.75,31.77L454.34,27.29L456.1,39.59L456.69,28.2L457.27,44.89L457.86,31.6L459.03,40.59L459.62,34.28L460.21,25.01L460.79,28.43L461.38,45.75L461.97,31.9L462.56,41.33L463.14,30.72L463.73,29.95L464.32,47.54L464.9,33.6L465.49,40.73L466.67,29.64L467.25,41.93L467.84,29.49L468.43,40.25L469.01,31.6L469.6,39.55L470.19,38.5L470.77,25.24L471.95,32.35L472.54,33.42L473.12,24.09L473.71,37.61L474.3,36.37L474.88,38.14L475.47,43.51L476.06,25.8L476.64,34.88L477.23,23.28L478.41,38.97L478.99,32.88L479.58,42.94L480.17,34.75L480.75,35.99L481.34,31.56L481.93,33.33L482.51,38.59L483.69,41.6L484.28,35.77L484.86,32.92L485.45,33.68L486.04,36.28L486.62,40.41L487.21,38.77L487.8,34.17L488.38,38.06L488.97,37.09L489.56,41.36L490.15,36L490.73,37.08L491.32,43.36L491.91,39.6L492.49,44.15L494.25,33.79L494.84,31.69L495.43,49.73L496.02,42.67L496.6,29.16L497.19,34.48L498.36,45.69L498.95,41.84L499.54,36.76L500.12,38.21L500.71,44.28L501.3,41.71L501.89,50.55L502.47,50.82L503.06,43.82L503.65,48.71L504.23,44.97L505.41,37.67L505.99,49.58L507.17,40.24L507.76,38.36L508.34,41.01L508.93,40.09L509.52,40.27L510.1,39.36L510.69,40.58L511.28,49.14L511.86,29.53L512.45,37.72L513.04,43.2L513.63,40.13L514.21,40.18L514.8,46.83L515.97,39.28L516.56,43.3L517.15,37.59L517.73,41.22L518.32,40L518.91,44.71L519.5,44.74L520.08,49.72L521.26,35.84L521.84,42.34L522.43,46.44L523.02,34.3L523.6,38.85L524.19,51.84L524.78,40.07L525.37,53.58L525.95,38.51L526.54,44.6L527.13,49.8L527.71,41.79L529.47,51.63L530.06,51.73L530.65,50.98L531.24,41.76L531.82,56.65L532.41,47.34L533,53.53L533.58,52.52L534.17,47.85L534.76,59.97L535.34,51.64L535.93,48.84L536.52,52.02L537.69,56.02L538.28,52.42L538.87,58.89L539.45,52.9L540.04,50.06L540.63,55.5L541.21,47.78L541.8,53.86L542.39,58.91L542.98,55.54L543.56,56.34L544.15,59.39L544.74,54.12L545.32,58.78L546.5,50.05L547.08,57.45L547.67,58.27L548.26,54.83L548.84,63.4L549.43,62.01L550.02,58.27L550.61,56.2L551.19,58.63L551.78,60.95L552.37,57.55L552.95,64.8L553.54,59.75L554.13,55.18L554.71,55.39L555.3,61.78L556.48,64.28L557.06,57.27L558.24,63.7L558.82,64.48L559.41,67.36L560,61.92L560.58,62.03L561.17,66.58L561.76,67.59L562.35,65.95L562.93,70.16L563.52,69.24L564.11,70.14L564.69,72.14L565.28,70.05L566.45,66.97L567.04,71.03L567.63,69.03L568.22,69.99L568.8,71.92L569.39,69.6L571.15,75.44L571.74,66.66L572.91,78.45L573.5,73.55L574.09,71.7L574.67,73.65L575.26,71.63L575.85,74.57L576.43,74.49L577.02,73.23L578.78,75.95L579.37,73.38L579.96,73.49L580.54,75.85L581.72,75.87L582.3,76.48L582.89,76.78L583.48,75.84L584.65,72.92L585.24,78.18L585.83,74.94L586.41,76.21L587,64.9" style="vector-effect: non-scaling-stroke; fill: none; stroke: rgb(0, 0, 0); stroke-opacity: 1; stroke-width: 0.8px; opacity: 1;"/></g><g class="points"/><g class="text"/></g><g class="trace scatter trace23d545" style="stroke-miterlimit: 2; opacity: 1;"><g class="fills"/><g class="errorbars"/><g class="lines"><path class="js-line" d="M293.5,179.55L293.5,13.48" style="vector-effect: non-scaling-stroke; fill: none; stroke: rgb(192, 192, 192); stroke-opacity: 1; stroke-width: 2px; opacity: 1; stroke-dasharray: 9px, 9px;"/></g><g class="points"/><g class="text"/></g></g></g><g class="overplot"/><path class="xlines-above crisp" d="M0,0" style="fill: none;"/><path class="ylines-above crisp" d="M0,0" style="fill: none;"/><g class="overlines-above"/><g class="xaxislayer-above"><g class="xtick"><text text-anchor="middle" x="0" y="222.3333" transform="translate(50,0)" style="font-family: 'Latin Modern Roman'; font-size: 13.3333px; fill: rgb(0, 0, 0); fill-opacity: 1; white-space: pre;">0</text></g><g class="xtick"><text text-anchor="middle" x="0" y="222.3333" transform="translate(167.4,0)" style="font-family: 'Latin Modern Roman'; font-size: 13.3333px; fill: rgb(0, 0, 0); fill-opacity: 1; white-space: pre;">200</text></g><g class="xtick"><text text-anchor="middle" x="0" y="222.3333" transform="translate(284.8,0)" style="font-family: 'Latin Modern Roman'; font-size: 13.3333px; fill: rgb(0, 0, 0); fill-opacity: 1; white-space: pre;">400</text></g><g class="xtick"><text text-anchor="middle" x="0" y="222.3333" transform="translate(402.2,0)" style="font-family: 'Latin Modern Roman'; font-size: 13.3333px; fill: rgb(0, 0, 0); fill-opacity: 1; white-space: pre;">600</text></g><g class="xtick"><text text-anchor="middle" x="0" y="222.3333" transform="translate(519.6,0)" style="font-family: 'Latin Modern Roman'; font-size: 13.3333px; fill: rgb(0, 0, 0); fill-opacity: 1; white-space: pre;">800</text></g><g class="xtick"><text text-anchor="middle" x="0" y="222.3333" transform="translate(637,0)" style="font-family: 'Latin Modern Roman'; font-size: 13.3333px; fill: rgb(0, 0, 0); fill-opacity: 1; white-space: pre;">1000</text></g></g><g class="yaxislayer-above"><g class="ytick"><text text-anchor="end" x="49" y="4.6666549999999996" transform="translate(0,198.55)" style="font-family: 'Latin Modern Roman'; font-size: 13.3333px; fill: rgb(0, 0, 0); fill-opacity: 1; white-space: pre;">−1</text></g><g class="ytick"><text text-anchor="end" x="49" y="4.6666549999999996" transform="translate(0,157.03)" style="font-family: 'Latin Modern Roman'; font-size: 13.3333px; fill: rgb(0, 0, 0); fill-opacity: 1; white-space: pre;">−0.5</text></g><g class="ytick"><text text-anchor="end" x="49" y="4.6666549999999996" transform="translate(0,115.51)" style="font-family: 'Latin Modern Roman'; font-size: 13.3333px; fill: rgb(0, 0, 0); fill-opacity: 1; white-space: pre;">0</text></g><g class="ytick"><text text-anchor="end" x="49" y="4.6666549999999996" transform="translate(0,74)" style="font-family: 'Latin Modern Roman'; font-size: 13.3333px; fill: rgb(0, 0, 0); fill-opacity: 1; white-space: pre;">0.5</text></g><g class="ytick"><text text-anchor="end" x="49" y="4.6666549999999996" transform="translate(0,32.480000000000004)" style="font-family: 'Latin Modern Roman'; font-size: 13.3333px; fill: rgb(0, 0, 0); fill-opacity: 1; white-space: pre;">1</text></g></g><g class="overaxes-above"/></g></g><g class="polarlayer"/><g class="ternarylayer"/><g class="geolayer"/><g class="funnelarealayer"/><g class="pielayer"/><g class="treemaplayer"/><g class="sunburstlayer"/><g class="glimages"/><defs id="topdefs-025019"><g class="clips"/><clipPath id="legend025019"><rect width="361" height="31" x="0" y="0"/></clipPath></defs><g class="layer-above"><g class="imagelayer"/><g class="shapelayer"/></g><g class="infolayer"><g class="legend" pointer-events="all" transform="translate(50, 0.09999999999998366)"><rect class="bg" shape-rendering="crispEdges" style="stroke: rgb(68, 68, 68); stroke-opacity: 1; fill: rgb(255, 255, 255); fill-opacity: 1; stroke-width: 0px;" width="361" height="31" x="0" y="0"/><g class="scrollbox" transform="translate(0, 0)" clip-path="url('#legend025019')"><g class="groups"><g class="traces" transform="translate(0, 15.166645)" style="opacity: 1;"><text class="legendtext" text-anchor="start" x="40" y="5.199987" style="font-family: 'Latin Modern Roman'; font-size: 13.3333px; fill: rgb(0, 0, 0); fill-opacity: 1; white-space: pre;">Signal      </text><g class="layers" style="opacity: 1;"><g class="legendfill"/><g class="legendlines"><path class="js-line" d="M5,0h30" style="fill: none; stroke: rgb(128, 128, 128); stroke-opacity: 1; stroke-width: 0.8px;"/></g><g class="legendsymbols"><g class="legendpoints"/></g></g><rect class="legendtoggle" x="0" y="-10.166645" width="96.5625" height="20.33329" style="fill: rgb(0, 0, 0); fill-opacity: 0;"/></g><g class="traces" transform="translate(99.0625, 15.166645)" style="opacity: 1;"><text class="legendtext" text-anchor="start" x="40" y="5.199987" style="font-family: 'Latin Modern Roman'; font-size: 13.3333px; fill: rgb(0, 0, 0); fill-opacity: 1; white-space: pre;">Hilbert Envelope      </text><g class="layers" style="opacity: 1;"><g class="legendfill"/><g class="legendlines"><path class="js-line" d="M5,0h30" style="fill: none; stroke: rgb(0, 0, 0); stroke-opacity: 1; stroke-width: 0.8px;"/></g><g class="legendsymbols"><g class="legendpoints"/></g></g><rect class="legendtoggle" x="0" y="-10.166645" width="153.9375" height="20.33329" style="fill: rgb(0, 0, 0); fill-opacity: 0;"/></g><g class="traces" transform="translate(255.5, 15.166645)" style="opacity: 1;"><text class="legendtext" text-anchor="start" x="40" y="5.199987" style="font-family: 'Latin Modern Roman'; font-size: 13.3333px; fill: rgb(0, 0, 0); fill-opacity: 1; white-space: pre;"><tspan style="font-style:italic">i = n/2 </tspan>      </text><g class="layers" style="opacity: 1;"><g class="legendfill"/><g class="legendlines"><path class="js-line" d="M5,0h30" style="fill: none; stroke: rgb(192, 192, 192); stroke-opacity: 1; stroke-dasharray: 9px, 9px; stroke-width: 2px;"/></g><g class="legendsymbols"><g class="legendpoints"/></g></g><rect class="legendtoggle" x="0" y="-10.166645" width="102.234375" height="20.33329" style="fill: rgb(0, 0, 0); fill-opacity: 0;"/></g></g></g><rect class="scrollbar" rx="20" ry="3" width="0" height="0" style="fill: rgb(128, 139, 164); fill-opacity: 1;" x="0" y="0"/></g><g class="g-gtitle"/><g class="g-xtitle" transform="translate(0,-2.677059999999983)"><text class="xtitle" x="343.5" y="249.67705999999998" text-anchor="middle" style="font-family: 'Latin Modern Roman'; font-size: 13.33px; fill: rgb(0, 0, 0); opacity: 1; font-weight: normal; white-space: pre;"><tspan style="font-weight:bold"><tspan style="font-style:italic">i</tspan></tspan></text></g><g class="g-ytitle" transform="translate(11.5205078125,0)"><text class="ytitle" transform="rotate(-90,0.47919000000000267,113.5)" x="0.47919000000000267" y="113.5" text-anchor="middle" style="font-family: 'Latin Modern Roman'; font-size: 13.33px; fill: rgb(0, 0, 0); opacity: 1; font-weight: normal; white-space: pre;"><tspan style="font-weight:bold">Amplitude</tspan></text></g></g></svg>