<svg class="main-svg" xmlns="http://www.w3.org/2000/svg" xmlns:xlink="http://www.w3.org/1999/xlink" width="650" height="270" style="" viewBox="0 0 650 270"><rect x="0" y="0" width="650" height="270" style="fill: rgb(255, 255, 255); fill-opacity: 1;"/><defs id="defs-40f70a"><g class="clips"><clipPath id="clip40f70axyplot" class="plotclip"><rect width="607" height="207"/></clipPath><clipPath class="axesclip" id="clip40f70ax"><rect x="40" y="0" width="607" height="270"/></clipPath><clipPath class="axesclip" id="clip40f70ay"><rect x="0" y="21" width="650" height="207"/></clipPath><clipPath class="axesclip" id="clip40f70axy"><rect x="40" y="21" width="607" height="207"/></clipPath></g><g class="gradients"/></defs><g class="bglayer"/><g class="layer-below"><g class="imagelayer"/><g class="shapelayer"/></g><g class="cartesianlayer"><g class="subplot xy"><g class="layer-subplot"><g class="shapelayer"/><g class="imagelayer"/></g><g class="gridlayer"><g class="x"/><g class="y"/></g><g class="zerolinelayer"/><path class="xlines-below"/><path class="ylines-below"/><g class="overlines-below"/><g class="xaxislayer-below"/><g class="yaxislayer-below"/><g class="overaxes-below"/><g class="plot" transform="translate(40, 21)" clip-path="url('#clip40f70axyplot')"><g class="scatterlayer mlayer"><g class="trace scatter trace9ead81" style="stroke-miterlimit: 2; opacity: 1;"><g class="fills"/><g class="errorbars"/><g class="lines"><path class="js-line" d="M0,103.5L3.6,103.62L3.63,103.3L3.64,103.19L3.76,102.11L3.81,106.33L3.84,102.44L3.85,100.42L4.3,105.97L4.57,103.65L4.59,103.49L4.63,104.66L5.25,100.98L5.29,101.79L5.31,101.32L5.89,99.67L5.94,106.95L5.95,109.72L5.97,109.95L6.09,103.18L6.1,102.42L6.24,110.98L6.69,96.22L6.85,106.27L6.87,105.31L7.06,107.63L7.2,102.28L7.63,103.26L7.65,103.54L7.9,95.18L7.95,108.88L7.99,95.71L8.01,95.68L8.05,112.04L8.77,101.71L8.79,101.93L8.89,104.79L9.03,101.68L9.15,103.01L9.16,104.44L9.52,105.95L9.81,101.42L9.82,99.98L9.94,98.79L10.33,105.25L10.35,105.34L10.51,105.76L10.54,104.68L10.56,103.94L10.6,105.54L11.16,101.47L11.22,102.38L11.23,102.05L11.25,101.79L11.5,105.75L11.74,105.05L11.76,105.12L12.49,100.7L12.72,101.89L12.73,102.75L12.87,104.91L13.3,94.96L13.38,96.88L13.39,95.23L13.51,93.3L13.6,103.04L13.62,106.87L13.72,126.03L14.14,81.74L14.32,98.06L14.34,94.83L14.4,85.83L14.55,122.13L15.03,111.15L15.04,116.45L15.49,66.84L15.82,129.48L15.84,131.99L15.9,141.32L16.26,73.95L16.47,96.56L16.48,92.79L16.5,89.77L17.07,116.1L17.08,119.69L17.22,141.04L17.61,58.73L17.68,75.05L17.7,76.98L17.94,129.17L17.95,133.69L18.01,140.79L18.4,93.52L18.52,105.65L18.54,105.91L18.96,76.59L19.03,97.4L19.05,98.6L19.36,132.35L19.69,99.64L19.71,96.41L19.81,84.84L20.22,100.97L20.23,101.02L20.25,100.46L20.46,115.15L20.47,119.37L20.7,129.52L20.97,97.28L20.98,95.64L21.16,74.74L21.43,109.49L21.45,110.57L21.6,135.78L22,78.72L22.02,76.04L22.21,73.32L22.41,103.79L22.42,107.06L22.47,105.5L22.74,129.13L22.92,110.82L22.93,106.85L23.01,117.65L23.4,72.25L23.64,111.41L23.65,114.42L23.83,128.43L24.39,102.34L24.42,106L24.43,108.39L24.61,85.09L25.14,138.2L25.27,117.44L25.29,114.37L25.59,65.11L25.92,108.73L25.93,113.23L25.98,123.09L26.35,97.81L26.61,104.3L26.62,96.45L26.94,77.06L27.18,110.58L27.25,109.85L27.27,112.63L27.33,101.97L27.49,136.02L27.51,138.87L27.55,155.53L28.02,45.88L28.18,98.28L28.2,94.66L28.45,159.73L28.87,81.02L28.93,98.09L28.95,107.67L29.46,44.98L29.73,135.92L29.74,139.82L29.91,165.07L29.95,136.55L29.97,131.27L30,133.27L30.21,63.29L30.22,49.71L30.33,36.3L30.72,133.25L30.79,121.77L30.81,128.64L31.23,78.06L31.39,156.37L31.51,125.56L31.53,115.92L31.84,60.38L32.23,140.54L32.25,143.37L32.28,147.96L32.7,84.4L32.89,111.06L32.91,108.86L33.37,117.08L33.82,52.83L33.84,59.2L33.93,58.88L34.21,118.15L34.59,61.91L34.6,65.72L34.9,192.51L35.14,133.69L35.16,116.58L35.28,21.38L35.71,190.82L35.86,167.9L35.88,167.74L35.91,169.94L36.04,105.42L36.06,92.65L36.34,50.27L36.76,124.54L36.78,127.36L36.87,129.83L37.15,83.74L37.17,83.35L37.24,63.65L37.78,116.81L37.8,120.22L37.96,66.39L38.41,194.57L38.47,191.64L38.49,196.17L38.5,196.64L38.62,168.2L38.64,152.94L38.85,22.55L39.31,191.63L39.36,185.81L39.37,185.19L39.57,126.16L39.58,117.26L39.87,47.52L40.3,125.52L40.32,128.25L40.36,134.03L40.77,61.36L40.86,67.1L40.87,67.3L40.9,63.25L41.2,108.5L41.26,98.84L41.28,103.83L41.56,74.86L41.91,196.64L42.1,130.6L42.12,119.92L42.36,14.15L42.76,191.24L42.79,189.54L42.81,188.35L43.17,72.52L43.77,94.86L43.78,101.01L44.04,141.05L44.37,54.11L44.38,54.66L44.4,52.74L44.43,45.48L44.89,130L45.07,85.13L45.09,81.69L45.22,59.47L45.49,170.02L45.54,168.43L45.55,175.1L45.58,184.85L45.91,42.35L45.96,45.31L45.97,42.38L46.02,33.81L46.21,117.28L46.23,125.95L46.36,170.7L46.93,79.87L46.95,79.01L47.58,104.98L47.59,108.21L47.68,120.01L48.04,74.07L48.06,71.19L48.16,63.96L48.31,85.9L48.33,92.65L48.79,62.68L49.24,192.63L49.26,187.65L49.27,176.09L49.6,21.05L50.01,173.4L50.02,177.72L50.07,184.62L50.26,107.38L50.28,101.72L50.71,113.83L51.03,67.82L51.07,73.62L51.09,76.94L51.15,68.99L51.33,123.87L51.67,80.12L51.69,79.9L51.87,59.42L52.15,120.49L52.24,108.29L52.26,111.82L52.45,63.59L52.78,170.08L52.8,176.69L52.83,185.19L53.28,36.13L53.32,46.82L53.34,46.59L53.35,45.09L53.53,124.33L53.55,130.74L53.7,166.04L54.09,88.8L54.25,100.92L54.27,102L54.69,67.09L55,119.74L55.12,115.36L55.14,110.92L55.54,65.68L55.87,105.07L55.89,111.15L55.95,72.46L56.43,189.03L56.56,138.72L56.58,136.11L56.86,30.98L57.28,160.64L57.3,163.48L57.31,165.59L57.6,100.5L57.85,124.48L57.87,124.15L57.93,128.45L58.03,105.83L58.05,99.35L58.32,40.05L58.68,115.98L58.77,115.51L58.78,116.02L58.8,116.36L58.86,105.66L58.87,103.91L59.17,68.76L59.67,79.01L59.68,84.1L60.04,196.65L60.4,79.65L60.42,74.98L60.49,48.52L60.96,138.16L61.06,123.83L61.08,121.8L61.56,137.75L61.95,43.03L62.13,75.52L62.14,80.95L62.41,114.6L62.79,70.47L62.85,79.48L62.86,78.95L62.91,85.14L62.92,89.62L63.28,84.52L63.78,165.84L63.93,140.02L63.94,135.7L64.23,82.72L64.83,102.69L64.84,104.68L65.26,127.64L65.46,98.05L65.47,94.59L65.74,63.69L66.28,79.63L66.3,78.92L66.34,76.38L66.84,99.27L66.9,91.22L66.91,97.44L67.35,156.22L67.68,109.92L67.69,106.68L67.99,118.03L68.41,86.64L68.55,96.35L68.56,98.46L68.82,127.7L69.12,86.4L69.13,85.09L69.24,74.1L69.48,92.14L69.49,92.84L69.54,93.39L69.72,85.28L69.73,83.13L69.93,69.62L70.3,96.46L70.39,94.2L70.41,96.53L70.48,92.68L70.81,125.64L71.2,109.4L71.22,109.09L71.23,108.88L71.43,120.07L71.44,120.83L71.62,130.86L72.03,115.13L72.1,118.03L72.12,117.49L72.21,118.53L72.6,90.09L72.94,109.39L72.96,109.33L73.02,109.36L73.18,94.38L73.2,92.13L74.04,73.37L74.05,73.65L74.07,74.54L75.16,131.08L75.18,131.48L75.61,144.97L75.85,129.81L75.87,127.7L76.93,66.64L76.95,66.76L77.31,61.99L77.35,62.18L77.37,61.26L77.43,59.07L77.82,89L77.83,90.14L79,144.32L79.26,140.01L79.27,139.36L79.84,108.4L79.86,107.16L80.92,55.53L81.01,55.69L81.03,56.02L82.78,146.42L82.8,146.22L82.81,145.56L83.86,77L83.88,75.23L84.39,55.58L84.73,58.48L84.75,59.66L86.23,144.9L86.25,145.38L86.4,150.24L86.65,139.24L86.67,137.94L88.3,51.75L88.32,51.79L88.33,52.32L88.86,97.69L88.87,98.93L90.07,151.55L90.19,146.34L90.21,144.97L91.78,48.95L91.8,49.93L91.81,51.31L91.89,48.6L92.28,71.97L92.29,73.51L93.78,150.83L93.82,149.88L93.84,149.07L95.47,49.21L95.83,60.16L95.85,61.6L96.93,139.21L96.94,140.46L97.42,148.19L97.66,140.17L97.68,139.36L99.15,54.08L99.25,55.64L99.27,56.28L99.34,54.57L99.57,60.01L99.58,61.08L100.75,146.24L101.29,142.48L101.31,142.81L101.65,125.35L101.67,124.08L102.94,58.26L102.96,58.19L103.23,54.92L103.36,63.33L103.38,66.05L104.37,143.38L104.38,143.09L104.4,142.81L104.76,138.32L104.98,146.44L105.13,143.71L105.15,143.18L106.8,54.94L107.08,63.81L107.1,64.48L107.58,98.93L107.59,100.84L108.73,143.44L108.76,143.42L108.78,143.25L109.75,91.31L109.77,89.84L110.86,56.55L110.91,60.96L110.92,62.39L111.07,73.14L111.09,75.16L112.12,140.24L112.14,140.87L112.57,143.82L112.81,138.83L112.83,137.24L114.1,64.03L114.12,63.65L114.46,54.23L114.67,58.25L114.69,60.14L115.98,142.75L115.99,142.4L116.01,142.28L116.11,141.38L116.38,146.47L116.5,143.34L116.52,142.12L117.94,61.06L117.96,61.18L117.97,60.99L118.29,55.71L118.54,64.6L118.56,66.09L119.77,142.58L119.79,142.18L120.19,145.28L122.1,57.35L122.29,59.57L122.31,61.09L123.48,142.78L123.52,142.05L123.54,142.11L123.6,144.61L124.21,139.2L124.23,138.77L125.91,56.28L125.92,56.41L126.03,55.51L126.39,78.84L126.4,80.63L127.86,144.11L127.98,144.09L127.99,143.91L128.68,108.36L128.7,107.02L129.82,52.18L129.84,52.55L131.17,146.89L131.44,143.52L131.46,143.33L131.82,148.4L132.39,110.27L132.4,108.51L133.57,52.49L133.81,59.39L133.83,59.93L135.06,146.73L135.25,144.46L135.27,144.5L135.61,149.74L135.93,127.41L135.94,125.94L137.35,52.67L137.37,52.22L137.68,65.21L137.7,67.56L138.79,149.11L139.06,146.2L139.08,145.83L139.26,150.89L140.01,109.08L140.02,108.29L140.19,99.39L140.2,97.32L141.21,49.78L141.36,52.53L141.37,52.67L142.57,150.99L143.08,149.95L143.1,149.44L143.19,150.66L143.55,125.31L143.56,123.64L144.97,48.89L145.21,55.93L145.23,57.47L146.37,151.61L146.47,149.62L146.49,149.85L146.98,152.95L147.07,147.31L147.09,145.96L148.6,50.26L148.62,50.1L148.74,47.56L148.99,53.7L149.01,55.69L150.19,153.67L150.28,152.35L150.3,152.48L150.48,150.39L150.58,153.47L150.69,153.15L150.7,153.18L150.82,150.5L150.84,149.27L152.33,40.99L152.35,40.58L152.62,28.11L152.75,45.79L152.77,51.04L153.71,175.17L153.79,173.67L153.8,173.94L153.82,174.18L153.97,167.19L153.98,165.29L155.26,29.23L155.74,52.12L155.75,54.08L155.86,44.81L156.08,79.19L156.1,84.09L156.83,169.54L156.97,165.08L156.98,161.66L157.18,171.12L157.79,84.68L157.96,100.6L157.97,101.83L158,103.36L158.14,84.37L158.42,87.17L158.44,85.49L158.98,85.62L159.28,53.95L159.29,54.85L159.31,56.81L159.5,51.08L160.43,174.23L160.58,156.02L160.6,155.62L160.69,159.85L160.96,115.97L160.97,109.9L161.08,121.93L161.81,88.09L161.83,88.62L161.84,88.82L162.77,41.26L162.82,52.58L162.83,58.66L163.82,177.28L164.09,154.57L164.11,146.17L164.63,79.31L164.89,115.61L164.9,115.68L165.53,72.49L165.55,70.16L165.85,77.24L166.13,42.37L166.31,65.01L166.33,65.05L166.52,88.94L166.6,87.75L166.61,101.66L167.21,181.49L167.44,157.87L167.45,153.53L167.95,78.59L168.29,115.26L168.31,114.82L168.34,114.98L168.46,106.33L168.47,101.77L169.52,41.3L169.55,45.89L169.57,48.6L169.61,48.03L170.09,133.67L170.11,145.83L170.57,175.94L170.84,139.49L170.86,131.38L171.31,75.08L171.62,112.16L171.64,112.58L171.67,112.86L171.97,102.79L171.98,100.63L172.04,103L172.88,48.32L173.08,68.52L173.09,72.35L173.14,72.01L173.38,126.66L173.39,132.74L173.89,175.18L174.14,141.89L174.16,138.07L174.65,78.89L174.98,101.22L175,102.31L175.22,112.59L175.6,86.66L175.61,84.91L176.32,58.24L176.45,75.32L176.47,81.77L176.98,170.03L177.29,150.07L177.31,145.42L177.98,76.26L178.16,100.5L178.18,103.13L178.48,112.64L178.66,84.54L178.67,79.69L178.75,92.84L179.26,57.04L179.5,71.56L179.51,79.89L180.1,169.71L180.43,149.43L180.44,146.93L181.09,71.38L181.4,97.44L181.42,99.72L181.58,109.43L181.93,72.93L182.05,84.2L182.06,81.84L182.36,57.73L182.65,106.19L182.66,108.99L182.83,105.94L183.07,157.23L183.08,164.68L183.13,173.07L183.28,128.29L183.64,131.98L183.65,126.81L184.16,66.12L184.52,88.45L184.54,88.39L184.58,86.25L184.64,105.2L184.66,110.91L184.67,113.68L185,68.25L185.27,77.25L185.29,76.29L185.47,61.33L185.78,127.57L185.93,98.3L185.95,102.82L186.19,180.52L186.71,123.58L186.73,118.06L187.19,71.52L187.54,81.99L187.55,84.26L187.63,75.06L187.7,102.36L187.97,83.31L187.99,79.17L188.14,91L188.47,57.47L188.69,79.46L188.71,96.45L188.98,96.23L189.19,171.41L189.49,147.3L189.5,143.25L189.59,160.21L190.22,75.98L190.45,108.68L190.46,109.05L190.64,78.56L190.7,106.04L190.72,109.51L191.44,58.89L191.63,63.74L191.65,69.58L192.22,168.77L192.53,146.1L192.55,148.74L192.64,150.75L192.71,127.98L192.73,122.92L193.21,77.79L193.28,123.7L193.54,91.47L193.55,93.67L193.81,111.84L194.02,73.81L194.03,67.95L194.45,56.31L194.68,84.11L194.69,89.88L194.95,86.81L195.19,164.46L195.58,143.01L195.59,144.07L195.62,145.93L195.73,109.58L195.74,105.6L196.19,69.05L196.25,121.43L196.52,98.24L196.54,98.59L196.69,114.21L197.45,54.15L197.5,68.29L197.51,71.76L197.53,72L197.56,67.33L197.59,71.21L197.6,78.77L198.14,158.75L198.5,141.52L198.52,142.6L198.55,147.46L199.06,87.48L199.07,83.74L199.12,69.22L199.3,112.99L199.67,109.3L199.69,113.38L199.7,115.19L200.17,76.14L200.24,83.92L200.26,78.11L200.39,62.34L200.65,126.69L200.92,122.07L200.93,129.17L201.05,155.02L201.59,111.04L201.61,105.74L201.71,117.38L202.06,66.04L202.43,79.08L202.45,77.15L202.55,111.74L203.09,82.35L203.11,78.47L203.26,66.19L203.48,102.01L203.5,105.25L203.57,124.29L203.69,89.4L203.71,85.51L203.74,83.16L203.95,147.82L204.2,136.34L204.22,142.53L204.26,150.76L204.86,92.6L204.88,89.55L205.1,113.46L205.34,76.23L205.61,90.33L205.63,91.7L205.87,96.24L206.11,77L206.12,72.26L206.24,67.48L206.36,99.93L206.38,112.16L206.6,84.86L206.81,154.76L207.16,144.93L207.17,143.34L207.22,144.09L207.29,131.97L207.31,128.96L207.83,70.98L208.16,81.55L208.18,83.01L208.34,109.85L208.57,76.05L208.9,85L208.91,86.12L208.99,71.89L209.18,87.03L209.2,93.71L209.47,91.33L209.69,160.17L209.99,148.86L210.01,152.28L210.02,152.88L210.17,120.52L210.19,115.21L210.4,117.47L210.65,69.59L210.98,86.11L211,82.69L211.27,104.72L211.42,73.22L211.73,88.27L211.75,84.39L211.79,69.78L212.41,138.5L212.42,144.18L212.51,173.05L212.71,122.5L212.98,136.82L212.99,131.69L213.5,61.61L213.91,72.06L213.92,76.38L214.12,98.95L214.61,68.56L214.63,62.39L214.64,58.95L214.94,122.91L215.2,113.2L215.21,121.15L215.66,169.42L215.93,114.68L215.95,114.02L216.05,134.67L216.22,96.28L216.23,90.87L216.46,101.35L216.68,63.34L217.03,71.21L217.04,70.66L217.22,85.47L217.51,63.12L217.58,78.19L217.6,82.65L217.85,80.9L218.45,172.24L218.47,169.13L219.4,69.46L219.44,70.38L219.46,68.9L219.58,91.72L219.76,73.39L219.77,71.49L219.82,56.52L220.39,97.32L220.4,104.55L220.61,83.04L221.2,169.33L221.26,156.93L221.27,152.21L222.2,69.33L222.32,73.73L222.34,73.68L222.65,47.52L223.01,80.38L223.07,73.53L223.09,80.63L223.87,164.69L223.91,158.97L223.93,156.44L223.99,159.95L225.23,30.54L225.58,56.77L225.59,66.41L225.67,53.92L226.39,169.37L226.58,165.48L226.6,164.86L226.72,171.35L227.59,49.88L227.63,56.07L227.65,59.6L227.92,31.41L228.43,85.83L228.46,78.05L228.47,78.03L229.33,177.1L229.43,148.98L229.45,146.11L229.54,156.68L230.75,32L230.78,45.22L230.8,59.32L230.87,45.29L231.59,172.32L231.65,163.37L231.67,167.07L231.92,183.07L232.31,131.07L232.33,129.13L233.09,28.43L233.5,51.08L233.51,63.07L233.59,56.14L234.5,176.84L234.52,179.16L234.53,179.8L234.77,148.92L234.79,143.84L234.85,164.03L235.3,86.14L235.31,74.41L235.9,28.86L236.11,47.88L236.12,61.82L236.2,49.37L236.9,167.17L237.05,161.29L237.07,162.66L237.14,178.47L237.7,123.75L237.71,120.35L238.45,28.78L238.72,63.78L238.73,69.09L238.79,45.69L238.93,80.73L238.94,83.57L238.96,82.57L239.15,108.18L239.17,111.02L239.23,107.92L239.72,180.05L240.08,150.98L240.1,146.53L241.03,25.15L241.42,56.48L241.43,57.57L241.46,52.54L241.82,113.89L241.84,116.89L242.44,180.12L242.69,151.21L242.71,150.97L242.78,153.41L242.83,138.97L242.84,134.1L243.65,24.15L244.04,50.65L244.06,54.76L244.99,184.8L245,183.03L246.05,40.9L246.1,44.55L246.11,43.26L246.23,23.63L246.68,72.21L246.7,73.97L247.52,183.76L247.91,157.2L247.93,150.5L248.78,28.12L248.95,45.34L248.96,43.38L249.08,35.32L249.26,68.99L249.28,72L250.06,182.13L250.27,164.57L250.28,164.95L250.37,170.3L250.46,158.36L250.48,156.49L251.32,23.91L251.75,54.94L251.77,61.7L252.62,181.05L252.73,170.56L252.74,167.89L252.91,173.86L253.87,26L254.32,53.93L254.33,59.24L255.14,183.68L255.5,170.97L255.52,170.14L255.55,171.61L255.7,136.17L255.71,132.62L255.76,133.07L255.91,107.13L255.92,101.26L256.72,26.32L256.88,58.28L256.9,61.08L257.66,183.7L258.01,178.2L258.02,176.13L258.22,142.62L258.23,136.01L258.31,142.07L259.24,24.6L259.36,41.56L259.37,46.1L260.51,181.18L260.6,172.69L260.62,169.29L261.7,28.3L261.71,28.58L261.73,29.63L261.77,28.37L261.92,52.67L261.94,57.42L263.02,181.87L263.03,178.52L263.05,173.98L263.11,177.46L264.26,25.6L264.28,27.78L265.55,182.66L265.58,179.73L265.6,176.25L266.48,29.27L266.72,33.67L266.74,31.13L266.77,25.2L267.26,102.44L267.28,106.45L268.03,185.68L268.16,160.83L268.18,156.4L269.17,24.97L269.27,27.88L269.29,31.03L270.47,183.64L270.71,153.01L270.73,147.29L271.72,22.61L271.82,26.64L271.84,32.89L272.8,177.82L272.81,177.75L272.83,176.75L273.13,179.39L274.01,23.67L274.46,48.86L274.48,59.71L275.36,176.41L275.38,173.71L276.41,51.01L276.43,48.43L276.56,27.3L276.76,59.4L276.77,68.55L276.85,31.05L277.46,126.77L277.48,131.6L277.57,128.07L277.93,172.12L278.33,155.24L278.35,155.96L279.16,27.81L279.52,47.03L279.53,50.28L279.61,43.81L280.55,173.08L280.67,162.83L280.69,159.26L280.76,160.76L281.87,33.88L281.89,38.14L281.9,47.49L282.08,42.25L282.86,147.96L282.88,146.86L282.89,142.05L283.28,168.77L283.64,126.94L283.67,130.85L283.69,133.23L284.51,20.67L284.63,66.46L284.65,77.74L284.71,40.1L285.2,116.86L285.29,105.47L285.31,116.32L285.94,174.55L286.09,142.81L286.1,141.62L286.15,155.39L286.52,84.36L286.54,80.36L286.58,94.11L287.17,34.7L287.21,53.49L287.23,52.44L287.27,43.91L287.75,106.32L287.86,103.96L287.87,108.83L287.95,106.09L288.62,167.96L288.77,150.66L288.79,144.93L289.72,28.46L289.76,62.89L289.78,68.03L289.87,29.95L290.06,79.17L290.08,98.19L290.14,51.59L290.75,143.51L290.87,141.27L290.89,149.28L291.35,174.64L291.59,124.24L291.61,125.17L291.62,128.63L291.64,132.13L292.03,70.84L292.04,67.37L292.09,73.44L292.22,58.72L292.28,64.4L292.3,49.92L292.76,41.07L292.84,107.65L292.93,86.9L292.94,98.91L293.08,74.06L293.83,159.13L294.17,150.97L294.19,145.29L294.83,51.39L295.07,71.86L295.09,79.26L295.1,79.58L295.13,60.3L295.15,47.63L295.27,37.94L295.64,122.28L295.73,85.55L295.75,101.14L295.9,82.77L296.53,144.07L296.54,141.54L296.63,143.49L297.44,70.48L297.47,85.91L297.49,100.26L297.5,105.46L297.55,55.91L298.21,85.07L298.22,78.36L298.4,72.25L299.27,133.05L299.3,119.54L299.32,107.09L299.41,135.77L300.05,92.55L300.07,93.12L300.08,99.7L300.61,74.38L300.68,125.97L300.85,119.06L300.86,109.24L301.39,120.37L301.45,65.2L301.6,105.3L301.61,106.54L301.75,80.31L302.26,109.17L302.33,94.92L302.35,102.9L302.45,96.39L302.8,125.74L303.11,118.88L303.13,116.57L303.81,123.45L303.87,81.37L303.9,106.61L303.92,120.25L303.93,121.14L304.17,81.52L304.26,98.43L304.28,83.08L304.35,119.12L304.41,40.71L305.01,98.34L305.03,103.81L305.24,81.06L305.7,125.18L305.72,127.88L306.02,143.01L306.08,113.9L306.35,124.95L306.36,114.59L306.6,145.31L307.23,64.92L307.25,76.79L307.26,94.94L307.82,51.06L307.86,108.93L307.98,105.66L308,88.57L308.03,66.63L308.64,119.92L308.72,118.89L308.73,128.85L308.79,109.12L309.42,136.18L309.45,123.35L309.47,109.61L310.13,132.29L310.17,76.48L310.2,102.07L310.22,115.49L310.7,73L311.01,74.11L311.03,83.33L311.12,62.92L311.48,111.62L311.79,107.56L311.81,106.28L312.08,91.39L312.42,120.9L312.53,120.13L312.54,121.46L312.78,125.17L312.83,110.34L312.86,124.19L312.87,134.23L312.89,135.1L312.92,104.44L312.93,95.3L313.28,143.97L313.59,112.35L313.61,97.17L313.67,137.59L314.16,58.99L314.39,75.18L314.4,79.1L314.7,53.41L314.75,109.34L315.18,104.38L315.2,103.83L315.24,78.3L315.92,126.15L315.93,118L315.95,105.49L316.13,152.74L316.17,86.55L316.68,116.24L316.7,126.15L316.71,129.71L317.12,89.63L317.37,111.97L317.39,102.25L317.55,117.73L317.96,80.73L318.14,88.03L318.15,97.47L318.26,108.49L318.3,78.67L318.87,95.81L318.89,93.49L319.11,86.05L319.16,122.89L319.65,108.02L319.67,97.85L320.3,123.6L320.34,90.41L320.36,102.96L320.37,123.13L320.49,140.75L320.54,76.52L321.09,118.14L321.11,116.94L321.21,123.98L321.75,85.28L321.87,97.64L321.89,111.68L321.9,118.69L322.5,81.58L322.59,83.01L322.61,71.77L323.39,130.56L323.4,117.8L323.43,77.08L323.82,121.83L324.15,105.81L324.17,96.66L324.41,114.55L324.47,90.39L324.48,100.58L324.5,115.29L324.57,82.42L324.62,126.07L325.23,112.92L325.25,105.02L325.77,127.54L325.83,94.26L325.97,121.61L325.98,122.32L326.13,74.54L326.18,139.13L326.76,94.02L326.78,97.73L327.12,116.84L327.17,76.51L327.5,92.46L327.51,83.4L328.05,69.34L328.11,141.11L328.14,96.01L328.16,69.23L328.17,64.37L328.43,140.2L328.83,94.36L328.85,106.78L329.36,139.21L329.4,72.05L329.58,99.23L329.6,81.93L329.64,130.61L330.32,98.86L330.33,90.73L330.39,130.65L330.87,84L330.98,93.32L330.99,88.87L331.31,71.23L331.35,131.21L331.67,96.78L331.68,83.01L331.94,136.09L332,55.16L332.37,94.97L332.39,124.18L332.4,135.26L332.45,60.71L333.12,111.11L333.14,109.94L333.54,69.87L333.6,141.72L333.87,114.54L333.89,110.17L334.46,131.68L334.5,85.1L334.62,100.63L334.64,118.55L334.8,84.63L335.33,134.89L335.36,113.29L335.37,90.49L335.97,147.77L336.02,55.05L336.05,90.07L336.06,126.52L336.08,140.88L336.12,63.19L336.75,88.69L336.77,62.77L336.8,92.59L336.81,125.21L337.07,41.5L337.11,149.34L337.44,91.17L337.46,72.18L337.7,127.54L338.19,112.3L338.21,99.44L338.54,81.36L338.87,140.26L338.94,107.84L338.96,128.98L339.12,79.09L339.18,146.55L339.69,112.08L339.71,102.76L339.9,119.62L340.43,90.67L340.46,99.64L340.47,104.27L340.83,70.96L340.89,113.35L341.04,86.02L341.06,71.98L341.16,56.02L341.21,126.64L341.55,98.31L341.57,114.24L341.91,127.76L341.97,71.73L342.21,104.3L342.23,93.24L342.71,83.78L342.75,143.09L342.84,106.96L342.86,133.33L342.87,147.93L342.93,85.24L343.59,116.9L343.61,111.98L344.27,136.98L344.33,70L344.36,106.74L344.37,124.64L344.39,126.77L344.43,83.68L344.75,102.25L344.76,85.1L344.94,132.16L344.99,53.85L345.5,92.51L345.51,97.74L345.84,74.03L345.9,121.72L345.93,93.77L345.95,75.52L345.96,72.86L346.47,133.88L346.55,107.84L346.56,126.79L346.73,71.48L346.79,153.62L347.12,111.17L347.13,100.65L347.46,91.67L347.51,150.87L347.55,94.08L347.57,76.23L347.63,155.83L348.15,64.58L348.24,83.51L348.26,69.61L348.3,144L348.99,68.79L349.01,71.51L349.32,46.06L349.38,136.31L349.76,85.99L349.77,82.24L350.28,69.61L350.33,124.36L350.43,100.93L350.45,114.91L350.52,86.5L351.14,133.1L351.18,112.85L351.2,111.39L351.63,95.99L351.69,144.93L351.93,113.48L351.95,103.89L352.22,130.81L352.71,76.3L352.73,79.48L352.74,97.88L352.77,132.22L353.09,65.35L353.46,83.15L353.48,88.09L353.88,46.86L353.94,126.32L354.24,101.01L354.26,88.91L354.29,76.24L354.95,123.42L354.99,108.02L355.01,111.49L355.1,104.55L355.16,137.55L355.77,122.56L355.79,116.48L355.88,131.72L356.36,89.98L356.57,103.9L356.58,107.97L356.64,108.18L356.7,88.36L356.72,95.36L356.73,111.08L356.75,123.03L357.33,65.1L357.41,91.48L357.42,62.46L357.71,125.33L357.77,33.04L358.11,85.79L358.13,105.84L358.19,72.16L358.8,135.06L358.91,126L358.92,121.31L359.33,114.44L359.39,137.43L359.66,119.2L359.67,126.33L359.82,139.26L360.35,104.1L360.36,93.77L360.44,130.79L360.95,75.01L361.16,82.65L361.17,85.43L361.43,62.74L361.49,98.49L361.52,67.39L361.53,56.12L362.24,105.23L362.28,80.85L362.3,82.31L363.11,132.01L363.12,132.26L363.42,125.54L363.6,139.93L363.78,129.37L363.8,128.02L363.92,130.71L364.73,59.54L364.76,74.02L364.77,87.26L364.79,96.13L365.3,58.93L365.52,93.22L365.54,89.92L365.58,71.92L365.84,122.95L366.24,116.79L366.26,123.23L366.35,110.5L366.75,156L367.02,132.49L367.04,134.01L367.19,148.44L367.68,98.91L367.7,97.75L367.74,105.07L368.28,58.77L368.31,61.21L368.33,65.65L368.85,60.93L369.11,89.44L369.12,88.01L369.18,73.76L369.69,118.56L369.71,119.22L369.74,116.53L370.26,151.79L370.28,153.39L370.31,155.32L370.8,128.81L370.88,134L370.89,131.37L371.84,56.96L371.88,61.54L371.9,63.88L372.35,58.72L372.6,88.49L372.72,83.51L372.74,76.56L372.75,70.87L373.32,134.03L373.4,121.2L373.41,123.36L373.82,158.99L374.22,145.57L374.24,144.87L374.28,145.14L374.48,112.32L374.49,111.19L374.57,111.91L374.61,102.39L374.63,96.22L374.7,100.78L375.35,52.39L375.45,60.6L375.47,60.16L376.14,89.75L376.2,75.21L376.22,72.66L377.36,165.78L377.51,146.15L377.52,144.24L377.66,147.49L378.81,57.08L378.87,68.35L378.89,69.78L379.01,62.81L379.1,79.63L379.5,73.1L379.52,75.53L379.73,73.9L380.28,139.48L380.34,121.45L380.36,124.54L380.9,163.32L381.12,137.29L381.14,134.93L381.2,148.08L381.56,101.43L381.57,99.24L382.04,62.53L382.58,66.28L382.59,70.12L383.25,68.07L383.46,100.6L383.48,104.13L383.67,99.81L384.41,165.56L384.42,164.97L384.44,162.07L385.53,63.61L385.55,63.48L385.95,62.78L386.25,82.85L386.43,81.58L386.45,81.09L386.75,97.13L386.81,67.92L386.93,86.74L386.94,99.46L387.02,57.67L387.77,147.88L387.81,137.53L387.83,139.77L387.99,167.43L388.55,120.5L388.56,116.52L388.65,116.61L389.55,60.59L389.61,77.55L389.63,79.04L389.78,72.2L390.06,91.41L390.17,90.93L390.18,93.81L390.41,78.49L390.59,96.34L390.74,82.44L390.75,77.93L390.77,77.31L390.81,98.35L390.83,103.59L391.1,91.56L391.71,152.04L391.73,151.55L391.74,150.05L391.83,157.8L392.94,64.87L393.3,72.63L393.32,74.66L393.98,99.47L394.17,88.24L394.19,82.42L394.5,62.4L394.68,127.25L394.89,109.52L394.91,107.72L394.94,95.68L395.58,160.89L395.6,162.81L396.74,64.62L396.75,66.06L396.77,70.73L397.07,67.94L397.47,89.67L397.55,85.88L397.56,87.88L398.13,80.21L398.19,120.37L398.33,96.42L398.34,89.11L398.46,81.99L398.63,126.8L398.91,118.39L398.93,119.57L399,140.1L399.02,143.8L399.42,153.02L399.8,121.59L399.81,123.01L399.83,127.54L399.87,134.94L400.44,83.77L400.47,86.7L400.49,88.41L400.97,66.93L401.1,81.42L401.12,83.13L401.33,78.13L402.09,114.52L402.12,102.77L402.14,94.04L402.44,84.06L402.71,127.66L402.89,92.31L402.9,103.77L403.41,145.45L403.68,133.8L403.7,134.09L403.71,134.26L403.76,124.03L403.77,118.52L403.92,140.86L404.67,73.44L404.81,77.72L404.82,81.5L405,66.02L405.83,111.12L405.84,109.54L406.07,117.51L406.64,77.78L406.68,89.37L406.7,97.38L406.98,80.37L407.42,133.28L407.49,131.51L407.51,131.77L407.63,146.54L408.32,103.36L408.41,107.77L408.42,107.09L409.16,74.57L409.22,89.7L409.23,92.49L409.52,89.69L409.58,102L409.59,106.28L409.79,112.94L410.28,98.04L410.3,97.57L410.76,76.09L410.97,103.79L411.14,83.65L411.15,84.97L411.9,152.1L412.23,139.49L412.25,137.81L412.98,75.03L413.24,84.54L413.25,89.4L413.34,65.17L414.08,126.16L414.15,113.1L414.17,111.76L414.48,127.3L414.99,88.72L415.02,91.59L415.04,92.59L415.44,68.84L415.62,92.67L415.77,91.94L415.79,92.52L415.85,82.58L416.31,129.81L416.46,106.86L416.48,111.24L416.58,150.9L417.24,120.94L417.26,119.61L418.04,72.19L418.17,87.12L418.19,93.9L418.47,89.61L418.82,120.58L419,108.69L419.01,106.47L419.13,125.42L419.79,76.06L420.02,88.42L420.03,91.7L420.08,85.83L420.09,83.48L420.2,72.49L420.26,83.67L420.29,83.38L420.3,86.51L420.62,84.42L421.23,130.02L421.25,129.3L421.38,107.49L421.52,131.82L422.04,115.35L422.06,114.84L422.1,115.25L422.19,111.67L422.21,110.32L422.85,121.34L423.02,83.34L423.05,88.93L423.06,94.8L423.14,110.29L423.83,103.36L423.84,100.71L424.04,113.57L424.61,79.89L424.67,87.09L424.68,88.15L424.91,79.56L425.55,111.83L425.7,101.29L425.72,99.59L426.27,96.24L426.44,138.63L426.51,113.24L426.53,109.66L426.8,126.83L427.2,106.01L427.26,111.65L427.28,112.73L427.88,85.28L427.95,101.61L427.97,103.88L428.04,110.7L428.13,88.96L428.67,98.46L428.69,97.94L428.94,105.06L429.09,88.43L429.45,91.68L429.47,95.78L429.69,104.93L429.86,84.15L430.22,100.34L430.23,96.73L430.68,89.14L430.74,116.79L430.92,96.45L430.94,103.98L431.24,76.68L431.4,154.76L431.72,127.29L431.73,128.68L431.78,136.51L431.94,104.65L432.35,113.83L432.36,108.87L432.62,112.1L432.84,82.57L433.17,89.06L433.19,90.19L433.91,112.41L433.95,105.37L433.97,102.73L434.21,115.07L434.81,82.21L434.82,84.3L435.26,77.15L435.45,118.23L435.62,100.99L435.63,98.12L435.65,96.64L436.07,117.8L436.08,121.75L436.29,87.17L436.44,149.05L436.83,124.98L436.85,121.59L437.48,94.88L437.61,110.82L437.63,111.95L437.81,92.27L438.05,108.61L438.06,110.18L438.08,111.54L438.17,88.3L438.59,95.59L438.6,92.7L438.78,102.78L439.05,91.21L439.19,96.7L439.2,99.68L439.25,107.9L439.41,84.97L439.92,100.93L439.94,97.79L440.33,89.42L440.51,114.57L440.67,105.32L440.69,108.86L441,87.79L441.17,131.77L441.3,90.19L441.32,82.94L441.35,73.96L441.5,154.57L442.02,107.17L442.04,107.16L442.2,125.64L442.59,100.22L442.77,111.25L442.79,110.29L443.1,111.67L443.28,84.77L443.64,92.33L443.66,92.1L443.7,88.76L444.29,103.21L444.3,104.93L444.47,89.91L444.57,101.64L444.59,103.88L445.11,89.53L445.28,109.95L445.31,103.42L445.32,97.27L445.85,114.19L446.03,92.63L446.06,98.02L446.07,101.01L446.49,88.44L446.63,136.41L446.64,141.89L446.66,144.23L446.82,96.3L447.15,114.11L447.17,113.65L447.36,123.09L448.1,88.77L448.11,89.56L448.13,91.89L448.26,108.72L448.44,80.71L448.86,92.48L448.88,91.35L448.91,90.07L449.43,105.13L449.51,103.87L449.52,104.46L449.6,95.09L449.76,111.4L450.08,104.5L450.09,107.07L450.11,108.42L450.32,93.26L450.74,104.03L450.75,100.6L450.78,95.68L450.96,111.65L451.43,111.02L451.44,113.29L451.65,89.84L451.8,144.83L451.92,107.48L451.94,101.11L451.98,92.11L452.15,139.73L452.67,109.48L452.69,108.98L452.85,103.49L452.96,111.04L452.97,112.89L452.99,113.57L453.14,95.99L453.15,93.33L453.36,106.25L453.57,77.45L453.93,89.93L453.95,91.3L453.99,88.28L454.26,101.55L454.5,97.98L454.52,100.15L454.76,92.67L454.95,116.41L455.28,106.91L455.29,105.31L455.65,89.6L455.82,109.4L456.04,103.32L456.06,101.95L456.07,100.93L456.7,110.95L456.72,114.45L456.93,100.71L457.09,132.76L457.48,122.45L457.5,120.24L458.32,100.4L458.34,99.79L458.82,83.95L459.28,90.19L459.3,92.06L459.36,90.52L460.14,108.78L460.17,102.17L460.18,97.98L460.41,95.57L460.89,117.24L460.92,106.12L460.93,101.55L460.99,120.35L461.16,97.59L461.64,110.49L461.65,109.02L462.15,112.03L462.19,100.01L462.34,108.39L462.36,112.53L462.63,103.84L462.79,116.27L463.09,113.53L463.11,112.43L463.18,113.55L463.68,99.24L463.96,99.57L463.98,98.06L464.08,101.78L464.61,90.35L464.74,93.85L464.76,95.88L464.83,90.8L465.51,102.81L465.54,99.08L465.55,97.14L465.57,96.86L465.85,102.69L466.08,98.35L466.09,100.2L466.41,93.98L466.68,109.44L466.83,101.34L466.84,99.69L467.49,114.47L467.62,107.69L467.64,104.63L467.82,113.99L467.98,102.97L468.33,109.53L468.34,110.71L468.64,116.39L468.81,104.4L469.08,110.79L469.09,109.33L469.33,110.8L469.93,96.79L469.95,96.92L470.07,102.04L470.59,91.37L470.61,91.26L470.65,89.16L471.15,99.38L471.16,100.42L471.34,96.58L471.52,103.2L471.72,100.09L471.73,102.54L472.02,95.9L472.2,107.22L472.45,102.11L472.47,99.77L472.48,99.4L472.87,109.94L473.05,106.01L473.07,106.26L473.59,112.95L473.74,104.86L473.76,103.77L474.37,111.85L474.49,105.97L474.51,105.84L474.64,112.39L475.15,104.32L475.26,105.72L475.27,106.59L475.33,108.21L475.84,102.6L475.93,102.94L475.95,102.93L475.99,105.55L476.49,91.89L476.58,93.2L476.59,91.71L476.7,90.15L477.55,99.57L477.58,98.59L477.6,97.61L477.97,105.98L478.03,95.28L478.06,102.52L478.08,107.76L478.15,94.81L478.65,115.23L478.78,104.46L478.8,100.84L478.86,113.27L479.58,111.16L479.59,109.04L480.07,100.37L480.25,110.56L480.34,107.86L480.36,108.72L480.42,104.11L480.6,113.86L480.91,111.45L480.93,112.8L480.94,113.18L481.2,104.94L481.5,106.18L481.51,104.25L481.71,111.44L482.31,95.25L482.32,95.47L482.34,97.26L482.37,101.15L482.53,91.85L483.07,95L483.09,94.59L483.12,92.98L483.7,102.06L483.78,100.4L483.79,102.32L483.85,96.09L484.36,107.92L484.51,101.52L484.53,100.38L485.05,111.24L485.29,106.1L485.31,103.33L485.49,113.97L485.65,100.2L486.01,106.49L486.03,107.9L486.07,105.98L486.66,111.53L486.72,108.72L486.73,110.29L486.76,111.89L487.26,103.91L487.44,108.55L487.45,107.4L487.9,108.02L488.28,100.46L488.29,100.9L488.32,102.06L488.71,93.63L488.95,97.46L488.97,97.36L489.12,93.52L489.28,98.69L489.57,97.77L489.58,99.53L489.88,95.98L490.36,103.18L490.38,102.49L490.42,97.9L491.04,106.4L491.11,104.5L491.13,106.13L491.31,103.29L491.79,112.76L491.91,110.55L491.92,107.86L492.06,103.95L492.54,111.78L492.69,105.22L492.7,105.05L492.85,111.55L493.45,106.82L493.47,106.72L493.51,108.11L493.9,104.26L494.17,104.76L494.19,104.62L494.37,105.42L494.94,95.75L494.95,95.26L495.12,97.91L495.25,93.59L495.27,93.2L496.15,99.61L496.17,99.19L496.18,98.34L496.21,97.15L496.77,102.62L496.84,101.58L496.86,101.94L497.01,100.48L497.85,110.22L497.95,109.6L497.97,109.12L498.31,106.82L498.48,110.91L498.72,109L498.73,108.65L498.81,111.26L498.96,108.16L499.42,108.32L499.44,108.29L500.14,103.45L500.32,105.64L500.34,105.66L500.4,106.42L500.86,102.71L500.88,102.41L501.78,93.64L502.06,94.54L502.08,94.46L504.12,109.6L504.48,108.89L504.49,108.56L504.88,106.23L505.26,107.81L505.27,108.35L505.48,107.25L505.63,109.71L506.02,108.48L506.04,108.31L506.08,108.64L506.37,106.05L506.46,106.14L506.47,105.84L508.32,93.26L508.47,93.55L508.48,93.63L508.63,93.19L508.78,94.92L508.8,95.1L509.11,97.59L509.13,97.79L510.22,106.27L510.24,106.27L510.67,110.08L511.06,108.31L511.08,107.86L511.35,106.5L511.92,109.07L511.95,108.82L511.96,108.71L512.11,109.97L512.64,108.02L512.65,107.93L513.07,104.51L513.09,104.36L513.24,103.06L513.87,103.42L513.88,103.38L514.3,99.3L514.32,99.02L515.01,93.23L515.32,94.04L515.34,94.15L516.34,103.46L516.39,103.18L516.4,103.21L517.3,109.58L517.81,108.07L517.83,108.03L517.87,107.74L518.35,110.21L518.37,110.49L518.49,110.81L519.87,102L520.12,103.38L520.14,103.67L520.26,103.77L521.01,99.33L521.02,99.22L521.61,94.28L522.01,95.39L522.03,95.47L525.36,111.78L525.37,111.64L526.47,102.04L526.48,101.93L526.72,101.75L526.84,102.64L526.86,102.94L527.01,103.68L527.49,100.41L527.5,100.15L527.73,99.31L527.74,98.91L528.45,93.95L528.67,94.98L528.69,95.21L529.89,103.83L529.9,103.75L531.88,112.23L532.24,111.08L532.26,110.84L533.31,101.16L533.34,101.37L533.35,101.61L533.97,103.51L534.15,102.15L534.16,102.15L535.18,93.44L535.53,95.04L535.54,95.18L537.49,107.98L537.51,107.72L537.52,107.33L537.54,107.14L538.14,108.46L538.15,108.58L538.77,112.76L539.05,111.05L539.07,110.96L539.52,106.3L539.53,106.09L540.09,100.58L540.46,102.53L540.48,102.86L540.73,103.4L541.12,100.48L541.14,100.23L541.98,93.61L542.31,95.39L542.32,95.47L544.06,106.97L544.08,106.93L544.14,107.17L544.69,106.29L544.71,106.31L545.67,110.76L545.68,110.89L545.79,111.21L546.13,109.37L546.15,109.19L546.87,101.84L547.21,102.37L547.23,102.5L547.63,103.99L547.93,101.94L547.95,101.9L548.98,94.17L549.24,95.67L549.25,95.79L549.75,101.02L549.76,101.29L551.07,106.77L551.08,106.71L551.59,105.58L551.88,106.33L551.89,106.42L552.7,111.09L553.05,109.78L553.06,109.7L554.11,101.37L554.52,102.79L554.53,102.96L554.86,103.47L555.13,102.58L555.15,102.47L556.17,95.21L556.3,95.72L556.32,95.78L556.81,98.79L556.83,98.93L557.26,102.18L557.28,102.36L558.21,105.38L558.22,105.23L560.13,109.91L560.25,109.63L560.26,109.39L560.32,109.55L560.58,108.13L560.59,108L561.78,102.12L561.96,102.56L561.97,102.67L562.63,102.32L562.65,102.23L563.97,97.32L564.21,97.94L564.22,98.02L564.61,100.07L564.63,100.2L566.29,106.64L566.46,106.46L566.47,106.36L567.36,107.66L567.48,107.54L567.49,107.45L567.93,108.01L568.24,107.11L568.27,107.23L568.29,107.3L569.74,101.93L569.77,102L569.79,102L570.49,102.18L570.55,101.92L570.57,101.87L570.61,102.08L571.09,100.66L571.11,100.65L572.07,98.55L572.37,99.2L572.38,99.27L573.42,103.93L573.43,104.09L574.27,106.25L574.42,105.63L574.44,105.64L574.62,106.15L575.11,105.23L575.13,105.13L576.1,107.04L576.13,106.94L576.15,106.84L576.19,107.13L576.7,105.72L576.73,105.84L576.75,105.78L577.62,103.15L577.63,103.18L577.65,103.21L578.14,103.98L578.5,103.42L578.52,103.39L579.87,98.19L579.9,98.31L579.91,98.45L580.48,100.93L580.5,101.12L581.89,104.88L581.91,104.85L581.92,104.81L582.52,103.93L582.79,104.55L582.81,104.81L582.88,104.5L583.18,105.44L583.5,105.08L583.51,105.23L584.28,104.14L584.38,104.36L584.4,104.31L585.63,106.39L585.66,106.26L585.67,106.19L586.21,104.46L586.23,104.27L587.56,100.01L587.68,100.13L587.7,100.19L587.86,100.08L588.15,100.72L588.16,100.79L589.5,104.3L589.74,104.14L589.75,104.11L590.53,103.93L590.55,103.87L591.06,104.12L591.4,103.66L591.42,103.61L591.85,103.54L592.02,103.99L592.06,103.99L592.08,104.07L593.08,105.08L593.28,104.78L593.29,104.69L594.66,103.69L594.67,103.75L594.69,103.78L595.66,103.12L595.68,103.07L598.26,103.44L598.27,103.48L600.78,103.61L600.79,103.59L606.25,103.36L606.27,103.34L606.99,103.6L607,103.58" style="vector-effect: non-scaling-stroke; fill: none; stroke: rgb(192, 192, 192); stroke-opacity: 1; stroke-width: 1px; opacity: 1;"/></g><g class="points"/><g class="text"/></g><g class="trace scatter tracee0ba78" style="stroke-miterlimit: 2; opacity: 1;"><g class="fills"/><g class="errorbars"/><g class="lines"><path class="js-line" d="M0,103.46L0.31,103.02L0.36,104.02L0.72,103.62L0.73,103.22L1.5,103.82L1.51,103.5L1.69,103.86L2.29,103.02L2.32,103.46L2.34,103.86L2.79,102.13L3.03,104.34L3.09,104.14L3.1,104.1L3.64,100.64L3.67,108L3.69,117.51L3.85,80.21L4.3,126.79L4.42,111.05L4.44,106.99L4.53,122.13L5.34,80.21L5.35,84.18L5.37,91.74L5.44,86.78L5.97,126.79L6.15,117.37L6.16,117.89L6.24,126.79L6.36,98.56L6.37,93.73L6.69,80.21L6.79,117.13L7,107.92L7.02,110.92L7.06,116.15L7.71,96.43L7.72,94.16L7.86,110.29L7.9,80.21L7.93,107.44L7.95,118.44L8.05,126.79L8.58,80.21L8.71,92.34L8.73,94.67L9.03,86.54L9.09,114.94L9.15,98.64L9.16,112.94L9.52,126.79L9.82,83.34L9.84,81.09L9.94,80.21L10.51,126.07L10.63,114.7L10.65,103.54L10.71,120.36L11.16,83.22L11.38,103.82L11.4,109.32L11.5,126.03L12.21,86.92L12.24,96.47L12.25,100.29L12.49,80.21L12.87,107.21L12.91,102.25L12.93,104.05L13.29,90.9L13.71,126.8L13.8,116.69L13.81,116.32L13.87,113.74L13.92,119.45L13.93,122.96L13.95,125.28L14.14,80.21L14.37,89.37L14.38,87.58L14.4,86.76L14.5,112.37L14.52,115.88L14.7,97.44L15.09,121.08L15.21,103.85L15.22,99.91L15.49,80.21L15.78,114.95L15.79,117L15.9,126.79L16.15,96.83L16.2,98.4L16.21,95.14L16.26,85.98L16.66,109.29L16.93,99.58L16.95,98.89L17.22,123.74L17.61,80.21L17.76,91.75L17.77,93.06L18.01,126.79L18.3,109.7L18.31,107.56L18.96,83.53L19.08,103.06L19.09,107.27L19.36,126.79L19.78,94.88L19.8,90.56L19.81,87.93L20.46,113.72L20.47,117.44L20.7,126.79L20.97,98.25L20.98,96.89L21.15,80.16L21.45,108.8L21.46,110.25L21.6,126.79L21.97,90.59L21.99,87.68L22.21,80.21L22.62,116.55L22.63,122.02L22.74,122.97L22.93,106.03L22.95,103.79L23.01,114.16L23.4,80.21L23.58,94.77L23.59,92.21L23.83,121.58L24.34,105.65L24.36,104.74L24.61,90.76L25,114.8L25.02,117.93L25.14,126.79L25.59,80.21L25.6,80.32L25.98,114.6L26.59,107.26L26.61,103.91L26.94,90.61L27.27,107.75L27.34,103.52L27.36,105.07L27.55,126.79L27.96,86.1L27.97,83.52L28.02,80.21L28.36,113.45L28.38,117.18L28.45,126.79L28.87,94.35L29.08,107.61L29.1,105.01L29.46,80.21L29.77,118.46L29.79,120.63L29.91,126.79L30.33,80.21L30.43,88.61L30.45,91.27L30.72,114.68L31.2,97.11L31.21,93.39L31.23,92.74L31.33,110.72L31.35,113.91L31.39,126.79L31.84,82.84L32.08,114.75L32.1,113.42L32.28,126.79L32.47,94.45L33.01,97.92L33.03,97.15L33.37,108.52L33.58,99.8L33.6,98.18L33.82,86.81L33.99,104.17L34.06,101.57L34.08,105.53L34.57,91.83L34.9,126.79L34.93,124.58L34.95,123.1L35.05,124.75L35.28,81.83L35.61,111.24L35.62,114.89L35.71,126.79L36.16,93.39L36.22,93.97L36.24,93.23L36.34,89.51L36.79,110.02L36.81,109.99L36.82,109.9L36.87,110.33L37.05,102.95L37.06,102.37L37.24,93.25L37.71,105.32L37.77,103.41L37.78,106.88L37.96,94.11L38.5,126.79L38.65,112.95L38.67,111.16L38.85,82.79L39.25,122.85L39.27,124.09L39.31,126.79L39.76,93.69L39.78,93.21L39.87,88.88L40.27,108.58L40.29,108.83L40.36,111.39L40.69,97.13L40.71,96.61L40.77,92.71L41.2,104.77L41.41,99.79L41.43,100.72L41.56,96.29L41.71,109.86L41.73,111.41L41.91,126.79L42.22,88.85L42.24,86.79L42.36,80.21L42.76,126.79L42.78,126.62L43.06,100.11L43.08,99.44L43.17,95.19L43.78,102.82L43.8,104.73L44.04,113.81L44.43,87.41L44.44,87.48L44.89,110.94L45.16,96.29L45.18,95.23L45.58,126.79L46.02,81.41L46.03,81.86L46.36,126.79L46.71,98.55L46.72,97.58L46.8,99.66L46.95,95.54L47.35,98.72L47.37,99.69L47.68,108.48L48.04,94.93L48.06,94.11L48.16,92.12L48.3,96.41L48.31,98.5L48.79,92.41L49.24,126.79L49.27,122.53L49.29,118.56L49.6,81.08L50.02,124.69L50.04,125.61L50.07,126.79L50.32,98.8L50.43,98.95L50.44,98.48L50.71,106.46L51.03,93.28L51.18,97.24L51.19,100.48L51.33,109.33L51.76,91.2L51.85,91.35L51.87,90.91L52.72,119.35L52.74,120.06L52.84,126.86L52.99,117.93L53.01,115.37L53.28,81.64L53.7,126.79L53.71,126.49L53.73,125.16L54.69,91.54L54.7,91.68L54.72,92.08L55,108.64L55.48,94.03L55.5,94.25L55.54,92.22L55.89,105.7L56.07,101.3L56.08,105.95L56.43,126.79L56.73,92.05L56.74,89.65L56.86,82.51L57.24,119.04L57.25,119.51L57.31,122.73L57.55,105.95L57.57,103.83L57.93,112.04L58.32,80.21L58.42,87.9L58.44,89.01L58.8,107.68L59.25,97.25L59.26,95.65L59.56,94.89L59.71,102.64L59.73,104.19L60.04,126.79L60.33,104.58L60.34,103.07L60.49,88.51L60.94,113.77L60.96,113.92L61.23,105.27L61.53,114.35L61.54,114.97L61.56,115.37L61.69,103.4L61.71,101.15L61.95,80.21L62.41,107.74L62.43,107.41L62.79,90.96L63.22,103.19L63.24,101.55L63.28,96.35L63.78,126.79L63.91,119.2L63.93,117.53L64.23,95.04L64.75,106.1L64.77,105.28L65.26,115.91L65.71,80.81L65.73,80.39L65.74,80.21L65.91,90.3L65.92,91.45L66.34,89.35L66.84,101.47L66.87,99.19L66.88,97.23L67.15,119.61L67.17,121.48L67.35,126.79L68.41,94.76L68.56,100.83L68.58,101.9L68.82,116.92L69.19,89.32L69.21,87.82L69.52,97.09L69.93,80.21L69.99,83.27L70,83.8L70.81,120.42L71.13,109.23L71.14,108.11L71.17,107.42L71.47,120.54L71.49,122.25L71.62,126.79L72.03,113.23L72.16,114.24L72.18,115.01L72.21,115.98L72.58,92.98L72.6,92.54L72.94,108.25L73.27,89.05L73.29,87.17L74.04,80.21L74.07,81.27L74.08,82.57L75.52,126.91L75.6,126.85L75.61,126.79L75.94,114.02L75.96,113.06L76.99,83.82L77.01,83.75L77.1,83.97L77.43,80.21L77.59,84.04L77.61,84.19L79,126.79L79.35,121.53L79.36,120.91L81.01,80.17L81.21,85.17L81.22,86.02L82.78,126.79L82.89,124.41L82.9,124.12L83.53,104.41L83.55,103.77L84.19,80.09L84.7,80.88L84.72,81.12L86.4,126.79L86.49,126.23L86.5,125.72L88.3,80.21L88.41,81.91L88.42,82.27L90.07,126.79L90.22,122.82L90.24,122.53L90.43,115.83L90.45,115.08L91.77,80.18L91.81,81.25L91.83,81.47L91.96,80.09L92.25,88.87L92.26,89.23L93.78,126.79L93.91,123.07L93.93,122.08L95.44,80.23L95.46,80.25L96.13,96.93L96.15,97.51L97.42,126.79L97.62,123.56L97.63,123.03L98.61,92.14L98.62,91.36L99.34,80.06L99.58,82.75L99.6,83.42L100.75,126.79L100.81,126.67L100.83,126.66L101.55,118.28L101.56,117.77L103.23,80.21L103.3,82.04L103.32,82.57L104.98,126.79L105.1,125.97L105.12,125.46L106.8,80.21L106.96,82.2L106.98,82.14L107.23,88.15L107.25,88.89L108.37,124L108.39,123.99L108.4,123.89L108.73,126.79L108.99,123.65L109,123.06L110.77,80.09L110.91,82.32L110.92,83.01L111.03,87.01L111.04,87.36L111.39,104.36L111.4,105.55L112.57,126.79L112.59,126.51L114.22,82.5L114.24,82.52L114.55,80.2L114.7,83.37L114.72,83.87L116.25,125.13L116.28,124.95L116.29,124.9L116.38,126.79L116.61,122.42L116.62,121.79L118.27,80.2L118.45,81.95L118.47,82.21L120.19,126.79L120.37,123.29L120.39,122.65L121.78,82.1L121.8,82.23L122.1,80.21L122.34,83.31L122.35,83.66L122.58,92.4L122.59,92.73L123.6,126.79L124.14,124.6L124.15,124.11L126.03,80.21L126.19,83.14L126.21,83.29L126.3,87.42L126.31,88.05L127.86,126.79L128.07,124.81L128.08,124.45L129.82,80.21L130.02,83.48L130.03,83.71L131.82,126.79L131.88,125.84L131.89,125.14L133.57,80.21L133.6,80.43L133.62,80.76L135.61,126.79L135.63,126.64L137.38,80.21L137.47,81.25L137.49,81.57L137.53,80.77L137.77,88.96L137.79,89.99L138.79,125.47L138.9,124.53L138.91,124.22L139.26,126.79L139.93,108.65L139.95,108.22L141.13,80.16L141.27,80.64L141.28,80.89L142.57,126.79L143.23,125.32L143.25,124.97L144.97,80.21L145.18,82.27L145.2,82.56L146.85,126.2L146.92,125.82L146.94,126.16L146.97,126.79L147.31,114.48L147.33,113.72L148.48,82.09L148.5,81.59L148.75,80.21L149.07,86.02L149.08,86.67L150.19,126.79L150.75,124.14L150.76,124.02L150.99,116.84L151,116.37L152.62,80.21L152.75,85.56L152.77,87.19L153.71,126.79L153.8,126.34L153.82,126.41L154.07,118.71L154.09,118.39L154.28,123.05L154.42,117.44L154.43,116L155.26,80.21L155.69,85.57L155.71,85.76L155.86,84.57L157.18,126.79L157.22,123.77L157.24,122.74L158.14,96.24L158.2,99.87L158.21,100.33L158.3,102.43L158.48,92.59L158.5,92.38L158.56,96.26L158.86,85.86L159.2,88.3L159.22,87.72L159.5,80.21L159.86,101.89L159.88,102.96L160.43,126.79L160.73,119.27L160.75,117.37L161.24,98.77L161.63,99.04L161.65,99.11L161.72,101.25L162.17,89.94L162.19,88.73L162.49,92.17L162.77,80.21L162.92,88.33L162.94,89.05L163.82,126.79L164.09,119.95L164.11,117.26L164.63,95.38L164.89,107.65L164.9,107.68L165.46,94.59L165.47,93.3L165.85,93.74L166.13,80.21L166.31,89.48L166.33,89.55L166.61,102.87L166.63,107.37L167.21,126.79L167.42,120.42L167.44,120.06L167.95,95.55L168.28,107.73L168.29,107.38L168.82,98.48L168.83,97.14L169.52,80.21L169.67,89.93L169.69,91.54L169.75,89.55L169.97,97.61L169.99,101.39L170.57,126.79L170.77,119.27L170.78,119.2L171.25,100.04L171.26,98.68L171.31,93.61L171.83,106.93L171.92,104.5L171.94,104.63L172.88,80.21L173.03,86.08L173.05,86.67L173.87,126.82L174.05,116.1L174.07,115.65L174.13,116.58L174.19,111.48L174.2,110.15L174.26,110.36L174.65,95.36L175.09,103.6L175.1,104.29L175.22,106.55L175.6,97.8L175.61,97.21L176.32,87.91L176.45,93.77L176.47,95.99L176.98,126.79L177.29,119.81L177.31,118.18L177.98,93.95L178.16,102.45L178.18,103.37L178.48,106.71L179.26,87.18L179.38,90.34L179.39,91.53L179.45,87.48L179.59,100.26L179.6,103.05L180.1,126.79L180.43,119.57L180.44,118.69L181.09,92.39L181.4,101.41L181.42,102.2L181.58,105.54L181.93,93.07L182.05,96.93L182.06,96.12L182.36,87.99L182.65,104.41L182.66,105.35L182.83,104.32L183.07,121.5L183.08,123.99L183.13,126.79L183.28,111.75L183.64,112.86L183.65,111.16L184.16,91.43L184.51,98.88L184.52,98.7L184.58,98.01L184.63,101.67L184.64,104.04L184.67,106.73L185,92.43L185.29,95.03L185.3,94.32L185.47,90.45L185.72,106.3L185.74,108.57L185.9,101.28L186.19,126.79L186.61,119.83L186.62,119.25L187.19,93.43L187.64,95.82L187.66,98.44L187.7,103.13L188.03,92.16L188.38,92.24L188.39,92.54L188.47,88.21L188.63,93.6L188.68,91.73L188.69,95.44L189.19,126.79L189.5,117.19L189.52,116.04L189.59,123.05L189.8,106.63L189.82,104.7L190.22,93.94L190.3,108.99L190.64,94.78L190.66,95.62L190.72,105.6L191.06,90.78L191.39,94.66L191.41,92.78L191.44,87.75L191.8,112.41L192.08,109.34L192.1,111.73L192.22,126.79L192.8,103.88L192.82,103.36L192.94,108.13L193.18,97.33L193.19,94.43L193.21,93.04L193.28,111.8L193.78,103.79L193.79,106.44L193.81,107.2L194.03,87.13L194.05,85.34L194.45,80.21L195.19,126.79L195.32,110.58L195.34,110.21L195.62,120.32L196.19,89.12L196.22,100.1L196.24,107.23L196.25,111.02L196.6,96.66L196.96,97.34L196.97,96.13L197.45,80.21L197.65,100.68L197.66,102.14L197.89,93.99L198.14,126.79L198.56,122.62L198.58,121.58L199.12,87.26L199.43,99.69L199.45,99.42L199.7,109.48L200.39,80.21L200.45,83.54L200.47,84.38L201.05,126.79L201.47,126.21L201.49,126.16L202.06,80.21L202.46,87.97L202.48,90.62L202.55,108.63L203.21,85.2L203.23,83.17L203.26,80.21L203.57,115.48L203.83,113.62L203.84,116.63L203.95,126.88L204.14,108.54L204.47,109.48L204.49,107.45L204.62,112.58L204.95,91.29L205.31,92.58L205.33,90.85L205.34,90.53L205.54,105.71L205.84,95.58L205.85,98.75L206.24,86.84L206.42,115.34L206.57,97.09L206.59,96.1L206.6,94.98L206.81,126.79L207.11,121.86L207.13,123.03L207.83,89.26L207.89,108.19L207.91,110.09L208.01,110.51L208.57,91.78L208.7,94.14L208.72,96.26L208.99,90.2L209.3,114.75L209.48,99.18L209.5,101.22L209.69,126.79L210.23,101.99L210.25,100.53L210.4,108.93L210.65,90.57L211.07,95.02L211.09,96.12L211.27,103.94L211.42,92.58L211.76,94.28L211.78,92.4L211.79,91.65L212.11,113.21L212.33,104.93L212.35,106.28L212.51,126.79L213.07,105.15L213.08,103.8L213.23,107.66L213.5,89.24L213.94,95.88L213.95,97.46L214.12,101.93L214.61,91.38L214.63,89.23L214.64,88.04L214.94,110.27L215.2,106.9L215.21,109.69L215.66,126.79L215.93,107.43L215.95,107.2L216.05,114.45L216.22,100.97L216.23,99.08L216.46,102.75L216.68,89.53L217.03,92.32L217.04,92.14L217.22,97.28L217.51,89.63L217.58,94.81L217.6,96.35L217.85,95.78L218.45,126.79L218.47,125.74L219.4,91.8L219.44,92.11L219.46,91.6L219.58,99.44L219.79,90.59L219.8,88.29L219.82,87.24L220.36,96.41L220.37,98.81L220.61,96.33L221.2,126.79L221.27,120.86L221.29,119.07L222.2,90.02L222.22,90.35L222.23,91.18L222.25,91.77L222.62,81.54L222.64,80.55L222.65,80.21L223,92.42L223.01,94.14L223.06,90.81L223.43,112.87L223.45,113.96L223.87,126.79L224.23,118.21L224.24,117.35L224.35,118.16L225.25,80.2L225.38,83.11L225.4,83.78L226.39,125.73L226.48,125.14L226.49,125.03L226.72,126.79L227.92,80.21L227.99,81.88L228.01,82.87L228.94,122.8L228.95,123.33L229.33,126.79L229.48,116.31L229.55,118.78L229.57,116.3L229.64,117.81L230.44,80.91L230.5,81.34L230.51,81.15L230.62,84.6L230.75,80.21L230.78,84.57L230.8,89.17L230.87,84.76L231.59,124.23L231.65,121.44L231.67,122.52L231.92,126.79L232.31,111.72L232.33,111.15L233.09,80.21L233.5,87.31L233.51,91.02L233.59,88.89L234.5,125.89L234.52,126.59L234.53,126.79L234.77,117.41L234.79,115.86L234.85,122.07L235.3,98.14L235.31,94.51L235.9,80.21L236.11,86.16L236.12,90.51L236.2,86.63L236.9,123.29L237.05,121.46L237.07,121.88L237.14,126.79L237.7,109.8L237.71,108.74L238.45,80.21L238.72,91.19L238.73,92.84L238.79,85.6L238.93,96.47L238.94,97.35L238.96,97.04L239.15,104.94L239.17,105.81L239.23,104.86L239.72,126.79L240.08,117.85L240.1,116.5L241.03,80.21L241.42,89.44L241.43,89.76L241.46,88.25L241.82,106.63L241.84,107.53L242.44,126.79L242.69,117.89L242.71,117.81L242.78,118.52L242.83,114.16L242.84,112.69L243.65,80.21L244.04,88.1L244.06,89.3L244.99,126.79L245,126.29L246.05,85.3L246.11,85.97L246.13,84.8L246.23,80.21L246.77,97.89L246.79,97.81L246.8,97.82L247.52,126.79L247.9,121.48L247.91,119.38L248.78,80.21L248.99,84.89L249.01,85.31L249.08,82.65L249.29,95.07L249.31,95.98L250.06,126.79L250.46,119.68L250.48,119.13L251.32,80.21L251.75,89.17L251.77,91.16L252.62,126.79L252.73,123.64L252.74,122.84L252.91,124.63L253.87,80.21L254.32,88.79L254.33,90.37L255.14,126.79L255.5,123.26L255.52,123.03L255.55,123.47L255.71,112.07L255.73,111.88L255.76,112.21L255.92,102.84L255.94,102.05L256.72,80.21L256.87,89.02L256.88,89.95L257.66,126.79L258.17,116.73L258.19,117.01L259.24,80.21L259.4,89.21L259.42,90.22L260.51,126.79L260.57,125.89L260.59,125.12L261.7,80.21L261.83,82.96L261.85,82.81L261.86,82.65L262.03,91.93L262.04,91.98L262.19,98.85L262.21,99.92L263.02,126.79L263.15,119.06L263.17,116.85L263.21,118.71L263.51,103.84L263.53,102.69L264.26,80.21L264.4,85.19L264.41,86.34L265.55,126.79L265.69,119.02L265.7,117.45L266.77,80.21L266.9,85.95L266.92,87.23L268.03,126.79L268.07,123.92L268.09,122.86L269.17,80.21L269.48,89.9L269.5,90.31L270.47,126.79L270.71,117.86L270.73,116.2L271.72,80.21L271.82,81.27L271.84,83.06L272.8,125.96L272.81,125.95L272.83,125.67L273.13,126.79L274.01,80.21L274.46,87.04L274.48,90.29L275.24,126.79L275.36,126.69L275.38,125.82L276.41,87.38L276.43,86.59L276.56,80.21L276.76,89.83L276.77,92.65L276.85,80.89L277.45,109.09L277.46,111.11L277.93,126.79L278.32,120.24L278.33,120.48L278.35,120.7L278.41,113.33L278.42,112.36L278.68,103.42L278.69,102.42L279.16,80.21L279.64,88.23L279.65,92.56L280.55,126.79L280.58,124.5L280.6,122.73L280.66,123.88L281.87,80.21L281.89,81.62L281.9,84.74L282.08,82.82L282.86,119.06L282.88,118.68L282.89,117.01L283.28,126.79L283.64,111.25L283.67,112.49L283.69,113.24L284.51,80.21L284.63,92.96L284.65,96.16L284.71,85.32L285.2,107.53L285.29,104.1L285.31,107.41L285.94,126.79L286.09,116.43L286.1,116.05L286.15,120.6L286.52,97.13L286.54,95.8L286.58,100.37L287.15,80.53L287.17,80.21L288.07,117.65L288.11,113.3L288.13,111.35L288.62,126.79L288.77,120.16L288.79,118.11L289.72,80.21L289.75,87.39L289.76,90.88L289.87,80.57L290.6,110.24L290.66,103.02L290.68,102.55L291.35,126.79L291.47,118.83L291.49,116.82L292.31,82.79L292.34,89.65L292.36,91.31L292.76,80.21L292.84,105.06L293.08,92.15L293.09,94.14L293.83,126.79L293.93,121.69L293.95,120.36L294.14,125.79L294.83,84.1L294.98,90.34L295,93.5L295.27,80.21L295.33,100.38L295.61,97.78L295.63,105.45L295.72,93.54L296.39,119.28L296.41,118.25L296.63,120.49L297.23,103.08L297.25,102.06L297.5,104.45L297.55,80.21L297.92,96.77L297.94,97.04L298.12,80.21L298.55,112.64L298.66,103.29L298.67,110.25L298.75,90.4L299.41,126.79L299.45,115.6L299.47,111.68L299.56,121.43L300.05,95.16L300.26,100.95L300.28,103.99L300.61,80.21L300.68,120.95L300.97,106.93L300.98,94.19L301.06,114.38L301.45,80.21L301.73,91.96L301.75,90.26L302.69,110.71L302.71,109.22L302.8,113.98L303.43,106.54L303.46,108.49L303.47,110.19L303.81,111.53L303.86,97.57L303.87,94.67L303.93,110.48L304.41,80.21L304.5,88.44L304.52,86.12L304.85,85.79L305.31,105.06L305.33,105.18L305.39,97.15L305.88,122.35L305.97,115.26L305.99,119.67L306.6,126.79L306.66,96.54L306.72,113.83L306.74,108.54L306.89,112.17L307.34,83.74L307.53,95.76L307.55,99.21L307.92,80.21L308.21,107.54L308.28,96.83L308.3,104.48L308.36,99.78L308.85,121.56L309.09,119.82L309.11,118.55L309.42,126.79L309.48,101.92L309.99,109.04L310.01,114.77L310.13,122.14L310.17,86.11L310.59,91.99L310.61,88.61L311.06,107.57L311.12,80.21L311.39,101.78L311.4,90.88L311.42,84.48L312.02,109.63L312.09,99.7L312.11,107.1L312.18,97.05L312.87,121.88L312.89,122.4L312.99,126.79L313.62,97.06L313.65,114.53L313.67,122.29L314.16,80.21L314.48,88.56L314.49,89.35L314.7,80.21L314.75,106.22L315.23,94.35L315.24,91.71L316.02,121.36L316.04,113.31L316.05,101.62L316.13,126.79L316.17,95.39L316.77,104.06L316.79,107.77L317.07,117.58L317.42,93.3L317.49,96.39L317.51,87.48L317.55,113.74L317.96,84.28L318.2,88.36L318.21,80.21L318.26,108.2L318.87,95.06L318.89,92.46L319.11,82.85L319.16,126.79L319.65,107.55L319.67,98.48L320.19,117.27L320.34,94.85L320.37,116.33L320.39,121.73L320.49,126.79L320.54,86.58L321.15,93.64L321.17,97.24L321.21,116.99L321.75,91.01L321.92,108.64L321.93,98.39L322.56,112.73L322.61,80.21L322.64,106.38L322.65,117.43L323.28,121.02L323.34,81.44L323.36,96.11L323.37,118.04L323.39,126.79L323.43,80.21L324.06,96.05L324.08,94.68L324.57,81.89L324.62,126.79L324.86,116.69L324.87,110.55L324.92,87.36L324.96,123.04L325.62,105.98L325.64,108.91L326.13,84.25L326.28,126.79L326.39,121.5L326.4,112.24L326.48,114.13L327.17,86.38L327.18,90.59L327.78,113.51L327.83,86.92L327.92,100.8L327.93,88.44L328.17,80.21L328.43,126.79L328.61,98.61L328.62,100.89L329.31,87.04L329.36,126.79L329.37,112.79L329.39,93.04L329.4,82.78L329.46,125.71L330.14,92.38L330.15,100.54L330.39,126.79L330.45,88.44L330.87,89.94L330.89,95.01L331.31,84.35L331.35,119.7L331.64,105.15L331.65,104.07L331.94,119.46L332,80.21L332.37,98.95L332.39,114.56L332.4,120.56L332.45,80.21L333.12,107.92L333.14,107.24L333.54,83.14L333.6,126.79L333.87,110.03L333.89,107.44L334.46,119.18L334.5,93.31L334.62,101.93L334.64,111.73L334.8,93.35L335.33,119.56L335.36,108.5L335.37,96.87L335.97,124.86L336.02,80.21L336.05,97.1L336.06,114.43L336.08,121.18L336.12,84.66L336.75,97.55L336.77,87.18L336.8,99.16L336.81,112.11L337.07,80.21L337.11,120.83L337.44,98.6L337.46,91.03L337.7,113.44L338.19,107.45L338.21,101.67L338.54,92.94L338.87,122.16L338.94,105.73L338.96,116.67L339.12,90.46L339.18,126.79L339.69,108.02L339.71,103.11L339.9,111.91L340.43,96.98L340.46,101.54L340.47,103.89L340.83,87.29L340.89,108.39L341.04,94.88L341.06,87.96L341.16,80.21L341.21,114.87L341.55,100.92L341.57,108.85L341.91,115.74L341.97,87.43L342.21,103.91L342.23,98.26L342.71,93.23L342.75,124.15L342.77,123.79L342.81,93.53L342.87,126.79L343.53,108.1L343.55,111.35L343.76,96.78L343.82,116.93L344.19,98.14L344.21,91.4L344.27,119.79L344.33,87.25L344.52,97.43L344.54,95.34L344.94,116.97L344.99,80.21L345.27,89.5L345.29,84.37L345.9,112.01L346.05,96.06L346.07,98.33L346.73,88.62L346.79,126.79L346.82,107.33L346.83,95.87L346.85,95L347.07,117.3L347.09,119.94L347.57,91.33L347.63,126.79L347.88,96.23L347.9,98.86L348.15,86.69L348.2,123.6L348.65,105.41L348.66,102.59L349.26,111.87L349.32,80.21L349.35,96.03L349.37,110.73L349.38,116.9L349.43,81.59L350.1,100.13L350.12,103.67L350.28,88.01L350.33,113.09L350.66,107.26L350.67,113.73L350.73,96.28L351.14,118.76L351.39,113.14L351.41,110.38L351.63,99.32L351.69,126.79L352.19,105.53L352.2,113.39L352.22,117.61L352.71,90.44L352.82,93.42L352.83,86.92L352.91,109.98L353.09,86.12L353.42,88.4L353.43,87.48L353.88,80.21L353.94,113.06L354.24,102.35L354.26,96.7L354.29,90.67L354.95,115.78L354.99,106.35L355.01,108.57L355.1,104.2L355.16,126.79L355.76,117.54L355.77,114.18L355.88,118.84L356.36,97.04L356.57,103.68L356.58,105.52L356.7,96.84L356.73,106.81L356.75,112L357.44,80.21L357.48,104.91L357.5,108.77L357.71,110.88L357.77,80.21L358.26,100.14L358.28,96.47L358.29,93.65L358.8,117.37L358.97,111.34L358.98,114.84L359.33,109.27L359.7,124.98L359.73,117.4L359.75,111.41L359.82,126.79L360.48,89.93L360.51,102.39L360.53,112.04L360.54,115.12L360.95,88.22L361.2,92.44L361.22,90.94L361.85,78.95L361.91,104.28L361.94,94.22L361.95,83.46L361.97,80.21L362.46,106.66L362.55,104L362.57,105.64L362.61,104.85L363.6,126.79L363.75,121.63L363.77,120.58L364.73,79.03L364.76,87.14L364.77,94.5L364.79,99.43L365.3,80.21L365.52,98.27L365.54,96.61L365.58,87.55L365.84,113.04L366.24,109.72L366.26,112.73L366.35,106.74L366.75,126.79L367.02,116.7L367.04,117.42L367.19,124.31L367.68,101.26L367.7,100.69L367.74,104.27L368.28,80.21L368.3,80.32L369.11,96.62L369.12,95.93L369.14,93.91L369.18,89.04L369.8,117.85L369.81,117.14L369.87,111.39L370.31,126.79L370.5,120.99L370.52,119.71L370.71,125.62L371.45,85.67L371.55,88.21L371.57,88.84L371.84,80.21L372.29,93.36L372.3,91.47L372.32,87.86L372.35,82.15L372.84,105.73L373.02,105.02L373.04,104.28L373.08,100.37L373.62,123.89L373.68,121.25L373.7,121.8L373.83,126.8L374.34,113.86L374.36,113.36L374.4,115.91L374.87,93.81L374.88,91.84L375.35,80.21L375.66,85.77L375.68,86.41L376.76,117.59L376.77,117.14L376.79,115.83L376.8,114.85L377.36,126.79L377.49,120.57L377.51,119.88L377.66,120.86L378.48,82.78L378.72,86.65L378.74,86.97L378.81,80.21L379.1,91.98L379.43,90.04L379.44,91.11L379.5,89.58L379.95,108.42L379.97,113.15L380.04,99.66L380.79,126.45L380.81,126.51L380.9,126.79L382.04,80.21L382.26,83.46L382.28,83.84L382.34,82.16L382.41,86.61L382.59,86.57L382.61,89.06L383.25,87.57L383.4,97.29L383.42,98.51L384.41,126.79L384.42,126.64L384.44,125.62L384.51,125.86L385.55,83.38L385.59,84.85L385.61,84.73L385.95,80.21L386.21,89.47L386.22,91.08L386.81,85.01L386.96,104.47L386.97,99.51L386.99,89.55L387.02,80.21L387.63,121.44L387.71,110.72L387.72,113.22L387.99,126.79L388.35,112.82L388.47,114.95L388.49,114.36L388.86,99.99L388.88,96.97L388.95,97.72L389.55,80.21L389.64,90.01L389.66,89.36L389.78,86.95L390.59,100.03L390.62,97.64L390.63,95.55L390.77,91.05L390.92,112.17L391.13,104.91L391.14,109.21L391.2,108.25L391.83,126.79L391.97,119.15L391.98,117.17L392.16,122.59L392.94,80.21L393.24,81.6L393.26,81.15L393.98,101.17L394.11,92.18L394.13,92.69L394.5,80.21L394.68,116.04L394.92,102.17L394.94,99.73L395.6,126.79L395.73,117.81L395.75,114.83L395.81,119.74L396.74,80.21L396.87,87.43L396.89,88.73L397.07,82.89L397.82,103.6L398,97.11L398.01,93.92L398.09,107.53L398.13,91.29L398.18,106.92L398.19,112.3L398.46,92.54L398.57,100.91L398.58,104.56L398.81,99.13L399.39,123.27L399.41,126.05L399.42,126.79L399.8,112.58L399.98,113.37L399.99,111.96L400.97,80.21L401.04,85.08L401.06,84.95L401.73,102.96L401.93,99.61L401.94,98.97L402.08,107.56L402.09,110.07L402.44,92.13L402.66,112.61L402.68,114.03L402.87,93.07L403.41,126.79L403.46,120.22L403.47,120.41L403.61,126.93L404.04,109.28L404.06,105.49L404.27,108.44L404.78,85.14L404.85,91.29L404.87,89.86L405,80.21L405.51,103.64L405.57,96.59L405.59,95.82L406.07,111.71L406.28,95.16L406.43,106.47L406.44,104.73L406.64,88.87L406.82,115.67L407.09,110.49L407.1,111.33L407.21,107.23L407.73,127.19L407.87,116.39L407.88,114.34L408.05,127.53L409.07,82.39L409.08,82.04L409.16,80.21L409.19,84.21L409.2,88.3L409.79,111.25L410.03,106.88L410.04,106.74L410.12,104.37L410.19,109.94L410.22,106.19L410.24,103.24L410.76,80.21L410.97,103.71L411.03,90.04L411.05,89.71L411.89,126.83L412.02,115.67L412.04,114.5L412.22,121.89L412.98,87.29L413.09,92.29L413.1,93.64L413.34,80.21L413.94,107.66L413.97,107.32L413.99,107.93L414.48,118.75L414.54,104.45L414.69,104.59L414.71,102.94L414.83,106.91L415.44,80.21L415.55,84.63L415.56,87.46L416.31,117.3L416.39,107.87L416.4,106.13L416.43,103.46L416.58,126.79L416.93,122.2L416.94,122.66L417.57,98.4L417.59,96.24L418.04,80.21L418.29,101.94L418.35,92.83L418.37,97.12L418.47,91.77L419.13,126.79L419.16,125.73L419.18,124.11L419.79,80.31L420,88.3L420.02,91.59L420.2,80.21L420.78,111.06L420.81,107.57L420.83,105.14L420.98,103.11L421.23,124.87L421.44,112.42L421.46,116.4L421.52,126.79L422.19,111.22L422.21,109.97L422.85,123.22L423.02,80.21L423.05,86.72L423.06,93.5L423.14,111.25L423.83,103.35L423.84,100.52L424.04,114.06L424.61,79.95L424.67,87.21L424.68,88.28L424.91,80.21L425.55,110.27L425.79,103.59L425.81,101.07L426.11,122.43L426.27,98.51L426.33,115.87L426.35,120.27L426.42,126.85L426.54,106.19L427.05,110.97L427.07,111.04L427.13,114.78L427.38,105.38L427.4,102.21L427.88,80.21L428.04,112.92L428.18,88.19L428.19,86.92L428.49,109.24L428.97,102.47L428.99,99.91L429.09,80.21L429.69,105.31L429.77,89.37L429.78,97.58L429.86,80.21L430.52,110.18L430.55,104.89L430.56,101.02L430.68,94.31L430.74,111.73L431.03,108.74L431.04,113.71L431.24,90.45L431.4,126.79L431.79,120.31L431.81,117.59L432.48,88.96L432.57,107.91L432.59,110.03L432.62,111.31L432.84,80.21L433.11,83.72L433.13,80.47L433.14,80.21L433.25,95.97L433.26,101.09L433.68,96.52L433.91,113.14L433.98,100.42L434,98.16L434.21,115.59L434.79,83.54L434.81,82.71L434.93,80.21L435.45,115.13L435.63,99.64L435.65,98.61L436.29,94.68L436.44,126.79L436.5,115.99L436.52,111.41L436.59,96.12L436.76,121.57L437.28,102.38L437.3,101.85L437.63,111.46L437.81,91.35L437.97,105.64L437.99,108.67L438.08,114.66L438.17,80.21L438.57,96.8L438.59,92.22L438.62,86.94L439.25,109.17L439.34,89.64L439.35,88.14L439.41,80.21L439.59,105.73L439.68,97.1L439.7,102.1L439.76,89.61L440.15,107.42L440.36,98.22L440.37,102.26L441,95.06L441.17,117.84L441.2,116.58L441.21,114.17L441.35,89.38L441.5,126.79L441.81,119.67L441.83,121.44L441.86,123.11L442.35,103.73L442.49,108.32L442.5,107.59L443.1,112.15L443.28,80.21L443.39,97.39L443.4,100.95L443.43,103.52L443.7,80.21L444,89.66L444.02,87.58L444.47,80.21L444.62,111.89L444.71,94.42L444.72,98.44L444.75,93.47L444.77,87.96L445.11,80.21L445.28,112.43L445.47,97.83L445.49,104.66L445.52,113.13L446.03,95.01L446.24,109.09L446.25,109.41L446.49,94.24L446.66,126.79L446.78,104.2L446.79,101.54L446.82,98.98L446.99,126.79L447.45,110.46L447.47,109.6L447.6,110.86L448.1,89.96L448.23,106.79L448.25,108.24L448.26,108.54L448.34,91.24L448.35,86.72L448.61,99.44L448.7,77.6L449.07,90.41L449.09,88.91L449.61,80.21L449.73,112.97L449.75,122.9L449.76,125.73L449.91,80.21L450.41,107.18L450.42,98.38L450.56,88.19L450.96,111.49L451.17,98.14L451.19,99.65L451.65,95.17L451.8,126.79L451.94,102.09L451.95,98.59L451.98,96.64L452.15,126.79L452.49,117.48L452.51,118.63L453.57,80.21L453.66,96.25L453.68,98.12L453.72,101.43L453.89,82.6L454.4,95.25L454.41,92.7L454.67,113.45L454.76,86.42L454.89,104.54L454.91,110.7L454.95,126.79L455.44,82.48L455.62,103.63L455.64,90.13L455.65,80.21L455.82,112.27L456.37,104.87L456.39,105.55L456.6,103.28L456.76,120.39L456.88,106.9L456.9,103.98L456.93,101.14L457.09,126.79L457.63,104.17L457.65,105.27L457.8,115.3L458.35,99.03L458.37,98.77L458.82,80.21L459.28,86.23L459.3,88.61L459.36,86.41L460.14,111.71L460.17,101.41L460.18,94.83L460.51,90.14L460.57,126.79L460.92,107.26L460.93,100.72L461.16,95.21L461.32,126.79L461.65,111.78L461.67,109.68L462.15,117.37L462.19,97.78L462.34,111.73L462.36,118.72L462.63,104.1L462.79,126.79L463.12,120.96L463.14,120.48L463.18,127.26L463.68,91.71L463.84,111.72L463.86,108.12L464.5,80.03L464.64,86.67L464.65,90.28L464.83,79.5L465.4,101.56L465.43,94.68L465.45,90.23L466.06,86.87L466.14,106.98L466.15,97.79L466.17,86.23L466.29,79.85L466.68,119.95L466.87,109.55L466.89,117.54L466.95,101.35L467.17,123.27L467.35,115.9L467.37,118.51L467.49,126.79L467.98,102.45L468.07,109.23L468.09,106.36L468.63,126.82L468.81,105.31L468.85,114.88L468.87,116.87L468.97,130.77L469.54,89.47L469.66,109.38L469.68,112.52L469.71,115.67L470.29,82.75L470.31,82.23L470.65,80.21L470.82,91.93L470.97,82.9L470.98,80.73L471.52,102.8L471.67,92.21L471.69,88.24L472.02,80.21L472.2,116.42L472.35,91.9L472.36,84.03L473.16,128.42L473.2,119.7L473.22,120.07L473.26,129.25L473.76,104.19L473.95,118.88L473.97,112.35L474.1,105.36L474.63,137.4L474.64,137.86L474.97,142.72L475.15,107.87L475.29,126.84L475.3,130.08L475.51,105.4L475.66,138.32L475.8,120.77L475.81,106.71L475.89,123.21L476.14,76.85L476.59,80.38L476.61,81.4L476.82,79.97L477.21,90.54L477.37,87.55L477.39,87.85L478.03,80.21L478.09,120.46L478.12,94.7L478.14,81.67L478.15,80.21L478.53,126.79L478.62,115.83L478.63,126.17L478.65,126.79L478.66,116.07L478.68,101.82L478.69,92.45L478.86,126.79L479.41,109.75L479.43,113.33L479.55,131.6L480.07,93.99L480.16,111.27L480.18,109.23L480.42,105L480.6,126.79L480.75,112.06L480.76,109.75L480.94,126.95L481.2,107.2L481.47,116.08L481.48,114.39L481.71,126.79L482.31,85.45L482.32,86.03L482.34,90.01L482.37,98.48L483.01,79.09L483.07,83.93L483.09,82.9L483.12,78.95L483.7,99.47L483.78,94.6L483.79,100.08L484.2,80.21L484.36,118.09L484.5,103.12L484.51,97.11L484.53,93.46L485.05,126.79L485.13,120.24L485.14,123.97L485.16,124.63L485.2,102.81L485.22,99.32L485.65,95.01L485.82,126.79L485.95,108.12L485.97,103.02L485.98,101.84L486.45,125.09L486.54,121.75L486.55,123.98L487.09,129.58L487.26,104.91L487.3,116.96L487.32,118.58L487.9,126.79L488.05,97.79L488.1,107.59L488.11,110.93L488.71,75.31L489.16,82.69L489.18,83.8L489.45,76.25L489.6,95.29L489.87,79.54L489.88,76.67L490.2,71.27L490.59,108.17L490.63,86.6L490.65,80.21L491.46,133.76L491.49,123.37L491.5,116.04L491.56,130.44L492.06,104.61L492.18,112.83L492.19,119.18L492.37,105.24L492.54,123.82L492.91,116.98L492.93,116.98L493.18,122.37L493.57,109.43L493.59,109.79L493.63,112.24L494.26,104.21L494.31,106.3L494.32,107.02L494.37,107.95L494.61,97.07L494.62,96.13L494.68,96.25L495.6,80.17L495.7,82.12L495.72,84.63L496.21,78.17L496.47,93.06L496.48,90.19L496.5,84.56L497.01,73.35L497.17,116.47L497.19,115.83L497.25,92.82L497.85,146.49L497.89,139.18L497.91,137.85L497.94,138.77L498.3,119.06L498.31,117.22L498.45,127.05L498.46,129.55L498.48,130.72L498.64,117.7L499.05,120.86L499.06,119.7L499.12,126.51L499.71,117.36L499.72,116.88L500.14,103.17L500.26,110.96L500.28,114.34L500.4,126.79L500.95,92.98L500.97,90.84L501.81,79.67L501.82,79.88L501.84,80.3L501.9,82.36L502.44,74.67L502.5,77.88L502.51,76.6L502.53,75.59L502.9,89.98L502.92,93.9L502.98,85.43L504.12,161.28L504.13,159.4L504.15,154.85L504.21,155.46L504.88,118.13L504.96,125.46L504.97,124.34L505.14,118.37L505.29,125.88L505.45,120.56L505.47,119.16L505.63,126.79L506.29,112.71L506.31,112.94L507.55,96.64L507.57,95.94L507.61,96.12L507.67,93.42L507.72,93.51L507.73,92.68L508.32,79.37L508.72,79.55L508.74,79.7L508.93,78.19L510.43,128.5L510.61,125.26L510.63,124.66L510.93,128.23L511.32,121.11L511.33,118.91L511.35,117.58L511.83,135.42L511.84,137.73L511.89,137.07L512.08,146.75L512.1,149.77L512.43,161.82L512.77,137.23L512.79,134.42L513.24,99.08L513.64,108.48L513.66,108.88L513.69,109.08L513.84,105.3L513.85,103.43L514.84,78.06L515.13,79.23L515.14,79.93L515.34,76.36L515.65,80.12L515.71,79.47L515.73,79.76L517.21,148.77L517.57,136.3L517.59,134.53L517.87,122.67L518.38,127.16L518.4,126.39L518.83,129.89L519.15,123.08L519.19,123.29L519.21,122.43L519.87,88.48L520.11,99.89L520.12,102.34L520.26,106.19L520.75,87.81L520.77,86.6L521.17,77.53L521.55,79.51L521.56,79.78L522.63,96.56L522.64,97.07L523.59,109.1L523.6,110.29L523.65,110.15L524.16,117.72L524.58,116.01L524.59,115.86L525.4,126.92L525.64,124.81L525.66,124.12L525.72,125.89L525.94,116.2L526,116.4L526.02,115.93L526.09,116.76L526.44,95.6L526.45,93.79L526.72,85.99L527.01,105.31L527.17,92.94L527.19,95.59L527.26,100.97L527.82,79.03L527.83,77.85L527.86,76.02L528.51,81.31L528.52,81.45L528.55,81.21L528.87,85.46L528.88,86.09L532.15,129.4L532.45,126.85L532.47,126.56L532.83,116.43L532.84,114.91L533.31,80.21L533.58,95.91L533.59,98.36L533.97,103.54L534.27,93.57L534.3,94.3L534.31,94L534.82,79.75L535.33,81.45L535.35,81.87L536.4,103.23L536.44,102.53L536.46,102.51L537.49,114.44L537.85,113.9L537.87,113.54L537.9,112.61L538.41,122.74L538.42,122.32L538.44,122.11L538.77,126.79L539.13,121.56L539.14,120.99L540.09,96.35L540.51,102.85L540.52,102.84L540.73,103.27L540.97,100.45L540.99,99.61L541.84,81.47L541.9,81.5L541.92,81.2L541.98,80.21L542.43,86.09L542.44,86.67L543.64,106.67L543.66,106.57L544.14,113.38L544.69,111.28L544.71,111.35L545.7,126.1L545.71,126.16L546.04,127.35L546.28,124.79L546.3,124.29L546.87,86.92L547.38,99.08L547.39,99.12L547.63,108.44L547.83,93.06L547.86,93.94L547.87,93.14L548.47,76.04L548.86,78.4L548.88,78.66L550.5,107.78L550.51,107.48L550.53,107.24L550.92,111.52L550.93,111.53L551.07,112.61L551.23,111.07L551.29,111.17L551.31,110.58L551.59,109.47L551.95,112.89L551.97,113.47L552.7,126.79L552.91,125.04L552.93,124.64L554.11,97.2L554.29,99.14L554.31,99.59L554.37,99.42L554.86,103.42L555.13,100.86L555.15,100.54L556.17,80.21L556.3,81.48L556.32,81.62L556.36,81.47L556.53,83.31L556.54,83.75L558.33,110.54L558.37,110.21L558.39,110.23L558.84,110.17L559.17,114.62L559.21,113.69L559.23,113.86L560.13,126.79L560.29,124.41L560.31,125.05L560.32,125.52L560.83,114.66L560.85,113.95L561.69,99.06L561.73,99.32L561.75,99.12L561.78,98.42L562.27,101.83L562.47,100.61L562.48,100.65L563.19,87.26L563.2,86.84L564.33,76.8L564.42,77.2L564.43,77.58L565.08,92.1L565.09,93.02L566.65,136.75L566.92,131.35L566.94,131.39L567.1,133.31L567.49,128.06L567.51,127.02L567.57,128.05L568.35,120.91L568.36,121.02L568.38,121.2L569.38,101.76L569.4,101.07L569.73,95.75L570.19,96.78L570.21,96.74L570.27,97.39L570.69,95.22L570.7,95.38L570.72,95.17L571.96,80.21L572.31,81.99L572.32,82.36L573.6,109.57L573.61,110.1L574.26,118.58L574.63,118.34L574.65,117.41L574.71,117.77L575.13,113.06L575.41,116.13L575.43,116.97L575.49,116.6L576.48,127.27L576.54,125.49L576.55,125.36L576.64,126.9L576.85,121.69L576.87,119.76L576.93,120.61L577.62,100.05L577.81,104.66L577.83,105.03L578.14,108.28L578.7,92.9L578.71,93.18L578.73,94.06L579.04,74.7L579.06,75.04L579.16,74.56L579.84,80.18L579.85,80.09L579.87,80.21L582.01,110.88L582.04,110.22L582.06,109.8L582.12,110.61L582.52,105.86L582.79,109.48L582.81,110.98L582.88,109.28L583.29,115.04L583.56,112.26L583.57,111L583.75,112.96L584.28,107.83L584.34,109.69L584.35,110.25L584.4,109.05L584.92,117.22L584.94,117.36L584.98,115.28L585.58,125.73L585.6,126.23L585.63,126.79L586,118.66L586.02,117.89L586.06,118.16L586.12,113.58L586.14,113.04L587.25,80.55L587.35,80.99L587.37,80.81L587.61,80.98L587.86,77.61L588.15,79.3L588.16,79.71L588.51,90.37L588.52,91.09L589.48,111.53L589.62,110.73L589.63,110.45L589.86,110.89L590.47,106.55L590.5,107.43L590.52,107.6L591.04,109.84L591.18,106.59L591.19,106.07L591.27,106.67L591.61,102.82L591.94,105.99L591.96,105.99L593.05,119.44L593.11,118.08L593.13,117.43L593.67,109.44L593.68,108.4L594.13,103.38L594.58,105.43L594.6,105.87L594.79,107.35L595.08,103.46L595.29,103.58L595.3,103.42L596.26,95.47L596.31,96.07L596.32,96.03L596.41,96.91L596.95,93.82L597.3,94.51L597.31,95.11L598.98,106.03L599.01,105.59L599.02,105.27L599.28,107.27L599.7,105.19L599.77,105.47L599.79,105.11L599.98,105.83L600.36,104.26L600.55,105.63L600.57,105.39L600.96,104.26L601.33,104.87L601.35,105.19L601.89,106.51L602.05,105.39L602.07,104.87L602.22,105.67L602.65,103.5L602.77,103.58L602.79,103.26L603.03,103.94L603.21,102.01L603.42,102.5L603.43,102.42L603.96,100.77L604.21,101.81L604.23,101.77L604.38,101.29L604.87,102.3L604.93,101.69L604.95,102.42L604.99,101.69L605.67,102.74L605.68,103.06L606.1,103.5L606.27,101.85L606.39,102.94L606.4,103.38L606.64,102.78L606.78,104.62L607,104.34" style="vector-effect: non-scaling-stroke; fill: none; stroke: rgb(235, 64, 52); stroke-opacity: 0.3; stroke-width: 1px; opacity: 1;"/></g><g class="points"/><g class="text"/></g><g class="trace scatter trace492db3" style="stroke-miterlimit: 2; opacity: 1;"><g class="fills"/><g class="errorbars"/><g class="lines"><path class="js-line" d="M0,101.17L5.35,100.43L5.37,100.34L6.91,96.03L6.93,96.02L8.05,94.96L8.14,95.73L8.16,95.85L9.46,101.17L9.63,100.48L9.64,100.4L9.94,98.79L10.36,100.6L10.38,100.66L11.23,101.17L11.25,101.17L12.51,100.46L12.52,100.22L15.7,66.24L15.72,66.2L17.61,58.73L17.71,60.67L17.73,60.95L18.85,71.46L18.87,71.55L20.47,77L20.49,77.03L20.7,77.48L20.92,76.15L20.94,76.06L21.6,71.22L22.06,72.81L22.08,72.86L22.21,73.32L22.81,72.78L22.83,72.76L24.33,70.4L24.34,70.37L25.38,66.83L25.39,66.71L28.02,45.88L28.48,47.21L28.5,47.17L29.88,42.13L29.89,42.03L30.33,36.3L30.64,40.54L30.66,40.74L32.28,59.04L32.29,58.78L32.31,58.53L34.48,21.62L34.5,21.37L34.9,14.49L35.46,15.65L35.47,15.68L35.71,16.18L36.1,15.36L36.12,15.33L38.5,10.36L38.68,11.48L38.7,11.57L39.31,15.37L39.88,14.27L39.9,14.24L41.91,10.36L42.04,11.5L42.06,11.62L43.5,17.43L43.51,17.46L45.69,24.06L45.7,24.33L46.36,36.3L46.84,32.64L46.86,32.53L49.24,14.37L49.56,17.43L49.57,17.57L50.1,22.38L50.8,22.23L50.82,22.23L52.83,21.81L52.86,22.47L52.87,22.8L53.7,40.96L54.19,36.79L54.21,36.66L56.43,17.97L56.73,21.47L56.74,21.65L58.32,40.05L58.56,35.92L58.57,35.66L60.04,10.35L60.36,15.75L60.37,16.01L61.95,43.03L62.64,42.32L62.65,42.31L63.78,41.16L63.85,42.02L63.87,42.19L65.74,63.69L65.79,63.33L65.8,63.21L67.35,50.78L67.71,53.4L67.72,53.51L71.49,75.62L71.5,75.67L71.62,76.14L72.21,75.47L72.22,75.45L74.2,72.19L74.22,72.08L76.54,60.51L76.56,60.49L77.43,59.07L77.79,59.89L77.8,59.93L79,62.68L79.3,61.56L79.32,61.5L80.92,55.53L81.31,56.59L81.33,56.63L82.78,60.58L83.14,59.46L83.16,59.41L84.39,55.58L85.03,55.96L85.05,55.97L86.4,56.76L86.65,56.09L86.67,56.05L88.3,51.75L88.72,52.62L88.74,52.66L90.07,55.45L90.36,54.37L90.37,54.31L91.89,48.6L92.23,49.98L92.25,50.04L93.78,56.17L94.09,54.88L94.11,54.82L95.47,49.21L95.76,50.61L95.77,50.69L97.42,58.81L97.89,57.54L97.9,57.5L99.15,54.08L99.45,55.33L99.46,55.39L100.75,60.76L101.22,59.66L101.23,59.62L103.23,54.92L103.56,55.98L103.57,56.02L104.98,60.56L105.36,59.4L105.37,59.35L106.8,54.94L107.1,56.27L107.11,56.34L108.73,63.56L109.15,62.18L109.17,62.13L110.86,56.55L111.13,57.6L111.15,57.66L112.57,63.18L112.87,61.76L112.89,61.69L114.46,54.23L114.79,55.31L114.81,55.36L116.38,60.53L116.73,59.66L116.74,59.62L118.29,55.71L118.63,56.8L118.65,56.85L120.19,61.72L120.64,60.69L120.66,60.65L122.1,57.35L122.41,58.41L122.43,58.46L123.6,62.39L123.97,61.33L123.99,61.29L126.03,55.51L126.34,56.78L126.36,56.84L127.86,62.89L128.13,61.41L128.14,61.33L129.82,52.18L130.29,53.68L130.3,53.73L131.82,58.6L132.19,57.3L132.21,57.24L133.57,52.49L133.99,53.47L134.01,53.51L135.61,57.26L135.97,56.22L135.99,56.18L137.37,52.22L137.82,53.14L137.83,53.17L139.26,56.11L139.57,55.09L139.59,55.04L141.21,49.78L141.45,50.87L141.46,50.94L142.57,56.01L143.02,54.67L143.04,54.63L144.97,48.89L145.38,49.94L145.39,49.98L146.97,54.05L147.28,52.9L147.3,52.84L148.74,47.56L149.05,48.81L149.07,48.87L150.19,53.33L150.37,51.46L150.39,51.3L152.62,28.11L152.66,28.26L152.68,28.31L153.71,31.83L154.15,31.1L154.16,31.07L155.26,29.23L155.53,30.17L155.54,30.22L157.63,38.82L157.64,38.92L159.5,51.08L159.68,47.54L159.7,47.24L160.43,32.77L160.88,34.4L160.9,34.46L162.77,41.26L162.92,39.61L162.94,39.45L163.82,29.72L164.15,31.53L164.17,31.61L166.13,42.37L166.31,39.56L166.33,39.33L167.21,25.51L167.54,27.77L167.56,27.87L169.52,41.3L169.82,38.37L169.84,38.22L170.57,31.06L170.99,34.2L171.01,34.31L172.88,48.32L173.11,44.63L173.12,44.38L173.89,31.82L174.55,32.92L174.56,32.94L177.91,37.07L177.92,37.07L180.73,36.59L180.74,36.57L183.68,32.58L183.7,32.54L186.19,26.48L186.52,27.48L186.53,27.53L190.28,36.54L190.3,36.55L192.35,39.32L192.37,39.44L194.45,56.31L194.66,52.37L194.68,52.09L195.19,42.54L195.68,45.08L195.7,45.15L197.45,54.15L197.71,51.97L197.72,51.84L198.14,48.25L198.56,50.88L198.58,50.97L200.39,62.34L200.6,59.04L200.62,58.81L201.05,51.98L201.43,57.23L201.44,57.44L202.82,66.13L202.84,66.14L203.26,66.19L203.33,65.45L203.35,65.3L204.74,55.49L204.76,55.47L209.83,46.21L209.84,46.14L212.51,33.95L213.11,34.64L213.13,34.66L215.68,37.57L216.13,37.11L216.14,37.1L218.56,34.87L218.96,35.3L218.98,35.32L221.35,38.68L221.36,38.78L222.65,47.52L223.09,45.65L223.1,45.59L224.39,37.78L224.41,37.65L225.23,30.54L225.76,32.34L225.77,32.4L226.72,35.65L227.08,34.38L227.09,34.32L229.09,30.16L229.1,30.14L229.33,29.9L229.75,30.52L229.76,30.54L230.75,32L230.9,30.97L230.92,30.86L231.92,23.93L232.4,25.77L232.42,25.83L233.09,28.43L233.65,27.95L233.66,27.94L234.58,27.25L235,27.77L235.01,27.78L236.69,28.65L236.71,28.64L239.11,27.83L239.12,27.81L241.03,25.15L241.48,25.71L241.49,25.72L242.44,26.88L242.75,26.18L242.77,26.14L244.99,22.2L245.12,22.35L245.14,22.37L246.97,23.41L246.98,23.4L247.54,23.3L247.7,23.94L247.72,24L248.78,28.12L249.2,27.05L249.22,27.01L251.12,24.05L251.14,24.04L251.35,23.95L251.72,24.54L251.74,24.56L253.52,25.99L253.54,25.99L254.21,25.27L254.23,25.24L255.14,23.32L255.56,24.12L255.58,24.15L256.72,26.32L257.02,25.36L257.03,25.31L257.66,23.3L258.28,23.8L258.29,23.82L261.16,27.17L261.17,27.2L261.7,28.3L262.07,27.4L262.09,27.36L263.71,25.39L263.72,25.4L264.83,25.05L264.85,25.03L266.14,24.75L266.15,24.77L266.17,24.78L266.77,25.2L267.01,24.46L267.02,24.41L268.03,21.32L268.4,22.52L268.42,22.57L269.17,24.97L269.66,24.36L269.68,24.34L271.72,22.61L271.78,22.83L271.79,22.88L273.13,27.61L273.44,26.21L273.46,26.14L274.01,23.67L274.34,25.52L274.36,25.61L275.24,30.59L275.75,29.32L275.77,29.28L276.56,27.3L276.8,28.63L276.82,28.72L277.93,34.88L278.29,32.81L278.3,32.73L279.16,27.81L279.56,29.58L279.58,29.65L281.18,33.9L281.2,33.9L282.11,34.62L282.13,34.67L283.28,38.23L283.42,36.3L283.43,36.09L284.51,20.67L284.93,24.14L284.95,24.26L286.88,34.18L286.9,34.21L288.43,38.45L288.44,38.5L288.62,39.04L288.8,37.3L288.82,37.15L289.72,28.46L290.32,29.89L290.33,29.93L291.82,35.23L291.83,35.32L293.83,47.87L294.17,45.49L294.19,45.39L295.27,37.94L295.61,40.66L295.63,40.78L300.53,74.18L300.55,74.22L300.61,74.38L300.76,72.65L300.77,72.48L304.41,40.71L304.59,43.32L304.61,43.53L306.02,63.99L306.24,63.11L306.26,63.05L307.4,54.73L307.41,54.6L307.82,51.06L308.07,55.11L308.09,55.28L309.42,70.82L309.63,69.84L309.65,69.77L311.12,62.92L311.61,63.38L311.63,63.39L312.99,64.66L313.14,63.8L313.16,63.72L314.7,53.41L315.39,53.83L315.41,53.83L316.2,55.15L316.22,55.33L318.21,78.93L318.27,78.76L318.29,78.71L319.16,84.11L319.32,81.9L319.34,81.7L320.49,66.25L320.82,67.11L320.84,67.15L323.24,75.54L323.25,75.63L324.62,80.93L324.71,80.2L324.72,80.08L327.03,67.1L327.05,67.06L328.17,64.37L328.32,65.8L328.34,65.94L329.19,67.61L329.21,67.63L329.51,69.03L329.52,69.15L330.39,76.35L330.68,72.59L330.69,72.39L332,55.16L332.33,59.23L332.34,59.41L333.6,65.28L333.65,65.09L333.66,65.02L336.23,52.34L336.24,52.14L337.07,41.5L337.44,44.86L337.46,44.99L339.18,60.45L339.77,59.14L339.78,59.11L341.16,56.02L341.58,56.77L341.6,56.79L342.87,59.07L343.17,58.33L343.19,58.29L345.86,53.62L345.87,53.62L347.1,52.55L347.12,52.51L349.32,46.06L349.55,47.58L349.56,47.68L351.69,62.07L352.02,59.78L352.04,59.68L353.88,46.86L354.09,50.59L354.11,50.85L355.16,69.45L355.41,66.34L355.43,66.15L357.77,33.04L357.89,35.07L357.9,35.32L359.82,67.74L360.3,64.48L360.32,64.37L361.53,56.12L361.77,59.31L361.79,59.51L362.79,64.51L362.81,64.56L363.6,67.07L363.9,65.63L363.92,65.56L366.75,51L367.05,52.52L367.07,52.6L368.28,58.77L368.73,57.2L368.75,57.14L370.31,51.68L370.65,52.87L370.67,52.93L371.84,56.96L372.14,55.61L372.15,55.54L373.82,48.01L374.25,49.26L374.27,49.3L375.35,52.39L375.6,50.98L375.62,50.89L377.36,41.22L377.6,43.83L377.61,43.99L378.81,57.08L379.23,54.38L379.25,54.28L380.9,43.68L381.09,46.91L381.11,47.16L382.04,62.53L382.37,59.6L382.38,59.46L384.41,41.44L384.69,45.38L384.71,45.58L385.95,62.78L386.21,61.56L386.22,61.49L387.29,52.66L387.3,52.38L387.99,39.57L388.37,44.63L388.38,44.83L389.55,60.59L390.05,58.12L390.06,58.04L391.83,49.2L392.01,51.74L392.03,51.95L392.94,64.87L393.33,64.25L393.35,64.23L394.59,60.9L394.61,60.65L395.6,44.19L395.84,48.49L395.85,48.76L396.74,64.62L397.32,62.31L397.34,62.25L399.42,53.98L399.6,55.49L399.62,55.61L400.97,66.93L401.52,65.71L401.54,65.67L403.41,61.55L403.74,62.48L403.76,62.52L405,66.02L405.44,65.1L405.45,65.07L407.63,60.46L407.76,61.71L407.78,61.84L409.97,75.33L409.98,75.35L410.76,76.09L410.81,75.25L410.82,74.97L411.9,54.9L412.38,58.32L412.4,58.43L414.33,66.9L414.35,66.92L415.44,68.84L415.55,67.67L415.56,67.5L416.58,56.1L416.9,59.58L416.91,59.75L419.13,81.58L419.49,78.5L419.51,78.38L420.2,72.49L420.78,73.68L420.8,73.71L422.04,78.03L422.06,78.12L423.02,83.34L423.56,82.26L423.57,82.23L425.16,77.7L425.18,77.59L426.44,68.37L426.72,71.72L426.74,71.9L428.34,86.48L428.36,86.52L429.09,88.43L429.33,87.08L429.35,87L430.14,78.26L430.16,77.95L431.4,52.24L431.6,56.35L431.61,56.66L433.14,83.97L433.59,82.8L433.61,82.76L435.29,76.67L435.3,76.42L436.44,57.95L436.74,63.23L436.76,63.49L438.17,88.3L438.42,87.62L438.44,87.58L439.56,82.62L439.58,82.39L441.5,52.43L441.57,53.79L441.59,54.06L443.58,87.62L443.6,87.76L444.47,89.91L444.57,89.85L444.59,89.84L445.16,88.76L445.17,88.5L446.66,62.77L446.93,68.66L446.94,68.99L448.35,80.05L448.37,80.16L449.51,93.97L449.52,94.16L449.91,95.35L450.21,93.8L450.23,93.72L450.54,88.55L450.56,88.23L451.8,62.17L452.03,65.49L452.04,65.72L454.95,90.59L455.01,90.51L455.03,90.49L455.79,88.16L455.8,88L457.09,74.24L457.33,78.34L457.35,78.59L458.23,82.24L458.25,82.28L460.57,90.01L460.78,88.33L460.8,88.21L460.99,86.65L461.59,87.83L461.61,87.87L463.2,93.76L463.21,93.88L463.5,96.01L463.93,93.79L463.95,93.72L464.61,90.35L465.04,91.94L465.06,91.99L466.18,96.1L466.36,94.35L466.38,94.23L466.62,95.28L467.23,93.34L467.25,93.29L468.64,90.61L468.7,91.09L468.72,91.22L469.33,96.2L469.78,93.8L469.8,93.72L470.65,89.16L471.04,91.08L471.06,91.16L472.54,98.63L472.95,96.87L472.96,96.8L473.59,94.05L474.01,95.42L474.03,95.47L475.9,101.17L475.99,100.05L476.01,99.84L476.7,90.15L477.13,91.82L477.15,91.87L478.03,95.28L478.33,93.82L478.35,93.74L478.65,91.77L478.96,94.04L478.98,94.09L479.89,96.76L480.16,95.38L480.18,95.3L480.6,93.14L481.12,94.28L481.14,94.32L481.71,95.56L481.96,94.41L481.98,94.34L482.53,91.85L482.98,93.13L483,93.17L484.2,96.6L484.75,96.06L484.77,96.04L485.25,94.54L485.26,94.44L485.49,93.03L485.8,95.71L485.82,95.83L486.76,95.11L486.97,95.82L486.99,95.87L487.9,98.98L488.2,97.63L488.22,97.57L489.12,93.52L489.45,95.01L489.46,95.08L490.65,100.42L491.13,99.32L491.14,99.28L491.5,96.77L491.52,96.64L492.55,94.01L492.57,94L495.27,93.2L495.42,93.91L495.43,93.98L497.53,101.17L497.62,100.82L497.64,100.76L498.81,95.74L499.2,96.93L499.21,96.97L500.4,100.58L500.67,99.21L500.68,99.13L501.76,93.64L502.09,95.66L502.11,95.75L503.74,101.17L503.76,101.17L504.36,100.45L504.37,100.41L507.37,94.91L507.39,94.89L508.63,93.19L508.75,94.25L508.77,94.38L510.1,101.17L510.19,100.55L510.21,100.44L510.67,96.92L511.24,98.29L511.26,98.32L513.19,101.17L513.21,101.17L513.91,100.51L513.93,100.41L515.01,93.23L515.37,95.68L515.38,95.78L516.9,101.17L516.91,101.17L517.3,100.35L517.32,100.29L518.49,96.19L518.8,97.52L518.82,97.58L520.33,101.17L520.35,101.17L520.68,100.45L520.69,100.35L521.64,94.28L522.33,94.46L522.34,94.46L525.52,96.01L525.54,96.08L527.26,101.17L527.28,101.17L527.76,98.44L527.77,98.34L528.45,93.95L529.17,94.12L529.18,94.13L532.03,95.44L532.05,95.51L533.31,101.16L533.65,99.74L533.67,99.68L535.26,93.45L535.72,93.56L535.74,93.56L540.18,93.97L540.19,93.96L542.95,94.17L542.97,94.18L545.92,96.55L545.94,96.63L547.48,101.17L547.5,101.17L548.02,100.45L548.04,100.36L548.98,94.17L549.67,94.49L549.69,94.5L553.93,95.66L553.95,95.66L557.28,95.74L557.29,95.75L562.33,97.22L562.35,97.22L564.13,98.02L564.15,98.09L565.56,101.17L565.57,101.17L567.1,100.44L567.12,100.41L568.83,98.88L568.84,98.88L573.52,99.01L573.54,99.01L576.58,100.77L576.6,100.81L577.54,101.17L577.56,101.17L579.22,100.42L579.24,100.36L579.88,98.19L580.51,98.46L580.53,98.47L586.75,100.26L586.77,100.26L588,100.62L588.01,100.64L589.33,101.17L589.35,101.17L607,101.17" style="vector-effect: non-scaling-stroke; fill: none; stroke: rgb(0, 0, 0); stroke-opacity: 1; stroke-width: 2px; opacity: 1;"/></g><g class="points"/><g class="text"/></g></g></g><g class="overplot"/><path class="xlines-above crisp" d="M0,0" style="fill: none;"/><path class="ylines-above crisp" d="M0,0" style="fill: none;"/><g class="overlines-above"/><g class="xaxislayer-above"><g class="xtick"><text text-anchor="middle" x="0" y="242.3333" transform="translate(40,0)" style="font-family: 'Latin Modern Roman'; font-size: 13.3333px; fill: rgb(0, 0, 0); fill-opacity: 1; white-space: pre;">0</text></g><g class="xtick"><text text-anchor="middle" x="0" y="242.3333" transform="translate(115,0)" style="font-family: 'Latin Modern Roman'; font-size: 13.3333px; fill: rgb(0, 0, 0); fill-opacity: 1; white-space: pre;">5k</text></g><g class="xtick"><text text-anchor="middle" x="0" y="242.3333" transform="translate(190,0)" style="font-family: 'Latin Modern Roman'; font-size: 13.3333px; fill: rgb(0, 0, 0); fill-opacity: 1; white-space: pre;">10k</text></g><g class="xtick"><text text-anchor="middle" x="0" y="242.3333" transform="translate(264.99,0)" style="font-family: 'Latin Modern Roman'; font-size: 13.3333px; fill: rgb(0, 0, 0); fill-opacity: 1; white-space: pre;">15k</text></g><g class="xtick"><text text-anchor="middle" x="0" y="242.3333" transform="translate(339.99,0)" style="font-family: 'Latin Modern Roman'; font-size: 13.3333px; fill: rgb(0, 0, 0); fill-opacity: 1; white-space: pre;">20k</text></g><g class="xtick"><text text-anchor="middle" x="0" y="242.3333" transform="translate(414.99,0)" style="font-family: 'Latin Modern Roman'; font-size: 13.3333px; fill: rgb(0, 0, 0); fill-opacity: 1; white-space: pre;">25k</text></g><g class="xtick"><text text-anchor="middle" x="0" y="242.3333" transform="translate(489.99,0)" style="font-family: 'Latin Modern Roman'; font-size: 13.3333px; fill: rgb(0, 0, 0); fill-opacity: 1; white-space: pre;">30k</text></g><g class="xtick"><text text-anchor="middle" x="0" y="242.3333" transform="translate(564.98,0)" style="font-family: 'Latin Modern Roman'; font-size: 13.3333px; fill: rgb(0, 0, 0); fill-opacity: 1; white-space: pre;">35k</text></g><g class="xtick"><text text-anchor="middle" x="0" y="242.3333" transform="translate(639.98,0)" style="font-family: 'Latin Modern Roman'; font-size: 13.3333px; fill: rgb(0, 0, 0); fill-opacity: 1; white-space: pre;">40k</text></g></g><g class="yaxislayer-above"><g class="ytick"><text text-anchor="end" x="39" y="4.6666549999999996" transform="translate(0,147.79000000000002)" style="font-family: 'Latin Modern Roman'; font-size: 13.3333px; fill: rgb(0, 0, 0); fill-opacity: 1; white-space: pre;">1</text></g><g class="ytick"><text text-anchor="end" x="39" y="4.6666549999999996" transform="translate(0,124.5)" style="font-family: 'Latin Modern Roman'; font-size: 13.3333px; fill: rgb(0, 0, 0); fill-opacity: 1; white-space: pre;">0</text></g><g class="ytick"><text text-anchor="end" x="39" y="4.6666549999999996" transform="translate(0,101.21)" style="font-family: 'Latin Modern Roman'; font-size: 13.3333px; fill: rgb(0, 0, 0); fill-opacity: 1; white-space: pre;">1</text></g></g><g class="overaxes-above"/></g></g><g class="polarlayer"/><g class="ternarylayer"/><g class="geolayer"/><g class="funnelarealayer"/><g class="pielayer"/><g class="treemaplayer"/><g class="sunburstlayer"/><g class="glimages"/><defs id="topdefs-40f70a"><g class="clips"/><clipPath id="legend40f70a"><rect width="422" height="31" x="0" y="0"/></clipPath></defs><g class="layer-above"><g class="imagelayer"/><g class="shapelayer"/></g><g class="infolayer"><g class="legend" pointer-events="all" transform="translate(40, 0.29999999999998295)"><rect class="bg" shape-rendering="crispEdges" style="stroke: rgb(68, 68, 68); stroke-opacity: 1; fill: rgb(255, 255, 255); fill-opacity: 1; stroke-width: 0px;" width="422" height="31" x="0" y="0"/><g class="scrollbox" transform="translate(0, 0)" clip-path="url('#legend40f70a')"><g class="groups"><g class="traces" transform="translate(0, 15.166645)" style="opacity: 1;"><text class="legendtext" text-anchor="start" x="40" y="5.199987" style="font-family: 'Latin Modern Roman'; font-size: 13.3333px; fill: rgb(0, 0, 0); fill-opacity: 1; white-space: pre;">Signal (<tspan style="font-weight:bold">w = e</tspan>  <tspan style="font-weight:bold">c</tspan>)      </text><g class="layers" style="opacity: 1;"><g class="legendfill"/><g class="legendlines"><path class="js-line" d="M5,0h30" style="fill: none; stroke: rgb(192, 192, 192); stroke-opacity: 1; stroke-width: 1px;"/></g><g class="legendsymbols"><g class="legendpoints"/></g></g><rect class="legendtoggle" x="0" y="-10.166645" width="164.171875" height="20.33329" style="fill: rgb(0, 0, 0); fill-opacity: 0;"/></g><g class="traces" transform="translate(166.671875, 15.166645)" style="opacity: 1;"><text class="legendtext" text-anchor="start" x="40" y="5.199987" style="font-family: 'Latin Modern Roman'; font-size: 13.3333px; fill: rgb(0, 0, 0); fill-opacity: 1; white-space: pre;">Carrier (<tspan style="font-weight:bold">c</tspan>)      </text><g class="layers" style="opacity: 1;"><g class="legendfill"/><g class="legendlines"><path class="js-line" d="M5,0h30" style="fill: none; stroke: rgb(235, 64, 52); stroke-opacity: 0.3; stroke-width: 1px;"/></g><g class="legendsymbols"><g class="legendpoints"/></g></g><rect class="legendtoggle" x="0" y="-10.166645" width="118.375" height="20.33329" style="fill: rgb(0, 0, 0); fill-opacity: 0;"/></g><g class="traces" transform="translate(287.546875, 15.166645)" style="opacity: 1;"><text class="legendtext" text-anchor="start" x="40" y="5.199987" style="font-family: 'Latin Modern Roman'; font-size: 13.3333px; fill: rgb(0, 0, 0); fill-opacity: 1; white-space: pre;">Envelope (<tspan style="font-weight:bold">e</tspan>)      </text><g class="layers" style="opacity: 1;"><g class="legendfill"/><g class="legendlines"><path class="js-line" d="M5,0h30" style="fill: none; stroke: rgb(0, 0, 0); stroke-opacity: 1; stroke-width: 2px;"/></g><g class="legendsymbols"><g class="legendpoints"/></g></g><rect class="legendtoggle" x="0" y="-10.166645" width="130.96875" height="20.33329" style="fill: rgb(0, 0, 0); fill-opacity: 0;"/></g></g></g><rect class="scrollbar" rx="20" ry="3" width="0" height="0" style="fill: rgb(128, 139, 164); fill-opacity: 1;" x="0" y="0"/></g><g class="g-gtitle"/><g class="g-xtitle" transform="translate(0,-2.677059999999983)"><text class="xtitle" x="343.5" y="269.67706" text-anchor="middle" style="font-family: 'Latin Modern Roman'; font-size: 13.33px; fill: rgb(0, 0, 0); opacity: 1; font-weight: normal; white-space: pre;"><tspan style="font-weight:bold"><tspan style="font-style:italic">i</tspan></tspan></text></g><g class="g-ytitle" transform="translate(11.5205078125,0)"><text class="ytitle" transform="rotate(-90,0.47919000000000267,124.5)" x="0.47919000000000267" y="124.5" text-anchor="middle" style="font-family: 'Latin Modern Roman'; font-size: 13.33px; fill: rgb(0, 0, 0); opacity: 1; font-weight: normal; white-space: pre;"><tspan style="font-weight:bold">Amplitude</tspan></text></g></g></svg>