<svg class="main-svg" xmlns="http://www.w3.org/2000/svg" xmlns:xlink="http://www.w3.org/1999/xlink" width="650" height="200" style="" viewBox="0 0 650 200"><rect x="0" y="0" width="650" height="200" style="fill: rgb(255, 255, 255); fill-opacity: 1;"/><defs id="defs-782dbb"><g class="clips"><clipPath id="clip782dbbxyplot" class="plotclip"><rect width="607" height="144"/></clipPath><clipPath class="axesclip" id="clip782dbbx"><rect x="40" y="0" width="607" height="200"/></clipPath><clipPath class="axesclip" id="clip782dbby"><rect x="0" y="14" width="650" height="144"/></clipPath><clipPath class="axesclip" id="clip782dbbxy"><rect x="40" y="14" width="607" height="144"/></clipPath></g><g class="gradients"/></defs><g class="bglayer"/><g class="layer-below"><g class="imagelayer"/><g class="shapelayer"/></g><g class="cartesianlayer"><g class="subplot xy"><g class="layer-subplot"><g class="shapelayer"/><g class="imagelayer"/></g><g class="gridlayer"><g class="x"/><g class="y"/></g><g class="zerolinelayer"/><path class="xlines-below"/><path class="ylines-below"/><g class="overlines-below"/><g class="xaxislayer-below"/><g class="yaxislayer-below"/><g class="overaxes-below"/><g class="plot" transform="translate(40, 14)" clip-path="url('#clip782dbbxyplot')"><g class="scatterlayer mlayer"><g class="trace scatter tracea6ac4d" style="stroke-miterlimit: 2; opacity: 1;"><g class="fills"/><g class="errorbars"/><g class="lines"><path class="js-line" d="M0,72L3.67,72.36L3.69,73.15L3.81,73.97L3.85,69.86L4.42,72.53L4.44,72.24L4.53,73.3L4.98,70.44L5.05,71.13L5.07,70.69L5.34,69.92L5.65,72.9L5.79,70.53L5.8,69.72L5.89,69.34L6.24,77.2L6.37,69.84L6.39,69.11L6.69,66.94L6.79,75L6.99,72.68L7,73L7.06,74.87L7.2,71.15L7.68,71.92L7.69,71.22L7.9,66.22L8.05,77.94L8.38,72.27L8.4,74.72L8.41,76.27L8.47,68.63L9.12,71.35L9.13,71.12L9.52,73.7L9.81,70.56L9.82,69.55L9.94,68.72L10.33,73.22L10.35,73.28L10.51,73.57L10.56,72.31L10.63,72.78L10.65,72L10.71,73.17L11.16,70.59L11.38,72.02L11.4,72.41L11.5,73.57L12.21,70.85L12.22,71.13L12.24,71.51L12.49,70.05L12.87,72.98L12.97,71.42L12.99,70.8L13.05,72.64L13.48,65.62L13.5,64.98L13.6,71.68L13.62,74.35L13.72,87.67L14.14,56.86L14.32,68.21L14.34,65.97L14.4,59.71L14.55,84.96L15.03,77.32L15.04,81.01L15.49,46.5L15.82,90.07L15.84,91.82L15.9,98.31L16.26,51.44L16.47,67.17L16.48,64.55L16.5,62.45L17.07,80.76L17.08,83.26L17.22,98.11L17.61,40.86L17.68,52.21L17.7,53.55L17.94,89.85L17.95,93L18.01,97.94L18.4,65.06L18.52,73.49L18.54,73.68L18.96,53.28L19.03,67.76L19.05,68.59L19.36,92.07L19.69,69.32L19.71,67.07L19.81,59.02L20.22,70.24L20.23,70.27L20.25,69.88L20.46,80.1L20.47,83.04L20.7,90.1L20.97,67.67L20.98,66.53L21.16,51.99L21.43,76.17L21.45,76.92L21.6,94.46L22,54.76L22.02,52.9L22.21,51.01L22.41,72.2L22.42,74.48L22.47,73.39L22.74,89.83L22.92,77.09L22.93,74.33L23.01,81.84L23.4,50.26L23.64,77.5L23.65,79.6L23.83,89.34L24.39,71.19L24.42,73.74L24.43,75.4L24.61,59.19L25.14,96.14L25.27,81.7L25.29,79.56L25.59,45.3L25.92,75.64L25.93,78.77L25.98,85.63L26.35,68.04L26.61,72.55L26.62,67.1L26.94,53.6L27.18,76.93L27.25,76.42L27.27,78.35L27.33,70.94L27.49,94.62L27.51,96.6L27.55,108.19L28.02,31.92L28.18,68.37L28.2,65.85L28.45,111.11L28.87,56.36L28.93,68.23L28.95,74.9L29.46,31.29L29.73,94.56L29.74,97.27L29.91,114.83L29.95,94.99L29.97,91.32L30,92.71L30.21,44.03L30.22,34.58L30.33,25.26L30.72,92.69L30.79,84.71L30.81,89.49L31.23,54.3L31.39,108.78L31.51,87.35L31.53,80.64L31.84,42L32.23,97.77L32.25,99.73L32.28,102.93L32.7,58.72L32.89,77.26L32.91,75.73L33.37,81.45L33.82,36.75L33.84,41.18L33.93,40.96L34.21,82.19L34.59,43.06L34.6,45.72L34.9,133.92L35.14,93.01L35.16,81.1L35.28,14.88L35.71,132.75L35.86,116.8L35.88,116.69L35.91,118.22L36.04,73.34L36.06,64.46L36.34,34.97L36.76,86.64L36.78,88.6L36.87,90.32L37.15,58.25L37.17,57.98L37.24,44.28L37.78,81.26L37.8,83.63L37.96,46.18L38.41,135.35L38.47,133.31L38.49,136.46L38.5,136.79L38.62,117.01L38.64,106.4L38.85,15.69L39.31,133.31L39.36,129.26L39.37,128.83L39.57,87.76L39.58,81.57L39.87,33.06L40.3,87.32L40.32,89.22L40.36,93.24L40.77,42.69L40.86,46.68L40.87,46.82L40.9,44L41.2,75.48L41.26,68.76L41.28,72.23L41.56,52.08L41.91,136.79L42.1,90.85L42.12,83.42L42.36,9.84L42.75,133.03L42.79,131.86L42.81,131.02L43.17,50.45L43.77,65.99L43.78,70.27L44.04,98.13L44.37,37.64L44.38,38.03L44.4,36.69L44.43,31.64L44.89,90.43L45.07,59.22L45.09,56.83L45.22,41.37L45.49,118.28L45.54,117.17L45.55,121.81L45.58,128.59L45.91,29.46L45.96,31.52L45.97,29.48L46.02,23.52L46.21,81.58L46.23,87.62L46.36,118.75L46.93,55.56L46.95,54.96L47.46,70.96L47.47,71.98L47.68,83.48L47.8,73.11L47.82,69.79L48.16,44.49L48.46,77.48L48.52,71.39L48.54,80.27L48.79,43.6L49.24,134.01L49.3,103.04L49.32,97.82L49.6,14.65L49.95,111.22L49.96,113.03L50.07,128.43L50.26,74.7L50.28,70.76L50.71,79.19L51.03,47.18L51.07,51.21L51.09,53.52L51.15,47.99L51.33,86.17L51.67,55.74L51.69,55.58L51.87,41.34L52.15,83.82L52.24,75.34L52.26,77.79L52.45,44.24L52.78,118.32L52.8,122.91L52.83,128.83L53.28,25.13L53.32,32.57L53.34,32.41L53.35,31.37L53.53,86.49L53.55,90.95L53.7,115.51L54.09,61.77L54.25,70.2L54.27,70.96L54.69,46.67L55,83.3L55.12,80.25L55.14,77.16L55.54,45.69L55.87,73.09L55.89,77.32L55.95,50.41L56.43,131.5L56.56,96.5L56.58,94.68L56.86,21.55L57.28,111.75L57.3,113.73L57.31,115.19L57.6,69.91L57.85,86.59L57.87,86.37L57.93,89.36L58.03,73.62L58.05,69.11L58.32,27.86L58.68,80.68L58.77,80.36L58.78,80.71L58.8,80.95L58.86,73.5L58.87,72.29L59.17,47.83L59.67,54.97L59.68,58.5L60.04,136.8L60.4,55.41L60.42,52.16L60.49,33.75L60.96,96.11L61.06,86.14L61.08,84.73L61.56,95.82L61.95,29.93L62.13,52.53L62.14,56.31L62.41,79.72L62.79,49.02L62.85,55.29L62.86,54.93L62.91,59.23L62.92,62.35L63.28,58.8L63.78,115.36L63.93,97.4L63.94,94.4L64.23,57.54L64.83,71.44L64.84,72.82L65.26,88.8L65.46,68.21L65.47,65.8L65.74,44.31L66.28,55.4L66.3,54.9L66.34,53.14L66.84,69.06L66.9,63.46L66.91,67.78L67.35,108.68L67.68,76.47L67.69,74.21L67.99,82.11L68.41,60.27L68.55,67.03L68.56,68.5L68.82,88.84L69.12,60.1L69.13,59.2L69.24,51.55L69.48,64.1L69.49,64.58L69.54,64.97L69.72,59.33L69.73,57.83L69.93,48.43L70.3,67.1L70.39,65.53L70.41,67.15L70.48,64.48L70.81,87.4L71.2,76.1L71.22,75.89L71.23,75.74L71.43,83.53L71.44,84.06L71.62,91.04L72.03,80.09L72.1,82.11L72.12,81.73L72.21,82.45L72.6,62.67L72.94,76.1L72.96,76.05L73.08,73.34L73.09,72.39L74.04,51.04L74.1,53.91L74.11,54L74.13,53.69L74.28,62.96L74.29,63.27L75.61,100.85L75.82,92.53L75.84,91.69L76.9,46.97L76.92,46.52L77.43,41.09L77.62,46.93L77.64,47.86L78.7,95.59L78.72,95.62L79,100.4L79.27,96.94L79.29,96.61L80.92,38.63L81.21,46.15L81.22,47.37L82.78,101.86L82.86,99.61L82.87,99.27L83.23,85.57L83.25,84.78L84.39,38.66L84.46,39.89L84.48,39.84L84.64,38.8L84.87,46.94L84.88,47L85.29,72.9L85.3,74.18L86.4,104.52L86.47,104.26L86.49,103.9L88.2,37.08L88.21,36.92L88.3,36L88.39,38.39L88.41,38.76L90.07,105.43L90.15,103.91L90.16,103.27L91.96,33.81L92.16,42.54L92.17,43.73L93.78,104.92L93.87,102.83L93.88,102.31L95.47,34.23L95.85,42.85L95.86,44.49L97.21,101.77L97.23,101.52L97.42,103.09L98.25,73.05L98.26,72.7L98.49,63.81L98.5,62.73L99.15,37.62L99.58,42.49L99.6,43.48L100.75,101.73L100.77,101.68L100.78,101.55L100.83,101.7L101.02,100.21L101.04,99.8L101.2,100.48L103.23,38.2L103.33,42.36L103.35,42.97L104.46,100.52L104.59,98.27L104.61,97.89L104.98,101.87L106.42,44.42L106.44,43.93L106.8,38.22L107.14,46.25L107.16,47.62L108.22,96.82L108.27,96.38L108.28,96.56L108.75,99.78L108.99,96.55L109,95.85L110.86,39.34L110.95,43.41L110.97,43.85L112.12,97.56L112.14,98L112.57,100.05L112.81,96.57L112.83,95.47L114.1,44.54L114.12,44.28L114.46,37.72L114.67,40.52L114.69,41.84L115.98,99.3L115.99,99.06L116.01,98.97L116.11,98.35L116.38,101.89L116.5,99.71L116.52,98.87L117.94,42.48L117.96,42.56L117.97,42.43L118.29,38.76L118.54,44.94L118.56,45.98L119.77,99.19L119.79,98.91L119.8,98.58L120.19,101.07L120.46,92.64L120.48,91.78L121.89,40.56L121.93,41.36L121.95,41.34L122.1,39.9L122.43,49.12L122.44,50.4L123.6,100.6L124.14,98.88L124.15,98.28L126.03,38.62L126.22,43.5L126.24,43.75L127.41,100.21L127.53,99.85L127.54,99.69L127.86,100.25L128.35,86.73L128.37,85.47L129.6,39.36L129.61,39.19L129.82,36.3L130.23,56.59L130.24,57.64L131.82,103.23L131.85,102.69L131.86,102.55L132.52,72.08L132.54,70.86L133.57,36.52L133.69,38.87L133.71,38.73L133.89,47.04L133.9,47.89L134.1,61.01L134.11,62.36L135.61,104.17L135.67,102.64L135.69,102.18L137.37,36.32L137.38,36.34L137.4,36.63L137.79,51.65L137.8,53.07L139.26,104.97L139.32,103.64L139.33,103.58L139.47,102.46L139.48,101.52L141.21,34.63L141.34,37.11L141.36,36.54L142.57,105.04L143.23,104.24L143.25,103.74L144.97,34.01L145.21,38.91L145.23,39.98L146.37,105.47L146.47,104.09L146.49,104.24L146.98,106.4L147.07,102.48L147.09,101.54L148.6,34.96L148.62,34.85L148.74,33.08L148.99,37.36L149.01,38.74L150.19,106.9L150.28,105.99L150.3,106.07L150.58,106.76L150.85,102.83L150.87,101.72L152.33,28.52L152.35,28.23L152.62,19.55L152.75,31.85L152.77,35.51L153.71,121.86L153.79,120.81L153.8,121L153.82,121.17L153.97,116.31L153.98,114.98L155.26,20.33L155.74,36.26L155.75,37.62L155.86,31.17L156.08,55.09L156.1,58.5L156.83,117.94L156.97,114.84L156.98,112.46L157.18,119.04L157.79,58.91L157.96,69.98L157.97,70.84L158,71.91L158.14,58.69L158.42,60.64L158.44,59.47L158.98,59.56L159.28,37.53L159.29,38.16L159.31,39.52L159.5,35.53L160.43,121.2L160.58,108.54L160.6,108.26L160.69,111.2L160.96,80.68L160.97,76.45L161.08,84.82L161.81,61.28L161.83,61.65L161.84,61.79L162.77,28.7L162.82,36.58L162.83,40.81L163.82,123.32L164.09,107.53L164.11,101.68L164.63,55.17L164.89,80.42L164.9,80.47L165.47,52.27L165.49,50.89L165.76,39.17L165.77,38.55L166.13,29.48L167.21,126.25L167.24,116.57L167.26,111.48L167.32,113.71L167.95,54.67L168.17,77.97L168.19,80.64L168.26,81.3L168.59,66.53L168.65,68.78L168.67,67.37L168.77,67.64L169.52,28.73L169.61,33.41L169.63,33.97L170.57,122.4L170.63,109.45L170.65,106.59L170.72,107.71L171.31,52.23L171.59,77.03L171.61,77.59L171.67,78.51L172.1,67.29L172.16,70.04L172.18,68.96L172.88,33.62L173.02,41.47L173.03,42.01L173.38,88.11L173.39,92.34L173.89,121.87L174.14,98.71L174.16,96.05L174.65,54.88L174.98,70.42L175,71.17L175.22,78.32L175.6,60.29L175.61,59.07L176.32,40.51L176.45,52.4L176.47,56.89L176.98,118.28L177.29,104.4L177.31,101.16L177.98,53.05L178.16,69.92L178.18,71.75L178.48,78.36L178.66,58.81L178.67,55.44L178.75,64.58L179.26,39.68L179.5,49.78L179.51,55.58L180.1,118.06L180.43,103.95L180.44,102.21L181.09,49.66L181.4,67.78L181.42,69.37L181.58,76.13L181.93,50.74L182.05,58.58L182.06,56.93L182.36,40.16L182.65,73.87L182.66,75.82L182.83,73.7L183.07,109.38L183.08,114.56L183.13,120.4L183.28,89.24L183.64,91.81L183.65,88.22L184.16,46L184.52,61.53L184.54,61.49L184.58,60L184.64,73.18L184.66,77.16L184.67,79.08L185,47.48L185.27,53.74L185.29,53.07L185.47,42.67L185.78,88.75L185.93,68.38L185.95,71.53L186.19,125.58L186.71,85.97L186.73,82.13L187.19,49.75L187.54,57.04L187.55,58.61L187.63,52.22L187.7,71.21L187.97,57.95L187.99,55.07L188.14,63.31L188.47,39.98L188.69,55.28L188.71,67.1L188.98,66.94L189.19,119.24L189.49,102.47L189.5,99.65L189.59,111.45L190.22,52.86L190.45,75.61L190.46,75.86L190.64,54.65L190.7,73.77L190.72,76.18L191.44,40.96L191.63,44.34L191.65,48.4L192.22,117.41L192.53,101.63L192.55,103.47L192.64,104.87L192.71,89.03L192.73,85.51L193.21,54.11L193.28,86.05L193.54,63.63L193.55,65.16L193.81,77.8L194.02,51.35L194.03,47.27L194.45,39.17L194.68,58.51L194.69,62.53L194.95,60.39L195.19,114.41L195.58,99.49L195.59,100.23L195.62,101.51L195.73,76.23L195.74,73.46L196.19,48.03L196.25,84.47L196.52,68.34L196.54,68.58L196.69,79.45L197.45,37.67L197.5,47.51L197.51,49.92L197.53,50.09L197.56,46.84L197.59,49.54L197.6,54.79L198.14,110.43L198.5,98.45L198.52,99.2L198.55,102.58L199.06,60.85L199.07,58.25L199.12,48.15L199.3,78.6L199.67,76.03L199.69,78.87L199.7,80.13L200.17,52.96L200.24,58.38L200.26,54.34L200.39,43.36L200.65,88.13L200.92,84.92L200.93,89.85L201.05,107.84L201.59,77.25L201.61,73.56L201.71,81.66L202.06,45.94L202.43,55.01L202.45,53.67L202.55,77.73L203.09,57.29L203.11,54.59L203.26,46.05L203.48,70.96L203.5,73.22L203.57,86.46L203.69,62.19L203.71,59.48L203.74,57.85L203.95,102.83L204.2,94.85L204.22,99.15L204.26,104.87L204.86,64.42L204.88,62.29L205.1,78.93L205.34,53.03L205.61,62.84L205.63,63.79L205.87,66.95L206.11,53.56L206.12,50.27L206.24,46.94L206.36,69.51L206.38,78.02L206.6,59.03L206.81,107.66L207.16,100.82L207.17,99.72L207.22,100.24L207.29,91.81L207.31,89.71L207.83,49.38L208.16,56.73L208.18,57.75L208.34,76.42L208.57,52.9L208.9,59.13L208.91,59.91L208.99,50.01L209.18,60.54L209.2,65.19L209.47,63.53L209.69,111.42L209.99,103.55L210.01,105.93L210.02,106.35L210.17,83.84L210.19,80.15L210.4,81.72L210.65,48.41L210.98,59.91L211,57.52L211.27,72.85L211.42,50.94L211.73,61.41L211.75,58.7L211.79,48.55L212.41,96.35L212.42,100.3L212.51,120.38L212.71,85.22L212.98,95.18L212.99,91.61L213.5,42.86L213.91,50.13L213.92,53.13L214.12,68.83L214.61,47.69L214.63,43.4L214.64,41.01L214.94,85.5L215.2,78.75L215.21,84.28L215.66,117.86L215.93,79.78L215.95,79.32L216.05,93.69L216.22,66.98L216.23,63.22L216.46,70.51L216.68,44.06L217.03,49.53L217.04,49.15L217.22,59.46L217.51,43.91L217.58,54.39L217.6,57.5L217.85,56.28L218.45,119.82L218.47,117.66L219.4,48.32L219.44,48.96L219.46,47.93L219.58,63.8L219.76,51.05L219.77,49.73L219.82,39.32L220.39,67.7L220.4,72.73L220.61,57.77L221.2,117.8L221.26,109.17L221.27,105.88L222.2,48.23L222.32,51.29L222.34,51.25L222.65,33.06L223.01,55.92L223.07,51.15L223.09,56.09L223.87,114.57L223.91,110.59L223.93,108.83L223.99,111.27L224.95,36.14L224.96,33.87L225.05,41.48L225.23,21.24L225.58,39.49L225.59,46.2L225.67,37.51L226.39,117.82L226.58,115.12L226.6,114.68L226.72,119.2L227.59,34.7L227.65,41.46L227.66,43.45L227.68,44.04L227.74,27.5L227.81,29.28L227.83,25.27L227.92,21.85L228.34,58.06L228.4,51.27L228.41,57.3L228.47,54.28L229.33,123.2L229.46,100.46L229.48,100.08L229.54,109L229.82,70.88L229.94,71.44L229.96,68.37L230.75,22.26L230.78,31.46L230.8,41.27L230.87,31.5L231.59,119.87L231.65,113.65L231.67,116.22L231.92,127.35L232.31,91.18L232.33,89.83L233.09,19.78L233.5,35.53L233.51,43.88L233.59,39.05L234.5,123.02L234.52,124.63L234.53,125.08L234.77,103.59L234.79,100.06L234.85,114.11L235.3,59.92L235.31,51.77L235.9,20.08L236.11,33.31L236.12,43.01L236.2,34.34L236.9,116.29L237.05,112.2L237.07,113.15L237.14,124.16L237.7,86.09L237.71,83.72L238.45,20.02L238.72,44.37L238.73,48.06L238.79,31.78L238.93,56.16L238.94,58.13L238.96,57.44L239.15,75.26L239.17,77.23L239.23,75.08L239.72,125.25L240.08,105.03L240.1,101.93L241.03,17.5L241.42,39.29L241.43,40.05L241.46,36.55L241.82,79.23L241.84,81.31L242.44,125.3L242.69,105.19L242.71,105.02L242.78,106.72L242.83,96.67L242.84,93.28L243.65,16.8L244.04,35.23L244.06,38.1L244.99,128.56L245,127.33L246.05,28.45L246.1,30.99L246.11,30.09L246.23,16.44L246.68,50.23L246.7,51.46L247.52,127.83L247.91,109.35L247.93,104.69L248.78,19.56L248.96,30.18L248.98,29.34L249.08,24.57L249.56,77.55L249.58,81.38L250.06,126.7L250.42,116.29L250.43,114.43L251.32,16.63L251.75,38.22L251.77,42.92L252.62,125.95L252.73,118.65L252.74,116.79L252.91,120.95L253.87,18.09L254.32,37.52L254.33,41.21L255.14,127.78L255.5,118.94L255.52,118.36L255.55,119.38L255.7,94.73L255.71,92.26L255.76,92.57L255.91,74.53L255.92,70.44L256.72,18.31L256.88,40.54L256.9,42.49L257.66,127.79L258.01,123.97L258.02,122.53L258.22,99.21L258.23,94.62L258.31,98.83L259.24,17.11L259.36,28.91L259.37,32.07L260.51,126.04L260.6,120.13L260.62,117.77L261.7,19.69L261.71,19.88L261.73,20.61L261.77,19.73L261.92,36.64L261.94,39.94L263.02,126.52L263.03,124.19L263.05,121.03L263.11,123.45L264.26,17.81L264.28,19.32L265.55,127.07L265.58,125.03L265.6,122.61L266.48,20.36L266.72,23.42L266.74,21.65L266.77,17.53L267.26,71.26L267.28,74.05L268.03,129.17L268.16,111.88L268.18,108.8L269.17,17.37L269.27,19.39L269.29,21.59L270.47,127.75L270.71,106.44L270.73,102.46L271.72,15.73L271.82,18.53L271.84,22.88L272.8,123.7L272.81,123.65L272.83,122.96L273.13,124.79L274.01,16.47L274.46,33.99L274.48,41.54L275.36,122.72L275.38,120.84L276.41,35.49L276.43,33.69L276.56,18.99L276.76,41.32L276.77,47.69L276.85,21.6L277.46,88.19L277.48,91.55L277.57,89.09L277.93,119.73L278.33,107.99L278.35,108.49L279.16,19.34L279.52,32.72L279.53,34.98L279.61,30.48L280.55,120.4L280.67,113.27L280.69,110.79L280.76,111.83L281.87,23.57L281.89,26.53L281.9,33.04L282.08,29.39L282.86,102.93L282.88,102.17L282.89,98.82L283.28,117.4L283.64,88.31L283.67,91.02L283.69,92.68L284.51,14.38L284.63,46.24L284.65,54.08L284.71,27.9L285.2,81.29L285.29,73.37L285.31,80.92L285.94,121.43L286.09,99.34L286.1,98.52L286.15,108.1L286.52,58.69L286.54,55.91L286.58,65.47L287.17,24.14L287.21,37.21L287.23,36.48L287.27,30.55L287.75,73.96L287.86,72.32L287.87,75.71L287.95,73.8L288.62,116.85L288.77,104.81L288.79,100.82L289.72,19.8L289.76,43.75L289.78,47.32L289.87,20.83L290.06,55.07L290.08,68.31L290.14,35.89L290.75,99.83L290.87,98.28L290.89,103.85L291.35,121.49L291.59,86.43L291.61,87.08L291.62,89.48L291.64,91.92L292.03,49.28L292.04,46.87L292.09,51.09L292.22,40.85L292.28,44.8L292.3,34.72L292.76,28.57L292.84,74.89L292.93,60.45L292.94,68.8L293.08,51.52L293.83,110.7L294.17,105.02L294.19,101.07L294.83,35.75L295.07,49.99L295.09,55.14L295.1,55.36L295.13,41.95L295.15,33.13L295.27,26.4L295.64,85.06L295.73,59.51L295.75,70.35L295.9,57.58L296.53,100.22L296.54,98.46L296.63,99.82L297.44,49.03L297.47,59.76L297.49,69.75L297.5,73.36L297.55,38.89L298.21,59.18L298.22,54.51L298.4,50.26L299.27,92.56L299.3,83.16L299.32,74.49L299.41,94.45L300.05,64.38L300.07,64.78L300.08,69.35L300.61,51.74L300.68,87.63L300.85,82.82L300.86,75.99L301.39,83.73L301.45,45.36L301.6,73.25L301.61,74.11L301.75,55.87L302.26,75.94L302.33,66.03L302.35,71.58L302.45,67.05L302.8,87.47L303.11,82.7L303.13,81.09L303.81,85.88L303.87,56.61L303.9,74.16L303.92,83.65L303.93,84.27L304.17,56.71L304.26,68.47L304.28,57.8L304.35,82.87L304.41,28.32L305.01,68.41L305.03,72.22L305.24,56.39L305.7,87.08L305.72,88.96L306.02,99.48L306.08,79.23L306.35,86.92L306.36,79.71L306.6,101.09L307.23,45.16L307.25,53.42L307.26,66.04L307.82,35.52L307.86,75.78L307.98,73.51L308,61.61L308.03,46.35L308.64,83.42L308.72,82.71L308.73,89.64L308.79,75.91L309.42,94.74L309.45,85.81L309.47,76.25L310.13,92.03L310.17,53.2L310.2,71L310.22,80.34L310.7,50.78L311.01,51.55L311.03,57.97L311.12,43.77L311.48,77.65L311.79,74.83L311.81,73.94L312.08,63.58L312.42,84.11L312.53,83.57L312.54,84.49L312.78,87.07L312.83,76.76L312.86,86.39L312.87,93.38L312.89,93.98L312.92,72.66L312.93,66.3L313.28,100.16L313.59,78.15L313.61,67.6L313.67,95.72L314.16,41.03L314.39,52.3L314.4,55.02L314.7,37.16L314.75,76.06L315.18,72.61L315.2,72.23L315.24,54.47L315.92,87.76L315.93,82.09L315.95,73.39L316.13,106.25L316.17,60.21L316.68,80.86L316.7,87.76L316.71,90.23L317.12,62.35L317.37,77.89L317.39,71.13L317.55,81.9L317.96,56.16L318.14,61.23L318.15,67.8L318.26,75.47L318.3,54.73L318.87,66.65L318.89,65.04L319.11,59.86L319.16,85.49L319.65,75.15L319.67,68.07L320.3,85.98L320.34,62.89L320.36,71.63L320.37,85.66L320.49,97.91L320.54,53.23L321.09,82.19L321.11,81.35L321.21,86.25L321.75,59.33L321.87,67.92L321.89,77.69L321.9,82.56L322.5,56.75L322.59,57.75L322.61,49.93L323.39,90.82L323.4,81.95L323.43,53.62L323.82,84.75L324.15,73.61L324.17,67.24L324.41,79.69L324.47,62.88L324.48,69.97L324.5,80.2L324.57,57.33L324.62,87.7L325.23,78.55L325.25,73.06L325.77,88.72L325.83,65.57L325.97,84.6L325.98,85.09L326.13,51.85L326.18,96.78L326.76,65.4L326.78,67.99L327.12,81.28L327.17,53.22L327.5,64.32L327.51,58.01L328.05,48.24L328.11,98.16L328.14,66.79L328.16,48.16L328.17,44.78L328.43,97.53L328.83,65.64L328.85,74.28L329.36,96.84L329.4,50.12L329.58,69.03L329.6,57L329.64,90.86L330.32,68.77L330.33,63.12L330.39,90.88L330.87,58.43L330.98,64.92L330.99,61.82L331.31,49.55L331.35,91.28L331.67,67.33L331.68,57.74L331.94,94.67L332,38.37L332.37,66.06L332.39,86.39L332.4,94.09L332.45,42.23L333.12,77.29L333.14,76.48L333.54,48.61L333.6,98.59L333.87,79.68L333.89,76.64L334.46,91.6L334.5,59.2L334.62,70.01L334.64,82.47L334.8,58.87L335.33,93.84L335.36,78.81L335.37,62.95L335.97,102.8L336.02,38.29L336.05,62.66L336.06,88.01L336.08,98L336.12,43.96L336.75,61.7L336.77,43.67L336.8,64.41L336.81,87.11L337.07,28.87L337.11,103.89L337.44,63.42L337.46,50.21L337.7,88.73L338.19,78.12L338.21,69.18L338.54,56.6L338.87,97.57L338.94,75.02L338.96,89.73L339.12,55.02L339.18,101.95L339.69,77.97L339.71,71.48L339.9,83.21L340.43,63.08L340.46,69.32L340.47,72.54L340.83,49.37L340.89,78.85L341.04,59.84L341.06,50.07L341.16,38.97L341.21,88.1L341.55,68.39L341.57,79.47L341.91,88.88L341.97,49.9L342.21,72.56L342.23,64.86L342.71,58.28L342.75,99.54L342.84,74.41L342.86,92.75L342.87,102.91L342.93,59.3L343.59,81.32L343.61,77.9L344.27,95.29L344.33,48.7L344.36,74.25L344.37,86.71L344.39,88.19L344.43,58.21L344.75,71.13L344.76,59.2L344.94,91.94L344.99,37.46L345.5,64.35L345.51,67.99L345.84,51.5L345.9,84.68L345.93,65.23L345.95,52.54L345.96,50.69L346.47,93.13L346.55,75.02L346.56,88.2L346.73,49.73L346.79,106.87L347.12,77.34L347.13,70.02L347.46,63.77L347.51,104.95L347.55,65.44L347.57,53.03L347.63,108.4L348.15,44.92L348.24,58.09L348.26,48.43L348.3,100.17L348.99,47.85L349.01,49.75L349.32,32.04L349.38,94.82L349.76,59.82L349.77,57.21L350.28,48.43L350.33,86.51L350.43,70.21L350.45,79.94L350.52,60.17L351.14,92.59L351.18,78.51L351.2,77.49L351.63,66.78L351.69,100.82L351.93,78.94L351.95,72.27L352.22,91L352.71,53.08L352.73,55.29L352.74,68.09L352.77,91.98L353.09,45.46L353.46,57.84L353.48,61.28L353.88,32.6L353.94,87.87L354.24,70.27L354.26,61.85L354.29,53.04L354.95,85.86L354.99,75.15L355.01,77.56L355.1,72.73L355.16,95.68L355.77,85.26L355.79,81.03L355.88,91.63L356.36,62.6L356.57,72.28L356.58,75.11L356.64,75.25L356.7,61.47L356.72,66.34L356.73,77.27L356.75,85.58L357.33,45.29L357.41,63.64L357.42,43.45L357.71,87.19L357.77,22.98L358.11,59.68L358.13,73.63L358.19,50.2L358.8,93.95L358.91,87.65L358.92,84.39L359.33,79.61L359.39,95.61L359.66,82.92L359.67,87.89L359.82,96.88L360.35,72.42L360.36,65.23L360.44,90.99L360.95,52.18L361.16,57.5L361.17,59.43L361.43,43.65L361.49,68.52L361.52,46.88L361.53,39.04L362.24,73.21L362.28,56.24L362.3,57.26L363.11,91.83L363.12,92.01L363.42,87.33L363.6,97.34L363.78,89.99L363.8,89.06L363.92,90.93L364.73,41.42L364.76,51.49L364.77,60.7L364.79,66.87L365.3,41L365.52,64.85L365.54,62.56L365.58,50.03L365.84,85.53L366.24,81.24L366.26,85.73L366.35,76.87L366.75,108.52L367.02,92.17L367.04,93.22L367.19,103.26L367.68,68.81L367.7,68L367.74,73.09L368.28,40.88L368.31,42.58L368.33,45.67L368.85,42.38L369.11,62.22L369.12,61.22L369.18,51.31L369.69,82.47L369.71,82.94L369.74,81.06L370.26,105.59L370.28,106.7L370.31,108.05L370.8,89.61L370.88,93.22L370.89,91.39L371.84,39.63L371.88,42.81L371.9,44.44L372.35,40.85L372.6,61.56L372.72,58.09L372.74,53.26L372.75,49.3L373.32,93.24L373.4,84.31L373.41,85.82L373.82,110.6L374.22,101.27L374.24,100.78L374.28,100.97L374.46,79.85L374.48,78.13L375.35,36.45L375.65,43.6L375.66,44.01L377.36,115.33L377.49,103.02L377.51,101.67L377.66,102.6L378.48,41.03L378.68,45L378.69,45.01L378.81,39.7L379.56,65.14L379.59,61.18L379.61,55.95L379.73,51.41L379.98,90.27L380.24,81.5L380.25,86.99L380.34,84.49L380.9,113.61L381.03,101.62L381.05,101.43L381.2,103.01L381.51,77.39L381.53,75.38L382.04,43.5L382.38,47.77L382.4,49.47L382.46,44.22L383.07,60.15L383.21,56.56L383.22,51.31L383.25,47.35L383.6,81.65L383.81,80.9L383.82,82.54L384.41,115.17L384.68,99.47L384.69,98.91L385.07,78.01L385.08,73.28L385.95,43.67L386,48.91L386.01,50.23L386.16,49.52L386.63,63.31L386.67,55.98L386.69,52.44L386.96,73.32L387.02,40.12L387.05,72.58L387.06,88.5L387.08,89.22L387.09,77.52L387.11,62.15L387.12,56.41L387.77,102.88L387.78,101.23L387.8,97.88L387.99,116.47L388.62,79.75L388.64,80.19L388.65,81.12L389.01,53.02L389.07,57L389.09,51.91L389.55,42.15L389.82,58.11L389.84,60.22L389.9,52.86L390.2,66.13L390.32,62.45L390.33,64.73L390.77,53.78L390.92,84.87L391.07,66.55L391.08,64.03L391.1,63.7L391.13,74.13L391.14,80.67L391.2,79.25L391.83,109.77L391.97,96.49L391.98,93.31L392.16,100.31L392.94,45.13L393.08,51.89L393.09,53.89L393.26,45.88L393.98,69.2L394.07,64.79L394.08,62.68L394.5,43.41L394.65,76.22L394.67,84.74L394.85,63.38L395.36,104.59L395.43,90.82L395.45,95.08L395.6,113.26L396.15,76.96L396.17,73.68L396.24,83.05L396.74,44.96L397.04,49.65L397.05,48.13L397.07,47.26L397.47,62.38L397.49,61.68L398.09,77.33L398.13,55.8L398.16,64.92L398.18,76.55L398.46,57.04L398.63,88.21L398.93,83.18L398.94,83.37L399.42,106.45L399.65,96.82L399.66,93.1L399.87,93.87L400.56,52.92L400.61,56.06L400.62,55.26L400.97,46.56L401.19,61.76L401.34,54.72L401.36,57.73L401.45,57.08L402.09,79.67L402.12,71.49L402.14,65.42L402.44,58.48L402.71,88.81L402.89,64.22L402.9,72.19L403.41,101.18L403.68,93.08L403.7,93.28L403.92,97.99L405,45.93L405.12,59.58L405.14,61.07L405.36,55.98L405.47,65.78L405.48,68.3L405.59,63.11L406.07,81.74L406.23,69.53L406.25,66.15L406.64,54.11L406.82,87.02L407,58.89L407.01,64.9L407.63,101.94L407.82,92.37L407.84,91.25L408.05,100.12L408.83,52.13L408.84,52.59L408.86,53.92L409.16,51.87L409.64,77.97L409.71,70.43L409.73,70.62L409.79,78.56L410.43,64.26L410.45,63.22L410.76,52.93L410.97,72.2L411.11,60.16L411.12,58.73L411.14,58.19L411.35,71.31L411.36,73.52L411.9,105.81L412.29,93.59L412.31,94.63L412.32,95.6L412.64,72.09L412.82,72.36L412.83,70.25L413.34,45.33L413.63,60.75L413.64,60.42L414.48,88.56L414.5,85.2L414.51,80.18L415.13,54.11L415.34,58.6L415.35,60.51L415.44,47.89L416.31,90.3L416.34,86.98L416.36,83.79L416.43,71.95L416.58,104.97L417.09,86.28L417.11,84.43L417.69,56.93L417.95,67.26L417.96,69.31L418.04,50.22L418.26,65.21L418.28,68.62L418.47,62.34L419.1,85.14L419.12,86.44L419.13,87.25L419.61,67.97L419.63,66.93L420.2,50.43L420.39,61.95L420.41,62.98L420.62,58.73L421.23,90.45L421.25,89.95L421.26,88.04L421.38,74.78L421.52,91.7L422.04,80.24L422.06,79.89L422.1,80.17L422.21,76.75L422.22,75.27L422.85,84.41L423.02,57.98L423.06,65.95L423.08,69.82L423.14,76.72L423.26,69.39L423.83,71.9L423.84,70.06L424.04,79.01L424.61,55.58L424.67,60.58L424.68,61.32L424.91,55.35L425.55,77.8L425.7,70.46L425.72,69.28L426.27,66.95L426.44,96.44L426.51,78.77L426.53,76.28L426.8,88.23L427.2,73.75L427.26,77.67L427.28,78.42L427.88,59.32L427.95,70.69L427.97,72.26L428.04,77.01L428.13,61.88L428.67,68.49L428.69,68.13L428.94,73.08L429.09,61.51L429.45,63.77L429.47,66.63L429.69,72.99L429.86,58.54L430.22,69.8L430.23,67.29L430.68,62.01L430.74,81.25L430.92,67.1L430.94,72.34L431.24,53.34L431.4,107.66L431.72,88.55L431.73,89.52L431.78,94.96L431.94,72.8L432.35,79.18L432.36,75.73L432.62,77.99L432.84,57.44L433.17,61.96L433.19,62.74L433.91,78.2L433.95,73.3L433.97,71.46L434.21,80.05L434.81,57.19L434.82,58.64L435.26,53.67L435.45,82.25L435.62,70.26L435.63,68.26L435.65,67.23L436.07,81.95L436.08,84.7L436.29,60.64L436.44,103.69L436.83,86.94L436.85,84.59L437.48,66L437.61,77.09L437.63,77.88L437.81,64.18L438.05,75.56L438.06,76.65L438.08,77.59L438.17,61.43L438.59,66.5L438.6,64.49L438.78,71.5L439.05,63.45L439.19,67.27L439.2,69.34L439.25,75.06L439.41,59.11L439.92,70.21L439.94,68.03L440.33,62.2L440.51,79.7L440.67,73.27L440.69,75.73L441,61.07L441.17,91.66L441.3,62.74L441.32,57.7L441.35,51.45L441.5,107.53L442.02,74.56L442.04,74.54L442.2,87.4L442.59,69.72L442.77,77.39L442.79,76.72L443.1,77.68L443.28,58.97L443.64,64.23L443.66,64.07L443.7,61.74L444.29,71.8L444.3,72.99L444.47,62.54L444.57,70.71L444.59,72.27L445.11,62.29L445.28,76.49L445.31,71.94L445.32,67.67L445.85,79.44L446.03,64.44L446.06,68.18L446.07,70.27L446.49,61.53L446.63,94.9L446.64,98.7L446.66,100.34L446.82,66.99L447.15,79.38L447.17,79.06L447.36,85.63L448.1,61.75L448.11,62.3L448.13,63.92L448.26,75.63L448.44,56.15L448.86,64.34L448.88,63.55L448.91,62.66L449.43,73.13L449.52,72.66L449.54,72.7L449.76,77.49L450.32,64.87L450.33,65.61L450.35,67.53L450.56,65.02L450.96,77.67L451.1,71.22L451.11,70.12L451.52,82.78L451.65,62.49L451.73,76.41L451.74,81.74L451.8,100.75L451.98,64.08L452.49,86.1L452.51,87.21L453.57,53.88L453.65,64.29L453.66,66.55L453.89,57.61L454.26,70.65L454.4,67.52L454.41,66.18L454.67,76.64L454.76,64.47L454.91,74.87L454.92,77.8L454.95,80.98L455.44,63.46L455.62,72.05L455.64,66.46L455.65,62.33L456.15,76.29L456.37,72.88L456.39,73.33L456.6,71.84L456.76,84.99L456.88,74.75L456.9,72.39L456.93,70.06L457.09,92.35L457.63,72.46L457.65,73.21L457.8,79.94L458.35,69.21L458.37,69.05L458.82,58.4L459.27,61.42L459.28,62.74L460.14,75.68L460.15,74.29L460.17,71.07L460.41,66.48L460.57,81.38L460.87,79.35L460.89,81.56L460.99,83.72L461.16,67.89L461.65,75.84L461.67,74.86L462.15,77.94L462.19,69.57L462.34,75.4L462.36,78.28L462.63,72.23L462.79,80.88L463.09,78.98L463.11,78.21L463.18,78.99L463.68,69.04L463.96,69.27L463.98,68.22L464.08,70.8L464.61,62.85L464.74,65.29L464.76,66.7L464.83,63.17L465.51,71.52L465.54,68.93L465.55,67.57L465.57,67.38L465.85,71.44L466.08,68.42L466.09,69.7L466.41,65.38L466.68,76.13L466.83,70.49L466.84,69.35L467.49,79.63L467.62,74.91L467.64,72.79L467.82,79.3L467.98,71.63L468.33,76.2L468.34,77.01L468.64,80.97L468.81,72.63L469.08,77.07L469.09,76.06L469.33,77.08L469.93,67.33L469.95,67.42L470.07,70.99L470.59,63.56L470.61,63.49L470.65,62.02L471.15,69.14L471.16,69.86L471.34,67.19L471.52,71.79L471.72,69.63L471.73,71.34L472.02,66.71L472.2,74.59L472.45,71.03L472.47,69.4L472.48,69.15L472.87,76.48L473.04,73.89L473.05,73.75L473.26,78.16L473.41,74.4L473.43,73.37L473.59,78.57L473.76,72.18L474.06,75.59L474.07,73.93L474.1,72.43L474.64,78.19L474.82,73.79L474.84,74.39L474.97,77.8L475.5,72.28L475.51,72.18L475.66,74.81L476.05,69.85L476.11,70.22L476.13,68.83L476.2,70.79L476.7,62.71L476.91,64.53L476.92,64.05L477.04,63.99L477.87,71.56L477.88,70.59L477.9,68.75L478.15,65.95L478.53,79.47L478.6,71.72L478.62,76.23L478.65,80.16L478.69,68.27L479.35,74.69L479.37,74.03L479.55,78.5L480.07,69.82L480.12,73.54L480.13,74.44L480.42,72.42L480.6,79.21L480.67,77.41L480.69,78.57L480.7,79.01L481.2,73L481.39,77.05L481.41,76.53L481.71,77.52L482.31,66.26L482.32,66.41L482.34,67.66L482.37,70.36L482.53,63.89L483.07,66.09L483.09,65.8L483.12,64.68L483.7,71L483.78,69.85L483.79,71.18L483.85,66.84L484.36,75.08L484.51,70.62L484.53,69.83L485.05,77.38L485.29,73.81L485.31,71.88L485.49,79.28L485.65,69.7L486.01,74.08L486.03,75.06L486.07,73.72L486.66,77.59L486.72,75.63L486.73,76.72L486.76,77.84L487.26,72.28L487.44,75.51L487.45,74.72L487.9,75.14L488.28,69.89L488.29,70.19L488.32,71L488.71,65.13L488.95,67.8L488.97,67.73L489.12,65.06L489.28,68.65L489.57,68.02L489.58,69.24L489.88,66.77L490.36,71.78L490.38,71.3L490.42,68.11L491.04,74.01L491.11,72.69L491.13,73.83L491.31,71.85L491.79,78.44L491.91,76.91L491.92,75.03L492.06,72.31L492.54,77.76L492.69,73.2L492.7,73.08L492.85,77.6L493.45,74.31L493.47,74.24L493.51,75.21L493.9,72.53L494.17,72.87L494.19,72.78L494.37,73.34L494.94,66.61L494.95,66.27L495.12,68.11L495.25,65.11L495.27,64.83L496.15,69.29L496.17,69L496.18,68.41L496.21,67.58L496.77,71.39L496.84,70.66L496.86,70.92L497.01,69.9L497.17,72.9L497.19,72.86L497.25,71.26L497.83,76.49L497.85,76.68L498.31,74.31L498.48,77.16L498.66,75.32L498.67,75.84L498.81,77.4L498.96,75.24L499.39,75.4L499.41,75.35L500.14,71.96L500.28,73.06L500.29,73.34L500.4,74.03L500.77,72.31L500.8,72.38L500.82,72.3L501.78,65.14L501.85,65.68L501.87,65.92L502.08,65.71L502.74,69.4L502.75,69.36L502.77,69.29L503.65,73.51L503.67,73.49L503.68,73.47L504.12,76.24L504.52,74.92L504.54,74.87L504.88,73.9L505.29,75.58L505.33,75.27L505.35,75.37L505.48,74.61L505.63,76.32L506.1,75.46L506.11,75.25L506.65,72.26L507.06,72.72L507.07,72.74L507.64,69.69L507.66,69.43L508.63,64.83L508.8,66.16L508.81,66.15L510.67,76.58L511.06,75.35L511.08,75.03L511.35,74.09L511.92,75.88L511.95,75.7L511.96,75.62L512.11,76.5L512.64,75.14L512.65,75.08L514.38,68.4L514.39,68.15L515.01,64.85L515.31,65.43L515.32,65.42L516.94,74.44L516.97,74.1L516.99,73.9L517.3,76.23L517.81,75.18L517.83,75.15L517.87,74.95L518.35,76.67L518.37,76.87L518.49,77.08L519.87,70.96L520.12,71.92L520.14,72.12L520.26,72.19L521.04,68.88L521.05,68.62L521.61,65.58L521.98,66.11L522,66.22L524.16,75.65L524.2,75.51L524.22,75.56L524.4,74.57L524.8,76.53L524.83,76.52L524.85,76.6L525.36,77.76L525.55,76.44L525.57,76.41L525.61,76.66L526,74L526.02,73.9L526.44,71.27L526.45,71.12L526.72,70.78L527.01,72.13L527.17,71.27L527.19,71.45L527.26,71.82L527.65,69.54L527.67,69.41L528.45,65.36L528.78,66.44L528.79,66.53L531.88,78.08L532,77.76L532.02,77.62L532.08,78.01L532.51,75.92L532.53,75.68L533.05,72L533.07,71.83L533.31,70.37L533.73,71.96L533.83,71.69L533.85,71.75L533.97,72.01L535.18,65L535.53,66.11L535.54,66.22L537.3,74.09L537.31,74.06L537.33,74.04L538.56,77.6L538.57,77.58L538.59,77.46L538.77,78.44L539.16,76.72L539.17,76.55L540.09,69.97L540.49,71.73L540.51,71.81L541.09,70.25L541.11,70.05L541.98,65.12L542.16,65.54L542.17,65.6L544.12,74.46L544.14,74.55L544.69,73.94L544.93,74.29L544.95,74.41L545.79,77.36L545.86,76.98L545.88,76.89L546.88,70.85L547.02,71.03L547.03,70.97L547.63,72.34L547.77,71.52L547.78,71.39L548.11,69.52L548.13,69.35L548.98,65.51L549.06,65.8L549.07,65.83L550.02,71.69L550.03,71.76L551.07,74.27L551.49,73.65L551.5,73.62L551.59,73.45L551.97,74.36L551.98,74.49L552.7,77.28L553.03,76.41L553.05,76.37L554.11,70.52L554.52,71.51L554.53,71.63L554.86,71.98L555.15,71.28L555.16,71.17L556.17,66.23L556.48,67.03L556.5,67.01L558.43,73.67L558.46,73.64L558.48,73.64L558.84,73.4L559.14,74.04L559.15,74.2L559.72,75.22L559.74,75.33L560.13,76.46L560.5,75.51L560.52,75.43L561.78,71.04L562.18,71.58L562.2,71.61L562.72,70.96L562.74,70.91L563.97,67.7L564.04,67.82L564.06,67.86L565.26,71.79L565.27,71.85L565.32,71.66L565.74,72.77L565.78,72.77L565.8,72.93L566.55,74.22L566.62,74.18L566.64,74.28L566.7,74.02L567.25,74.77L567.31,74.65L567.33,74.8L568.33,74.44L568.35,74.37L570.57,70.87L570.58,70.92L570.6,70.94L572.22,68.65L572.43,69.1L572.44,69.15L573.04,71.28L573.06,71.35L574.26,73.92L574.41,73.54L574.42,73.48L574.62,73.85L575.11,73.21L575.13,73.13L576.03,74.4L576.04,74.36L576.06,74.33L576.21,74.51L576.55,73.83L576.57,73.79L577.62,71.76L578.11,72.23L578.13,72.28L579.87,68.3L580.17,69.05L580.18,69.08L581.89,72.96L581.92,72.91L581.94,72.87L582.78,72.57L582.81,72.91L582.82,73.01L583.18,73.35L583.59,72.78L583.6,72.85L583.62,72.94L583.75,73.04L584.29,72.45L584.46,72.73L584.47,72.74L584.53,72.59L585.03,73.41L585.07,73.27L585.09,73.28L585.63,74.01L585.88,73.59L585.9,73.47L585.96,73.63L586.32,72.21L586.33,72.08L587.53,69.58L587.55,69.58L588.46,70.98L588.48,71.03L589.59,72.54L589.72,72.47L589.74,72.44L591.48,72.05L591.49,72.02L592.27,72.66L592.29,72.7L593.43,72.73L593.47,72.62L593.49,72.56L594.87,72.19L594.9,72.25L594.91,72.27L596.16,71.56L596.17,71.56L597.24,71.37L597.25,71.41L602.79,71.98L602.8,71.97L607,72.06" style="vector-effect: non-scaling-stroke; fill: none; stroke: rgb(192, 192, 192); stroke-opacity: 1; stroke-width: 1px; opacity: 1;"/></g><g class="points"/><g class="text"/></g><g class="trace scatter trace573c55" style="stroke-miterlimit: 2; opacity: 1;"><g class="fills"/><g class="errorbars"/><g class="lines"><path class="js-line" d="M0,71.97L0.31,71.66L0.36,72.36L0.75,72L0.76,71.94L0.88,71.8L1.5,72.22L1.51,72L1.53,72.03L1.69,72.25L2.29,71.66L2.34,72.25L2.35,72.53L2.79,71.05L3.1,72.42L3.12,72.5L3.64,70.01L3.7,88.2L3.73,78.29L3.75,66.98L3.96,55.8L4.3,88.2L4.45,73.73L4.47,75.44L4.53,84.96L4.98,56.41L5.19,66.88L5.2,66.19L5.34,55.8L5.65,76.42L5.91,64.5L5.92,71.65L6.24,88.2L6.63,61.45L6.64,59.17L6.69,55.8L6.79,81.48L7.24,70.52L7.26,70.84L7.36,77.6L7.69,69.77L7.71,67.08L7.9,55.8L8.05,88.2L8.38,72.99L8.4,82.17L8.41,88.2L8.58,55.8L9.12,65.55L9.13,63.2L9.52,88.2L9.82,57.97L9.84,56.41L9.94,55.8L10.51,87.7L10.63,79.79L10.65,72.03L10.71,83.73L11.16,57.89L11.38,72.22L11.4,76.05L11.5,87.67L12.21,60.46L12.24,67.11L12.25,69.77L12.49,55.8L12.87,74.58L12.91,71.13L12.93,72.39L13.29,63.23L13.71,88.21L13.8,81.18L13.81,80.92L13.87,79.13L13.92,83.09L13.93,85.54L13.95,87.15L14.14,55.8L14.37,62.17L14.38,60.93L14.4,60.35L14.5,78.17L14.52,80.61L14.7,67.79L15.09,84.23L15.21,72.24L15.22,69.5L15.49,55.8L15.78,79.96L15.79,81.39L15.9,88.2L16.15,67.36L16.2,68.45L16.21,66.18L16.26,59.81L16.66,76.03L16.93,69.28L16.95,68.79L17.22,86.08L17.61,55.8L17.76,63.83L17.77,64.73L18.01,88.2L18.3,76.31L18.31,74.83L18.96,58.11L19.08,71.7L19.09,74.62L19.36,88.2L19.78,66L19.8,63L19.81,61.17L20.46,79.11L20.47,81.7L20.7,88.2L20.92,68.35L20.97,68.35L20.98,67.4L21.15,55.76L21.45,75.69L21.46,76.69L21.6,88.2L21.97,63.02L21.99,61L22.21,55.8L22.62,81.08L22.63,84.89L22.74,85.55L22.93,73.76L22.95,72.2L23.01,79.42L23.4,55.8L23.58,65.93L23.59,64.14L23.83,84.58L24.34,73.49L24.36,72.86L24.61,63.14L25,79.86L25.02,82.04L25.14,88.2L25.59,55.8L25.6,55.87L25.98,79.72L26.59,74.62L26.61,72.28L26.94,63.03L27.27,74.95L27.34,72.01L27.36,73.09L27.55,88.2L27.96,59.9L27.97,58.1L28.02,55.8L28.36,78.92L28.38,81.51L28.45,88.2L28.87,65.63L29.08,74.86L29.1,73.05L29.46,55.8L29.77,82.41L29.79,83.92L29.91,88.2L30.33,55.8L30.43,61.64L30.45,63.49L30.72,79.78L31.2,67.55L31.21,64.97L31.23,64.52L31.33,77.02L31.35,79.24L31.39,88.2L31.84,57.63L32.08,79.83L32.1,78.9L32.28,88.2L32.47,65.7L33.01,68.12L33.03,67.58L33.37,75.49L33.58,69.43L33.6,68.3L33.82,60.39L33.99,72.47L34.06,70.66L34.08,73.41L34.57,63.88L34.9,88.2L34.93,86.67L34.95,85.63L35.05,86.78L35.28,56.92L35.61,77.38L35.62,79.93L35.71,88.2L36.16,64.97L36.22,65.37L36.24,64.86L36.34,62.27L36.79,76.54L36.81,76.51L36.82,76.45L36.87,76.75L37.05,71.62L37.06,71.21L37.24,64.87L37.71,73.26L37.77,71.94L37.78,74.35L37.96,65.47L38.5,88.2L38.65,78.57L38.67,77.33L38.85,57.59L39.25,85.46L39.27,86.32L39.31,88.2L39.76,65.17L39.78,64.84L39.87,61.83L40.27,75.53L40.29,75.71L40.36,77.49L40.69,67.57L40.71,67.2L40.77,64.49L41.2,72.88L41.41,69.42L41.43,70.06L41.56,66.98L41.71,76.42L41.73,77.5L41.91,88.2L42.22,61.81L42.24,60.38L42.36,55.8L42.76,88.2L42.78,88.09L43.11,67.93L43.12,67.29L43.17,66.22L43.75,69.59L43.77,70.36L44.04,79.17L44.43,60.8L44.44,60.86L44.89,77.18L45.16,66.98L45.18,66.25L45.58,88.2L46.02,56.63L46.03,56.95L46.36,88.2L46.71,68.56L46.72,67.88L46.8,69.33L46.95,66.46L47.35,68.68L47.37,69.35L47.68,75.46L48.04,66.04L48.06,65.47L48.16,64.08L48.3,67.07L48.31,68.52L48.79,64.28L49.24,88.2L49.27,85.24L49.29,82.48L49.6,56.4L50.02,86.74L50.04,87.38L50.07,88.2L50.32,68.73L50.43,68.83L50.44,68.51L50.71,74.06L51.03,64.89L51.18,67.64L51.19,69.9L51.33,76.06L51.76,63.45L51.85,63.55L51.87,63.24L52.72,83.03L52.74,83.52L52.84,88.25L53.02,78.05L53.04,76.21L53.28,56.8L53.68,87.7L53.7,88.2L54.69,63.68L54.82,67.9L54.84,68.37L55,75.58L55.44,64.34L55.51,65.22L55.53,64.47L55.54,64.15L55.89,73.53L56.07,70.47L56.08,73.7L56.43,88.2L56.73,64.04L56.74,62.37L56.86,57.4L57.24,82.81L57.25,83.13L57.31,85.38L57.55,73.71L57.57,72.23L57.93,77.94L58.32,55.8L58.42,61.15L58.44,61.92L58.8,74.91L59.25,67.65L59.26,66.54L59.56,66.01L59.71,71.4L59.73,72.48L60.06,88.2L60.33,72.75L60.34,71.7L60.49,61.57L60.96,79.25L60.97,79.1L61.56,80.26L61.95,55.8L62.16,66.93L62.17,67.51L62.41,74.95L62.68,64.99L62.73,66.41L62.74,65.67L62.79,63.27L63.22,71.78L63.4,68.8L63.42,70.33L63.78,88.2L64.15,68.78L64.17,67.81L64.23,66.11L64.63,77.45L64.84,72.38L64.86,72.85L64.92,71.35L65.26,80.63L65.28,80.39L65.74,55.8L66.25,64.09L66.27,63.62L66.34,62.16L66.82,70.05L66.84,70.59L66.88,67.64L67.08,81.32L67.14,81.1L67.15,83.21L67.35,88.2L67.72,72.43L67.75,73.9L67.77,73.82L67.99,76.9L68.41,65.92L68.55,69.37L68.56,70.14L68.82,81.34L69.1,65.83L69.12,65.04L69.52,67.54L69.93,55.8L69.99,57.92L70,58.3L70.81,83.77L71.13,75.99L71.14,75.21L71.17,74.73L71.47,83.85L71.49,85.04L71.62,88.2L72.03,78.77L72.16,79.47L72.18,80.01L72.21,80.68L72.58,64.68L72.6,64.37L72.94,75.3L73.27,61.95L73.29,60.64L74.04,55.8L74.07,56.54L74.08,57.44L75.52,88.28L75.6,88.24L75.61,88.2L75.94,79.32L75.96,78.65L76.99,58.31L77.01,58.26L77.43,55.8L77.62,58.73L77.64,59.21L78.7,85.23L78.72,85.26L79,88.2L79.27,85.89L79.29,85.69L81.01,55.77L81.21,59.25L81.22,59.84L82.78,88.2L82.89,86.55L82.9,86.35L83.61,71.13L83.62,70.69L84.19,55.72L84.75,57.11L84.76,57.5L85.38,75.7L85.39,76.4L86.4,88.2L86.46,88.08L86.47,88.01L87.12,74.19L87.13,73.79L88.32,55.8L88.45,57.94L88.47,58.32L90.04,87.99L90.06,88.17L90.34,83.47L90.36,83.15L91.77,55.78L91.87,55.83L91.89,55.8L91.96,55.71L93.78,88.2L93.91,85.61L93.93,84.93L95.41,55.97L95.43,55.81L95.95,62.01L95.97,62.48L97.08,85.96L97.09,86.12L97.42,88.2L97.8,82.16L97.81,81.75L99.34,55.69L99.58,57.57L99.6,58.03L100.75,88.2L100.81,88.12L100.83,88.11L101.7,78.53L101.71,78.11L103.23,55.8L103.32,57.44L103.33,57.7L104.07,77.79L104.08,78.3L104.98,88.2L105.1,87.63L105.12,87.28L106.8,55.8L106.98,57.14L106.99,57.13L107.34,64.07L107.35,64.58L108.73,88.2L108.91,87.19L108.93,87.06L110.77,55.71L110.92,57.74L110.94,57.76L111.09,62.04L111.1,62.82L112.57,88.2L112.59,88L114.22,57.39L114.24,57.41L114.25,57.48L114.55,55.79L114.73,58.69L114.75,59.12L116.14,86.47L116.16,86.77L116.38,88.2L116.52,86.45L116.53,86L117.57,63.96L117.58,63.31L118.27,55.79L118.54,58.59L118.56,59.09L119.77,86.69L119.8,86.39L119.82,86.31L120.19,88.2L120.28,86.91L120.3,86.83L120.66,79.34L120.67,78.89L122.1,55.8L122.34,57.95L122.35,58.2L122.55,63.93L122.56,64.14L123.21,81.3L123.22,81.58L123.6,88.2L124.14,86.68L124.15,86.34L126.03,55.8L126.19,57.84L126.21,57.94L127.09,81.89L127.11,82.57L127.86,88.2L127.95,87.87L127.96,87.91L128.28,81.6L128.29,81.36L128.98,64.53L129,64.13L129.82,55.8L129.97,57.27L129.99,57.8L131.82,88.2L131.88,87.54L131.89,87.05L133.57,55.8L133.6,55.95L133.62,56.18L135.49,88.03L135.58,87.95L135.6,88.12L135.93,80.22L135.94,79.7L137.31,56.15L137.32,56.08L137.38,55.8L137.65,58.22L137.67,58.88L138.73,86.17L138.75,86.57L139.12,86.13L139.26,88.2L139.48,86.29L139.5,85.72L140.71,58.85L140.73,58.69L141.13,55.77L141.45,58.91L141.46,59L142.57,88.2L143.23,87.18L143.25,86.93L144.97,55.8L145.18,57.23L145.2,57.44L146.97,88.2L146.98,88.18L147,87.98L148.75,55.8L148.93,56.38L148.95,56.33L149.7,77.83L149.71,78.39L150.19,88.2L150.75,86.36L150.76,86.28L151.32,73.31L151.33,72.97L151.84,63.25L151.85,62.72L152.62,55.8L152.74,58.42L152.75,59.52L153.71,88.2L153.95,86.67L153.97,86.31L155.26,55.8L155.36,58.64L155.38,58.72L155.98,62.34L155.99,63.5L157.18,88.2L157.19,87.89L158.14,66.95L158.24,70.3L158.26,70.59L158.3,71.26L158.71,62.95L158.81,62.99L158.83,61.52L158.98,66.81L159.5,55.8L159.56,62.18L159.58,63.7L159.62,62.45L159.88,71.62L159.89,72.74L160.43,88.2L160.73,82.97L160.75,81.65L161.24,68.71L161.63,68.89L161.65,68.94L161.72,70.44L162.17,62.57L162.19,61.73L162.49,64.12L162.77,55.8L162.92,61.45L162.94,61.95L163.82,88.2L164.09,83.44L164.11,81.57L164.63,66.35L164.89,74.89L164.9,74.91L165.46,65.8L165.47,64.9L165.85,65.21L166.13,55.8L166.31,62.25L166.33,62.29L166.61,71.56L166.63,74.69L167.21,88.2L167.42,83.77L167.44,83.52L167.95,66.47L168.28,74.94L168.29,74.7L168.82,68.51L168.83,67.58L169.52,55.8L169.67,62.56L169.69,63.68L169.75,62.3L169.97,67.9L169.99,70.53L170.57,88.2L170.77,82.97L170.78,82.92L171.25,69.59L171.26,68.65L171.31,65.12L171.83,74.39L171.92,72.69L171.94,72.79L172.88,55.8L173.03,59.88L173.05,60.29L173.87,88.22L174.05,80.76L174.07,80.45L174.13,81.1L174.2,76.63L174.22,76.19L174.26,76.77L174.47,70.39L174.49,69.84L174.65,66.34L175.13,73.08L175.18,72.8L175.19,73.24L175.22,74.12L175.69,66.89L175.7,66.56L175.79,66.95L176.32,61.16L176.45,65.23L176.47,66.78L176.98,88.2L177.29,83.35L177.31,82.21L177.98,65.36L178.16,71.27L178.18,71.91L178.48,74.23L179.26,60.65L179.38,62.85L179.39,63.67L179.45,60.86L179.59,69.75L179.6,71.69L180.1,88.2L180.43,83.18L180.44,82.56L181.09,64.27L181.4,70.55L181.42,71.1L181.58,73.42L181.93,64.74L182.05,67.43L182.06,66.87L182.36,61.21L182.65,72.63L182.66,73.29L182.83,72.57L183.07,84.52L183.08,86.26L183.13,88.2L183.28,77.74L183.64,78.51L183.65,77.33L184.16,63.6L184.51,68.79L184.52,68.66L184.58,68.18L184.63,70.72L184.64,72.38L184.67,74.25L185,64.3L185.29,66.11L185.3,65.62L185.47,62.92L185.72,73.95L185.74,75.53L185.9,70.45L186.19,88.2L186.61,83.36L186.62,82.96L187.19,65L187.64,66.66L187.66,68.48L187.7,71.75L188.03,64.11L188.38,64.17L188.39,64.38L188.47,61.36L188.63,65.11L188.68,63.81L188.69,66.39L189.19,88.2L189.5,81.52L189.52,80.72L189.59,85.6L189.8,74.18L189.82,72.84L190.22,65.35L190.3,75.82L190.64,65.94L190.66,66.52L190.72,73.46L191.06,63.15L191.39,65.85L191.41,64.54L191.44,61.04L191.8,78.2L192.08,76.07L192.1,77.73L192.22,88.2L192.8,72.27L192.82,71.9L192.94,75.22L193.18,67.71L193.19,65.69L193.21,64.73L193.28,77.77L193.78,72.21L193.79,74.04L193.81,74.58L194.03,60.62L194.05,59.37L194.45,55.8L195.19,88.2L195.34,76.67L195.35,76.24L195.37,76.08L195.41,79.89L195.43,81.86L195.62,83.7L195.79,70.49L196.09,70.9L196.1,70.05L196.19,62L196.25,77.23L196.64,71.15L196.66,73.19L196.69,75.26L197.03,61.55L197.32,62.09L197.33,60.73L197.45,55.8L197.71,77.23L197.72,79.14L197.89,65.39L198.14,88.2L198.38,84.59L198.4,85.75L198.68,72.72L198.7,70.79L199.12,60.7L199.3,75.2L199.51,64.62L199.52,64.23L199.7,76.16L199.96,62.46L200.12,66.36L200.14,64.71L200.39,55.8L200.65,80.32L200.84,67.66L200.86,71.18L201.05,88.2L201.61,72.83L201.62,71.44L201.71,77.32L202.06,55.8L202.1,73.03L202.12,77.2L202.45,60.59L202.94,65.96L202.96,66.9L203,67.58L203.11,61.14L203.12,60.82L203.26,55.8L203.95,88.27L204.4,85.1L204.41,83.5L205.34,62.98L205.36,64.44L205.54,73.54L205.79,63.65L206.09,65.13L206.11,63.44L206.24,60.41L206.74,80.65L206.75,81.46L206.81,88.2L207.04,73.3L207.34,76.83L207.35,74.75L207.55,77.05L207.83,62.09L208.18,65.83L208.19,65.44L208.34,73.9L208.57,63.85L208.9,66.57L208.91,66.9L208.99,62.75L209.18,67.21L209.2,69.16L209.47,68.49L209.69,88.2L209.99,84.66L210.01,85.6L210.02,85.75L210.16,77.95L210.17,76.69L210.65,63L211.04,64.87L211.06,65.24L211.27,72.31L211.79,63.76L211.81,64.01L211.87,63.9L212.51,88.2L212.92,82.04L212.93,81.63L213.5,62.08L213.94,66.7L213.95,67.8L214.12,70.91L214.61,63.57L214.63,62.08L214.64,61.24L214.94,76.71L215.21,76.3L215.23,78.95L215.66,88.2L215.95,74.57L215.96,74.76L215.98,75.53L216.05,79.62L216.29,64.88L216.62,64.93L216.64,64.71L216.68,62.28L216.92,69.36L217.34,67.54L217.36,67.46L217.51,62.35L218,78.65L218.02,80.41L218.45,88.2L218.72,75.15L218.74,75.27L218.81,81.1L219.08,64.9L219.35,66.42L219.37,65.11L219.58,69.17L219.82,60.69L220.12,64.65L220.13,65.12L220.21,61.22L220.37,68.74L220.39,70.5L220.61,67.01L221.2,88.2L221.23,86.99L221.24,86.13L222.55,57.23L222.56,57.49L222.58,57.91L222.65,55.8L222.82,60.18L222.97,60.12L222.98,62.04L223.87,88.2L223.93,85.9L223.94,85.68L223.99,86.7L224.29,78.44L224.38,79.6L224.39,78.32L224.44,79.23L224.92,61.92L224.93,61.12L225.25,55.79L225.59,63.62L225.61,65.45L225.67,60.76L226.72,88.2L226.75,86.85L226.76,85.47L227.92,55.8L227.93,56.33L229.33,88.2L229.39,84.34L229.4,83.43L229.54,83.76L230.75,55.8L230.78,58.83L230.8,62.03L230.87,58.96L231.59,86.42L231.65,84.48L231.67,85.23L231.92,88.2L232.31,77.72L232.33,77.32L233.09,55.8L233.5,60.74L233.51,63.32L233.59,61.84L234.5,87.58L234.52,88.07L235.9,55.8L236.11,59.94L236.12,62.96L236.2,60.26L236.9,85.77L237.05,84.49L237.07,84.79L237.14,88.2L237.7,76.38L237.71,75.65L238.45,55.8L238.72,63.43L238.73,64.58L238.79,59.55L238.93,67.11L238.94,67.72L238.96,67.51L239.15,73L239.17,73.61L239.23,72.94L239.72,88.2L240.08,81.98L240.1,81.05L241.03,55.8L241.42,62.22L241.43,62.44L241.46,61.39L241.82,74.17L241.84,74.8L242.44,88.2L242.69,82.01L242.71,81.96L242.78,82.45L242.86,77.75L242.87,77.24L243.65,55.8L244.04,61.29L244.06,62.12L244.99,88.2L245,87.85L246.05,59.34L246.11,59.8L246.13,58.99L246.23,55.8L246.77,68.1L246.79,68.04L246.8,68.05L247.52,88.2L247.9,84.51L247.91,83.05L248.78,55.8L248.99,59.05L249.01,59.34L249.08,57.49L249.29,66.14L249.31,66.77L250.06,88.2L250.46,83.26L250.48,82.87L251.32,55.8L251.75,62.03L251.77,63.42L252.62,88.2L252.73,86.01L252.74,85.45L252.91,86.7L253.87,55.8L254.32,61.76L254.33,62.86L255.14,88.2L255.49,86.25L255.5,85.75L255.55,85.89L255.7,78.69L255.71,77.96L255.89,74.44L255.91,72.75L256.72,55.8L256.78,57.65L256.79,58.26L257.66,88.2L258.13,82.45L258.14,81.45L259.24,55.8L259.4,62.06L259.42,62.76L260.51,88.2L260.57,87.58L260.59,87.04L261.7,55.8L261.83,57.71L261.85,57.61L262.16,66.76L262.18,67.82L263.02,88.2L263.12,86.73L263.14,84.97L263.92,58.05L264.01,58.45L264.02,58.39L264.26,55.8L264.43,60.85L264.44,61.69L265.55,88.2L265.67,83.75L265.69,82.8L266.48,56.68L266.66,57.79L266.68,57.33L266.77,55.8L267.16,66.31L267.17,67.26L268.03,88.2L268.19,81.8L268.21,81.27L269.17,55.8L269.39,61.03L269.41,61.63L270.47,88.2L270.7,83.2L270.71,81.99L271.72,55.8L271.85,59.02L271.87,59.81L273.13,88.2L273.23,84.03L273.25,82.47L274.01,55.8L274.15,57.8L274.16,58.1L274.33,57.01L275.24,88.2L275.36,88.13L275.38,87.53L276.41,60.79L276.43,60.24L276.56,55.8L276.76,62.49L276.77,64.45L276.85,56.27L277.45,75.89L277.46,77.29L277.93,88.2L278.32,83.65L278.33,83.81L278.35,83.96L278.41,78.84L278.42,78.16L278.68,71.94L278.69,71.25L279.16,55.8L279.64,61.38L279.65,64.39L280.55,88.2L280.58,86.61L280.6,85.38L280.66,86.18L281.87,55.8L281.89,56.78L282.74,81.06L282.76,81.06L282.8,78.42L283.28,88.2L283.46,83.27L283.48,83.76L283.51,84.41L283.96,68.41L283.97,68L284.51,55.8L284.62,62.38L284.63,64.67L284.71,59.35L285.52,83.83L285.53,83.71L285.55,81.97L285.59,78.85L285.94,88.2L286.31,79.12L286.33,77.63L287.17,55.8L287.2,59.01L287.21,60.2L287.27,57.9L287.33,65.65L287.35,67.87L287.41,57.85L287.75,72.68L287.86,72.11L287.87,73.3L287.95,72.63L288.62,88.2L288.77,83.59L288.79,82.16L289.72,55.8L289.75,60.8L289.76,63.22L289.87,56.05L290.6,76.69L290.66,71.67L290.68,71.34L291.35,88.2L291.47,82.66L291.49,81.26L292.31,57.59L292.34,62.36L292.36,63.52L292.76,55.8L292.84,73.09L293.08,64.11L293.09,65.49L293.83,88.2L293.93,84.65L293.95,83.73L294.14,87.51L294.83,58.51L294.98,62.85L295,65.04L295.27,55.8L295.33,69.83L295.61,68.02L295.63,73.36L295.72,65.07L296.39,82.98L296.41,82.26L296.63,83.82L297.23,71.71L297.25,71L297.5,72.66L297.55,55.8L297.92,67.32L297.94,67.5L298.12,55.8L298.55,78.36L298.66,71.86L298.67,76.69L298.75,62.89L299.41,88.2L299.45,80.42L299.47,77.69L299.56,84.47L300.05,66.2L300.26,70.23L300.28,72.34L300.61,55.8L300.68,84.14L300.97,74.39L300.98,65.52L301.06,79.57L301.45,55.8L301.73,63.97L301.75,62.79L302.69,77.02L302.71,75.98L302.8,79.29L303.43,74.11L303.46,75.47L303.47,76.66L303.81,77.59L303.86,67.87L303.87,65.86L303.93,76.86L304.41,55.8L304.5,61.52L304.52,59.91L304.85,59.68L305.31,73.09L305.33,73.17L305.39,67.58L305.88,85.11L305.97,80.18L305.99,83.25L306.6,88.2L306.66,67.16L306.72,79.18L306.74,75.5L306.89,78.03L307.34,58.25L307.53,66.61L307.55,69.02L307.92,55.8L308.21,74.81L308.28,67.36L308.3,72.68L308.36,69.41L308.85,84.57L309.09,83.36L309.11,82.47L309.42,88.2L309.48,70.9L309.99,75.85L310.01,79.84L310.13,84.97L310.17,59.9L310.59,63.99L310.61,61.64L311.06,74.83L311.12,55.8L311.39,70.8L311.4,63.22L311.42,58.77L312.02,76.27L312.09,69.36L312.11,74.5L312.18,67.51L312.87,84.78L312.89,85.15L312.99,88.2L313.62,67.52L313.65,79.67L313.67,85.07L314.16,55.8L314.48,61.61L314.49,62.16L314.7,55.8L314.75,73.89L315.23,65.63L315.24,63.8L316.02,84.42L316.04,78.82L316.05,70.69L316.13,88.2L316.17,66.36L316.77,72.39L316.79,74.97L317.07,81.79L317.42,64.91L317.49,67.06L317.51,60.85L317.55,79.12L317.96,58.63L318.2,61.47L318.21,55.8L318.26,75.27L318.87,66.13L318.89,64.32L319.11,57.63L319.16,88.2L319.65,74.82L319.67,68.51L320.19,81.58L320.34,65.98L320.37,80.92L320.39,84.68L320.49,88.2L320.54,60.23L321.15,65.14L321.17,67.64L321.21,81.38L321.75,63.31L321.92,75.58L321.93,68.44L322.56,78.42L322.61,55.8L322.64,74L322.65,81.69L323.28,84.19L323.34,56.65L323.36,66.86L323.37,82.12L323.39,88.2L323.43,55.8L324.06,66.81L324.08,65.86L324.57,56.96L324.62,88.2L324.86,81.17L324.87,76.9L324.92,60.77L324.96,85.59L325.62,73.72L325.64,75.76L326.13,58.61L326.28,88.2L326.39,84.52L326.4,78.08L326.48,79.4L327.17,60.09L327.18,63.02L327.78,78.96L327.83,60.47L327.92,70.12L327.93,61.53L328.17,55.8L328.43,88.2L328.61,68.6L328.62,70.19L329.31,60.55L329.36,88.2L329.37,78.46L329.39,64.72L329.4,57.58L329.46,87.45L330.14,64.27L330.15,69.94L330.39,88.2L330.45,61.52L330.87,62.56L330.89,66.09L331.31,58.68L331.35,83.27L331.64,73.14L331.65,72.39L331.94,83.1L332,55.8L332.37,68.84L332.39,79.7L332.4,83.87L332.45,55.8L333.12,75.07L333.14,74.6L333.54,57.83L333.6,88.2L333.87,76.54L333.89,74.74L334.46,82.91L334.5,64.91L334.62,70.91L334.64,77.72L334.8,64.94L335.33,83.17L335.36,75.47L335.37,67.39L335.97,86.86L336.02,55.8L336.05,67.54L336.06,79.6L336.08,84.3L336.12,58.89L336.75,67.86L336.77,60.65L336.8,68.98L336.81,77.99L337.07,55.8L337.11,84.05L337.44,68.59L337.46,63.33L337.7,78.91L338.19,74.75L338.21,70.73L338.54,64.65L338.87,84.98L338.94,73.55L338.96,81.16L339.12,62.93L339.18,88.2L339.69,75.14L339.71,71.73L339.9,77.85L340.43,67.47L340.46,70.64L340.47,72.27L340.83,60.72L340.89,75.4L341.04,66L341.06,61.19L341.16,55.8L341.21,79.91L341.55,70.2L341.57,75.72L341.91,80.52L341.97,60.82L342.21,72.29L342.23,68.35L342.71,64.86L342.75,86.37L342.77,86.11L342.81,65.07L342.87,88.2L343.53,75.2L343.55,77.46L343.76,67.32L343.82,81.35L344.19,68.27L344.21,63.58L344.27,83.33L344.33,60.7L344.52,67.77L344.54,66.32L344.94,81.37L344.99,55.8L345.27,62.26L345.29,58.69L345.9,77.92L346.05,66.83L346.07,68.41L346.73,61.65L346.79,88.2L346.82,74.66L346.83,66.69L346.85,66.08L347.07,81.6L347.09,83.44L347.57,63.53L347.63,88.2L347.88,66.95L347.9,68.77L348.15,60.3L348.2,85.98L348.65,73.33L348.66,71.37L349.26,77.83L349.32,55.8L349.35,66.81L349.37,77.03L349.38,81.32L349.43,56.76L350.1,69.65L350.12,72.11L350.28,61.23L350.33,78.67L350.66,74.61L350.67,79.11L350.73,66.97L351.14,82.61L351.39,78.7L351.41,76.79L351.63,69.09L351.69,88.2L352.19,73.41L352.2,78.88L352.22,81.81L352.71,62.92L352.82,64.99L352.83,60.47L352.91,76.51L353.09,59.91L353.42,61.5L353.43,60.86L353.88,55.8L353.94,78.65L354.24,71.2L354.26,67.27L354.29,63.07L354.95,80.54L354.99,73.98L355.01,75.53L355.1,72.49L355.16,88.2L355.76,81.77L355.77,79.43L355.88,82.67L356.36,67.51L356.57,72.13L356.58,73.41L356.7,67.37L356.73,74.3L356.75,77.91L357.44,55.8L357.48,72.98L357.5,75.67L357.71,77.13L357.77,55.8L358.26,69.67L358.28,67.11L358.29,65.15L358.8,81.65L358.97,77.46L358.98,79.89L359.33,76.02L359.7,86.94L359.73,81.67L359.75,77.5L359.82,88.2L360.48,62.56L360.51,71.23L360.53,77.94L360.54,80.08L360.95,61.37L361.2,64.31L361.22,63.26L361.85,54.92L361.91,72.54L361.94,65.54L361.95,58.06L361.97,55.8L362.46,74.2L362.55,72.35L362.57,73.49L362.61,72.94L363.6,88.2L363.75,84.61L363.77,83.88L364.73,54.97L364.76,60.62L364.77,65.74L364.79,69.17L365.3,55.8L365.52,68.36L365.54,67.21L365.58,60.91L365.84,78.63L366.24,76.33L366.26,78.42L366.35,74.26L366.75,88.2L367.02,81.19L367.04,81.68L367.19,86.48L367.68,70.44L367.7,70.05L367.74,72.53L368.28,55.8L368.3,55.87L369.11,67.22L369.12,66.73L369.14,65.33L369.18,61.94L369.8,81.98L369.81,81.49L369.87,77.49L370.31,88.2L370.5,84.16L370.52,83.28L370.71,87.39L371.45,59.59L371.55,61.37L371.57,61.8L371.84,55.8L372.29,64.95L372.3,63.63L372.32,61.12L372.35,57.15L372.84,73.55L373.02,73.05L373.04,72.54L373.08,69.83L373.62,86.19L373.68,84.34L373.7,84.73L373.83,88.21L374.34,79.21L374.36,78.86L374.4,80.64L374.87,65.26L374.88,63.89L375.35,55.8L375.66,59.67L375.68,60.11L376.76,81.8L376.77,81.49L376.79,80.58L376.8,79.89L377.36,88.2L377.49,83.88L377.51,83.39L377.66,84.07L378.48,57.58L378.72,60.28L378.74,60.5L378.81,55.8L379.1,63.99L379.43,62.64L379.44,63.38L379.5,62.32L379.95,75.42L379.97,78.72L380.04,69.33L380.79,87.97L380.81,88.01L380.9,88.2L382.04,55.8L382.26,58.06L382.28,58.32L382.34,57.15L382.41,60.25L382.59,60.22L382.61,61.95L383.25,60.92L383.4,67.68L383.42,68.53L384.41,88.2L384.42,88.1L384.44,87.39L384.51,87.56L385.55,58L385.58,58.83L385.59,59.03L385.95,55.8L386.12,60.92L386.18,59.85L386.19,60.88L386.81,59.14L386.96,72.68L386.97,69.22L386.99,62.3L387.02,55.8L387.63,84.48L387.71,77.02L387.72,78.76L387.99,88.2L388.35,78.48L388.47,79.97L388.49,79.55L388.86,69.56L388.88,67.46L388.95,67.98L389.55,55.8L389.64,62.62L389.66,62.17L389.78,60.48L390.59,69.59L390.62,67.92L390.63,66.47L390.77,63.34L390.92,78.03L391.13,72.98L391.14,75.97L391.2,75.3L391.83,88.2L391.97,82.88L391.98,81.51L392.16,85.28L392.94,55.8L393.24,56.76L393.26,56.46L393.98,70.38L394.11,64.12L394.13,64.48L394.5,55.8L394.68,80.73L394.92,71.07L394.94,69.38L395.6,88.2L395.73,81.95L395.75,79.88L395.81,83.29L396.74,55.8L396.87,60.82L396.89,61.73L397.07,57.66L397.43,64.67L397.44,65.72L398.09,74.8L398.13,63.5L398.15,63.89L398.63,80.14L398.93,77.47L398.94,77.56L399.42,88.2L399.65,84.13L399.66,82.34L399.87,83.13L400.67,57.25L400.68,57.74L400.7,59.6L400.97,55.8L401.4,67.94L401.46,63.23L401.48,65.39L402.09,76.57L402.23,69.66L402.24,66.93L402.44,64.09L402.68,79.33L402.69,80.68L402.87,64.74L403.41,88.2L403.53,85.62L403.55,84.76L403.61,88.3L405,55.8L405.12,64.33L405.14,65.26L405.36,62.24L405.47,68.24L405.48,69.76L405.59,66.65L406.07,77.71L406.23,70.57L406.25,68.6L406.64,61.82L406.82,80.47L407,64.68L407.01,68.04L407.73,88.48L407.82,83.5L407.84,82.9L408.05,88.72L408.83,57.53L408.87,59.78L408.89,60.36L409.16,55.8L409.22,64.26L409.23,65.82L409.52,64.18L409.58,71.15L409.59,73.58L409.79,77.39L410.28,68.83L410.3,68.55L410.76,55.8L410.97,72.15L411.09,64.37L411.11,63.85L411.14,62.65L411.54,80.36L411.72,75.97L411.74,76.97L411.89,88.23L412.49,77.64L412.5,77.11L412.85,69.35L412.86,67.59L413.15,68.03L413.34,55.8L413.64,64.87L413.66,66.57L413.76,65.3L414.08,81.91L414.45,81.2L414.47,82.39L414.48,82.61L414.71,71.61L414.72,70.22L414.83,74.37L415.44,55.8L415.58,63.51L415.59,65.84L415.73,62.75L416.58,88.2L416.64,83.7L416.66,82.31L416.94,85.33L417.39,72L417.48,75.94L417.5,74.56L418.04,55.8L418.28,69.31L418.29,70.91L418.47,63.84L418.71,79L418.73,81.24L419.13,88.2L419.37,70.74L419.39,70.19L419.54,72.3L419.64,65.45L419.66,63.15L420.2,55.8L420.35,68.09L420.39,64.36L420.41,65.13L420.62,61.75L421.23,86.86L421.25,86.47L421.26,84.95L421.38,74.26L421.52,88.2L422.03,80.18L422.04,79.54L422.1,79.57L422.6,63.71L422.79,70.77L422.81,74.83L422.85,85.72L423.02,55.8L423.54,70.21L423.56,70.79L424.04,79.35L424.23,63.36L424.25,61.86L424.34,68.86L424.61,55.62L424.95,64.74L424.97,67.69L425.04,60.02L425.55,76.71L425.79,72.06L425.81,70.31L426.11,85.17L426.27,68.53L426.33,80.6L426.35,83.67L426.42,88.24L426.54,73.87L427.05,77.2L427.07,77.25L427.13,79.85L427.38,73.31L427.4,71.1L427.88,55.8L428.04,78.55L428.18,61.35L428.19,60.46L428.49,75.99L428.97,71.29L428.99,69.5L429.09,55.8L429.69,73.26L429.77,62.17L429.78,67.88L429.86,55.8L430.52,76.65L430.55,72.97L430.56,70.27L430.68,65.61L430.74,77.72L431.03,75.65L431.04,79.1L431.24,62.92L431.4,88.2L431.79,83.7L431.81,81.8L432.48,61.89L432.57,75.06L432.59,76.54L432.62,77.43L432.84,55.8L433.11,58.24L433.13,55.98L433.14,55.8L433.25,66.76L433.26,70.33L433.68,67.15L433.91,78.71L433.98,69.86L434,68.29L434.21,80.41L434.79,58.11L434.81,57.53L434.93,55.8L435.45,80.09L435.63,69.31L435.65,68.6L436.29,65.86L436.44,88.2L436.5,80.69L436.52,77.5L436.59,66.86L436.76,84.57L437.28,71.22L437.3,70.86L437.63,77.54L437.81,63.55L437.97,73.49L437.99,75.6L438.08,79.76L438.17,55.8L438.57,67.34L438.59,64.15L438.62,60.48L439.25,75.94L439.34,62.36L439.35,61.32L439.41,55.8L439.59,73.55L439.68,67.55L439.7,71.03L439.76,62.34L440.15,74.73L440.37,71.14L440.39,73.09L440.51,77.04L440.99,66.61L441,66.13L441.35,62.18L441.5,88.2L441.89,81.83L441.9,79.32L442.2,81.37L442.59,70.3L442.68,75.45L442.7,75.8L442.76,76.74L442.88,69.85L442.89,69.16L443.1,78.02L443.7,55.8L443.81,59.76L443.82,61.78L444.47,55.8L444.62,77.83L444.63,75.86L444.65,70.88L445.11,55.8L445.28,78.21L445.38,72.21L445.4,74.08L445.46,65.32L445.52,78.7L446.15,70.11L446.16,71.39L446.49,65.56L446.99,88.2L447.03,84.12L447.05,82.8L447.77,69.7L447.87,75.65L447.89,76.14L447.92,77.1L448.38,57.65L448.4,56.96L448.61,69.17L448.7,53.98L449.04,61.7L449.06,62.65L449.13,57.79L449.43,74.52L449.58,60.39L449.6,55.8L449.76,87.47L450.29,58.37L450.3,56.4L450.32,55.8L450.38,74.72L450.39,77.02L450.56,61.35L450.96,77.56L451.14,68.01L451.16,67.58L451.65,66.2L451.8,88.2L451.94,71.02L451.95,68.58L451.98,67.23L452.15,88.2L452.49,81.72L452.51,82.52L453.57,55.8L453.66,66.96L453.68,68.26L453.72,70.56L453.89,57.46L454.4,66.26L454.41,64.49L454.67,78.92L454.76,60.12L454.89,72.72L454.91,77.01L454.95,88.2L455.44,57.38L455.62,72.09L455.64,62.7L455.65,55.8L455.82,78.1L456.37,72.95L456.39,73.43L456.6,71.85L456.76,83.75L456.88,74.37L456.9,72.33L456.93,70.36L457.09,88.2L457.63,72.47L457.65,73.23L457.8,80.21L458.35,68.89L458.37,68.71L458.82,55.8L459.28,59.99L459.3,61.64L459.36,60.11L460.14,77.71L460.17,70.55L460.18,65.97L460.51,62.7L460.57,88.2L460.92,74.61L460.93,70.07L461.16,66.23L461.32,88.2L461.65,77.76L461.67,76.3L462.15,81.65L462.19,68.02L462.34,77.72L462.36,82.59L462.63,72.41L462.79,88.2L463.12,84.15L463.14,83.82L463.18,88.53L463.68,63.8L463.84,77.72L463.86,75.22L464.5,55.67L464.64,60.29L464.65,62.81L464.83,55.31L465.4,70.65L465.43,65.87L465.45,62.77L466.06,60.43L466.14,74.42L466.15,68.03L466.17,59.98L466.29,55.55L466.68,83.45L466.87,76.21L466.89,81.77L466.95,70.5L467.17,85.75L467.35,80.63L467.37,82.44L467.49,88.2L467.98,71.27L468.07,75.99L468.09,73.99L468.63,88.22L468.81,73.26L468.85,79.92L468.87,81.3L468.97,90.97L469.54,62.24L469.66,76.09L469.68,78.27L469.71,80.47L470.29,57.57L470.31,57.2L470.65,55.8L470.82,63.95L470.97,57.67L470.98,56.16L471.52,71.51L471.67,64.15L471.69,61.39L472.02,55.8L472.2,80.99L472.35,63.93L472.36,58.46L473.16,89.33L473.2,83.27L473.22,83.52L473.26,89.91L473.76,72.48L473.95,82.7L473.97,78.16L474.1,73.29L474.63,95.58L474.64,95.9L474.97,99.28L475.15,75.04L475.29,88.24L475.3,90.49L475.51,73.32L475.66,96.22L475.8,84.01L475.81,74.23L475.89,85.71L476.14,53.46L476.59,55.92L476.61,56.62L476.82,55.63L477.21,62.99L477.37,60.91L477.39,61.11L478.03,55.8L478.09,83.8L478.12,65.88L478.14,56.81L478.15,55.8L478.53,88.2L478.62,80.58L478.63,87.77L478.65,88.2L478.66,80.74L478.68,70.83L478.69,64.31L478.86,88.2L479.41,76.35L479.43,78.84L479.55,91.55L480.07,65.39L480.16,77.4L480.18,75.99L480.42,73.04L480.6,88.2L480.75,77.95L480.76,76.35L480.94,88.32L481.2,74.57L481.47,80.75L481.48,79.58L481.71,88.2L482.31,59.44L482.32,59.84L482.34,62.62L482.37,68.51L483.01,55.02L483.07,58.39L483.09,57.67L483.12,54.92L483.7,69.2L483.78,65.81L483.79,69.62L484.2,55.8L484.36,82.15L484.5,71.74L484.51,67.55L484.53,65.01L485.05,88.2L485.13,83.65L485.14,86.24L485.16,86.7L485.2,71.52L485.22,69.09L485.65,66.1L485.82,88.2L485.95,75.22L485.97,71.67L485.98,70.85L486.45,87.02L486.54,84.69L486.55,86.25L487.09,90.14L487.26,72.98L487.3,81.37L487.32,82.49L487.9,88.2L488.05,68.03L488.1,74.85L488.11,77.17L488.71,52.39L489.16,57.53L489.18,58.3L489.45,53.04L489.6,66.29L489.87,55.33L489.88,53.33L490.2,49.58L490.59,75.25L490.63,60.25L490.65,55.8L491.46,93.05L491.49,85.82L491.5,80.72L491.56,90.74L492.06,72.77L492.18,78.49L492.19,82.91L492.37,73.21L492.54,86.14L492.91,81.38L492.93,81.38L493.18,85.12L493.57,76.12L493.59,76.37L493.63,78.08L494.26,72.49L494.31,73.95L494.32,74.45L494.37,75.1L494.61,67.53L494.62,66.87L494.68,66.96L495.6,55.77L495.7,57.12L495.72,58.87L496.21,54.38L496.47,64.74L496.48,62.74L496.5,58.83L497.01,51.02L497.17,81.02L497.19,80.58L497.25,64.57L497.85,101.91L497.89,96.82L497.91,95.9L497.94,96.54L498.3,82.82L498.31,81.55L498.46,90.12L498.48,90.93L498.64,81.88L499.29,85.32L499.3,85.49L499.33,86.34L499.77,79.12L499.78,77.28L500.14,71.77L500.4,88.2L500.41,87.61L501.49,55.48L501.58,56.36L501.6,56.29L501.9,57.3L502.09,53.48L502.29,54.35L502.3,54.03L502.44,51.95L502.8,58.74L502.81,60.95L502.87,57.76L503.73,93.2L503.74,95.88L503.8,95.07L504.12,112.19L504.49,96.18L504.51,93.63L504.88,82.17L505.29,87.57L505.3,87.06L505.63,88.2L506.29,78.41L506.31,78.56L507.54,67.85L507.55,67.23L508.32,55.21L508.75,55.72L508.77,56.1L508.93,54.4L509.74,75.38L509.88,73.62L509.89,71.5L509.91,70.24L510.34,88.63L510.37,87.72L510.39,87.63L510.43,89.39L511.09,84.37L511.11,84.88L511.35,81.79L512.02,99.55L512.04,99.16L512.43,112.57L512.7,102.28L512.71,101.61L513.24,68.93L513.79,74.77L513.81,74.57L514.84,54.3L514.87,54.66L514.89,54.91L514.96,56.06L515.34,53.12L515.68,55.6L515.7,55.2L516.13,65.25L516.15,66.22L516.19,64.88L516.63,78.51L516.64,78.93L516.67,78.42L516.85,89.63L516.91,86.69L516.93,92.08L516.99,90.97L517.21,103.49L517.66,92.39L517.68,91.54L517.87,85.33L518.44,87.52L518.46,87.95L518.83,90.36L519.13,86.22L519.15,85.62L519.18,85.78L519.27,82.58L519.31,82.78L519.33,82.01L519.87,61.55L520.14,73.17L520.15,73.79L520.26,73.87L521.17,53.94L521.68,55.89L521.7,56.08L522.48,64.65L522.49,65.42L523.89,80.05L523.92,79.54L523.93,79.43L524.4,79.02L525.27,88.1L525.28,87.93L525.3,87.61L525.42,88.29L525.76,85.78L525.78,85.55L526.54,62.54L526.56,61.3L526.72,59.82L526.98,72.45L526.99,72.92L527.01,73.26L527.16,63.84L527.37,66.66L527.38,64.48L527.86,52.88L528.22,53.46L528.24,53.85L529.42,69.5L529.45,68.67L529.47,68.79L530.23,75.53L530.32,75.37L530.34,75.23L530.37,74.05L530.94,80.56L531.01,79.97L531.03,79.96L531.07,79.2L531.54,85.22L531.58,85.05L531.6,85.75L532.15,90.01L532.39,88.64L532.41,88.77L532.95,77.05L532.96,75.57L533.31,55.8L533.62,70.5L533.64,70.24L533.97,72.03L534.72,56.48L534.73,56.5L534.75,56.63L534.82,55.48L535.38,57.65L535.42,57.32L535.44,57.65L536.4,71.81L536.44,71.33L536.46,71.31L538.77,88.2L539.04,85.21L539.05,85.14L539.74,73.1L539.76,72.84L540.09,67.02L540.54,71.55L540.55,71.49L540.73,71.84L540.93,70.17L540.96,70.31L540.97,69.88L541.98,55.8L542.16,56.63L542.17,56.75L542.82,67.78L542.83,68.26L544.06,78.46L544.08,78.39L544.09,78.27L544.69,77.42L544.87,79.02L544.89,78.82L544.92,78.34L545.34,85.25L545.35,85.51L546.04,88.59L546.22,87.37L546.24,87.22L546.75,68.85L546.76,67.03L546.87,60.46L547.41,69.35L547.42,69.68L547.63,75.44L547.75,68.54L547.77,67.17L548.47,52.9L548.62,53.73L548.64,53.6L548.73,53.41L549,55.86L549.01,56.1L551.07,78.34L551.28,77.59L551.29,77.34L551.59,76.15L551.95,78.54L551.97,78.93L552.7,88.2L552.91,86.99L552.93,86.71L554.11,67.61L554.29,68.97L554.31,69.28L554.37,69.16L554.86,71.94L555.09,70.48L555.1,70.24L555.54,63.11L555.55,62.91L556.17,55.8L556.56,58.6L556.57,58.78L556.99,65.08L557.01,65.81L557.92,74.51L557.94,74.57L558.79,77.65L558.82,77.12L558.84,76.64L560.13,88.2L560.41,85.88L560.43,85.63L560.46,85.88L560.7,81.73L560.71,81.42L561.78,68.46L562.2,70.56L562.21,70.56L562.27,70.84L562.62,69.11L562.63,68.94L564.33,53.42L564.46,54.01L564.48,54.15L566.29,93.82L566.35,92.64L566.37,92.78L566.47,91.92L566.65,95.13L566.73,94.38L566.74,94.83L567.52,87.96L567.61,88.33L567.63,88.67L567.7,89.07L568.9,78.04L568.92,77.68L569.73,66.61L570.33,67.09L570.34,67.42L570.37,67.64L570.81,65.41L570.82,65.47L570.84,65.47L571.96,55.8L572.22,56.12L572.23,56.39L573.45,74.49L573.46,74.81L573.51,74.17L573.79,80.24L573.85,79.85L573.87,80.39L574.27,82.49L574.42,80.21L574.63,82.33L574.65,81.68L574.71,81.93L575.13,78.65L575.41,80.79L575.43,81.37L575.49,81.11L576.48,88.54L576.54,87.3L576.55,87.21L576.64,88.28L576.85,84.65L576.87,83.31L576.93,83.9L577.62,69.6L577.81,72.81L577.83,73.06L578.14,75.32L578.7,64.63L578.71,64.82L578.73,65.44L579.04,51.97L579.06,52.2L579.16,51.87L579.84,55.78L579.85,55.71L579.87,55.8L582.01,77.13L582.06,76.39L582.07,76.2L582.12,76.95L582.52,73.64L582.76,75.13L582.78,75.26L583.29,80.03L583.56,78.09L583.57,77.22L583.75,78.58L584.28,75.01L584.34,76.3L584.35,76.69L584.4,75.86L584.92,81.54L584.94,81.64L584.98,80.2L585.58,87.47L585.6,87.82L585.63,88.2L585.9,83.51L585.99,83.51L586,82.54L587.44,55.7L587.65,55.97L587.67,55.77L587.86,53.99L588.28,57.76L588.3,57.69L588.31,58.12L589.06,73.62L589.08,74.12L589.48,77.59L589.98,76.78L589.99,76.25L590.08,76.39L590.47,74.12L590.71,75.41L590.73,75.71L591.04,76.41L591.19,73.79L591.21,73.87L591.22,73.59L591.61,71.53L592.05,75.46L592.06,75.41L593.05,83.09L593.08,82.98L593.1,82.36L594.13,71.92L594.28,72.34L594.3,72.61L594.31,72.22L594.79,74.68L595.03,72.95L595.05,72.67L595.21,73.17L595.9,67.95L595.92,67.7L596.05,67.95L596.68,65.63L596.71,65.94L596.73,66.44L596.95,65.27L597.46,66.61L597.48,66.58L597.52,66.55L598.32,72.42L598.51,72.22L598.53,72.11L599.28,74.63L599.32,73.79L599.34,74.01L599.49,74.12L600.13,72.75L600.22,72.98L600.24,73.17L600.55,73.48L600.96,72.53L600.99,72.87L601,73.01L601.24,72.59L601.62,73.98L601.68,73.48L601.69,73.7L601.89,74.09L602.34,72.42L602.35,72.7L602.37,72.5L603.96,70.1L603.99,70.44L604,70.69L604.38,70.46L604.48,71.05L604.72,70.83L604.74,71.02L604.83,70.63L605.31,71.41L605.44,71.25L605.46,71.25L605.47,70.85L606.1,72L606.19,71.69L606.21,71.86L606.27,70.85L606.78,72.78L606.94,72.25L606.96,72.17L606.99,72.7L607,72.59" style="vector-effect: non-scaling-stroke; fill: none; stroke: rgb(235, 64, 52); stroke-opacity: 0.3; stroke-width: 1px; opacity: 1;"/></g><g class="points"/><g class="text"/></g><g class="trace scatter trace6a3b61" style="stroke-miterlimit: 2; opacity: 1;"><g class="fills"/><g class="errorbars"/><g class="lines"><path class="js-line" d="M0,70.38L5.41,69.63L5.43,69.58L6.79,66.88L6.81,66.87L8.05,66.06L8.19,66.8L8.2,66.87L9.46,70.38L9.66,69.79L9.67,69.73L9.94,68.72L10.35,69.94L10.36,69.98L11.28,70.38L11.29,70.38L12.52,69.72L12.54,69.55L13.72,56.33L14.04,56.73L14.05,56.75L14.32,55.48L14.34,55.37L16.6,43.7L16.62,43.66L17.61,40.86L17.74,42.59L17.76,42.79L18.88,49.84L18.9,49.91L20.41,53.48L20.43,53.5L20.7,53.9L20.92,52.98L20.94,52.91L21.6,49.54L22.09,50.72L22.11,50.76L22.21,51.01L22.84,50.61L22.86,50.6L24.72,48.44L24.73,48.42L25.44,46.15L25.45,46.07L28.02,31.92L28.41,32.79L28.42,32.82L29.49,31.15L29.5,31.08L30.33,25.26L30.55,27.36L30.57,27.5L32.28,41.07L32.49,38.59L32.5,38.41L34.9,10.08L35.55,11.01L35.56,11.04L35.71,11.25L36.16,10.6L36.18,10.58L38.5,7.21L38.73,8.18L38.74,8.24L39.31,10.69L39.88,9.93L39.9,9.91L41.91,7.21L42.07,8.17L42.09,8.26L43.48,12.1L43.5,12.12L45.7,16.93L45.72,17.11L46.36,25.25L46.78,23.02L46.8,22.95L49.24,9.99L49.56,12.12L49.57,12.22L50.25,15.55L50.79,15.47L50.8,15.46L52.83,15.17L52.87,15.86L52.89,16.09L53.7,28.49L54.07,26.3L54.09,26.21L56.43,12.5L56.71,14.81L56.73,14.94L58.32,27.86L58.62,24.27L58.63,24.09L60.04,7.2L60.36,10.96L60.37,11.14L61.95,29.93L62.64,29.44L62.65,29.43L63.78,28.64L63.87,29.35L63.88,29.47L65.74,44.31L66.18,41.87L66.19,41.79L67.35,35.32L67.74,37.3L67.75,37.38L71.56,52.8L71.58,52.84L72.46,52.3L72.48,52.28L74.25,49.99L74.26,49.92L76.59,42.05L76.6,42.03L77.43,41.09L77.83,41.74L77.85,41.76L79,43.6L79.33,42.75L79.35,42.71L80.92,38.63L81.36,39.45L81.37,39.48L82.78,42.14L83.16,41.33L83.17,41.3L85.08,38.94L85.09,38.95L86.73,38.88L86.74,38.85L86.76,38.83L88.3,36L88.71,36.59L88.72,36.61L90.07,38.57L90.39,37.74L90.4,37.7L91.89,33.81L92.26,34.85L92.28,34.89L93.78,39.08L94.15,38L94.17,37.96L95.47,34.23L95.82,35.41L95.83,35.47L97.42,40.91L97.9,40L97.92,39.97L99.15,37.62L99.46,38.53L99.48,38.58L100.75,42.27L101.25,41.45L101.26,41.43L103.23,38.2L103.57,38.97L103.59,39.01L104.98,42.13L105.37,41.29L105.39,41.25L106.8,38.22L107.1,39.15L107.11,39.19L108.73,44.22L109.15,43.26L109.17,43.22L110.86,39.34L111.19,40.23L111.21,40.27L112.57,43.95L112.92,42.81L112.93,42.76L114.46,37.72L114.91,38.75L114.93,38.79L116.38,42.11L116.8,41.37L116.82,41.34L118.29,38.76L118.66,39.58L118.68,39.61L120.19,42.93L120.58,42.31L120.6,42.29L122.1,39.9L122.43,40.67L122.44,40.7L123.6,43.4L124.03,42.55L124.05,42.52L126.03,38.62L126.31,39.42L126.33,39.46L127.86,43.75L128.19,42.5L128.2,42.44L129.82,36.3L130.29,37.34L130.3,37.37L131.82,40.77L132.18,39.89L132.19,39.86L133.57,36.52L134.02,37.25L134.04,37.27L135.61,39.83L135.99,39.08L136,39.05L137.37,36.32L137.83,36.99L137.85,37.01L139.26,39.03L139.6,38.25L139.62,38.22L141.21,34.63L141.52,35.63L141.54,35.67L142.57,38.96L142.96,38.16L142.98,38.13L144.97,34.01L145.32,34.63L145.33,34.66L146.97,37.6L147.3,36.76L147.31,36.72L148.74,33.08L149.11,34.12L149.13,34.16L150.19,37.1L150.4,35.58L150.42,35.47L152.62,19.55L153.17,20.87L153.19,20.9L153.71,22.14L154.25,21.51L154.27,21.49L155.26,20.33L155.57,21.09L155.59,21.13L157.97,28.58L157.99,28.65L159.5,35.53L159.67,33.27L159.68,33.07L160.43,22.8L161.03,24.31L161.05,24.35L162.77,28.7L162.97,27.21L162.98,27.1L163.82,20.68L164.32,22.56L164.33,22.62L166.13,29.48L166.31,27.52L166.33,27.36L167.21,17.75L167.57,19.46L167.59,19.53L169.52,28.73L169.76,27.1L169.78,27L170.57,21.6L170.99,23.79L171.01,23.87L172.88,33.62L173.11,31.04L173.12,30.87L173.89,22.13L174.55,22.9L174.56,22.92L178.06,25.8L178.07,25.8L180.98,25.26L181,25.25L184.25,21.7L184.27,21.67L186.19,18.42L186.56,19.21L186.58,19.25L190.28,25.42L190.3,25.43L192.38,27.52L192.4,27.61L194.45,39.17L194.68,36.24L194.69,36.04L195.19,29.59L195.73,31.52L195.74,31.57L197.45,37.67L197.72,36.06L197.74,35.97L198.14,33.57L198.56,35.39L198.58,35.46L200.39,43.36L200.56,41.56L200.57,41.4L201.05,36.16L201.38,39.37L201.4,39.52L202.81,46.01L202.82,46.01L203.36,45.32L203.38,45.22L205.13,38.18L205.15,38.16L210.11,31.24L210.13,31.19L212.51,23.62L213.13,24.11L213.14,24.12L216.23,25.74L216.25,25.73L219.08,24.65L219.1,24.66L221.42,27.26L221.44,27.33L222.65,33.06L223.06,31.85L223.07,31.8L224.53,25.47L224.54,25.38L225.23,21.24L225.77,22.54L225.79,22.57L226.72,24.8L227.09,23.88L227.11,23.84L229.04,21.01L229.06,21L229.84,21.32L229.85,21.34L229.87,21.36L230.75,22.26L230.93,21.4L230.95,21.33L231.92,16.65L232.39,17.89L232.4,17.93L233.09,19.78L233.74,19.39L233.75,19.38L235.13,19.43L235.15,19.44L236.84,19.9L236.86,19.9L239.39,19.08L239.41,19.06L241.57,17.96L241.58,17.97L242.44,18.7L242.84,18.07L242.86,18.04L244.99,15.44L245.26,15.66L245.27,15.67L247.13,16.25L247.15,16.25L247.78,16.86L247.79,16.9L248.78,19.56L249.26,18.71L249.28,18.68L251.27,16.65L251.29,16.65L253.87,18.09L253.9,18.04L253.91,18.02L255.14,16.22L255.61,16.84L255.62,16.86L256.72,18.31L257.06,17.54L257.08,17.51L257.68,16.21L258.28,16.56L258.29,16.57L261.34,19.16L261.35,19.18L261.7,19.69L262.12,18.99L262.13,18.96L263.77,17.68L263.78,17.69L265.12,17.23L265.13,17.22L266.33,17.32L266.35,17.32L266.77,17.53L267.08,16.86L267.1,16.82L268.03,14.83L268.4,15.67L268.42,15.7L269.17,17.37L269.72,16.9L269.74,16.88L271.72,15.73L271.85,16.06L271.87,16.1L273.13,19.21L273.47,18.14L273.49,18.09L274.01,16.47L274.34,17.76L274.36,17.82L275.24,21.28L275.74,20.42L275.75,20.39L276.56,18.99L276.82,19.98L276.83,20.03L277.93,24.27L278.29,22.83L278.3,22.77L279.16,19.34L279.56,20.58L279.58,20.62L281.29,23.58L281.3,23.58L282.22,24.31L282.23,24.34L283.28,26.6L283.42,25.26L283.43,25.11L284.51,14.38L284.93,16.79L284.95,16.88L286.91,23.82L286.93,23.83L288.62,27.15L288.77,26.15L288.79,26.05L289.72,19.8L290.29,20.74L290.3,20.77L291.89,24.83L291.91,24.89L293.83,33.3L294.08,32.08L294.1,32.01L295.27,26.4L295.6,28.2L295.61,28.29L300.56,51.66L300.58,51.69L301.15,47.41L301.16,47.29L303.96,30.9L303.98,30.81L304.41,28.32L304.68,31.04L304.7,31.19L306.02,44.52L306.29,43.78L306.3,43.74L307.28,38.81L307.29,38.71L307.82,35.52L308.07,38.34L308.09,38.46L309.42,49.26L309.95,47.56L309.96,47.51L311.12,43.77L311.76,44.19L311.78,44.2L312.99,44.98L313.17,44.26L313.19,44.2L314.72,37.16L315.39,37.44L315.41,37.45L316.22,38.49L316.23,38.61L319.16,58.51L319.25,57.67L319.26,57.53L320.49,46.09L321.11,47.2L321.12,47.23L323.19,52.36L323.21,52.43L324.62,56.3L324.69,55.88L324.71,55.79L327.03,46.68L327.05,46.65L328.17,44.78L328.34,45.87L328.35,45.97L329.27,47.09L329.28,47.1L329.7,49.14L329.72,49.23L330.39,53.12L330.68,50.5L330.69,50.36L332,38.37L332.37,41.59L332.39,41.72L333.54,45.25L333.56,45.29L334.13,43.86L334.14,43.82L336.41,34.79L336.42,34.66L337.07,28.87L337.5,31.58L337.52,31.67L339.18,42.05L339.77,41.14L339.78,41.12L341.16,38.97L341.64,39.56L341.66,39.58L342.87,41.09L343.25,40.45L343.26,40.42L345.96,37.28L345.98,37.28L347.25,36.28L347.27,36.26L349.32,32.04L349.56,33.17L349.58,33.24L351.69,43.18L351.96,41.88L351.98,41.8L353.88,32.6L354.06,34.82L354.08,35L355.16,48.32L355.41,46.15L355.43,46.02L357.77,22.98L358.08,26.68L358.1,26.86L359.82,47.12L359.94,46.55L359.96,46.48L361.53,39.04L361.74,40.98L361.76,41.12L362.94,45.21L362.96,45.24L363.6,46.66L363.92,45.61L363.93,45.56L366.75,35.48L367.11,36.75L367.13,36.8L368.28,40.88L368.67,39.93L368.69,39.9L370.31,35.95L370.68,36.85L370.7,36.89L371.84,39.63L372.18,38.54L372.2,38.49L373.82,33.4L374.28,34.32L374.3,34.35L375.35,36.45L375.6,35.46L375.62,35.4L377.36,28.67L377.57,30.26L377.58,30.38L378.81,39.7L379.28,37.63L379.29,37.56L380.9,30.39L381.09,32.63L381.11,32.8L382.04,43.5L382.34,41.64L382.35,41.55L384.41,28.83L384.68,31.42L384.69,31.57L385.95,43.67L386.49,41.87L386.51,41.82L387.33,36.05L387.35,35.86L387.99,27.53L388.35,30.9L388.37,31.04L389.55,42.15L390.08,40.33L390.09,40.27L391.83,34.23L392.01,35.99L392.03,36.14L392.94,45.13L393.35,44.68L393.36,44.66L394.58,42.54L394.59,42.36L395.6,30.74L395.9,34.48L395.91,34.67L396.74,44.96L397.31,43.38L397.32,43.34L399.42,37.55L399.66,38.95L399.68,39.04L400.97,46.56L401.55,45.66L401.57,45.64L403.41,42.82L403.79,43.55L403.8,43.58L405,45.93L405.47,45.24L405.48,45.22L407.63,42.06L407.79,43.12L407.81,43.21L409.94,52.39L409.95,52.4L410.76,52.93L410.82,52.15L410.84,51.96L411.9,38.19L412.22,39.75L412.23,39.83L414.33,46.54L414.35,46.56L415.44,47.89L415.56,46.96L415.58,46.84L416.58,39.03L416.96,41.91L416.97,42.03L419.13,56.75L419.42,55.06L419.43,54.97L420.2,50.43L420.8,51.28L420.81,51.3L422.01,54.17L422.03,54.23L423.02,57.98L423.51,57.29L423.53,57.27L425.27,53.52L425.28,53.44L426.44,47.56L426.72,49.89L426.74,50.01L428.79,60.97L428.81,61L429.09,61.51L429.36,60.46L429.38,60.4L430.17,54.01L430.19,53.8L431.4,36.34L431.6,39.2L431.61,39.42L433.14,58.41L433.59,57.6L433.61,57.57L435.3,53.16L435.32,52.99L436.44,40.31L436.68,43.25L436.7,43.43L438.17,61.43L438.36,61.06L438.38,61.04L439.59,57.15L439.61,56.99L441.5,36.47L441.57,37.42L441.59,37.61L443.55,60.75L443.57,60.85L444.48,62.54L444.57,62.5L444.59,62.5L445.17,61.56L445.19,61.38L446.66,43.66L446.79,45.71L446.81,45.94L447.87,53.22L447.89,53.3L449.45,64.85L449.46,64.98L449.91,66.33L450.23,65.2L450.24,65.14L450.53,61.82L450.54,61.6L451.8,43.25L452.19,47.02L452.21,47.09L454.95,63.02L455.58,62.41L455.59,62.39L456,59.77L456.01,59.66L457.09,51.65L457.38,55.03L457.39,55.21L458.38,57.51L458.4,57.54L460.57,62.62L460.8,61.36L460.81,61.28L460.99,60.28L461.59,61.1L461.61,61.13L463.2,65.23L463.21,65.31L463.5,66.79L463.93,65.25L463.95,65.2L464.61,62.85L465.03,63.92L465.04,63.96L466.18,66.85L466.39,65.47L466.41,65.38L466.62,66.29L467.13,65.16L467.14,65.13L468.64,63.03L468.72,63.45L468.73,63.54L469.33,66.92L469.78,65.25L469.8,65.2L470.65,62.02L471.01,63.26L471.03,63.31L472.54,68.61L472.87,67.61L472.89,67.57L473.59,65.43L474.04,66.45L474.06,66.48L475.9,70.38L476.02,69.31L476.04,69.16L476.7,62.71L477.28,64.27L477.3,64.31L478.03,66.28L478.38,65.1L478.39,65.04L478.65,63.84L478.96,65.42L478.98,65.45L479.89,67.31L480.18,66.29L480.19,66.24L480.6,64.79L481.12,65.59L481.14,65.61L481.71,66.48L481.99,65.58L482.01,65.54L482.53,63.89L483,64.82L483.01,64.85L484.2,67.2L484.81,66.78L484.83,66.77L485.29,65.57L485.31,65.5L485.49,64.72L485.82,66.67L485.83,66.66L485.85,66.65L486.76,66.16L487.05,66.84L487.06,66.87L487.9,68.86L488.25,67.78L488.26,67.73L489.12,65.06L489.49,66.24L489.51,66.28L490.65,69.86L491.16,69.04L491.17,69.02L491.76,65.74L491.77,65.65L493.21,65.26L493.23,65.26L495.48,65.52L495.49,65.57L497.53,70.38L497.64,70.09L497.65,70.05L498.81,66.6L499.26,67.56L499.27,67.59L500.4,69.97L500.7,68.91L500.71,68.85L501.76,65.14L502.09,66.54L502.11,66.61L503.67,70.38L503.68,70.38L504.49,69.64L504.51,69.62L507.4,66L507.42,65.98L508.63,64.83L508.77,65.66L508.78,65.75L510.1,70.38L510.19,69.95L510.21,69.87L510.67,67.42L511.24,68.37L511.26,68.4L513.31,70.38L513.33,70.38L513.97,69.64L513.99,69.57L515.01,64.85L515.35,66.49L515.37,66.56L516.85,70.38L516.87,70.38L517.36,69.66L517.38,69.62L518.49,66.92L518.83,67.93L518.85,67.97L520.44,70.38L520.45,70.38L520.8,69.32L520.81,69.25L522.3,65.7L522.34,65.71L522.36,65.71L525.6,67.04L525.61,67.09L527.34,70.38L527.35,70.31L527.37,70.25L529.03,65.45L529.05,65.46L532.09,66.58L532.11,66.63L533.31,70.37L533.7,69.26L533.71,69.21L535.93,65.12L535.95,65.12L541.54,65.18L541.56,65.18L543.39,65.68L543.4,65.69L546.01,67.51L546.03,67.57L547.42,70.38L547.44,70.38L548.07,69.68L548.08,69.61L548.98,65.51L549.69,65.74L549.7,65.74L554.31,66.49L554.32,66.49L557.79,66.77L557.8,66.77L562.8,67.65L562.81,67.65L564.22,68.45L564.24,68.5L565.66,70.38L565.68,70.38L567.3,69.63L567.31,69.61L569.02,68.77L569.04,68.77L574.5,69.09L574.51,69.1L576.7,70.29L576.72,70.32L578.88,70.38L578.89,70.38L579.43,69.35L579.45,69.31L580.57,68.51L580.59,68.52L587.22,69.65L587.23,69.64L588.21,70.2L588.22,70.21L589.45,70.38L589.47,70.38L607,70.38" style="vector-effect: non-scaling-stroke; fill: none; stroke: rgb(0, 0, 0); stroke-opacity: 1; stroke-width: 2px; opacity: 1;"/></g><g class="points"/><g class="text"/></g></g></g><g class="overplot"/><path class="xlines-above crisp" d="M0,0" style="fill: none;"/><path class="ylines-above crisp" d="M0,0" style="fill: none;"/><g class="overlines-above"/><g class="xaxislayer-above"><g class="xtick"><text text-anchor="middle" x="0" y="172.3333" transform="translate(40,0)" style="font-family: 'Latin Modern Roman'; font-size: 13.3333px; fill: rgb(0, 0, 0); fill-opacity: 1; white-space: pre;">0</text></g><g class="xtick"><text text-anchor="middle" x="0" y="172.3333" transform="translate(115,0)" style="font-family: 'Latin Modern Roman'; font-size: 13.3333px; fill: rgb(0, 0, 0); fill-opacity: 1; white-space: pre;">5k</text></g><g class="xtick"><text text-anchor="middle" x="0" y="172.3333" transform="translate(190,0)" style="font-family: 'Latin Modern Roman'; font-size: 13.3333px; fill: rgb(0, 0, 0); fill-opacity: 1; white-space: pre;">10k</text></g><g class="xtick"><text text-anchor="middle" x="0" y="172.3333" transform="translate(264.99,0)" style="font-family: 'Latin Modern Roman'; font-size: 13.3333px; fill: rgb(0, 0, 0); fill-opacity: 1; white-space: pre;">15k</text></g><g class="xtick"><text text-anchor="middle" x="0" y="172.3333" transform="translate(339.99,0)" style="font-family: 'Latin Modern Roman'; font-size: 13.3333px; fill: rgb(0, 0, 0); fill-opacity: 1; white-space: pre;">20k</text></g><g class="xtick"><text text-anchor="middle" x="0" y="172.3333" transform="translate(414.99,0)" style="font-family: 'Latin Modern Roman'; font-size: 13.3333px; fill: rgb(0, 0, 0); fill-opacity: 1; white-space: pre;">25k</text></g><g class="xtick"><text text-anchor="middle" x="0" y="172.3333" transform="translate(489.99,0)" style="font-family: 'Latin Modern Roman'; font-size: 13.3333px; fill: rgb(0, 0, 0); fill-opacity: 1; white-space: pre;">30k</text></g><g class="xtick"><text text-anchor="middle" x="0" y="172.3333" transform="translate(564.98,0)" style="font-family: 'Latin Modern Roman'; font-size: 13.3333px; fill: rgb(0, 0, 0); fill-opacity: 1; white-space: pre;">35k</text></g><g class="xtick"><text text-anchor="middle" x="0" y="172.3333" transform="translate(639.98,0)" style="font-family: 'Latin Modern Roman'; font-size: 13.3333px; fill: rgb(0, 0, 0); fill-opacity: 1; white-space: pre;">40k</text></g></g><g class="yaxislayer-above"><g class="ytick"><text text-anchor="end" x="39" y="4.6666549999999996" transform="translate(0,102.2)" style="font-family: 'Latin Modern Roman'; font-size: 13.3333px; fill: rgb(0, 0, 0); fill-opacity: 1; white-space: pre;">1</text></g><g class="ytick"><text text-anchor="end" x="39" y="4.6666549999999996" transform="translate(0,86)" style="font-family: 'Latin Modern Roman'; font-size: 13.3333px; fill: rgb(0, 0, 0); fill-opacity: 1; white-space: pre;">0</text></g><g class="ytick"><text text-anchor="end" x="39" y="4.6666549999999996" transform="translate(0,69.8)" style="font-family: 'Latin Modern Roman'; font-size: 13.3333px; fill: rgb(0, 0, 0); fill-opacity: 1; white-space: pre;">1</text></g></g><g class="overaxes-above"/></g></g><g class="polarlayer"/><g class="ternarylayer"/><g class="geolayer"/><g class="funnelarealayer"/><g class="pielayer"/><g class="treemaplayer"/><g class="sunburstlayer"/><g class="glimages"/><defs id="topdefs-782dbb"><g class="clips"/><clipPath id="legend782dbb"><rect width="422" height="31" x="0" y="0"/></clipPath></defs><g class="layer-above"><g class="imagelayer"/><g class="shapelayer"/></g><g class="infolayer"><g class="legend" pointer-events="all" transform="translate(40, 0)"><rect class="bg" shape-rendering="crispEdges" style="stroke: rgb(68, 68, 68); stroke-opacity: 1; fill: rgb(255, 255, 255); fill-opacity: 1; stroke-width: 0px;" width="422" height="31" x="0" y="0"/><g class="scrollbox" transform="translate(0, 0)" clip-path="url('#legend782dbb')"><g class="groups"><g class="traces" transform="translate(0, 15.166645)" style="opacity: 1;"><text class="legendtext" text-anchor="start" x="40" y="5.199987" style="font-family: 'Latin Modern Roman'; font-size: 13.3333px; fill: rgb(0, 0, 0); fill-opacity: 1; white-space: pre;">Signal (<tspan style="font-weight:bold">w = e</tspan>  <tspan style="font-weight:bold">c</tspan>)      </text><g class="layers" style="opacity: 1;"><g class="legendfill"/><g class="legendlines"><path class="js-line" d="M5,0h30" style="fill: none; stroke: rgb(192, 192, 192); stroke-opacity: 1; stroke-width: 1px;"/></g><g class="legendsymbols"><g class="legendpoints"/></g></g><rect class="legendtoggle" x="0" y="-10.166645" width="164.171875" height="20.33329" style="fill: rgb(0, 0, 0); fill-opacity: 0;"/></g><g class="traces" transform="translate(166.671875, 15.166645)" style="opacity: 1;"><text class="legendtext" text-anchor="start" x="40" y="5.199987" style="font-family: 'Latin Modern Roman'; font-size: 13.3333px; fill: rgb(0, 0, 0); fill-opacity: 1; white-space: pre;">Carrier (<tspan style="font-weight:bold">c</tspan>)      </text><g class="layers" style="opacity: 1;"><g class="legendfill"/><g class="legendlines"><path class="js-line" d="M5,0h30" style="fill: none; stroke: rgb(235, 64, 52); stroke-opacity: 0.3; stroke-width: 1px;"/></g><g class="legendsymbols"><g class="legendpoints"/></g></g><rect class="legendtoggle" x="0" y="-10.166645" width="118.375" height="20.33329" style="fill: rgb(0, 0, 0); fill-opacity: 0;"/></g><g class="traces" transform="translate(287.546875, 15.166645)" style="opacity: 1;"><text class="legendtext" text-anchor="start" x="40" y="5.199987" style="font-family: 'Latin Modern Roman'; font-size: 13.3333px; fill: rgb(0, 0, 0); fill-opacity: 1; white-space: pre;">Envelope (<tspan style="font-weight:bold">e</tspan>)      </text><g class="layers" style="opacity: 1;"><g class="legendfill"/><g class="legendlines"><path class="js-line" d="M5,0h30" style="fill: none; stroke: rgb(0, 0, 0); stroke-opacity: 1; stroke-width: 2px;"/></g><g class="legendsymbols"><g class="legendpoints"/></g></g><rect class="legendtoggle" x="0" y="-10.166645" width="130.96875" height="20.33329" style="fill: rgb(0, 0, 0); fill-opacity: 0;"/></g></g></g><rect class="scrollbar" rx="20" ry="3" width="0" height="0" style="fill: rgb(128, 139, 164); fill-opacity: 1;" x="0" y="0"/></g><g class="g-gtitle"/><g class="g-xtitle" transform="translate(0,-2.677059999999983)"><text class="xtitle" x="343.5" y="199.67705999999998" text-anchor="middle" style="font-family: 'Latin Modern Roman'; font-size: 13.33px; fill: rgb(0, 0, 0); opacity: 1; font-weight: normal; white-space: pre;"><tspan style="font-weight:bold"><tspan style="font-style:italic">i</tspan></tspan></text></g><g class="g-ytitle" transform="translate(11.5205078125,0)"><text class="ytitle" transform="rotate(-90,0.47919000000000267,86)" x="0.47919000000000267" y="86" text-anchor="middle" style="font-family: 'Latin Modern Roman'; font-size: 13.33px; fill: rgb(0, 0, 0); opacity: 1; font-weight: normal; white-space: pre;"><tspan style="font-weight:bold">Amplitude</tspan></text></g></g></svg>