<svg class="main-svg" xmlns="http://www.w3.org/2000/svg" xmlns:xlink="http://www.w3.org/1999/xlink" width="650" height="300" style="" viewBox="0 0 650 300"><rect x="0" y="0" width="650" height="300" style="fill: rgb(255, 255, 255); fill-opacity: 1;"/><defs id="defs-33065d"><g class="clips"><clipPath id="clip33065dxyplot" class="plotclip"><rect width="607" height="235"/></clipPath><clipPath class="axesclip" id="clip33065dx"><rect x="40" y="0" width="607" height="300"/></clipPath><clipPath class="axesclip" id="clip33065dy"><rect x="0" y="23" width="650" height="235"/></clipPath><clipPath class="axesclip" id="clip33065dxy"><rect x="40" y="23" width="607" height="235"/></clipPath></g><g class="gradients"/></defs><g class="bglayer"/><g class="layer-below"><g class="imagelayer"/><g class="shapelayer"/></g><g class="cartesianlayer"><g class="subplot xy"><g class="layer-subplot"><g class="shapelayer"/><g class="imagelayer"/></g><g class="gridlayer"><g class="x"/><g class="y"/></g><g class="zerolinelayer"/><path class="xlines-below"/><path class="ylines-below"/><g class="overlines-below"/><g class="xaxislayer-below"/><g class="yaxislayer-below"/><g class="overaxes-below"/><g class="plot" transform="translate(40, 23)" clip-path="url('#clip33065dxyplot')"><g class="scatterlayer mlayer"><g class="trace scatter trace6a38bd" style="stroke-miterlimit: 2; opacity: 1;"><g class="fills"/><g class="errorbars"/><g class="lines"><path class="js-line" d="M0,117.5L3.49,117.33L3.51,117.21L3.64,117.15L3.7,120.69L3.73,118.76L3.75,116.48L3.81,120.72L3.85,114.01L4.47,118.06L4.48,118.57L4.53,119.62L4.98,114.96L5.13,117.01L5.14,116.49L5.65,118.96L5.89,113.16L5.91,114.28L5.92,117.35L6.24,125.99L6.63,112.1L6.64,110.94L6.69,109.24L6.79,122.4L7.24,116.7L7.26,116.87L7.36,120.58L7.69,116.23L7.71,114.69L7.9,108.06L8.05,127.2L8.38,117.94L8.4,121.94L8.41,124.47L8.47,112L9.12,116.45L9.13,116.06L9.52,120.28L9.81,115.14L9.82,113.5L9.94,112.15L10.33,119.49L10.35,119.59L10.51,120.06L10.54,118.84L10.56,118L10.6,119.82L11.16,115.2L11.22,116.23L11.23,115.85L11.25,115.56L11.5,120.06L11.74,119.26L11.76,119.34L12.49,114.32L12.72,115.67L12.73,116.64L12.87,119.1L13.3,107.8L13.38,109.99L13.39,108.11L13.51,105.92L13.6,116.98L13.62,121.33L13.72,143.08L14.14,92.8L14.32,111.32L14.34,107.66L14.4,97.44L14.55,138.65L15.03,126.18L15.04,132.2L15.49,75.89L15.82,147L15.84,149.84L15.9,160.44L16.26,83.95L16.47,109.62L16.48,105.34L16.5,101.91L17.07,131.8L17.08,135.87L17.22,160.12L17.61,66.68L17.68,85.2L17.7,87.39L17.94,146.64L17.95,151.77L18.01,159.83L18.4,106.17L18.52,119.94L18.54,120.24L18.96,86.95L19.03,110.58L19.05,111.93L19.36,150.26L19.69,113.12L19.71,109.45L19.81,96.32L20.23,114.68L20.25,114.04L20.7,147.04L20.89,112.87L20.91,110.68L20.95,111.39L21.07,96.58L21.09,93L21.16,84.85L21.6,154.15L21.72,134.5L21.73,132.07L22.21,83.24L22.38,108.11L22.39,112.8L22.74,146.6L23.08,110.65L23.13,116.32L23.14,110.84L23.4,82.02L23.74,136.51L23.8,133.64L23.82,141.27L23.83,145.8L24.51,114.6L24.52,114.39L24.58,103.87L24.6,99.34L24.61,96.6L25.12,155.94L25.14,156.9L25.59,73.92L25.96,138.76L25.98,139.74L26.94,87.48L27.03,89.44L27.04,96.47L27.55,176.57L27.85,134.98L27.87,130.4L28.02,52.09L28.45,181.33L28.62,120.24L28.63,124.12L28.87,91.98L29.02,141.65L29.26,104.32L29.28,103.38L29.46,51.07L29.71,144.31L29.73,154.31L29.91,187.4L30.22,56.44L30.24,46.51L30.33,41.22L30.46,96.51L30.48,115.18L30.72,151.27L31.2,100.21L31.21,90.26L31.23,88.61L31.33,136.39L31.35,144.63L31.39,177.52L31.84,68.55L32.08,142.9L32.1,139.82L32.28,167.98L32.7,95.82L33.04,99.9L33.06,101.06L33.37,132.92L33.67,97.27L33.69,86.71L33.82,59.98L34.21,134.13L34.41,97.38L34.42,103.22L34.57,70.07L34.9,218.55L35.14,151.78L35.16,132.35L35.28,24.28L35.71,216.64L35.86,190.61L35.88,190.43L35.91,192.93L36.04,119.68L36.06,105.19L36.34,57.07L36.76,141.39L36.78,144.59L36.87,147.39L37.15,95.06L37.17,94.62L37.24,72.26L37.78,132.61L37.8,136.49L37.96,75.37L38.41,220.88L38.47,217.56L38.49,222.7L38.5,223.24L38.62,190.95L38.64,173.63L38.85,25.6L39.31,217.55L39.36,210.95L39.37,210.24L39.57,143.22L39.58,133.12L39.87,53.95L40.3,142.49L40.32,145.6L40.36,152.16L40.77,69.66L40.86,76.17L40.87,76.4L40.9,71.81L41.2,123.18L41.26,112.21L41.28,117.88L41.56,84.99L41.91,223.24L42.1,148.26L42.12,136.14L42.36,16.06L42.76,217.11L42.79,215.18L42.81,213.82L43.17,82.33L43.77,107.69L43.78,114.67L44.04,160.13L44.37,61.43L44.38,62.06L44.4,59.87L44.43,51.63L44.89,147.58L45.07,96.65L45.09,92.74L45.22,67.52L45.49,193.02L45.54,191.22L45.55,198.78L45.58,209.85L45.91,48.08L45.96,51.44L45.97,48.11L46.02,38.38L46.21,133.14L46.23,142.99L46.36,193.79L46.93,90.67L46.95,89.69L47.58,119.18L47.59,122.85L47.68,136.24L48.04,84.09L48.06,80.82L48.16,72.61L48.31,97.52L48.33,105.19L48.79,71.16L49.24,218.69L49.26,213.03L49.27,199.91L49.6,23.9L50.01,196.86L50.02,201.76L50.07,209.59L50.26,121.91L50.28,115.48L50.71,129.23L51.03,76.99L51.07,83.58L51.09,87.35L51.15,78.32L51.33,140.63L51.67,90.96L51.69,90.71L51.87,67.46L52.15,136.79L52.24,122.94L52.26,126.95L52.45,72.19L52.78,193.09L52.8,200.59L52.83,210.24L53.28,41.01L53.32,53.15L53.34,52.89L53.35,51.19L53.53,141.14L53.55,148.42L53.7,188.5L54.09,100.81L54.25,114.57L54.27,115.8L54.69,76.17L55,135.93L55.12,130.96L55.14,125.92L55.54,74.57L55.87,119.28L55.89,126.18L55.95,82.26L56.43,214.6L56.56,157.49L56.58,154.52L56.86,35.18L57.28,182.37L57.3,185.59L57.31,187.99L57.6,114.09L57.85,141.31L57.87,140.94L57.93,145.83L58.03,120.15L58.05,112.79L58.32,45.46L58.68,131.67L58.77,131.14L58.78,131.71L58.8,132.11L58.86,119.95L58.87,117.97L59.17,78.06L59.67,89.7L59.68,95.47L60.04,223.25L60.4,90.42L60.42,85.12L60.49,55.08L60.96,156.85L61.06,140.58L61.08,138.27L61.56,156.38L61.95,48.85L62.13,85.73L62.14,91.9L62.41,130.1L62.79,80L62.85,90.23L62.86,89.63L62.91,96.66L62.92,101.75L63.28,95.96L63.78,188.27L63.93,158.96L63.94,154.05L64.23,93.91L64.83,116.58L64.84,118.84L65.26,144.91L65.46,111.31L65.47,107.38L65.74,72.3L66.28,90.4L66.3,89.6L66.34,86.72L66.84,112.7L66.9,103.56L66.91,110.62L67.35,177.36L67.68,124.79L67.69,121.11L67.99,134L68.41,98.36L68.55,109.39L68.56,111.78L68.82,144.98L69.12,98.09L69.13,96.6L69.24,84.12L69.46,103.55L69.48,104.6L69.54,106.02L69.91,79.1L69.93,79.04L70.81,142.64L71.08,126.24L71.1,126.64L71.17,123.06L71.44,137.18L71.46,138.64L71.62,148.57L72.03,130.71L72.18,133.21L72.19,134.15L72.21,134.56L72.36,122.84L72.37,120.26L72.94,124.19L73.45,84.07L73.48,84.83L73.5,85.54L73.54,84.75L73.68,91.58L73.69,92.4L73.75,93.05L73.93,85.12L73.98,85.99L73.99,84.73L74.04,83.3L74.29,103.25L74.31,104.3L75.39,158.84L75.4,159.51L75.43,159.3L75.51,163.82L75.52,164.07L75.61,164.57L75.7,161.52L75.72,160.58L77.07,74.64L77.08,75.11L77.1,75.7L77.43,67.06L77.64,78.1L77.65,80.56L79,163.85L79.02,163.61L79.03,162.9L79.89,119.05L79.9,118.32L80.92,63.04L81.21,75.32L81.22,77.31L82.78,166.22L82.86,162.55L82.87,162L83.23,139.64L83.25,138.35L84.39,63.1L84.46,65.1L84.48,65.02L84.64,63.31L84.87,76.6L84.88,76.69L85.3,121.05L85.32,123.07L86.32,167.47L86.34,168.3L86.4,170.56L86.82,144.4L86.83,143.39L88.3,58.75L88.47,68.23L88.48,69.54L90.07,172.05L90.19,166.13L90.21,164.58L91.78,55.57L91.8,56.68L91.89,55.17L93.12,157.31L93.18,156.86L93.19,156.76L93.21,156.57L93.43,161.44L93.45,162.53L93.78,171.23L94.09,150.84L94.11,149.28L95.25,60.82L95.28,61.69L95.29,62.26L95.47,55.87L95.62,61.52L95.64,62.5L96.03,89.89L96.04,91.04L97.42,168.23L97.59,164.07L97.6,162.95L99.15,61.4L99.58,69.35L99.6,70.96L100.75,166.02L100.77,165.94L100.78,165.72L100.83,165.96L101.05,162.35L101.07,162.22L101.2,163.97L101.5,151.26L101.52,150.95L103.23,62.34L103.33,69.14L103.35,70.12L104.46,164.04L104.59,160.38L104.61,159.75L104.98,166.25L106.42,72.49L106.44,71.68L106.8,62.37L107.13,73.99L107.14,75.49L108.63,161.8L108.64,161.38L108.66,160.91L108.73,162.84L109.39,135.11L109.41,134.13L110.65,66.65L110.68,66.82L110.7,66.56L110.86,64.2L111.04,81.11L111.06,81.84L112.45,161.7L112.47,162.01L112.57,163.28L113.05,139.95L113.07,138.8L114.46,61.56L114.7,69.92L114.72,71.14L116.17,162.91L116.2,162.28L116.22,162.56L116.38,166.28L116.71,149.74L116.73,148.46L117.97,69.24L117.99,68.48L118.29,63.25L118.59,79.08L118.6,81.44L120.1,163.61L120.15,163.34L120.16,163.74L120.19,164.93L120.48,149.77L120.49,148.6L122.1,65.11L122.35,73.69L122.37,73.93L123.18,144.04L123.19,144.74L123.6,164.17L124.14,161.36L124.15,160.39L126.03,63.02L126.22,70.99L126.24,71.4L127.41,163.54L127.53,162.95L127.54,162.69L127.86,163.61L128.35,141.54L128.37,139.48L129.58,65.18L129.6,64.23L129.82,59.24L130.05,70.23L130.06,72.7L131.17,166.76L131.4,163.9L131.41,163.68L131.82,168.47L132.04,152.21L132.06,150.99L133.57,59.59L133.66,63.46L133.68,63.66L133.72,63.21L133.87,74.43L133.89,76.76L135.06,166.58L135.25,164L135.27,164.05L135.61,170L135.93,144.65L135.94,142.97L137.35,59.8L137.37,59.28L137.68,74.04L137.7,76.69L138.79,169.28L139.05,166.46L139.06,165.97L139.26,171.3L139.68,148.26L139.69,147.09L141.21,56.51L141.4,64.89L141.42,67.35L142.57,171.42L142.86,166.97L142.87,166.9L142.93,166.59L143.01,169.5L143.02,170.48L143.05,171.31L143.38,157.29L143.4,156.25L144.85,57.73L144.87,57.66L144.97,55.51L145.36,82.69L145.38,84.23L146.37,172.12L146.55,169.64L146.56,169.4L146.68,167.4L146.85,172.57L146.94,172.21L146.95,172.98L146.98,173.64L147.19,156.86L147.21,155.64L148.53,57.65L148.57,58.03L148.59,57.54L148.74,53.99L149.05,69.22L149.07,70.95L150.19,174.46L150.37,172.56L150.39,172.55L150.58,174.23L150.87,166.01L150.88,164.31L152.62,31.91L152.75,51.98L152.77,57.94L153.71,198.86L153.79,197.16L153.8,197.47L153.82,197.74L153.97,189.81L153.98,187.65L155.26,33.18L155.74,59.17L155.75,61.4L155.86,50.87L156.08,89.9L156.1,95.46L156.83,192.47L156.97,187.41L156.98,183.53L157.18,194.26L157.79,96.14L157.96,114.21L157.97,115.6L158,117.35L158.14,95.78L158.42,98.96L158.44,97.05L158.98,97.21L159.28,61.24L159.29,62.27L159.31,64.5L159.5,57.99L160.43,197.8L160.58,177.12L160.6,176.67L160.69,181.47L160.96,131.66L160.97,124.76L161.08,138.43L161.81,100.01L161.83,100.61L161.84,100.84L162.77,46.84L162.82,59.7L162.83,66.6L163.82,201.26L164.09,175.48L164.11,165.94L164.63,90.04L164.89,131.24L164.9,131.33L165.47,85.31L165.49,83.05L165.76,63.92L165.77,62.91L166.13,48.1L167.21,206.04L167.24,190.23L167.26,181.92L167.32,185.57L167.95,89.22L168.17,127.25L168.19,131.59L168.26,132.68L168.59,108.57L168.65,112.25L168.67,109.95L168.77,110.38L169.52,46.88L169.61,54.53L169.63,55.43L170.57,199.74L170.63,178.61L170.65,173.95L170.72,175.77L171.31,85.23L171.59,125.7L171.61,126.62L171.67,128.12L172.1,109.82L172.16,114.3L172.18,112.55L172.88,54.86L173.02,67.67L173.03,68.56L173.38,143.79L173.39,150.7L173.89,198.88L174.14,161.09L174.16,156.74L174.65,89.57L174.98,114.92L175,116.15L175.22,127.82L175.6,98.39L175.61,96.39L176.32,66.11L176.45,85.51L176.47,92.83L176.98,193.03L177.29,170.37L177.31,165.08L177.98,86.57L178.16,114.1L178.18,117.09L178.48,127.88L178.66,95.98L178.67,90.47L178.75,105.39L179.26,64.75L179.5,81.24L179.51,90.7L180.1,192.67L180.43,169.65L180.44,166.8L181.09,81.04L181.4,110.62L181.42,113.21L181.58,124.23L181.93,82.8L182.05,95.59L182.06,92.91L182.36,65.54L182.65,120.55L182.66,123.74L182.83,120.27L183.07,178.5L183.08,186.95L183.13,196.48L183.28,145.64L183.64,149.83L183.65,143.97L184.16,75.07L184.52,100.42L184.54,100.34L184.58,97.92L184.64,119.43L184.66,125.91L184.67,129.06L185,77.48L185.27,87.7L185.29,86.61L185.47,69.63L185.78,144.83L185.93,111.59L185.95,116.73L186.19,204.93L186.71,140.3L186.73,134.03L187.19,81.2L187.54,93.09L187.55,95.66L187.63,85.21L187.7,116.21L187.97,94.58L187.99,89.88L188.14,103.31L188.47,65.25L188.69,90.21L188.71,109.5L188.98,109.24L189.19,194.6L189.49,167.23L189.5,162.63L189.59,181.88L190.22,86.26L190.45,123.38L190.46,123.8L190.64,89.18L190.7,120.39L190.72,124.32L191.44,66.85L191.63,72.36L191.65,78.99L192.22,191.6L192.53,165.86L192.55,168.86L192.64,171.14L192.71,145.29L192.73,139.54L193.21,88.31L193.28,140.43L193.54,103.85L193.55,106.34L193.81,126.96L194.02,83.8L194.03,77.14L194.45,63.93L194.68,95.49L194.69,102.04L194.95,98.55L195.19,186.71L195.56,162.43L195.58,162.35L195.62,165.66L195.79,111.38L195.97,120.03L195.98,119.42L196.04,123.5L196.13,103.24L196.15,96.78L196.19,78.38L196.25,137.86L196.88,104.51L196.9,104.66L197.45,61.47L197.6,89.42L197.62,98.31L197.89,92.9L198.14,180.22L198.46,166.58L198.47,165.24L198.55,167.41L199.12,78.59L199.54,94.45L199.55,101L199.7,130.77L200.17,86.43L200.26,88.68L200.27,81.44L200.39,70.77L200.65,143.83L200.86,114.7L200.87,123.53L201.05,175.98L201.58,131.75L201.59,126.06L201.71,133.26L202.06,74.97L202.45,87.58L202.46,89.18L202.55,126.85L203.12,88.24L203.15,92.09L203.17,91.24L203.26,75.14L203.57,141.1L203.78,118.1L203.8,125.51L204.26,171.15L204.53,117.04L204.55,116.74L204.62,138.66L204.95,88.72L205.25,98.42L205.27,98.98L205.34,86.54L205.54,122.81L205.85,105.99L205.87,109.25L206.24,76.6L206.38,127.33L206.39,138.74L206.6,96.34L206.81,175.7L207.2,163.42L207.22,163.59L207.83,80.58L207.89,129.68L207.91,134.62L208.01,135.79L208.57,86.33L208.7,92.49L208.72,98.15L208.99,81.61L209.3,148.17L209.48,105.63L209.5,111.23L209.69,181.84L210.23,113.14L210.25,108.92L210.4,133.36L210.65,79L211.07,91.47L211.09,94.81L211.27,118.88L211.42,83.13L211.76,87.79L211.78,81.68L211.79,79.22L212.11,149.55L212.33,122.29L212.35,126.83L212.51,196.46L213.07,123.05L213.08,118.49L213.23,131.43L213.5,69.94L213.94,92.26L213.95,97.52L214.12,112.33L214.61,77.83L214.63,70.83L214.64,66.93L214.94,139.53L215.2,128.51L215.21,137.54L215.66,192.34L215.93,130.2L215.95,129.44L216.05,152.89L216.22,109.31L216.23,103.16L216.46,115.06L216.68,71.91L217.03,80.84L217.04,80.22L217.22,97.03L217.51,71.66L217.58,88.77L217.6,93.83L217.85,91.85L218.45,195.54L218.47,192.01L219.4,78.85L219.44,79.9L219.46,78.22L219.58,104.12L219.74,83.34L219.76,83.32L219.82,64.16L220.37,102.25L220.39,110.48L220.61,94.27L221.2,192.24L221.23,186.45L221.24,182.37L222.53,59.62L222.55,58.82L222.65,53.95L223.87,186.97L224.21,164.16L224.23,163.61L224.35,164.2L225.23,34.67L225.4,47.89L225.41,52.3L225.52,49.7L226.39,192.28L226.58,187.86L226.6,187.16L226.72,194.53L227.59,56.63L227.63,63.66L227.65,67.66L227.92,35.66L228.43,97.44L228.46,88.61L228.47,88.59L229.33,201.05L229.43,169.13L229.45,165.87L229.54,177.88L230.75,36.33L230.78,51.34L230.8,67.35L230.87,51.41L231.59,195.63L231.65,185.47L231.67,189.66L231.92,207.83L232.31,148.8L232.33,146.6L233.09,32.27L233.5,57.99L233.51,71.6L233.59,63.73L234.5,200.76L234.52,203.39L234.53,204.12L234.77,169.06L234.79,163.29L234.85,186.22L235.3,97.79L235.31,84.48L235.9,32.77L236.11,54.36L236.12,70.18L236.2,56.04L236.9,189.78L237.05,183.11L237.07,184.66L237.14,202.61L237.7,140.49L237.71,136.63L238.45,32.67L238.72,72.41L238.73,78.44L238.79,51.87L238.93,91.65L238.94,94.87L238.96,93.74L239.15,122.82L239.17,126.04L239.23,122.52L239.72,204.41L240.08,171.4L240.1,166.35L241.03,28.56L241.42,64.12L241.43,65.36L241.46,59.64L241.82,129.29L241.84,132.7L242.44,204.48L242.69,171.66L242.71,171.39L242.78,174.17L242.83,157.76L242.84,152.23L243.65,27.42L244.04,57.5L244.06,62.17L244.99,209.8L245,207.79L246.05,46.43L246.1,50.57L246.11,49.11L246.23,26.82L246.68,81.97L246.7,83.98L247.52,208.61L247.91,178.46L247.93,170.86L248.78,31.92L248.95,51.48L248.96,49.25L249.08,40.09L249.26,78.33L249.28,81.74L250.06,206.77L250.27,186.83L250.28,187.27L250.37,193.34L250.46,179.78L250.48,177.66L251.32,27.14L251.75,62.37L251.77,70.04L252.62,205.55L252.73,193.63L252.74,190.6L252.91,197.38L253.87,29.52L254.32,61.23L254.33,67.26L255.14,208.53L255.5,194.1L255.52,193.15L255.55,194.82L255.7,154.59L255.71,150.56L255.76,151.07L255.91,121.62L255.92,114.96L256.72,29.88L256.88,66.16L256.9,69.34L257.66,208.55L258.01,202.3L258.02,199.96L258.22,161.91L258.23,154.41L258.31,161.29L259.24,27.93L259.36,47.19L259.37,52.33L260.51,205.69L260.6,196.05L260.62,192.19L261.7,32.13L261.71,32.45L261.73,33.64L261.77,32.2L261.92,59.8L261.94,65.19L263.02,206.47L263.03,202.67L263.05,197.51L263.11,201.47L264.26,29.07L264.28,31.53L265.55,207.36L265.57,206.87L265.58,204.04L266.77,28.61L266.96,64.08L266.98,67.04L268.03,210.79L268.15,187.42L268.16,182.58L269.17,28.35L269.39,56.92L269.41,60.19L270.47,208.48L270.7,180.49L270.71,173.71L271.72,25.67L271.85,44.35L271.87,48.86L273.13,203.65L273.2,184.49L273.22,185.63L274.01,26.87L274.34,37.92L274.36,44.91L274.43,39.81L275.24,200.28L275.29,184.75L275.3,184.81L275.36,200.27L275.87,151.84L275.89,149.15L276.56,30.99L277.03,56.81L277.04,71.96L277.93,195.4L277.96,193.64L277.97,191.76L279.16,31.57L279.64,62.71L279.65,78.28L280.55,196.49L280.58,188.75L280.6,182.73L280.66,186.63L281.87,38.47L281.89,43.29L281.9,53.92L282.08,47.96L282.86,167.98L282.88,166.73L282.89,161.27L283.28,191.6L283.64,144.11L283.67,148.55L283.69,151.25L284.51,23.47L284.63,75.45L284.65,88.26L284.71,45.53L285.2,132.67L285.29,119.74L285.31,132.05L285.94,198.17L286.09,162.12L286.1,160.77L286.15,176.41L286.52,95.77L286.54,91.23L286.58,106.84L287.17,39.4L287.21,60.72L287.23,59.53L287.27,49.85L287.75,120.7L287.86,118.02L287.87,123.55L287.95,120.44L288.62,190.68L288.77,171.04L288.79,164.54L289.72,32.31L289.76,71.4L289.78,77.23L289.87,34L290.06,89.88L290.08,111.47L290.14,58.57L290.75,162.92L290.87,160.38L290.89,169.47L291.35,198.27L291.59,141.05L291.61,142.11L291.62,146.03L291.64,150.01L292.03,80.42L292.04,76.49L292.09,83.37L292.22,66.66L292.28,73.11L292.3,56.67L292.76,46.62L292.84,122.21L292.93,98.66L292.94,112.29L293.08,84.08L293.83,180.65L294.17,171.39L294.19,164.94L294.83,58.35L295.07,81.58L295.09,89.99L295.1,90.34L295.13,68.46L295.15,54.07L295.27,43.08L295.64,138.82L295.73,97.12L295.75,114.82L295.9,93.97L296.53,163.56L296.54,160.68L296.63,162.9L297.44,80.01L297.47,97.53L297.49,113.82L297.5,119.72L297.55,63.47L298.21,96.57L298.22,88.96L298.4,82.02L299.27,151.05L299.3,135.71L299.32,121.57L299.41,154.14L300.05,105.06L300.07,105.72L300.08,113.18L300.61,84.44L300.68,143.01L300.85,135.16L300.86,124.01L301.39,136.65L301.45,74.02L301.6,119.54L301.61,120.95L301.75,91.18L302.26,123.93L302.33,107.76L302.35,116.82L302.45,109.43L302.8,142.74L303.11,134.96L303.13,132.34L303.81,140.15L303.87,92.38L303.9,121.03L303.92,136.51L303.93,137.53L304.17,92.55L304.26,111.74L304.28,94.32L304.35,135.23L304.41,46.21L305.01,111.65L305.03,117.86L305.24,92.03L305.7,142.12L305.72,145.18L306.02,162.35L306.08,129.3L306.35,141.85L306.36,130.09L306.6,164.97L307.23,73.7L307.25,87.17L307.26,107.78L307.82,57.96L307.86,123.66L307.98,119.96L308,100.55L308.03,75.64L308.64,136.14L308.72,134.97L308.73,146.28L308.79,123.88L309.42,154.61L309.45,140.03L309.47,124.44L310.13,150.18L310.17,86.83L310.2,115.87L310.22,131.11L310.7,82.87L311.01,84.13L311.03,94.6L311.12,71.43L311.48,126.72L311.79,122.11L311.81,120.66L312.08,103.76L312.42,137.26L312.53,136.38L312.54,137.89L312.78,142.1L312.83,125.27L312.86,140.98L312.87,152.39L312.89,153.37L312.92,118.57L312.93,108.19L313.28,163.45L313.59,127.54L313.61,110.32L313.67,156.21L314.16,66.97L314.39,85.35L314.4,89.79L314.7,60.64L314.75,124.13L315.18,118.49L315.2,117.88L315.24,88.89L315.92,143.21L315.93,133.96L315.95,119.76L316.13,173.39L316.17,98.25L316.68,131.96L316.7,143.21L316.71,147.26L317.12,101.75L317.37,127.12L317.39,116.08L317.55,133.66L317.96,91.65L318.14,99.93L318.15,110.65L318.26,123.16L318.3,89.31L318.87,108.78L318.89,106.14L319.11,97.68L319.16,139.52L319.65,122.63L319.67,111.09L320.3,140.31L320.34,102.64L320.36,116.89L320.37,139.79L320.49,159.79L320.54,86.87L321.09,134.12L321.11,132.76L321.21,140.75L321.75,96.82L321.87,110.84L321.89,126.79L321.9,134.74L322.5,92.62L322.59,94.24L322.61,81.48L323.39,148.22L323.4,133.74L323.43,87.51L323.82,138.31L324.15,120.12L324.17,109.73L324.41,130.05L324.47,102.61L324.48,114.19L324.5,130.89L324.57,93.56L324.62,143.12L325.23,128.19L325.25,119.22L325.77,144.79L325.83,107.01L325.97,138.06L325.98,138.87L326.13,84.62L326.18,157.95L326.76,106.73L326.78,110.95L327.12,132.65L327.17,86.85L327.5,104.97L327.51,94.68L328.05,78.72L328.11,160.2L328.14,109L328.16,78.59L328.17,73.08L328.43,159.16L328.83,107.13L328.85,121.23L329.36,158.04L329.4,81.8L329.58,112.65L329.6,93.02L329.64,148.27L330.32,112.24L330.33,103L330.39,148.32L330.87,95.36L330.98,105.94L330.99,100.89L331.31,80.87L331.35,148.96L331.67,109.87L331.68,94.23L331.94,154.5L332,62.62L332.37,107.81L332.39,140.98L332.4,153.56L332.45,68.92L333.12,126.14L333.14,124.81L333.54,79.32L333.6,160.89L333.87,130.03L333.89,125.07L334.46,149.49L334.5,96.61L334.62,114.25L334.64,134.58L334.8,96.08L335.33,153.14L335.36,128.62L335.37,102.73L335.97,167.76L336.02,62.49L336.05,102.25L336.06,143.63L336.08,159.94L336.12,71.74L336.75,100.69L336.77,71.26L336.8,105.11L336.81,142.15L337.07,47.11L337.11,169.54L337.44,103.51L337.46,81.94L337.7,144.8L338.19,127.49L338.21,112.89L338.54,92.37L338.87,159.24L338.94,122.42L338.96,146.43L339.12,89.79L339.18,166.37L339.69,127.24L339.71,116.66L339.9,135.8L340.43,102.94L340.46,113.12L340.47,118.38L340.83,80.56L340.89,128.68L341.04,97.65L341.06,81.71L341.16,63.59L341.21,143.77L341.55,111.61L341.57,129.69L341.91,145.05L341.97,81.43L342.21,118.41L342.23,105.85L342.71,95.11L342.75,162.45L342.84,121.43L342.86,151.36L342.87,167.94L342.93,96.77L343.59,132.72L343.61,127.12L344.27,155.51L344.33,79.47L344.36,121.18L344.37,141.5L344.39,143.92L344.43,95L344.75,116.08L344.76,96.61L344.94,150.03L344.99,61.14L345.5,105.02L345.51,110.96L345.84,84.05L345.9,138.19L345.93,106.45L345.95,85.74L345.96,82.72L346.47,151.98L346.55,122.42L346.56,143.94L346.73,81.15L346.79,174.4L347.12,126.21L347.13,114.26L347.46,104.07L347.51,171.28L347.55,106.8L347.57,86.54L347.63,176.9L348.15,73.31L348.24,94.8L348.26,79.03L348.3,163.48L348.99,78.09L349.01,81.19L349.32,52.29L349.38,154.75L349.76,97.62L349.77,93.36L350.28,79.03L350.33,141.19L350.43,114.58L350.45,130.45L350.52,98.2L351.14,151.1L351.18,128.12L351.2,126.46L351.63,108.98L351.69,164.53L351.93,128.83L351.95,117.94L352.22,148.5L352.71,86.62L352.73,90.23L352.74,111.12L352.77,150.1L353.09,74.19L353.46,94.4L353.48,100L353.88,53.2L353.94,143.41L354.24,114.68L354.26,100.94L354.29,86.55L354.95,140.11L354.99,122.63L355.01,126.57L355.1,118.69L355.16,156.15L355.77,139.14L355.79,132.23L355.88,149.54L356.36,102.16L356.57,117.95L356.58,122.57L356.64,122.81L356.7,100.31L356.72,108.26L356.73,126.11L356.75,139.67L357.33,73.91L357.41,103.86L357.42,70.9L357.71,142.29L357.77,37.51L358.11,97.4L358.13,120.15L358.19,81.93L358.8,153.32L358.91,143.04L358.92,137.72L359.33,129.92L359.39,156.02L359.66,135.32L359.67,143.42L359.82,158.1L360.35,118.18L360.36,106.46L360.44,148.48L360.95,85.16L361.16,93.83L361.17,96.99L361.43,71.23L361.49,111.82L361.52,76.5L361.53,63.71L362.24,119.47L362.28,91.79L362.3,93.45L363.11,149.86L363.12,150.15L363.42,142.52L363.6,158.85L363.78,146.87L363.8,145.33L363.92,148.39L364.73,67.59L364.76,84.03L364.77,99.06L364.79,109.14L365.3,66.91L365.52,105.84L365.54,102.09L365.58,81.65L365.84,139.59L366.24,132.58L366.26,139.9L366.35,125.45L366.75,177.1L367.02,150.41L367.04,152.13L367.19,168.52L367.68,112.29L367.7,110.98L367.74,119.28L368.28,66.72L368.31,69.49L368.33,74.53L368.85,69.17L369.11,101.54L369.12,99.91L369.18,83.74L369.69,134.59L369.71,135.35L369.74,132.29L370.26,172.32L370.28,174.13L370.31,176.33L370.8,146.24L370.88,152.13L370.89,149.14L371.84,64.67L371.88,69.86L371.9,72.52L372.35,66.66L372.6,100.47L372.72,94.8L372.74,86.91L372.75,80.45L373.32,152.16L373.4,137.59L373.41,140.05L373.82,180.5L374.22,165.26L374.24,164.46L374.28,164.77L374.46,130.31L374.48,127.51L375.35,59.48L375.63,71.33L375.65,71.16L377.36,188.21L377.51,165.92L377.52,163.75L377.66,167.44L378.81,64.8L378.87,77.59L378.89,79.22L379.01,71.31L379.1,90.4L379.5,82.99L379.52,85.75L379.73,83.9L380.28,158.35L380.34,137.88L380.36,141.39L380.9,185.41L381.12,155.86L381.14,153.18L381.2,168.11L381.56,115.15L381.57,112.66L382.04,70.99L382.58,75.25L382.59,79.6L383.25,77.28L383.46,114.21L383.48,118.21L383.67,113.31L384.41,187.95L384.42,187.29L384.44,183.99L385.53,72.21L385.55,72.07L385.95,71.27L386.25,94.05L386.43,92.61L386.45,92.06L386.75,110.27L386.81,77.1L386.93,98.48L386.94,112.91L387.02,65.48L387.77,167.89L387.81,156.13L387.83,158.68L387.99,190.07L388.55,136.8L388.56,132.28L388.65,132.38L389.55,68.79L389.61,88.04L389.63,89.73L389.78,81.97L390.06,103.78L390.17,103.23L390.18,106.5L390.41,89.11L390.59,109.37L390.74,93.59L390.75,88.47L390.77,87.77L390.81,111.66L390.83,117.6L391.1,103.95L391.71,172.6L391.73,172.05L391.74,170.35L391.83,179.14L392.94,73.64L393.3,82.46L393.32,84.76L393.98,112.93L394.17,100.18L394.19,93.57L394.5,70.84L394.68,144.47L394.89,124.34L394.91,122.29L394.94,108.62L395.58,182.65L395.6,184.84L396.74,73.37L396.75,75L396.77,80.29L397.07,77.13L397.47,101.8L397.55,97.49L397.56,99.77L398.13,91.06L398.19,136.65L398.33,109.46L398.34,101.17L398.46,93.09L398.63,143.95L398.91,134.41L398.93,135.74L399,159.05L399.02,163.25L399.42,173.72L399.8,138.04L399.81,139.65L399.83,144.79L399.87,153.19L400.44,95.1L400.47,98.43L400.49,100.37L400.97,75.98L401.1,92.43L401.12,94.37L401.33,88.7L402.09,130.01L402.12,116.67L402.14,106.76L402.44,95.43L402.71,144.93L402.89,104.8L402.9,117.81L403.41,165.12L403.68,151.9L403.7,152.23L403.71,152.42L403.76,140.81L403.77,134.55L403.92,159.92L404.67,83.38L404.81,88.23L404.82,92.52L405,74.95L405.83,126.15L405.84,124.36L406.07,133.4L406.64,88.3L406.68,101.46L406.7,110.55L406.98,91.24L407.42,151.3L407.49,149.3L407.51,149.6L407.63,166.36L408.32,117.35L408.41,122.35L408.42,121.58L409.16,84.65L409.22,101.83L409.23,105L409.52,101.82L409.58,115.8L409.59,120.66L409.79,128.21L410.28,111.31L410.3,110.76L410.76,86.38L410.97,117.82L411.14,94.96L411.15,96.46L411.9,172.67L412.23,158.36L412.25,156.45L412.98,85.18L413.24,95.98L413.25,101.49L413.34,73.98L414.08,143.23L414.15,128.39L414.17,126.88L414.48,144.52L414.99,100.72L415.02,103.98L415.04,105.11L415.44,78.15L415.62,105.2L415.77,104.38L415.79,105.03L415.85,93.75L416.31,147.37L416.46,121.32L416.48,126.28L416.58,171.31L417.24,137.3L417.26,135.79L418.04,81.95L418.17,98.9L418.19,106.6L418.47,101.73L418.82,136.89L419,123.39L419.01,120.87L419.13,142.39L419.79,86.34L420.02,100.38L420.03,104.1L420.08,97.44L420.09,94.77L420.2,82.29L420.26,94.99L420.29,94.66L420.3,98.21L420.62,95.84L421.23,147.61L421.25,146.79L421.38,122.03L421.52,149.65L422.04,130.95L422.06,130.37L422.1,130.84L422.19,126.78L422.21,125.24L422.85,137.75L423.02,94.61L423.05,100.96L423.06,107.63L423.14,125.21L423.83,117.34L423.84,114.33L424.04,128.93L424.61,90.7L424.67,98.87L424.68,100.07L424.91,90.32L425.55,126.96L425.7,114.99L425.72,113.06L426.27,109.25L426.44,157.38L426.51,128.55L426.53,124.49L426.8,143.98L427.2,120.35L427.26,126.75L427.28,127.98L427.88,96.81L427.95,115.36L427.97,117.93L428.04,125.67L428.13,100.99L428.67,111.77L428.69,111.19L428.94,119.27L429.09,100.39L429.45,104.08L429.47,108.74L429.69,119.12L429.86,95.53L430.22,113.91L430.23,109.82L430.68,101.19L430.74,132.59L430.92,109.5L430.94,118.05L431.24,87.05L431.4,175.69L431.72,144.5L431.73,146.09L431.78,154.97L431.94,118.8L432.35,129.22L432.36,123.59L432.62,127.27L432.84,93.74L433.17,101.11L433.19,102.39L433.91,127.62L433.95,119.62L433.97,116.62L434.21,130.63L434.81,93.33L434.82,95.7L435.26,87.59L435.45,134.22L435.62,114.66L435.63,111.39L435.65,109.71L436.07,133.74L436.08,138.22L436.29,98.96L436.44,169.21L436.83,141.89L436.85,138.04L437.48,107.71L437.61,125.81L437.63,127.09L437.81,104.75L438.05,123.3L438.06,125.08L438.08,126.63L438.17,100.25L438.59,108.52L438.6,105.24L438.78,116.68L439.05,103.55L439.19,109.78L439.2,113.16L439.25,122.5L439.41,96.46L439.92,114.58L439.94,111.01L440.33,101.51L440.51,130.07L440.67,119.56L440.69,123.59L441,99.67L441.17,149.59L441.3,102.38L441.32,94.16L441.35,83.97L441.5,175.48L442.02,121.67L442.04,121.65L442.2,142.63L442.59,113.78L442.77,126.29L442.79,125.21L443.1,126.77L443.28,96.24L443.64,104.81L443.66,104.56L443.7,100.76L444.29,117.17L444.3,119.12L444.47,102.07L444.57,115.39L444.59,117.93L445.11,101.65L445.28,124.82L445.31,117.4L445.32,110.43L445.85,129.64L446.03,105.16L446.06,111.27L446.07,114.67L446.49,100.41L446.63,154.87L446.64,161.08L446.66,163.74L446.82,109.32L447.15,129.55L447.17,129.02L447.36,139.74L448.1,100.78L448.11,101.67L448.13,104.32L448.26,123.42L448.44,91.63L448.86,104.99L448.88,103.71L448.91,102.25L449.43,119.35L449.52,118.58L449.54,118.64L449.76,126.47L450.32,105.87L450.33,107.07L450.35,110.21L450.56,106.11L450.96,126.75L451.1,116.22L451.11,114.43L451.52,135.09L451.65,101.99L451.73,124.69L451.74,133.4L451.8,164.42L451.98,104.57L452.49,140.51L452.51,142.32L453.57,87.93L453.65,104.91L453.66,108.6L453.89,94.02L454.26,115.29L454.4,110.18L454.41,108L454.67,125.08L454.76,105.21L454.91,122.18L454.92,126.96L454.95,132.15L455.44,103.57L455.62,117.59L455.64,108.46L455.65,101.72L456.15,124.5L456.37,118.94L456.39,119.67L456.6,117.24L456.76,138.69L456.88,121.98L456.9,118.13L456.93,114.33L457.09,150.71L457.63,118.25L457.65,119.48L457.8,130.46L458.35,112.94L458.37,112.69L458.82,95.3L459.27,100.23L459.28,102.39L460.14,123.5L460.15,121.24L460.17,115.99L460.41,108.5L460.57,132.81L460.87,129.49L460.89,133.1L460.99,136.63L461.16,110.79L461.65,123.77L461.67,122.16L462.15,127.19L462.19,113.53L462.34,123.06L462.36,127.76L462.63,117.88L462.79,132L463.09,128.89L463.11,127.64L463.18,128.91L463.68,112.67L463.96,113.04L463.98,111.32L464.08,115.55L464.61,102.58L464.74,106.54L464.76,108.84L464.83,103.08L465.51,116.72L465.54,112.49L465.55,110.27L465.57,109.96L465.85,116.58L466.08,111.65L466.09,113.75L466.41,106.7L466.68,124.24L466.83,115.04L466.84,113.18L467.49,129.95L467.62,122.25L467.64,118.79L467.82,129.41L467.98,116.9L468.33,124.35L468.34,125.68L468.64,132.14L468.81,118.52L469.08,125.78L469.09,124.12L469.33,125.78L469.93,109.88L469.95,110.03L470.07,115.85L470.59,103.73L470.61,103.61L470.65,101.22L471.15,112.83L471.16,114L471.34,109.65L471.52,117.16L471.72,113.63L471.73,116.42L472.02,108.87L472.2,121.73L472.45,115.92L472.47,113.26L472.48,112.84L472.87,124.82L473.05,120.35L473.07,120.64L473.59,128.23L473.74,119.05L473.76,117.8L474.37,126.98L474.49,120.31L474.51,120.15L474.64,127.6L475.15,118.43L475.26,120.02L475.27,121.01L475.33,122.85L475.84,116.47L475.93,116.86L475.95,116.85L475.99,119.83L476.49,104.32L476.58,105.81L476.59,104.11L476.7,102.34L477.55,113.03L477.58,111.93L477.6,110.81L477.97,120.32L478.03,108.16L478.06,116.38L478.08,122.34L478.15,107.63L478.65,130.82L478.78,118.59L478.8,114.48L478.86,128.59L479.58,126.2L479.59,123.79L480.07,113.95L480.25,125.51L480.34,122.45L480.36,123.43L480.42,118.19L480.6,129.26L480.91,126.53L480.93,128.06L480.94,128.49L481.2,119.13L481.5,120.54L481.51,118.35L481.71,126.52L482.31,108.14L482.32,108.38L482.34,110.42L482.37,114.83L482.53,104.27L483.07,107.85L483.09,107.39L483.12,105.55L483.7,115.87L483.78,113.99L483.79,116.16L483.85,109.09L484.36,122.52L484.51,115.25L484.53,113.96L485.05,126.28L485.29,120.45L485.31,117.3L485.49,129.39L485.65,113.75L486.01,120.9L486.03,122.5L486.07,120.31L486.66,126.62L486.72,123.43L486.73,125.21L486.76,127.03L487.26,117.96L487.44,123.23L487.45,121.93L487.9,122.63L488.28,114.05L488.29,114.55L488.32,115.87L488.71,106.29L488.95,110.64L488.97,110.53L489.12,106.17L489.28,112.04L489.57,111L489.58,112.99L489.88,108.96L490.36,117.14L490.38,116.35L490.42,111.15L491.04,120.79L491.11,118.63L491.13,120.48L491.31,117.26L491.79,128.02L491.91,125.51L491.92,122.45L492.06,118.01L492.54,126.9L492.69,119.45L492.7,119.26L492.85,126.64L493.45,121.27L493.47,121.16L493.51,122.73L493.9,118.37L494.17,118.93L494.19,118.77L494.37,119.68L494.94,108.7L494.95,108.14L495.12,111.15L495.27,105.8L495.55,109.27L495.57,108.37L495.6,107.56L496.15,113.08L496.24,112.33L496.26,113.27L496.3,111.1L496.77,116.5L496.86,115.73L496.87,115.96L497.01,114.08L497.41,119.36L497.43,119.23L497.46,118.94L497.85,125.13L498.03,123.07L498.04,123.71L498.31,121.27L498.81,126.31L498.82,125.32L498.84,124.25L498.9,125.43L499.57,121.75L499.62,121.91L499.63,121.9L500.14,117.44L500.35,120.12L500.37,120.42L500.4,120.82L500.92,115.64L500.94,115.18L501.78,106.31L501.82,106.57L501.84,106.87L502.83,115.01L502.84,114.73L502.86,114.46L504.12,124.42L504.16,123.38L504.18,123.43L504.22,124.36L504.85,121.24L504.87,120.7L505.63,124.55L505.75,123.84L505.77,123.34L505.98,123.74L506.64,117.93L506.65,117.92L506.91,119.41L507.3,118.27L507.31,118.11L507.93,109.25L507.94,108.9L508.63,105.79L508.78,107.76L508.8,107.97L508.84,107.82L509.05,109.65L509.07,110.03L510.07,120.17L510.15,120.02L510.16,120.16L510.67,124.97L511.05,123.46L511.06,122.96L511.35,120.91L511.63,123.33L511.81,122.94L511.83,123.44L512.11,124.84L512.56,122.78L512.58,122.76L513.07,118.65L513.09,118.48L513.24,117L513.87,117.4L513.88,117.36L514.29,113.11L514.3,112.73L515.01,105.84L515.35,107.23L515.37,107.46L515.88,113.78L515.89,114.05L517.3,124.4L517.57,124.05L517.59,123.78L517.87,122.31L518.13,124.99L518.31,124.52L518.32,124.52L518.49,125.8L518.97,123.61L518.98,123.31L519.87,115.8L520.24,117.78L520.26,117.81L521.61,107.03L522.04,108.44L522.06,108.57L523.53,119.6L523.54,119.53L525.15,126.73L525.16,126.62L525.18,126.47L525.36,126.9L526.2,119.4L526.21,119.23L526.72,115.51L527.07,116.78L527.08,116.71L527.26,117.21L528.07,108.47L528.09,108.11L528.45,106.66L528.82,108.7L528.84,108.74L529.98,118.48L530.05,118.23L530.07,118.24L530.1,117.96L530.59,121.4L530.67,121.02L530.68,121.35L530.74,120.96L530.94,122.87L531.24,122.53L531.25,122.73L531.88,127.41L532.26,125.83L532.27,125.51L532.6,122.9L532.62,122.51L533.31,114.85L533.53,115.86L533.55,115.83L533.97,117.51L534.22,115.25L534.24,114.81L535.18,106.08L535.24,106.45L535.26,106.58L535.62,108.9L535.63,109.02L537.21,120.75L537.22,120.67L537.24,120.55L538.77,128.01L538.99,126.36L539.01,126.21L539.49,121.23L539.5,120.96L540.09,114.18L540.51,117.19L540.52,117.19L540.67,116.67L540.73,117.39L540.9,116.5L540.91,116.26L541.24,112.77L541.26,112.43L541.51,109.6L541.53,109.37L541.98,106.27L542.32,108.39L542.34,108.52L543.28,118.35L543.46,117.88L543.48,117.83L544.14,121.67L544.66,120.82L544.68,120.71L545.79,126.25L546.04,124.8L546.06,124.61L546.87,115.62L547.21,116.22L547.23,116.36L547.63,118.06L547.93,115.73L547.95,115.69L548.98,106.91L549.24,108.61L549.25,108.74L549.75,114.68L549.76,114.99L551.04,121.22L551.07,121.21L551.08,121.15L551.59,119.86L551.88,120.71L551.89,120.82L552.7,126.12L553.05,124.63L553.06,124.54L554.11,115.08L554.52,116.7L554.53,116.89L554.86,117.47L555.12,116.49L555.13,116.46L556.17,108.09L556.53,109.51L556.54,109.69L558.31,119.87L558.33,119.99L558.54,119.84L559.74,122.93L559.75,123.23L560.13,124.78L560.5,123.23L560.52,123.1L561.78,115.94L562.18,116.81L562.2,116.87L562.63,116.16L562.65,116.05L564,110.49L564.21,111.19L564.22,111.28L564.61,113.61L564.63,113.75L566.29,121.06L566.47,120.75L566.49,120.75L567.36,122.22L567.39,121.98L567.4,121.97L567.52,121.75L567.72,122.45L567.9,122.36L567.91,122.47L567.93,122.62L568.47,121L568.48,120.91L569.4,116.94L569.41,116.74L570.33,115.85L570.37,116.03L570.39,116.02L570.97,114.66L570.99,114.54L571.96,111.82L572.22,112.03L572.23,112.13L573.28,117.3L573.3,117.45L574.26,120.63L574.42,119.92L574.44,119.93L574.62,120.51L575.11,119.47L575.13,119.35L576.1,121.52L576.13,121.4L576.15,121.29L576.19,121.62L576.7,120.02L576.73,120.16L576.75,120.08L577.62,117.11L577.63,117.14L577.65,117.18L578.14,118.04L578.5,117.41L578.52,117.38L579.87,111.47L580.11,112.31L580.12,112.43L581.77,118.98L581.79,118.96L582.01,119.09L582.52,117.98L582.64,118.17L582.66,118.34L583.18,119.7L583.45,119.11L583.47,119.02L583.53,119.52L583.93,118.31L584.14,118.53L584.16,118.38L584.28,118.23L585.27,120.43L585.31,120.38L585.33,120.36L585.63,120.78L585.9,119.9L585.99,119.92L586,119.72L586.32,117.84L586.33,117.63L587.56,113.53L587.58,113.59L589.48,118.41L589.6,118.33L589.62,118.32L590.94,118.02L591,118.12L591.01,118.15L591.85,117.55L592,117.98L592.02,118.05L593.08,119.29L593.29,118.85L593.31,118.79L594.75,117.78L594.78,117.83L594.79,117.94L596.02,116.73L596.04,116.78L597.88,116.84L597.9,116.91L598.66,117.67L598.81,117.62L598.83,117.63L599.98,117.76L600,117.71L601.32,117.62L601.33,117.65L601.35,117.69L602.76,117.55L602.77,117.51L602.79,117.47L606.7,117.54L606.72,117.58L607,117.6" style="vector-effect: non-scaling-stroke; fill: none; stroke: rgb(128, 128, 128); stroke-opacity: 1; stroke-width: 3px; opacity: 1;"/></g><g class="points"/><g class="text"/></g><g class="trace scatter trace275217" style="stroke-miterlimit: 2; opacity: 1;"><g class="fills"/><g class="errorbars"/><g class="lines"><path class="js-line" d="M0,117.45L0.31,116.95L0.36,118.09L0.72,117.64L0.73,117.18L1.5,117.86L1.51,117.5L1.69,117.91L2.01,117.09L2.17,117.23L2.19,117.14L2.37,118.46L2.59,116.36L2.77,116.82L2.79,115.95L3.16,119.05L3.49,115.77L3.51,114.63L3.64,114.25L3.67,122.6L3.69,133.41L3.85,91.06L4.3,143.94L4.42,126.07L4.44,121.47L4.53,138.65L5.34,91.06L5.35,95.57L5.37,104.15L5.44,98.52L5.97,143.94L6.15,133.24L6.16,133.84L6.24,143.94L6.36,111.89L6.37,106.41L6.69,91.06L6.79,132.98L7,122.52L7.02,125.93L7.06,131.87L7.71,109.48L7.72,106.9L7.86,125.21L7.9,91.06L7.93,121.97L7.95,134.46L8.05,143.94L8.58,91.06L8.71,104.83L8.73,107.47L9.03,98.24L9.09,130.49L9.15,111.98L9.16,128.21L9.52,143.94L9.82,94.61L9.84,92.06L9.94,91.06L10.51,143.12L10.63,130.22L10.65,117.55L10.71,136.65L11.16,94.48L11.38,117.86L11.4,124.11L11.5,143.07L12.21,98.67L12.24,109.52L12.25,113.85L12.49,91.06L12.87,121.71L12.91,116.08L12.93,118.13L13.29,103.19L13.71,143.96L13.8,132.48L13.81,132.06L13.87,129.13L13.92,135.6L13.93,139.59L13.95,142.22L14.14,91.06L14.37,101.46L14.38,99.43L14.4,98.49L14.5,127.57L14.52,131.56L14.7,110.62L15.09,137.46L15.21,117.89L15.22,113.43L15.49,91.06L15.78,130.49L15.79,132.82L15.9,143.94L16.15,109.93L16.2,111.71L16.21,108.01L16.26,97.61L16.66,124.07L16.93,113.05L16.95,112.27L17.22,140.48L17.61,91.06L17.76,104.17L17.77,105.64L18.01,143.94L18.3,124.54L18.31,122.11L18.96,94.83L19.08,117L19.09,121.78L19.36,143.94L19.78,107.71L19.8,102.81L19.81,99.82L20.46,129.11L20.47,133.33L20.7,143.94L20.97,111.54L20.98,110L21.15,91L21.45,123.52L21.46,125.16L21.6,143.94L21.97,102.85L21.99,99.54L22.21,91.06L22.62,132.31L22.63,138.53L22.74,139.61L22.93,120.37L22.95,117.83L23.01,129.61L23.4,91.06L23.58,107.59L23.59,104.68L23.83,138.02L24.34,119.94L24.36,118.9L24.61,103.04L25,130.33L25.02,133.88L25.14,143.94L25.59,91.06L25.6,91.18L25.98,130.1L26.59,121.77L26.61,117.96L26.94,102.86L27.27,122.32L27.34,117.52L27.36,119.28L27.55,143.94L27.96,97.75L27.97,94.82L28.02,91.06L28.36,128.79L28.38,133.03L28.45,143.94L28.87,107.11L29.08,122.17L29.1,119.22L29.46,91.06L29.77,134.48L29.79,136.95L29.91,143.94L30.33,91.06L30.43,100.59L30.45,103.62L30.72,130.2L31.2,110.24L31.21,106.03L31.23,105.29L31.33,125.7L31.35,129.31L31.39,143.94L31.84,94.04L32.08,130.27L32.1,128.76L32.28,143.94L32.47,107.22L33.01,111.17L33.03,110.29L33.37,123.2L33.58,113.3L33.6,111.46L33.82,98.55L33.99,118.26L34.06,115.31L34.08,119.8L34.57,104.26L34.9,143.94L34.93,141.44L34.95,139.75L35.05,141.62L35.28,92.89L35.61,126.28L35.62,130.43L35.71,143.94L36.16,106.02L36.22,106.68L36.24,105.84L36.34,101.62L36.79,124.9L36.81,124.87L36.82,124.76L36.87,125.26L36.94,120.57L36.96,119.71L37.24,105.86L37.69,118.53L37.71,119.56L37.96,106.84L38.37,137.03L38.38,140.38L38.5,143.94L38.79,100.35L38.8,98.47L38.85,93.98L39.19,134.2L39.21,136.31L39.31,143.94L39.67,110.48L39.69,109.47L39.87,100.91L40.3,123.96L40.32,124.77L40.36,126.45L40.77,105.25L40.86,106.94L40.87,107L40.9,105.83L41.2,118.94L41.26,116.16L41.28,117.6L41.56,109.31L41.91,143.94L42.1,125.33L42.12,122.25L42.36,91.06L42.76,143.94L42.79,143.45L42.81,143.1L43.17,108.07L43.77,114.83L43.78,116.73L44.04,129.2L44.37,101.97L44.38,102.14L44.4,101.53L44.43,99.23L44.89,125.95L45.07,111.61L45.09,110.51L45.22,103.33L45.49,139.07L45.54,138.58L45.55,140.75L45.58,143.94L45.91,96.05L45.94,97.05L45.96,96.86L46.02,92.42L46.3,140.2L46.32,141.99L46.36,143.94L46.71,111.88L46.72,110.78L46.8,113.14L46.95,108.46L47.35,112.08L47.37,113.18L47.68,123.15L48.04,107.77L48.06,106.84L48.16,104.58L48.3,109.45L48.31,111.83L48.79,104.91L49.24,143.94L49.27,139.1L49.29,134.6L49.6,92.05L50.02,141.56L50.04,142.6L50.07,143.94L50.32,112.17L50.43,112.33L50.44,111.81L50.71,120.86L51.03,105.9L51.18,110.39L51.19,114.07L51.33,124.12L51.76,103.54L51.85,103.71L51.87,103.2L52.72,135.5L52.74,136.3L52.84,144.02L52.99,133.88L53.01,130.97L53.28,92.69L53.7,143.94L53.71,143.6L53.73,142.09L54.69,103.92L54.7,104.08L54.72,104.53L55,123.34L55.48,106.75L55.5,107L55.54,104.7L55.89,120L56.07,115L56.08,120.28L56.43,143.94L56.73,104.51L56.74,101.78L56.86,93.67L57.22,134.54L57.24,135.14L57.31,139.33L57.6,116.4L57.66,118.39L57.67,118.11L57.93,127.2L58.06,113.09L58.08,110.53L58.32,91.06L58.68,122.24L58.77,121.96L58.78,122.13L59.17,105.75L59.67,110.03L59.68,111.6L60.04,143.94L60.4,110.25L60.42,108.81L60.49,100.49L60.96,129.33L61.06,124.61L61.08,123.92L61.56,130.98L61.95,91.06L62.14,107.67L62.16,109.23L62.41,122.32L62.79,103.26L62.95,114.02L62.97,114.67L63.28,109.39L63.78,143.94L64.02,127.82L64.03,126.45L64.23,107.89L64.62,126.27L64.63,126.39L64.92,116.44L65.08,125.3L65.1,125.65L65.26,131.59L65.38,122.69L65.4,120.59L65.74,91.06L66.22,105.56L66.24,105.28L66.34,101.44L66.84,115.2L66.9,110.89L66.91,114.24L67.35,143.94L67.68,120.88L67.69,119.17L67.99,125.5L68.41,107.58L68.55,113.2L68.56,114.46L68.82,132.74L69.1,107.43L69.12,106.14L69.52,110.23L69.93,91.06L69.99,94.53L70,95.14L70.81,136.71L71.13,124.01L71.14,122.74L71.17,121.95L71.47,136.85L71.49,138.78L71.62,143.94L72.03,128.55L72.16,129.69L72.18,130.57L72.21,131.67L72.58,105.56L72.6,105.05L72.94,122.89L73.27,101.1L73.29,98.96L74.04,91.06L74.07,92.27L74.08,93.74L75.52,144.07L75.6,144L75.61,143.94L75.94,129.45L75.96,128.36L76.99,95.16L77.01,95.08L77.43,91.06L77.59,95.41L77.61,95.57L79,143.94L79.35,137.97L79.36,137.26L81.01,91.02L81.21,96.69L81.22,97.65L82.78,143.94L82.89,141.24L82.9,140.91L83.55,117.81L83.56,117.17L84.19,90.92L84.76,93.84L84.78,94.28L86.4,143.94L86.53,140.97L86.55,140.32L88.3,91.06L88.44,93.93L88.45,94.55L90.07,143.94L90.21,140.08L90.22,139.43L90.91,116.23L90.93,115.39L91.96,90.92L92.08,93.54L92.1,93.84L93.78,143.94L93.85,142.41L93.87,142.07L95.47,91.06L95.67,93.53L95.68,93.55L96.03,105.03L96.04,105.53L97.42,143.94L97.63,139.67L97.65,139.27L99.34,90.89L99.55,92.95L99.57,93.38L100.75,143.94L101.14,141.37L101.16,141.5L101.2,142.21L101.61,131.87L101.62,131.5L103.23,91.06L103.32,93.74L103.33,94.16L104.08,127.77L104.1,128.77L104.98,143.94L105,143.83L105.01,143.7L105.07,143.75L105.31,135L105.33,134.34L106.6,93.08L106.62,92.8L106.8,91.06L107.2,99.59L107.22,99.68L108.73,143.94L108.9,142.55L108.91,142.29L109.33,129.93L109.35,129.03L110.53,91.78L110.58,93.02L110.59,92.73L110.77,90.92L111.03,98.78L111.04,99.18L111.37,117.37L111.39,118.48L112.18,141.69L112.3,140.98L112.32,140.88L112.57,143.94L112.87,137.45L112.89,137.45L112.9,137.06L114.55,91.05L114.66,92.21L114.67,92.88L116.38,143.94L116.4,143.64L118.12,91.96L118.14,91.84L118.27,91.05L118.48,93.62L118.5,93.98L120.19,143.94L120.33,141.69L120.34,141.24L122.1,91.06L122.34,94.57L122.35,94.97L122.58,104.9L122.59,105.27L123.6,143.94L124.14,141.46L124.15,140.9L126.03,91.06L126.19,94.39L126.21,94.55L126.3,99.24L126.31,99.96L127.86,143.94L128.07,141.69L128.08,141.29L129.82,91.06L130.02,94.77L130.03,95.03L131.82,143.94L131.88,142.86L131.89,142.06L133.57,91.06L133.6,91.31L133.62,91.68L135.61,143.94L135.63,143.77L137.38,91.06L137.47,92.24L137.49,92.6L137.53,91.69L137.77,100.99L137.79,102.16L138.79,142.44L138.9,141.38L138.91,141.02L139.26,143.94L139.9,124.27L139.92,123.8L141.13,91.01L141.37,92.13L141.39,93.04L142.53,142.99L142.54,143.41L142.57,143.94L142.93,141.04L143.22,142.58L143.23,142.28L144.07,109.81L144.09,109.22L144.97,91.06L145.05,92.19L145.06,92.62L145.12,91.94L145.41,104.92L145.42,105.94L146.97,143.94L147.03,142.74L147.04,142.16L148.75,91.06L148.98,92.63L148.99,93.53L150.19,143.94L150.69,141.23L150.7,141.18L150.88,136.51L150.9,135.94L152.6,91.05L152.65,91.53L152.66,91.8L152.83,102.52L152.84,103.99L153.71,143.94L153.95,141.43L153.97,140.85L155.26,91.06L155.36,95.7L155.38,95.83L155.41,95.64L155.57,98.55L155.72,97.91L155.74,98.79L155.86,96.01L156.83,142.87L157.01,136.63L157.03,136.5L157.18,143.94L157.57,117.28L157.64,118.51L157.66,116.53L157.88,120.59L158.45,108.37L158.47,106.7L158.56,109.28L159.28,93.19L159.29,93.59L159.31,94.51L159.5,91.06L160.43,143.94L160.55,138.4L160.57,137.84L160.69,138.84L161.24,112.13L161.72,114.95L161.74,114.59L162.34,92.26L162.7,95.66L162.71,95.03L162.77,91.06L163.15,113.62L163.16,113.21L163.18,112.37L163.82,143.94L164.09,136.17L164.11,133.12L164.63,108.28L164.89,122.21L164.9,122.25L165.47,105.92L165.49,105.09L165.77,97.35L165.8,101.1L165.82,103.98L166.13,91.06L166.66,125.73L166.67,125.16L166.69,125.26L167.21,143.94L167.47,132.77L167.48,130.19L167.95,108.47L168.28,122.3L168.29,121.9L168.71,112.86L168.8,113.58L168.82,111.81L169.52,91.06L169.64,96.34L169.66,99.2L170.56,143.63L170.57,143.94L171.31,106.28L171.58,120.3L171.59,120.45L171.83,121.4L172,115.93L172.06,116.71L172.07,115.65L172.16,116.27L172.88,91.06L173.09,103.45L173.11,104.03L173.14,103.48L173.32,115.35L173.33,118.85L173.87,143.98L174.14,131.74L174.16,130.33L174.65,108.26L174.98,116.64L175,117.05L175.22,120.96L175.6,111.03L175.61,110.36L176.32,99.81L176.45,106.45L176.47,108.98L176.98,143.94L177.29,136.01L177.31,134.16L177.98,106.66L178.16,116.31L178.18,117.35L178.48,121.14L179.26,98.97L179.38,102.56L179.39,103.91L179.45,99.31L179.59,113.83L179.6,116.99L180.1,143.94L180.43,135.74L180.44,134.74L181.09,104.88L181.4,115.13L181.42,116.02L181.58,119.81L181.93,105.66L182.05,110.04L182.06,109.13L182.36,99.89L182.65,118.53L182.66,119.6L182.83,118.43L183.07,137.94L183.08,140.76L183.13,143.94L183.28,126.87L183.64,128.13L183.65,126.2L184.16,103.79L184.51,112.26L184.52,112.05L184.58,111.26L184.63,115.42L184.64,118.11L184.67,121.17L185,104.93L185.29,107.89L185.3,107.08L185.47,102.69L185.72,120.68L185.74,123.25L185.9,114.98L186.19,143.94L186.61,136.04L186.62,135.38L187.19,106.07L187.64,108.78L187.66,111.76L187.7,117.09L188.03,104.62L188.38,104.72L188.39,105.06L188.47,100.14L188.63,106.26L188.68,104.14L188.69,108.34L189.19,143.94L189.5,133.04L189.52,131.74L189.59,139.69L189.74,122.74L189.79,122.96L189.8,121.06L190.22,106.64L190.3,123.74L190.66,108.55L190.67,111.32L190.72,119.89L191.06,103.06L191.39,107.46L191.41,105.33L191.44,99.62L191.8,127.62L192.08,124.13L192.1,126.84L192.22,143.94L192.8,117.93L192.82,117.34L192.94,122.76L193.18,110.5L193.19,107.2L193.21,105.63L193.28,126.92L193.78,117.83L193.79,120.83L193.81,121.7L194.03,98.92L194.05,96.88L194.45,91.06L195.19,143.94L195.32,125.54L195.34,125.12L195.62,136.6L196.19,101.18L196.22,113.64L196.24,121.73L196.25,126.04L196.6,109.73L196.96,110.51L196.97,109.13L197.45,91.06L197.65,114.3L197.66,115.96L197.89,106.71L198.14,143.94L198.56,139.21L198.58,138.03L199.12,99.06L199.43,113.17L199.45,112.87L199.7,124.29L200.39,91.06L200.45,94.85L200.47,95.8L201.05,143.94L201.47,143.29L201.49,143.23L202.06,91.06L202.46,99.87L202.48,102.87L202.55,123.32L203.21,96.73L203.23,94.42L203.26,91.06L203.57,131.1L203.83,128.99L203.84,132.41L203.95,144.04L204.14,123.22L204.47,124.29L204.49,121.99L204.62,127.8L204.95,103.63L205.31,105.1L205.33,103.14L205.34,102.77L205.54,120.01L205.84,108.51L205.85,112.11L206.24,98.59L206.42,130.94L206.57,110.22L206.59,109.1L206.6,107.83L206.81,143.94L207.1,134.58L207.11,138.34L207.13,139.68L207.4,113.94L207.59,121.59L207.61,121.23L207.64,121.57L207.76,109.5L207.77,107.89L207.83,101.33L208.01,125.46L208.4,114L208.42,115.79L208.45,118.56L208.99,102.4L209.12,107.18L209.14,107.76L209.15,107.46L209.23,123.14L209.24,127.4L209.47,111.78L209.69,143.94L210.05,137.28L210.07,134.83L210.65,102.82L210.92,114.22L210.94,112.93L211.27,118L211.42,105.1L211.7,109.07L211.72,111.03L211.79,104.05L212.51,143.94L212.95,132.64L212.96,131.67L213.5,101.31L213.94,108.84L213.95,110.65L214.12,115.72L214.61,103.74L214.63,101.3L214.64,99.95L214.94,125.19L215.2,121.36L215.21,124.52L215.66,143.94L215.93,121.97L215.95,121.7L216.05,129.93L216.22,114.63L216.23,112.48L216.46,116.65L216.68,101.64L217.03,104.81L217.04,104.6L217.22,110.44L217.51,101.75L217.58,107.64L217.6,109.38L217.85,108.73L218.45,143.94L218.47,142.75L219.4,104.21L219.44,104.56L219.46,103.99L219.58,112.89L219.79,102.85L219.8,100.23L219.82,99.04L220.36,109.46L220.37,112.18L220.61,109.36L221.2,143.94L221.27,137.21L221.29,135.18L222.2,102.19L222.22,102.57L222.23,103.52L222.25,104.18L222.62,92.57L222.64,91.45L222.65,91.06L223,104.92L223.01,106.87L223.06,103.1L223.43,128.14L223.45,129.37L223.87,143.94L224.23,134.2L224.24,133.23L224.35,134.15L225.25,91.05L225.38,94.35L225.4,95.11L226.39,142.74L226.48,142.07L226.49,141.95L226.72,143.94L227.92,91.06L227.99,92.95L228.01,94.08L228.94,139.41L228.95,140.02L229.33,143.94L229.48,132.04L229.55,134.85L229.57,132.03L229.64,133.75L230.44,91.86L230.5,92.34L230.51,92.13L230.62,96.04L230.75,91.06L230.78,96.01L230.8,101.24L230.87,96.22L231.59,141.04L231.65,137.87L231.67,139.1L231.92,143.94L232.31,126.84L232.33,126.19L233.09,91.06L233.5,99.12L233.51,103.33L233.59,100.91L234.5,142.92L234.52,143.72L234.53,143.94L234.77,133.3L234.79,131.53L234.85,138.58L235.3,111.41L235.31,107.29L235.9,91.06L236.11,97.81L236.12,102.75L236.2,98.35L236.9,139.97L237.05,137.89L237.07,138.37L237.14,143.94L237.7,124.65L237.71,123.45L238.45,91.06L238.72,103.52L238.73,105.39L238.79,97.18L238.93,109.52L238.94,110.51L238.96,110.17L239.15,119.13L239.17,120.12L239.23,119.04L239.72,143.94L240.08,133.79L240.1,132.26L241.03,91.06L241.42,101.54L241.43,101.9L241.46,100.19L241.82,121.05L241.84,122.08L242.44,143.94L242.69,133.84L242.71,133.75L242.78,134.55L242.83,129.6L242.84,127.93L243.65,91.06L244.04,100.02L244.06,101.38L244.99,143.94L245,143.37L246.05,96.83L246.11,97.59L246.13,96.28L246.23,91.06L246.77,111.13L246.79,111.04L246.8,111.06L247.52,143.94L247.9,137.91L247.91,135.53L248.78,91.06L248.99,96.37L249.01,96.85L249.08,93.83L249.29,107.93L249.31,108.96L250.06,143.94L250.46,135.87L250.48,135.24L251.32,91.06L251.75,101.23L251.77,103.49L252.62,143.94L252.73,140.36L252.74,139.45L252.91,141.49L253.87,91.06L254.32,100.79L254.33,102.59L255.14,143.94L255.5,139.94L255.52,139.67L255.55,140.17L255.71,127.23L255.73,127.01L255.76,127.39L255.92,116.75L255.94,115.85L256.72,91.06L256.87,101.06L256.88,102.12L257.66,143.94L258.17,132.52L258.19,132.84L259.24,91.06L259.4,101.28L259.42,102.42L260.51,143.94L260.56,143.48L260.57,142.92L261.7,91.06L261.95,102.63L261.97,103.37L263.02,143.94L263.15,135.17L263.17,132.65L263.21,134.76L263.51,117.88L263.53,116.58L264.26,91.06L264.4,96.71L264.41,98.02L265.55,143.94L265.69,135.12L265.7,133.33L266.77,91.06L266.9,97.58L266.92,99.03L268.03,143.94L268.07,140.68L268.09,139.48L269.17,91.06L269.48,102.06L269.5,102.53L270.47,143.94L270.71,133.8L270.73,131.92L271.72,91.06L271.82,92.26L271.84,94.3L272.8,143L272.83,142.67L272.84,142.3L273.13,143.94L273.25,134.59L273.26,131.99L274.01,91.06L274.37,98.05L274.39,98.93L274.43,94.15L274.91,125.83L274.93,127.32L274.99,123.94L275.21,140.96L275.23,143.26L275.24,143.94L275.81,132.21L275.83,130.37L276.56,91.06L276.91,98.62L276.92,98.13L277,94.2L277.31,111.89L277.33,114.03L277.93,143.94L278.21,138.75L278.23,139.19L278.26,140.61L278.71,115.06L278.72,113.49L279.16,91.06L279.62,96.53L279.64,100.16L280.46,141.02L280.48,141.08L280.55,143.94L281.14,121.03L281.15,119.52L281.23,119.9L281.87,91.06L282.2,96.17L282.22,96.96L283.28,143.94L283.31,139.06L283.33,136.07L283.4,140.07L284.18,99.66L284.3,101.56L284.32,100.12L284.51,91.06L284.95,111.59L284.96,112.51L284.99,110.27L285.34,126.73L285.35,127.92L285.46,125.28L285.94,143.94L286.16,136.61L286.18,135.08L287.17,91.06L287.18,92.97L288.07,133.56L288.11,128.62L288.13,126.41L288.62,143.94L288.77,136.42L288.79,134.08L289.72,91.06L289.75,99.22L289.76,103.17L289.87,91.46L290.6,125.15L290.66,116.96L290.68,116.42L291.35,143.94L291.47,134.9L291.49,132.62L292.31,93.99L292.34,101.77L292.36,103.66L292.76,91.06L292.84,119.27L293.08,104.62L293.09,106.87L293.83,143.94L293.93,138.15L293.95,136.64L294.14,142.81L294.83,95.48L294.98,102.56L295,106.15L295.27,91.06L295.33,113.95L295.61,111.01L295.63,119.72L295.72,106.2L296.39,135.42L296.41,134.24L296.63,136.79L297.23,117.03L297.25,115.87L297.5,118.58L297.55,91.06L297.92,109.86L297.94,110.16L298.12,91.06L298.55,127.88L298.66,117.26L298.67,125.16L298.75,102.63L299.41,143.94L299.45,131.23L299.47,126.79L299.56,137.86L300.05,108.03L300.26,114.6L300.28,118.05L300.61,91.06L300.68,137.31L300.97,121.4L300.98,106.93L301.06,129.85L301.45,91.06L301.73,104.4L301.75,102.46L302.69,125.69L302.71,124L302.8,129.39L303.43,120.95L303.46,123.16L303.47,125.1L303.81,126.62L303.86,110.76L303.87,107.47L303.93,125.43L304.41,91.06L304.5,100.41L304.52,97.77L304.85,97.39L305.31,119.27L305.33,119.41L305.39,110.29L305.88,138.89L305.97,130.85L305.99,135.85L306.6,143.94L306.66,109.6L306.72,129.22L306.74,123.22L306.89,127.34L307.34,95.06L307.53,108.71L307.55,112.63L307.92,91.06L308.21,122.08L308.28,109.92L308.3,118.61L308.36,113.28L308.85,138.01L309.09,136.03L309.11,134.59L309.42,143.94L309.48,115.71L309.99,123.78L310.01,130.29L310.13,138.66L310.17,97.76L310.59,104.43L310.61,100.6L311.06,122.13L311.12,91.06L311.39,115.55L311.4,103.17L311.42,95.91L312.02,124.46L312.09,113.18L312.11,121.59L312.18,110.17L312.87,138.36L312.89,138.96L312.99,143.94L313.62,110.19L313.65,130.02L313.67,138.83L314.16,91.06L314.48,100.54L314.49,101.44L314.7,91.06L314.75,120.58L315.23,107.11L315.24,104.11L316.02,137.77L316.04,128.63L316.05,115.36L316.13,143.94L316.17,108.3L316.77,118.13L316.79,122.34L317.07,133.48L317.42,105.92L317.49,109.43L317.51,99.31L317.55,129.12L317.96,95.68L318.2,100.31L318.21,91.06L318.26,122.84L318.87,107.92L318.89,104.96L319.11,94.05L319.16,143.94L319.65,122.09L319.67,111.81L320.19,133.13L320.34,107.68L320.37,132.06L320.39,138.19L320.49,143.94L320.54,98.29L321.15,106.3L321.17,110.39L321.21,132.81L321.75,103.32L321.92,123.33L321.93,111.69L322.56,127.97L322.61,91.06L322.64,120.77L322.65,133.32L323.28,137.39L323.34,92.46L323.36,109.11L323.37,134.01L323.39,143.94L323.43,91.06L324.06,109.04L324.08,107.48L324.57,92.96L324.62,143.94L324.86,132.47L324.87,125.5L324.92,99.18L324.96,139.68L325.62,120.31L325.64,123.64L326.13,95.64L326.28,143.94L326.39,137.93L326.4,127.43L326.48,129.57L327.17,98.07L327.18,102.84L327.78,128.86L327.83,98.68L327.92,114.44L327.93,100.41L328.17,91.06L328.43,143.94L328.61,111.95L328.62,114.54L329.31,98.81L329.36,143.94L329.37,128.04L329.39,105.62L329.4,93.97L329.46,142.71L330.14,104.88L330.15,114.14L330.39,143.94L330.45,100.4L330.87,102.1L330.89,107.86L331.31,95.75L331.35,135.9L331.64,119.37L331.65,118.14L331.94,135.62L332,91.06L332.37,112.34L332.39,130.06L332.4,136.87L332.45,91.06L333.12,122.51L333.14,121.75L333.54,94.38L333.6,143.94L333.87,124.91L333.89,121.97L334.46,135.3L334.5,105.93L334.62,115.72L334.64,126.84L334.8,105.98L335.33,135.73L335.36,123.17L335.37,109.98L335.97,141.75L336.02,91.06L336.05,110.23L336.06,129.91L336.08,137.58L336.12,96.11L336.75,110.74L336.77,98.98L336.8,112.57L336.81,127.28L337.07,91.06L337.11,137.17L337.44,111.94L337.46,103.35L337.7,128.78L338.19,121.98L338.21,115.43L338.54,105.51L338.87,138.69L338.94,120.04L338.96,132.45L339.12,102.69L339.18,143.94L339.69,122.63L339.71,117.06L339.9,127.04L340.43,110.1L340.46,115.28L340.47,117.94L340.83,99.1L340.89,123.05L341.04,107.71L341.06,99.86L341.16,91.06L341.21,130.41L341.55,114.57L341.57,123.57L341.91,131.4L341.97,99.26L342.21,117.97L342.23,111.55L342.71,105.84L342.75,140.94L342.84,119.56L342.86,135.24L342.87,143.94L342.93,106.67L343.59,125.17L343.61,122.35L344.27,135.99L344.33,99.06L344.36,119.28L344.37,129.11L344.39,130.27L344.43,106.64L344.75,116.83L344.76,107.59L344.94,132.79L344.99,91.06L345.5,111.66L345.51,114.44L345.84,101.88L345.9,127.16L345.93,112.34L345.95,102.68L345.96,101.27L346.47,133.55L346.55,119.79L346.56,129.8L346.73,100.61L346.79,143.94L347.12,121.48L347.13,116.02L347.46,111.47L347.51,141.58L347.55,112.72L347.57,103.68L347.63,143.94L348.15,98.41L348.24,107.75L348.26,100.98L348.3,137.19L348.99,101.24L349.01,102.53L349.32,91.06L349.38,132.71L349.76,109.01L349.77,107.17L350.22,121.49L350.28,99.92L350.31,119.54L350.33,128.39L350.4,103.14L350.69,130.87L350.99,122.01L351,123.75L351.63,112.75L351.69,143.94L351.72,122.3L351.74,115.99L351.8,134.85L352.38,107.42L352.47,115.96L352.49,112.24L352.77,133.02L353.09,97.77L353.22,110.91L353.24,113.61L353.84,123.02L353.88,91.06L353.93,122.64L353.94,128.36L353.99,94.33L354.66,123.6L354.68,122.13L355.1,118.29L355.16,143.94L355.38,129.31L355.4,134.54L355.52,139.34L355.94,118.21L356.1,125.11L356.12,119.97L356.19,133.31L356.82,109.02L356.87,118.14L356.88,120.04L357.05,123.7L357.44,91.06L357.48,119.1L357.5,123.49L357.71,125.88L357.77,91.06L358.26,113.69L358.28,109.51L358.29,106.32L358.8,133.25L358.97,126.4L358.98,130.37L359.33,124.05L359.7,141.89L359.73,133.28L359.75,126.48L359.82,143.94L360.48,102.09L360.51,116.24L360.53,127.19L360.54,130.69L360.95,100.15L361.2,104.95L361.22,103.24L361.85,89.63L361.91,118.38L361.94,106.96L361.95,94.74L361.97,91.06L362.46,121.09L362.55,118.07L362.57,119.93L362.61,119.03L363.6,143.94L363.75,138.08L363.77,136.89L364.73,89.72L364.76,98.93L364.77,107.29L364.79,112.87L365.3,91.06L365.52,111.57L365.54,109.68L365.58,99.4L365.84,128.33L366.24,124.57L366.26,127.98L366.35,121.18L366.75,143.94L367.02,132.49L367.04,133.3L367.19,141.13L367.68,114.96L367.7,114.32L367.74,118.37L368.28,91.06L368.3,91.18L369.11,109.69L369.12,108.91L369.14,106.62L369.18,101.08L369.8,133.79L369.81,132.98L369.87,126.46L370.31,143.94L370.5,137.35L370.52,135.9L370.71,142.61L371.45,97.25L371.57,100.86L371.58,101.13L371.84,91.06L372.08,97.87L372.09,100.77L372.35,93.26L372.84,120.03L372.95,115.89L372.96,114.79L373.08,113.95L373.19,124.58L373.2,127.02L373.4,126.23L373.83,143.95L374.04,137.71L374.06,136.55L374.15,139.88L375.35,91.06L375.51,96.04L375.53,96.1L375.56,95.73L375.87,102.42L375.93,100.77L375.95,101.82L376.86,136.34L376.89,134.42L376.91,133.47L377.36,143.94L377.51,136.09L377.52,135.31L377.66,137.21L378.81,91.06L379.02,95.31L379.04,96.41L379.88,122.61L379.89,119.96L379.91,115.42L380.04,113.14L380.42,139.08L380.51,135.97L380.52,137.76L380.9,143.94L381.14,132.38L381.21,137.68L381.23,134.57L382.04,91.06L382.08,95.9L382.1,97.14L382.34,93.27L382.64,103.48L382.68,103.27L382.7,103.7L383.19,108.6L383.25,99.41L383.28,106.37L383.3,108.75L383.36,106.61L384.41,143.94L384.68,135.39L384.69,135.1L384.93,127.44L384.95,125.18L385.02,128.72L385.95,91.06L385.97,92.23L386.75,113.72L386.78,108.1L386.79,100.91L387.02,91.06L387.18,133.14L387.44,120.47L387.45,123.12L387.99,143.94L388.23,132.92L388.25,132.48L388.41,139.2L388.82,115.24L388.85,115.32L388.86,113.51L389.55,91.06L389.66,101.45L389.67,101.3L389.78,98.71L390.59,113.56L390.6,113.09L390.62,110.85L390.77,103.36L391.26,136.61L391.28,136.5L391.44,128.23L391.83,143.94L392.04,134.03L392.06,135.35L392.16,139.18L392.28,126.8L392.3,124.97L392.45,126.28L392.94,91.06L393.17,96.63L393.18,96.4L393.26,92.13L393.38,100.47L393.39,101.83L393.54,100.01L393.98,114.86L394.17,107.56L394.19,103.78L394.5,91.06L394.68,131.74L394.89,120.85L394.91,119.83L394.94,113.22L395.58,143.19L395.6,143.94L396.74,91.06L396.84,96.22L396.86,97.27L397.07,94.11L397.61,109.99L397.65,106.36L397.67,106.99L398.13,103.64L398.19,127.49L398.42,110.13L398.43,107.65L398.46,105.06L398.63,130.78L398.97,129.96L398.99,133.76L399.42,143.94L399.71,128.64L399.72,129.51L399.74,131.09L399.87,135.67L400.13,112.5L400.22,120.92L400.23,114.19L400.31,119.64L400.97,91.06L401.06,96.44L401.07,97.66L401.73,116.89L401.94,112.36L401.96,112.63L402.44,104.59L402.71,133.31L402.74,126.18L402.75,119.13L402.87,105.66L403.41,143.94L403.43,141.64L403.61,144.1L404.19,114.76L404.24,118.79L404.25,121.3L404.27,123.11L404.67,96.81L404.73,99L404.75,98.22L405,91.06L405.3,108.06L405.41,106.4L405.42,107.82L406.07,126.82L406.22,117.15L406.23,115.16L406.64,100.89L406.82,131.32L407,105.55L407.01,111.04L407.73,144.39L407.82,136.27L407.84,135.29L408.05,144.78L408.83,93.89L408.87,97.55L408.89,98.5L409.16,91.06L409.22,104.87L409.23,107.41L409.52,104.73L409.58,116.11L409.59,120.08L409.79,126.3L410.28,112.32L410.3,111.87L410.76,91.06L410.97,117.74L411.09,105.04L411.11,104.2L411.14,102.24L411.54,131.14L411.72,123.97L411.74,125.6L411.89,143.99L412.49,126.7L412.5,125.85L412.85,113.17L412.86,110.3L413.15,111.02L413.34,91.06L413.64,105.86L413.66,108.64L413.76,106.57L414.08,133.67L414.45,132.52L414.47,134.45L414.48,134.82L414.71,116.87L414.72,114.59L414.83,121.37L415.44,91.06L415.58,103.65L415.59,107.45L415.73,102.41L416.58,143.94L416.64,136.6L416.66,134.32L416.94,139.26L417.39,117.5L417.48,123.93L417.5,121.68L418.04,91.06L418.28,113.11L418.29,115.72L418.47,104.19L418.71,128.93L418.73,132.57L419.13,143.94L419.37,115.44L419.39,114.54L419.54,118L419.76,98.86L419.78,92.94L420.2,91.06L420.35,111.12L420.42,109.79L420.44,113.77L420.62,100.77L421.23,141.76L421.29,130.91L421.31,127.17L421.38,121.19L421.52,143.94L422.04,129.8L422.06,129.31L422.1,129.85L422.21,124.84L422.22,122.58L422.6,103.97L422.82,131.02L422.84,139L422.85,139.89L423.02,91.06L423.32,115.32L423.33,114.96L423.42,124.01L423.51,115.2L423.53,114.82L423.63,124.6L423.89,105.8L423.98,117.44L423.99,121.84L424.04,129.49L424.58,97.65L424.59,92.98L424.61,90.76L424.98,111.34L425.21,107.03L425.22,107.46L425.36,105.63L426.11,138.99L426.15,128.76L426.17,125.83L426.27,111.84L426.42,144.01L426.78,136.52L426.8,137.46L427.43,106.92L427.44,103.77L427.65,127.41L427.77,104.86L427.79,100.1L427.88,91.06L428.04,128.2L428.46,119.6L428.48,123.69L428.49,124.01L428.64,108.07L428.69,108.38L428.7,105.73L428.94,120.16L429.09,91.06L429.36,112.49L429.38,115.6L429.69,119.55L429.86,91.06L430.11,112.71L430.13,115.12L430.35,106.54L430.74,126.84L430.88,115.71L430.89,110.61L430.91,109.89L431.04,129.09L431.06,134.82L431.24,102.68L431.4,143.94L431.79,136.59L431.81,133.5L432.48,100.99L432.57,122.5L432.59,124.91L432.62,126.36L432.84,91.06L433.11,95.05L433.13,91.36L433.14,91.06L433.25,108.95L433.26,114.77L433.68,109.58L433.91,128.45L433.98,114L434,111.44L434.21,131.22L434.79,94.84L434.81,93.89L434.93,91.06L435.45,130.7L435.63,113.11L435.65,111.95L436.29,107.49L436.44,143.94L436.5,131.68L436.52,126.48L436.59,109.12L436.76,138.02L437.28,116.23L437.3,115.63L437.63,126.54L437.81,103.71L437.97,119.93L437.99,123.37L438.08,130.17L438.17,91.06L438.57,109.9L438.59,104.7L438.62,98.7L439.25,123.94L439.35,100.06L439.37,99.02L439.41,91.06L439.59,120.04L440.09,106.27L440.1,111.44L440.33,106.15L440.51,125.72L440.85,117.47L440.87,113.89L441.17,133.77L441.35,101.48L441.42,123.08L441.44,127.2L441.5,143.94L441.66,107.32L442.2,132.78L442.22,131.41L442.95,106.19L443.04,116.39L443.06,119.33L443.1,127.32L443.28,91.06L443.7,91.06L443.72,91.34L444.3,120.22L444.45,92.38L444.47,91.06L444.62,127.02L445.1,95.91L445.11,91.06L445.52,128.44L445.89,118L445.91,116.57L446.49,106.99L446.66,143.94L446.72,130.03L446.73,126.43L446.82,112.37L446.99,143.94L447.48,123.76L447.5,122.86L447.6,125.85L448.1,102.13L448.23,121.24L448.25,122.88L448.26,123.22L448.34,103.58L448.35,98.45L448.61,112.89L448.7,88.09L449.07,102.63L449.09,100.94L449.61,91.06L449.73,128.25L449.75,139.52L449.76,142.74L449.91,91.06L450.41,121.68L450.42,111.69L450.56,100.12L450.96,126.58L451.17,111.41L451.19,113.13L451.65,108.04L451.8,143.94L451.94,115.89L451.95,111.93L451.98,109.71L452.15,143.94L452.49,133.37L452.51,134.67L453.57,91.06L453.66,109.27L453.68,111.4L453.72,115.15L453.89,93.77L454.4,108.13L454.41,105.24L454.67,128.8L454.76,98.11L454.89,118.68L454.91,125.68L454.95,143.94L455.44,93.64L455.62,117.65L455.64,102.32L455.65,91.06L455.82,127.46L456.37,119.05L456.39,119.83L456.6,117.25L456.76,136.68L456.88,121.36L456.9,118.04L456.93,114.82L457.09,143.94L457.63,118.26L457.65,119.51L457.8,130.89L458.35,112.42L458.37,112.13L458.82,91.06L459.28,97.9L459.3,100.6L459.36,98.1L460.14,126.82L460.17,115.13L460.18,107.65L460.2,107.5L460.21,114.53L460.51,102.33L460.99,143.94L461.01,137.62L461.16,108.08L461.32,143.94L461.77,116.21L461.79,119.17L462.19,111L462.48,142.15L462.55,126.18L462.57,130.71L462.63,118.18L463.18,144.47L463.3,130.06L463.32,122.68L463.5,143.94L463.99,100.29L464.08,113.16L464.1,112.9L464.83,90.26L464.95,95.84L464.97,101.01L465.15,95.8L465.51,115.65L465.75,113.08L465.76,111.94L466.14,121.46L466.18,91.06L466.21,114.14L466.23,128.5L466.29,90.65L466.68,136.18L466.93,118.71L466.95,115.06L467.49,143.94L467.73,131.83L467.74,124.9L467.82,141.57L467.98,116.31L468.48,126.13L468.49,128.43L468.81,119.56L468.97,148.45L469.12,120.6L469.14,116.28L469.24,112.35L469.27,121.24L469.29,129.31L469.33,143.94L469.93,100.59L470.01,108.7L470.02,110.63L470.07,114.07L470.31,93.35L470.61,94.56L470.62,93.86L470.65,91.06L471.15,108.35L471.16,110.61L471.18,110.84L471.3,106.11L471.31,103.49L471.85,124.74L471.91,99.3L471.93,106.47L471.94,118.14L472.02,91.06L472.54,143.94L472.68,119.45L472.69,110.21L472.71,109.03L472.86,142.67L472.87,144.52L473.26,146.73L473.43,123.48L473.58,138.34L473.59,143.94L473.76,118.29L474.03,138.48L474.04,140.04L474.1,119.61L474.64,156.51L474.7,153.72L474.72,153.66L474.97,162.02L475.51,119.66L475.53,124.83L475.66,157.03L476.14,87.25L476.23,103.38L476.25,96.92L476.31,107.66L476.49,87.99L476.97,99.77L476.98,100.61L477.04,92.18L477.55,107.17L477.64,104.37L477.66,105.66L477.87,115.62L477.91,97.14L477.94,105.22L477.96,117.52L478.03,91.06L478.65,143.94L478.69,104.95L478.71,107.69L478.86,143.94L479.47,136.58L479.49,135.36L479.55,149.4L480.07,106.71L480.19,124.59L480.21,128.86L480.42,119.2L480.94,144.13L480.97,140.88L480.99,140.4L481.03,144.09L481.51,119.87L481.53,113.68L481.71,143.94L482.31,97.01L482.32,97.66L482.37,111.8L483.01,89.79L483.03,90.39L483.12,89.63L483.81,115.39L483.82,110.14L483.84,100.66L484.2,91.06L484.36,134.06L484.56,114.79L484.57,122.12L484.65,112.47L485.05,143.94L485.29,124.94L485.31,117.01L485.49,143.94L485.65,107.87L486.01,127.62L486.03,132.37L486.07,125.83L486.13,138.07L486.31,133.64L486.33,138.01L486.93,126.23L487.09,147.11L487.11,143.84L487.12,137.57L487.42,140.48L487.74,114.22L487.86,131.64L487.87,138.11L487.9,143.94L488.46,100.23L488.47,94.8L488.55,106.84L488.71,85.5L489.19,96.16L489.21,97.23L489.45,86.56L489.6,108.18L489.96,97.76L489.97,91.95L490.2,80.91L490.36,115.55L490.56,100.7L490.57,114.95L490.65,91.06L491.25,143.94L491.37,138.21L491.38,129.36L491.46,151.85L492.06,118.76L492.1,136.35L492.12,134.1L492.37,119.48L492.54,140.57L492.85,139.7L492.87,139.28L493.68,123.86L493.69,123.96L494.07,126.54L494.26,118.31L494.38,122.49L494.4,122.4L495.27,91.06L495.52,97L495.54,97.33L495.84,101.83L496.21,88.74L496.32,89.66L496.33,93.78L497.01,83.27L497.08,118.41L497.11,113.31L497.13,111.57L497.25,105.37L497.85,166.31L497.95,156.94L497.97,153.26L498.16,155.44L498.31,133.08L498.75,135.87L498.76,138.23L498.81,143.94L498.96,134.36L499.5,137.46L499.51,136.94L499.63,137.04L499.77,129.13L499.78,126.12L500.14,117.13L500.4,143.94L500.41,142.98L500.43,140.66L501.49,90.54L501.51,90.91L501.9,93.51L502.09,87.28L502.24,90.69L502.26,90.07L502.44,84.77L502.83,100.26L502.89,97.24L502.9,102.15L502.98,96.99L503.86,167.23L503.91,161.12L503.92,160.3L504.12,183.09L504.54,148.72L504.58,151.52L504.6,150.21L504.88,134.1L505.39,140.69L505.41,139.88L505.63,143.94L506.29,127.96L506.32,128.27L506.34,127.92L506.43,128.05L506.65,118.8L507.22,119.15L507.24,118.79L507.28,119.69L507.58,108.78L507.61,109.12L507.63,108.69L508.32,90.1L508.54,91.45L508.56,91.5L508.93,88.77L509.5,102.09L509.52,101.52L509.53,100.02L509.56,97.22L509.97,130.99L509.98,131.04L510.01,126.21L510.43,145.88L510.66,143.24L510.67,143.94L510.93,145.57L511.35,133.48L511.48,138.64L511.5,140.24L512.43,183.71L512.47,181.04L512.49,179.9L513.24,112.49L513.45,122.47L513.46,123.65L513.58,126.53L514.84,88.62L515.2,89.21L515.22,89.12L515.34,86.69L516.61,125.2L516.63,128.12L516.67,127.98L517.21,168.9L517.59,152.73L517.6,150.75L517.65,151.13L517.87,139.26L518.47,144.06L518.49,143.94L518.83,147.46L519.87,100.45L520.09,110.75L520.11,113.4L520.26,120.55L520.78,95.71L520.8,94.23L520.95,97.3L521.17,88.02L521.65,91.44L521.67,91.47L521.68,91.22L522.16,97.45L522.18,97.86L523.98,131.18L523.99,130.79L524.01,129.86L524.16,133.64L524.4,128.96L524.65,132.76L524.67,133.61L525.4,144.09L525.54,141.66L525.55,140.45L525.72,142.92L525.9,133.95L525.91,132.69L526.42,110.37L526.44,108.54L526.72,97.63L527.01,119.55L527.19,108.52L527.2,110.25L527.26,114.63L527.5,91.47L527.74,93.07L527.76,91.48L527.86,86.3L528.49,92.18L528.51,92.3L528.55,92.2L530.94,131.47L531.09,129.35L531.1,129.32L531.13,129.31L531.49,137.23L531.51,138.46L531.57,138.27L532.15,146.9L532.36,144.54L532.38,144.56L532.41,144.87L532.6,140.35L532.62,138.97L533.31,91.06L533.58,108.88L533.59,111.66L533.97,117.54L534.27,106.23L534.3,107.06L534.31,106.72L534.82,90.54L535.33,92.47L535.35,92.94L536.4,117.2L536.44,116.4L536.46,116.38L537.49,129.92L537.85,129.3L537.87,128.9L537.9,127.84L538.41,139.34L538.42,138.86L538.44,138.63L538.77,143.94L539.13,138L539.14,137.36L540.09,109.38L540.51,116.76L540.52,116.75L540.73,117.24L540.97,114.04L540.99,113.09L541.84,92.49L541.9,92.53L541.92,92.18L541.98,91.06L542.43,97.74L542.44,98.39L543.64,121.1L543.66,120.98L544.14,128.71L544.69,126.34L544.71,126.41L545.68,142.64L545.7,143.16L545.91,142.66L546.04,144.58L546.21,142.79L546.22,142.59L546.52,129.97L546.54,129.03L546.57,129.04L546.79,106.1L546.81,104.87L546.87,98.67L547.48,115.27L547.5,116.77L547.63,123.11L548.04,93.53L548.05,92.75L548.47,86.33L548.88,89.3L548.89,89.67L549.66,107.82L549.67,108.48L551.07,127.84L551.22,126.49L551.23,126.09L551.59,124.28L552.7,143.94L553,140.21L553.02,139.86L554.11,110.34L554.35,113L554.37,112.87L554.86,117.41L555.12,114.6L555.13,114.5L556.17,91.06L556.56,95.63L556.57,95.93L556.99,106.21L557.01,107.4L557.94,121.69L557.95,121.98L558.03,121.89L558.79,126.72L558.9,125.77L558.91,125.32L559.47,133.38L559.48,133.95L560.13,143.94L560.47,139.91L560.49,139.15L561.55,114.81L561.57,113.92L561.78,111.73L562.17,114.58L562.18,114.93L562.27,115.61L562.66,111.95L562.68,111.65L562.93,105.34L562.95,105.11L564.33,87.18L564.49,88.92L564.51,89.93L565.83,135.82L565.86,134.82L565.87,134.91L566.65,155.24L566.88,150.14L566.89,149.98L567.1,151.34L567.76,142.93L567.79,143.37L567.81,143.55L567.93,143.94L569.73,108.7L570.36,110.21L570.37,110.39L570.85,106.65L570.87,106.18L571.75,94.6L571.78,94.72L571.8,94.3L571.96,91.06L572.5,95.85L572.52,95.96L573.1,113.42L573.12,114.06L573.75,129.08L573.76,129.74L574.26,134.62L574.62,134.46L574.63,134.35L575.13,128.35L575.41,131.84L575.43,132.79L575.49,132.37L576.48,144.49L576.52,143.13L576.54,142.47L576.64,144.06L577.23,125.93L577.24,124.47L577.62,113.58L578.05,122.1L578.07,122.1L578.14,122.92L579.16,84.65L579.66,89.03L579.67,89.46L579.72,88.6L580.14,95.41L580.15,95.75L580.6,108.4L580.62,109.21L581.65,125.06L581.71,124.59L581.73,124.32L582.01,125.88L582.18,123.27L582.39,123.64L582.4,122.35L582.52,120.18L582.94,128.39L583.05,128.32L583.06,128.28L583.29,130.6L583.81,124.19L583.86,126.91L583.87,127.16L584.28,122.42L584.59,126.76L584.61,126.43L584.64,125.95L585.13,136.09L585.15,136.5L585.18,135.96L585.52,142.49L585.55,142.01L585.57,142.14L585.63,143.94L586.11,130.33L586.12,128.95L587.86,88.1L587.88,88.63L587.89,88.36L588.34,95.87L588.36,96.31L589.48,126.62L589.98,125.29L589.99,124.43L590.08,124.66L590.47,120.96L590.86,122.61L590.88,123.7L591.04,124.7L591.61,116.73L591.75,118.23L591.76,118.96L591.85,117.96L592,122.29L592.02,123.02L593.05,135.6L593.22,132.36L593.23,131.86L593.28,132L593.91,119.92L593.92,119.41L594.13,117.36L594.61,120.65L594.63,120.14L594.64,120.33L594.79,121.88L595.45,114.63L595.54,114.9L595.56,114.76L596.53,108.34L596.55,108.88L596.95,106.51L597.31,107.97L597.33,107.93L598.32,118.18L598.33,117.82L598.47,116.77L598.96,120.01L598.98,120.37L599.28,121.78L599.7,119.41L599.74,119.64L599.76,119.51L599.98,120.14L600.36,118.37L600.49,119.23L600.51,119.37L600.55,119.92L600.96,118.37L601.18,119.14L601.2,118.91L601.24,118.46L601.89,120.92L601.99,120.24L602.01,120.01L602.02,120.42L602.65,117.5L602.7,118.18L602.71,117.73L602.74,118.14L603.21,115.81L603.37,116.5L603.39,116.13L603.42,116.36L603.54,114.58L603.94,114.95L603.96,114.4L604.71,115.95L604.74,115.9L604.75,115.86L604.83,115.27L605.31,116.54L605.44,116.27L605.46,116.27L605.47,115.63L606.1,117.5L606.19,117L606.21,117.27L606.27,115.63L606.78,118.78L606.94,117.91L606.96,117.77L606.99,118.64L607,118.46" style="vector-effect: non-scaling-stroke; fill: none; stroke: rgb(0, 0, 0); stroke-opacity: 0.2; stroke-width: 3px; opacity: 1;"/></g><g class="points"/><g class="text"/></g><g class="trace scatter traceb69c6f" style="stroke-miterlimit: 2; opacity: 1;"><g class="fills"/><g class="errorbars"/><g class="lines"><path class="js-line" d="M0,114.86L3.79,114.13L3.81,114.1L5.01,114.86L5.1,114.67L5.11,114.64L5.88,110.74L5.89,110.65L6.9,109.04L6.91,109.02L8.05,107.8L8.14,108.68L8.16,108.82L9.46,114.86L9.63,114.08L9.64,113.98L9.94,112.15L10.35,114.13L10.36,114.2L11.25,114.86L11.26,114.86L12.49,114.32L12.51,114.05L13.72,91.92L14.02,92.55L14.04,92.58L14.14,92.8L14.26,91.29L14.28,91.11L15.9,74.56L15.91,74.5L17.61,66.68L17.73,69.19L17.74,69.51L19.38,84.78L19.39,84.82L20.7,87.96L20.89,86.65L20.91,86.55L21.6,80.85L22.06,82.66L22.08,82.71L22.21,83.24L22.81,82.62L22.83,82.61L24.33,79.92L24.34,79.89L25.36,76.01L25.38,75.87L28.02,52.09L28.51,53.51L28.53,53.47L29.82,48.29L29.83,48.18L30.33,41.22L30.57,44.88L30.58,45.11L32.28,67.02L32.53,62.11L32.55,61.82L34.78,18.77L34.8,18.48L34.9,16.45L35.56,18.01L35.58,18.05L35.71,18.36L36.1,17.44L36.12,17.41L38.5,11.76L38.67,12.92L38.68,13.03L39.31,17.45L39.88,16.2L39.9,16.17L41.91,11.76L42.03,12.91L42.04,13.05L43.48,19.75L43.5,19.79L45.67,27L45.69,27.31L46.36,41.21L46.77,37.71L46.78,37.58L49.24,16.31L49.56,19.78L49.57,19.95L50.08,25.41L50.8,25.24L50.82,25.23L52.83,24.76L52.86,25.5L52.87,25.88L53.7,46.5L54.19,41.77L54.21,41.62L56.43,20.4L56.73,24.38L56.74,24.58L58.32,45.46L58.56,40.77L58.57,40.48L60.04,11.75L60.36,17.88L60.37,18.18L61.95,48.85L62.64,48.05L62.65,48.03L63.78,46.73L63.85,47.71L63.87,47.9L65.74,72.3L65.8,71.76L65.82,71.62L67.35,57.64L67.72,60.75L67.74,60.88L71.47,85.78L71.49,85.85L71.62,86.43L72.21,85.67L72.22,85.66L74.2,81.95L74.22,81.83L76.54,68.7L76.56,68.67L77.43,67.06L77.76,67.92L77.77,67.95L79,71.15L79.29,69.95L79.3,69.89L80.92,63.04L81.34,64.34L81.36,64.38L82.78,68.78L83.13,67.55L83.14,67.5L84.39,63.1L85.03,63.53L85.05,63.54L86.4,64.44L86.62,63.76L86.64,63.72L88.3,58.75L88.74,59.78L88.75,59.81L90.07,62.95L90.34,61.79L90.36,61.72L91.89,55.17L92.2,56.6L92.22,56.67L93.78,63.77L94.06,62.44L94.08,62.37L95.47,55.87L95.76,57.46L95.77,57.54L97.42,66.77L97.89,65.32L97.9,65.27L99.15,61.4L99.45,62.82L99.46,62.89L100.75,68.98L101.22,67.73L101.23,67.69L103.23,62.34L103.56,63.55L103.57,63.6L104.98,68.75L105.36,67.43L105.37,67.38L106.8,62.37L107.1,63.89L107.11,63.96L108.73,72.16L109.17,70.54L109.18,70.48L110.86,64.2L111.19,65.65L111.21,65.72L112.57,71.72L112.86,70.19L112.87,70.11L114.46,61.56L114.9,63.19L114.91,63.24L116.38,68.72L116.8,67.51L116.82,67.47L118.29,63.25L118.63,64.48L118.65,64.54L120.19,70.07L120.55,69.13L120.57,69.09L122.1,65.11L122.4,66.25L122.41,66.31L123.6,70.83L123.99,69.58L124,69.53L126.03,63.02L126.34,64.46L126.36,64.53L127.86,71.39L128.11,69.81L128.13,69.72L129.82,59.24L130.29,60.94L130.3,60.99L131.82,66.53L132.18,65.11L132.19,65.05L133.57,59.59L134.01,60.75L134.02,60.79L135.61,65L135.96,63.88L135.97,63.83L137.37,59.28L137.8,60.3L137.82,60.33L139.26,63.7L139.57,62.54L139.59,62.48L141.21,56.51L141.45,57.75L141.46,57.83L142.57,63.58L143.01,62.12L143.02,62.07L144.97,55.51L145.36,56.65L145.38,56.7L146.97,61.36L147.28,60.05L147.3,59.99L148.74,53.99L149.04,55.34L149.05,55.41L150.19,60.54L150.37,58.42L150.39,58.24L152.57,32.44L152.59,32.27L152.62,31.91L153.22,34.23L153.23,34.29L153.71,36.14L154.21,35.19L154.22,35.16L155.26,33.18L155.51,34.19L155.53,34.25L158.2,48.31L158.21,48.42L159.5,57.99L159.68,53.97L159.7,53.63L160.43,37.2L160.88,39.06L160.9,39.12L162.77,46.84L162.92,44.97L162.94,44.78L163.82,33.74L164.18,35.98L164.2,36.08L166.13,48.1L166.31,44.91L166.33,44.65L167.21,28.96L167.56,31.64L167.57,31.76L169.52,46.88L169.82,43.56L169.84,43.39L170.57,35.26L170.9,38.06L170.92,38.19L172.88,54.86L173.11,50.66L173.12,50.38L173.89,36.12L174.55,37.37L174.56,37.4L177.89,42.08L177.91,42.08L180.61,41.69L180.62,41.67L183.73,36.86L183.74,36.82L186.19,30.07L186.5,31.15L186.52,31.2L189.71,40.92L189.73,40.93L192.34,44.5L192.35,44.64L194.45,63.93L194.66,59.46L194.68,59.14L195.19,48.29L195.67,51.09L195.68,51.17L197.45,61.47L197.72,58.85L197.74,58.71L198.14,54.78L198.55,57.65L198.56,57.76L200.39,70.77L200.6,67.03L200.62,66.76L201.05,59.02L201.43,64.97L201.44,65.21L202.82,75.08L202.84,75.08L203.26,75.14L203.32,74.47L203.33,74.3L205.21,62.17L205.22,62.14L209.14,54.35L209.15,54.31L210.19,50.6L210.2,50.52L212.51,38.54L213.07,39.27L213.08,39.29L215.68,42.65L216.16,42.1L216.17,42.08L218.45,39.46L218.93,40.04L218.95,40.06L221.38,44.14L221.39,44.26L222.65,53.95L223.1,51.76L223.12,51.68L224.74,39.52L224.75,39.37L225.23,34.67L225.71,36.54L225.73,36.6L226.72,40.47L227.05,39.15L227.06,39.09L229.04,34.29L229.06,34.28L229.33,33.95L229.73,34.63L229.75,34.65L230.75,36.33L230.9,35.15L230.92,35.04L231.92,27.17L232.39,29.2L232.4,29.26L233.09,32.27L233.71,31.68L233.72,31.66L234.55,30.9L234.97,31.48L234.98,31.5L236.59,32.56L236.6,32.55L236.62,32.55L239.05,31.69L239.06,31.67L241.03,28.56L241.45,29.14L241.46,29.16L242.44,30.52L242.75,29.72L242.77,29.68L244.99,25.2L245.21,25.5L245.23,25.51L246.91,26.6L246.92,26.59L246.94,26.59L247.52,26.39L247.67,27.05L247.69,27.11L248.78,31.92L249.17,30.79L249.19,30.75L251.12,27.31L251.14,27.29L251.32,27.14L251.69,27.8L251.71,27.83L253.49,29.5L253.51,29.5L254.17,28.8L254.18,28.77L255.14,26.47L255.55,27.35L255.56,27.38L256.72,29.88L257,28.85L257.02,28.79L257.66,26.45L258.23,26.98L258.25,27L261.04,30.56L261.05,30.59L261.7,32.13L262.06,31.15L262.07,31.11L263.02,28.53L263.66,28.81L263.68,28.82L264.79,28.48L264.8,28.47L266.14,28.1L266.15,28.12L266.77,28.61L266.98,27.87L266.99,27.82L268.03,24.21L268.39,25.52L268.4,25.57L269.17,28.35L269.71,27.59L269.72,27.57L271.72,25.67L271.79,25.97L271.81,26.03L273.13,31.35L273.41,29.9L273.43,29.83L274.01,26.87L274.34,28.98L274.36,29.07L275.24,34.72L275.75,33.28L275.77,33.24L276.56,30.99L276.8,32.5L276.82,32.6L277.93,39.6L278.29,37.25L278.3,37.15L279.16,31.57L279.58,33.66L279.59,33.73L281.27,38.49L281.3,38.48L281.32,38.48L282.08,39.2L282.1,39.25L283.28,43.4L283.4,41.46L283.42,41.22L284.51,23.47L284.77,25.86L284.78,26L286.9,38.83L286.91,38.87L288.19,42.84L288.2,42.9L288.62,44.32L288.79,42.51L288.8,42.34L289.72,32.31L290.27,33.81L290.29,33.85L291.82,40L291.83,40.1L293.83,54.35L294.17,51.65L294.19,51.53L295.27,43.08L295.61,46.16L295.63,46.3L300.55,84.26L300.56,84.3L300.88,80.91L300.89,80.71L304.41,46.21L304.67,50.41L304.68,50.66L306.02,72.65L306.57,70.17L306.59,70.1L307.82,57.96L308.03,61.97L308.04,62.16L309.42,80.39L309.9,77.86L309.92,77.78L311.12,71.43L311.73,72.08L311.75,72.09L312.99,73.41L313.11,72.63L313.13,72.53L314.7,60.64L315.38,61.1L315.39,61.11L316.19,62.41L316.2,62.61L319.16,95.48L319.31,93.21L319.32,92.98L320.49,75.21L321.08,76.95L321.09,76.99L323.22,85.66L323.24,85.76L324.62,91.88L324.69,91.19L324.71,91.05L327.03,76.18L327.05,76.14L328.17,73.08L328.32,74.7L328.34,74.86L329.19,76.76L329.21,76.78L329.49,78.23L329.51,78.37L330.39,86.68L330.68,82.41L330.69,82.18L332,62.62L332.33,67.24L332.34,67.45L333.6,74.11L333.66,73.82L333.68,73.75L336.41,56.78L336.42,56.56L337.07,47.11L337.46,51.08L337.47,51.23L339.18,68.63L339.74,67.22L339.75,67.18L341.16,63.59L341.6,64.47L341.61,64.5L342.87,67.06L343.22,66.09L343.23,66.05L345.84,60.88L345.86,60.88L347.07,59.75L347.09,59.7L349.32,52.29L349.53,53.9L349.55,54.02L351.69,70.47L352.05,67.63L352.07,67.51L353.88,53.2L354.08,57.13L354.09,57.43L355.16,78.85L355.55,73.43L355.56,73.23L357.51,44.99L357.53,44.55L357.77,37.51L358.23,46.42L358.25,46.71L359.82,76.9L359.99,75.63L360,75.51L361.53,63.71L361.77,67.33L361.79,67.56L362.78,73.18L362.79,73.24L363.6,76.15L363.89,74.59L363.9,74.51L366.75,57.9L367.11,59.97L367.13,60.06L368.28,66.72L368.72,64.99L368.73,64.93L370.31,58.67L370.67,60.08L370.68,60.14L371.84,64.67L372.15,63.05L372.17,62.97L373.82,54.5L374.27,55.97L374.28,56.02L375.35,59.48L375.6,57.87L375.62,57.78L377.36,46.79L377.6,49.76L377.61,49.95L378.81,64.8L379.22,61.84L379.23,61.73L380.9,49.59L381.09,53.25L381.11,53.54L382.04,70.99L382.35,67.81L382.37,67.66L384.41,47.05L384.44,47.52L384.45,47.75L385.95,71.27L386.46,68.5L386.48,68.42L387.29,59.78L387.3,59.47L387.99,44.93L388.37,50.66L388.38,50.89L389.55,68.79L390.05,65.98L390.06,65.9L391.83,55.86L392.03,58.98L392.04,59.22L392.94,73.64L393.59,72.48L393.6,72.46L394.58,69.42L394.59,69.14L395.6,50.16L395.9,56.27L395.91,56.57L396.74,73.37L397.32,70.73L397.34,70.67L399.42,61.28L399.59,62.85L399.6,62.99L400.97,75.98L401.52,74.59L401.54,74.56L403.41,69.88L403.76,70.98L403.77,71.03L405,74.95L405.44,73.91L405.45,73.87L407.63,68.64L407.76,70.05L407.78,70.21L409.44,84.96L409.46,84.98L410.76,86.38L410.81,85.43L410.82,85.11L411.9,62.33L412.38,66.21L412.4,66.33L414.33,75.95L414.35,75.98L415.44,78.15L415.55,76.82L415.56,76.63L416.58,63.69L416.9,67.64L416.91,67.83L419.13,92.61L419.49,89.12L419.51,88.98L420.2,82.29L420.63,83.3L420.65,83.33L422,88.31L422.01,88.4L423.02,94.61L423.54,93.42L423.56,93.39L425.22,87.71L425.24,87.58L426.44,77.62L426.72,81.42L426.74,81.62L428.31,98.09L428.33,98.14L429.09,100.39L429.33,98.86L429.35,98.77L430.13,89.2L430.14,88.85L431.4,59.31L431.72,66.84L431.73,67.2L433.14,95.32L433.59,94L433.61,93.96L435.3,86.76L435.32,86.48L436.44,65.79L436.67,70.28L436.68,70.58L438.17,100.25L438.78,98.38L438.8,98.33L439.56,93.8L439.58,93.54L441.5,59.52L441.54,60.45L441.56,60.76L443.61,99.79L443.63,99.95L444.47,102.07L444.5,102.05L444.51,102.04L445.16,100.76L445.17,100.47L446.66,71.26L446.94,78.32L446.96,78.69L447.93,87.35L447.95,87.48L449.51,106.68L449.52,106.89L449.91,108.25L450.21,106.49L450.23,106.4L450.57,99.81L450.59,99.46L451.8,70.58L452.03,74.35L452.04,74.6L454.86,101.88L454.88,102.04L454.95,102.85L455.61,101.8L455.62,101.77L456.13,95.91L456.15,95.73L457.09,84.29L457.3,88.35L457.32,88.65L458.23,93.36L458.25,93.41L460.57,102.19L460.78,100.28L460.8,100.14L460.99,98.37L461.59,99.71L461.61,99.76L463.14,105.94L463.15,106.07L463.5,109L463.93,106.48L463.95,106.39L464.61,102.58L465.04,104.38L465.06,104.44L466.18,109.09L466.38,106.98L466.39,106.84L466.62,108.17L466.96,106.93L466.98,106.88L468.64,102.86L468.67,103.14L468.69,103.28L469.33,109.22L469.78,106.49L469.8,106.4L470.65,101.22L471.04,103.4L471.06,103.49L472.54,111.98L472.93,110.04L472.95,109.97L473.59,106.77L474.01,108.33L474.03,108.38L475.9,114.86L475.99,113.59L476.01,113.35L476.7,102.34L477.13,104.24L477.15,104.3L478.03,108.16L478.33,106.52L478.35,106.42L478.65,104.18L478.96,106.76L478.98,106.81L479.89,109.85L480.15,108.36L480.16,108.28L480.6,105.74L481.12,107.04L481.14,107.07L481.71,108.48L481.96,107.18L481.98,107.11L482.53,104.27L482.98,105.73L483,105.78L484.2,109.66L484.77,109.03L484.78,109.02L485.23,107.43L485.25,107.32L485.49,105.61L485.8,108.65L485.82,108.8L486.76,107.97L486.96,108.73L486.97,108.78L487.9,112.37L488.22,110.76L488.23,110.69L489.12,106.17L489.48,108.02L489.49,108.09L490.65,114.01L491.11,112.79L491.13,112.75L491.5,109.86L491.52,109.71L492.46,106.75L492.48,106.75L495.27,105.8L495.4,106.53L495.42,106.61L497.53,114.86L497.62,114.46L497.64,114.39L498.81,108.69L499.24,110.19L499.26,110.25L500.4,114.18L500.65,112.71L500.67,112.62L501.76,106.31L502.09,108.59L502.11,108.7L503.74,114.86L503.76,114.86L504.33,114.12L504.34,114.08L507.36,107.77L507.37,107.75L508.63,105.79L508.74,106.85L508.75,107L510.1,114.86L510.19,114.16L510.21,114.03L510.67,110.03L511.24,111.58L511.26,111.62L513.24,114.86L513.25,114.86L513.91,114.11L513.93,113.99L515.01,105.84L515.37,108.62L515.38,108.74L516.91,114.86L516.93,114.86L517.27,114.04L517.29,113.98L518.49,109.2L518.79,110.64L518.8,110.71L520.44,114.86L520.45,114.86L520.75,113.47L520.77,113.35L521.62,107.03L522.33,107.23L522.34,107.24L525.49,108.83L525.51,108.91L527.34,114.86L527.35,114.75L528.46,106.66L529.17,106.85L529.18,106.86L532.03,108.35L532.05,108.43L533.31,114.85L533.7,113.02L533.71,112.95L535.21,106.08L535.9,106.26L535.92,106.26L540.27,106.66L540.28,106.65L542.86,106.85L542.88,106.86L545.94,109.7L545.95,109.8L547.5,114.86L547.51,114.86L548.01,114.15L548.02,114.04L548.98,106.91L549.67,107.28L549.69,107.28L553.44,108.71L553.45,108.71L557.19,108.64L557.2,108.65L562.06,110.36L562.08,110.36L564.12,111.21L564.13,111.28L565.6,114.86L565.62,114.86L567.06,114.11L567.07,114.08L568.84,112.25L568.86,112.25L573.45,112.37L573.46,112.38L576.49,114.17L576.51,114.21L577.56,114.86L577.57,114.86L579.19,114.12L579.21,114.06L579.87,111.47L580.48,111.76L580.5,111.77L586.63,113.87L586.65,113.86L587.97,114.18L587.98,114.2L589.24,114.86L589.26,114.86L607,114.86" style="vector-effect: non-scaling-stroke; fill: none; stroke: rgb(0, 0, 0); stroke-opacity: 1; stroke-width: 2px; opacity: 1;"/></g><g class="points"/><g class="text"/></g></g></g><g class="overplot"/><path class="xlines-above crisp" d="M0,0" style="fill: none;"/><path class="ylines-above crisp" d="M0,0" style="fill: none;"/><g class="overlines-above"/><g class="xaxislayer-above"><g class="xtick"><text text-anchor="middle" x="0" y="272.3333" transform="translate(40,0)" style="font-family: 'Latin Modern Roman'; font-size: 13.3333px; fill: rgb(0, 0, 0); fill-opacity: 1; white-space: pre;">0</text></g><g class="xtick"><text text-anchor="middle" x="0" y="272.3333" transform="translate(115,0)" style="font-family: 'Latin Modern Roman'; font-size: 13.3333px; fill: rgb(0, 0, 0); fill-opacity: 1; white-space: pre;">5k</text></g><g class="xtick"><text text-anchor="middle" x="0" y="272.3333" transform="translate(190,0)" style="font-family: 'Latin Modern Roman'; font-size: 13.3333px; fill: rgb(0, 0, 0); fill-opacity: 1; white-space: pre;">10k</text></g><g class="xtick"><text text-anchor="middle" x="0" y="272.3333" transform="translate(264.99,0)" style="font-family: 'Latin Modern Roman'; font-size: 13.3333px; fill: rgb(0, 0, 0); fill-opacity: 1; white-space: pre;">15k</text></g><g class="xtick"><text text-anchor="middle" x="0" y="272.3333" transform="translate(339.99,0)" style="font-family: 'Latin Modern Roman'; font-size: 13.3333px; fill: rgb(0, 0, 0); fill-opacity: 1; white-space: pre;">20k</text></g><g class="xtick"><text text-anchor="middle" x="0" y="272.3333" transform="translate(414.99,0)" style="font-family: 'Latin Modern Roman'; font-size: 13.3333px; fill: rgb(0, 0, 0); fill-opacity: 1; white-space: pre;">25k</text></g><g class="xtick"><text text-anchor="middle" x="0" y="272.3333" transform="translate(489.99,0)" style="font-family: 'Latin Modern Roman'; font-size: 13.3333px; fill: rgb(0, 0, 0); fill-opacity: 1; white-space: pre;">30k</text></g><g class="xtick"><text text-anchor="middle" x="0" y="272.3333" transform="translate(564.98,0)" style="font-family: 'Latin Modern Roman'; font-size: 13.3333px; fill: rgb(0, 0, 0); fill-opacity: 1; white-space: pre;">35k</text></g><g class="xtick"><text text-anchor="middle" x="0" y="272.3333" transform="translate(639.98,0)" style="font-family: 'Latin Modern Roman'; font-size: 13.3333px; fill: rgb(0, 0, 0); fill-opacity: 1; white-space: pre;">40k</text></g></g><g class="yaxislayer-above"><g class="ytick"><text text-anchor="end" x="39" y="4.6666549999999996" transform="translate(0,166.94)" style="font-family: 'Latin Modern Roman'; font-size: 13.3333px; fill: rgb(0, 0, 0); fill-opacity: 1; white-space: pre;">1</text></g><g class="ytick"><text text-anchor="end" x="39" y="4.6666549999999996" transform="translate(0,140.5)" style="font-family: 'Latin Modern Roman'; font-size: 13.3333px; fill: rgb(0, 0, 0); fill-opacity: 1; white-space: pre;">0</text></g><g class="ytick"><text text-anchor="end" x="39" y="4.6666549999999996" transform="translate(0,114.06)" style="font-family: 'Latin Modern Roman'; font-size: 13.3333px; fill: rgb(0, 0, 0); fill-opacity: 1; white-space: pre;">1</text></g></g><g class="overaxes-above"/></g></g><g class="polarlayer"/><g class="ternarylayer"/><g class="geolayer"/><g class="funnelarealayer"/><g class="pielayer"/><g class="treemaplayer"/><g class="sunburstlayer"/><g class="glimages"/><defs id="topdefs-33065d"><g class="clips"/><clipPath id="legend33065d"><rect width="362" height="31" x="0" y="0"/></clipPath></defs><g class="layer-above"><g class="imagelayer"/><g class="shapelayer"/></g><g class="infolayer"><g class="legend" pointer-events="all" transform="translate(40, 0)"><rect class="bg" shape-rendering="crispEdges" style="stroke: rgb(68, 68, 68); stroke-opacity: 1; fill: rgb(255, 255, 255); fill-opacity: 1; stroke-width: 0px;" width="362" height="31" x="0" y="0"/><g class="scrollbox" transform="translate(0, 0)" clip-path="url('#legend33065d')"><g class="groups"><g class="traces" transform="translate(0, 15.166645)" style="opacity: 1;"><text class="legendtext" text-anchor="start" x="40" y="5.199987" style="font-family: 'Latin Modern Roman'; font-size: 13.3333px; fill: rgb(0, 0, 0); fill-opacity: 1; white-space: pre;">Signal (<tspan style="font-weight:bold">w = e</tspan>  <tspan style="font-weight:bold">c</tspan>)</text><g class="layers" style="opacity: 1;"><g class="legendfill"/><g class="legendlines"><path class="js-line" d="M5,0h30" style="fill: none; stroke: rgb(128, 128, 128); stroke-opacity: 1; stroke-width: 3px;"/></g><g class="legendsymbols"><g class="legendpoints"/></g></g><rect class="legendtoggle" x="0" y="-10.166645" width="144.171875" height="20.33329" style="fill: rgb(0, 0, 0); fill-opacity: 0;"/></g><g class="traces" transform="translate(146.671875, 15.166645)" style="opacity: 1;"><text class="legendtext" text-anchor="start" x="40" y="5.199987" style="font-family: 'Latin Modern Roman'; font-size: 13.3333px; fill: rgb(0, 0, 0); fill-opacity: 1; white-space: pre;">Carrier (<tspan style="font-weight:bold">c</tspan>)</text><g class="layers" style="opacity: 1;"><g class="legendfill"/><g class="legendlines"><path class="js-line" d="M5,0h30" style="fill: none; stroke: rgb(0, 0, 0); stroke-opacity: 0.2; stroke-width: 3px;"/></g><g class="legendsymbols"><g class="legendpoints"/></g></g><rect class="legendtoggle" x="0" y="-10.166645" width="98.375" height="20.33329" style="fill: rgb(0, 0, 0); fill-opacity: 0;"/></g><g class="traces" transform="translate(247.546875, 15.166645)" style="opacity: 1;"><text class="legendtext" text-anchor="start" x="40" y="5.199987" style="font-family: 'Latin Modern Roman'; font-size: 13.3333px; fill: rgb(0, 0, 0); fill-opacity: 1; white-space: pre;">Envelope (<tspan style="font-weight:bold">e</tspan>)</text><g class="layers" style="opacity: 1;"><g class="legendfill"/><g class="legendlines"><path class="js-line" d="M5,0h30" style="fill: none; stroke: rgb(0, 0, 0); stroke-opacity: 1; stroke-width: 2px;"/></g><g class="legendsymbols"><g class="legendpoints"/></g></g><rect class="legendtoggle" x="0" y="-10.166645" width="110.96875" height="20.33329" style="fill: rgb(0, 0, 0); fill-opacity: 0;"/></g></g></g><rect class="scrollbar" rx="20" ry="3" width="0" height="0" style="fill: rgb(128, 139, 164); fill-opacity: 1;" x="0" y="0"/></g><g class="g-gtitle"/><g class="g-xtitle" transform="translate(0,-2.677059999999983)"><text class="xtitle" x="343.5" y="299.67706" text-anchor="middle" style="font-family: 'Latin Modern Roman'; font-size: 13.33px; fill: rgb(0, 0, 0); opacity: 1; font-weight: normal; white-space: pre;"><tspan style="font-weight:bold"><tspan style="font-style:italic">i</tspan></tspan></text></g><g class="g-ytitle" transform="translate(11.5205078125,0)"><text class="ytitle" transform="rotate(-90,0.47919000000000267,140.5)" x="0.47919000000000267" y="140.5" text-anchor="middle" style="font-family: 'Latin Modern Roman'; font-size: 13.33px; fill: rgb(0, 0, 0); opacity: 1; font-weight: normal; white-space: pre;"><tspan style="font-weight:bold">Amplitude</tspan></text></g></g></svg>