<svg class="main-svg" xmlns="http://www.w3.org/2000/svg" xmlns:xlink="http://www.w3.org/1999/xlink" width="650" height="300" style="" viewBox="0 0 650 300"><rect x="0" y="0" width="650" height="300" style="fill: rgb(255, 255, 255); fill-opacity: 1;"/><defs id="defs-2633c6"><g class="clips"><clipPath id="clip2633c6xyplot" class="plotclip"><rect width="610" height="235"/></clipPath><clipPath class="axesclip" id="clip2633c6x"><rect x="40" y="0" width="610" height="300"/></clipPath><clipPath class="axesclip" id="clip2633c6y"><rect x="0" y="23" width="650" height="235"/></clipPath><clipPath class="axesclip" id="clip2633c6xy"><rect x="40" y="23" width="610" height="235"/></clipPath></g><g class="gradients"/></defs><g class="bglayer"/><g class="layer-below"><g class="imagelayer"/><g class="shapelayer"/></g><g class="cartesianlayer"><g class="subplot xy"><g class="layer-subplot"><g class="shapelayer"/><g class="imagelayer"/></g><g class="gridlayer"><g class="x"/><g class="y"/></g><g class="zerolinelayer"/><path class="xlines-below"/><path class="ylines-below"/><g class="overlines-below"/><g class="xaxislayer-below"/><g class="yaxislayer-below"/><g class="overaxes-below"/><g class="plot" transform="translate(40, 23)" clip-path="url('#clip2633c6xyplot')"><g class="scatterlayer mlayer"><g class="trace scatter traceb9152d" style="stroke-miterlimit: 2; opacity: 1;"><g class="fills"/><g class="errorbars"/><g class="lines"><path class="js-line" d="M0,94.3L0.72,128.66L0.76,110.69L0.77,101.78L0.91,121.51L1.37,11.75L1.63,70.76L1.65,74.51L2.05,129.6L2.49,120.78L2.5,121.25L2.75,125.51L2.92,104.98L3.1,112.57L3.11,110.08L3.72,91.18L3.87,103.12L3.89,105.18L4.01,118.07L4.47,78.27L4.48,76.86L4.72,77.68L5.24,45.69L5.42,64.46L5.44,65.21L5.45,65.45L5.62,53.52L5.63,50.7L5.66,46.99L6.09,112.93L6.1,115.25L6.53,159.9L6.9,127.53L6.92,126.32L7.64,73.59L7.91,97.17L7.93,97.9L8.19,79.88L8.2,78.73L8.48,59.75L9.14,64.79L9.16,66.31L10.31,117.73L10.33,117.57L10.35,117.92L10.79,143.77L11.15,135.15L11.16,134.27L11.98,51.36L12.35,64.33L12.37,65.21L13.27,85.37L13.28,86.42L14.65,127.08L14.77,126.74L14.79,126.53L16.46,45.71L16.75,55.11L16.77,55.75L17.51,124.98L17.94,110.92L17.95,110.39L18.01,109.14L18.37,117.74L18.38,118.82L18.59,131.78L18.84,109.31L18.85,108.09L19.64,65.17L20.26,69.7L20.28,69.9L20.61,67.81L21.91,132.91L22.04,128.86L22.05,128.29L22.19,129.13L24.01,59.18L24.03,59.29L24.04,59.33L24.39,66.9L24.4,67.64L25.44,122.63L25.96,122.2L25.98,122.27L26.05,122.54L26.35,115.1L26.36,114.83L27.62,62.2L27.84,73.35L27.86,74.06L28.04,74.02L28.87,96.78L28.92,96.54L28.94,96.51L29.13,105.23L29.15,106.33L29.6,136.48L30,116.6L30.02,115.79L31.33,67.36L31.37,67.62L31.39,67.84L31.63,67.8L32.77,107.39L32.78,108.61L33.1,123.42L33.52,111.94L33.53,111.25L33.96,113.65L34.48,100.06L34.5,99.72L34.83,78.78L34.84,77.43L35.27,53.26L35.63,71.77L35.65,72.38L37.39,125.96L37.46,125.01L37.47,124.54L38.69,78.23L38.7,77.5L39.52,66.55L39.7,71.64L39.71,72.49L40.35,96.4L40.36,97.1L40.74,124.36L40.75,125.16L40.92,131.23L41.39,112.07L41.4,111.34L42.92,67.07L42.94,66.83L43.1,63.18L43.48,80.78L43.49,81.51L44.39,109.98L44.76,108.67L44.78,109.07L45.29,128.05L45.54,110.35L45.55,109.26L46.48,72.51L46.6,74.85L46.62,75.07L46.74,76.96L47.22,69.09L47.24,68.89L47.28,68.43L47.53,80L47.54,80.9L48.68,123.77L48.91,118.56L48.93,118.15L49.73,91.82L49.74,90.94L50.86,63.11L50.97,65.64L50.99,66.22L52.11,110.86L52.49,108.78L52.51,109.27L52.99,120.52L53.23,113.85L53.24,113L54.38,71.4L54.86,72.57L54.87,72.65L55.32,85.54L55.33,86.68L56.38,115.6L56.4,116.21L56.57,121.64L57.03,107.58L57.05,107.12L57.81,83.07L58.03,86.18L58.04,86.29L58.1,86.54L58.23,82.96L58.25,82.14L58.64,64.72L59.02,78.81L59.04,79.65L60.07,116.06L60.34,112.95L60.35,112.83L60.54,114.48L60.56,114.84L60.67,115.77L60.93,109.99L60.95,109.32L62.25,69.64L62.29,69.88L62.3,69.98L64.29,121.53L64.56,112.14L64.57,111.44L65.7,79.1L65.72,79.33L65.73,79.24L65.82,79.6L66.04,75.92L66.05,75.49L66.35,70.54L66.63,78.34L66.65,79.06L67.92,121.03L68.15,115.67L68.17,115.23L69.37,90.44L69.38,90.5L69.94,67.78L69.95,67.44L70.01,66.91L70.2,73.26L70.21,74.05L71.54,105.27L71.56,105.48L72,121.4L72.34,109.54L72.36,108.84L73.59,74.53L73.6,74.15L73.77,71.36L74.11,78.3L74.13,78.69L75.77,118.89L76.04,111.34L76.05,110.79L77.05,91.79L77.06,91.53L77.79,69.54L78.07,76.06L78.08,76.76L79.63,115.52L80.01,109.92L80.02,109.52L81.5,74.41L81.86,80L81.87,80.13L83.22,107.1L83.23,107.7L83.53,117.29L83.96,107.18L83.98,106.72L85.62,72.23L85.94,79.28L85.96,79.58L87.19,110.33L87.21,110.26L87.23,110.18L88.17,102.02L88.18,101.58L89.72,78.52L89.73,78.58L89.75,78.34L89.81,78.09L90.01,80.11L90.02,80.63L90.27,90.87L90.28,91.53L91.38,113.26L91.79,109.8L91.81,109.57L93.52,78.91L93.54,78.97L93.63,78.44L94.03,85.61L94.05,85.96L95.31,108.51L95.32,108.69L95.51,110.16L95.8,106.1L95.82,105.8L96.94,79.14L97.2,80.42L97.21,80.39L97.57,78.49L97.71,79.88L97.73,80.19L98.81,110.02L99.37,107.54L99.39,107.47L99.51,108.01L99.87,102.24L99.88,101.78L101.16,80.64L101.43,81L101.45,80.95L103.22,111.06L103.36,109.33L103.37,109.01L105.11,77.96L105.21,78.35L105.22,78.39L105.6,87.81L105.61,88.27L106.87,108.44L107.27,106.15L107.28,105.77L107.94,96.91L107.95,96.53L108.94,80.46L109.17,81.63L109.18,81.73L110.85,110.94L111.17,106.32L111.19,105.76L112.83,79.62L112.97,80.47L112.98,80.78L114.56,108.61L114.57,108.95L114.75,111.11L115,106.32L115.02,106.01L116.1,89.18L116.11,88.86L116.68,78.02L116.98,81.8L117,82.08L118.5,108.8L118.52,108.86L118.6,109.28L119,104.63L119.01,104.24L120.59,80.13L120.94,83.9L120.95,84.05L122.28,103.88L122.29,104.17L122.6,111.02L123,103.56L123.01,103.41L124.58,80.06L124.88,83.95L124.89,84.38L125.75,96.31L125.77,96.75L126.33,105.87L126.83,105.2L126.84,105.01L126.86,105.17L127.16,101.61L127.18,101.41L128.38,82.46L128.46,82.74L128.48,82.77L129.35,91.45L129.36,91.88L130.41,106.93L130.59,105.6L130.61,105.52L132.67,82.61L132.7,82.7L132.71,82.74L133.07,88.51L133.08,88.97L134.74,105.45L134.83,105.13L134.84,104.88L135.36,93.42L135.38,93.12L136.14,83.08L136.47,84.43L136.49,84.37L136.96,86.21L136.97,86.63L138.5,105.38L138.53,105.3L138.55,105.14L139.22,95.24L139.24,95.07L139.79,85.82L140.16,87.36L140.18,87.25L140.59,81.84L140.83,85.44L140.84,85.76L141.91,104.07L142.36,103.63L142.38,103.76L142.61,105.14L142.83,102.12L142.85,101.74L143.89,86.29L143.91,86.32L143.93,86.23L144.3,85.36L144.63,86.23L144.65,86.33L144.96,88.89L144.98,89.22L146.29,104.84L146.31,104.68L146.32,104.86L146.78,99.73L146.79,99.67L148.27,84.24L148.28,84.15L148.38,83.74L148.63,86.15L148.64,86.5L149.86,104.02L150.3,102.36L150.32,102.26L151.04,94.11L151.05,93.83L152.02,84.42L152.21,85.49L152.23,85.7L154.09,104.89L154.23,103.99L154.25,103.82L156.03,84.34L156.25,85.8L156.27,85.98L157.94,104.74L157.95,104.59L157.97,104.67L159.9,84.57L159.96,84.71L159.97,84.92L160.57,90.26L160.58,90.36L161.8,104.13L162.17,101.72L162.19,101.44L163.72,84.94L163.96,86.4L163.97,86.54L165.58,102.78L165.59,102.89L165.8,104.27L166.17,100.34L166.18,100.17L167.72,83.99L167.95,85.41L167.97,85.67L169.63,103.39L169.97,101.48L169.99,101.41L171.29,88.02L171.3,88.03L171.55,86.48L172.08,87.54L172.09,87.61L173.39,101.34L173.4,101.57L173.69,103.36L174.08,100.87L174.1,100.84L175.2,89.2L175.22,89.05L175.74,85.99L176.05,88.15L176.06,88.42L177.53,101.45L177.54,101.53L177.72,102.15L178.02,100.05L178.04,99.82L179.52,87.92L179.53,88.04L179.86,86.98L180.13,88.82L180.14,89.09L181.76,100.92L181.77,100.86L182.06,99.82L182.08,99.57L183.7,87.8L183.72,87.9L183.74,87.93L184.29,92.03L184.3,92.32L185.56,101.91L185.67,101.66L185.69,101.56L186.75,90.68L186.77,90.44L187.56,87.3L187.68,87.57L187.69,87.58L189.55,100.19L189.71,99.93L189.73,99.84L190.34,94.21L190.35,94L191.4,88.1L191.41,88.23L191.84,89.01L191.86,89.11L193.5,101.3L193.66,100.73L193.67,100.44L195.52,88.41L195.63,88.71L195.65,88.7L197.15,100.59L197.54,98.84L197.56,98.8L198.58,91.08L198.59,91.1L198.61,90.9L199.23,88.46L199.53,89.32L199.55,89.28L201.01,100.21L201.03,100.14L201.22,100.5L201.65,98.07L201.66,97.94L203.05,88.18L203.38,89.51L203.39,89.47L205.09,101.2L205.27,100.37L205.29,100.33L206.39,92.74L206.41,92.67L207.1,87.59L207.43,89.84L207.45,89.99L208.7,98.68L208.72,98.77L209.11,100.04L209.45,98.69L209.47,98.74L210.46,92.42L210.48,92.4L210.96,88.44L211.31,89.59L211.32,89.78L212.55,97.18L212.56,97.36L212.97,100.77L213.35,98.45L213.37,98.21L214.58,90.35L214.6,90.31L215.05,89L215.36,90.13L215.37,90.39L216.82,99.33L217.1,99.03L217.12,98.95L217.52,96.89L217.53,96.69L218.82,88.63L219.25,90.13L219.26,90.27L220.88,100.11L221.18,98.15L221.2,98.01L222.34,91.37L222.36,91.3L222.99,89.3L223.23,90.4L223.24,90.55L224.82,98.94L224.83,98.8L225.03,99.23L225.41,96.98L225.43,96.91L226.52,90.42L226.54,90.49L226.84,89.93L227.23,90.78L227.24,90.76L227.25,90.86L227.86,95.38L227.88,95.26L227.89,95.6L227.9,95.43L228.51,97.54L228.53,97.54L228.86,99.18L229.26,97.22L229.27,97.17L230.68,90.51L230.7,90.53L230.88,90.28L231.22,91.15L231.24,91.15L231.25,91.23L232,96.27L232.01,96.33L232.48,98.23L232.91,97.61L232.93,97.56L233.41,96.92L233.42,96.79L234.45,90.89L234.86,91.02L234.88,91.08L235.24,91.04L235.36,91.57L235.37,91.65L236.63,97.75L236.83,97.63L236.84,97.57L237.37,96.7L237.38,96.61L238.53,90.33L238.98,91.15L239,91.15L240.49,98.1L240.91,97.09L240.92,97.05L241.65,94.28L241.67,94.3L241.68,94.04L242.37,90.9L242.84,91.4L242.86,91.45L243.08,91.35L243.27,92.09L243.29,91.98L243.3,92.24L244.86,97.88L244.97,97.71L244.99,97.64L246.88,91.05L246.95,91.16L246.97,91.3L247.98,96.51L247.99,96.66L248.32,97.75L248.81,97L248.82,96.93L250.31,90.93L250.73,91.63L250.74,91.76L251.3,92.87L251.31,92.94L252.28,97.6L252.65,96.92L252.66,96.83L253.85,92.21L253.87,92.13L254.48,91.11L254.71,91.52L254.73,91.6L256.45,97.71L256.75,96.86L256.76,96.8L258.31,90.54L258.61,91.71L258.63,91.81L260.04,97.05L260.05,97.1L260.33,97.95L260.67,96.48L260.69,96.37L262.38,91.28L262.39,91.33L262.79,92.38L262.8,92.35L262.82,92.45L264.31,97.6L264.49,97.22L264.51,97.17L266.25,91.12L266.58,92.1L266.59,92.25L267.91,96.38L267.92,96.48L268.2,97.37L268.57,96.01L268.59,96.01L270.16,91.43L270.4,91.82L270.41,91.83L272,96.82L272.5,96.35L272.51,96.29L272.94,95.31L272.96,95.25L274.02,91.53L274.33,92.13L274.34,92.23L276.11,97.03L276.48,96.3L276.5,96.26L278.43,92L278.55,92.19L278.56,92.24L280.37,96.51L280.39,96.44L280.74,95.6L280.76,95.65L280.77,95.44L282.27,92.16L282.28,92.19L282.39,91.96L282.76,92.99L282.78,92.96L282.79,93.15L283.65,96.26L284.18,96.09L284.19,96.05L284.45,96.28L284.73,95.68L284.74,95.54L285.61,92.32L286.08,92.77L286.1,92.88L286.42,92.25L286.8,93.33L286.82,93.42L287.56,96.09L287.84,95.86L287.85,95.81L288.75,95.61L288.77,95.43L290.12,92.47L290.14,92.55L290.98,94.26L290.99,94.24L291.01,94.39L292.1,96.19L292.12,96.03L292.57,95.39L292.59,95.31L293.6,92.4L294.13,92.82L294.15,92.86L294.41,92.68L294.69,93.37L294.7,93.35L294.72,93.49L295.66,96.13L296,95.93L296.02,95.9L296.9,93.91L296.91,93.79L298.02,92.34L298.04,92.37L298.05,92.36L299.97,96.13L300.22,95.84L300.23,95.74L302.13,92.71L302.19,92.77L302.2,92.82L302.85,94.47L302.86,94.59L303.6,96.16L303.93,95.44L303.94,95.36L304.73,94.59L304.74,94.45L305.67,92.76L305.92,92.92L305.93,92.98L306.68,94.05L306.69,93.97L306.71,94.18L306.72,94.03L307.37,95.55L307.39,95.51L307.76,96.17L308.15,95.53L308.16,95.43L309.57,92.44L309.77,92.61L309.78,92.7L311.3,95.69L311.31,95.78L311.54,96.13L311.98,95.47L311.99,95.52L312.01,95.46L313.8,92.76L314.05,93.07L314.07,93.13L315.84,95.92L316.09,95.43L316.1,95.36L317.76,92.67L317.77,92.68L318.26,93.9L318.27,93.94L319.74,95.77L319.81,95.72L319.82,95.72L321.62,92.88L321.9,93.15L321.91,93.23L323.81,95.36L323.82,95.32L324.46,94.46L324.47,94.51L324.48,94.36L325.77,93L325.87,93.1L325.88,93.16L327.64,95.66L327.94,95.21L327.96,95.15L329.46,93.05L329.61,93.16L329.63,93.25L331.86,95.35L332.02,95.15L332.04,95.08L333.81,92.97L333.93,93.11L333.94,93.16L335.49,95.31L335.51,95.19L335.85,95.43L336.12,94.81L336.13,94.74L337.15,93.64L337.17,93.67L337.86,93.34L338.04,93.53L338.05,93.54L339.55,95.29L339.56,95.26L339.82,95.43L340.14,94.79L340.16,94.79L340.17,94.73L341.07,93.31L341.25,93.54L341.26,93.55L342.05,93.88L342.06,93.93L342.08,94L343.12,95.16L343.21,95.12L343.23,94.99L344.25,94.4L344.26,94.3L345.38,93.36L345.49,93.43L345.51,93.51L346.42,94.46L346.44,94.53L347.49,95.35L347.53,95.28L347.54,95.24L349.51,93.48L349.52,93.55L350.67,94.74L350.68,94.65L350.7,94.84L350.71,94.66L351.17,95.21L351.43,95.12L351.44,95.16L353.28,93.1L353.63,93.69L353.64,93.72L355.36,95.04L355.37,94.99L357.49,93.6L357.5,93.62L357.52,93.62L359.35,95.18L359.65,94.87L359.66,94.78L361.14,93.2L361.36,93.81L361.37,93.85L362.36,94.46L362.37,94.39L363.06,95.23L363.32,94.82L363.34,94.76L365.11,93.44L365.28,93.65L365.29,93.73L367.13,95.24L367.32,94.94L367.34,94.85L369.04,93.43L369.05,93.48L369.07,93.46L371.54,94.67L371.56,94.64L373.3,93.75L373.31,93.89L373.98,94.52L373.99,94.59L375.23,94.79L375.25,94.79L376,94.15L376.01,94.07L377.24,93.7L377.28,93.74L377.3,93.85L379.33,94.96L379.45,94.71L379.47,94.67L380.66,93.57L380.67,93.6L383.52,94.62L383.53,94.54L385.6,94.08L385.61,94.13L386.96,94.96L386.98,94.88L387.52,94.27L387.53,94.18L389.12,93.8L389.14,93.92L391.45,94.8L391.53,94.65L391.54,94.62L392.82,93.84L392.83,93.92L393.83,94.62L393.84,94.67L394.77,94.65L394.78,94.6L395.39,94.57L395.58,94.32L395.6,94.31L396.66,94.01L396.67,94.01L398,94.5L398.02,94.54L398.74,94.87L398.97,94.64L398.99,94.62L400.55,93.72L400.71,93.9L400.73,94.01L402.26,94.66L402.28,94.61L403.88,94.33L403.9,94.26L405.04,93.96L405.1,94.05L405.11,94.1L406.87,94.6L406.88,94.54L409.76,94.28L409.77,94.31L411.16,94.54L411.17,94.51L412.89,94.09L412.9,94.14L412.91,94.16L415.75,94.31L415.76,94.23L416.75,94.04L416.8,94.11L416.82,94.13L419.01,94.32L419.03,94.29L420.9,94.28L420.91,94.32L423.75,94.17L423.76,94.13L424.92,94.18L424.93,94.23L429.38,94.38L429.39,94.43L431.24,94.26L431.26,94.18L432.81,94.19L432.82,94.28L434.42,94.33L434.44,94.36L436.6,93.97L436.61,93.96L439.25,94.12L439.27,94.06L441.2,94.37L441.22,94.35L443.43,94.18L443.44,94.15L444.81,94.13L444.83,94.15L445.57,94.68L445.93,94.38L445.95,94.36L448.46,94.12L448.48,94.05L450.46,94.51L450.47,94.42L453.47,94.45L453.49,94.57L454.62,94.33L454.66,94.38L454.67,94.4L455.71,94.17L455.73,94.08L459.41,94.21L459.42,94.18L460.97,94.28L460.98,94.32L465.15,94.46L465.16,94.53L468.59,94.15L468.6,94.2L610,94.28" style="vector-effect: non-scaling-stroke; fill: none; stroke: rgb(192, 192, 192); stroke-opacity: 1; stroke-width: 1px; opacity: 1;"/></g><g class="points"/><g class="text"/></g><g class="trace scatter trace088cd7" style="stroke-miterlimit: 2; opacity: 1;"><g class="fills"/><g class="errorbars"/><g class="lines"><path class="js-line" d="M0,94.3L0.14,223.25L0.75,109.22L0.76,103.34L0.91,105.83L1.13,71.9L1.54,85.93L1.55,86.88L1.59,86.43L1.76,94.71L1.77,94.93L2.05,103.22L2.64,101.14L2.66,101.06L2.75,102.27L3.72,93.49L3.8,95.22L3.82,95.49L4.01,100.49L4.16,95.75L4.18,95.02L5.21,81.54L5.23,81.43L5.38,84.4L5.39,85.32L5.66,81.67L6.53,112.06L6.78,107.96L6.79,107.66L7.64,88.59L8.06,93.37L8.08,93.29L8.49,84.65L9.09,84.73L9.1,84.92L10.53,105.51L10.54,105.77L10.79,108.68L11.23,104.34L11.25,103.84L11.98,81.56L12.28,85.61L12.3,85.63L12.34,85.32L12.53,89.36L12.91,87.13L12.92,87.27L14.05,102.71L14.37,102.34L14.39,102.37L14.65,104.51L14.99,101.97L15.01,101.5L16.05,86.97L16.06,86.82L16.46,78.65L16.86,84.97L16.88,85.73L17.53,104.39L17.83,102.56L17.84,102.21L18.01,99.23L18.4,102.83L18.41,103.28L18.59,106.89L18.96,96.75L18.98,96.49L19.64,84.31L20.22,85.32L20.24,85.49L20.61,85.04L21.91,108.18L22.27,105.08L22.28,104.67L23.27,87.15L23.5,90.31L23.52,90.28L23.83,84.32L23.85,83.88L24.01,81.08L24.51,87.24L24.53,87.7L25.89,105.3L25.91,105.29L26.06,105.44L26.17,104.44L26.18,104.17L27.62,81.16L27.83,85.34L27.84,85.68L29.6,112.44L29.89,106.85L29.91,106.42L31.33,82.18L31.44,82.8L31.46,82.84L31.63,82.28L32.05,86.76L32.06,86.9L32.53,93.56L32.55,93.96L33.1,108.05L33.53,102.4L33.54,102.15L33.99,103.67L34.86,85.3L34.87,84.59L35.27,73.67L35.63,82.9L35.65,83.21L37.39,110.84L37.49,109.89L37.5,109.53L38.83,83.78L39.02,83.96L39.04,83.91L39.52,79.21L39.7,81.93L39.71,82.4L40.31,94.46L40.32,94.8L40.92,114.94L41.23,109.26L41.25,108.76L42.6,87.14L42.62,86.92L43.12,76.12L43.39,83.73L43.41,84.24L44.39,103.71L44.55,102.6L44.57,102.34L44.67,101.78L44.89,105.62L44.9,105.94L45.29,114.95L45.56,102.79L45.58,102.14L46.48,80.76L46.63,82.59L46.64,82.81L46.74,83.48L47.07,80.3L47.09,80.32L47.1,80.16L47.28,78.04L47.46,82.08L47.47,82.62L48.68,113.2L48.91,109.91L48.93,109.65L50.86,73.66L51.1,79.14L51.11,79.69L52.11,105.35L52.45,103.7L52.47,103.66L52.99,111.9L53.27,105.83L53.28,105.18L54.38,78.79L54.87,79.58L54.89,79.74L55.25,85.29L55.26,85.82L56.35,107.94L56.37,108.35L56.57,113.1L57.03,103.46L57.05,103.14L57.81,86.51L58.03,88.66L58.04,88.74L58.1,88.91L58.21,87.2L58.22,86.78L58.64,73.67L59.02,83.47L59.04,84.06L60.07,109.62L60.34,107.45L60.35,107.37L60.57,108.84L60.59,109.1L60.67,109.48L60.93,105.41L60.95,104.94L62.26,76.69L62.29,76.85L62.3,76.92L64.31,114.02L64.56,107.25L64.57,106.74L65.7,83.19L65.72,83.35L65.73,83.29L65.82,83.54L65.99,81.57L66.01,81.31L66.35,76.85L66.66,83.44L66.67,83.86L67.92,114.14L68.28,106.68L68.29,106.43L69.34,91.7L69.36,91.71L69.37,91.41L69.66,83.95L69.67,83.33L70.01,73.67L70.31,83.69L70.32,84.44L72,114.94L72.22,110.74L72.23,110.27L73.8,76.36L74.05,80.5L74.06,80.82L75.77,114.14L75.91,112.16L75.93,111.86L77.1,91.56L77.12,91.45L77.79,73.67L78.1,79.93L78.11,80.56L79.36,108.43L79.37,108.73L79.63,112.4L80.03,107.12L80.05,106.81L81.5,76.92L81.78,80.3L81.79,80.43L83.53,114.94L83.87,108.29L83.88,108.01L85.13,84.93L85.14,84.74L85.62,73.65L85.98,81.35L86,81.84L87.19,109.9L87.39,108.81L87.41,108.94L87.77,109.54L89.81,77.4L89.83,77.58L89.84,77.42L90.13,84.2L90.15,84.8L91.28,114.1L91.29,114.34L91.38,114.94L91.76,111.59L91.78,111.37L92.24,96.51L92.25,95.86L93.19,80.98L93.2,80.69L93.63,76.65L93.88,80.21L93.9,80.64L95.51,112.3L95.6,111.87L95.61,111.71L96.55,86.57L96.56,85.79L97.57,75.98L97.6,76.11L97.62,76.27L97.99,86.79L98,87.43L98.81,112.76L99.37,109.94L99.39,109.86L99.51,110.52L99.87,103.73L99.88,103.19L101.16,77.84L101.43,78.23L101.45,78.17L103.22,114.94L103.37,112.42L103.38,112.07L105.11,74.14L105.36,77.47L105.38,77.88L106.87,111.78L107.04,111.13L107.05,110.97L107.81,100.46L107.82,100.24L108.94,77.16L109.26,79.97L109.28,80.37L110.85,114.94L111.17,109.21L111.19,108.51L112.83,76.18L112.96,77.15L112.97,77.24L114.73,114.83L114.74,114.86L114.93,111.65L114.95,111.09L116.68,74.28L116.9,76.61L116.91,77.17L118.6,112.74L118.95,108.08L118.96,107.71L120.59,76.83L120.95,81.66L120.97,81.75L122.6,114.94L122.79,111.82L122.81,111.58L124.01,84.7L124.02,84.52L124.58,75.56L124.88,80.54L124.89,81.11L125.71,95.89L125.72,96.16L126.37,110.48L126.87,109.43L126.89,109.64L128.38,76.45L128.95,77.14L128.96,77.27L128.97,77.09L129.25,84.63L129.26,85.5L130.41,114.94L130.7,110.69L130.72,110.51L131.98,79.85L132.05,80.08L132.06,80.08L132.17,80.42L132.39,78.19L132.4,78.01L132.67,75.12L132.93,79.85L132.94,80.33L134.74,112.63L134.83,112.1L134.84,111.69L135.38,92.35L135.39,91.94L136.14,75.82L136.64,78.07L136.65,78.22L136.91,80.39L136.93,80.3L136.94,80.97L138.5,112.6L138.56,112.15L138.57,112.05L139.47,86.97L139.49,86.16L140.51,74.75L140.52,74.53L140.59,73.67L140.81,78.81L140.83,79.56L141.91,110.91L142.14,109.8L142.16,109.69L142.2,109.51L142.46,111.42L142.47,111.91L142.61,112.98L142.95,102.33L142.96,101.6L143.95,79.89L143.97,79.92L143.98,79.81L144.3,78.33L144.65,79.97L144.66,79.84L144.67,80.14L144.94,83.57L144.95,83.95L146.24,113.37L146.25,113.34L146.32,113.99L146.74,105.26L146.75,105.05L148.38,73.67L148.45,74.1L148.46,74.27L149.35,103.27L149.36,103.9L149.86,113.28L150.29,110.12L150.3,110.04L150.94,97.42L150.95,96.83L152.02,75.02L152.35,80.07L152.37,80.24L154.09,114.94L154.18,114.21L154.19,113.93L156.03,74.74L156.27,77.94L156.28,78.34L157.94,114.95L158.22,109.42L158.23,109.15L159.54,79.79L159.56,79.57L159.9,74.47L160.3,79.95L160.32,79.93L161.8,114.94L161.81,114.6L161.83,114.83L162.14,110.43L162.16,109.92L163.72,74.77L164.12,80.2L164.14,80.45L165.8,114.94L166.1,108.6L166.11,108.29L167.72,73.67L168.02,78.31L168.04,78.73L169.63,113.22L169.93,110.36L169.95,109.88L171.55,77.33L171.9,78.67L171.91,78.51L173.69,114.94L174.05,110.25L174.07,109.88L175.77,73.67L175.78,73.79L175.99,77.24L176,77.79L176.34,89.66L176.35,89.61L176.36,90.37L177.72,114.94L177.93,112.31L177.94,111.73L178.16,104.52L178.18,103.97L179.66,76.41L179.67,76.49L179.86,74.88L180.24,84.11L180.25,84.54L181.22,111.83L181.63,111.13L181.65,111.24L181.83,112.08L182.06,109.06L182.08,108.39L183.7,76.8L183.72,77.07L183.74,77.15L183.78,77.03L184.35,90.7L184.36,91.13L185.33,110.65L185.34,110.7L185.56,114.94L185.96,106.62L185.98,106.73L185.99,105.64L186.01,105.81L186.19,101.03L186.2,100.89L187.56,74.91L187.62,75.17L187.64,75.2L189.55,110.95L189.71,110.24L189.73,109.99L190.24,98.25L190.25,97.62L191.43,76.42L191.59,77.02L191.61,76.96L193.5,114.94L193.53,114.93L193.54,114.37L193.56,114.83L193.92,105.91L193.93,105.23L195.52,75.89L195.59,76.23L195.61,76.44L196.38,98.82L196.39,99.05L197.15,114.94L197.57,108.95L197.58,108.75L198.46,87.51L198.47,86.74L199.23,74.99L199.58,77.9L199.59,78.56L199.6,78.3L200.03,86.04L200.05,86.9L201.18,114.94L201.4,112.65L201.42,112.55L202.78,79.11L202.8,78.54L203.05,74.96L203.46,80.55L203.48,80.27L203.49,80.84L203.5,80.69L203.84,86.5L203.85,86.97L205.09,114.94L205.41,108.99L205.43,108.23L207.1,73.67L207.13,73.85L207.14,73.81L207.63,87.02L207.64,87.45L209.11,112.17L209.38,109.48L209.4,109.26L210.96,75.84L211.19,77.9L211.21,78.19L212.97,114.94L213.31,108.82L213.33,108.37L214.72,78.91L214.74,79.18L215.05,76.59L215.43,82.6L215.44,83.14L216.82,111.75L217.25,109.63L217.27,109.03L217.28,109.36L217.68,98.86L217.7,98.15L217.71,98.36L218.19,92.76L218.21,92.29L218.82,73.67L219.2,78.41L219.22,78.74L220.85,114.77L220.86,114.7L220.88,114.94L222.99,75.02L223.23,79.14L223.24,79.72L224.92,114.47L224.93,114.14L225.03,114.94L225.41,105.52L225.43,105.22L226.52,77.98L226.54,78.28L226.84,75.89L227.25,79.77L227.27,79.81L228.83,114.9L228.85,114.47L228.86,114.94L229.37,104.1L229.38,104.33L229.4,103.64L230.88,75.22L231.16,77.86L231.17,78.14L232.48,114.94L232.95,111.34L232.97,111.55L233.06,111.76L233.77,91.2L233.78,90.2L234.45,76.42L234.95,76.85L234.96,77.33L235.07,76.75L235.51,86.32L235.53,86.9L236.63,112.28L236.8,111.81L236.81,111.54L236.85,111.65L237.48,103.41L237.49,102.57L238.53,73.67L238.94,77.22L238.96,77.58L239.39,86.1L239.4,86.63L240.46,114.66L240.48,114.55L240.49,114.94L241.05,108.16L241.06,108.22L241.07,108.11L241.63,95.19L241.64,95.3L241.65,94.19L242.37,75.32L242.75,78.09L242.76,78.6L243.04,77.52L243.38,85.1L243.4,86.18L243.41,86.01L243.6,95.16L243.62,94.99L243.63,96.47L243.65,95.84L244.01,107.65L244.02,108.11L244.03,107.94L244.48,112.47L244.5,112.42L244.52,112.65L244.86,114.94L245.57,91.5L245.58,90.51L245.6,90.8L245.85,84.11L245.86,84.23L245.87,83.64L246.88,75.11L246.98,75.86L246.99,77.1L247.01,76.39L247.37,89.84L247.38,90.79L248.32,114.95L248.72,111.64L248.74,110.92L248.75,111.4L249.26,101.34L249.28,101.53L249.29,100.8L249.86,85.15L249.87,84.48L250.26,73.67L250.71,78.34L250.73,77.91L251.86,108.51L251.88,109.45L252.28,114.94L252.65,110.6L252.66,110.04L253.49,96.23L253.51,95.49L254.48,74.69L254.71,77.25L254.73,77.75L254.74,77.56L255,85.89L255.02,85.28L255.03,86.57L255.04,86.26L255.51,94L255.53,93.75L255.54,94.49L256.33,114.94L256.7,110.51L256.72,110.08L258.31,73.67L258.52,76.92L258.53,77.58L260.33,114.94L260.48,113.02L260.49,112.4L262.4,76.17L262.62,78.59L262.64,78.77L264.31,114.94L264.63,109.62L264.64,108.86L266.25,73.67L266.55,79.57L266.57,80.48L266.58,79.95L267.12,90L267.13,90.93L268.2,114.94L268.45,110.06L268.46,109.38L270.16,73.67L270.51,78.45L270.52,78.74L271.21,93.65L271.23,93.28L271.24,94.67L271.26,93.94L271.64,106.45L271.66,106.37L271.67,107.11L272,112.65L272.45,109.26L272.46,109.04L272.53,109.35L272.86,103.85L272.87,104.59L272.89,103.33L272.9,103.48L273.1,96.01L273.11,96.08L273.12,95.19L274.02,73.67L274.42,79.82L274.44,80.42L274.45,80.12L274.94,87.82L274.95,87.22L274.96,88.65L274.98,88.2L275.29,97.18L275.31,97.03L275.32,97.78L275.34,97.56L275.59,102.72L275.6,103.7L275.61,103.48L275.92,112.78L275.93,112.32L275.94,113.39L276.11,114.94L277.92,77.84L278.02,77.98L278.03,78.32L278.43,73.67L278.68,80.17L278.7,79.72L278.71,80.71L280.37,114.94L280.51,114.11L280.52,113.73L280.8,104.22L280.81,103.19L280.83,103.38L280.92,97.9L280.94,98.18L280.95,97.07L282.39,73.67L282.45,74.43L282.46,74.6L282.9,87.91L282.92,89.08L283.65,112.28L284.02,109.88L284.04,109.61L284.45,112.94L284.71,107.28L284.73,107.38L284.74,106.05L284.76,106.54L285.03,95.17L285.05,94.3L285.61,74.92L286.04,79.93L286.06,80.22L286.42,73.8L286.76,82.65L286.78,83.45L287.56,112.19L288.08,110.38L288.09,109.88L288.44,113.2L288.74,107.07L288.75,107.37L288.77,105.56L288.78,106.77L289.29,78.32L289.31,78.93L290.1,76.01L290.11,76.72L290.12,76.01L290.72,85.06L290.73,85.06L290.75,85.76L292.1,113.2L292.21,112.8L292.23,111.39L292.24,112.19L292.83,99.73L292.85,99.73L293.6,75.31L294.02,79.83L294.04,80.53L294.38,77.82L294.72,86.16L294.73,85.56L294.74,87.47L294.76,86.46L295.17,103.25L295.19,103.95L295.66,112.6L296.15,109.38L296.17,109.38L296.24,109.68L297.21,82.54L297.55,83.75L297.57,83.65L297.92,74.5L298.35,81.04L298.37,82.34L298.38,81.54L298.93,97.32L298.95,97.92L299.92,111.99L299.93,110.99L299.97,112.6L300.59,100.53L300.61,100.43L301.66,76.41L301.99,78.52L302.01,79.33L302.13,78.32L302.63,90.18L302.64,90.18L302.66,90.89L303.6,112.9L303.83,107.87L303.84,106.87L303.86,107.07L304.02,103.85L304.45,105.96L304.47,105.46L305.67,78.83L305.98,80.23L305.99,81.84L306,80.23L306.67,90.59L306.68,91.79L306.69,90.99L307.26,104.56L307.28,104.35L307.76,113L308.06,108.27L308.08,108.58L308.98,91.39L308.99,91.19L309.57,75.71L309.97,81.14L309.99,82.54L310,81.74L310.53,92.7L310.62,91.69L310.64,92.7L310.79,90.99L311.26,106.46L311.27,107.47L311.54,112.6L311.83,108.68L311.84,107.67L311.85,108.68L312.48,97.42L312.49,97.52L312.53,97.62L313.6,77.82L313.94,80.64L313.96,81.14L313.97,80.74L314.45,90.89L314.47,90.59L314.48,91.99L314.5,91.19L314.99,100.74L315.01,100.94L315.74,110.69L315.95,109.28L315.96,108.07L315.98,108.58L316.31,98.52L316.32,97.72L316.34,97.92L316.56,92.7L316.57,92.8L316.58,92.09L316.6,92.7L317.15,86.77L317.17,87.17L317.76,77.92L318.02,82.44L318.04,82.65L319.21,104.56L319.23,104.25L319.68,109.18L319.99,105.36L320,105.26L321.62,80.03L321.87,82.65L321.88,83.15L321.9,82.75L322.27,89.48L322.28,88.58L322.3,89.78L322.31,89.18L322.84,101.74L322.85,102.34L323.14,105.86L323.65,104.96L323.67,103.95L323.83,104.96L324.32,99.13L324.34,99.33L324.36,98.32L324.37,99.13L324.94,86.16L324.95,86.97L324.97,86.16L325.13,86.67L325.59,81.64L325.6,81.74L325.62,81.74L325.7,80.94L326.21,88.98L326.23,88.78L327.15,104.45L327.17,103.95L327.55,108.17L327.9,103.55L327.91,103.95L327.93,102.95L327.94,103.35L328.45,93.8L328.47,93.1L328.48,93.3L328.9,87.07L328.91,87.37L328.92,86.67L328.94,87.37L329.46,81.74L329.56,82.85L329.57,82.75L331.68,105.66L331.9,104.15L331.91,103.95L332.28,96.92L332.3,97.52L332.31,96.21L332.33,96.62L332.69,88.88L332.7,88.58L333.76,80.74L333.86,81.54L333.88,81.64L335.34,103.45L335.37,103.35L335.38,103.05L335.85,105.56L336.05,101.34L336.06,100.84L336.6,86.77L337.18,87.57L337.2,87.87L337.57,84.25L337.96,85.56L337.97,85.76L338.88,102.95L339.39,102.24L339.41,101.94L339.82,105.56L340.11,99.73L340.13,100.03L340.9,84.05L341.04,84.76L341.05,85.66L341.29,87.07L341.72,84.35L341.8,85.26L341.82,85.36L342.96,103.05L343.28,101.34L343.3,101.24L343.79,102.85L344.24,94.91L344.25,95.31L345.09,85.46L345.11,86.06L345.25,84.45L345.81,88.37L345.83,88.17L347.38,104.86L347.39,104.05L347.45,104.86L347.98,96.21L348,96.01L348.87,86.46L348.93,86.67L348.94,86.87L348.98,87.67L349.53,86.06L349.66,87.37L349.67,87.67L349.69,87.17L350.11,94.91L350.13,94.4L350.14,95.31L350.16,94.71L350.72,99.73L350.75,99.43L350.76,99.53L351.17,103.35L351.61,101.84L351.62,101.14L351.64,101.54L352.07,95.51L352.08,95.61L352.09,94.91L352.11,95.51L352.66,90.48L352.67,90.79L352.69,90.38L353.28,82.24L353.49,85.16L353.5,86.16L353.52,85.46L354.04,92.8L354.06,92.29L354.07,92.8L354.79,102.44L355.11,102.14L355.12,101.64L355.22,102.55L355.63,98.42L355.65,98.52L355.66,98.32L356.78,87.17L356.82,87.37L356.84,87.97L356.87,88.07L357.31,86.36L357.58,87.87L357.6,88.37L359.2,103.75L359.49,101.34L359.51,100.84L361.03,82.95L361.29,87.37L361.31,87.87L362.36,95.91L362.37,95.21L362.98,103.75L363.19,101.54L363.2,101.24L364.17,94.81L364.18,95.51L365,85.16L365.14,85.96L365.15,86.77L365.21,86.67L367.02,104.35L367.05,104.25L367.06,103.75L367.07,103.95L367.47,97.42L367.49,97.52L367.5,96.92L367.52,97.32L367.9,91.59L367.99,92.39L368,91.69L368.43,92.8L368.71,90.28L368.72,90.18L369.16,85.56L369.45,90.69L369.47,90.59L369.8,95.61L370.28,94.61L370.3,94.4L371,102.34L371.24,101.14L371.25,100.13L371.26,100.84L371.91,95.01L371.93,95.31L371.94,95.01L372.39,91.39L372.4,91.49L372.41,90.59L372.43,90.89L372.74,84.86L372.77,84.86L372.79,84.96L372.86,84.66L373.28,89.88L373.3,88.78L373.31,90.18L373.33,89.08L373.92,96.21L373.93,95.51L373.95,96.51L374.58,99.93L374.82,99.23L374.83,98.42L375.28,99.53L375.53,97.62L375.57,98.42L375.58,98.12L376.31,89.78L376.48,90.08L376.49,90.28L376.71,90.69L377.03,88.37L377.05,88.88L377.06,88.27L377.09,88.07L377.86,94L377.89,93.9L377.9,93.6L377.93,93.5L379.02,101.74L379.05,101.64L379.07,101.84L379.18,102.14L380.49,87.77L380.5,88.27L380.59,86.77L381.15,91.49L381.17,91.39L381.18,91.29L382.47,99.53L382.48,99.13L382.57,100.13L383.15,96.92L383.17,97.52L383.19,96.82L383.58,97.62L383.85,94L383.88,94.2L383.89,93.8L383.91,94.1L384.34,91.09L384.47,91.89L384.49,91.39L384.54,91.59L385,86.97L385.01,87.27L385.03,87.07L385.07,86.56L385.58,92.29L385.6,92.09L385.61,92.6L385.64,92.19L386.12,100.33L386.47,98.63L386.48,97.92L386.56,97.52L387.02,101.14L387.24,98.32L387.26,98.83L388.06,91.69L388.07,91.89L388.28,92.49L388.97,88.07L389.07,89.08L389.08,89.78L389.15,89.28L389.69,95.11L389.7,94.4L389.72,95.31L389.73,94.61L390.38,97.42L390.44,97.12L390.45,97.22L390.49,97.02L390.96,99.93L391.05,99.43L391.06,100.13L391.09,100.33L391.94,90.59L391.96,90.69L392.19,88.68L392.75,89.78L392.76,89.78L392.79,89.68L393.98,99.43L393.99,99.23L394.05,99.93L394.45,96.41L394.5,97.42L394.52,96.21L394.9,98.32L395.26,97.12L395.28,97.32L395.32,97.42L395.96,90.59L396.3,91.59L396.32,91.59L396.43,91.99L397.13,90.28L397.15,90.99L397.26,89.78L397.84,95.01L397.85,94.91L397.86,94.81L397.89,94.71L398.46,100.94L398.72,99.53L398.74,99.93L399.58,93.5L399.59,94L400.49,88.47L400.51,88.98L400.55,88.47L401.06,94L401.17,93.2L401.18,93.4L401.3,92.19L401.72,95.11L401.74,95.61L401.75,94.91L402.21,98.02L402.46,97.62L402.47,97.52L402.54,97.82L403.09,96.11L403.16,96.51L403.18,96.31L403.23,96.51L403.8,94.5L403.83,94.91L403.84,94.2L403.85,95.01L404.44,88.07L404.5,88.17L404.52,88.27L404.57,87.87L405.47,95.11L405.49,94.91L406.4,98.93L406.66,98.02L406.68,97.32L406.69,98.12L407.38,93.8L407.4,93.7L407.41,94L408.05,91.19L408.06,91.79L408.07,90.79L408.21,90.28L408.81,92.9L408.86,92.7L408.88,93L409.54,92.6L409.55,93.9L409.61,93.3L409.62,93.5L409.65,93.1L410.83,98.83L410.84,98.12L410.91,98.63L411.5,94.61L411.52,94.5L412.2,88.58L412.53,90.48L412.54,91.39L412.55,90.69L413.25,94.1L413.26,93.2L413.27,94.1L413.29,93.4L413.91,97.52L413.92,97.72L414.19,99.33L414.45,97.62L414.46,97.32L414.92,93.7L415.36,95.21L415.38,95.61L415.56,96.01L416.19,90.48L416.25,90.79L416.26,90.79L416.41,90.18L416.84,92.8L416.91,92.7L416.93,92.49L417.34,91.39L417.82,98.12L417.84,97.42L418.03,99.93L418.59,98.12L418.6,97.52L418.64,97.82L419.19,93.4L419.21,94.1L419.22,93.4L419.43,94.3L419.87,91.69L419.89,91.89L419.9,91.49L420.26,89.58L420.55,91.89L420.58,91.79L420.59,92.49L420.61,91.79L421.24,95.41L421.26,94.61L421.27,95.31L421.46,95.51L421.75,93.8L422.02,95.31L422.03,96.01L422.04,95.31L422.38,98.32L422.76,95.41L422.78,96.41L423.54,93.6L423.55,94.5L424.27,89.28L424.46,90.38L424.48,89.98L425.35,94.81L425.36,94.71L425.85,97.82L426.22,96.51L426.24,96.41L426.71,97.22L426.84,95.81L426.89,96.11L426.9,95.61L426.91,96.01L427.3,91.69L427.55,92.6L427.56,91.99L428.34,93.7L428.35,93.1L428.37,93.8L428.9,90.99L429.08,93L429.1,92.39L429.54,96.01L429.89,95.31L429.9,95.81L429.91,95.41L430.32,98.32L430.59,97.52L430.61,97.42L430.65,97.62L430.98,95.51L431.01,95.61L431.02,95.61L432,90.89L432.02,91.19L432.14,90.59L432.67,93.8L432.68,92.9L432.69,94.1L432.71,93L433.4,96.11L433.41,95.81L433.75,97.82L434.12,95.31L434.13,95.31L434.15,95.51L434.35,94.5L434.73,96.01L434.89,95.51L434.91,95.51L434.98,96.11L435.56,93.3L435.59,93.3L435.6,93L435.68,93.1L435.85,91.49L436.28,92.39L436.29,93.1L436.75,90.59L437.02,93.5L437.04,93.9L437.05,93.7L437.31,96.82L437.67,96.11L437.69,96.31L437.74,96.01L438.21,97.42L438.3,97.12L438.31,97.42L438.56,97.62L439.29,91.89L439.72,92.7L439.74,92.9L440.15,91.69L440.47,93.2L440.48,92.29L440.5,93.3L440.57,92.6L441.11,95.61L441.2,95.01L441.22,94.81L441.38,94.3L442.02,95.61L442.03,95.41L442.05,95.51L442.53,97.62L442.81,95.91L442.82,95.61L442.83,95.81L443.37,93L443.43,93.1L443.44,92.8L443.48,92.9L444,91.39L444.19,91.89L444.2,92.9L444.38,91.09L444.91,93.9L444.92,93.1L444.94,94.2L444.95,93.6L445.43,98.12L445.63,97.02L445.64,97.22L446.04,94.61L446.44,96.41L446.46,96.21L446.53,96.72L447.04,92.8L447.05,92.8L447.15,91.99L447.68,94L447.69,93.5L447.7,94.4L447.83,94.71L448.48,91.79L448.51,92.09L448.52,92.09L448.6,91.89L450.07,97.12L450.08,96.41L450.17,97.32L450.68,94.71L450.8,95.21L450.82,95.21L451.7,90.59L451.77,90.99L451.78,91.29L451.8,90.99L452.31,94.4L452.32,94.2L452.34,94.71L452.77,93L453.07,95.31L453.08,94.4L453.1,95.21L453.49,96.92L453.84,94.81L453.86,95.71L454.4,94.1L454.62,94.61L454.63,95.31L454.83,96.11L455.73,92.09L455.81,92.49L455.82,92.6L456.22,91.69L456.51,93.2L456.53,92.49L456.54,93.7L456.56,92.39L457.25,96.01L457.26,95.21L457.28,95.71L457.29,95.41L457.79,97.32L457.99,96.72L458.01,97.02L458.89,93L458.95,93.1L458.96,93.3L459.09,94L459.53,92.7L459.54,92.7L459.56,92.49L459.77,91.59L459.99,93.7L460.04,93.4L460.06,93.6L460.07,93.4L460.28,95.11L460.77,93.7L460.79,94.5L460.8,93.7L461.51,95.41L461.52,94.71L461.54,95.21L461.56,94.91L461.95,96.31L462.25,95.41L462.27,95.81L462.6,96.01L463.08,93.4L463.1,93.9L463.58,91.59L463.87,92.6L463.89,92.19L464.15,92.09L464.69,94.61L464.7,94.1L465.16,96.62L465.52,96.11L465.53,96.01L466.79,93.5L466.81,94.3L466.93,94.81L467.51,92.8L467.57,93.1L467.58,92.9L468.02,94.4L468.3,92.8L468.34,93.3L468.36,93L468.44,92.8L469.61,97.42L469.92,96.11L469.93,95.81L469.95,96.21L470.4,94.4L470.61,94.61L470.62,94.4L470.71,94.71L471.18,92.49L471.23,92.6L471.25,92.49L471.41,91.69L471.9,93.5L471.91,93.2L471.92,93.7L471.94,93.2L472.49,95.21L472.62,94.4L472.63,94.91L472.77,94.2L473.18,95.41L473.36,95.21L473.38,95.21L473.4,95.61L474.12,94.5L474.14,95.01L474.43,94L474.72,95.31L474.88,95.11L474.9,95.21L474.95,95.41L475.67,92.19L475.74,92.49L475.76,92.39L475.99,91.99L477.06,95.51L477.07,95.01L477.14,94.91L477.68,96.82L477.84,96.21L477.86,95.71L477.87,96.11L478.43,93L478.55,93.6L478.56,93.1L478.88,92.49L479.39,94.2L479.41,93.9L479.53,94.61L479.93,93.1L480.15,93.7L480.17,94L480.18,93.4L480.79,94.91L480.91,94.3L480.93,95.01L481.23,93.4L481.66,95.51L481.68,95.61L482.05,96.92L482.34,94.91L482.35,95.11L482.37,94.81L482.46,95.11L483.29,92.6L483.31,93.4L483.52,92.39L483.53,93.6L484.05,93.3L484.07,93.3L484.08,93L484.71,96.01L484.72,95.51L484.73,96.21L484.88,96.41L485.51,94.61L485.52,94.81L485.56,95.01L486.01,93.7L486.3,94.4L486.31,94.61L486.34,94.71L486.85,93.4L487.07,94L487.08,93.8L487.29,94.71L487.78,93.3L487.79,93.4L487.8,93L488.09,92.49L488.54,94.61L488.59,94.4L488.61,94.4L489.23,95.71L489.38,95.31L489.39,95.11L489.82,96.01L490.11,94.71L490.13,95.31L490.14,94.61L490.21,95.21L490.68,93L490.85,93.6L490.86,93.2L490.99,93.8L491.37,92.8L491.62,93.4L491.64,93L492.37,95.81L492.42,95.11L492.44,95.41L492.49,95.61L492.99,93.6L493.23,94L493.24,94.5L493.25,94.1L493.56,95.41L493.97,95.11L493.99,94.71L494.37,94.1L494.39,95.41L494.72,94.61L494.73,93.9L494.75,94.71L495.26,92.8L495.45,93.5L495.47,92.7L495.49,92.6L496.19,94.3L496.23,93.8L496.24,94.2L496.26,93.8L496.85,96.11L496.92,95.41L496.93,95.51L497,95.81L497.39,94.4L497.67,95.21L497.68,95.61L497.71,95.81L498.41,92.49L498.47,92.7L498.48,92.7L498.58,92.39L499.34,94.91L499.58,94.1L499.59,94.1L499.96,93L500.32,94.4L500.34,94.1L500.35,94.5L500.56,94.71L500.81,93.9L501.1,94.4L501.11,94.91L501.19,94.3L501.68,95.91L501.86,94.81L501.87,95.11L502.77,92.9L502.8,93L502.81,93.4L503.09,92.39L503.43,93.7L503.54,93.6L503.56,93.7L503.7,93.5L504.24,94.71L504.26,94.5L504.28,94.61L504.96,96.11L505.15,95.21L505.16,95.01L505.47,93.4L505.98,94.3L505.99,94.71L506.3,95.41L506.75,93.9L506.77,94.4L507.17,93.3L507.53,93.6L507.54,94L507.97,93L508.18,94.2L508.29,94L508.3,94.3L508.32,94L508.75,95.31L509.01,94.81L509.02,95.31L509.29,96.31L509.82,94.3L509.84,94.3L510.59,93.4L510.6,94.1L511.03,92.39L511.35,93.6L511.36,93.8L511.42,93.6L511.98,95.81L512.05,95.01L512.07,95.21L512.65,93.2L512.83,94.5L512.84,94.5L513.06,95.21L513.41,94.3L513.6,94.71L513.62,94.61L514.11,94.1L514.13,95.41L514.36,94.5L514.38,94.71L515.03,93L515.16,93.2L515.18,93.8L515.73,94L515.75,93.1L515.91,93.7L515.93,93.9L515.94,93.7L516.44,95.51L516.62,95.01L516.63,95.61L517.02,94.61L517.38,94.71L517.39,95.01L518.17,93.1L518.19,93.2L518.21,94.1L518.3,93.4L518.91,95.01L518.95,94.4L518.97,94.4L519.02,94.71L519.52,93.6L519.78,93.9L519.8,94.2L520.28,93.7L520.5,94.61L520.53,94.5L520.55,94.5L520.59,94.2L521.03,95.41L521.28,94.91L521.29,94.91L521.79,95.21L521.8,93.9L522,95.01L522.01,94.3L522.03,95.41L522.65,92.9L522.73,93L522.74,93.1L522.95,92.6L523.38,94.2L523.39,94.2L523.44,93.9L524.18,95.01L524.2,94.71L524.38,95.51L524.92,94.3L524.93,94.81L524.94,94.1L524.96,94.71L525.11,93.9L525.69,94.2L525.7,94.3L525.84,94L525.86,95.01L526.44,94.5L526.45,94L526.47,94.81L527.05,93.4L527.18,93.6L527.2,93.9L527.28,93.4L527.78,94.4L527.93,94.3L527.95,94.2L528.4,93.7L528.89,95.61L528.9,95.01L528.94,95.91L529.59,94L529.63,94L529.65,94.4L530.34,93.1L530.41,93.6L530.42,94.2L530.48,94.4L530.49,93.4L531.15,94.1L531.17,94.3L531.25,93.9L531.72,94.91L531.9,94.3L531.92,94.61L531.98,94.81L532.47,93.8L532.68,94.3L532.69,94.2L532.77,94.1L533.4,95.31L533.55,94.91L533.56,94.71L533.64,95.01L533.85,94L534.23,94.5L534.24,93.8L534.56,94.5L534.92,93.6L534.97,93.8L534.99,93.6L535.28,93.1L535.75,94.61L535.77,94.5L535.79,94.4L536.15,95.51L536.54,95.21L536.55,94.4L536.73,95.31L536.74,94L537.3,94.5L537.31,94.3L537.41,93.9L537.42,94.71L537.88,94.1L537.89,93.7L538.57,94.81L538.65,94.3L538.67,94.61L538.93,94.81L539.41,93.7L539.43,94.2L539.91,93.5L539.92,95.01L540.17,94.1L540.19,94.71L540.33,94.1L540.89,95.11L540.93,94.3L540.95,95.01L541.21,95.21L541.67,94.4L541.71,94.5L541.72,94.81L542.39,93.1L542.51,93.4L542.53,93.6L542.58,93L543.12,94.61L543.23,94.2L543.24,94.4L543.29,94.1L543.65,95.21L543.98,94.4L543.99,94.71L544.38,94.81L544.59,93.9L544.77,94L544.78,94.81L544.81,94.91L544.82,93.8L545.53,94.1L545.54,94.61L546.12,94.91L546.14,94L546.29,94.3L546.3,94.4L546.38,94.71L546.99,93.6L547.06,93.7L547.08,94.2L547.26,93.4L547.7,94.61L547.82,94L547.84,94.61L547.85,93.9L548.54,95.21L548.58,94.61L548.6,94.91L548.86,95.41L549.39,93.9L549.41,94L549.43,94.3L549.95,93.6L550.19,93.8L550.2,94.1L550.27,93.8L550.41,94.71L550.85,94.1L550.87,94.61L551,93.7L551.53,94.81L551.61,94.3L551.63,94.61L552.15,95.11L552.17,93.5L552.37,94.3L552.39,94.3L552.5,93.7L552.51,94.91L553.08,94.61L553.09,94.71L553.45,95.11L553.84,94.1L553.85,94.81L554.61,93.5L554.63,94.1L554.88,93.4L555.36,94.5L555.38,93.8L555.39,94.5L555.46,93.7L556.03,95.21L556.12,94.61L556.14,95.11L556.32,95.21L556.9,93.9L556.91,94.2L556.95,93.6L557.59,94.81L557.64,94.4L557.66,94.61L558.11,93.6L558.42,94.1L558.43,94.4L558.74,94.81L559.15,93.8L559.18,93.9L559.19,94.4L559.5,93.4L559.51,94.61L559.94,94.2L559.95,94.2L560.05,93.9L560.42,95.01L560.76,94.81L560.77,94.5L560.95,95.11L561.45,94L561.5,94.4L561.52,93.9L561.79,94.81L561.81,93.5L562.26,94L562.28,93.5L563.05,95.11L563.07,94.3L563.18,95.21L563.66,93.6L563.81,94L563.83,94.5L563.84,93.9L564.33,95.01L564.57,94.61L564.59,94.2L564.63,94.71L565.1,93.8L565.33,94.3L565.35,94.61L565.78,95.01L566.05,93.9L566.1,94.3L566.11,94.2L566.15,94.5L566.52,93.7L566.87,94L566.88,94.2L567.27,93.8L567.47,94.5L567.62,94.3L567.63,94.5L567.67,94L568.02,95.11L568.36,94.4L568.38,94.81L568.78,94.91L568.89,93.9L569.14,94.2L569.15,94.3L569.24,94.61L569.57,93.5L569.91,94.2L569.93,94.4L570.07,94.71L570.61,93.8L570.67,94L570.69,94.5L570.7,93.9L571.3,94.91L571.43,94.4L571.45,94.4L571.52,94.5L571.95,93.8L572.2,94L572.21,94.61L572.68,95.01L572.69,93.9L572.96,94.61L572.97,94.4L573.04,94.2L573.37,94.81L573.68,94.61L573.69,94.1L573.8,94.61L574.23,93.5L574.42,94.1L574.44,93.8L574.8,93.6L574.81,94.91L575.18,94.4L575.2,94.2L575.27,93.9L575.97,95.01L575.99,94L576,95.31L576.71,93.7L576.73,93.8L576.75,94.4L576.82,93.9L577.09,94.61L577.49,94.5L577.51,94.1L577.65,93.8L578.12,94.61L578.27,94.4L578.28,94.5L578.72,94.71L578.74,93.8L579.04,94L579.06,94.3L579.72,94.81L579.73,93.6L579.82,94.1L579.83,94.71L579.85,93.9L580.44,95.31L580.56,94.3L580.58,94.91L580.61,95.01L581.19,93.8L581.34,94.2L581.35,94.3L581.59,94.71L581.74,93.7L582.11,94.1L582.13,94.2L582.36,93.8L582.78,94.81L582.85,94.1L582.86,94.81L583.01,93.9L583.03,95.01L583.62,94.1L583.64,94.4L583.72,93.8L584.19,94.81L584.38,94.3L584.4,94.4L584.44,93.8L584.92,94.81L585.14,94.2L585.16,94.61L585.23,94.71L585.38,94L585.9,94.3L585.92,94.5L585.95,94.71L586.42,93.6L586.66,93.8L586.68,94.3L587,94.71L587.01,93.7L587.43,94.2L587.44,94.61L587.52,94.81L588.19,93.9L588.2,94.81L588.93,93.9L588.95,94.4L588.96,94.3L589.14,93.7L589.15,94.61L589.71,94.1L589.72,94.4L590.12,94L590.14,94.71L590.47,94.2L590.48,94.4L590.84,94.61L590.98,94L591.23,94.3L591.24,94.4L591.53,94.71L591.71,93.9L591.96,94.1L591.98,94.61L592.6,94L592.61,94.81L592.72,94.61L592.74,94.3L593.15,94L593.17,94.81L593.48,94.3L593.5,94.2L593.77,93.9L593.79,94.71L593.8,93.6L594.52,94.61L594.56,94.2L594.58,94.4L594.6,94.71L594.62,93.9L595.32,94.1L595.34,94.71L595.64,94.91L595.66,93.8L596.1,94.1L596.11,94.5L596.17,94.61L596.65,94L596.86,94.2L596.87,94.3L597.66,93.9L597.68,94.71L598.08,93.8L598.42,94.4L598.44,94.2L598.75,93.7L598.77,94.81L599.2,94.3L599.21,94.2L599.43,93.8L599.63,94.71L599.97,94.61L599.99,94.2L600.61,94L600.73,94.61L600.75,94L600.91,93.6L600.93,94.81L601.49,94.3L601.51,94.2L601.6,94.71L601.62,93.8L602.25,94.3L602.27,94.3L602.61,93.9L603.01,94.61L603.03,93.9L603.64,93.8L603.65,94.71L603.78,94.4L603.79,94.2L604.41,94.71L604.43,93.9L604.54,94.5L604.55,94.1L605.12,93.9L605.3,94.71L605.31,93.9L605.6,93.7L605.62,95.01L606.06,94.5L606.07,94.2L606.28,93.8L606.58,94.61L606.85,94.3L606.86,94.2L607.39,93.7L607.4,94.91L607.59,94.71L607.61,93.9L608.2,94.61L608.35,94.4L608.37,94.2L609.03,94.81L609.05,93.8L609.14,94.3L609.16,94.2L609.28,93.8L609.29,94.81L609.92,94.4L609.93,94.4L609.94,94L609.96,94.61L610,94.1" style="vector-effect: non-scaling-stroke; fill: none; stroke: rgb(0, 0, 0); stroke-opacity: 0.8; stroke-width: 1px; opacity: 1;"/></g><g class="points"/><g class="text"/></g><g class="trace scatter traced4e9f5" style="stroke-miterlimit: 2; opacity: 1;"><g class="fills"/><g class="errorbars"/><g class="lines"><path class="js-line" d="M0,92.24L0.29,91.74L0.3,90.72L1.37,11.75L2.1,12.65L2.12,12.66L27.11,43.27L27.13,43.28L36.79,54.37L36.81,54.38L48.88,62.21L48.9,62.22L54.47,63.86L54.49,63.86L75.76,68.72L75.77,68.73L89.58,74.38L89.59,74.39L94.05,75.85L94.06,75.85L106.63,77.6L106.65,77.6L116.72,77.52L116.73,77.52L123.9,78.27L123.91,78.28L132.14,81.71L132.16,81.71L143.14,82.46L143.15,82.47L152.14,83.73L152.16,83.73L170.02,84.47L170.03,84.48L182.2,86.59L182.22,86.59L203.48,87.7L203.49,87.69L208.84,87.66L208.86,87.67L217.31,88.42L217.32,88.43L237.31,90.34L237.32,90.34L265.67,91.08L265.68,91.09L277.56,91.84L277.58,91.85L285.43,92.18L285.45,92.18L297.44,92.24L297.45,92.24L610,92.24" style="vector-effect: non-scaling-stroke; fill: none; stroke: rgb(0, 0, 0); stroke-opacity: 1; stroke-width: 2px; opacity: 1;"/></g><g class="points"/><g class="text"/></g></g></g><g class="overplot"/><path class="xlines-above crisp" d="M0,0" style="fill: none;"/><path class="ylines-above crisp" d="M0,0" style="fill: none;"/><g class="overlines-above"/><g class="xaxislayer-above"><g class="xtick"><text text-anchor="middle" x="0" y="272.3333" transform="translate(40,0)" style="font-family: 'Latin Modern Roman'; font-size: 13.3333px; fill: rgb(0, 0, 0); fill-opacity: 1; white-space: pre;">0</text></g><g class="xtick"><text text-anchor="middle" x="0" y="272.3333" transform="translate(178.33,0)" style="font-family: 'Latin Modern Roman'; font-size: 13.3333px; fill: rgb(0, 0, 0); fill-opacity: 1; white-space: pre;">10k</text></g><g class="xtick"><text text-anchor="middle" x="0" y="272.3333" transform="translate(316.65,0)" style="font-family: 'Latin Modern Roman'; font-size: 13.3333px; fill: rgb(0, 0, 0); fill-opacity: 1; white-space: pre;">20k</text></g><g class="xtick"><text text-anchor="middle" x="0" y="272.3333" transform="translate(454.98,0)" style="font-family: 'Latin Modern Roman'; font-size: 13.3333px; fill: rgb(0, 0, 0); fill-opacity: 1; white-space: pre;">30k</text></g><g class="xtick"><text text-anchor="middle" x="0" y="272.3333" transform="translate(593.3,0)" style="font-family: 'Latin Modern Roman'; font-size: 13.3333px; fill: rgb(0, 0, 0); fill-opacity: 1; white-space: pre;">40k</text></g></g><g class="yaxislayer-above"><g class="ytick"><text text-anchor="end" x="39" y="4.6666549999999996" transform="translate(0,137.94)" style="font-family: 'Latin Modern Roman'; font-size: 13.3333px; fill: rgb(0, 0, 0); fill-opacity: 1; white-space: pre;">−1</text></g><g class="ytick"><text text-anchor="end" x="39" y="4.6666549999999996" transform="translate(0,117.3)" style="font-family: 'Latin Modern Roman'; font-size: 13.3333px; fill: rgb(0, 0, 0); fill-opacity: 1; white-space: pre;">0</text></g><g class="ytick"><text text-anchor="end" x="39" y="4.6666549999999996" transform="translate(0,96.67)" style="font-family: 'Latin Modern Roman'; font-size: 13.3333px; fill: rgb(0, 0, 0); fill-opacity: 1; white-space: pre;">1</text></g></g><g class="overaxes-above"/></g></g><g class="polarlayer"/><g class="ternarylayer"/><g class="geolayer"/><g class="funnelarealayer"/><g class="pielayer"/><g class="treemaplayer"/><g class="sunburstlayer"/><g class="glimages"/><defs id="topdefs-2633c6"><g class="clips"/><clipPath id="legend2633c6"><rect width="362" height="31" x="0" y="0"/></clipPath></defs><g class="layer-above"><g class="imagelayer"/><g class="shapelayer"/></g><g class="infolayer"><g class="legend" pointer-events="all" transform="translate(40, 0)"><rect class="bg" shape-rendering="crispEdges" style="stroke: rgb(68, 68, 68); stroke-opacity: 1; fill: rgb(255, 255, 255); fill-opacity: 1; stroke-width: 0px;" width="362" height="31" x="0" y="0"/><g class="scrollbox" transform="translate(0, 0)" clip-path="url('#legend2633c6')"><g class="groups"><g class="traces" transform="translate(0, 15.166645)" style="opacity: 1;"><text class="legendtext" text-anchor="start" x="40" y="5.199987" style="font-family: 'Latin Modern Roman'; font-size: 13.3333px; fill: rgb(0, 0, 0); fill-opacity: 1; white-space: pre;">Signal (<tspan style="font-weight:bold">w = e</tspan> ⊙ <tspan style="font-weight:bold">c</tspan>)</text><g class="layers" style="opacity: 1;"><g class="legendfill"/><g class="legendlines"><path class="js-line" d="M5,0h30" style="fill: none; stroke: rgb(192, 192, 192); stroke-opacity: 1; stroke-width: 1px;"/></g><g class="legendsymbols"><g class="legendpoints"/></g></g><rect class="legendtoggle" x="0" y="-10.166645" width="144.171875" height="20.33329" style="fill: rgb(0, 0, 0); fill-opacity: 0;"/></g><g class="traces" transform="translate(146.671875, 15.166645)" style="opacity: 1;"><text class="legendtext" text-anchor="start" x="40" y="5.199987" style="font-family: 'Latin Modern Roman'; font-size: 13.3333px; fill: rgb(0, 0, 0); fill-opacity: 1; white-space: pre;">Carrier (<tspan style="font-weight:bold">c</tspan>)</text><g class="layers" style="opacity: 1;"><g class="legendfill"/><g class="legendlines"><path class="js-line" d="M5,0h30" style="fill: none; stroke: rgb(0, 0, 0); stroke-opacity: 0.8; stroke-width: 1px;"/></g><g class="legendsymbols"><g class="legendpoints"/></g></g><rect class="legendtoggle" x="0" y="-10.166645" width="98.375" height="20.33329" style="fill: rgb(0, 0, 0); fill-opacity: 0;"/></g><g class="traces" transform="translate(247.546875, 15.166645)" style="opacity: 1;"><text class="legendtext" text-anchor="start" x="40" y="5.199987" style="font-family: 'Latin Modern Roman'; font-size: 13.3333px; fill: rgb(0, 0, 0); fill-opacity: 1; white-space: pre;">Envelope (<tspan style="font-weight:bold">e</tspan>)</text><g class="layers" style="opacity: 1;"><g class="legendfill"/><g class="legendlines"><path class="js-line" d="M5,0h30" style="fill: none; stroke: rgb(0, 0, 0); stroke-opacity: 1; stroke-width: 2px;"/></g><g class="legendsymbols"><g class="legendpoints"/></g></g><rect class="legendtoggle" x="0" y="-10.166645" width="110.96875" height="20.33329" style="fill: rgb(0, 0, 0); fill-opacity: 0;"/></g></g></g><rect class="scrollbar" rx="20" ry="3" width="0" height="0" style="fill: rgb(128, 139, 164); fill-opacity: 1;" x="0" y="0"/></g><g class="g-gtitle"/><g class="g-xtitle" transform="translate(0,-2.677059999999983)"><text class="xtitle" x="345" y="299.67706" text-anchor="middle" style="font-family: 'Latin Modern Roman'; font-size: 13.33px; fill: rgb(0, 0, 0); opacity: 1; font-weight: normal; white-space: pre;"><tspan style="font-weight:bold"><tspan style="font-style:italic">i</tspan></tspan></text></g><g class="g-ytitle" transform="translate(11.5205078125,0)"><text class="ytitle" transform="rotate(-90,0.47919000000000267,140.5)" x="0.47919000000000267" y="140.5" text-anchor="middle" style="font-family: 'Latin Modern Roman'; font-size: 13.33px; fill: rgb(0, 0, 0); opacity: 1; font-weight: normal; white-space: pre;"><tspan style="font-weight:bold">Amplitude</tspan></text></g></g></svg>