<svg class="main-svg" xmlns="http://www.w3.org/2000/svg" xmlns:xlink="http://www.w3.org/1999/xlink" width="650" height="200" style="" viewBox="0 0 650 200"><rect x="0" y="0" width="650" height="200" style="fill: rgb(255, 255, 255); fill-opacity: 1;"/><defs id="defs-79b870"><g class="clips"><clipPath id="clip79b870xyplot" class="plotclip"><rect width="600" height="144"/></clipPath><clipPath class="axesclip" id="clip79b870x"><rect x="50" y="0" width="600" height="200"/></clipPath><clipPath class="axesclip" id="clip79b870y"><rect x="0" y="14" width="650" height="144"/></clipPath><clipPath class="axesclip" id="clip79b870xy"><rect x="50" y="14" width="600" height="144"/></clipPath></g><g class="gradients"/></defs><g class="bglayer"/><g class="layer-below"><g class="imagelayer"/><g class="shapelayer"/></g><g class="cartesianlayer"><g class="subplot xy"><g class="layer-subplot"><g class="shapelayer"/><g class="imagelayer"/></g><g class="gridlayer"><g class="x"/><g class="y"/></g><g class="zerolinelayer"/><path class="xlines-below"/><path class="ylines-below"/><g class="overlines-below"/><g class="xaxislayer-below"/><g class="yaxislayer-below"/><g class="overaxes-below"/><g class="plot" transform="translate(50, 14)" clip-path="url('#clip79b870xyplot')"><g class="scatterlayer mlayer"><g class="trace scatter trace2a440f" style="stroke-miterlimit: 2; opacity: 1;"><g class="fills"/><g class="errorbars"/><g class="lines"><path class="js-line" d="M0,136.8L0.27,134.18L0.29,133.92L1.31,85.07L1.32,84.16L2.91,7.48L2.93,7.4L3.01,7.21L3.22,8.99L3.24,9.21L4.1,45.35L4.11,46.19L5.92,136.56L5.93,136.63L6,136.8L6.2,135.32L6.22,135.12L7.06,100.73L7.07,99.9L9.01,7.21L9.33,11.11L9.35,11.44L10.53,74.07L10.54,75L12,136.8L12.31,133.35L12.33,133.04L13.44,75.92L13.46,75L14.93,7.4L14.94,7.34L15.17,8.23L15.18,8.4L15.58,18.73L15.59,19.25L16.31,59.39L16.33,60.3L17.92,136.56L17.93,136.63L18,136.8L18.2,135.32L18.22,135.12L19.06,100.73L19.08,99.9L20.94,7.34L20.95,7.28L21.18,8.4L21.2,8.58L21.99,38.81L22,39.61L23.96,136.74L23.97,136.77L24.2,135.32L24.22,135.12L25.06,100.73L25.08,99.9L26.94,7.34L26.95,7.28L27.18,8.4L27.2,8.58L27.99,38.81L28,39.6L29.93,136.63L29.95,136.69L30.19,135.51L30.2,135.32L30.61,123.93L30.63,123.37L33.01,7.21L33.27,9.69L33.28,9.95L34.26,55.79L34.27,56.68L36,136.8L36.33,133.04L36.34,132.73L37.54,69.46L37.55,68.54L39.01,7.21L39.32,10.8L39.33,11.11L39.86,31.96L39.88,32.69L42,136.8L42.03,136.77L42.04,136.74L42.37,132.06L42.38,131.71L42.94,107.92L42.95,107.15L44.1,34.18L44.11,33.43L45.01,7.21L45.18,8.4L45.2,8.58L45.99,38.81L46,39.61L47.96,136.74L47.97,136.77L48.21,135.32L48.22,135.12L49.06,100.73L49.08,99.9L50.94,7.34L50.95,7.28L51.18,8.4L51.2,8.58L51.99,38.81L52,39.6L53.93,136.63L53.95,136.69L54.19,135.51L54.21,135.32L54.98,105.59L54.99,104.8L57.01,7.21L57.35,11.44L57.36,11.77L57.91,34.18L57.92,34.93L59.99,136.79L60,136.8L60.27,134.18L60.29,133.92L61.31,85.07L61.32,84.16L62.91,7.48L62.93,7.4L63.01,7.21L63.23,8.99L63.24,9.21L64.1,45.35L64.11,46.19L65.92,136.56L65.93,136.63L66,136.8L66.21,135.32L66.22,135.12L67.06,100.73L67.08,99.9L68.94,7.34L68.95,7.28L69.19,8.4L69.2,8.58L69.99,38.81L70,39.61L72,136.8L72.34,132.73L72.36,132.4L73.59,65.78L73.61,64.86L74.99,7.21L75.01,7.21L75.28,9.95L75.29,10.22L75.77,27.09L75.78,27.76L76.67,83.25L76.68,84.16L78,136.8L78.33,133.04L78.34,132.73L78.87,111.67L78.89,110.94L81.01,7.21L81.04,7.25L81.05,7.28L81.4,12.85L81.42,13.23L82.94,100.73L82.95,101.56L84,136.8L84.34,132.73L84.36,132.4L85.59,65.78L85.61,64.86L86.98,7.22L87,7.21L87.27,9.69L87.28,9.95L88.26,55.79L88.27,56.68L90,136.8L90.33,133.04L90.34,132.73L90.87,111.67L90.89,110.94L93.01,7.21L93.04,7.25L93.05,7.28L93.4,12.85L93.42,13.23L94.94,100.73L94.95,101.56L96,136.8L96.34,132.73L96.36,132.4L97.59,65.78L97.61,64.86L98.98,7.22L99,7.21L99.27,9.69L99.28,9.95L100.26,55.79L100.27,56.68L102,136.8L102.33,133.04L102.34,132.73L102.87,111.67L102.89,110.94L105.01,7.21L105.04,7.25L105.05,7.28L105.4,12.85L105.42,13.23L106.94,100.73L106.95,101.56L108,136.8L108.34,132.73L108.36,132.4L109.59,65.78L109.61,64.86L110.98,7.22L111,7.21L111.27,9.69L111.28,9.95L111.76,26.43L111.77,27.09L114,136.8L114.14,136.14L114.15,136L114.51,128L114.52,127.53L117.01,7.21L117.31,10.5L117.32,10.8L117.83,29.82L117.84,30.53L120,136.8L120.08,136.56L120.1,136.48L120.49,128.46L120.51,128L123.01,7.21L123.32,10.8L123.34,11.11L124.55,75L124.56,75.92L125.96,136.74L125.98,136.77L126.22,135.12L126.23,134.9L126.66,122.22L126.67,121.64L129.01,7.21L129.25,9.44L129.27,9.69L130.22,53.13L130.23,54.01L132,136.8L132.33,133.04L132.34,132.73L132.87,111.67L132.89,110.94L135.01,7.21L135.04,7.25L135.05,7.28L135.39,12.47L135.4,12.85L135.98,38.02L135.99,38.81L137.98,136.77L137.99,136.79L138.25,134.68L138.26,134.43L138.71,119.81L138.72,119.18L139.54,69.46L139.55,68.54L141.01,7.21L141.32,10.8L141.34,11.11L142.55,75L142.56,75.92L143.96,136.74L143.98,136.77L144.22,135.12L144.23,134.9L144.66,122.22L144.67,121.64L147.01,7.21L147.24,9.21L147.26,9.44L148.18,50.49L148.19,51.37L150,136.8L150.33,133.04L150.34,132.73L150.87,111.67L150.89,110.94L153.01,7.21L153.04,7.25L153.05,7.28L153.39,12.47L153.4,12.85L153.98,38.02L153.99,38.81L155.98,136.77L155.99,136.79L156.25,134.68L156.26,134.43L156.71,119.81L156.72,119.18L157.54,69.46L157.55,68.54L159.01,7.21L159.32,10.8L159.34,11.11L160.55,75L160.56,75.92L162,136.8L162.33,133.04L162.34,132.73L162.87,111.67L162.89,110.94L165.01,7.21L165.04,7.25L165.05,7.28L165.41,12.85L165.42,13.23L166.94,100.73L166.96,101.56L168,136.8L168.13,136.27L168.14,136.14L168.6,124.47L168.62,123.93L171.01,7.21L171.27,9.69L171.28,9.95L171.76,26.43L171.77,27.09L172.63,80.51L172.64,81.43L174,136.8L174.33,133.04L174.34,132.73L174.87,111.67L174.89,110.94L177.01,7.21L177.04,7.25L177.05,7.28L177.41,12.85L177.42,13.23L178.94,100.73L178.96,101.56L180,136.8L180.13,136.27L180.14,136.14L180.6,124.47L180.62,123.93L183.01,7.21L183.27,9.69L183.28,9.95L183.76,26.43L183.77,27.09L184.63,80.51L184.64,81.43L186,136.8L186.33,133.04L186.34,132.73L186.87,111.67L186.89,110.94L189.01,7.21L189.04,7.25L189.05,7.28L189.41,12.85L189.42,13.23L190.94,100.73L190.96,101.56L192,136.8L192.13,136.27L192.14,136.14L192.6,124.47L192.62,123.93L195.01,7.21L195.27,9.69L195.28,9.95L195.76,26.43L195.77,27.09L196.63,80.51L196.64,81.43L198,136.8L198.33,133.04L198.34,132.73L198.88,111.67L198.89,110.94L201.01,7.21L201.04,7.25L201.05,7.28L201.41,12.85L201.42,13.23L202.94,100.73L202.96,101.56L204,136.8L204.13,136.27L204.14,136.14L204.6,124.47L204.62,123.93L207.01,7.21L207.27,9.69L207.28,9.95L207.76,26.43L207.77,27.09L208.63,80.51L208.64,81.43L210,136.8L210.33,133.04L210.34,132.73L210.88,111.67L210.89,110.94L213.01,7.21L213.04,7.25L213.05,7.28L213.41,12.85L213.42,13.23L214.94,100.73L214.96,101.56L216,136.8L216.13,136.27L216.14,136.14L216.6,124.47L216.62,123.93L219.01,7.21L219.27,9.69L219.28,9.95L219.76,26.43L219.77,27.09L220.63,80.51L220.64,81.43L222.01,136.8L222.33,133.04L222.35,132.73L223.54,69.46L223.56,68.54L224.98,7.22L225,7.21L225.27,9.69L225.28,9.95L225.76,26.43L225.77,27.09L226.63,80.51L226.64,81.43L228.01,136.8L228.33,133.04L228.35,132.73L229.54,69.46L229.56,68.54L230.98,7.22L231,7.21L231.27,9.69L231.28,9.95L231.76,26.43L231.77,27.09L232.63,80.51L232.64,81.43L234.01,136.8L234.33,133.04L234.35,132.73L235.54,69.46L235.56,68.54L236.98,7.22L237,7.21L237.27,9.69L237.28,9.95L237.76,26.43L237.77,27.09L238.63,80.51L238.64,81.43L240.01,136.8L240.33,133.04L240.35,132.73L241.54,69.46L241.56,68.54L242.97,7.25L242.99,7.22L243.24,9.21L243.26,9.44L244.18,50.49L244.2,51.37L245.92,136.56L245.94,136.63L246.01,136.8L246.22,135.12L246.24,134.9L247.07,100.73L247.08,99.9L248.94,7.34L248.96,7.28L249.2,8.58L249.22,8.78L250.03,41.22L250.05,42.03L251.92,136.56L251.94,136.63L252.01,136.8L252.22,135.12L252.24,134.9L253.07,100.73L253.08,99.9L254.94,7.34L254.96,7.28L255.2,8.58L255.22,8.78L256.03,41.22L256.05,42.03L257.92,136.56L257.94,136.63L258.01,136.8L258.22,135.12L258.24,134.9L259.07,100.73L259.08,99.9L260.94,7.34L260.96,7.28L261.2,8.58L261.22,8.78L262.03,41.22L262.05,42.03L263.92,136.56L263.94,136.63L264.01,136.8L264.22,135.12L264.24,134.9L265.07,100.73L265.08,99.9L266.94,7.34L266.96,7.28L267.2,8.58L267.22,8.78L268.03,41.22L268.05,42.03L269.92,136.56L269.94,136.63L270.01,136.8L270.22,135.12L270.24,134.9L271.07,100.73L271.08,99.9L272.94,7.34L272.96,7.28L273.2,8.58L273.22,8.78L274.03,41.22L274.05,42.03L275.92,136.56L275.94,136.63L276.01,136.8L276.22,135.12L276.24,134.9L277.07,100.73L277.08,99.9L278.93,7.4L278.95,7.34L279.2,8.58L279.22,8.78L280.03,41.22L280.05,42.03L281.92,136.56L281.94,136.63L282.01,136.8L282.22,135.12L282.24,134.9L283.07,100.73L283.08,99.9L284.93,7.4L284.95,7.34L285.2,8.58L285.22,8.78L286.03,41.22L286.05,42.03L287.92,136.56L287.94,136.63L288.01,136.8L288.22,135.12L288.24,134.9L289.07,100.73L289.08,99.9L290.93,7.4L290.95,7.34L291.2,8.58L291.22,8.78L292.03,41.22L292.05,42.03L293.93,136.56L293.94,136.63L294.01,136.8L294.22,135.12L294.24,134.9L295.07,100.73L295.08,99.9L297.01,7.21L297.34,11.11L297.35,11.44L297.87,31.96L297.88,32.69L298.89,97.38L298.9,98.23L300.01,136.8L300.33,133.04L300.35,132.73L301.54,69.46L301.56,68.54L302.97,7.25L302.99,7.22L303.24,9.21L303.26,9.44L304.18,50.49L304.2,51.37L305.91,136.48L305.93,136.56L306.01,136.8L306.25,134.68L306.27,134.43L307.19,93.07L307.2,92.19L309.01,7.21L309.34,11.11L309.35,11.44L309.87,31.96L309.88,32.69L310.91,98.23L310.92,99.07L312.01,136.8L312.1,136.48L312.12,136.38L312.69,121.04L312.7,120.43L315.01,7.21L315.23,8.99L315.25,9.21L316.12,46.19L316.13,47.04L317.91,136.48L317.93,136.56L318.01,136.8L318.25,134.68L318.27,134.43L319.19,93.07L319.2,92.19L321.01,7.21L321.34,11.11L321.35,11.44L321.87,31.96L321.88,32.69L322.91,98.23L322.92,99.07L324.01,136.8L324.1,136.48L324.12,136.38L324.69,121.04L324.7,120.43L327.01,7.21L327.23,8.99L327.25,9.21L328.12,46.19L328.13,47.04L329.91,136.48L329.93,136.56L330.01,136.8L330.25,134.68L330.27,134.43L331.19,93.07L331.2,92.19L333.01,7.21L333.34,11.11L333.35,11.44L333.89,32.69L333.9,33.43L336.01,136.8L336.02,136.79L336.03,136.77L336.33,133.04L336.35,132.73L337.55,69.46L337.56,68.54L338.97,7.25L338.99,7.22L339.25,9.21L339.26,9.44L340.18,50.49L340.2,51.37L341.91,136.48L341.93,136.56L342.01,136.8L342.25,134.68L342.27,134.43L343.19,93.07L343.21,92.19L344.93,7.4L344.95,7.34L345.21,8.58L345.22,8.78L346.04,41.22L346.05,42.03L347.93,136.56L347.94,136.63L348.01,136.8L348.23,135.12L348.24,134.9L349.07,100.73L349.08,99.9L351.01,7.21L351.35,11.44L351.37,11.77L352.65,81.43L352.66,82.34L353.99,136.79L354.01,136.8L354.28,134.18L354.29,133.92L354.78,116.57L354.8,115.9L357.01,7.21L357.12,7.68L357.14,7.8L357.75,25.77L357.76,26.43L358.61,78.67L358.62,79.6L359.99,136.79L360.01,136.8L360.28,134.18L360.29,133.92L360.78,116.57L360.8,115.9L363.02,7.21L363.12,7.68L363.14,7.8L363.75,25.77L363.76,26.43L364.61,78.67L364.62,79.6L365.99,136.79L366.01,136.8L366.28,134.18L366.29,133.92L366.78,116.57L366.8,115.9L369.02,7.21L369.12,7.68L369.14,7.8L369.75,25.77L369.76,26.43L370.61,78.67L370.62,79.6L371.99,136.79L372.01,136.8L372.28,134.18L372.29,133.92L372.78,116.57L372.8,115.9L375.02,7.21L375.12,7.68L375.14,7.8L375.75,25.77L375.76,26.43L376.61,78.67L376.62,79.6L377.99,136.79L378.01,136.8L378.28,134.18L378.29,133.92L378.78,116.57L378.8,115.9L381.02,7.21L381.12,7.68L381.14,7.8L381.57,18.21L381.59,18.73L384.01,136.8L384.29,133.92L384.31,133.64L385.36,82.34L385.37,81.43L386.92,7.48L386.93,7.4L387.02,7.21L387.23,8.99L387.25,9.21L388.1,45.35L388.12,46.19L389.93,136.56L389.94,136.63L390.01,136.8L390.21,135.32L390.23,135.12L391.07,100.73L391.08,99.9L393.02,7.21L393.34,11.11L393.36,11.44L394.54,74.07L394.55,75L396.01,136.8L396.32,133.35L396.34,133.04L397.45,75.92L397.46,75L399.02,7.21L399.33,10.8L399.34,11.11L399.87,31.96L399.89,32.69L402.01,136.8L402.04,136.77L402.05,136.74L402.38,132.06L402.39,131.71L403.78,54.01L403.79,53.13L405.02,7.21L405.34,11.11L405.36,11.44L406.54,74.07L406.55,75L408.01,136.8L408.32,133.35L408.34,133.04L409.45,75.92L409.47,75L410.93,7.4L410.95,7.34L411.21,8.58L411.22,8.78L412.04,41.22L412.05,42.03L413.93,136.56L413.94,136.63L414.01,136.8L414.21,135.32L414.23,135.12L415.07,100.73L415.08,99.9L417.02,7.21L417.34,11.11L417.36,11.44L418.54,74.07L418.55,75L420.01,136.8L420.32,133.35L420.34,133.04L421.45,75.92L421.47,75L422.93,7.4L422.95,7.34L423.21,8.58L423.22,8.78L424.04,41.22L424.05,42.03L425.93,136.56L425.94,136.63L426.01,136.8L426.21,135.32L426.23,135.12L427.07,100.73L427.08,99.9L429.02,7.21L429.34,11.11L429.36,11.44L430.54,74.07L430.55,75L432.01,136.8L432.32,133.35L432.34,133.04L433.45,75.92L433.47,75L434.94,7.4L434.95,7.34L435.21,8.58L435.22,8.78L436.04,41.22L436.05,42.03L437.93,136.56L437.94,136.63L438.01,136.8L438.21,135.32L438.23,135.12L439.07,100.73L439.08,99.9L441.02,7.21L441.34,11.11L441.36,11.44L442.54,74.07L442.55,75L444.01,136.8L444.32,133.35L444.34,133.04L445.45,75.92L445.47,75L446.94,7.4L446.95,7.34L447.21,8.58L447.22,8.78L448.04,41.22L448.05,42.03L449.93,136.56L449.94,136.63L450.01,136.8L450.21,135.32L450.23,135.12L451.07,100.73L451.09,99.9L452.95,7.34L452.96,7.28L453.19,8.4L453.21,8.58L454,38.81L454.01,39.61L455.97,136.74L455.98,136.77L456.21,135.32L456.23,135.12L457.07,100.73L457.09,99.9L458.95,7.34L458.96,7.28L459.19,8.4L459.21,8.58L460,38.81L460.01,39.6L461.94,136.63L461.96,136.69L462.2,135.51L462.21,135.32L462.62,123.93L462.64,123.37L465.02,7.21L465.26,9.44L465.28,9.69L466.23,53.13L466.24,54.01L468.01,136.8L468.34,133.04L468.35,132.73L469.55,69.46L469.56,68.54L471.02,7.21L471.33,10.8L471.34,11.11L471.87,31.96L471.89,32.69L474.01,136.8L474.04,136.77L474.05,136.74L474.38,132.06L474.39,131.71L474.95,107.92L474.96,107.15L476.11,34.18L476.12,33.43L477.02,7.21L477.19,8.4L477.21,8.58L478,38.81L478.01,39.6L479.94,136.63L479.96,136.69L480.2,135.51L480.21,135.32L480.62,123.93L480.64,123.37L483.02,7.21L483.28,9.69L483.29,9.95L484.27,55.79L484.28,56.68L486.01,136.8L486.34,133.04L486.35,132.73L487.55,69.46L487.56,68.54L489.02,7.21L489.33,10.8L489.34,11.11L489.88,31.96L489.89,32.69L492.01,136.8L492.04,136.77L492.05,136.74L492.38,132.06L492.39,131.71L492.95,107.92L492.96,107.15L494.11,34.18L494.12,33.43L495.02,7.21L495.19,8.4L495.21,8.58L496,38.81L496.01,39.6L497.94,136.63L497.96,136.69L498.2,135.51L498.22,135.32L498.99,105.59L499,104.8L501.02,7.21L501.36,11.44L501.37,11.77L501.92,34.18L501.93,34.93L504,136.79L504.01,136.8L504.28,134.18L504.3,133.92L505.32,85.07L505.33,84.16L506.92,7.48L506.94,7.4L507.02,7.21L507.24,8.99L507.25,9.21L508.11,45.35L508.12,46.19L509.93,136.56L509.94,136.63L510.01,136.8L510.22,135.32L510.23,135.12L511.07,100.73L511.09,99.9L512.95,7.34L512.96,7.28L513.2,8.4L513.21,8.58L514,38.81L514.01,39.6L516.01,136.8L516.35,132.73L516.37,132.4L517.6,65.78L517.62,64.86L519,7.21L519.02,7.21L519.29,9.95L519.3,10.22L519.78,27.09L519.79,27.76L520.68,83.25L520.69,84.16L522.01,136.8L522.34,133.04L522.35,132.73L522.88,111.67L522.9,110.94L525.02,7.21L525.05,7.25L525.06,7.28L525.41,12.85L525.43,13.23L526.95,100.73L526.96,101.56L528.01,136.8L528.35,132.73L528.37,132.4L529.6,65.78L529.62,64.86L530.99,7.22L531.01,7.21L531.28,9.69L531.29,9.95L532.27,55.79L532.28,56.68L534.01,136.8L534.34,133.04L534.35,132.73L534.88,111.67L534.9,110.94L537.02,7.21L537.05,7.25L537.06,7.28L537.41,12.85L537.43,13.23L538.95,100.73L538.96,101.56L540.01,136.8L540.35,132.73L540.37,132.4L541.6,65.78L541.62,64.86L542.99,7.22L543.01,7.21L543.28,9.69L543.29,9.95L544.27,55.79L544.28,56.68L546.01,136.8L546.34,133.04L546.35,132.73L546.88,111.67L546.9,110.94L549.02,7.21L549.05,7.25L549.06,7.28L549.41,12.85L549.43,13.23L550.95,100.73L550.96,101.56L552.01,136.8L552.35,132.73L552.37,132.4L553.6,65.78L553.62,64.86L554.99,7.22L555.01,7.21L555.28,9.69L555.29,9.95L555.77,26.43L555.78,27.09L558.01,136.8L558.15,136.14L558.16,136L558.52,128L558.53,127.53L561.02,7.21L561.32,10.5L561.33,10.8L561.84,29.82L561.85,30.53L564.01,136.8L564.09,136.56L564.11,136.48L564.5,128.46L564.52,128L567.02,7.21L567.33,10.8L567.35,11.11L568.56,75L568.57,75.92L569.97,136.74L569.99,136.77L570.23,135.12L570.24,134.9L570.67,122.22L570.68,121.64L573.02,7.21L573.26,9.44L573.28,9.69L574.23,53.13L574.24,54.01L576.01,136.8L576.34,133.04L576.35,132.73L576.88,111.67L576.9,110.94L579.02,7.21L579.05,7.25L579.06,7.28L579.4,12.47L579.41,12.85L579.99,38.02L580,38.81L581.99,136.77L582,136.79L582.26,134.68L582.27,134.43L582.72,119.81L582.73,119.18L583.55,69.46L583.56,68.54L585.02,7.21L585.33,10.8L585.35,11.11L586.56,75L586.57,75.92L587.97,136.74L587.99,136.77L588.23,135.12L588.24,134.9L588.67,122.22L588.68,121.64L591.02,7.21L591.25,9.21L591.27,9.44L592.19,50.49L592.2,51.37L594.01,136.8L594.34,133.04L594.35,132.73L594.88,111.67L594.9,110.94L597.02,7.21L597.05,7.25L597.06,7.28L597.4,12.47L597.41,12.85L597.99,38.02L598,38.81L599.97,136.74L599.99,136.77" style="vector-effect: non-scaling-stroke; fill: none; stroke: rgb(192, 192, 192); stroke-opacity: 1; stroke-width: 0.5px; opacity: 1;"/></g><g class="points"/><g class="text"/></g><g class="trace scatter tracedde67d" style="stroke-miterlimit: 2; opacity: 1;"><g class="fills"/><g class="errorbars"/><g class="lines"><path class="js-line" d="M0,7.22L600,7.22" style="vector-effect: non-scaling-stroke; fill: none; stroke: rgb(0, 0, 0); stroke-opacity: 1; stroke-width: 1px; opacity: 1;"/></g><g class="points"/><g class="text"/></g><g class="trace scatter trace57ea03" style="stroke-miterlimit: 2; opacity: 1;"><g class="fills"/><g class="errorbars"/><g class="lines"><path class="js-line" d="M0,29.13L5.47,31.04L5.48,31.04L11.18,31.42L11.2,31.42L20.72,30.06L20.74,30.05L21.57,30.37L21.59,30.41L21.61,30.43L22.67,31.61L22.94,31.29L22.95,31.26L24.25,30.03L24.38,30.14L24.4,30.16L25.73,31.56L25.96,31.25L25.97,31.23L27.23,30.02L27.39,30.15L27.4,30.16L28.71,31.58L28.97,31.24L28.98,31.21L30.19,30L30.35,30.12L30.37,30.13L31.72,31.57L31.97,31.23L31.99,31.2L33.17,29.99L33.35,30.11L33.36,30.12L34.71,31.58L34.97,31.24L34.98,31.21L36.25,30.03L36.35,30.12L36.37,30.13L37.72,31.57L37.97,31.23L37.99,31.2L39.17,29.99L39.35,30.11L39.36,30.12L40.71,31.58L40.97,31.24L40.98,31.21L42.25,30.03L42.35,30.12L42.37,30.13L43.72,31.57L43.97,31.23L43.99,31.2L45.17,29.99L45.35,30.11L45.36,30.12L46.71,31.58L46.97,31.24L46.98,31.21L48.25,30.03L48.35,30.12L48.37,30.13L49.72,31.57L49.97,31.23L49.99,31.2L51.17,29.99L51.35,30.11L51.36,30.12L52.7,31.59L52.97,31.24L52.98,31.21L54.25,30.03L54.35,30.12L54.37,30.13L55.72,31.57L55.97,31.23L55.99,31.2L57.17,29.99L57.35,30.11L57.36,30.12L58.7,31.59L58.97,31.24L58.98,31.21L60.25,30.03L60.34,30.11L60.36,30.12L61.72,31.57L61.97,31.23L61.99,31.2L63.17,29.99L63.35,30.11L63.36,30.12L64.7,31.59L64.97,31.24L64.98,31.21L66.15,29.98L66.34,30.11L66.36,30.12L67.72,31.57L67.97,31.23L67.99,31.2L69.17,29.99L69.35,30.11L69.36,30.12L70.7,31.59L70.97,31.24L70.98,31.21L72.15,29.98L72.34,30.11L72.36,30.12L73.72,31.57L73.97,31.23L73.99,31.2L75.17,29.99L75.35,30.11L75.36,30.12L76.7,31.59L76.97,31.24L76.98,31.21L78.15,29.98L78.34,30.11L78.36,30.12L79.72,31.57L79.97,31.23L79.99,31.2L81.17,29.99L81.35,30.11L81.36,30.12L82.7,31.59L82.97,31.24L82.98,31.21L84.15,29.98L84.34,30.11L84.36,30.12L85.72,31.57L85.97,31.23L85.99,31.2L87.17,29.99L87.35,30.11L87.36,30.12L88.7,31.59L88.97,31.24L88.98,31.21L90.15,29.98L90.34,30.11L90.36,30.12L91.72,31.57L91.97,31.23L91.99,31.2L93.17,29.99L93.35,30.11L93.36,30.12L94.7,31.59L94.97,31.24L94.98,31.21L96.15,29.98L96.34,30.11L96.36,30.12L97.72,31.57L97.98,31.23L97.99,31.2L99.15,29.98L99.35,30.11L99.36,30.12L100.7,31.59L100.97,31.24L100.98,31.21L102.15,29.98L102.34,30.11L102.36,30.12L103.72,31.57L103.98,31.23L103.99,31.2L105.15,29.98L105.35,30.11L105.36,30.12L106.7,31.59L106.97,31.24L106.98,31.21L108.15,29.98L108.34,30.11L108.36,30.12L109.76,31.53L109.98,31.23L109.99,31.2L111.15,29.98L111.35,30.11L111.36,30.12L112.7,31.59L112.97,31.24L112.98,31.21L114.15,29.98L114.34,30.11L114.36,30.12L115.76,31.53L115.98,31.23L115.99,31.2L117.15,29.98L117.35,30.11L117.36,30.12L118.7,31.59L118.97,31.24L118.98,31.21L120.15,29.98L120.34,30.11L120.36,30.12L121.76,31.53L121.98,31.23L121.99,31.2L123.15,29.98L123.35,30.11L123.36,30.12L124.7,31.59L124.97,31.24L124.98,31.21L126.15,29.98L126.34,30.11L126.36,30.12L127.76,31.53L127.98,31.23L127.99,31.2L129.15,29.98L129.35,30.11L129.36,30.12L130.7,31.59L130.97,31.24L130.98,31.21L132.21,30.01L132.34,30.11L132.36,30.12L133.74,31.55L133.98,31.23L133.99,31.2L135.15,29.98L135.35,30.11L135.36,30.12L136.77,31.53L136.97,31.24L136.98,31.21L138.21,30.01L138.34,30.11L138.36,30.12L139.74,31.55L139.98,31.23L139.99,31.2L141.15,29.98L141.35,30.11L141.36,30.12L142.77,31.53L142.97,31.24L142.98,31.21L144.21,30.01L144.34,30.11L144.36,30.12L145.74,31.55L145.98,31.23L145.99,31.2L147.15,29.98L147.35,30.11L147.36,30.12L148.77,31.53L148.97,31.24L148.98,31.21L150.21,30.01L150.34,30.11L150.36,30.12L151.74,31.55L151.98,31.23L151.99,31.2L153.15,29.98L153.35,30.11L153.36,30.12L154.77,31.53L154.97,31.24L154.98,31.21L156.21,30.01L156.34,30.11L156.36,30.12L157.75,31.55L157.98,31.23L157.99,31.2L159.15,29.98L159.35,30.11L159.36,30.12L160.77,31.53L160.97,31.24L160.98,31.21L162.21,30.01L162.34,30.11L162.36,30.12L163.75,31.55L163.98,31.23L163.99,31.2L165.15,29.98L165.35,30.11L165.36,30.12L166.77,31.53L166.97,31.24L166.98,31.21L168.24,30.02L168.38,30.14L168.4,30.16L169.75,31.55L169.96,31.25L169.98,31.23L171.21,30.01L171.35,30.11L171.36,30.12L172.77,31.53L172.97,31.24L172.98,31.21L174.24,30.02L174.38,30.14L174.4,30.16L175.75,31.55L175.96,31.25L175.98,31.23L177.21,30.01L177.35,30.11L177.36,30.12L178.77,31.53L178.97,31.24L178.98,31.21L180.24,30.02L180.39,30.14L180.4,30.16L181.75,31.55L181.96,31.25L181.98,31.23L183.22,30.01L183.35,30.11L183.36,30.12L184.77,31.53L184.97,31.24L184.98,31.21L186.24,30.02L186.39,30.14L186.4,30.16L187.75,31.55L187.98,31.23L187.99,31.2L189.22,30.01L189.35,30.11L189.36,30.12L190.77,31.53L190.97,31.24L190.98,31.21L192.24,30.02L192.39,30.14L192.4,30.16L193.75,31.55L193.98,31.23L193.99,31.2L195.22,30.01L195.35,30.11L195.36,30.12L196.77,31.53L196.97,31.24L196.98,31.21L198.24,30.02L198.39,30.14L198.4,30.16L199.75,31.55L199.98,31.23L199.99,31.2L201.22,30.01L201.35,30.11L201.37,30.12L202.7,31.59L202.97,31.24L202.98,31.21L204.24,30.02L204.39,30.14L204.4,30.16L205.75,31.55L205.98,31.23L205.99,31.2L207.22,30.01L207.35,30.11L207.37,30.12L208.69,31.6L208.97,31.24L208.98,31.21L210.24,30.02L210.39,30.14L210.4,30.16L211.75,31.55L211.98,31.23L211.99,31.2L213.22,30.01L213.35,30.11L213.37,30.12L214.69,31.6L214.97,31.24L214.98,31.21L216.24,30.02L216.39,30.14L216.4,30.16L217.75,31.55L217.98,31.23L217.99,31.2L219.18,29.99L219.35,30.11L219.37,30.12L220.69,31.6L220.97,31.24L220.98,31.21L222.24,30.02L222.39,30.14L222.4,30.16L223.75,31.55L223.98,31.23L223.99,31.2L225.18,29.99L225.35,30.11L225.37,30.12L226.69,31.6L226.97,31.24L226.98,31.21L228.24,30.02L228.39,30.14L228.4,30.16L229.75,31.55L229.98,31.23L229.99,31.2L231.18,29.99L231.35,30.11L231.37,30.12L232.69,31.6L232.97,31.24L232.98,31.21L234.24,30.02L234.39,30.14L234.4,30.16L235.75,31.55L235.98,31.23L235.99,31.2L237.18,29.99L237.35,30.11L237.37,30.12L238.69,31.6L238.97,31.24L238.99,31.21L240.16,29.98L240.36,30.12L240.37,30.13L241.75,31.55L241.98,31.23L241.99,31.2L243.18,29.99L243.35,30.11L243.37,30.12L244.69,31.6L244.97,31.24L244.99,31.21L246.16,29.98L246.36,30.12L246.37,30.13L247.75,31.55L247.98,31.23L247.99,31.2L249.18,29.99L249.35,30.11L249.37,30.12L250.77,31.53L250.97,31.24L250.99,31.21L252.16,29.98L252.36,30.12L252.37,30.13L253.75,31.55L253.98,31.23L253.99,31.2L255.18,29.99L255.35,30.11L255.37,30.12L256.77,31.53L256.97,31.24L256.99,31.21L258.16,29.98L258.36,30.12L258.37,30.13L259.75,31.55L259.98,31.23L259.99,31.2L261.22,30.01L261.35,30.11L261.37,30.12L262.77,31.53L262.97,31.24L262.99,31.21L264.16,29.98L264.36,30.12L264.37,30.13L265.75,31.55L265.98,31.23L265.99,31.2L267.22,30.01L267.35,30.11L267.37,30.12L268.77,31.53L268.97,31.24L268.99,31.21L270.16,29.98L270.36,30.12L270.37,30.13L271.75,31.55L271.98,31.23L271.99,31.2L273.22,30.01L273.35,30.11L273.37,30.12L274.77,31.53L274.97,31.24L274.99,31.21L276.16,29.98L276.36,30.12L276.37,30.13L277.75,31.55L277.98,31.23L277.99,31.2L279.22,30.01L279.35,30.11L279.37,30.12L280.77,31.53L280.97,31.24L280.99,31.21L282.16,29.98L282.36,30.12L282.37,30.13L283.75,31.55L283.98,31.23L283.99,31.2L285.22,30.01L285.35,30.11L285.37,30.12L286.77,31.53L286.97,31.24L286.99,31.21L288.16,29.98L288.36,30.12L288.37,30.13L289.75,31.55L289.98,31.23L289.99,31.2L291.22,30.01L291.35,30.11L291.37,30.12L292.77,31.53L292.97,31.24L292.99,31.21L294.16,29.98L294.36,30.12L294.37,30.13L295.75,31.55L295.98,31.23L295.99,31.2L297.22,30.01L297.35,30.11L297.37,30.12L298.76,31.54L298.97,31.24L298.99,31.21L300.16,29.98L300.36,30.12L300.37,30.13L301.75,31.55L301.98,31.23L301.99,31.2L303.22,30.01L303.35,30.11L303.37,30.12L304.76,31.54L304.97,31.24L304.99,31.21L306.16,29.98L306.36,30.12L306.37,30.13L307.75,31.55L307.98,31.23L307.99,31.2L309.22,30.01L309.39,30.15L309.41,30.16L310.69,31.6L310.97,31.24L310.99,31.21L312.16,29.98L312.36,30.12L312.37,30.13L313.74,31.56L313.98,31.23L313.99,31.2L315.22,30.01L315.39,30.15L315.41,30.16L316.69,31.6L316.97,31.24L316.99,31.21L318.16,29.98L318.36,30.12L318.37,30.13L319.74,31.56L319.98,31.23L319.99,31.2L321.22,30.01L321.4,30.15L321.41,30.16L322.69,31.6L322.97,31.24L322.99,31.21L324.16,29.98L324.36,30.12L324.37,30.13L325.74,31.56L325.98,31.23L325.99,31.2L327.22,30.01L327.4,30.15L327.41,30.16L328.69,31.6L328.97,31.24L328.99,31.21L330.16,29.98L330.36,30.12L330.37,30.13L331.74,31.56L331.98,31.23L331.99,31.2L333.22,30.01L333.4,30.15L333.41,30.16L334.72,31.58L334.97,31.24L334.99,31.21L336.16,29.98L336.36,30.12L336.37,30.13L337.74,31.56L337.98,31.23L337.99,31.2L339.22,30.01L339.4,30.15L339.41,30.16L340.72,31.58L340.97,31.24L340.99,31.21L342.16,29.98L342.36,30.12L342.38,30.13L343.74,31.56L343.97,31.25L343.98,31.23L345.22,30.01L345.35,30.11L345.37,30.12L346.72,31.58L346.97,31.24L346.99,31.21L348.16,29.98L348.36,30.12L348.38,30.13L349.74,31.56L349.97,31.25L349.98,31.23L351.22,30.01L351.35,30.11L351.37,30.12L352.72,31.58L352.97,31.24L352.99,31.21L354.16,29.98L354.36,30.12L354.38,30.13L355.74,31.56L355.97,31.25L355.98,31.23L357.22,30.01L357.36,30.11L357.37,30.12L358.72,31.58L358.97,31.24L358.99,31.21L360.16,29.98L360.36,30.12L360.38,30.13L361.74,31.56L361.97,31.25L361.98,31.23L363.22,30.01L363.36,30.11L363.37,30.12L364.72,31.58L364.97,31.24L364.99,31.21L366.16,29.98L366.36,30.12L366.38,30.13L367.74,31.56L367.97,31.25L367.98,31.23L369.22,30.01L369.36,30.11L369.37,30.12L370.72,31.58L370.97,31.24L370.99,31.21L372.16,29.98L372.36,30.12L372.38,30.13L373.74,31.56L373.97,31.25L373.98,31.23L375.22,30.01L375.36,30.11L375.37,30.12L376.72,31.58L376.97,31.24L376.99,31.21L378.16,29.98L378.36,30.12L378.38,30.13L379.74,31.56L379.97,31.25L379.98,31.23L381.22,30.01L381.36,30.11L381.37,30.12L382.72,31.58L382.97,31.24L382.99,31.21L384.16,29.98L384.36,30.12L384.38,30.13L385.74,31.56L385.97,31.25L385.98,31.23L387.22,30.01L387.36,30.11L387.37,30.12L388.72,31.58L388.97,31.24L388.99,31.21L390.16,29.98L390.36,30.12L390.38,30.13L391.74,31.56L391.98,31.23L392,31.2L393.22,30.01L393.36,30.11L393.37,30.12L394.72,31.58L394.97,31.24L394.99,31.21L396.16,29.98L396.36,30.12L396.38,30.13L397.74,31.56L397.98,31.23L398,31.2L399.22,30.01L399.36,30.11L399.37,30.12L400.72,31.58L400.98,31.24L400.99,31.21L402.16,29.98L402.36,30.12L402.38,30.13L403.74,31.56L403.98,31.23L404,31.2L405.22,30.01L405.36,30.11L405.37,30.12L406.72,31.58L406.98,31.24L406.99,31.21L408.16,29.98L408.36,30.12L408.38,30.13L409.74,31.56L409.98,31.23L410,31.2L411.22,30.01L411.36,30.11L411.37,30.12L412.72,31.58L412.98,31.24L412.99,31.21L414.16,29.98L414.36,30.12L414.38,30.13L415.74,31.56L415.98,31.23L416,31.2L417.22,30.01L417.36,30.11L417.37,30.12L418.72,31.58L418.98,31.24L418.99,31.21L420.16,29.98L420.36,30.12L420.38,30.13L421.74,31.56L421.98,31.23L422,31.2L423.22,30.01L423.36,30.11L423.37,30.12L424.72,31.58L424.98,31.24L424.99,31.21L426.16,29.98L426.36,30.12L426.38,30.13L427.74,31.56L427.98,31.23L428,31.2L429.22,30.01L429.36,30.11L429.37,30.12L430.72,31.58L430.98,31.24L430.99,31.21L432.16,29.98L432.36,30.12L432.38,30.13L433.74,31.56L433.98,31.23L434,31.2L435.22,30.01L435.36,30.11L435.37,30.12L436.72,31.58L436.98,31.24L436.99,31.21L438.16,29.98L438.36,30.12L438.38,30.13L439.74,31.56L439.98,31.23L440,31.2L441.22,30.01L441.36,30.11L441.37,30.12L442.72,31.58L442.98,31.24L442.99,31.21L444.16,29.98L444.36,30.12L444.38,30.13L445.74,31.56L445.98,31.23L446,31.2L447.22,30.01L447.36,30.11L447.37,30.12L448.72,31.58L448.98,31.24L448.99,31.21L450.16,29.98L450.36,30.12L450.38,30.13L451.74,31.56L451.98,31.23L452,31.2L453.22,30.01L453.36,30.11L453.37,30.12L454.72,31.58L454.98,31.24L454.99,31.21L456.16,29.98L456.36,30.12L456.38,30.13L457.74,31.56L457.98,31.23L458,31.2L459.22,30.01L459.36,30.11L459.37,30.12L460.72,31.58L460.98,31.24L460.99,31.21L462.16,29.98L462.36,30.12L462.38,30.13L463.74,31.56L463.98,31.23L464,31.2L465.22,30.01L465.36,30.11L465.37,30.12L466.72,31.58L466.98,31.24L466.99,31.21L468.16,29.98L468.36,30.12L468.38,30.13L469.74,31.56L469.98,31.23L470,31.2L471.22,30.01L471.36,30.11L471.37,30.12L472.72,31.58L472.98,31.24L472.99,31.21L474.16,29.98L474.36,30.12L474.38,30.13L475.73,31.57L475.98,31.23L476,31.2L477.22,30.01L477.36,30.11L477.37,30.12L478.72,31.58L478.98,31.24L478.99,31.21L480.16,29.98L480.36,30.12L480.38,30.13L481.73,31.57L481.98,31.23L482,31.2L483.22,30.01L483.36,30.11L483.37,30.12L484.72,31.58L484.98,31.24L484.99,31.21L486.16,29.98L486.36,30.12L486.38,30.13L487.73,31.57L487.98,31.23L488,31.2L489.22,30.01L489.36,30.11L489.37,30.12L490.71,31.59L490.98,31.24L490.99,31.21L492.16,29.98L492.36,30.12L492.38,30.13L493.73,31.57L493.98,31.23L494,31.2L495.22,30.01L495.36,30.11L495.37,30.12L496.71,31.59L496.98,31.24L496.99,31.21L498.16,29.98L498.35,30.11L498.37,30.12L499.73,31.57L499.98,31.23L500,31.2L501.22,30.01L501.36,30.11L501.37,30.12L502.71,31.59L502.98,31.24L502.99,31.21L504.16,29.98L504.35,30.11L504.37,30.12L505.73,31.57L505.98,31.23L506,31.2L507.22,30.01L507.36,30.11L507.37,30.12L508.71,31.59L508.98,31.24L508.99,31.21L510.16,29.98L510.35,30.11L510.37,30.12L511.73,31.57L511.98,31.23L512,31.2L513.2,30L513.36,30.11L513.37,30.12L514.71,31.59L514.98,31.24L514.99,31.21L516.2,30L516.35,30.11L516.37,30.12L517.73,31.57L517.98,31.23L518,31.2L519.2,30L519.36,30.11L519.37,30.12L520.71,31.59L520.98,31.24L520.99,31.21L522.2,30L522.35,30.11L522.37,30.12L523.73,31.57L523.98,31.23L524,31.2L525.2,30L525.36,30.11L525.37,30.12L526.71,31.59L526.98,31.24L526.99,31.21L528.2,30L528.35,30.11L528.37,30.12L529.73,31.57L529.98,31.23L530,31.2L531.2,30L531.36,30.11L531.37,30.12L532.71,31.59L532.98,31.24L532.99,31.21L534.2,30L534.35,30.11L534.37,30.12L535.73,31.57L535.98,31.23L536,31.2L537.2,30L537.36,30.11L537.37,30.12L538.71,31.59L538.98,31.24L538.99,31.21L540.2,30L540.35,30.11L540.37,30.12L541.73,31.57L541.99,31.23L542,31.2L543.2,30L543.36,30.11L543.37,30.12L544.71,31.59L544.98,31.24L544.99,31.21L546.2,30L546.35,30.11L546.37,30.12L547.73,31.57L547.99,31.23L548,31.2L549.2,30L549.36,30.11L549.37,30.12L550.71,31.59L550.98,31.24L550.99,31.21L552.2,30L552.35,30.11L552.37,30.12L553.84,31.46L553.99,31.23L554,31.2L555.2,30L555.36,30.11L555.37,30.12L556.71,31.59L556.98,31.24L556.99,31.21L558.2,30L558.35,30.11L558.37,30.12L559.84,31.46L559.99,31.23L560,31.2L561.2,30L561.36,30.11L561.37,30.12L562.71,31.59L562.98,31.24L562.99,31.21L564.2,30L564.35,30.11L564.37,30.12L565.84,31.46L565.99,31.23L566,31.2L567.2,30L567.36,30.11L567.37,30.12L568.71,31.59L568.98,31.24L568.99,31.21L570.2,30L570.35,30.11L570.37,30.12L571.84,31.46L571.99,31.23L572,31.2L573.2,30L573.36,30.11L573.37,30.12L574.71,31.59L574.98,31.24L574.99,31.21L576.2,30L576.35,30.11L576.37,30.12L577.84,31.46L577.99,31.23L578,31.2L579.2,30L579.36,30.11L579.37,30.12L580.73,30.54L580.75,30.54L592.44,31.35L592.45,31.35L597.63,30.26L597.65,30.25L600,29.24" style="vector-effect: non-scaling-stroke; fill: none; stroke: rgb(0, 0, 255); stroke-opacity: 1; stroke-width: 1px; opacity: 1;"/></g><g class="points"/><g class="text"/></g><g class="trace scatter trace3c2cde" style="stroke-miterlimit: 2; opacity: 1;"><g class="fills"/><g class="errorbars"/><g class="lines"><path class="js-line" d="M0,18.71L8.8,25.77L8.82,25.78L14.48,28.79L14.49,28.79L20.76,30.67L20.78,30.67L28.76,31.51L28.78,31.51L38.59,31.42L38.6,31.41L600,30.81" style="vector-effect: non-scaling-stroke; fill: none; stroke: rgb(0, 128, 0); stroke-opacity: 1; stroke-width: 1px; opacity: 1;"/></g><g class="points"/><g class="text"/></g><g class="trace scatter trace536628" style="stroke-miterlimit: 2; opacity: 1;"><g class="fills"/><g class="errorbars"/><g class="lines"><path class="js-line" d="M0,11.91L0.78,26.3L0.79,26.44L1.84,32.15L2.12,31.81L2.14,31.78L3.12,30.17L3.42,30.56L3.43,30.59L4.49,32.77L4.84,32.19L4.86,32.15L6.04,29.15L6.39,29.61L6.41,29.65L7.54,32.35L7.9,31.76L7.92,31.73L9.06,29.15L9.36,29.56L9.37,29.59L10.54,32.39L10.9,31.82L10.91,31.78L12.05,29.16L12.39,29.64L12.41,29.67L13.54,32.39L13.89,31.83L13.91,31.8L15.02,29.15L15.37,29.59L15.39,29.62L16.56,32.38L16.9,31.82L16.91,31.78L18.05,29.16L18.39,29.64L18.41,29.67L19.57,32.38L19.89,31.83L19.91,31.8L21.02,29.15L21.37,29.59L21.39,29.62L22.56,32.38L22.9,31.82L22.91,31.78L24.05,29.16L24.38,29.61L24.4,29.64L25.57,32.38L25.89,31.83L25.91,31.8L27.02,29.15L27.37,29.59L27.39,29.62L28.56,32.38L28.9,31.82L28.91,31.78L30.06,29.16L30.38,29.61L30.4,29.64L31.57,32.38L31.89,31.83L31.91,31.8L33.02,29.15L33.37,29.59L33.39,29.62L34.56,32.38L34.9,31.82L34.91,31.78L36.06,29.16L36.38,29.61L36.4,29.64L37.57,32.38L37.89,31.83L37.91,31.8L39.02,29.15L39.36,29.56L39.38,29.59L40.56,32.38L40.89,31.85L40.9,31.82L42.06,29.16L42.37,29.58L42.38,29.61L43.57,32.38L43.89,31.83L43.91,31.8L45.02,29.15L45.36,29.56L45.38,29.59L46.56,32.38L46.89,31.85L46.9,31.82L48.06,29.16L48.37,29.58L48.38,29.61L49.57,32.38L49.89,31.83L49.91,31.8L51.02,29.15L51.36,29.56L51.38,29.59L52.56,32.38L52.89,31.85L52.9,31.82L54.06,29.16L54.37,29.58L54.38,29.61L55.57,32.38L55.89,31.83L55.91,31.8L57.02,29.15L57.36,29.56L57.38,29.59L58.56,32.38L58.89,31.85L58.9,31.82L60.06,29.16L60.37,29.58L60.38,29.61L61.57,32.38L61.89,31.83L61.91,31.8L63.02,29.15L63.36,29.56L63.38,29.59L64.56,32.38L64.89,31.85L64.9,31.82L66.06,29.16L66.37,29.58L66.38,29.61L67.57,32.38L67.89,31.83L67.91,31.8L69.02,29.15L69.36,29.56L69.38,29.59L70.56,32.38L70.89,31.85L70.9,31.82L72.06,29.16L72.37,29.58L72.38,29.61L73.57,32.38L73.89,31.83L73.91,31.8L75.02,29.15L75.36,29.56L75.38,29.59L76.56,32.38L76.89,31.85L76.9,31.82L78.06,29.16L78.37,29.58L78.38,29.61L79.57,32.38L79.89,31.83L79.91,31.8L81.02,29.15L81.36,29.56L81.38,29.59L82.56,32.38L82.89,31.85L82.9,31.82L84.06,29.16L84.37,29.58L84.38,29.61L85.57,32.38L85.89,31.83L85.91,31.8L87.02,29.15L87.36,29.56L87.38,29.59L88.56,32.38L88.89,31.85L88.9,31.82L90.06,29.16L90.37,29.58L90.38,29.61L91.57,32.38L91.89,31.83L91.91,31.8L93.02,29.15L93.36,29.56L93.38,29.59L94.56,32.38L94.89,31.85L94.9,31.82L96.06,29.16L96.37,29.58L96.38,29.61L97.57,32.38L97.89,31.83L97.91,31.8L99.02,29.15L99.36,29.56L99.38,29.59L100.56,32.38L100.89,31.85L100.9,31.82L102.06,29.16L102.37,29.58L102.38,29.61L103.57,32.38L103.89,31.83L103.91,31.8L105.02,29.15L105.36,29.56L105.38,29.59L106.56,32.38L106.89,31.85L106.9,31.82L108.06,29.16L108.37,29.58L108.38,29.61L109.57,32.38L109.89,31.83L109.91,31.8L111.02,29.15L111.36,29.56L111.38,29.59L112.56,32.38L112.89,31.85L112.9,31.82L114.06,29.16L114.37,29.58L114.38,29.61L115.57,32.38L115.89,31.83L115.91,31.8L117.02,29.15L117.36,29.56L117.38,29.59L118.56,32.38L118.89,31.85L118.9,31.82L120.06,29.16L120.38,29.61L120.4,29.64L121.57,32.38L121.89,31.83L121.91,31.8L123.02,29.15L123.36,29.56L123.38,29.59L124.56,32.38L124.89,31.85L124.9,31.82L126.06,29.16L126.38,29.61L126.4,29.64L127.57,32.38L127.89,31.83L127.91,31.8L129.02,29.15L129.36,29.56L129.38,29.59L130.56,32.38L130.9,31.82L130.91,31.78L132.06,29.16L132.38,29.61L132.4,29.64L133.57,32.38L133.89,31.83L133.91,31.8L135.02,29.15L135.36,29.56L135.38,29.59L136.56,32.38L136.9,31.82L136.91,31.78L138.06,29.16L138.38,29.61L138.4,29.64L139.57,32.38L139.89,31.83L139.91,31.8L141.02,29.15L141.36,29.56L141.38,29.59L142.56,32.38L142.9,31.82L142.91,31.78L144.06,29.16L144.38,29.61L144.4,29.64L145.57,32.38L145.89,31.83L145.91,31.8L147.02,29.15L147.36,29.56L147.38,29.59L148.56,32.38L148.9,31.82L148.91,31.78L150.06,29.16L150.38,29.61L150.4,29.64L151.57,32.38L151.89,31.83L151.91,31.8L153.02,29.15L153.36,29.56L153.38,29.59L154.56,32.38L154.9,31.82L154.92,31.78L156.06,29.16L156.37,29.58L156.38,29.61L157.57,32.38L157.89,31.83L157.91,31.8L159.02,29.15L159.36,29.56L159.38,29.59L160.56,32.38L160.9,31.82L160.92,31.78L162.06,29.16L162.37,29.58L162.38,29.61L163.57,32.38L163.89,31.83L163.91,31.8L165.02,29.15L165.36,29.56L165.38,29.59L166.56,32.38L166.9,31.82L166.92,31.78L168.06,29.16L168.37,29.58L168.38,29.61L169.57,32.38L169.9,31.83L169.91,31.8L171.02,29.15L171.36,29.56L171.38,29.59L172.56,32.38L172.9,31.82L172.92,31.78L174.06,29.16L174.37,29.58L174.38,29.61L175.57,32.38L175.9,31.83L175.91,31.8L177.02,29.15L177.36,29.56L177.38,29.59L178.56,32.38L178.9,31.82L178.92,31.78L180.06,29.16L180.37,29.58L180.39,29.61L181.57,32.38L181.9,31.83L181.91,31.8L183.02,29.15L183.36,29.56L183.38,29.59L184.56,32.38L184.9,31.82L184.92,31.78L186.06,29.16L186.37,29.58L186.39,29.61L187.57,32.38L187.9,31.83L187.91,31.8L189.02,29.15L189.36,29.56L189.38,29.59L190.56,32.38L190.9,31.82L190.92,31.78L192.06,29.16L192.37,29.58L192.39,29.61L193.57,32.38L193.9,31.83L193.91,31.8L195.02,29.15L195.36,29.56L195.38,29.59L196.54,32.39L196.9,31.82L196.92,31.78L198.06,29.16L198.37,29.58L198.39,29.61L199.57,32.38L199.9,31.83L199.91,31.8L201.02,29.15L201.37,29.56L201.38,29.59L202.54,32.39L202.9,31.82L202.92,31.78L204.06,29.16L204.37,29.58L204.39,29.61L205.57,32.38L205.9,31.83L205.91,31.8L207.03,29.15L207.37,29.56L207.38,29.59L208.54,32.39L208.9,31.82L208.92,31.78L210.06,29.16L210.37,29.58L210.39,29.61L211.57,32.38L211.9,31.83L211.91,31.8L213.03,29.15L213.37,29.56L213.38,29.59L214.54,32.39L214.9,31.82L214.92,31.78L216.06,29.16L216.37,29.58L216.39,29.61L217.57,32.38L217.9,31.83L217.91,31.8L219.03,29.15L219.37,29.56L219.38,29.59L220.54,32.39L220.9,31.82L220.92,31.78L222.06,29.16L222.37,29.58L222.39,29.61L223.57,32.38L223.9,31.83L223.91,31.8L225.03,29.15L225.37,29.56L225.38,29.59L226.54,32.39L226.9,31.82L226.92,31.78L228.06,29.16L228.37,29.58L228.39,29.61L229.57,32.38L229.9,31.83L229.91,31.8L231.03,29.15L231.37,29.56L231.38,29.59L232.54,32.39L232.9,31.82L232.92,31.78L234.06,29.16L234.37,29.58L234.39,29.61L235.57,32.38L235.9,31.83L235.91,31.8L237.03,29.15L237.37,29.56L237.38,29.59L238.54,32.39L238.9,31.82L238.92,31.78L240.06,29.16L240.37,29.58L240.39,29.61L241.57,32.38L241.9,31.83L241.91,31.8L243.03,29.15L243.37,29.56L243.38,29.59L244.54,32.39L244.9,31.82L244.92,31.78L246.06,29.16L246.37,29.58L246.39,29.61L247.57,32.38L247.9,31.83L247.91,31.8L249.03,29.15L249.37,29.56L249.38,29.59L250.54,32.39L250.9,31.82L250.92,31.78L252.06,29.16L252.37,29.58L252.39,29.61L253.57,32.38L253.9,31.83L253.91,31.8L255.03,29.15L255.38,29.59L255.39,29.62L256.54,32.39L256.9,31.82L256.92,31.78L258.06,29.16L258.37,29.58L258.39,29.61L259.57,32.38L259.9,31.83L259.91,31.8L261.03,29.15L261.39,29.62L261.41,29.65L262.54,32.39L262.9,31.82L262.92,31.78L264.06,29.16L264.37,29.58L264.39,29.61L265.57,32.38L265.9,31.83L265.91,31.8L267.03,29.15L267.39,29.62L267.41,29.65L268.54,32.39L268.9,31.82L268.92,31.78L270.06,29.16L270.37,29.58L270.39,29.61L271.57,32.38L271.9,31.83L271.91,31.8L273.03,29.15L273.39,29.62L273.41,29.65L274.54,32.39L274.9,31.82L274.92,31.78L276.06,29.16L276.37,29.58L276.39,29.61L277.57,32.38L277.9,31.83L277.91,31.8L279.03,29.15L279.39,29.62L279.41,29.65L280.54,32.39L280.9,31.82L280.92,31.78L282.06,29.16L282.37,29.58L282.39,29.61L283.57,32.38L283.9,31.83L283.91,31.8L285.03,29.15L285.39,29.62L285.41,29.65L286.54,32.39L286.9,31.82L286.92,31.78L288.06,29.16L288.37,29.58L288.39,29.61L289.57,32.38L289.9,31.83L289.91,31.8L291.03,29.15L291.39,29.62L291.41,29.65L292.54,32.39L292.9,31.82L292.92,31.78L294.06,29.16L294.37,29.58L294.39,29.61L295.57,32.38L295.9,31.83L295.91,31.8L297.03,29.15L297.39,29.62L297.41,29.65L298.54,32.39L298.9,31.82L298.92,31.78L300.06,29.16L300.37,29.58L300.39,29.61L301.57,32.38L301.9,31.83L301.91,31.8L303.03,29.15L303.39,29.62L303.41,29.65L304.54,32.39L304.9,31.82L304.92,31.78L306.06,29.16L306.37,29.58L306.39,29.61L307.57,32.38L307.9,31.83L307.91,31.8L309.03,29.15L309.39,29.62L309.41,29.65L310.54,32.39L310.91,31.82L310.92,31.78L312.06,29.16L312.37,29.58L312.39,29.61L313.57,32.38L313.9,31.83L313.91,31.8L315.03,29.15L315.39,29.62L315.41,29.65L316.57,32.38L316.91,31.82L316.92,31.78L318.06,29.16L318.37,29.58L318.39,29.61L319.57,32.38L319.9,31.83L319.91,31.8L321.03,29.15L321.4,29.62L321.41,29.65L322.57,32.38L322.91,31.82L322.92,31.78L324.06,29.16L324.37,29.58L324.39,29.61L325.57,32.38L325.9,31.83L325.91,31.8L327.06,29.16L327.4,29.62L327.41,29.65L328.57,32.38L328.91,31.82L328.92,31.78L330.06,29.16L330.37,29.58L330.39,29.61L331.57,32.38L331.9,31.83L331.91,31.8L333.06,29.16L333.4,29.62L333.41,29.65L334.57,32.38L334.91,31.82L334.92,31.78L336.06,29.16L336.37,29.58L336.39,29.61L337.55,32.39L337.9,31.83L337.91,31.8L339.06,29.16L339.4,29.62L339.41,29.65L340.57,32.38L340.91,31.82L340.92,31.78L342.06,29.16L342.38,29.58L342.39,29.61L343.55,32.39L343.91,31.8L343.93,31.76L345.03,29.15L345.38,29.59L345.4,29.62L346.57,32.38L346.89,31.85L346.91,31.82L348.06,29.16L348.38,29.58L348.39,29.61L349.55,32.39L349.91,31.8L349.93,31.76L351.03,29.15L351.38,29.59L351.4,29.62L352.57,32.38L352.89,31.85L352.91,31.82L354.06,29.16L354.38,29.58L354.39,29.61L355.55,32.39L355.91,31.8L355.93,31.76L357.03,29.15L357.38,29.59L357.4,29.62L358.57,32.38L358.89,31.85L358.91,31.82L360.06,29.16L360.38,29.58L360.39,29.61L361.55,32.39L361.91,31.8L361.93,31.76L363.03,29.15L363.38,29.59L363.4,29.62L364.57,32.38L364.89,31.85L364.91,31.82L366.06,29.16L366.38,29.58L366.39,29.61L367.55,32.39L367.91,31.8L367.93,31.76L369.03,29.15L369.38,29.59L369.4,29.62L370.57,32.38L370.89,31.85L370.91,31.82L372.06,29.16L372.38,29.58L372.39,29.61L373.55,32.39L373.91,31.8L373.93,31.76L375.03,29.15L375.38,29.59L375.4,29.62L376.57,32.38L376.89,31.85L376.91,31.82L378.06,29.16L378.38,29.58L378.39,29.61L379.55,32.39L379.91,31.8L379.93,31.76L381.03,29.15L381.38,29.59L381.4,29.62L382.57,32.38L382.89,31.85L382.91,31.82L384.06,29.16L384.38,29.58L384.39,29.61L385.55,32.39L385.91,31.8L385.93,31.76L387.03,29.15L387.38,29.59L387.4,29.62L388.57,32.38L388.89,31.85L388.91,31.82L390.06,29.16L390.38,29.58L390.39,29.61L391.55,32.39L391.91,31.8L391.93,31.76L393.03,29.15L393.38,29.59L393.4,29.62L394.57,32.38L394.89,31.85L394.91,31.82L396.06,29.16L396.38,29.58L396.39,29.61L397.55,32.39L397.91,31.8L397.93,31.76L399.03,29.15L399.38,29.59L399.4,29.62L400.57,32.38L400.89,31.85L400.91,31.82L402.06,29.16L402.38,29.58L402.39,29.61L403.55,32.39L403.91,31.8L403.93,31.76L405.03,29.15L405.38,29.59L405.4,29.62L406.57,32.38L406.89,31.85L406.91,31.82L408.06,29.16L408.38,29.58L408.39,29.61L409.55,32.39L409.91,31.8L409.93,31.76L411.03,29.15L411.38,29.59L411.4,29.62L412.57,32.38L412.91,31.82L412.92,31.78L414.06,29.16L414.4,29.64L414.42,29.67L415.55,32.39L415.91,31.8L415.93,31.76L417.03,29.15L417.38,29.59L417.4,29.62L418.57,32.38L418.91,31.82L418.92,31.78L420.06,29.16L420.4,29.64L420.42,29.67L421.55,32.39L421.91,31.8L421.93,31.76L423.03,29.15L423.38,29.59L423.4,29.62L424.57,32.38L424.91,31.82L424.92,31.78L426.06,29.16L426.4,29.64L426.42,29.67L427.55,32.39L427.91,31.8L427.93,31.76L429.03,29.15L429.38,29.59L429.4,29.62L430.57,32.38L430.91,31.82L430.92,31.78L432.06,29.16L432.4,29.64L432.42,29.67L433.55,32.39L433.91,31.8L433.93,31.76L435.03,29.15L435.38,29.59L435.4,29.62L436.57,32.38L436.91,31.82L436.92,31.78L438.06,29.16L438.4,29.64L438.42,29.67L439.55,32.39L439.91,31.8L439.93,31.76L441.03,29.15L441.38,29.59L441.4,29.62L442.57,32.38L442.91,31.82L442.92,31.78L444.06,29.16L444.4,29.64L444.42,29.67L445.55,32.39L445.91,31.8L445.93,31.76L447.03,29.15L447.38,29.59L447.4,29.62L448.57,32.38L448.91,31.82L448.92,31.78L450.06,29.16L450.4,29.64L450.42,29.67L451.55,32.39L451.9,31.83L451.92,31.8L453.03,29.15L453.38,29.59L453.4,29.62L454.57,32.38L454.91,31.82L454.92,31.78L456.06,29.16L456.4,29.64L456.42,29.67L457.58,32.38L457.9,31.83L457.92,31.8L459.03,29.15L459.38,29.59L459.4,29.62L460.57,32.38L460.91,31.82L460.92,31.78L462.06,29.16L462.39,29.61L462.41,29.64L463.58,32.38L463.9,31.83L463.92,31.8L465.03,29.15L465.38,29.59L465.4,29.62L466.57,32.38L466.91,31.82L466.92,31.78L468.07,29.16L468.39,29.61L468.41,29.64L469.58,32.38L469.9,31.83L469.92,31.8L471.03,29.15L471.38,29.59L471.4,29.62L472.57,32.38L472.91,31.82L472.92,31.78L474.07,29.16L474.39,29.61L474.41,29.64L475.58,32.38L475.9,31.83L475.92,31.8L477.03,29.15L477.38,29.59L477.4,29.62L478.57,32.38L478.91,31.82L478.92,31.78L480.07,29.16L480.39,29.61L480.41,29.64L481.58,32.38L481.9,31.83L481.92,31.8L483.03,29.15L483.37,29.56L483.39,29.59L484.57,32.38L484.9,31.85L484.91,31.82L486.07,29.16L486.38,29.58L486.39,29.61L487.58,32.38L487.9,31.83L487.92,31.8L489.03,29.15L489.37,29.56L489.39,29.59L490.57,32.38L490.9,31.85L490.91,31.82L492.07,29.16L492.38,29.58L492.39,29.61L493.58,32.38L493.9,31.83L493.92,31.8L495.03,29.15L495.37,29.56L495.39,29.59L496.57,32.38L496.9,31.85L496.91,31.82L498.07,29.16L498.38,29.58L498.39,29.61L499.58,32.38L499.9,31.83L499.92,31.8L501.03,29.15L501.37,29.56L501.39,29.59L502.57,32.38L502.9,31.85L502.91,31.82L504.07,29.16L504.38,29.58L504.39,29.61L505.58,32.38L505.9,31.83L505.92,31.8L507.03,29.15L507.37,29.56L507.39,29.59L508.57,32.38L508.9,31.85L508.91,31.82L510.07,29.16L510.38,29.58L510.39,29.61L511.58,32.38L511.9,31.83L511.92,31.8L513.03,29.15L513.37,29.56L513.39,29.59L514.57,32.38L514.9,31.85L514.91,31.82L516.07,29.16L516.38,29.58L516.39,29.61L517.58,32.38L517.9,31.83L517.92,31.8L519.03,29.15L519.37,29.56L519.39,29.59L520.57,32.38L520.9,31.85L520.91,31.82L522.07,29.16L522.38,29.58L522.39,29.61L523.58,32.38L523.9,31.83L523.92,31.8L525.03,29.15L525.37,29.56L525.39,29.59L526.57,32.38L526.9,31.85L526.91,31.82L528.07,29.16L528.38,29.58L528.39,29.61L529.58,32.38L529.9,31.83L529.92,31.8L531.03,29.15L531.37,29.56L531.39,29.59L532.57,32.38L532.9,31.85L532.91,31.82L534.07,29.16L534.38,29.58L534.39,29.61L535.58,32.38L535.9,31.83L535.92,31.8L537.03,29.15L537.37,29.56L537.39,29.59L538.57,32.38L538.9,31.85L538.91,31.82L540.07,29.16L540.38,29.58L540.39,29.61L541.58,32.38L541.9,31.83L541.92,31.8L543.03,29.15L543.37,29.56L543.39,29.59L544.57,32.38L544.9,31.85L544.91,31.82L546.07,29.16L546.38,29.58L546.39,29.61L547.58,32.38L547.9,31.83L547.92,31.8L549.03,29.15L549.37,29.56L549.39,29.59L550.57,32.38L550.9,31.85L550.91,31.82L552.07,29.16L552.38,29.58L552.39,29.61L553.58,32.38L553.9,31.83L553.92,31.8L555.03,29.15L555.37,29.56L555.39,29.59L556.57,32.38L556.9,31.85L556.91,31.82L558.07,29.16L558.39,29.61L558.41,29.64L559.58,32.38L559.9,31.83L559.92,31.8L561.03,29.15L561.37,29.56L561.39,29.59L562.57,32.38L562.91,31.82L562.92,31.78L564.07,29.16L564.41,29.64L564.42,29.67L565.58,32.38L565.9,31.83L565.92,31.8L567.09,29.17L567.39,29.59L567.4,29.62L568.57,32.38L568.91,31.82L568.92,31.78L570.07,29.16L570.41,29.64L570.42,29.67L571.58,32.38L571.9,31.83L571.92,31.8L573.09,29.17L573.39,29.59L573.4,29.62L574.57,32.38L574.91,31.82L574.92,31.78L576.07,29.16L576.41,29.64L576.42,29.67L577.58,32.38L577.9,31.83L577.92,31.8L579.09,29.17L579.39,29.59L579.4,29.62L580.57,32.38L580.91,31.82L580.92,31.78L582.07,29.16L582.41,29.64L582.42,29.67L583.58,32.38L583.9,31.84L583.92,31.8L585.09,29.17L585.39,29.59L585.4,29.62L586.57,32.38L586.91,31.82L586.92,31.78L588.07,29.16L588.41,29.64L588.42,29.67L589.58,32.38L589.9,31.84L589.92,31.8L591.07,29.17L591.39,29.6L591.4,29.63L592.57,32.38L592.91,31.81L592.93,31.77L594.07,29.08L594.39,29.49L594.41,29.52L595.56,32.17L595.9,31.63L595.92,31.59L596.99,29.24L597.31,29.73L597.32,29.77L598.87,35.04L599.27,34.65L599.28,34.64L599.92,32.56L599.93,32.59L599.95,31.99L600,25.89" style="vector-effect: non-scaling-stroke; fill: none; stroke: rgb(255, 0, 0); stroke-opacity: 1; stroke-width: 1px; opacity: 1;"/></g><g class="points"/><g class="text"/></g></g></g><g class="overplot"/><path class="xlines-above crisp" d="M0,0" style="fill: none;"/><path class="ylines-above crisp" d="M0,0" style="fill: none;"/><g class="overlines-above"/><g class="xaxislayer-above"><g class="xtick"><text text-anchor="middle" x="0" y="172.3333" transform="translate(50,0)" style="font-family: 'Latin Modern Roman'; font-size: 13.3333px; fill: rgb(0, 0, 0); fill-opacity: 1; white-space: pre;">0</text></g><g class="xtick"><text text-anchor="middle" x="0" y="172.3333" transform="translate(186.06,0)" style="font-family: 'Latin Modern Roman'; font-size: 13.3333px; fill: rgb(0, 0, 0); fill-opacity: 1; white-space: pre;">10k</text></g><g class="xtick"><text text-anchor="middle" x="0" y="172.3333" transform="translate(322.12,0)" style="font-family: 'Latin Modern Roman'; font-size: 13.3333px; fill: rgb(0, 0, 0); fill-opacity: 1; white-space: pre;">20k</text></g><g class="xtick"><text text-anchor="middle" x="0" y="172.3333" transform="translate(458.17,0)" style="font-family: 'Latin Modern Roman'; font-size: 13.3333px; fill: rgb(0, 0, 0); fill-opacity: 1; white-space: pre;">30k</text></g><g class="xtick"><text text-anchor="middle" x="0" y="172.3333" transform="translate(594.23,0)" style="font-family: 'Latin Modern Roman'; font-size: 13.3333px; fill: rgb(0, 0, 0); fill-opacity: 1; white-space: pre;">40k</text></g></g><g class="yaxislayer-above"><g class="ytick"><text text-anchor="end" x="49" y="4.6666549999999996" transform="translate(0,150.8)" style="font-family: 'Latin Modern Roman'; font-size: 13.3333px; fill: rgb(0, 0, 0); fill-opacity: 1; white-space: pre;">−1</text></g><g class="ytick"><text text-anchor="end" x="49" y="4.6666549999999996" transform="translate(0,118.4)" style="font-family: 'Latin Modern Roman'; font-size: 13.3333px; fill: rgb(0, 0, 0); fill-opacity: 1; white-space: pre;">−0.5</text></g><g class="ytick"><text text-anchor="end" x="49" y="4.6666549999999996" transform="translate(0,86)" style="font-family: 'Latin Modern Roman'; font-size: 13.3333px; fill: rgb(0, 0, 0); fill-opacity: 1; white-space: pre;">0</text></g><g class="ytick"><text text-anchor="end" x="49" y="4.6666549999999996" transform="translate(0,53.6)" style="font-family: 'Latin Modern Roman'; font-size: 13.3333px; fill: rgb(0, 0, 0); fill-opacity: 1; white-space: pre;">0.5</text></g><g class="ytick"><text text-anchor="end" x="49" y="4.6666549999999996" transform="translate(0,21.2)" style="font-family: 'Latin Modern Roman'; font-size: 13.3333px; fill: rgb(0, 0, 0); fill-opacity: 1; white-space: pre;">1</text></g></g><g class="overaxes-above"/></g></g><g class="polarlayer"/><g class="ternarylayer"/><g class="geolayer"/><g class="funnelarealayer"/><g class="pielayer"/><g class="treemaplayer"/><g class="sunburstlayer"/><g class="glimages"/><defs id="topdefs-79b870"><g class="clips"/><clipPath id="legend79b870"><rect width="509" height="31" x="0" y="0"/></clipPath></defs><g class="layer-above"><g class="imagelayer"/><g class="shapelayer"/></g><g class="infolayer"><g class="legend" pointer-events="all" transform="translate(50, 0)"><rect class="bg" shape-rendering="crispEdges" style="stroke: rgb(68, 68, 68); stroke-opacity: 1; fill: rgb(255, 255, 255); fill-opacity: 1; stroke-width: 0px;" width="509" height="31" x="0" y="0"/><g class="scrollbox" transform="translate(0, 0)" clip-path="url('#legend79b870')"><g class="groups"><g class="traces" transform="translate(0, 15.166645)" style="opacity: 1;"><text class="legendtext" text-anchor="start" x="40" y="5.199987" style="font-family: 'Latin Modern Roman'; font-size: 13.3333px; fill: rgb(0, 0, 0); fill-opacity: 1; white-space: pre;">Signal</text><g class="layers" style="opacity: 1;"><g class="legendfill"/><g class="legendlines"><path class="js-line" d="M5,0h30" style="fill: none; stroke: rgb(192, 192, 192); stroke-opacity: 1; stroke-width: 0.5px;"/></g><g class="legendsymbols"><g class="legendpoints"/></g></g><rect class="legendtoggle" x="0" y="-10.166645" width="76.875" height="20.33329" style="fill: rgb(0, 0, 0); fill-opacity: 0;"/></g><g class="traces" transform="translate(79.375, 15.166645)" style="opacity: 1;"><text class="legendtext" text-anchor="start" x="40" y="5.199987" style="font-family: 'Latin Modern Roman'; font-size: 13.3333px; fill: rgb(0, 0, 0); fill-opacity: 1; white-space: pre;">Present Work</text><g class="layers" style="opacity: 1;"><g class="legendfill"/><g class="legendlines"><path class="js-line" d="M5,0h30" style="fill: none; stroke: rgb(0, 0, 0); stroke-opacity: 1; stroke-width: 1px;"/></g><g class="legendsymbols"><g class="legendpoints"/></g></g><rect class="legendtoggle" x="0" y="-10.166645" width="114.703125" height="20.33329" style="fill: rgb(0, 0, 0); fill-opacity: 0;"/></g><g class="traces" transform="translate(196.578125, 15.166645)" style="opacity: 1;"><text class="legendtext" text-anchor="start" x="40" y="5.199987" style="font-family: 'Latin Modern Roman'; font-size: 13.3333px; fill: rgb(0, 0, 0); fill-opacity: 1; white-space: pre;">Smoothing</text><g class="layers" style="opacity: 1;"><g class="legendfill"/><g class="legendlines"><path class="js-line" d="M5,0h30" style="fill: none; stroke: rgb(0, 0, 255); stroke-opacity: 1; stroke-width: 1px;"/></g><g class="legendsymbols"><g class="legendpoints"/></g></g><rect class="legendtoggle" x="0" y="-10.166645" width="101.359375" height="20.33329" style="fill: rgb(0, 0, 0); fill-opacity: 0;"/></g><g class="traces" transform="translate(300.4375, 15.166645)" style="opacity: 1;"><text class="legendtext" text-anchor="start" x="40" y="5.199987" style="font-family: 'Latin Modern Roman'; font-size: 13.3333px; fill: rgb(0, 0, 0); fill-opacity: 1; white-space: pre;">Lowpass Filter</text><g class="layers" style="opacity: 1;"><g class="legendfill"/><g class="legendlines"><path class="js-line" d="M5,0h30" style="fill: none; stroke: rgb(0, 128, 0); stroke-opacity: 1; stroke-width: 1px;"/></g><g class="legendsymbols"><g class="legendpoints"/></g></g><rect class="legendtoggle" x="0" y="-10.166645" width="122.671875" height="20.33329" style="fill: rgb(0, 0, 0); fill-opacity: 0;"/></g><g class="traces" transform="translate(425.609375, 15.166645)" style="opacity: 1;"><text class="legendtext" text-anchor="start" x="40" y="5.199987" style="font-family: 'Latin Modern Roman'; font-size: 13.3333px; fill: rgb(0, 0, 0); fill-opacity: 1; white-space: pre;">Hilbert</text><g class="layers" style="opacity: 1;"><g class="legendfill"/><g class="legendlines"><path class="js-line" d="M5,0h30" style="fill: none; stroke: rgb(255, 0, 0); stroke-opacity: 1; stroke-width: 1px;"/></g><g class="legendsymbols"><g class="legendpoints"/></g></g><rect class="legendtoggle" x="0" y="-10.166645" width="80.5625" height="20.33329" style="fill: rgb(0, 0, 0); fill-opacity: 0;"/></g></g></g><rect class="scrollbar" rx="20" ry="3" width="0" height="0" style="fill: rgb(128, 139, 164); fill-opacity: 1;" x="0" y="0"/></g><g class="g-gtitle"/><g class="g-xtitle" transform="translate(0,-2.677059999999983)"><text class="xtitle" x="350" y="199.67705999999998" text-anchor="middle" style="font-family: 'Latin Modern Roman'; font-size: 13.33px; fill: rgb(0, 0, 0); opacity: 1; font-weight: normal; white-space: pre;"><tspan style="font-weight:bold"><tspan style="font-style:italic">i</tspan></tspan></text></g><g class="g-ytitle" transform="translate(11.5205078125,0)"><text class="ytitle" transform="rotate(-90,0.47919000000000267,86)" x="0.47919000000000267" y="86" text-anchor="middle" style="font-family: 'Latin Modern Roman'; font-size: 13.33px; fill: rgb(0, 0, 0); opacity: 1; font-weight: normal; white-space: pre;"><tspan style="font-weight:bold">Amplitude</tspan></text></g></g></svg>