<svg class="main-svg" xmlns="http://www.w3.org/2000/svg" xmlns:xlink="http://www.w3.org/1999/xlink" width="650" height="280" style="" viewBox="0 0 650 280"><rect x="0" y="0" width="650" height="280" style="fill: rgb(255, 255, 255); fill-opacity: 1;"/><defs id="defs-4fab97"><g class="clips"><clipPath id="clip4fab97xyplot" class="plotclip"><rect width="600" height="216"/></clipPath><clipPath class="axesclip" id="clip4fab97x"><rect x="50" y="0" width="600" height="280"/></clipPath><clipPath class="axesclip" id="clip4fab97y"><rect x="0" y="22" width="650" height="216"/></clipPath><clipPath class="axesclip" id="clip4fab97xy"><rect x="50" y="22" width="600" height="216"/></clipPath></g><g class="gradients"/></defs><g class="bglayer"/><g class="layer-below"><g class="imagelayer"/><g class="shapelayer"/></g><g class="cartesianlayer"><g class="subplot xy"><g class="layer-subplot"><g class="shapelayer"/><g class="imagelayer"/></g><g class="gridlayer"><g class="x"/><g class="y"/></g><g class="zerolinelayer"/><path class="xlines-below"/><path class="ylines-below"/><g class="overlines-below"/><g class="xaxislayer-below"/><g class="yaxislayer-below"/><g class="overaxes-below"/><g class="plot" transform="translate(50, 22)" clip-path="url('#clip4fab97xyplot')"><g class="scatterlayer mlayer"><g class="trace scatter trace2ccc59" style="stroke-miterlimit: 2; opacity: 1;"><g class="fills"/><g class="errorbars"/><g class="lines"><path class="js-line" d="M0,108L0.88,107.41L0.88,107.29L1.28,114.76L1.48,103.82L1.67,106.18L1.68,106.25L1.73,104.94L1.93,109.07L1.94,109.16L2.31,110.35L2.54,104.2L2.65,108.73L2.66,108.76L2.92,116.91L2.97,101.37L3.01,102.6L3.02,101.94L3.42,65.71L3.76,180.91L3.77,150.92L3.78,142.18L3.86,40.18L4.42,196.44L4.52,97.32L4.53,91.14L4.62,46.86L4.72,177.4L5.28,91.01L5.29,85.17L5.62,42.18L5.81,177.77L6.04,79.75L6.05,83.9L6.32,17.52L6.48,185.73L6.8,80.69L6.81,76.99L7,23.62L7.15,196.2L7.56,91.54L7.57,91.22L7.67,18.39L7.86,179.39L8.32,79.9L8.33,72.7L8.54,184.09L9.05,32.14L9.08,95.78L9.09,98.4L9.21,191.57L9.73,20.66L9.84,101.83L9.85,99.69L9.89,183.61L10.4,33.65L10.6,160.24L10.61,161.56L11.08,31.22L11.28,190.63L11.36,136.22L11.37,139.5L11.78,26.39L11.95,176.03L12.12,139.56L12.13,141.14L12.45,40.71L12.66,179.57L12.88,114.11L12.89,119.4L13.15,46.63L13.34,194.44L13.64,100.5L13.65,100.15L13.84,28.64L14.01,186.03L14.4,113.49L14.41,113.66L14.53,24.62L14.72,180.44L15.16,58.69L15.17,59.57L15.39,195.69L15.87,21.64L15.92,78.24L15.93,82.13L16.07,197.79L16.57,35.7L16.68,118.83L16.69,125.19L17.25,32.75L17.42,203.63L17.44,162.35L17.45,159.32L17.93,18.55L18.1,198.95L18.2,105.23L18.21,106.02L18.61,25.82L18.8,185.76L18.96,96.11L18.97,90.79L19.3,47.19L19.47,205.2L19.72,89.72L19.73,90.52L19.98,39.82L20.15,200.2L20.48,105.33L20.49,104.16L20.67,34.16L20.82,190.91L21.24,102.16L21.25,102.67L21.34,32.79L21.51,185.59L22,66.2L22.01,56.7L22.02,33.74L22.19,179.9L22.76,62.55L22.77,65.3L22.94,176.04L23.39,46.98L23.52,118.49L23.53,124.56L23.61,180.48L24.07,44.88L24.28,178.81L24.29,178.44L24.79,51.1L25.04,125.71L25.05,125.57L25.47,50.8L25.66,182.91L25.8,96.37L25.81,92.01L26.15,51.85L26.34,177.14L26.56,107.6L26.57,109.7L26.84,58.15L27.02,176.03L27.32,104.75L27.33,103.09L27.52,53.09L27.7,177.4L28.08,117.87L28.09,124.33L28.2,48.44L28.38,174.38L28.84,81.44L28.85,80.99L28.87,50.54L29.07,174.08L29.6,83.26L29.61,81.82L29.75,178.18L30.24,55.33L30.36,118.4L30.37,121.2L30.42,173.65L30.92,57.62L31.12,170.26L31.13,172.29L31.13,173.38L31.61,59.39L31.88,131.21L31.89,131.75L32.29,54.52L32.48,172.13L32.64,96.73L32.65,95.03L32.96,54.91L33.17,170.81L33.4,101.91L33.41,101.73L33.64,60.05L33.86,172.82L34.16,106.57L34.17,102.13L34.33,61.08L34.54,169.66L34.92,108.18L34.93,108.01L35.01,63.03L35.23,171.66L35.68,66.49L35.69,65.07L35.69,64.5L35.9,169.23L36.44,70.27L36.45,70.38L36.6,168.65L37.13,69.63L37.2,106.38L37.21,107.1L37.81,70.25L37.96,173.07L37.96,171.14L37.97,168.29L38.48,71L38.64,169.93L38.72,135.72L38.73,136.13L39.19,71.11L39.32,170.53L39.48,93.9L39.49,92.12L39.86,70.31L40,168.02L40.24,86.87L40.25,88.12L40.54,71.2L40.69,166.18L41,104.89L41.01,104.57L41.21,73.92L41.37,167.92L41.76,120.5L41.77,123.3L41.9,72.68L42.04,161.96L42.52,85.38L42.53,84.32L42.6,72.01L42.76,159.32L43.28,73.67L43.29,74.39L43.43,159.45L43.64,70.1L44.04,91.78L44.05,96.81L44.31,73.24L44.8,161.55L44.81,161.42L45.33,72.8L45.49,162.5L45.56,144.54L45.57,144.51L46.01,70.55L46.17,162.71L46.32,111.11L46.33,109.07L46.68,74.27L46.85,160.48L47.08,83.55L47.09,83.79L47.37,76.55L47.52,159.15L47.84,100.86L47.85,98.01L48.22,158.56L48.44,74.97L48.6,116.01L48.61,116.81L48.9,158.7L49.12,75.12L49.36,98.76L49.37,98.92L49.58,154.71L49.79,76.37L50.12,86.23L50.13,85.18L50.26,155.38L50.49,75.24L50.88,93.71L50.89,95.29L50.94,154.24L51.16,73.9L51.64,145.15L51.65,143.78L51.86,76.86L52.31,148.39L52.4,138.58L52.41,138.96L52.54,72.96L52.99,147.71L53.16,111.94L53.17,108.12L53.22,73.12L53.67,144.96L53.92,82.34L53.93,85.43L54.41,143.3L54.59,71.15L54.68,94.3L54.69,92.74L55.08,146.11L55.27,73.43L55.44,109.81L55.45,109.02L55.76,144.2L55.95,73.33L56.2,98.47L56.21,97.49L56.43,143.87L56.63,73.7L56.96,89.16L56.97,90.45L57.13,142.58L57.31,75.66L57.72,93.33L57.73,96.14L57.81,142.18L58.01,76.82L58.48,139.69L58.49,140.14L58.5,141.54L58.69,74.64L59.24,140.95L59.25,140.99L59.37,77.72L59.93,141.35L60,120.3L60.01,117.84L60.56,140.96L60.74,74.78L60.76,88.17L60.77,90.4L61.22,141.43L61.42,76.43L61.52,90.91L61.53,90.99L61.94,139.73L62.11,76.68L62.28,107.83L62.29,109.79L62.69,139.41L62.79,77.58L63.04,105.46L63.05,104.06L63.32,140.38L63.48,79.66L63.8,95.64L63.81,95.2L63.85,79.11L63.99,140.23L64.56,90.37L64.57,92.32L64.67,138.96L64.84,79.4L65.32,132.17L65.33,133.56L65.44,140.19L65.52,81.97L66.08,131.52L66.09,130.61L66.21,81.29L66.82,140.23L66.84,123.4L66.85,120.7L66.89,83.07L67.49,140.92L67.6,91.83L67.61,92.25L67.96,85.44L68.18,141.03L68.36,91.49L68.37,90.28L68.65,83.64L68.86,140.19L69.12,103.43L69.13,104.24L69.32,84.14L69.55,142.2L69.88,104.14L69.89,103.19L70,85.82L70.24,144.03L70.64,102.27L70.65,100.84L70.91,143.45L71.37,86.23L71.4,94.49L71.41,95.73L71.59,142.89L72.06,86.33L72.16,131.16L72.17,131.82L72.29,142.45L72.37,87.88L72.92,128.4L72.93,129.41L72.97,144.9L73.43,88.11L73.68,124.03L73.69,121.53L74.12,87.19L74.33,141.4L74.44,92.94L74.45,93.5L74.79,87.88L75.02,141.79L75.2,94.14L75.21,94.72L75.47,88.67L75.7,141.43L75.96,101.98L75.97,103.67L76.18,89.87L76.39,142.06L76.72,103.91L76.73,103.51L76.85,89.65L77.07,140.19L77.48,100.58L77.49,100.45L77.76,141.53L77.98,90.57L78.24,93.71L78.25,94.21L78.44,141.99L78.66,90.15L79,125.36L79.01,126.58L79.12,141.62L79.36,90.56L79.76,124.68L79.77,125.64L79.8,140.36L80.03,88.76L80.52,126.92L80.53,124.98L80.71,88.06L81.18,139.78L81.28,92.36L81.29,91.49L81.39,89.98L81.86,139.81L82.04,96.59L82.05,96.04L82.54,138.89L82.76,90.33L82.8,102.03L82.81,103.05L83.22,137.81L83.45,88.84L83.56,106.68L83.57,106.14L83.91,139.43L84.13,89.82L84.32,105.38L84.33,104.7L84.59,138.35L84.82,88.99L85.08,96.02L85.09,96.13L85.27,136.8L85.5,88.65L85.84,123.73L85.85,124.67L85.98,135.6L86.18,88.72L86.6,125.42L86.61,126.68L86.86,89.56L87.33,137.02L87.36,128.19L87.37,127.13L87.55,89L88.02,135.34L88.12,95.49L88.13,95.17L88.24,88.31L88.71,135.43L88.88,95.28L88.89,94.96L89.39,135.94L89.6,88.14L89.64,98.26L89.65,99.38L90.06,134.47L90.28,89.08L90.4,107.95L90.41,108.04L90.75,133.56L90.97,89.87L91.16,104.73L91.17,104.31L91.44,133.36L91.65,88.91L91.92,93.54L91.93,93.26L92.07,121.28L92.07,121.99L92.12,133.42L92.32,90.96L92.33,90.28L92.34,89.5L92.81,133.77L93.08,104.08L93.09,104.09L93.48,132.38L93.7,90.38L93.84,109.44L93.85,108.92L94.19,131.63L94.39,89.33L94.6,105.2L94.61,105.08L94.86,131.5L95.07,89.48L95.36,97.75L95.37,98.47L95.54,131.12L95.74,89.95L96.12,119.51L96.13,119.54L96.23,130.9L96.45,90.56L96.88,126.59L96.89,127.34L97.13,90.79L97.61,130.69L97.64,124.45L97.65,123.36L97.8,91.09L98.29,130.28L98.4,99.13L98.41,99.75L98.5,91.4L98.99,130.61L99.16,92.89L99.17,92.48L99.67,130.17L99.86,91.5L99.92,102.1L99.93,102.74L100.34,129.82L100.54,91.83L100.68,111.08L100.69,111L101.05,129.31L101.25,91.21L101.44,109.25L101.45,108.72L101.72,129.18L101.93,90.52L102.2,97.38L102.21,98.12L102.41,129.8L102.61,90.52L102.96,114.71L102.97,115.33L103.09,130.41L103.29,90.86L103.72,123L103.73,123.12L103.78,130.55L103.82,115.77L103.82,114.48L103.97,90.21L104.46,130.85L104.57,98.83L104.58,98.68L104.65,91.05L105.15,129.54L105.33,91.44L105.34,91.1L105.82,129.19L106.02,90.79L106.09,100.23L106.1,100.48L106.51,129.53L106.7,91.45L106.85,108.33L106.86,108.63L107.2,128.88L107.39,92.24L107.61,108.99L107.62,108L107.88,130.1L108.07,91.67L108.37,101.59L108.38,101.94L108.56,129.57L108.74,92L109.13,114.87L109.14,115.69L109.24,129.32L109.42,92.57L109.89,120.42L109.9,121.21L110.11,93.11L110.61,129.28L110.65,120.37L110.66,119.56L110.85,92.84L111.29,127.88L111.41,102.47L111.42,102.86L111.53,93.17L111.97,126.44L112.17,96.04L112.18,95.98L112.66,126.4L112.9,92.81L112.93,100.36L112.94,100.64L113.34,125.95L113.58,92.36L113.69,108.25L113.7,108.58L114.03,125.13L114.25,92.46L114.45,109.49L114.46,109.17L114.75,124.66L114.93,93.27L115.21,103.58L115.22,103.8L115.41,124.82L115.63,93.23L115.97,116.91L115.98,117.23L116.11,125.59L116.31,93.65L116.73,120.36L116.74,120.76L116.79,126.7L117.01,92.93L117.49,120.19L117.5,119.44L117.68,92.33L118.15,125.16L118.25,102.52L118.26,102.01L118.37,92.66L118.84,125.93L119.01,96.98L119.02,96.81L119.05,91.6L119.52,126.66L119.77,98.96L119.78,99.47L120.2,125.56L120.41,92.47L120.53,108.91L120.54,108.66L120.88,125.6L121.09,92.95L121.29,109.62L121.3,108.71L121.56,125.25L121.77,93.04L122.05,100.67L122.06,100.84L122.25,124.83L122.47,93.34L122.81,112.42L122.82,112.32L122.93,124.57L123.13,95.09L123.13,94.46L123.14,93.66L123.61,123.45L123.88,98.5L123.89,98.66L124.32,122.61L124.52,93.96L124.64,108.06L124.65,107.95L125,122.51L125.2,93.31L125.4,109.01L125.41,109.1L125.68,122.71L125.87,93.76L126.16,103.95L126.17,104.5L126.35,122.77L126.54,93.95L126.92,114.55L126.93,114.82L127.04,122.31L127.28,94.97L127.68,117.46L127.69,117.91L127.73,122.58L127.97,94.87L128.44,119.98L128.45,120.2L128.65,93.66L129.08,122.73L129.2,103.01L129.21,102.99L129.33,93.68L129.76,121.77L129.96,97.54L129.97,97.64L130,93.73L130.46,120.87L130.72,100.26L130.73,100.93L131.14,120.7L131.37,93.1L131.48,110.12L131.49,110.4L131.81,120.53L132.06,93.01L132.24,112.91L132.25,112.27L132.55,120.43L132.74,93.71L133,103.51L133.01,103.74L133.24,120.59L133.42,93.77L133.76,111.9L133.77,111.96L133.92,121.9L134.1,94.1L134.52,116.78L134.53,117.07L134.59,122.44L134.78,93.8L135.28,120.55L135.29,120.04L135.47,93.98L135.96,121.25L136.04,105.36L136.05,104.66L136.14,93.33L136.65,121.41L136.8,98.94L136.81,97.85L136.82,93.94L137.32,122.36L137.56,96.28L137.57,95.61L138.01,122.17L138.25,94.47L138.32,106.98L138.33,107.35L138.69,122.13L138.93,94.04L139.08,113.19L139.09,112.83L139.36,121.43L139.61,93.96L139.84,107.21L139.85,106.5L140.05,120.74L140.28,94.65L140.6,109.01L140.61,109.26L140.74,121.55L140.97,95.45L141.36,113.92L141.37,114.17L141.41,121.38L141.65,94.42L142.12,117.81L142.13,117.58L142.33,94.99L142.77,119.69L142.88,103.78L142.89,104.26L143.01,95.37L143.47,119.21L143.64,100.09L143.65,100.44L144.19,120.31L144.39,95.2L144.4,96.69L144.41,96.99L144.87,120.61L145.07,95.17L145.16,104.58L145.17,104.76L145.55,120.52L145.75,95.7L145.92,111.65L145.93,112.2L146.24,120.24L146.43,96.13L146.68,106.41L146.69,106.25L146.92,121.47L147.14,95.94L147.44,108.01L147.45,108.75L147.6,121.55L147.81,95.87L148.2,114.89L148.21,115.57L148.28,121.16L148.49,95.96L148.96,119.79L148.97,119.44L149.18,95.96L149.64,119.94L149.72,108.84L149.73,108.13L149.86,95.66L150.31,119.29L150.48,100.69L150.49,100.52L151.02,119.32L151.22,95.59L151.24,98.22L151.25,98.37L151.69,119.45L151.9,96.17L152,106.33L152.01,106.77L152.37,119L152.58,96.85L152.76,115.28L152.77,115.27L153.06,118.64L153.27,96.73L153.52,111.64L153.53,110.85L153.73,118.22L153.95,96.53L154.28,107.83L154.29,107.77L154.41,118.12L154.55,102.35L154.56,102.78L154.57,102.65L154.63,96.87L155.14,117.53L155.32,97.9L155.33,98.08L155.82,118.14L156.05,96.38L156.08,101.86L156.09,102.33L156.5,117.91L156.73,96.37L156.84,113.42L156.85,113.9L157.17,117.8L157.42,96.24L157.6,114.85L157.61,114.21L157.85,117.49L158.09,96.34L158.36,107.25L158.37,107.03L158.54,117.23L158.78,96.12L159.12,109.43L159.13,109.63L159.21,116.89L159.46,95.56L159.88,115.97L159.89,116.12L160.15,95.34L160.63,117.01L160.64,115.74L160.65,115.39L160.83,95.14L161.31,117.49L161.4,103.82L161.41,103.41L161.51,94.95L161.99,118.05L162.16,99.69L162.17,98.9L162.19,94.99L162.68,118.26L162.92,98.5L162.93,98.28L163.36,118.67L163.54,95.41L163.68,107.7L163.69,107.59L164.04,118.53L164.23,95.75L164.44,113.96L164.45,114.14L164.72,118.62L164.91,96.18L165.2,107.41L165.21,107.59L165.4,118.14L165.58,96.21L165.96,108.78L165.97,108.78L166.09,118.09L166.26,96.63L166.72,112.6L166.73,112.95L167.02,96.87L167.46,119.13L167.48,113.11L167.49,112.52L167.7,96.36L168.14,119.25L168.24,102.4L168.25,102.61L168.38,95.95L168.82,118.87L169,98.62L169.01,99L169.06,95.96L169.5,118.83L169.76,100.11L169.77,100.53L170.18,118.58L170.42,96.72L170.52,107.9L170.53,108.25L170.86,118.37L171.1,96.72L171.28,114.37L171.29,114.23L171.54,117.72L171.79,96.63L172.04,109.28L172.05,109.24L172.1,106.94L172.21,116.92L172.22,117.22L172.46,96.84L172.97,114.67L172.98,113.81L173.15,97.14L173.64,117.32L173.73,103.99L173.74,103.3L173.83,97.47L174.32,118.08L174.49,98.93L174.5,98.53L175,118.3L175.2,97.51L175.25,100.99L175.26,101.56L175.68,118.29L175.91,97.65L176.01,108.83L176.02,109.03L176.37,118.55L176.59,97.21L176.77,115.11L176.78,115.03L177.05,118.49L177.26,97.19L177.53,108.82L177.54,108.12L177.73,118.52L177.94,97.24L178.29,107.38L178.3,107L178.41,118.13L178.63,97.36L179.05,110.46L179.06,110.74L179.09,117.86L179.31,97.5L179.81,111.98L179.82,111.86L179.99,97.39L180.46,117.19L180.57,104.32L180.58,103.95L180.67,97.4L181.14,117.33L181.33,99.2L181.34,98.77L181.82,116.72L182.06,97.67L182.09,100.99L182.1,101.01L182.28,116.49L182.73,97.54L182.85,105.68L182.86,105.92L182.96,116.34L183.41,97.44L183.61,113.34L183.62,113.74L184.09,97.7L184.32,117.71L184.37,110.31L184.38,110.46L184.59,114.93L184.77,98.13L184.92,110.71L184.93,111.19L185,117.87L185.49,97.89L185.68,117.49L185.69,117.37L186.18,97.83L186.44,110.25L186.45,109.59L186.86,96.98L187.05,116.99L187.2,107.83L187.21,107.35L187.54,96.82L187.73,117.13L187.96,112.9L187.97,113.2L188.22,97.13L188.41,117.17L188.72,113.56L188.73,113.56L188.91,97.13L189.09,116.87L189.48,106.1L189.49,105.86L189.59,96.51L189.77,116.19L190.24,100.16L190.25,99.86L190.46,115.69L190.95,95.81L191,101.28L191.01,101.02L191.19,116.14L191.63,95.9L191.76,107.17L191.77,107.28L191.87,116.23L192.31,96.4L192.52,113.98L192.53,114.26L192.99,96.56L193.23,116.89L193.28,109.66L193.29,109.43L193.68,96.22L193.9,116.5L194.04,106.37L194.05,106.39L194.18,115.03L194.33,102.15L194.33,101.45L194.36,96.29L194.6,116.28L194.85,114.51L194.86,114.73L195.03,97.05L195.28,116.51L195.61,109.06L195.62,108.65L195.72,97.28L195.96,116.43L196.37,102.83L196.38,102.03L196.4,97.54L196.65,116.59L197.13,99.15L197.14,98.62L197.15,97.55L197.33,117.06L197.89,104.69L197.9,104.92L198.01,117.15L198.5,97.85L198.65,111.5L198.66,111.83L198.69,116.93L199.18,98.12L199.41,113.92L199.42,113.56L199.86,97.92L200.07,116.27L200.17,109.58L200.18,109.05L200.55,98.03L200.75,116.69L200.93,106.72L200.94,106.53L201.22,98.24L201.43,116.53L201.69,111.9L201.7,112.17L201.9,98.72L202.12,116.27L202.45,107L202.46,106.99L202.59,98.8L202.8,116.52L203.21,103.18L203.22,103.02L203.48,116.12L203.96,98.19L203.97,99.21L203.98,99.51L204.17,116.34L204.63,98.48L204.73,105.22L204.74,105.38L204.85,116.35L205.33,99.05L205.49,111.02L205.5,111.42L206.01,98.99L206.22,116.26L206.25,113.47L206.26,113.59L206.68,99.31L206.9,116.24L207.01,109.2L207.02,109.32L207.4,99.42L207.58,116.16L207.77,106.57L207.78,106.9L208.09,99.23L208.26,115.74L208.53,113.27L208.54,113.64L208.77,99.16L209,115.66L209.29,111.04L209.3,110.99L209.46,99.02L209.69,116.08L210.05,105.46L210.06,105.09L210.14,99.06L210.37,116.47L210.81,99.3L210.82,99.12L210.83,98.81L211.05,116.57L211.57,104.92L211.58,105.23L211.73,117.06L212.19,98.77L212.33,110.75L212.34,111.35L212.41,117.12L212.87,98.77L213.09,116.98L213.1,116.82L213.57,99.15L213.85,111.22L213.86,110.73L214.25,98.96L214.46,116.93L214.61,105.52L214.62,105.02L214.93,98.66L215.13,116.64L215.37,109.95L215.38,110L215.62,98.44L215.81,116.36L216.13,110.14L216.14,110.2L216.16,110.63L216.27,101.22L216.27,100.96L216.3,98.41L216.5,115.77L217.02,103.55L217.03,103.93L217.24,115.67L217.67,98.21L217.78,107.82L217.79,108.07L217.91,115.9L218.35,98.07L218.54,114.93L218.55,114.89L219.04,97.97L219.28,116.19L219.3,113.64L219.31,113.22L219.72,97.66L219.96,116.45L220.06,108.73L220.07,108.13L220.4,97.25L220.64,116.77L220.82,106.33L220.83,106.71L221.08,97.23L221.32,117L221.58,110.33L221.59,110.34L221.6,110.51L221.74,100.84L221.75,100.03L221.76,97.38L222,116.59L222.5,101.79L222.51,101.58L222.68,116.25L222.68,116.5L222.69,116.72L223.13,98.01L223.43,112.84L223.44,113.01L223.81,97.98L223.96,106.91L223.96,107.46L224.06,116.81L224.49,98.3L224.71,114.06L224.72,114.44L224.74,116.89L225.17,99.15L225.47,113.08L225.48,113.01L225.49,113.26L225.57,104.77L225.82,106.46L225.82,105.49L225.86,99.57L226.1,116.42L226.47,110.16L226.48,110.45L226.54,100.05L226.78,116.04L227.03,109.16L227.03,109.25L227.1,111.41L227.23,100.3L227.42,110.57L227.43,111.05L227.47,116.24L227.94,100.21L228.18,114.28L228.19,114.23L228.62,100.11L228.83,115.58L228.94,112.06L228.95,111.77L229.3,100.36L229.52,115.48L229.7,105.19L229.71,105.13L229.89,111.84L229.96,102.1L229.96,101.9L230.21,115.66L230.68,100.01L230.71,103.14L230.72,103.1L230.88,115.51L231.36,100.02L231.47,106.05L231.48,106.05L231.56,115.03L231.74,105.34L231.74,105.01L231.94,111.57L232.03,100.15L232.22,110.86L232.22,111.42L232.26,114.93L232.72,100.43L232.97,113.97L232.98,113.99L233.02,114.85L233.05,111.6L233.05,111.04L233.41,100.42L233.61,114.07L233.61,114.37L233.71,115.15L234.09,100.42L234.36,113.97L234.37,114.2L234.77,100.44L235.06,115.32L235.12,109.95L235.13,109.5L235.44,101.23L235.74,115.12L235.88,105.75L235.89,105.53L236.15,101.25L236.42,114.92L236.64,108.97L236.65,108.62L236.82,101.34L237.1,114.88L237.4,110.34L237.41,110.42L237.5,101.58L237.79,115.11L237.94,104.79L237.94,104.36L238.25,101.86L238.47,114.84L238.69,107.98L238.7,107.67L238.93,101.55L239.19,115.29L239.45,110.44L239.46,110.56L239.61,101.36L239.88,115.2L240.21,104.69L240.22,104.34L240.29,101.49L240.56,115.5L240.97,101.73L240.98,101.81L241.24,116.09L241.64,101.76L241.73,104.18L241.74,104.26L241.75,104.11L241.85,113.86L241.86,113.88L241.92,116.2L242.33,101.75L242.61,115.65L242.62,115.47L243.02,101.82L243.29,116.04L243.37,107.66L243.38,107.21L243.7,101.87L243.97,116.39L244.13,106.65L244.14,106.74L244.26,112.14L244.33,105.32L244.33,105.08L244.65,116.51L245.08,101.61L245.09,101.66L245.33,116.56L245.76,101.64L245.84,102.99L245.85,103.17L246.01,116.16L246.44,101.6L246.6,111.08L246.61,111.33L246.69,116.08L247.13,101.56L247.36,114.96L247.37,115.16L247.38,116.03L247.81,101.37L248.12,112.69L248.13,112.62L248.49,101.57L248.74,115.66L248.88,105.02L248.89,104.95L249.17,101.62L249.42,115.67L249.54,106.74L249.54,106.41L249.85,101.9L250.11,115.52L250.29,106.15L250.3,106.41L250.54,102.02L250.8,115.33L251.05,106.18L251.06,106.49L251.22,102.16L251.47,115.09L251.81,110.17L251.82,110.03L251.9,102.23L252.16,114.97L252.57,102.89L252.58,102.71L252.58,102.35L252.84,114.7L253.33,104.17L253.34,104.22L253.58,114.69L254.06,102.86L254.09,106.3L254.1,106.79L254.26,114.87L254.74,102.68L254.85,111.38L254.86,111.7L254.94,114.8L255.43,102.55L255.61,114.55L255.62,114.72L255.63,115.08L256.11,102.43L256.37,108.97L256.38,108.47L256.8,102.44L256.99,114.91L257.13,106.59L257.14,106.62L257.3,111.46L257.48,102.33L257.58,110.77L257.58,111.08L257.66,114.8L257.85,104.54L257.86,104.26L258.16,102.11L258.38,114.78L258.61,107.98L258.62,108.02L258.84,102.2L259.06,114.86L259.37,109.54L259.38,109.27L259.53,102.33L259.74,114.96L260.13,103.85L260.14,103.93L260.43,115.07L260.89,102.33L260.9,102.39L261.11,115.16L261.58,102.12L261.65,108.02L261.66,108.24L261.8,115.06L262.26,102.32L262.41,112.53L262.42,112.53L262.93,102.44L263.17,115.35L263.17,115.21L263.18,115.04L263.62,102.68L263.85,115.37L263.93,106.6L263.94,106.61L264.31,102.72L264.53,115.27L264.69,104.35L264.7,104.2L264.79,108.99L264.79,109.29L264.99,103.09L265.22,115.2L265.35,106.46L265.35,106.26L265.66,103.41L265.91,115.22L266.1,103.75L266.11,103.71L266.37,103.36L266.6,115.29L266.86,110.28L266.87,110.48L267.04,103.37L267.28,115.52L267.62,105.35L267.63,105.06L267.73,103.42L267.97,115.84L268.36,106.38L268.36,106.25L268.64,116L268.84,103.44L268.91,109.46L268.92,109.74L269.32,115.87L269.52,103.23L269.67,106.11L269.68,106.01L269.79,103.66L269.98,113.51L269.98,113.92L270.01,115.69L270.21,103.24L270.44,105.16L270.44,104.95L270.7,115.81L270.9,103.11L271.19,104.89L271.2,104.92L271.38,115.95L271.57,103.02L271.95,109.81L271.96,110.11L272.06,116.04L272.25,102.9L272.71,112.61L272.72,113.1L272.74,115.81L272.93,103.04L273.47,111.21L273.48,110.92L273.63,103.49L274.11,115.58L274.23,107.18L274.24,107.28L274.33,103.27L274.41,111.34L274.69,109.56L274.69,109.77L274.79,115.35L274.94,106.39L274.95,106.11L275.48,115.2L275.7,102.94L275.71,102.96L276.17,115.32L276.38,102.67L276.46,110.49L276.47,110.33L276.84,115.28L277.08,102.69L277.22,107.91L277.23,107.89L277.53,115.12L277.76,102.23L277.98,105.34L277.99,105.27L278.21,114.92L278.44,101.9L278.74,105.02L278.75,105.11L278.9,114.48L279.12,101.6L279.5,109.32L279.51,109.2L279.58,114.32L279.8,101.74L280.26,114.24L280.27,114.28L280.49,101.9L280.9,110.16L280.91,110.54L281.17,102.02L281.65,114.17L281.66,113.65L281.67,113.42L281.86,101.67L282.33,114.09L282.42,110.04L282.43,109.79L282.54,101.63L283.01,113.96L283.18,105.65L283.19,105.29L283.71,114.02L283.91,101.33L283.94,104.96L283.95,105.38L284.39,114.16L284.59,101.43L284.7,109.05L284.71,109.04L285.07,114.35L285.28,101.58L285.46,108.07L285.47,107.92L285.75,114.18L285.96,101.58L286.22,105.74L286.23,105.51L286.43,113.92L286.65,101.4L286.98,108.15L286.99,108.29L287.11,113.79L287.33,101.19L287.74,109.2L287.75,109.27L287.79,113.54L288.01,101.41L288.5,112.94L288.51,112.86L288.7,101.59L289.17,113.18L289.26,109.52L289.27,109.4L289.39,101.56L289.79,108.35L289.79,108.58L289.86,113L290.05,102.66L290.05,102.38L290.07,101.6L290.49,109.48L290.49,109.77L290.53,113.11L290.75,101.67L291.24,112.54L291.25,112.49L291.44,101.52L291.93,112.69L292,109.46L292.01,109.45L292.04,109.87L292.12,101.53L292.46,107.6L292.46,107.76L292.63,112.6L292.78,103.59L292.79,103.2L292.8,101.55L293.31,112.75L293.54,105.83L293.55,106.11L294,112.64L294.17,102.09L294.3,108.56L294.31,108.64L294.68,112.79L294.86,102.08L295.06,109.55L295.07,109.62L295.36,112.86L295.55,102.16L295.82,105.1L295.83,105.15L296.05,112.87L296.2,104.12L296.21,103.88L296.24,101.88L296.73,112.97L296.96,105.27L296.97,105.45L297.41,112.74L297.6,102.24L297.72,109.15L297.73,109.06L298.1,112.66L298.29,102.4L298.48,109.81L298.49,109.81L298.78,112.65L298.98,102.26L299.14,108.68L299.15,108.9L299.48,112.52L299.66,102.06L299.9,107.04L299.91,106.81L300.16,112.87L300.34,102.06L300.66,107.41L300.67,107.58L300.84,112.96L301.02,102.22L301.41,107.55L301.41,107.7L301.52,112.88L301.7,102.32L302.16,110.44L302.17,110.64L302.2,112.79L302.39,102.46L302.92,110.13L302.93,109.99L303.07,102.83L303.57,112.38L303.68,110.81L303.69,110.69L303.76,103.05L304.25,112.6L304.44,103.24L304.45,103.23L304.93,112.68L305.1,104.57L305.11,104.33L305.62,112.45L305.85,102.96L305.86,103.55L305.87,103.78L306.3,112.6L306.53,103.05L306.62,107.26L306.63,107.17L306.98,112.55L307.15,105.65L307.15,105.3L307.22,103.01L307.39,110.81L307.61,108.31L307.61,108.38L307.66,112.3L307.89,103.05L307.89,102.86L307.9,102.71L308.07,110.93L308.3,107.98L308.3,108.06L308.47,112.23L308.58,102.68L309.05,111.28L309.06,111.13L309.15,112.21L309.26,102.91L309.81,111.15L309.82,111.35L309.95,102.89L310.52,112.34L310.57,107.03L310.58,106.79L311.2,112.45L311.32,102.65L311.33,103.87L311.34,104.09L311.88,112.24L311.99,102.62L312.09,106.55L312.1,106.5L312.11,106.32L312.46,111.5L312.55,111.13L312.55,111.41L312.56,112.09L312.67,102.86L313.3,108.21L313.31,108.07L313.94,111.95L314.05,103.28L314.06,103.46L314.07,103.52L314.62,112.07L314.75,103.29L314.82,106.2L314.83,106.1L315.3,111.96L315.37,107.22L315.37,106.77L315.42,103.16L315.88,111.69L315.95,109.85L315.96,110.16L315.98,111.53L316.11,103.19L316.71,110.11L316.72,109.94L316.79,103.13L317.25,111.46L317.47,103.18L317.48,103.17L317.93,111.55L318.23,105.72L318.24,105.75L318.26,105.55L318.33,110.61L318.59,109.6L318.59,109.95L318.61,111.57L318.85,103.28L319.34,108.42L319.35,108.47L319.42,111.54L319.53,103.18L320.1,111.4L320.11,111.29L320.21,103.43L320.64,110.27L320.65,110.62L320.66,111.32L320.9,103.47L321.4,108.69L321.41,108.63L321.48,111.46L321.58,103.53L321.97,106.49L321.98,106.5L322.15,111.3L322.26,103.62L322.73,109.81L322.74,109.74L322.86,111.23L322.94,103.82L323.49,109.91L323.5,110.12L323.54,111.3L323.63,104.1L324.25,110.29L324.26,110.06L324.92,111.24L325.01,103.9L325.01,104.12L325.02,104.27L325.61,111.56L325.69,104.2L325.77,104.39L325.78,104.25L326.28,111.69L326.46,104.31L326.47,104.32L326.96,111.58L327.07,104.16L327.22,108.68L327.23,108.84L327.66,111.57L327.75,104.13L327.98,109.35L327.99,109.36L328.34,111.63L328.43,104.05L328.73,108.65L328.73,108.78L329.02,111.7L329.11,104.27L329.19,104.35L329.2,104.39L329.7,111.77L329.78,104.73L329.79,104.62L329.88,104.19L330.39,111.57L330.54,105.06L330.55,104.77L331.08,111.44L331.24,104.13L331.3,106.64L331.31,106.8L331.76,111.55L331.92,104.38L332.06,110.13L332.07,110.16L332.45,111.44L332.6,104.54L332.82,109.05L332.83,109.2L333.14,111.66L333.28,104.7L333.58,106.35L333.59,106.29L333.82,111.72L334.01,104.78L334.25,107.01L334.26,106.82L334.5,111.67L334.69,104.47L335.01,109.39L335.02,109.4L335.19,111.76L335.37,104.47L335.47,109.92L335.47,110.03L335.88,111.92L335.98,105.9L335.99,105.77L336.56,112.11L336.74,104.47L336.74,104.68L336.75,104.77L337.24,112.19L337.42,104.41L337.5,108.56L337.51,108.92L337.93,112.22L338.1,104.53L338.26,108.76L338.27,108.79L338.61,112.35L338.75,105.46L338.76,105.41L338.79,104.37L339.29,112.3L339.51,105.53L339.52,105.69L339.97,112.13L340.15,104.52L340.27,109.78L340.28,109.74L340.65,112.03L340.83,104.69L341.03,110.02L341.04,110.13L341.34,111.83L341.51,104.73L341.79,107L341.8,106.99L342.02,111.59L342.24,104.98L342.58,108.64L342.58,108.57L342.71,111.51L342.93,104.76L343.35,107.25L343.35,107.6L343.39,111.34L343.6,104.66L344.1,110.23L344.11,110.2L344.29,104.63L344.76,110.95L344.86,107.2L344.87,107.18L344.98,104.55L345.45,110.85L345.45,110.79L345.46,110.89L345.66,104.56L346.13,110.77L346.13,110.9L346.35,104.66L346.78,108.65L346.79,108.84L346.83,110.96L347.02,104.66L347.54,108.93L347.55,108.71L347.72,104.52L348.19,110.98L348.3,106.86L348.31,106.76L348.4,104.41L348.56,110.52L348.85,109.16L348.85,109.4L348.88,110.93L349.08,104.26L349.6,108.63L349.61,108.52L349.77,104.51L349.95,110.62L350.22,109.14L350.22,109.41L350.46,104.27L350.63,110.81L350.97,108.93L350.98,108.87L351.14,104.24L351.32,110.9L351.73,107.06L351.74,107.16L351.82,104.21L352,110.92L352.27,109.27L352.27,109.49L352.51,104.12L352.69,111.15L352.9,106.02L352.9,105.87L353.2,103.93L353.36,111.27L353.5,109.11L353.5,109.3L353.87,103.85L354.05,111.27L354.25,106.74L354.26,106.57L354.56,103.78L354.73,111.11L355.01,109.29L355.02,109.45L355.24,103.93L355.41,111.13L355.77,108.79L355.78,108.78L355.92,104.02L356.09,111.17L356.53,107.37L356.54,107.41L356.61,103.99L356.78,111.15L357.29,104.24L357.3,104.39L357.46,110.93L357.97,104.24L358.05,107.93L358.06,107.94L358.14,110.73L358.65,104.46L358.78,107.94L358.79,108.19L358.83,110.85L359.34,104.7L359.54,110.31L359.55,110.37L360.03,104.7L360.18,110.46L360.18,110.36L360.19,110.5L360.71,104.81L360.91,110.62L360.94,109.36L360.95,109.21L361.41,104.68L361.59,110.62L361.7,108.74L361.71,108.99L362.09,104.58L362.27,110.59L362.46,106.68L362.47,106.56L362.77,104.76L362.96,110.65L363.22,107.94L363.23,108.12L363.46,104.63L363.64,110.81L363.98,109.3L363.99,109.24L364.15,104.52L364.32,110.64L364.74,108.74L364.75,108.76L364.83,104.4L365.02,110.66L365.4,108.37L365.41,108.46L365.51,104.46L365.7,110.81L366.16,106.45L366.17,106.15L366.19,104.66L366.38,110.78L366.92,106.54L366.93,106.45L367.06,110.63L367.28,105.32L367.52,107.4L367.53,107.03L367.56,104.89L367.76,110.72L368.28,106.21L368.29,106.37L368.45,110.81L368.91,105.34L368.92,105.34L369.12,110.84L369.59,106.09L369.59,105.92L369.61,105.58L369.82,110.87L370.18,108.24L370.19,108.27L370.3,105.57L370.5,111.08L370.88,108.02L370.88,108L370.98,105.59L371.18,111.09L371.63,107.07L371.64,106.84L371.87,111.04L372.1,105.42L372.39,106.25L372.4,106.29L372.54,110.69L372.54,110.86L372.55,111.17L372.78,105.42L373.03,106.11L373.04,106.07L373.23,111.23L373.43,106.83L373.43,106.68L373.47,105.35L373.91,111.15L374.02,109.37L374.03,109.62L374.15,105.19L374.59,111.12L374.78,107.6L374.79,107.47L375.28,110.93L375.51,105.15L375.54,106.6L375.55,106.64L375.97,110.88L376.19,105.5L376.19,105.38L376.65,110.96L376.87,105.61L376.88,105.6L377.35,110.73L377.53,106.99L377.53,106.83L377.57,105.56L378.03,110.83L378.12,109.83L378.13,110.03L378.25,105.53L378.71,110.91L378.88,108.44L378.89,108.21L379.4,111.01L379.62,105.46L379.64,105.69L379.65,105.8L380.09,111L380.31,105.48L380.4,107.4L380.41,107.24L380.61,106.09L380.77,111.28L380.95,107.26L380.96,107.07L381.45,111.43L381.69,105.4L381.71,106.51L381.72,106.77L382.14,111.47L382.37,105.23L382.47,106.99L382.48,107.06L382.82,111.36L383.05,105.24L383.23,109.62L383.24,109.47L383.5,111.32L383.73,105.28L383.99,107.18L384,107.14L384.18,111.24L384.42,105.3L384.75,105.97L384.76,105.97L384.86,111L385.11,105.18L385.42,106.71L385.42,106.58L385.55,111.06L385.79,105.14L386.17,106.22L386.18,106.31L386.23,110.81L386.47,105.13L386.93,110.36L386.94,110.27L387.15,105.31L387.6,110.63L387.69,108.92L387.7,109.05L387.84,105.39L388.29,110.55L388.45,110.04L388.46,109.88L388.52,105.41L388.98,110.39L389.21,105.58L389.22,105.61L389.81,110.44L389.9,105.55L389.97,106.55L389.98,106.46L390.27,105.5L390.5,110.57L390.73,108.46L390.74,108.5L390.95,105.48L391.18,110.7L391.49,108.48L391.5,108.51L391.63,105.42L391.85,110.43L391.85,110.52L391.95,105.49L392.55,110.79L392.57,110.13L392.57,109.93L393,105.5L393.23,110.94L393.32,105.79L393.33,105.79L393.69,105.49L393.91,110.78L394,105.75L394,105.62L394.37,105.38L394.61,110.78L394.65,107.35L394.66,107.14L395.06,105.39L395.29,110.95L395.41,106.91L395.42,106.78L395.74,105.38L395.97,111.07L396.17,106.38L396.18,106.42L396.43,105.45L396.65,110.92L396.93,108.89L396.94,108.97L397.11,105.4L397.33,110.85L397.69,108.01L397.7,108.02L397.8,105.42L397.84,108.64L397.85,108.86L398.02,110.8L398.48,105.38L398.6,108.9L398.61,108.93L398.71,110.98L399.17,105.22L399.34,108.97L399.34,109.09L399.85,105.05L400.09,111.41L400.1,110.37L400.11,110.01L400.53,105.16L400.77,111.47L400.86,106.52L400.87,106.51L401.06,109.53L401.21,105.28L401.27,108.55L401.28,108.67L401.45,111.52L401.9,105.31L402.03,108.43L402.04,108.4L402.13,111.5L402.31,105.53L402.56,106.16L402.57,105.95L402.81,111.45L403.27,105.23L403.32,108.06L403.33,108.18L403.5,111.54L403.95,105.35L404.08,108.62L404.09,108.68L404.18,111.61L404.64,105.31L404.71,109.12L404.72,109.24L404.86,111.45L405.32,105.31L405.5,108.5L405.51,108.71L405.73,105.33L406.23,111.38L406.26,110.12L406.27,109.96L406.4,105.34L406.91,111.3L407.02,106.87L407.03,106.91L407.08,105.46L407.3,109.47L407.48,108.78L407.49,108.9L407.6,111.17L407.8,105.65L408.03,106.63L408.04,106.5L408.3,111.27L408.47,105.55L408.79,107.63L408.8,107.86L408.98,111.42L409.16,105.55L409.55,108.83L409.56,108.78L409.66,111.38L409.84,105.51L410.31,110.23L410.32,110.43L410.34,111.27L410.53,105.45L411.07,108.66L411.08,108.63L411.2,105.47L411.72,111.41L411.83,106.65L411.84,106.67L412.4,111.43L412.59,105.24L412.6,105.34L413.08,111.43L413.27,105.27L413.27,105.28L413.28,105.3L413.77,111.38L414.03,108.46L414.04,108.59L414.45,111.38L414.66,105.36L414.79,109.49L414.8,109.58L415.13,111.38L415.34,105.4L415.55,107.79L415.56,107.56L415.81,111.19L416.03,105.19L416.31,106.46L416.32,106.54L416.51,111.1L416.71,104.96L417.07,108.3L417.08,108.17L417.19,111.22L417.4,104.85L417.83,109.23L417.84,109.42L417.87,111.27L418.08,104.89L418.59,109.95L418.6,109.79L418.77,104.89L419.24,111.05L419.35,107.48L419.36,107.26L419.45,104.77L419.93,111.08L420.11,105.19L420.12,105.03L420.13,104.65L420.6,110.98L420.87,107.22L420.88,107.4L421.3,110.85L421.49,104.72L421.63,109.43L421.64,109.61L421.99,111.04L422.17,104.85L422.39,109.1L422.4,108.98L422.67,111.01L422.87,104.92L423.15,106.34L423.16,106.44L423.35,111L423.55,104.87L423.91,108.15L423.92,108.11L424.03,110.87L424.23,104.92L424.67,108.66L424.68,108.84L424.72,110.85L424.92,104.76L425.43,110.03L425.44,109.97L425.61,104.8L425.77,110.62L425.78,110.58L426.08,110.74L426.29,104.81L426.43,109.96L426.44,110.05L426.98,104.92L427.15,110.69L427.19,109.12L427.2,109L427.67,104.66L427.83,110.69L427.95,106.53L427.96,106.62L428.18,110.54L428.35,104.61L428.71,107.34L428.72,107.32L429.03,104.61L429.2,110.65L429.47,109.19L429.48,109.4L429.71,104.67L429.89,110.69L430.23,110.39L430.24,110.26L430.39,104.64L430.57,110.75L430.99,108.39L431,108.25L431.08,104.77L431.59,110.67L431.59,110.64L431.6,110.59L431.76,104.83L432.27,110.73L432.35,108.62L432.36,108.52L432.45,104.88L432.63,110.7L433.11,105.29L433.12,105.17L433.13,104.95L433.32,110.64L433.6,109.61L433.61,109.77L433.82,104.89L434.01,110.7L434.36,109.79L434.37,109.74L434.5,104.89L434.7,110.77L435.12,108.08L435.13,107.98L435.18,104.96L435.38,110.8L435.88,105.31L435.89,105.28L436.07,110.87L436.53,105.57L436.54,105.53L436.55,105.14L436.75,110.97L437.29,105.73L437.3,105.77L437.43,111.03L437.9,106.01L437.9,105.89L437.93,105.15L438.11,111.01L438.65,105.65L438.66,105.65L438.77,109.95L438.77,110.11L438.8,110.89L439.27,105.72L439.28,105.57L439.3,105.24L439.48,110.88L440.03,105.6L440.04,105.63L440.18,110.88L440.37,106.32L440.38,106.22L440.67,105.37L440.86,110.97L441.03,106.91L441.04,106.82L441.4,105.37L441.54,110.9L441.79,107.61L441.8,107.81L442.09,105.32L442.24,110.99L442.55,110.22L442.56,110.23L442.77,105.23L442.92,111.04L443.31,109.53L443.32,109.39L443.45,105.28L443.61,111.07L444.07,105.72L444.08,105.77L444.13,105.22L444.23,108.62L444.23,108.79L444.3,111.13L444.48,106.16L444.74,106.23L444.75,106.12L444.82,105.3L444.98,111.33L445.26,109.9L445.26,110L445.5,105.27L445.66,111.34L445.83,106.53L445.84,106.52L446.18,105.33L446.34,111.44L446.59,107.54L446.6,107.79L446.86,105.27L447.03,111.39L447.35,109.82L447.36,109.83L447.57,105.32L447.69,110.39L447.69,110.62L448.27,105.26L448.4,111.39L448.44,108.9L448.45,108.74L448.95,105.13L449.08,111.31L449.2,108.34L449.21,108.27L449.64,105.08L449.76,111.36L450,106.6L450,106.73L450.31,105.03L450.45,111.27L450.64,106.15L450.65,106.09L450.83,110.31L451,105.06L451.11,110.23L451.11,110.37L451.68,105.08L451.82,111.3L451.86,109.25L451.87,109.13L452.36,105.03L452.5,111.25L452.62,108.63L452.63,108.52L453.05,105.01L453.19,111.08L453.38,106L453.39,105.96L453.73,104.98L453.87,111.17L454.11,106.55L454.12,106.64L454.41,105.11L454.55,111.11L454.87,109.18L454.88,109.22L455.11,105.08L455.24,111.01L455.43,106.15L455.44,106.02L455.78,105.02L455.91,110.62L455.91,110.75L455.93,111.08L456.14,105.57L456.41,106.8L456.41,106.66L456.46,105.17L456.61,111.08L456.99,110.1L457,110.13L457.17,105.22L457.29,110.99L457.59,108.75L457.6,108.79L457.89,105.24L457.98,110.89L458.18,105.74L458.19,105.65L458.36,110.36L458.56,105.14L458.64,110.27L458.65,110.37L459.25,105.11L459.35,110.89L459.4,109.35L459.41,109.25L459.92,105.08L460.03,110.77L460.16,108.86L460.17,108.75L460.62,105L460.72,110.67L460.92,105.51L460.93,105.38L461.3,104.94L461.41,110.71L461.57,107.22L461.58,107.03L461.98,104.92L462.09,110.65L462.33,106.7L462.34,106.77L462.68,104.89L462.77,110.58L463.09,108.83L463.1,108.92L463.36,104.73L463.47,110.53L463.85,110.1L463.86,110.04L464.04,104.72L464.15,110.6L464.61,107.65L464.62,107.55L464.72,104.66L464.83,110.57L465.37,105.54L465.38,105.5L465.52,110.49L466.1,104.53L466.13,106.16L466.14,106.37L466.21,110.46L466.78,104.54L466.89,110.32L466.9,110.25L467.47,104.55L467.57,110.34L467.67,109.34L467.68,109.37L467.94,110.26L468.13,104.89L468.14,104.8L468.25,110.27L468.83,104.5L468.89,107.99L468.9,108.25L469.31,110.31L469.52,104.53L469.65,110.07L469.66,110.11L469.99,110.22L470.21,104.49L470.28,109.24L470.29,109.37L470.34,110.2L470.89,104.54L471.04,109.83L471.05,109.82L471.58,104.56L471.7,110.24L471.77,109.52L471.77,109.7L472.08,110.11L472.24,104.75L472.25,104.69L472.26,104.51L472.39,110.19L472.7,109.41L472.71,109.52L472.95,104.5L473.07,110.27L473.46,110.07L473.47,110L473.63,104.37L473.75,110.28L474.11,109.96L474.12,110.06L474.27,105.98L474.27,105.81L474.32,104.33L474.44,110.3L474.77,109.7L474.78,109.7L474.83,110.2L475,104.27L475.31,105.72L475.32,105.66L475.68,104.27L475.81,110.21L475.99,105.95L475.99,105.8L476.19,110.23L476.32,106.42L476.32,106.29L476.37,104.24L476.49,110.18L476.85,109.98L476.86,110.03L476.88,110.28L477.06,104.26L477.35,105.97L477.36,105.95L477.56,110.35L477.73,104.2L477.84,109.89L477.85,110L477.95,110.31L478.42,104.26L478.5,108.17L478.5,108.38L478.93,110.31L479.1,104.18L479.25,109.74L479.26,109.71L479.32,110.39L479.42,106.03L479.42,105.99L479.46,105.84L479.54,108.42L479.54,108.49L479.79,104.31L480.01,110.36L480.09,106.18L480.1,106.14L480.29,110.23L480.47,104.27L480.55,108.35L480.56,108.49L480.7,110.4L481.16,104.37L481.31,109.6L481.32,109.66L481.38,110.49L481.52,105.73L481.81,105.81L481.81,105.61L481.83,104.5L482.07,110.53L482.56,105.28L482.57,105.42L482.75,110.63L483.22,104.58L483.32,109.36L483.33,109.48L483.43,110.79L483.57,105.61L483.86,106.35L483.86,106.09L484.12,110.7L484.58,104.59L484.61,105L484.62,105.1L484.8,110.79L485.28,104.67L485.37,109.05L485.38,109.15L485.48,110.76L485.96,104.57L486.13,109.89L486.14,110.01L486.17,110.85L486.65,104.54L486.89,109.09L486.9,108.91L487.33,104.58L487.54,110.87L487.65,105.84L487.66,105.73L488.02,104.5L488.23,110.91L488.41,106.67L488.42,106.79L488.7,104.5L488.91,111.03L489.17,109.55L489.18,109.67L489.39,104.5L489.59,110.92L489.93,109.4L489.94,109.39L490.07,104.56L490.19,109.09L490.2,109.16L490.27,110.92L490.39,106.08L490.39,105.99L490.75,104.54L490.95,110.96L491.14,106.22L491.15,106.34L491.44,104.54L491.64,110.96L491.9,109.24L491.91,109.36L492.12,104.58L492.32,110.96L492.66,109.62L492.67,109.62L492.8,104.9L492.8,104.9L492.8,104.81L493.01,110.85L493.12,106.44L493.12,106.34L493.5,104.62L493.67,110.24L493.67,110.35L493.7,110.91L493.85,105.42L494.14,106.07L494.15,105.93L494.19,104.69L494.38,110.99L494.9,105.51L494.91,105.61L495.06,110.88L495.56,104.77L495.66,108.53L495.67,108.55L495.74,110.8L495.9,105.43L496.2,106.28L496.2,106.11L496.24,104.66L496.42,110.81L496.95,105.25L496.96,105.37L497.13,110.73L497.62,104.72L497.71,108.34L497.72,108.29L497.83,110.74L498.27,105.41L498.27,105.29L498.3,104.64L498.51,110.83L498.77,109.36L498.77,109.39L498.86,109.87L498.97,104.81L498.98,104.77L499.19,110.86L499.6,107.96L499.6,107.73L499.67,104.65L499.87,110.83L500.35,104.74L500.36,104.78L500.56,110.84L501.03,104.89L501.03,104.8L501.24,110.92L501.4,105.69L501.41,105.73L501.6,110.07L501.7,105.35L501.7,105.19L501.72,104.71L501.92,110.9L502.18,109.01L502.19,109.09L502.41,104.69L502.6,110.88L502.73,105.96L502.74,105.98L502.79,105.49L502.94,109.9L502.95,109.92L503.1,104.67L503.29,110.8L503.68,109.59L503.68,109.45L503.78,104.58L503.97,110.87L504.26,109.36L504.27,109.44L504.34,110.16L504.44,105.22L504.45,105.11L504.46,104.66L504.65,110.74L505.2,106.81L505.21,106.83L505.33,110.73L505.83,104.71L505.96,108.54L505.97,108.71L506.03,110.64L506.51,104.77L506.72,110.54L506.73,110.51L506.85,106.16L506.85,106.08L507.08,110.31L507.19,104.78L507.35,109.55L507.36,109.65L507.89,104.87L508.11,110.84L508.11,110.81L508.12,110.82L508.57,105L508.87,107.26L508.88,107.22L509.25,105L509.47,110.9L509.63,105.42L509.64,105.44L509.93,105.09L510.16,110.96L510.28,105.73L510.29,105.82L510.63,105.19L510.85,111L511.04,106.64L511.05,106.74L511.31,105.2L511.53,110.99L511.8,108.88L511.81,108.98L512.21,110.99L512.36,105.24L512.56,110.07L512.57,110.04L512.68,105.24L512.84,109.37L512.84,109.52L513.05,105.23L513.58,111.06L513.61,110.28L513.61,110.2L513.74,105.25L513.94,110.27L514.22,109.59L514.23,109.68L514.74,105.27L514.95,111.02L514.98,110.3L514.99,110.15L515.1,105.27L515.64,110.93L515.74,106.8L515.75,106.64L515.8,105.24L516.32,110.88L516.5,105.61L516.51,105.69L517,110.9L517.17,105.24L517.26,108.16L517.27,108.25L517.7,110.91L517.86,105.2L518.02,110.05L518.03,110.12L518.38,111L518.54,105.19L518.76,109.74L518.77,109.59L519.06,110.93L519.22,105.14L519.52,105.65L519.53,105.63L519.9,105.15L520.43,110.89L520.46,110.31L520.47,110.32L520.59,105.15L521.12,110.82L521.22,107.07L521.23,106.95L521.28,105.18L521.8,110.76L521.98,105.85L521.99,105.88L522.48,110.73L522.64,105.2L522.74,108.07L522.75,108.16L523.18,110.71L523.32,105.26L523.5,110.27L523.51,110.32L523.87,110.75L523.99,105.63L523.99,105.46L524.01,105.23L524.21,110.62L524.49,109.1L524.49,109.28L524.56,110.85L524.69,105.43L525.26,110.29L525.27,110.22L525.37,105.51L525.59,110.8L526.02,106.72L526.03,106.48L526.27,110.91L526.78,105.47L526.78,105.51L526.79,105.57L526.96,110.96L527.46,105.48L527.54,107.65L527.55,107.71L527.65,110.98L528.14,105.46L528.3,110.35L528.31,110.43L528.33,111.04L528.84,105.42L529.06,108.48L529.07,108.33L529.51,105.4L529.69,110.93L529.82,106.05L529.83,106L530.02,110.63L530.14,106.48L530.14,106.37L530.19,105.24L530.38,111.04L530.74,110.5L530.75,110.45L530.88,105.34L531.06,111L531.36,109.93L531.37,110.08L531.56,105.3L531.75,111L532.12,110.58L532.13,110.54L532.24,105.34L532.44,110.95L532.78,110.46L532.79,110.52L532.92,105.4L533.07,109.34L533.08,109.43L533.61,105.42L533.8,111.04L533.83,110.01L533.84,109.9L534.29,105.55L534.48,110.98L534.59,106.77L534.6,106.64L534.98,105.57L535.17,110.9L535.35,106.23L535.36,106.21L535.69,105.57L536.22,111L536.24,110.23L536.24,110.1L536.38,105.5L536.54,110.96L536.88,110.54L536.89,110.73L537.05,105.46L537.22,110.91L537.38,106.2L537.39,106.16L537.58,110.89L537.67,107.21L537.67,107.02L537.74,105.46L538.27,110.83L538.45,105.85L538.45,105.92L538.95,110.85L539.06,106.66L539.06,106.51L539.11,105.39L539.28,110.81L539.81,105.8L539.82,105.9L540.32,110.66L540.44,106.14L540.45,106.03L540.47,105.4L541.02,110.63L541.2,106.3L541.21,106.35L541.71,110.77L541.85,105.31L541.96,108.36L541.97,108.55L542.39,110.76L542.53,105.47L542.72,110.69L542.73,110.64L543.21,105.52L543.4,110.76L543.48,107.84L543.49,107.79L543.76,110.83L543.9,105.52L544.24,106.6L544.25,106.52L544.44,110.82L544.59,105.48L544.76,110.54L544.76,110.63L545.13,110.81L545.27,105.53L545.4,108.69L545.4,108.85L545.81,110.79L545.95,105.47L546.15,110.49L546.16,110.35L546.49,110.86L546.64,105.52L546.91,107.56L546.92,107.46L547.18,110.82L547.32,105.51L547.67,106.3L547.68,106.22L547.86,110.77L547.96,107.34L547.96,107.22L548,105.6L548.55,110.73L548.71,106.03L548.72,105.96L549.24,110.75L549.37,105.74L549.47,106.94L549.48,107.04L549.92,110.67L550.06,105.76L550.23,110.5L550.24,110.45L550.46,106.22L550.55,109.07L550.55,109.14L550.61,110.72L550.79,105.84L551.09,106.38L551.1,106.38L551.14,106.2L551.24,109.39L551.25,109.47L551.29,110.75L551.49,105.82L552,110.25L552.01,110.19L552.17,105.78L552.66,110.67L552.76,106.69L552.77,106.53L552.85,105.74L553.01,110.67L553.52,105.78L553.53,105.79L553.69,110.73L554.12,107.59L554.12,107.39L554.2,105.8L554.37,110.69L554.87,105.86L554.88,105.84L554.98,107.96L554.98,108.14L555.06,110.72L555.58,105.82L555.73,110.67L555.74,110.65L556.3,105.72L556.4,110.03L556.4,110.11L556.42,110.74L556.98,105.71L557.15,109.39L557.16,109.28L557.66,105.61L557.79,110.73L557.91,107.29L557.92,107.24L558.35,105.55L558.47,110.62L558.67,106.26L558.68,106.28L558.86,110.65L559.03,105.53L559.36,106.29L559.37,106.34L559.54,110.64L559.71,105.4L560.05,106.46L560.06,106.42L560.22,110.7L560.36,106.15L560.36,106.09L560.39,105.46L560.89,110.67L560.9,110.67L561.08,105.38L561.51,108.8L561.52,108.97L561.58,110.75L561.76,105.42L562.27,110.61L562.28,110.56L562.45,105.45L562.95,110.67L563.03,107.47L563.04,107.35L563.12,105.46L563.63,110.64L563.79,105.69L563.8,105.63L563.81,105.44L563.96,110.49L564.3,110.39L564.31,110.44L564.32,110.61L564.48,105.57L564.83,106.6L564.84,106.59L565,110.5L565.18,105.55L565.33,110.39L565.34,110.41L565.7,110.47L565.86,105.61L566.25,106.22L566.25,106.33L566.39,110.49L566.56,105.68L566.9,106.44L566.9,106.3L567.07,110.57L567.25,105.67L567.38,110.32L567.38,110.41L567.76,110.59L567.94,105.61L568.02,108.81L568.02,109.09L568.45,110.64L568.62,105.61L568.62,105.67L568.63,105.65L569.13,110.68L569.29,105.66L569.3,105.65L569.81,110.73L569.9,107.39L569.91,107.25L569.98,105.59L570.49,110.73L570.66,105.7L570.67,105.68L570.79,110.03L570.79,109.98L570.79,110.11L570.82,110.31L571.01,106.17L571.01,106.21L571.02,106.14L571.18,110.71L571.36,105.63L571.67,106.72L571.67,106.63L571.86,110.69L572.05,105.61L572.42,106.49L572.43,106.53L572.54,110.63L572.73,105.53L573.26,109.93L573.26,109.84L573.91,110.5L574.1,105.5L574.13,105.89L574.14,105.96L574.6,110.46L574.8,105.55L574.89,109.59L574.9,109.71L575.28,110.48L575.48,105.5L575.65,109.89L575.66,109.8L575.96,110.36L576.16,105.46L576.53,106.48L576.53,106.6L576.66,110.32L576.85,105.47L577.16,106.64L577.17,106.68L577.34,110.39L577.53,105.47L577.92,106.92L577.93,107L578.02,110.35L578.21,105.43L578.54,106.31L578.55,106.3L578.71,110.23L578.85,106.63L578.85,106.52L578.89,105.5L579.06,110.22L579.37,109.99L579.38,110.02L579.58,105.5L579.75,110.26L579.9,106.6L579.9,106.52L580.08,110.27L580.28,105.57L580.65,106.51L580.65,106.6L580.96,105.57L581.11,110.31L581.24,107.47L581.25,107.38L581.64,105.57L581.79,110.23L582,106.58L582.01,106.53L582.14,110.08L582.31,105.68L582.32,105.73L582.32,105.69L582.35,105.5L582.47,110.2L582.48,110.18L583.02,105.45L583.39,106.45L583.4,106.44L583.71,105.34L583.84,110.15L584.15,109.2L584.16,109.33L584.39,105.4L584.53,110.1L584.91,109.68L584.92,109.64L585.08,105.34L585.2,109.97L585.55,109.74L585.55,109.78L585.76,105.27L585.92,110.15L586.1,106.45L586.11,106.38L586.27,110.07L586.38,106.87L586.38,106.72L586.44,105.23L586.6,110.12L586.9,109.3L586.91,109.47L587.13,105.3L587.28,110.08L587.49,106.5L587.49,106.45L587.63,109.98L587.76,106.86L587.76,106.83L587.81,105.29L587.97,110.07L588.28,109.55L588.29,109.63L588.49,105.28L588.64,110.12L589.04,109.41L589.05,109.46L589.18,105.31L589.33,110.13L589.73,109.45L589.73,109.53L589.86,105.43L590.02,110.11L590.39,109.64L590.4,109.63L590.54,105.5L590.7,110.11L591.01,108.93L591.01,109.07L591.23,105.53L591.38,110.22L591.76,109.7L591.77,109.73L591.92,105.49L592.07,110.16L592.42,109.62L592.43,109.75L592.57,106.32L592.57,106.24L592.61,105.53L592.75,110.08L593.32,106.04L593.33,106.17L593.43,110.01L593.98,105.53L594.08,109.16L594.09,109.27L594.13,109.99L594.66,105.48L594.84,109.58L594.85,109.6L595.18,109.94L595.35,105.53L595.73,106.44L595.74,106.46L595.86,109.92L596.03,105.47L596.49,108.94L596.5,108.95L596.54,109.93L596.72,105.49L597.25,109.49L597.26,109.39L597.4,105.48L597.55,109.9L597.91,109.81L597.92,109.86L598.08,105.61L598.23,109.87L598.67,108.59L598.68,108.55L598.77,105.57L598.92,109.93L599.43,105.87L599.44,105.81L599.46,105.61L599.6,109.87L599.95,109.61L599.95,109.71L600,109.41" style="vector-effect: non-scaling-stroke; fill: none; stroke: rgb(192, 192, 192); stroke-opacity: 1; stroke-width: 0.5px; opacity: 1;"/></g><g class="points"/><g class="text"/></g><g class="trace scatter trace761a55" style="stroke-miterlimit: 2; opacity: 1;"><g class="fills"/><g class="errorbars"/><g class="lines"><path class="js-line" d="M0,84.71L0.75,78.91L0.76,78.9L2.99,61.9L2.99,61.83L3.73,48.45L4.1,52.21L4.11,52.26L4.86,71.97L4.87,72L5.04,72.95L5.44,69.35L5.45,69.33L5.9,70.46L6.27,67.87L6.33,68.18L6.34,68.2L6.65,71.17L7.09,68.27L7.1,68.28L8.66,76.98L8.76,76.63L8.77,76.61L9.74,71.04L9.96,73.1L9.96,73.14L10.69,77.19L10.86,75.9L10.87,75.86L11.77,71.58L11.83,71.84L11.84,71.86L12.85,77.66L12.93,77.16L12.94,77.13L13.87,71.46L13.97,72.19L13.98,72.23L14.94,79.24L15.04,78.54L15.05,78.5L15.93,75.16L15.97,75.27L15.98,75.28L17,83.07L17.15,81.52L17.15,81.47L18.01,76.57L18.14,77.56L18.14,77.6L19.07,84.08L19.18,83.11L19.19,83.07L19.47,79.7L20.1,80.08L20.11,80.09L20.47,83.9L20.74,81.62L20.75,81.61L20.97,83.13L20.97,83.17L21.1,84.08L21.48,79.59L21.49,79.58L21.8,81.71L21.96,80.33L21.97,80.29L22.15,78.89L22.51,83.19L22.56,83.04L22.57,83.02L22.84,80.62L23.15,83.61L23.15,83.61L23.15,83.62L23.39,81.01L23.39,80.97L23.85,82.1L24.22,78.76L24.25,78.89L24.26,78.91L25.24,82.98L25.3,82.69L25.31,82.67L25.61,79.63L25.93,82.89L26.14,81.28L26.15,81.26L26.24,80.86L26.54,84.09L26.55,84.11L26.62,84.37L26.93,81.13L26.93,81.12L27.15,82.63L27.16,82.66L27.63,80.89L27.99,83.96L27.99,83.96L28,83.96L28.32,81.67L28.51,83.69L28.51,83.74L28.68,85.41L29.03,82.54L29.32,84.87L29.33,84.88L29.61,82.34L29.61,82.32L29.71,81.96L29.94,84.42L29.94,84.46L30.39,82.79L30.74,85.35L30.74,85.35L30.75,85.34L31.09,82.78L31.31,84.85L31.31,84.88L31.76,83.11L32.11,85.71L32.14,85.61L32.15,85.6L32.46,83.12L32.77,86.02L32.78,86.03L33.09,83.86L33.09,83.85L33.32,85.2L33.33,85.23L33.47,86.12L33.83,83.14L34.07,85.18L34.08,85.21L34.49,83.33L34.86,86.2L34.93,85.96L34.93,85.94L35.89,83.48L35.94,83.62L35.94,83.63L36.23,85.74L36.53,83.52L36.54,83.51L36.78,85.04L36.79,85.07L37.26,83.48L37.58,85.75L37.59,85.75L37.96,83.82L38.12,85L38.13,85.03L38.62,84.04L38.97,86.59L38.97,86.59L38.98,86.59L39.34,84.57L39.53,85.96L39.54,85.99L40.01,84.47L40.35,86.59L40.36,86.58L40.36,86.57L40.7,84.67L40.9,86.33L40.91,86.36L41.04,87.15L41.39,84.84L41.7,87.01L41.71,87.01L42.07,84.68L42.26,86.15L42.26,86.18L42.74,85.11L43.1,87.61L43.1,87.6L43.11,87.6L43.45,85.16L43.69,87.03L43.7,87.05L43.78,87.33L44.12,84.86L44.18,85.01L44.19,85.03L45.18,87.73L45.21,87.63L45.22,87.62L46.2,85.12L46.24,85.25L46.25,85.26L47.24,88.34L47.31,88.03L47.32,88.01L47.91,88.39L48.28,86.07L48.29,86.1L48.3,86.11L48.61,88.09L48.96,86.14L48.97,86.15L49.31,88.79L49.63,86.77L49.64,86.77L49.98,88.88L50.19,87.39L50.2,87.37L50.66,89.02L51.01,86.84L51.01,86.84L51.02,86.84L51.37,89.14L51.61,87.5L51.61,87.48L51.69,87.23L51.98,89.38L51.99,89.4L52.05,89.54L52.25,88.12L52.25,88.09L52.71,89.54L53.07,87.19L53.1,87.25L53.11,87.25L53.43,89.42L53.76,87.38L53.77,87.39L54.12,89.78L54.37,87.96L54.37,87.94L54.44,87.74L54.7,89.58L54.7,89.6L55.11,87.7L55.49,90.05L55.5,90.02L55.51,90.02L55.82,88.08L56.11,90.34L56.11,90.36L56.17,90.51L56.39,88.85L56.4,88.83L56.84,90.49L57.2,88.26L57.22,88.3L57.23,88.31L57.54,90.31L57.85,88.26L57.86,88.25L58.24,90.56L58.43,89.26L58.43,89.23L58.91,90.54L59.26,88.58L59.26,88.58L59.27,88.58L59.61,90.71L59.88,88.94L59.88,88.93L59.95,88.77L60.21,90.6L60.22,90.62L60.3,90.86L60.62,88.97L60.65,88.99L60.66,89L60.98,90.97L61.24,89.18L61.25,89.17L61.32,88.96L61.65,90.9L61.66,90.9L61.67,90.9L62.01,89.04L62.24,90.6L62.24,90.63L62.68,89.34L63.04,91.2L63.06,91.16L63.07,91.15L63.39,89.27L63.72,91.17L63.73,91.17L64.07,89.37L64.28,90.76L64.29,90.78L64.74,89.75L65.1,91.56L65.12,91.51L65.13,91.5L65.45,89.55L65.82,91.27L65.83,91.27L66.13,89.69L66.45,91.67L66.45,91.68L66.75,90.04L66.75,90.03L66.83,89.86L67.09,91.37L67.09,91.39L67.5,89.91L67.87,91.68L67.9,91.62L67.9,91.61L68.19,90.05L68.48,91.76L68.48,91.77L68.74,90.81L68.74,90.79L68.9,90.15L69.22,91.84L69.56,90.27L69.57,90.27L69.92,92.04L70.15,90.75L70.16,90.73L70.26,90.41L70.6,92.13L70.94,90.52L70.95,90.52L71.3,92.18L71.54,90.91L71.54,90.89L71.64,90.65L71.94,92.27L71.94,92.28L72.24,91.12L72.24,91.11L72.33,90.97L72.56,92.26L72.56,92.28L72.99,91.1L73.36,92.61L73.38,92.58L73.39,92.57L73.69,91.14L74,92.73L74.01,92.74L74.38,91.35L74.57,92.26L74.57,92.28L75.06,91.46L75.43,92.97L75.44,92.95L75.45,92.94L75.76,91.53L76.07,93.1L76.07,93.11L76.47,91.86L76.63,92.68L76.63,92.7L77.11,92.01L77.49,93.51L77.49,93.5L77.5,93.5L77.82,92.12L78.1,93.52L78.1,93.54L78.17,93.69L78.43,92.42L78.43,92.41L78.72,93.28L78.72,93.3L79.17,92.36L79.55,93.93L79.58,93.87L79.59,93.86L79.88,92.63L80.21,94.16L80.21,94.16L80.22,94.16L80.56,92.79L80.79,93.93L80.8,93.94L81.24,92.84L81.59,94.27L81.59,94.27L81.6,94.27L81.94,92.95L82.18,94.18L82.18,94.19L82.59,93.18L82.98,94.74L83.02,94.62L83.03,94.61L83.99,93.34L84,93.36L84.01,93.36L84.34,94.89L84.64,93.53L84.65,93.53L85.04,95L85.22,94.1L85.23,94.08L85.69,95.11L86.04,93.77L86.04,93.77L86.05,93.77L86.41,95.22L86.64,94.1L86.65,94.09L86.73,93.93L87.01,95.2L87.01,95.21L87.08,95.35L87.35,94.1L87.35,94.09L87.65,94.97L87.65,94.99L88.08,94.03L88.47,95.45L88.49,95.41L88.5,95.4L88.8,94.19L89.16,95.53L89.17,95.53L89.48,94.26L89.83,95.65L89.84,95.65L90.17,94.45L90.42,95.62L90.43,95.64L90.82,94.59L91.2,95.91L91.25,95.81L91.25,95.8L92.23,94.71L92.23,94.71L92.24,94.71L92.58,96L92.86,94.84L92.86,94.83L93.18,95.9L93.18,95.91L93.57,94.95L93.95,96.2L94.01,96.05L94.02,96.04L94.3,94.99L94.62,96.25L94.94,95.15L94.95,95.15L95.32,96.43L95.54,95.52L95.55,95.51L95.98,96.45L96.36,95.29L96.37,95.31L96.38,95.31L97.39,96.6L97.44,96.5L97.44,96.49L98.04,96.69L98.42,95.57L98.42,95.57L98.42,95.58L98.76,96.72L99.04,95.7L99.05,95.69L99.46,96.82L99.64,96.04L99.65,96.03L100.1,96.79L100.46,95.77L100.46,95.77L100.47,95.77L100.82,96.83L101.09,95.9L101.1,95.9L101.54,96.93L101.71,96.23L101.71,96.21L102.16,96.95L102.54,96.03L102.55,96.04L102.55,96.05L102.88,97.07L103.22,96.16L103.23,96.17L103.57,97.17L103.88,96.22L103.89,96.22L104.25,97.23L104.52,96.38L104.53,96.37L104.99,97.26L105.16,96.61L105.16,96.6L105.28,96.43L105.6,97.39L105.64,97.37L105.65,97.37L105.97,96.52L106.31,97.49L106.32,97.49L106.65,96.7L106.95,97.64L106.96,97.64L107.36,96.75L107.6,97.55L107.61,97.56L108.09,96.88L108.24,97.49L108.24,97.5L108.69,96.89L109.05,97.78L109.09,97.72L109.1,97.71L110.08,97L110.08,97L110.09,97.01L110.43,97.94L110.78,97.15L110.79,97.15L111.8,98.1L111.85,98.02L111.86,98.01L112.47,98.2L112.79,97.39L112.79,97.39L112.8,97.39L113.2,98.22L113.44,97.48L113.45,97.48L113.92,98.22L114.11,97.61L114.11,97.6L114.48,98.31L114.48,98.32L114.48,98.33L114.96,97.71L115.14,98.33L115.15,98.34L115.85,98.46L115.85,98.46L115.85,98.47L116.31,97.78L116.52,98.44L116.53,98.45L117.05,98L117.21,98.53L117.21,98.54L118.56,98.55L118.56,98.56L118.56,98.57L118.92,98.06L119.37,98.71L119.5,98.34L119.51,98.33L120,98.71L120.36,98.05L120.36,98.05L120.37,98.04L121.41,98.82L121.51,98.61L121.52,98.61L122.08,98.98L122.4,98.32L122.4,98.32L122.41,98.31L123.48,99.07L123.59,98.8L123.6,98.79L124.13,99.2L124.43,98.56L124.43,98.56L124.44,98.56L124.87,99.27L125.13,98.62L125.13,98.61L125.56,99.28L125.82,98.64L125.82,98.63L126.25,99.25L126.5,98.62L126.5,98.61L127.66,99.24L127.81,98.84L127.82,98.84L128.2,99.31L128.65,98.67L128.77,98.95L128.77,98.96L129.28,98.61L129.64,99.26L129.68,99.21L129.69,99.21L130.68,98.75L130.68,98.75L130.69,98.75L131.71,99.49L131.8,99.33L131.8,99.32L132.35,99.56L132.72,99L132.72,99L132.73,99L133.76,99.75L133.87,99.55L133.87,99.54L134.41,99.84L134.78,99.29L134.78,99.29L134.79,99.29L135.82,99.94L135.9,99.8L135.91,99.79L136.86,99.39L136.86,99.39L136.87,99.39L137.88,100.05L137.95,99.93L137.96,99.92L138.92,99.49L138.94,99.51L138.95,99.52L139.94,100.11L139.99,100.03L140,100.03L140.96,99.66L140.96,99.66L140.97,99.66L141.99,100.23L142.07,100.11L142.08,100.1L143.02,99.69L143.05,99.72L143.06,99.72L144.06,100.36L144.12,100.27L144.13,100.27L145.09,99.91L145.09,99.91L145.1,99.91L146.13,100.51L146.2,100.39L146.2,100.38L147.16,100L147.2,100.05L147.21,100.06L148.16,100.59L148.21,100.53L148.22,100.52L149.2,100.14L149.22,100.16L149.23,100.16L150.22,100.67L150.26,100.62L150.27,100.61L151.25,100.22L151.28,100.25L151.29,100.25L152.28,100.72L152.32,100.68L152.33,100.67L153.33,100.28L153.38,100.35L153.39,100.35L154.34,100.81L154.38,100.77L154.39,100.76L155.39,100.34L155.45,100.42L155.45,100.43L156.43,100.91L156.47,100.84L156.48,100.83L157.45,100.43L157.49,100.47L157.49,100.48L158.47,100.98L158.52,100.92L158.52,100.91L159.52,100.45L159.57,100.53L159.58,100.53L160.52,101L160.57,100.95L160.58,100.94L161.58,100.59L161.61,100.64L161.62,100.65L162.59,101.2L162.66,101.11L162.67,101.1L163.62,100.89L163.64,100.92L163.65,100.92L164.65,101.46L164.71,101.4L164.71,101.39L165.69,101.03L165.74,101.11L165.75,101.11L166.69,101.51L166.74,101.46L166.75,101.45L167.74,101.04L167.79,101.1L167.79,101.11L168.76,101.5L168.79,101.46L168.8,101.46L169.78,101.07L169.81,101.1L169.82,101.1L170.83,101.62L170.9,101.54L170.9,101.53L171.86,101.22L171.9,101.27L171.91,101.28L172.87,101.69L172.92,101.64L172.93,101.64L173.93,101.3L173.97,101.34L173.97,101.35L174.95,101.72L175.02,101.65L175.03,101.64L175.98,101.35L176.04,101.42L176.05,101.42L177.01,101.73L177.07,101.66L177.08,101.66L178.03,101.39L178.08,101.44L178.09,101.45L179.05,101.77L179.11,101.7L179.12,101.7L180.09,101.44L180.12,101.48L180.13,101.48L181.12,101.86L181.18,101.79L181.19,101.79L182.17,101.54L182.19,101.57L182.2,101.57L183.18,101.99L183.26,101.9L183.26,101.89L184.22,101.54L184.29,101.61L184.29,101.62L185.26,101.89L185.3,101.85L185.3,101.84L186.31,101.59L186.34,101.63L186.35,101.63L187.32,101.92L187.36,101.87L187.37,101.87L188.34,101.61L188.38,101.65L188.39,101.65L189.38,102.05L189.45,101.97L189.46,101.96L190.39,101.75L190.43,101.79L190.44,101.79L191.45,102.19L191.51,102.12L191.52,102.12L192.48,101.95L192.49,101.96L192.49,101.97L193.51,102.33L193.58,102.23L193.59,102.23L194.52,101.94L194.55,101.97L194.56,101.97L195.57,102.31L195.64,102.22L195.65,102.21L196.6,102.03L196.62,102.05L196.63,102.06L197.66,102.36L197.71,102.29L197.72,102.28L198.65,102.11L198.68,102.14L198.69,102.15L199.68,102.52L199.76,102.42L199.77,102.41L200.73,102.21L200.74,102.23L200.75,102.23L201.75,102.48L201.79,102.43L201.8,102.43L202.8,102.23L202.8,102.23L202.8,102.24L203.8,102.59L203.91,102.45L203.91,102.44L204.84,102.31L204.85,102.32L204.86,102.33L205.88,102.7L205.95,102.62L205.95,102.61L206.95,102.41L206.97,102.44L206.98,102.45L207.94,102.69L207.97,102.65L207.98,102.65L208.98,102.37L209.01,102.4L209.02,102.41L209.99,102.67L210.07,102.59L210.07,102.58L211.04,102.35L211.07,102.38L211.08,102.38L212.05,102.7L212.11,102.64L212.12,102.63L213.1,102.41L213.12,102.43L213.13,102.44L214.12,102.75L214.18,102.67L214.19,102.67L215.17,102.42L215.19,102.45L215.2,102.45L216.19,102.78L216.24,102.72L216.25,102.72L217.24,102.52L217.24,102.53L217.25,102.53L218.26,102.88L218.34,102.77L218.35,102.76L219.32,102.64L219.36,102.7L219.37,102.71L220.3,102.92L220.34,102.87L220.35,102.87L221.37,102.64L221.37,102.65L222.37,102.99L222.44,102.89L222.45,102.89L223.4,102.68L223.44,102.71L223.44,102.72L224.42,103.08L224.51,102.98L224.51,102.97L225.48,102.82L225.52,102.86L225.52,102.87L226.48,103.08L226.51,103.05L226.51,103.04L227.52,102.79L227.58,102.85L227.58,102.86L228.53,103.16L228.59,103.08L228.6,103.08L229.6,102.9L229.61,102.92L229.62,102.92L230.58,103.2L230.63,103.15L230.64,103.14L231.65,102.92L231.67,102.95L231.68,102.95L232.64,103.26L232.72,103.16L232.73,103.16L233.71,102.89L233.77,102.96L233.77,102.97L234.72,103.24L234.77,103.17L234.78,103.17L235.78,102.94L235.83,103L235.84,103.01L236.78,103.22L236.82,103.18L236.82,103.17L237.82,102.95L237.9,103.04L237.9,103.05L238.83,103.3L238.89,103.23L238.89,103.22L239.86,103L239.92,103.07L239.93,103.08L240.87,103.39L240.94,103.31L240.95,103.31L241.94,103.11L241.98,103.16L241.99,103.17L242.95,103.42L242.99,103.38L243,103.38L244.01,103.13L244.09,103.23L244.1,103.24L245.03,103.42L245.09,103.36L245.09,103.35L246.08,103.19L246.18,103.31L246.19,103.32L247.19,103.34L247.23,103.3L247.23,103.29L248.33,103.39L248.33,103.39L248.34,103.4L252.47,103.41L252.47,103.42L252.48,103.42L255.13,103.37L255.13,103.37L255.14,103.38L256.82,103.39L256.82,103.39L256.82,103.38L257.98,103.54L257.98,103.55L262.06,103.63L262.06,103.64L265.82,103.63L265.82,103.63L265.83,103.62L269.72,103.85L269.72,103.86L271.78,103.9L271.78,103.91L275.09,103.93L275.09,103.93L275.09,103.94L276.69,104.05L276.69,104.04L277.95,104.12L277.95,104.12L277.95,104.13L281.98,104.22L281.98,104.22L281.98,104.23L283.18,104.15L283.18,104.15L283.19,104.15L285,104.44L285,104.44L285.01,104.44L286.04,104.41L286.07,104.44L286.07,104.45L287.1,104.53L287.15,104.48L287.16,104.47L288.8,104.57L288.8,104.58L288.81,104.58L289.91,104.67L289.93,104.65L289.94,104.65L292.29,104.79L292.29,104.79L292.29,104.8L293.4,104.71L293.4,104.71L293.41,104.71L305.06,104.92L305.06,104.92L305.07,104.91L308.26,105.24L308.26,105.24L308.27,105.24L309.58,105.26L309.58,105.27L309.59,105.27L312.19,105.23L312.19,105.23L312.19,105.24L313.33,105.22L313.33,105.22L313.34,105.22L328.44,105.66L328.44,105.66L328.45,105.66L352.08,106.41L352.08,106.42L366.93,106.66L366.93,106.66L366.93,106.65L372.07,106.72L372.07,106.72L372.08,106.72L377.83,106.74L377.83,106.74L377.84,106.73L380.84,106.7L380.84,106.7L380.85,106.7L383.89,106.75L383.89,106.75L383.9,106.75L387.15,106.64L387.15,106.65L389.83,106.6L389.83,106.6L389.84,106.6L391.97,106.65L391.97,106.65L391.98,106.65L394.96,106.67L394.96,106.67L394.97,106.66L397.48,106.61L397.48,106.61L397.49,106.61L399.84,106.61L399.84,106.61L399.84,106.6L402.93,106.55L402.93,106.55L402.94,106.55L405.58,106.48L405.58,106.48L405.59,106.48L415.19,106.39L415.19,106.39L415.2,106.39L443.91,105.68L443.91,105.67L458.78,105.43L458.78,105.43L458.79,105.43L462.11,105.3L462.11,105.3L462.12,105.3L466.66,105.15L466.66,105.15L466.67,105.15L474.91,104.98L474.91,104.97L482.96,104.78L482.96,104.78L482.96,104.77L487.41,104.63L487.41,104.63L487.41,104.64L492.01,104.5L492.01,104.5L492.01,104.49L513.17,103.77L513.17,103.76L563.5,100.06L563.5,100.06L563.5,100.05L584.75,95.48L584.75,95.47L593.17,91.18L593.17,91.18L593.17,91.17L595.67,89.09L595.67,89.08L599.91,83.24L600,83.98L600,84.69" style="vector-effect: non-scaling-stroke; fill: none; stroke: rgb(255, 0, 0); stroke-opacity: 1; stroke-width: 1px; opacity: 1;"/></g><g class="points"/><g class="text"/></g><g class="trace scatter trace85ddbb" style="stroke-miterlimit: 2; opacity: 1;"><g class="fills"/><g class="errorbars"/><g class="lines"><path class="js-line" d="M0,108.8L0.51,109.23L0.82,108.78L0.83,108.77L1.81,104.59L1.81,104.57L3.55,91.23L3.55,91.21L5.79,77.92L5.89,78.15L5.9,78.14L6.3,77.19L6.79,77.82L6.79,77.83L7.2,79.22L7.2,79.26L7.93,81.89L8.18,81.33L8.19,81.3L9.03,79.54L9.22,79.88L9.23,79.89L10.03,80.9L10.03,80.89L10.04,80.88L10.15,81.02L10.39,80.17L10.39,80.14L10.53,80.32L11.1,79.42L11.19,79.72L11.2,79.72L11.96,78.44L12.18,78.64L12.19,78.65L13.15,77.29L13.16,77.3L13.16,77.32L13.95,78.24L13.96,78.1L13.97,78.08L14.1,78.36L14.51,77.8L14.7,78.14L14.71,78.16L15.52,79.12L15.53,79.12L17.86,81.57L17.91,81.26L17.91,81.23L19.07,82.11L19.13,82.03L19.14,82.03L19.3,81.94L19.91,82.52L19.97,82.13L19.98,82.12L20.78,82.38L20.81,82.27L20.82,82.25L20.85,82.1L21.44,82.66L21.56,82.37L21.56,82.38L21.69,82.69L22.22,81.97L22.23,81.98L22.24,81.99L22.32,82.21L22.89,81.51L22.9,81.5L23.52,82.04L23.75,81.81L23.76,81.79L24.29,81.34L24.55,81.5L24.56,81.5L26.25,82.27L26.32,81.77L26.32,81.76L27.44,82.83L27.47,82.62L27.48,82.61L28.3,83.38L28.38,82.89L28.39,82.89L29.22,83.65L29.32,83.59L29.33,83.59L30.36,84.11L30.4,83.87L30.4,83.85L30.44,83.7L30.81,84.35L31.03,84.38L31.04,84.38L31.13,83.95L31.49,84.52L31.83,84.15L31.83,84.17L32.63,84.57L32.65,84.51L32.66,84.5L33.61,84.84L33.71,84.67L33.72,84.67L33.86,84.38L34.46,84.81L34.5,84.65L34.5,84.62L34.96,84.84L35.23,84.36L35.26,84.5L35.27,84.51L36.21,84.82L36.24,84.71L36.25,84.71L36.59,84.5L37.02,84.99L37.07,84.78L37.08,84.78L37.27,84.6L38.38,85.37L38.41,85.26L38.41,85.25L38.57,85.34L38.65,85.03L39.19,85.35L39.2,85.35L39.32,85.29L39.95,85.85L40.01,85.58L40.01,85.57L40.84,86.13L40.9,86.01L40.91,86.01L41.76,86.37L41.77,86.34L41.78,86.34L42.6,86.28L42.63,86.36L42.64,86.37L42.74,86.19L43.37,86.62L43.41,86.36L43.41,86.34L44.74,86.94L44.77,86.73L44.78,86.71L46.79,87.47L46.84,87.23L46.84,87.22L48.65,88.23L48.68,88.16L48.68,88.15L53.64,89.78L53.68,89.57L53.68,89.56L55.7,90.29L55.75,90.09L55.76,90.09L57.06,90.66L57.11,90.47L57.11,90.46L59.11,91.07L59.14,90.95L59.14,90.94L60.07,91.06L60.11,91.22L60.12,91.22L61.75,91.62L61.75,91.62L61.76,91.61L62.93,91.83L62.93,91.83L62.93,91.84L63.91,92.1L63.97,91.92L63.97,91.91L65.97,92.5L66.01,92.37L66.01,92.36L68.71,93.08L68.75,92.97L68.75,92.96L72.14,94.06L72.17,93.96L72.18,93.95L74.99,94.73L74.99,94.72L76.11,95.14L76.11,95.13L76.12,95.12L78.02,95.67L78.02,95.68L96.21,98.7L96.21,98.69L96.22,98.69L97.24,98.93L97.24,98.93L97.25,98.93L99.32,99.13L99.32,99.13L99.33,99.14L102.09,99.45L102.09,99.46L102.1,99.46L118.82,100.97L118.82,100.97L118.83,100.96L121.43,101.26L121.43,101.26L121.43,101.25L122.76,101.41L122.76,101.42L122.77,101.42L124.34,101.44L124.34,101.45L124.35,101.46L129.15,101.56L129.15,101.56L129.15,101.57L130.92,101.76L130.92,101.76L130.93,101.76L143.24,102.47L143.24,102.47L143.24,102.48L147.41,102.64L147.41,102.64L147.42,102.64L149.27,102.66L149.27,102.67L164.51,103.36L164.51,103.37L167.73,103.26L167.73,103.26L167.73,103.27L176.17,103.45L176.17,103.46L178.89,103.48L178.89,103.48L178.89,103.49L183.7,103.57L183.7,103.57L183.7,103.58L188.3,103.69L188.3,103.69L188.31,103.7L191.23,103.88L191.23,103.88L191.24,103.89L199.97,104.02L199.97,104.03L203.58,104.07L203.58,104.08L254.57,104.75L254.57,104.75L254.58,104.76L257.75,104.89L257.75,104.89L257.76,104.89L276.84,105.42L276.84,105.41L279.05,105.55L279.05,105.55L279.06,105.54L294.85,105.86L294.85,105.86L294.86,105.85L298,105.92L298,105.92L298,105.91L303.13,105.97L303.13,105.97L303.13,105.98L318.03,106.24L318.03,106.23L600,106.86L600,106.86" style="vector-effect: non-scaling-stroke; fill: none; stroke: rgb(0, 0, 255); stroke-opacity: 1; stroke-width: 1px; opacity: 1;"/></g><g class="points"/><g class="text"/></g><g class="trace scatter trace095943" style="stroke-miterlimit: 2; opacity: 1;"><g class="fills"/><g class="errorbars"/><g class="lines"><path class="js-line" d="M0,105.98L1.95,99.56L1.95,99.54L6.28,81.7L6.28,81.7L6.29,81.69L8.04,79.5L8.05,79.5L11.09,78.62L11.09,78.62L11.1,78.62L14.28,78.74L14.28,78.75L17.52,80.61L17.52,80.61L17.52,80.62L21.25,82.04L21.25,82.04L21.26,82.04L28.29,83.03L28.29,83.03L28.29,83.04L35.78,84.82L35.78,84.82L35.79,84.82L43.99,86.66L43.99,86.66L43.99,86.67L50.66,88.76L50.66,88.76L50.66,88.77L83.13,96.76L83.13,96.76L83.14,96.76L97.66,98.91L97.66,98.91L97.67,98.91L120.03,101.14L120.03,101.14L120.04,101.14L156.6,102.85L156.6,102.85L156.61,102.85L176.73,103.44L176.73,103.44L176.74,103.44L216.04,104.19L216.04,104.19L216.04,104.2L260.72,104.95L260.72,104.95L260.72,104.96L283.14,105.71L283.14,105.72L336.8,106.47L336.8,106.47L336.8,106.48L600,106.81L600,106.81" style="vector-effect: non-scaling-stroke; fill: none; stroke: rgb(0, 128, 0); stroke-opacity: 1; stroke-width: 1px; opacity: 1;"/></g><g class="points"/><g class="text"/></g><g class="trace scatter trace5530e5" style="stroke-miterlimit: 2; opacity: 1;"><g class="fills"/><g class="errorbars"/><g class="lines"><path class="js-line" d="M0,109.91L3.06,48.96L3.06,48.91L5.22,18.69L5.23,18.69L6.93,17.91L6.94,17.92L6.95,17.93L9.43,20.33L9.43,20.33L9.43,20.34L10.24,22.21L10.24,22.22L11.28,25.37L11.77,24.47L11.77,24.46L14.37,20.93L14.37,20.93L14.38,20.93L15.74,19.23L15.74,19.22L18.48,11.56L18.48,11.56L18.49,11.55L19.47,10.8L19.58,11.63L19.59,11.65L22.59,33.05L22.6,33.06L23.61,35.52L24.14,34.88L24.15,34.88L25.66,33.09L25.95,33.88L25.96,33.89L27.73,38.59L28.25,38.39L28.26,38.39L29.75,37.82L29.94,38.48L29.94,38.49L32.08,43.62L32.08,43.62L32.09,43.62L33.27,43.48L33.27,43.48L33.27,43.47L34.5,43.72L34.5,43.72L34.5,43.73L35.87,43.91L35.87,43.91L35.87,43.9L37.98,42.96L38.15,43.28L38.15,43.29L40.9,48.05L40.9,48.05L40.91,48.05L41.55,48.83L41.55,48.84L43.43,56.55L43.97,55.71L43.98,55.71L46.17,53.29L46.22,53.47L46.23,53.48L48.01,57.27L48.01,57.27L48.02,57.27L49.51,58.78L49.51,58.79L51.61,65.21L51.61,65.22L52.98,68.28L52.98,68.28L52.99,68.28L54.59,71.15L54.88,70.39L54.89,70.38L55.08,69.89L55.45,70.95L55.46,70.96L56.96,73.11L56.96,73.11L56.97,73.12L58.45,74.42L58.45,74.42L58.46,74.42L59.77,74.67L59.77,74.67L59.78,74.67L61.49,75.19L61.49,75.2L62.7,76.59L62.81,76.41L62.81,76.4L63.99,75.77L64.05,75.88L64.05,75.89L64.67,77.04L65.11,76.35L65.11,76.34L66.33,75.78L66.33,75.78L66.34,75.78L67.84,75.03L67.84,75.03L67.84,75.02L69.22,74.09L69.22,74.09L69.22,74.08L70.02,72.55L70.02,72.54L70.25,71.97L70.83,72.48L70.84,72.48L71.62,73.08L72.01,72.5L72.01,72.49L72.97,71.1L73.33,71.86L73.34,71.87L75.2,74.31L75.2,74.31L75.21,74.31L76.29,74.03L76.29,74.03L76.29,74.02L77.37,74.31L77.37,74.32L79.54,75.16L79.54,75.16L79.55,75.17L80.5,76.64L80.97,76.34L80.98,76.34L82.1,76.51L82.1,76.52L82.11,76.53L83.24,76.84L83.25,76.83L83.26,76.83L84.31,77.19L84.31,77.2L85.98,80.4L86.52,79.87L86.53,79.87L87.34,78.99L87.64,79.73L87.64,79.74L88.71,80.57L88.77,80.53L88.77,80.52L89.39,80.06L89.7,80.75L89.71,80.76L91.31,82.6L91.31,82.6L91.32,82.6L93.24,83.12L93.24,83.13L94.74,84.48L94.74,84.48L94.75,84.48L102.33,86.27L102.33,86.27L102.34,86.26L104.47,85.16L104.52,85.27L104.53,85.27L105.87,86.79L106.07,86.69L106.08,86.69L107.09,87.01L107.09,87.01L107.09,87.02L107.62,86.37L107.62,86.37L107.62,86.36L107.91,85.91L108.47,86.36L108.47,86.37L110.54,86.77L110.54,86.77L110.55,86.76L111.4,88.36L111.4,88.36L111.41,88.37L112.79,89.69L112.79,89.69L112.8,89.69L115.52,91.07L115.52,91.06L117.33,89.8L117.33,89.81L117.34,89.81L118.15,90.84L118.65,90.29L118.65,90.28L119.52,89.34L119.92,89.99L119.93,90L121.12,90.52L121.12,90.52L121.13,90.52L123.81,92.79L123.81,92.79L123.82,92.8L125,93.49L125.21,93.31L125.22,93.31L130,93.73L130,93.73L130.01,93.74L130.71,94.37L131.06,93.7L131.06,93.69L132.06,93.01L132.19,93.15L132.2,93.16L134.11,94.09L134.14,94.05L134.15,94.05L135.23,93.91L135.23,93.92L135.24,93.92L136.09,93.38L136.09,93.38L136.1,93.37L139.34,93.99L139.34,93.99L139.35,93.99L141.31,94.59L141.31,94.59L141.31,94.6L142.46,95.06L142.46,95.06L142.46,95.07L144.36,95.21L144.36,95.21L144.36,95.2L146.56,95.18L146.56,95.18L146.56,95.17L147.77,94.54L147.78,94.55L147.79,94.55L150.84,95.63L150.84,95.63L150.85,95.63L151.97,96.23L151.97,96.24L153.46,96.68L153.46,96.68L153.46,96.67L157.75,96.29L157.75,96.29L157.76,96.29L159.24,95.75L159.24,95.74L161.27,95.02L161.27,95.02L161.28,95.02L163.06,95.31L163.06,95.32L165.99,96.46L165.99,96.46L166,96.47L167.49,96.52L167.49,96.52L167.49,96.51L169.27,96.1L169.27,96.1L169.27,96.11L171.55,96.67L171.55,96.66L171.56,96.66L173.25,97.19L173.25,97.19L173.26,97.19L175.85,97.67L175.85,97.66L175.86,97.66L178.54,97.35L178.54,97.35L178.55,97.35L183.06,97.49L183.06,97.49L183.07,97.49L184.62,98.03L184.62,98.03L184.62,98.04L185.76,97.87L185.76,97.87L185.77,97.87L186.81,97.05L186.81,97.05L186.81,97.04L188.15,97.09L188.15,97.1L189.48,96.61L189.48,96.61L189.48,96.6L191.51,95.88L191.51,95.88L191.52,95.88L203.14,98.57L203.14,98.57L203.14,98.56L204.83,98.64L204.83,98.64L204.84,98.65L206.8,99.32L206.8,99.32L206.81,99.32L209.29,99.06L209.29,99.06L209.29,99.05L213.21,99.02L213.21,99.03L213.22,99.03L214.79,98.79L214.79,98.79L214.79,98.78L216.47,98.44L216.47,98.44L216.48,98.44L218.78,98.01L218.78,98L222.34,97.74L222.34,97.74L222.35,97.75L228.36,100.13L228.36,100.13L228.37,100.13L234.77,100.44L234.77,100.44L234.77,100.45L236.92,101.27L236.92,101.26L238.35,101.11L238.35,101.11L238.35,101.12L240.28,100.63L240.28,100.63L240.28,100.62L242.93,100L242.93,100L242.94,100L246.93,99.93L246.93,99.93L246.93,99.94L252.18,101.03L252.18,101.03L252.18,101.04L254.46,101.15L254.46,101.15L254.47,101.15L259.54,101.07L259.54,101.07L259.55,101.07L272.41,100.08L272.41,100.08L272.42,100.08L276.67,100.71L276.67,100.71L276.68,100.71L279.33,101.63L279.33,101.64L282.95,101.51L282.95,101.5L285.36,101.62L285.36,101.62L285.37,101.63L286.6,101.41L286.6,101.41L286.61,101.41L288.73,101.59L288.73,101.59L288.74,101.59L293.95,101.99L293.95,101.99L293.95,102L295.95,102L295.95,102L295.96,101.99L297.44,102.17L297.44,102.17L297.44,102.18L299.55,102.1L299.55,102.1L299.56,102.09L301.98,102.37L301.98,102.37L301.98,102.38L307.17,103.01L307.17,103.01L307.18,103.01L309.7,102.9L309.7,102.9L309.71,102.9L313.25,103.26L313.25,103.26L313.26,103.27L314.91,103.26L314.91,103.26L314.92,103.26L318,103.39L318,103.4L318.01,103.4L319.44,103.2L319.44,103.19L335.47,104.18L335.47,104.18L335.47,104.17L340.26,103.91L340.26,103.91L340.27,103.92L347.34,104.6L347.34,104.59L356.67,104L356.67,104L356.68,104L363.12,104.7L363.12,104.69L366.85,104.88L366.85,104.88L366.85,104.89L381.29,104.61L381.29,104.61L381.29,104.6L384.22,104.77L384.22,104.77L384.23,104.78L388.25,105.44L388.25,105.44L388.26,105.44L407.57,104.82L407.57,104.82L407.58,104.83L414.35,104.62L414.35,104.62L414.36,104.62L446.16,104.59L446.16,104.59L446.17,104.58L450.64,104.74L450.64,104.74L450.65,104.74L465.93,104.58L465.93,104.58L465.93,104.57L469.06,104.51L469.06,104.51L469.07,104.51L476.29,104.24L476.29,104.24L476.3,104.24L508.22,104.93L508.22,104.94L512.86,104.98L512.86,104.97L580.01,105.69L580.01,105.69L580.02,105.7L582.98,105.45L582.98,105.45L582.99,105.45L589.36,105.34L589.36,105.34L589.36,105.35L595.87,105.49L595.87,105.48L599.71,105.97L599.71,105.97L599.71,105.98L600,106.39L600,106.39" style="vector-effect: non-scaling-stroke; fill: none; stroke: rgb(0, 0, 0); stroke-opacity: 1; stroke-width: 1px; opacity: 1;"/></g><g class="points"/><g class="text"/></g></g></g><g class="overplot"/><path class="xlines-above crisp" d="M0,0" style="fill: none;"/><path class="ylines-above crisp" d="M0,0" style="fill: none;"/><g class="overlines-above"/><g class="xaxislayer-above"><g class="xtick"><text text-anchor="middle" x="0" y="252.3333" transform="translate(50,0)" style="font-family: 'Latin Modern Roman'; font-size: 13.3333px; fill: rgb(0, 0, 0); fill-opacity: 1; white-space: pre;">0</text></g><g class="xtick"><text text-anchor="middle" x="0" y="252.3333" transform="translate(186.06,0)" style="font-family: 'Latin Modern Roman'; font-size: 13.3333px; fill: rgb(0, 0, 0); fill-opacity: 1; white-space: pre;">50k</text></g><g class="xtick"><text text-anchor="middle" x="0" y="252.3333" transform="translate(322.11,0)" style="font-family: 'Latin Modern Roman'; font-size: 13.3333px; fill: rgb(0, 0, 0); fill-opacity: 1; white-space: pre;">100k</text></g><g class="xtick"><text text-anchor="middle" x="0" y="252.3333" transform="translate(458.17,0)" style="font-family: 'Latin Modern Roman'; font-size: 13.3333px; fill: rgb(0, 0, 0); fill-opacity: 1; white-space: pre;">150k</text></g><g class="xtick"><text text-anchor="middle" x="0" y="252.3333" transform="translate(594.22,0)" style="font-family: 'Latin Modern Roman'; font-size: 13.3333px; fill: rgb(0, 0, 0); fill-opacity: 1; white-space: pre;">200k</text></g></g><g class="yaxislayer-above"><g class="ytick"><text text-anchor="end" x="49" y="4.6666549999999996" transform="translate(0,227.2)" style="font-family: 'Latin Modern Roman'; font-size: 13.3333px; fill: rgb(0, 0, 0); fill-opacity: 1; white-space: pre;">1</text></g><g class="ytick"><text text-anchor="end" x="49" y="4.6666549999999996" transform="translate(0,178.6)" style="font-family: 'Latin Modern Roman'; font-size: 13.3333px; fill: rgb(0, 0, 0); fill-opacity: 1; white-space: pre;">0.5</text></g><g class="ytick"><text text-anchor="end" x="49" y="4.6666549999999996" transform="translate(0,130)" style="font-family: 'Latin Modern Roman'; font-size: 13.3333px; fill: rgb(0, 0, 0); fill-opacity: 1; white-space: pre;">0</text></g><g class="ytick"><text text-anchor="end" x="49" y="4.6666549999999996" transform="translate(0,81.4)" style="font-family: 'Latin Modern Roman'; font-size: 13.3333px; fill: rgb(0, 0, 0); fill-opacity: 1; white-space: pre;">0.5</text></g><g class="ytick"><text text-anchor="end" x="49" y="4.6666549999999996" transform="translate(0,32.8)" style="font-family: 'Latin Modern Roman'; font-size: 13.3333px; fill: rgb(0, 0, 0); fill-opacity: 1; white-space: pre;">1</text></g></g><g class="overaxes-above"/></g></g><g class="polarlayer"/><g class="ternarylayer"/><g class="geolayer"/><g class="funnelarealayer"/><g class="pielayer"/><g class="treemaplayer"/><g class="sunburstlayer"/><g class="glimages"/><defs id="topdefs-4fab97"><g class="clips"/><clipPath id="legend4fab97"><rect width="509" height="31" x="0" y="0"/></clipPath></defs><g class="layer-above"><g class="imagelayer"/><g class="shapelayer"/></g><g class="infolayer"><g class="legend" pointer-events="all" transform="translate(50, 0.3999999999999808)"><rect class="bg" shape-rendering="crispEdges" style="stroke: rgb(68, 68, 68); stroke-opacity: 1; fill: rgb(255, 255, 255); fill-opacity: 1; stroke-width: 0px;" width="509" height="31" x="0" y="0"/><g class="scrollbox" transform="translate(0, 0)" clip-path="url('#legend4fab97')"><g class="groups"><g class="traces" transform="translate(0, 15.166645)" style="opacity: 1;"><text class="legendtext" text-anchor="start" x="40" y="5.199987" style="font-family: 'Latin Modern Roman'; font-size: 13.3333px; fill: rgb(0, 0, 0); fill-opacity: 1; white-space: pre;">Signal</text><g class="layers" style="opacity: 1;"><g class="legendfill"/><g class="legendlines"><path class="js-line" d="M5,0h30" style="fill: none; stroke: rgb(192, 192, 192); stroke-opacity: 1; stroke-width: 0.5px;"/></g><g class="legendsymbols"><g class="legendpoints"/></g></g><rect class="legendtoggle" x="0" y="-10.166645" width="76.875" height="20.33329" style="fill: rgb(0, 0, 0); fill-opacity: 0;"/></g><g class="traces" transform="translate(79.375, 15.166645)" style="opacity: 1;"><text class="legendtext" text-anchor="start" x="40" y="5.199987" style="font-family: 'Latin Modern Roman'; font-size: 13.3333px; fill: rgb(0, 0, 0); fill-opacity: 1; white-space: pre;">Hilbert</text><g class="layers" style="opacity: 1;"><g class="legendfill"/><g class="legendlines"><path class="js-line" d="M5,0h30" style="fill: none; stroke: rgb(255, 0, 0); stroke-opacity: 1; stroke-width: 1px;"/></g><g class="legendsymbols"><g class="legendpoints"/></g></g><rect class="legendtoggle" x="0" y="-10.166645" width="80.5625" height="20.33329" style="fill: rgb(0, 0, 0); fill-opacity: 0;"/></g><g class="traces" transform="translate(162.4375, 15.166645)" style="opacity: 1;"><text class="legendtext" text-anchor="start" x="40" y="5.199987" style="font-family: 'Latin Modern Roman'; font-size: 13.3333px; fill: rgb(0, 0, 0); fill-opacity: 1; white-space: pre;">Smoothing</text><g class="layers" style="opacity: 1;"><g class="legendfill"/><g class="legendlines"><path class="js-line" d="M5,0h30" style="fill: none; stroke: rgb(0, 0, 255); stroke-opacity: 1; stroke-width: 1px;"/></g><g class="legendsymbols"><g class="legendpoints"/></g></g><rect class="legendtoggle" x="0" y="-10.166645" width="101.359375" height="20.33329" style="fill: rgb(0, 0, 0); fill-opacity: 0;"/></g><g class="traces" transform="translate(266.296875, 15.166645)" style="opacity: 1;"><text class="legendtext" text-anchor="start" x="40" y="5.199987" style="font-family: 'Latin Modern Roman'; font-size: 13.3333px; fill: rgb(0, 0, 0); fill-opacity: 1; white-space: pre;">Lowpass Filter</text><g class="layers" style="opacity: 1;"><g class="legendfill"/><g class="legendlines"><path class="js-line" d="M5,0h30" style="fill: none; stroke: rgb(0, 128, 0); stroke-opacity: 1; stroke-width: 1px;"/></g><g class="legendsymbols"><g class="legendpoints"/></g></g><rect class="legendtoggle" x="0" y="-10.166645" width="122.671875" height="20.33329" style="fill: rgb(0, 0, 0); fill-opacity: 0;"/></g><g class="traces" transform="translate(391.46875, 15.166645)" style="opacity: 1;"><text class="legendtext" text-anchor="start" x="40" y="5.199987" style="font-family: 'Latin Modern Roman'; font-size: 13.3333px; fill: rgb(0, 0, 0); fill-opacity: 1; white-space: pre;">Present Work</text><g class="layers" style="opacity: 1;"><g class="legendfill"/><g class="legendlines"><path class="js-line" d="M5,0h30" style="fill: none; stroke: rgb(0, 0, 0); stroke-opacity: 1; stroke-width: 1px;"/></g><g class="legendsymbols"><g class="legendpoints"/></g></g><rect class="legendtoggle" x="0" y="-10.166645" width="114.703125" height="20.33329" style="fill: rgb(0, 0, 0); fill-opacity: 0;"/></g></g></g><rect class="scrollbar" rx="20" ry="3" width="0" height="0" style="fill: rgb(128, 139, 164); fill-opacity: 1;" x="0" y="0"/></g><g class="g-gtitle"/><g class="g-xtitle" transform="translate(0,-2.677059999999983)"><text class="xtitle" x="350" y="279.67706" text-anchor="middle" style="font-family: 'Latin Modern Roman'; font-size: 13.33px; fill: rgb(0, 0, 0); opacity: 1; font-weight: normal; white-space: pre;"><tspan style="font-weight:bold"><tspan style="font-style:italic">i</tspan></tspan></text></g><g class="g-ytitle" transform="translate(11.5205078125,0)"><text class="ytitle" transform="rotate(-90,0.47919000000000267,130)" x="0.47919000000000267" y="130" text-anchor="middle" style="font-family: 'Latin Modern Roman'; font-size: 13.33px; fill: rgb(0, 0, 0); opacity: 1; font-weight: normal; white-space: pre;"><tspan style="font-weight:bold">Amplitude</tspan></text></g></g></svg>