<svg class="main-svg" xmlns="http://www.w3.org/2000/svg" xmlns:xlink="http://www.w3.org/1999/xlink" width="650" height="300" style="" viewBox="0 0 650 300"><rect x="0" y="0" width="650" height="300" style="fill: rgb(255, 255, 255); fill-opacity: 1;"/><defs id="defs-b0c8c6"><g class="clips"><clipPath id="clipb0c8c6xyplot" class="plotclip"><rect width="597" height="235"/></clipPath><clipPath class="axesclip" id="clipb0c8c6x"><rect x="50" y="0" width="597" height="300"/></clipPath><clipPath class="axesclip" id="clipb0c8c6y"><rect x="0" y="23" width="650" height="235"/></clipPath><clipPath class="axesclip" id="clipb0c8c6xy"><rect x="50" y="23" width="597" height="235"/></clipPath></g><g class="gradients"/></defs><g class="bglayer"/><g class="layer-below"><g class="imagelayer"/><g class="shapelayer"/></g><g class="cartesianlayer"><g class="subplot xy"><g class="layer-subplot"><g class="shapelayer"/><g class="imagelayer"/></g><g class="gridlayer"><g class="x"/><g class="y"/></g><g class="zerolinelayer"/><path class="xlines-below"/><path class="ylines-below"/><g class="overlines-below"/><g class="xaxislayer-below"/><g class="yaxislayer-below"/><g class="overaxes-below"/><g class="plot" transform="translate(50, 23)" clip-path="url('#clipb0c8c6xyplot')"><g class="scatterlayer mlayer"><g class="trace scatter trace1019d7" style="stroke-miterlimit: 2; opacity: 1;"><g class="fills"/><g class="errorbars"/><g class="lines"><path class="js-line" d="M0,117.49L3.54,117.63L3.57,117.27L3.58,117.14L3.7,115.92L3.75,120.71L3.78,116.29L3.79,114L4.23,120.3L4.51,117.48L4.53,118.04L4.56,118.81L5.16,114.63L5.22,115.02L5.24,114.37L5.56,118.96L5.8,113.15L5.83,117.34L5.84,121.41L6.14,125.98L6.52,112.1L6.54,110.93L6.58,109.23L6.68,122.39L7.18,118.01L7.2,119.06L7.77,108.05L7.82,123.6L7.85,114.56L7.86,108.65L7.92,127.19L8.6,115.68L8.62,115.36L9.37,120.27L9.44,117.96L9.46,117.9L9.5,119.87L9.78,112.14L10.24,119.67L10.25,119.77L10.34,120.06L10.98,115.19L11.18,116.75L11.2,117.53L11.32,120.05L11.74,116.82L11.93,117.05L11.95,116.94L12.29,114.31L12.64,118.96L12.66,119.09L13.29,105.91L13.38,116.97L13.4,121.32L13.5,143.07L13.91,92.79L14.1,107.65L14.12,103.9L14.16,97.44L14.31,138.65L14.78,126.17L14.8,132.19L15.24,75.88L15.56,146.99L15.58,149.84L15.64,160.43L15.99,83.95L16.21,105.34L16.23,101.91L16.94,160.11L17.11,135.21L17.13,130.54L17.32,66.67L17.72,159.83L17.88,130.53L17.89,131L17.95,138.75L18.34,102.67L18.35,98.05L18.65,86.94L18.82,137.45L18.87,131.38L18.88,132.82L19.05,150.25L19.4,108.89L19.44,110.48L19.46,105.74L19.49,96.31L20.15,137.54L20.17,135.81L20.36,147.04L20.82,84.84L20.95,116.86L20.96,119.29L21.24,154.15L21.49,128.23L21.51,126.92L21.85,83.23L22.16,131.35L22.22,121.88L22.23,126.5L22.36,146.6L22.9,93.28L22.91,90.36L23.01,82.01L23.44,145.8L23.84,128.97L23.85,124.66L24.21,96.59L24.56,128.5L24.58,131.75L24.73,156.89L25.17,73.91L25.21,80.59L25.23,83.4L25.26,83.39L25.55,139.74L25.91,112.2L25.92,111.03L26.14,128.57L26.47,92.76L26.48,87.91L26.5,87.47L26.54,98.73L26.6,96.46L26.61,106.43L26.67,102.16L27.1,176.56L27.41,130.39L27.42,120.52L27.56,52.08L27.99,181.33L28.15,120.23L28.16,124.11L28.4,91.97L28.55,141.65L28.8,103.37L28.81,101.32L28.97,51.06L29.14,127.01L29.15,127.8L29.18,122.6L29.33,185.24L29.39,182.71L29.4,186.5L29.42,187.4L29.45,167.29L29.46,155.01L29.83,41.2L30.18,137.56L30.2,146.05L30.71,88.61L30.88,177.52L30.95,153.7L30.97,153.54L31.32,68.54L31.66,153.31L31.67,155.62L31.75,167.98L31.88,112.38L31.89,105.81L32.16,95.81L32.34,127.73L32.59,113.07L32.6,116.71L32.82,132.92L33.12,97.27L33.13,86.7L33.27,59.97L33.65,134.12L33.84,97.38L33.86,103.21L34,70.06L34.33,218.55L34.59,113.25L34.61,93.66L34.7,24.27L35.13,216.64L35.3,191.92L35.32,192.93L35.75,57.06L36.07,126L36.08,128.95L36.26,147.38L36.56,94.61L36.57,90.93L36.63,72.25L37.16,132.6L37.18,136.48L37.34,75.36L37.85,222.7L37.87,223.24L38.21,25.59L38.62,206.23L38.64,211.37L38.67,217.55L39.08,77.42L39.09,76.28L39.21,53.94L39.4,90.87L39.42,93.89L39.7,152.15L40.1,69.65L40.11,70.91L40.13,71.89L40.16,71.47L40.32,93.68L40.36,92.68L40.38,98.37L40.88,84.98L41.22,223.24L41.25,216.87L41.26,212.56L41.42,136.13L41.44,123.37L41.66,16.05L42.04,217.1L42.1,213.82L42.12,211.01L42.46,82.32L43.06,114.66L43.08,122.6L43.31,160.13L43.7,51.62L43.71,51.95L43.73,54.83L44.74,193.02L44.77,189.03L44.79,191.22L44.83,209.85L45.26,38.37L45.51,172.22L45.53,178.14L45.6,193.79L46.13,95.31L46.15,92.69L46.18,89.69L46.75,119.02L46.77,118.4L46.78,117.46L46.9,136.23L47.28,80.3L47.3,81.39L47.31,81.1L47.37,72.6L47.65,123.14L47.66,126.43L47.99,71.15L48.23,165.05L48.24,176.24L48.43,218.69L48.56,120.24L48.58,110.87L48.79,23.89L49.13,181.5L49.14,184.46L49.24,209.59L49.61,97.64L49.63,95.94L49.88,129.22L50.19,76.99L50.34,92.65L50.35,105.5L50.48,140.62L51.01,67.45L51.09,97.36L51.1,84.82L51.29,136.79L51.59,72.18L51.72,120.63L51.74,134.65L51.96,210.24L52.37,51.02L52.39,43.21L52.4,41L52.65,141.14L52.67,148.42L52.81,188.5L53.2,100.8L53.37,115.79L53.39,117.24L53.4,118.11L53.67,78.56L53.73,83.58L53.74,80.74L53.79,76.16L54.08,132.95L54.1,135.93L54.5,81.95L54.51,77.32L54.63,74.56L54.86,120.74L54.94,102.42L54.95,119.27L55.03,82.26L55.5,214.6L55.69,118.38L55.71,111.35L55.93,35.16L56.32,179.35L56.34,182.37L56.37,187.99L56.65,114.08L56.97,145.83L56.99,144.29L57.36,45.45L57.77,129.86L57.79,130.45L57.83,132.1L57.99,93.06L58.04,96.96L58.05,91.52L58.2,78.05L58.71,104.36L58.73,113.81L59.05,223.25L59.42,85.11L59.44,79.81L59.5,55.07L59.95,156.84L60.1,135.68L60.12,135.48L60.22,123.77L60.41,141.39L60.43,144.55L60.54,156.37L60.87,60.56L60.88,56.84L60.93,48.84L61.28,121.07L61.3,124.79L61.38,130.1L61.75,79.99L61.99,113.52L62,111.54L62.18,116.56L62.24,95.95L62.42,116.18L62.43,118.77L62.73,188.27L63.08,108.36L63.1,104.42L63.17,93.9L63.57,137.54L63.8,120.23L63.82,117.98L64.19,144.91L64.66,72.29L64.73,81.26L64.75,83.04L65.63,109.12L65.65,108.29L65.66,107.68L65.74,112.69L65.78,102.51L65.81,110.61L65.83,120.56L65.88,116.44L66.24,177.35L66.58,121.1L66.59,119.07L66.87,133.99L67.21,110.51L67.23,109.64L67.68,144.97L68.08,85.14L68.1,84.11L68.39,106.02L68.58,94.37L68.6,91.36L68.78,79.03L69.26,112.07L69.28,112.32L69.32,105.21L69.65,142.63L69.97,124.06L69.99,123.07L70.44,148.56L70.77,132.2L70.78,132.01L71.02,134.55L71.37,105.18L71.39,102.9L71.4,102.27L71.74,124.18L71.8,124.08L71.81,124.15L71.98,107.14L71.99,104.59L72.82,83.29L72.88,87.98L72.89,88.12L72.91,87.62L73.05,102.74L73.07,103.24L74.37,164.57L74.38,164.43L74.4,163.9L76.15,67.05L76.3,74.73L76.31,75.7L76.45,90.68L76.46,92.31L77.7,163.84L77.86,160.05L77.88,159.82L78,157.21L78.01,156.69L79.59,63.03L79.88,77.3L79.9,78.87L81.42,166.22L81.52,161.59L81.54,161.02L83,63.09L83.38,69.93L83.4,70.51L84.97,170.56L85.09,166.77L85.11,164.95L86.66,61.08L86.67,61.25L86.69,61.56L86.85,58.74L87.07,74.43L87.08,75.59L87.39,110.89L87.41,112.31L88.57,172L88.59,172.05L89.06,138.36L89.07,136.63L90.37,55.16L90.64,69.42L90.65,71.36L92.23,171.23L92.32,167.82L92.34,166.96L93.78,59.35L93.8,59.42L93.9,55.86L94.16,66.49L94.18,67.26L94.47,92.42L94.49,93.73L95.82,168.23L95.83,168.13L96.23,146.66L96.24,145.22L97.51,61.39L97.85,63.76L97.87,63.98L99.09,166.02L99.7,159.5L99.71,158.64L100.04,136.76L100.05,135.56L101.53,62.33L101.63,69.13L101.64,70.11L103.25,166.25L103.34,166.22L103.36,165.82L105.04,62.36L105.23,67.8L105.24,68.07L105.6,94.96L105.61,95.79L106.95,162.83L107.16,159.45L107.18,158.6L108.81,66.64L108.83,66.64L108.86,66.81L109.03,64.19L109.06,66.75L109.08,69.2L110.33,160.95L110.38,159.53L110.39,159.29L110.72,163.27L110.94,158.89L110.95,157.6L112.58,61.55L112.71,64.74L112.72,65.48L112.75,64.45L112.86,73.87L112.87,75.33L114.46,166.28L114.6,161.34L114.61,160.02L115.44,104.86L115.45,104.16L115.59,97.07L115.6,95.76L116.34,63.24L116.48,66.94L116.5,67.84L118.21,164.93L118.37,159.3L118.39,158.2L119.85,67.32L119.86,66.54L120.08,65.1L120.31,71.31L120.32,72.86L121.03,132.52L121.04,134.02L121.56,164.17L122.11,160.38L122.12,159.33L123.12,91.3L123.14,89.5L123.95,63.01L124.02,65.59L124.04,64.69L124.05,64.52L124.17,73.06L124.19,75.6L125.25,162.28L125.26,162.56L125.57,159.64L125.75,163.6L125.91,162.11L125.93,161.5L126.58,121.49L126.59,119.88L127.68,59.23L127.89,68.63L127.9,70.23L129.01,166.75L129.36,161.15L129.38,161.68L129.64,168.47L129.81,155.18L129.82,154.99L130.22,123.18L130.23,121.67L130.28,122.67L130.34,117.62L130.35,115.64L131.37,59.59L131.64,69.43L131.65,71.61L132.83,166.57L133.04,164.04L133.05,163.8L133.38,170L133.73,137.78L133.75,135.79L135.06,60.42L135.07,60.26L135.1,59.27L135.38,68.53L135.4,70.9L136.44,165.63L136.46,166.96L136.83,164.71L136.96,171.3L137.18,165.68L137.2,163.83L138.44,67.77L138.45,67.82L138.47,68.07L138.48,68.23L138.67,60.14L138.69,59.48L138.88,56.5L139.14,70.88L139.16,73.72L140.18,169.71L140.19,170.49L140.22,171.41L140.58,166.59L140.89,169.29L140.9,168.51L142.58,55.5L142.71,58.65L142.73,57.99L143.35,122.05L143.36,123.55L144.56,173.63L144.62,170.15L144.63,168.74L146.28,53.98L146.54,60.95L146.55,63.21L147.72,174.46L148.26,173.77L148.28,173.62L148.59,145.78L148.6,143.63L150.11,31.9L150.24,51.97L150.25,57.94L151.18,198.86L151.46,185.23L151.48,182.63L151.74,186.71L152.7,33.17L152.73,38.11L152.75,41.76L153.57,111.21L153.73,107.53L153.75,109.88L154.59,194.26L154.65,180.54L154.66,177.08L155.53,95.78L155.64,110.25L155.65,111.52L155.7,114.35L155.89,85.51L156.05,88.08L156.07,84.31L156.36,97.2L156.88,57.98L156.89,59.89L156.91,65.09L157.79,197.79L157.82,196.99L157.84,197.24L158.59,101.85L158.79,131.59L158.81,136.24L158.82,138.3L159.28,80.46L159.3,79.03L159.4,90.92L159.64,58.72L159.65,51.95L159.81,82.54L160.09,46.83L160.27,74.53L160.28,74.95L161.13,201.25L161.41,165.94L161.42,155.69L161.92,90.03L162.26,122.78L162.28,119.03L163.04,62.9L163.1,86.7L163.12,87.68L163.4,48.09L163.78,100.96L163.84,88.6L163.85,99.61L164.46,206.04L164.68,179.22L164.7,174.29L165.18,89.21L165.51,132.07L165.52,130.84L166.04,101.11L166.05,96.74L166.73,46.87L166.88,75.38L166.89,80.3L166.95,73.71L167.19,110.61L167.2,125.41L167.76,199.74L168.02,165.17L168.03,158.36L168.49,85.22L168.81,127.81L168.83,128.11L169.24,112.64L169.25,110.27L169.33,114.29L169.39,97.19L169.4,94.19L170.04,54.85L170.24,82.13L170.26,83.45L170.29,81.75L170.48,121.13L170.49,129.92L171.02,198.88L171.29,156.74L171.3,151.11L171.78,89.56L172.15,117.81L172.16,116.85L172.34,127.81L173.41,66.1L173.55,85.51L173.56,92.83L174.06,193.03L174.43,158.13L174.45,159.07L174.49,163.58L174.86,96.99L174.96,109.22L174.98,109.5L175.05,86.56L175.11,134.61L175.51,112.37L175.52,121.33L175.54,127.87L176.07,76.63L176.14,85.99L176.16,84.47L176.31,64.75L176.72,162.02L176.79,127.76L176.81,130.2L176.85,126.37L177.01,166.7L177.03,172.18L177.13,192.67L177.65,124.45L177.66,113.97L178.11,81.03L178.16,131.75L178.42,110.61L178.43,113.2L178.59,124.23L178.93,82.79L179.05,95.59L179.06,92.9L179.36,65.53L179.65,123.73L179.67,125.1L179.82,120.26L180.11,196.48L180.53,168.02L180.54,167.49L181.13,75.06L181.54,97.91L181.56,99.35L181.63,129.05L181.96,77.47L182.25,84.01L182.27,80.88L182.41,69.62L182.72,144.82L182.89,116.72L182.9,123.74L183.12,204.93L183.65,134.02L183.67,128.23L183.81,129.48L184.11,81.19L184.52,85.9L184.54,85.21L184.61,116.2L184.94,78L185.26,79.61L185.28,78.88L185.36,65.24L186.07,194.6L186.54,167.63L186.56,165.29L187.09,86.25L187.41,93.69L187.43,94.13L187.58,124.31L187.89,80.71L187.9,77.97L187.99,94.6L188.28,66.84L188.51,85.13L188.52,88.78L189.05,191.6L189.49,164.31L189.51,158.8L190.03,88.3L190.32,111.37L190.34,105.45L190.62,126.96L191.25,63.92L191.31,68.82L191.32,69.51L191.53,121.32L191.55,131.76L191.74,98.54L191.97,186.7L192.33,163.59L192.34,162.43L192.4,165.66L192.45,146.69L192.46,137.9L192.96,78.38L193.24,115.38L193.26,110.87L193.36,99.57L193.43,127.15L193.45,129.66L194.2,61.46L194.35,89.41L194.36,98.3L194.63,92.9L194.88,180.22L195.28,167.4L195.29,166.54L195.84,78.58L196.25,94.44L196.27,100.99L196.41,130.76L196.99,76.98L197,76.94L197.09,70.76L197.74,175.98L198.2,157.23L198.21,148.93L198.73,74.96L199.11,87.58L199.13,89.17L199.22,126.85L199.85,86.99L199.87,84.21L199.91,75.13L200.22,141.1L200.47,138.68L200.49,145.09L200.9,171.14L201.16,117.04L201.18,116.73L201.25,138.66L201.58,88.71L201.87,98.42L201.89,98.97L201.96,86.54L202.15,122.8L202.46,105.98L202.48,109.25L202.85,76.59L202.99,138.73L203.01,145.2L203.2,96.33L203.41,175.69L203.61,123L203.63,122.2L203.72,166.88L203.98,109.48L204.23,125.94L204.25,123.39L204.41,80.57L204.59,135.78L205.01,119.96L205.03,117.07L205.55,81.6L205.77,118.5L205.78,131.01L206.02,103.68L206.24,181.83L206.59,167.03L206.61,160.94L207.18,78.99L207.48,102.51L207.49,100.49L207.79,118.88L207.94,83.12L208.22,93.64L208.23,99.17L208.3,79.21L209.01,196.46L209.2,139.07L209.22,140.23L209.35,188.72L209.6,112.15L209.82,112.38L209.84,107.94L209.99,69.93L210.15,118.41L210.56,107.96L210.58,111.61L210.59,112.32L210.8,78.26L211.03,91.87L211.05,90.32L211.11,66.92L211.4,139.53L211.67,137.53L211.68,149.84L212.11,192.33L212.39,129.44L212.41,130.3L212.49,152.89L212.73,84.3L213.02,86.28L213.04,84.46L213.11,71.9L213.23,95.6L213.25,97.87L213.35,105.07L213.53,72.63L213.79,90.23L213.81,82.85L213.92,71.65L214.41,149.3L214.43,157.75L214.85,195.53L215.12,132.61L215.16,143.61L215.18,150.95L215.21,161.09L215.78,78.85L215.81,80.66L215.83,79.89L215.96,104.11L216.2,64.15L216.61,71.63L216.62,76.62L217.55,192.24L217.66,161.91L217.67,158.58L217.92,160.21L218.98,53.94L219.19,68.58L219.21,68.74L219.26,65.16L219.43,102.19L219.44,109.48L219.49,108.72L220.18,186.96L220.55,161L220.56,155.75L220.65,164.19L221.52,34.66L221.68,47.88L221.7,52.29L221.8,49.69L222.66,192.28L222.67,191.82L222.69,189.56L222.98,194.53L223.84,56.62L223.91,70.9L223.93,71.86L224.16,35.65L224.58,94.75L224.62,75.31L224.63,83.66L225.55,201.05L225.59,187.57L225.61,181.06L226.64,38.25L226.66,40.01L226.95,36.32L228.1,207.83L228.32,176.08L228.34,167.74L228.41,175.13L229.25,32.26L229.34,42.95L229.36,48.27L229.52,33.22L230.67,204.12L230.76,184.03L230.77,181.37L230.86,194.18L232.01,32.76L232.22,54.35L232.23,70.18L232.31,56.03L233,189.78L233.18,188.74L233.19,193.93L233.24,202.61L233.72,153.27L233.74,151.44L234.52,32.66L234.75,55.13L234.77,63.05L234.86,51.86L235.65,186.02L235.67,186.3L235.77,204.4L236.88,39.37L236.89,41.35L236.91,43.76L237.06,28.55L237.91,153.48L237.93,160.45L238.44,204.48L238.69,171.66L238.71,171.39L238.78,174.16L238.83,157.76L238.84,152.23L239.64,27.41L240.02,57.49L240.04,62.16L240.95,209.8L240.97,207.79L240.98,199.19L242,46.42L242.04,50.56L242.06,49.1L242.18,26.81L242.69,95.01L242.71,95.59L242.72,95.28L242.88,111.62L242.9,116.06L243.44,208.61L243.78,191.41L243.8,190.91L244.68,31.91L244.86,49.24L244.88,47.87L244.98,40.08L245.45,126.56L245.47,132.8L245.94,206.77L246.31,186.75L246.32,183.3L247.18,27.13L247.6,62.36L247.62,70.03L248.46,205.54L248.56,193.63L248.58,190.6L248.74,197.38L249.68,29.51L249.8,43.49L249.82,47.31L249.98,34.93L250.94,208.53L251.1,186.63L251.12,186.75L251.25,201.81L251.43,162.97L251.44,163.23L251.45,162.63L252.49,29.87L252.65,66.15L252.66,69.33L253.42,208.55L253.93,170.03L253.95,168.01L254.69,35.23L254.91,39.24L254.92,35.43L254.97,27.92L255.39,96.3L255.41,101.18L256.22,205.69L256.35,182.43L256.37,176.62L257.39,32.12L257.4,32.43L257.46,32.19L258.68,206.47L258.82,176.92L258.83,168.46L258.85,168.26L258.86,172.38L258.88,175.53L259.91,29.06L260.03,43.53L260.04,47.84L261.18,207.36L261.32,171.24L261.34,166.25L262.37,28.6L262.58,67.03L262.59,69.76L263.61,210.79L263.77,173.58L263.79,170.51L264.73,28.34L264.97,60.18L264.98,61.27L265,61.07L265.06,66.74L265.07,68.2L265.5,153.66L265.51,158.85L266.02,208.48L266.24,180.49L266.25,173.71L267.24,25.66L267.37,44.34L267.39,48.85L268.63,203.65L268.71,185.62L268.73,181.85L269.5,26.86L269.64,40.58L269.66,47.46L269.81,35.47L270.54,164.01L270.56,161.42L270.57,160.06L270.82,200.27L271.16,180.75L271.18,177.32L271.22,179.37L271.31,153.83L271.33,151.84L272,30.98L272.45,47.44L272.46,56.8L273.35,195.4L273.38,193.64L273.39,191.76L274.56,31.56L275.03,62.7L275.04,78.28L275.93,196.49L275.97,182.73L275.99,180.16L276.03,186.63L276.46,142.97L276.47,137.66L277.23,38.46L277.46,65.09L277.48,70.55L277.54,52.56L277.92,120.31L277.96,117.02L277.98,122L278.61,191.59L278.79,171.09L278.81,173.57L278.84,177.06L279.29,96.43L279.31,95.1L279.82,23.45L279.93,62.25L279.94,75.44L280.02,45.52L280.81,179.27L280.83,178.57L280.84,169.38L281.22,198.16L281.68,117.59L281.7,112.93L281.76,119.35L282.43,39.39L282.58,71.83L282.6,87.1L282.67,49.96L283.42,169.26L283.44,181.91L283.51,155.76L283.87,190.68L284.1,160.25L284.12,158.71L284.18,160.25L284.63,74.86L284.65,63.88L284.94,32.3L285.31,121.76L285.37,58.6L285.39,73.27L285.52,62.83L286.12,184.04L286.18,156.28L286.2,157.11L286.55,198.26L286.9,134.82L286.92,136.09L286.93,135.72L287.94,46.61L287.95,48.81L287.97,62.95L288.73,169.93L288.76,162.21L288.78,154.15L288.98,180.65L289.55,124.52L289.57,127.91L289.59,128.24L290.4,43.06L290.43,67.5L290.45,92.81L290.52,51.64L291.18,153.94L291.21,144.84L291.23,132.02L291.26,118.77L291.64,163.55L291.96,146.15L291.98,149.27L292.05,160.74L292.51,98.7L292.53,88.39L292.6,119.72L292.64,63.46L293.25,110.67L293.26,116.45L293.48,82.01L293.76,136.18L293.91,125.01L293.93,130.24L294.4,112.11L294.47,154.13L294.69,133.79L294.71,133.01L294.89,142.41L295.11,105.06L295.36,118.18L295.37,110.27L295.65,84.43L295.73,143.01L296.08,122.9L296.1,135.69L296.42,136.64L296.48,74.01L296.86,105.9L296.88,102.01L297.7,134.57L297.73,126.81L297.75,124.76L297.81,142.74L298.5,135.21L298.51,128.73L298.81,140.14L299.3,64.98L299.33,114.15L299.34,135.23L299.4,46.2L299.99,111.64L300,117.85L300.21,92.02L300.58,141.54L300.62,130.77L300.64,132.8L300.98,162.35L301.33,126.19L301.41,146.03L301.42,141.41L301.45,144.42L301.47,140.67L301.48,129.53L301.55,164.96L302.17,73.69L302.26,75.71L302.28,71.01L302.75,57.95L302.79,123.66L303.04,91.42L303.06,81L303.77,152.12L303.9,146.47L303.91,142.43L304.33,154.6L304.39,114.96L304.71,127.39L304.73,135.86L305.02,150.18L305.06,86.82L305.39,104.87L305.4,103.68L305.45,109.91L305.46,105.23L305.48,96.09L305.94,125.5L305.99,71.42L306.2,95.08L306.22,105.29L306.29,80.13L306.98,135.21L307,134.69L307.04,105.04L307.72,152.39L307.74,153.37L308.12,163.45L308.46,104.3L308.49,140.18L308.5,156.2L308.99,66.96L309.31,84.44L309.33,96.98L309.52,60.63L309.56,124.12L310.1,123.89L310.11,121.63L310.15,94.78L310.82,160.41L310.86,99.32L310.88,109.61L310.92,173.39L310.97,98.25L311.63,131.2L311.64,129.85L311.7,122.11L311.72,127.79L311.73,137.33L311.75,143.7L312.28,91.78L312.35,115.06L312.37,96.39L313.02,123.16L313.06,89.3L313.09,104.42L313.1,116.93L313.16,97.64L313.71,124.34L313.72,112.86L313.74,100.65L313.86,97.68L313.9,139.51L314.34,127.56L314.36,136.41L315.02,140.31L315.07,102.63L315.08,116.88L315.1,139.78L315.21,159.78L315.26,86.86L315.83,123.05L315.85,108.85L315.92,140.75L316.45,96.81L316.57,110.84L316.59,126.78L316.6,134.73L317.19,92.61L317.28,94.24L317.29,81.47L317.96,141.14L318,88.38L318.02,88.1L318.06,148.21L318.11,87.5L318.78,128.38L318.8,128.69L319.23,93.56L319.27,143.12L319.57,97.83L319.58,116.05L319.61,141.64L319.65,98.43L320.33,116.55L320.35,109.02L320.76,84.61L320.81,157.94L320.94,108.65L320.95,90.92L321.01,148.07L321.65,117.17L321.66,99.41L321.74,132.64L321.78,86.85L322.35,113.14L322.37,134.14L322.71,160.19L322.77,73.07L322.94,100.12L322.96,78.23L323.02,159.16L323.67,111.04L323.68,93.56L323.7,92.22L323.71,115.62L323.73,140.86L323.93,158.04L323.98,81.79L324.43,119.4L324.45,117.38L324.95,148.31L325.01,96.98L325.22,128.67L325.23,126.71L325.31,113.9L325.35,127.57L325.36,132.03L325.85,80.86L325.9,148.95L325.92,122.48L325.94,96.31L326.47,154.5L326.53,62.61L326.68,104.4L326.69,109.19L326.93,153.55L326.97,68.91L327.4,104.87L327.41,91.48L328,145.92L328.03,104.18L328.05,79.32L328.11,160.89L328.74,125.87L328.76,121.61L328.95,149.49L329.29,96.07L329.48,120.58L329.49,140.64L329.8,153.13L329.86,90.93L330.16,120.62L330.17,94.83L330.44,167.76L330.48,62.48L330.88,115.69L330.9,132.46L331.47,157.61L331.52,47.1L331.55,130.74L331.56,169.54L331.62,58.29L332.22,123.42L332.24,134.47L332.86,93.11L332.9,154.85L332.92,149.96L333.54,89.78L333.6,166.37L333.67,122.35L333.68,146.09L333.79,155.24L333.83,99.59L334.33,124.98L334.35,115.05L334.44,130.77L334.94,83.88L335.1,100.58L335.12,107.09L335.54,63.58L335.59,143.77L335.87,111.91L335.88,99.82L336.28,145.04L336.34,81.43L336.61,103.16L336.62,112.69L337.06,95.1L337.23,167.94L337.37,114.56L337.39,100.6L337.67,160.58L337.73,99.53L338.15,148.12L338.17,137.96L338.6,155.5L338.66,79.46L338.92,125.08L338.94,108.52L339.26,150.03L339.31,61.13L339.7,83.78L339.72,93.43L340.21,138.18L340.26,82.71L340.49,124.01L340.5,131.41L340.71,84.13L340.77,151.98L340.94,131.99L340.96,156.55L341.02,81.14L341.08,174.4L341.68,151.12L341.7,139.69L341.9,176.9L342.42,73.3L342.43,97.71L342.45,141.78L342.46,170.46L342.52,79.02L343.19,132.64L343.2,127.7L343.57,52.28L343.63,154.74L343.95,113.51L343.97,110.63L344.51,79.02L344.56,141.18L344.68,130.45L344.69,136.93L344.75,98.19L344.91,145.19L345.34,144.49L345.35,151.1L345.84,108.97L345.9,164.53L346.08,133.59L346.09,146.46L346.16,112.01L346.22,148.43L346.34,122.45L346.36,112.38L346.42,148.5L346.9,86.61L346.95,135.35L346.96,150.1L347.27,74.18L347.65,99.99L347.67,107.08L348.05,53.19L348.11,143.4L348.41,114.67L348.42,100.93L348.45,86.55L349.1,140.11L349.12,134.6L349.25,118.69L349.31,156.15L349.85,142.69L349.87,150.2L349.88,150.75L350.06,121.87L350.07,118.82L350.33,149.21L350.49,102.15L350.78,121.69L350.8,115.21L350.87,139.66L351.55,47.18L351.56,56.09L351.58,87.89L351.82,142.28L351.87,37.5L352.33,110.56L352.35,113.45L352.39,87.91L352.89,153.32L353.05,136.69L353.07,145.1L353.41,129.91L353.78,157.07L353.81,142.75L353.82,131.77L353.9,158.1L354.44,102.63L354.49,146.71L354.5,148.48L355,85.15L355.27,89.79L355.28,95.21L355.58,63.7L355.95,119.1L355.99,76.65L356,70.27L356.82,138.62L356.83,134.68L356.85,129.77L356.86,126.94L357.36,157.78L357.49,157.65L357.51,156.9L357.61,158.85L358.42,90.83L358.44,93.14L358.65,110.3L358.72,67.59L359.16,75.71L359.18,84.35L359.28,66.9L359.81,139.58L359.94,117.78L359.96,111.42L360,99.96L360.5,161.65L360.65,154.27L360.67,160.44L360.71,177.1L361.36,131.73L361.37,132.09L361.39,132.73L361.4,133.11L361.52,116.88L361.61,117.75L361.63,112.28L361.68,119.27L362.22,66.71L362.6,78.74L362.61,81.85L362.78,69.16L363.29,124.24L363.54,119.09L363.56,118.47L364.21,176.32L364.4,161.09L364.41,157.87L364.61,171.87L365.71,64.66L365.79,75.12L365.8,77.33L366.21,66.65L366.46,100.46L366.6,86.91L366.61,80.45L367.66,180.49L368.04,166.31L368.06,165.26L369.16,59.47L369.5,75.44L369.52,76.57L369.56,74.74L369.77,84.58L369.78,88.44L370.02,82.48L371.14,188.21L371.17,182.61L371.19,178.08L372.25,66.95L372.26,70.56L372.57,64.79L372.85,90.39L373.04,79.1L373.06,79.26L373.59,113.4L373.6,126L373.78,107.31L374.62,185.4L374.65,180.72L374.67,177.83L375.74,70.98L375.99,76.26L376.01,75.35L376.05,72.01L376.66,91.74L376.67,90.65L376.69,88.61L376.94,77.27L377.19,122.16L377.23,118.82L377.25,123.44L377.35,113.3L378.07,187.95L378.1,183.99L378.12,180.72L378.18,183.57L379.59,71.26L379.74,84.47L379.76,85.26L379.8,80.81L380.26,103.31L380.35,90.72L380.36,101.52L380.64,65.47L381.25,167.56L381.26,165.69L381.32,138.14L381.6,190.07L381.98,162.31L382,170.12L382.01,171.79L382.4,112.53L382.41,112.37L382.43,113.07L382.49,92.56L382.5,87.39L382.54,103.13L383.13,68.78L383.22,88.99L383.24,87.56L383.36,81.96L383.41,98.27L383.52,98.08L383.53,101.58L383.59,94.74L383.62,101.22L383.64,103.77L384.15,109.37L384.33,87.76L384.36,102.35L384.37,111.65L384.65,103.94L385.26,172.6L385.3,168.2L385.32,167.03L385.38,179.14L385.83,132.8L385.85,128.2L385.98,134.68L386.47,73.64L386.76,75.74L386.78,74.87L387.49,112.92L387.66,102.24L387.68,100.17L388,70.83L388.18,144.46L388.39,124.33L388.4,122.29L388.43,108.62L388.98,172.54L389.02,164.82L389.04,169.28L389.08,184.83L389.66,116.98L389.73,133.56L389.74,124.23L390.2,73.36L390.55,79.14L390.57,81.13L391.26,117.7L391.44,103.83L391.45,96.98L391.53,126.19L391.57,91.05L391.62,124.92L391.63,136.65L391.9,93.08L392,111.68L392.02,119.88L392.24,107.47L392.44,163.25L392.8,155.83L392.81,165.11L392.84,173.72L393.43,128.51L393.45,125.07L393.59,134.11L394.35,76.15L394.36,75.97L395.11,116.49L395.31,110.16L395.32,108.94L395.47,130.01L395.53,102.97L395.62,103.51L395.63,101.01L395.81,95.42L396.4,157.79L396.49,139.96L396.5,136.69L396.77,165.12L397.13,131.41L397.21,144.44L397.22,148.08L397.27,159.91L397.75,96.06L397.77,95.83L397.9,97.22L398.33,74.94L398.43,92.42L398.45,97.22L398.68,91.35L399.14,126.14L399.27,114.83L399.29,112.1L399.38,133.39L399.94,88.29L400,110.55L400.01,118.26L400.28,91.24L400.91,166.36L400.94,162.67L400.96,159.88L401.01,166.08L401.12,148.9L401.13,146.61L401.32,163.39L402.09,85.07L402.19,89.13L402.21,88.91L402.42,84.64L403.04,128.21L403.26,123.2L403.27,122.12L403.37,118.69L403.4,123.64L403.42,126.15L403.99,86.37L404.17,106.99L404.19,113.77L404.36,94.96L405.06,162.61L405.07,165.49L405.12,172.67L405.62,138.06L405.66,139.18L405.68,137.33L406.53,73.97L406.65,85.49L406.66,93.6L407.25,143.22L407.49,123.83L407.51,122.88L407.65,144.52L408.15,100.71L408.2,105.1L408.21,102.61L408.6,78.14L408.77,105.19L408.92,104.37L408.94,105.03L409,93.74L409.45,147.36L409.62,126.28L409.63,134.43L409.72,171.31L410.29,131.87L410.38,135.79L410.4,134.12L411.15,81.95L411.28,98.89L411.3,106.59L411.58,101.73L411.92,136.89L412.11,120.86L412.12,119.53L412.23,142.38L412.57,112.5L412.62,118.04L412.64,116.13L413.27,82.28L413.41,107.97L413.42,109.07L413.69,95.83L413.85,128.48L414.07,118.43L414.09,120.71L414.57,149.65L414.88,133.71L414.9,133.08L415.01,137.49L415.32,116.78L415.5,122.89L415.52,121.43L415.88,137.74L416.05,94.6L416.15,123.96L416.17,125.2L416.9,106.49L416.98,114.22L416.99,117.43L417.05,128.93L417.6,92.95L417.61,90.69L417.67,98.86L417.68,100.07L417.91,90.32L418.54,126.95L418.78,117.63L418.79,113.88L418.81,112.78L419.04,135.92L419.06,141.64L419.25,109.25L419.41,157.37L419.79,141.88L419.81,139.56L420.41,103.71L420.62,125.92L420.64,125.72L420.83,96.81L421.21,116.9L421.23,117.43L421.43,122.14L422.02,100.38L422.04,100.76L422.05,103.61L422.61,119.12L422.76,100.2L422.77,95.52L423.42,128.23L423.56,114.07L423.57,104.47L423.98,157L424.13,87.05L424.19,112.13L424.21,123.97L424.29,175.69L424.47,109.33L424.97,139.18L424.99,140.52L425.71,93.73L425.8,112.86L425.81,118.47L426,95.32L426.36,125.51L426.49,112.47L426.51,111.24L426.76,127.61L426.9,101.96L427.02,124.23L427.04,129.21L427.05,130.63L427.21,95.59L427.6,102.67L427.61,98.28L427.92,121.41L428.09,87.58L428.23,120.9L428.25,128.09L428.47,109.71L428.96,157.12L429,132.28L429.01,125.68L429.1,98.95L429.25,169.21L429.72,123.51L429.74,124.23L429.81,115.41L429.87,130.3L429.88,131.98L429.96,136.72L430.03,115.38L430.05,114.61L430.42,127.09L430.59,104.74L430.87,126.27L430.89,121.91L430.95,100.24L431.11,124.53L431.64,114.98L431.66,115.95L432.01,122.49L432.17,96.45L432.32,114.98L432.33,119.42L432.35,119.82L432.38,106.33L432.39,99.51L432.41,97.66L432.88,122.92L432.89,123.23L433.07,101.51L433.25,130.07L433.63,114.86L433.65,122.96L434.07,83.96L434.22,175.48L434.35,105.78L434.37,98.48L434.38,96.48L434.56,160.3L434.9,141.39L434.92,142.63L435.65,105.5L435.76,119.29L435.77,122.08L435.8,126.77L435.98,96.23L436.36,103.3L436.38,101.79L436.39,100.75L436.97,117.17L436.98,119.11L437.14,102.06L437.25,115.39L437.26,117.93L437.78,101.64L437.94,124.82L437.97,117.4L437.98,110.42L438.5,129.63L438.68,105.15L438.71,111.27L438.72,114.67L439.13,100.4L439.27,154.86L439.28,161.07L439.3,163.74L439.46,109.32L439.78,129.54L439.8,129.02L439.99,139.73L440.71,100.77L440.74,104.31L440.76,107.28L440.88,123.42L441.05,91.62L441.49,102.35L441.51,102.25L442.35,126.46L442.37,123.33L442.9,105.86L443.13,106.1L443.15,110.38L443.35,108.62L443.53,126.75L443.91,122.49L443.93,120.13L444.21,101.98L444.34,159.99L444.36,164.42L444.53,104.56L444.65,153.78L444.67,157.01L444.7,158.63L444.89,122.43L445.17,130.13L445.18,127.84L445.52,128.92L446.1,87.92L446.16,100.35L446.17,104.9L446.41,94.01L446.78,115.28L446.92,107.99L446.94,106.83L447.17,125.07L447.22,115.87L447.23,111.33L447.45,132.15L447.94,103.56L447.96,107.66L447.97,114.94L448.15,101.72L448.64,124.49L448.74,120.9L448.75,120.33L449.24,138.69L449.4,114.33L449.45,122.14L449.46,125.06L449.56,150.71L449.73,115.68L450.05,120.68L450.07,119.08L450.26,130.45L450.95,105.94L450.97,105.55L451.07,110.32L451.26,95.29L451.72,102.39L451.73,104.51L451.79,102.76L452.66,127.25L452.71,115.99L452.72,112.56L452.82,108.49L453.4,136.63L453.43,123.01L453.44,114.51L453.56,110.79L453.72,136.02L454.01,123.74L454.02,125.44L454.54,127.18L454.58,113.53L454.73,123.05L454.74,127.75L455.01,117.88L455.17,131.99L455.48,127.63L455.5,126.26L455.55,128.9L456.63,105.9L456.68,108.88L456.69,109.41L456.79,111.42L456.96,102.57L457.41,110.61L457.43,111.34L457.49,107.08L457.84,116.71L458.14,114.94L458.15,115.68L458.56,122.53L458.62,107.67L458.7,113.82L458.71,107.73L458.73,106.69L458.99,124.24L459.18,120.16L459.2,123.7L459.26,116.52L459.4,125.06L459.45,124.99L459.46,126.26L459.79,129.95L459.95,117.68L460.14,123.45L460.16,120.3L460.27,116.89L460.54,129.04L460.79,124.74L460.81,125.33L460.84,125.1L460.88,128.55L460.89,130.64L460.92,132.13L461.41,117.03L461.47,118.37L461.48,117.45L461.6,125.78L462.19,109.87L462.28,114.25L462.3,115.26L462.33,115.84L462.83,104.11L462.84,103.72L462.9,101.21L463.06,109.86L463.34,106.95L463.36,108.47L464.08,120.11L464.11,115.02L464.13,111.57L464.24,108.86L464.42,121.72L464.72,115.16L464.73,118.83L464.92,115.46L465.47,127.55L465.48,126.99L465.5,124.99L465.79,128.22L465.95,117.79L466.26,120.64L466.28,118.55L466.29,118.2L466.56,126.98L466.78,125.48L466.8,126.85L466.82,127.59L467.33,118.42L467.49,122.78L467.5,122.84L468.29,112.32L468.3,110.28L468.36,115.52L468.74,104.11L468.83,104.43L468.85,102.33L469.69,113.03L469.72,111.92L469.73,110.8L470,116.78L470.04,109.9L470.07,112.98L470.09,117.5L470.28,107.62L470.76,130.81L470.87,126.64L470.88,123.87L470.91,114.47L470.97,128.58L471.62,124.29L471.63,126.28L471.65,128.11L472.17,113.94L472.34,125.51L472.36,123.96L472.5,118.18L472.68,129.26L473.09,127.91L473.11,128.24L473.95,112.33L473.98,116.38L473.99,118.35L474.11,121.84L474.25,112.22L474.26,110.05L474.42,114.82L474.58,104.26L474.89,106.19L474.91,105.64L475.06,105.26L475.43,112.12L475.5,108.86L475.51,110.94L475.88,109.08L476.06,120.55L476.33,116.61L476.34,116.93L476.55,113.96L477.06,126.28L477.12,123.09L477.14,124.2L477.49,129.38L477.65,113.74L477.86,119.7L477.87,118.05L477.98,116.86L478.74,127.02L478.77,123.88L478.79,122.56L479.07,126.74L479.23,117.95L479.44,120.08L479.45,118.7L479.87,122.62L480.44,109.82L480.47,112.15L480.49,113.63L480.5,114.1L481.06,106.17L481.13,108.66L481.15,109.16L481.39,106.22L481.53,114.37L481.9,110.78L481.92,110.15L482.12,109.47L482.73,119.18L482.74,118.63L482.76,117.05L482.79,115.05L483.36,126.83L483.45,125.47L483.47,127.03L483.69,128.01L483.95,118L484.26,118.3L484.28,119.43L484.42,126.89L484.59,119.25L485.06,126.4L485.07,126.33L485.77,118.36L485.9,121.03L485.91,121.33L486.67,112.34L486.68,111.45L487.11,105.8L487.52,108.4L487.54,108.9L488.29,115.14L488.32,113.35L488.33,112.48L488.44,112.33L489.96,125.63L490,124.04L490.02,123.66L490.1,121.26L490.24,124.63L490.25,125.47L490.41,122.37L490.59,126.3L490.93,124.18L490.95,123.76L491,124.44L491.49,120.74L491.51,120.61L491.9,117.43L492.15,120.81L492.24,120.24L492.26,120.15L493.51,106.3L493.63,108.19L493.64,108.22L493.81,107.23L494.1,109.65L494.12,109.75L494.16,109.43L494.46,113.25L494.49,113.08L494.5,113.52L495.46,121.6L495.47,121.52L495.49,121.36L495.81,124.42L496.3,122.34L496.31,122.22L496.57,120.6L496.96,123.34L497.11,122.67L497.13,122.29L497.3,124.55L497.89,121.61L497.91,121.26L498.31,117.92L498.73,118.79L498.75,118.78L500.25,105.79L500.4,107.75L500.42,107.96L500.46,107.81L500.67,109.64L500.68,110.03L502.26,124.96L502.38,124.4L502.39,124.36L502.51,124.69L502.92,120.9L503.16,122.67L503.17,122.85L503.26,122.23L503.68,124.84L504,124.11L504.02,123.97L504.78,116.99L505.42,117.35L505.43,117.44L506.52,105.83L506.92,107.67L506.94,107.72L508.28,119.29L508.29,119.21L508.31,119.39L508.78,124.39L509.13,123.8L509.15,123.61L509.34,122.31L509.84,125.5L509.86,125.3L509.87,125.12L509.95,125.79L510.33,124.25L510.34,123.89L510.92,119.13L510.93,118.8L511.3,115.79L511.83,116.7L511.85,116.65L511.92,117.22L512.17,114.78L512.19,114.49L513.01,107.02L513.07,107.2L513.09,107.1L515.52,123.44L515.83,122.16L515.85,122.12L516.7,126.9L516.84,125.91L516.85,125.94L517.91,115.52L517.94,115.61L517.96,115.74L518.05,115.51L518.33,117.7L518.69,116.11L518.71,115.63L519.73,106.71L519.74,106.65L522.19,122.87L522.29,122.3L522.31,122.16L522.32,122L522.78,125.66L522.82,125.54L522.84,125.97L523.12,127.41L523.52,125.37L523.56,125.42L523.58,125.32L524.52,114.84L524.79,116.22L524.8,116.61L525.17,117.5L525.44,114.8L525.45,114.49L525.79,110.27L525.8,109.92L526.37,106.07L526.7,107.88L526.72,108.05L527.93,117.86L527.94,117.83L527.96,117.67L528.64,122.58L529.12,121.72L529.14,121.72L529.89,128L530.08,126.74L530.1,126.55L531.19,114.18L531.43,115.41L531.44,115.75L531.82,117.38L532.12,114.76L532.13,114.79L532.41,111.97L532.43,111.49L533.05,106.27L533.27,107.4L533.28,107.61L535.17,121.66L535.19,121.59L535.2,121.51L535.72,120.66L535.95,121.23L535.97,121.42L536.8,126.25L536.88,125.48L536.9,125.23L537.86,115.61L538.4,117.12L538.42,117.16L538.61,118.05L538.88,116L538.89,115.88L539.94,106.9L540.23,108.83L540.25,108.98L541.24,118.32L541.25,118.31L541.27,118.29L541.96,121.21L542.3,120.59L542.31,120.42L542.5,119.86L542.65,120.76L542.78,120.7L542.8,120.81L543.6,126.11L543.91,124.85L543.92,124.7L544.98,115.07L545.38,116.69L545.4,116.88L545.72,117.46L545.97,116.49L545.99,116.45L547,108.08L547.37,109.68L547.39,109.89L547.71,112.48L547.73,112.69L548.73,118.81L548.74,118.83L549.59,120.28L549.64,119.81L549.66,119.89L549.94,121.09L549.95,121.22L550,120.89L550.41,122.78L550.5,122.75L550.52,122.92L550.9,124.77L551.27,123.22L551.28,123.09L551.83,118.85L551.84,118.72L552.52,115.93L552.98,116.86L552.99,116.91L553.5,115.52L553.51,115.35L554.68,110.48L554.82,110.74L554.84,110.88L555.96,117.25L555.97,117.14L555.99,117.03L557.21,121.12L557.23,121L557.24,120.86L557.36,120.79L558.36,122.44L558.38,122.26L558.57,122.61L560.25,116.07L560.28,116.11L560.3,116.11L560.36,115.71L561.06,115.92L561.08,115.92L562.54,111.82L562.89,112.46L562.91,112.53L564.81,120.62L565.16,120.48L565.18,120.29L565.65,119.34L566.03,120.13L566.05,120.41L566.23,120.1L566.54,121.41L566.6,121.38L566.61,121.51L566.7,121.61L568.1,117.1L568.14,117.21L568.16,117.27L568.62,118.04L568.99,117.37L569,117.33L570.22,111.49L570.27,111.62L570.28,111.57L570.93,114.79L570.95,114.88L572.19,118.98L572.2,118.95L572.22,118.81L572.42,119.08L572.81,118.38L572.82,118.15L572.92,117.98L573.57,119.69L573.72,119.1L573.74,119.04L573.79,119.58L574.31,118.31L574.47,118.9L574.49,118.89L574.65,118.22L575.17,119.28L575.21,119.15L575.23,119.13L575.98,120.77L576.11,120.5L576.13,120.39L577.11,115.07L577.13,114.98L577.88,113.53L578.06,113.63L578.07,113.65L578.71,115.47L578.72,115.56L579.77,118.41L579.98,118.27L579.99,118.28L581.35,118.13L581.39,117.98L581.41,117.94L581.86,117.42L582.22,117.79L582.23,117.87L583.21,119.26L583.22,119.24L584.93,117.75L584.96,117.81L584.98,117.83L585.43,117.69L585.55,117.34L585.57,117.33L587.6,116.57L587.62,116.61L587.63,116.61L589.74,117.83L589.76,117.75L589.77,117.74L594.18,117.31L594.2,117.33L596.72,117.57L596.73,117.57L597,117.59" style="vector-effect: non-scaling-stroke; fill: none; stroke: rgb(192, 192, 192); stroke-opacity: 1; stroke-width: 0.5px; opacity: 1;"/></g><g class="points"/><g class="text"/></g><g class="trace scatter tracecfeaee" style="stroke-miterlimit: 2; opacity: 1;"><g class="fills"/><g class="errorbars"/><g class="lines"><path class="js-line" d="M0,117.49L3.23,116.68L3.25,116.59L3.79,114L4.29,114.81L4.31,114.83L4.71,115.33L5.03,114.63L5.05,114.6L6.11,109.15L6.12,109.08L7.29,108.53L7.3,108.52L7.92,107.81L8.01,108.68L8.03,108.83L9.03,115.55L9.37,114.73L9.38,114.63L9.78,112.14L10.19,114.21L10.21,114.28L10.53,115.59L11.12,115.09L11.14,115.08L11.32,114.95L11.52,115.68L11.54,115.73L11.8,116.67L12.13,115.1L12.14,115.03L12.57,109.13L12.58,108.85L15.5,75L15.52,74.96L17.32,66.67L17.42,68.87L17.44,69.19L18.57,81.34L18.59,81.45L20.21,87.6L20.23,87.64L20.36,87.96L20.56,86.55L20.58,86.45L21.24,80.85L21.7,82.65L21.72,82.71L21.85,83.23L22.45,82.6L22.47,82.58L23.83,80.16L23.84,80.12L24.98,75.73L24.99,75.59L27.56,52.08L28.12,53.32L28.13,53.28L29.39,47.83L29.4,47.72L29.83,41.2L30.14,46.02L30.15,46.25L31.75,67.02L32,62.11L32.01,61.82L34.17,19.63L34.18,19.34L34.33,16.45L34.96,17.98L34.98,18.01L35.13,18.36L35.52,17.41L35.54,17.37L37.87,11.76L38.06,13.13L38.08,13.24L38.67,17.45L39.23,16.2L39.24,16.17L41.22,11.76L41.37,13.19L41.38,13.33L42.97,20.29L42.99,20.33L44.92,27L44.94,27.31L45.6,41.21L46.01,37.58L46.03,37.45L48.43,16.31L48.76,19.95L48.77,20.12L49.27,25.41L49.97,25.24L49.98,25.23L51.96,24.76L51.99,25.51L52,25.88L52.81,46.5L53.3,41.77L53.32,41.62L55.5,20.4L55.54,20.99L55.56,21.19L57.36,45.45L57.43,43.99L57.45,43.7L59.05,11.75L59.17,14.09L59.19,14.38L60.93,48.84L61.12,48.61L61.13,48.59L62.73,46.73L62.8,47.71L62.82,47.9L64.66,72.29L64.73,71.61L64.75,71.47L66.24,57.65L66.62,60.88L66.64,61L70.38,86.18L70.4,86.24L70.44,86.44L71.03,85.66L71.05,85.64L72.98,81.94L72.99,81.82L75.34,68.58L75.36,68.56L76.15,67.05L76.49,67.95L76.51,67.99L77.7,71.16L77.97,70.02L77.98,69.95L79.59,63.03L80,64.33L80.02,64.38L81.42,68.78L81.77,67.5L81.79,67.45L83,63.09L83.54,63.46L83.56,63.47L84.97,64.44L85.21,63.72L85.22,63.68L86.85,58.74L87.28,59.77L87.29,59.81L88.59,62.95L88.87,61.73L88.88,61.66L90.37,55.16L90.71,56.73L90.73,56.8L92.23,63.77L92.56,62.23L92.57,62.16L93.9,55.86L94.22,57.7L94.24,57.79L95.82,66.77L96.29,65.27L96.3,65.23L97.51,61.39L97.81,62.81L97.82,62.88L99.09,68.98L99.55,67.73L99.56,67.69L101.53,62.33L101.85,63.54L101.87,63.6L103.25,68.75L103.59,67.54L103.61,67.48L105.04,62.36L105.3,63.73L105.32,63.8L106.94,72.17L107.37,70.54L107.38,70.48L109.03,64.19L109.36,65.65L109.37,65.71L110.72,71.73L111.04,69.95L111.06,69.87L112.58,61.55L113.02,63.24L113.03,63.29L114.46,68.72L114.88,67.52L114.89,67.47L116.34,63.24L116.68,64.48L116.69,64.53L118.21,70.07L118.62,68.97L118.64,68.93L120.08,65.1L120.39,66.31L120.41,66.36L121.56,70.83L121.93,69.63L121.94,69.58L123.95,63.01L124.24,64.39L124.26,64.46L125.75,71.4L126.04,69.54L126.06,69.45L127.68,59.23L128.14,60.93L128.15,60.99L129.64,66.53L129.98,65.17L130,65.11L131.37,59.59L131.75,60.62L131.77,60.66L133.38,65L133.73,63.83L133.75,63.78L135.1,59.27L135.47,60.15L135.49,60.18L136.96,63.7L137.24,62.65L137.26,62.59L138.88,56.5L139.16,57.98L139.17,58.06L140.22,63.59L140.66,62.07L140.68,62.02L142.58,55.5L142.92,56.51L142.94,56.56L144.54,61.37L144.79,60.3L144.81,60.24L146.28,53.98L146.59,55.4L146.61,55.47L147.72,60.54L147.91,58.24L147.92,58.07L150.11,31.9L150.62,33.93L150.64,33.99L151.18,36.14L151.68,35.16L151.7,35.13L152.7,33.17L152.97,34.24L152.98,34.3L154.99,43.74L155,43.85L156.88,57.98L157.05,53.96L157.07,53.62L157.79,37.21L158.25,39.12L158.26,39.18L160.09,46.83L160.26,44.77L160.27,44.59L161.13,33.75L161.46,35.89L161.48,35.98L163.4,48.09L163.59,44.64L163.6,44.37L164.46,28.96L164.92,32.57L164.93,32.68L166.73,46.87L167.03,43.55L167.04,43.39L167.76,35.26L168.13,38.44L168.15,38.57L170.04,54.85L170.26,50.66L170.27,50.38L171.02,36.12L171.67,37.37L171.69,37.4L174.86,42.07L174.87,42.07L177.63,41.69L177.65,41.67L180.91,36.28L180.92,36.24L183.12,30.07L183.46,31.26L183.48,31.31L186.88,41.22L186.9,41.23L190.59,45.97L190.6,46L192.3,50.22L192.31,50.3L194.2,61.46L194.47,58.85L194.48,58.7L194.88,54.78L195.29,57.76L195.31,57.87L197.09,70.76L197.3,67.02L197.31,66.76L197.74,59.02L198.08,64.49L198.1,64.73L199.28,75.04L199.29,75.04L199.91,75.13L199.97,74.46L199.98,74.29L201.84,62.14L201.86,62.12L206.59,51.3L206.61,51.22L209.01,38.54L209.6,39.33L209.62,39.35L212.11,42.67L212.6,42.1L212.61,42.08L214.87,39.48L215.3,40.01L215.31,40.02L217.73,44.14L217.75,44.26L218.98,53.94L219.22,52.77L219.24,52.7L221.52,34.66L222.01,36.6L222.02,36.65L222.98,40.47L223.34,39.02L223.35,38.96L225.34,34.2L225.36,34.19L225.55,33.95L225.95,34.62L225.96,34.65L226.95,36.32L227.1,35.14L227.11,35.03L228.1,27.17L228.57,29.26L228.59,29.32L229.25,32.26L229.83,31.7L229.84,31.68L230.67,30.88L231.1,31.48L231.11,31.5L232.76,32.53L232.78,32.53L235.11,31.69L235.12,31.66L237.06,28.55L237.51,29.2L237.53,29.22L238.44,30.52L238.75,29.71L238.77,29.68L240.95,25.2L241.14,25.45L241.16,25.47L242.91,26.57L242.93,26.56L243.46,26.45L243.61,27.11L243.62,27.18L244.68,31.91L245.11,30.65L245.13,30.61L246.85,27.42L246.87,27.4L247.18,27.13L247.53,27.77L247.55,27.8L249.23,29.49L249.24,29.49L249.98,28.79L249.99,28.76L250.94,26.47L251.34,27.34L251.35,27.38L252.49,29.87L252.77,28.84L252.78,28.78L253.42,26.45L254.02,27.02L254.04,27.03L257.03,31.26L257.05,31.3L257.39,32.12L257.75,31.1L257.77,31.06L258.68,28.53L259.35,28.82L259.36,28.82L260.41,28.5L260.42,28.48L261.71,28.06L261.75,28.1L261.77,28.11L262.37,28.6L262.58,27.86L262.59,27.81L263.61,24.21L263.96,25.51L263.98,25.57L264.73,28.34L265.25,27.61L265.26,27.59L267.24,25.66L267.3,25.9L267.31,25.96L268.63,31.35L268.94,29.75L268.95,29.67L269.5,26.86L269.82,28.97L269.84,29.07L270.71,34.73L271.22,33.24L271.24,33.19L272,30.98L272.24,32.5L272.26,32.59L273.35,39.6L273.58,38.03L273.6,37.94L274.56,31.56L274.98,33.73L275,33.8L276.68,38.48L276.7,38.48L277.42,39.14L277.43,39.19L278.61,43.41L278.73,41.46L278.75,41.22L279.82,23.45L280.1,26.13L280.12,26.27L282.18,38.86L282.2,38.89L283.78,44.01L283.79,44.06L283.87,44.32L284.03,42.51L284.04,42.34L284.94,32.3L285.5,33.84L285.52,33.89L287.01,39.99L287.02,40.1L288.98,54.35L289.32,51.65L289.34,51.53L290.4,43.06L290.74,46.15L290.75,46.29L295.62,84.34L295.64,84.39L296.17,77.57L296.18,77.37L299.4,46.2L299.62,49.91L299.64,50.16L300.98,72.65L301.27,71.31L301.29,71.24L302.31,62.43L302.32,62.28L302.75,57.95L302.96,61.96L302.97,62.16L304.33,80.4L304.59,78.97L304.61,78.89L305.99,71.42L306.61,72.09L306.63,72.11L307.84,73.41L307.97,72.53L307.99,72.44L309.52,60.63L310.2,61.1L310.21,61.11L310.98,62.41L311,62.61L312.97,89.6L313.02,89.45L313.03,89.4L314.14,82.26L314.15,82.16L315.21,75.22L315.72,76.72L315.73,76.77L317.88,85.56L317.9,85.66L319.27,91.88L319.36,91.06L319.37,90.92L321.66,76.14L321.68,76.09L322.77,73.07L322.92,74.7L322.93,74.86L323.79,76.78L323.8,76.8L324.08,78.37L324.1,78.51L324.95,86.69L325.17,83.31L325.19,83.09L326.53,62.61L326.71,65.13L326.72,65.34L328.11,74.11L328.18,73.75L328.2,73.68L330.87,56.77L330.88,56.55L331.52,47.1L331.9,51.07L331.91,51.22L333.6,68.63L334.16,67.18L334.17,67.14L335.54,63.58L335.97,64.47L335.99,64.5L337.23,67.06L337.55,66.13L337.56,66.09L340.19,60.86L340.21,60.86L341.36,59.75L341.37,59.71L343.57,52.28L343.78,53.89L343.79,54.01L345.9,70.47L346.25,67.63L346.27,67.51L348.05,53.19L348.25,57.12L348.26,57.42L349.31,78.85L349.59,74.89L349.6,74.69L351.58,46.3L351.59,45.86L351.87,37.5L352.26,44.98L352.27,45.26L353.9,76.9L354.38,73.08L354.4,72.97L355.58,63.7L355.81,67.32L355.83,67.55L356.83,73.29L356.85,73.34L357.61,76.15L357.89,74.59L357.91,74.51L360.71,57.9L361.06,59.97L361.08,60.06L362.22,66.71L362.66,64.93L362.67,64.87L364.21,58.68L364.56,60.08L364.58,60.14L365.71,64.66L365.99,63.2L366.01,63.12L367.66,54.51L368.1,55.97L368.12,56.01L369.16,59.47L369.4,57.96L369.41,57.86L371.14,46.79L371.39,49.95L371.41,50.13L372.57,64.79L372.82,62.93L372.84,62.82L374.62,49.6L374.83,53.54L374.84,53.82L375.74,70.98L376.17,66.59L376.19,66.44L378.07,47.05L378.15,48.22L378.16,48.46L379.59,71.26L380.1,68.49L380.11,68.41L380.91,59.78L380.92,59.46L381.6,44.93L381.97,50.66L381.98,50.89L383.13,68.78L383.62,65.98L383.64,65.89L385.38,55.86L385.57,58.98L385.58,59.22L386.47,73.64L387.12,72.45L387.13,72.42L388.06,69.69L388.08,69.41L389.08,50.17L389.33,55.35L389.35,55.66L390.2,73.36L390.61,71.47L390.63,71.4L392.84,61.28L393.03,63.14L393.05,63.28L394.36,75.97L394.95,74.48L394.97,74.44L396.77,69.88L397,70.65L397.02,70.69L398.33,74.94L398.68,74.08L398.7,74.04L400.91,68.64L401.04,70.05L401.06,70.21L402.73,84.98L402.74,85L403.99,86.37L404.04,85.42L404.05,85.11L405.12,62.33L405.6,66.33L405.62,66.45L407.53,76L407.55,76.03L408.6,78.14L408.7,76.81L408.72,76.62L409.72,63.69L409.97,66.89L409.98,67.08L412.23,92.62L412.58,89.12L412.6,88.98L413.27,82.28L413.72,83.33L413.73,83.36L415.04,88.31L415.06,88.4L416.05,94.6L416.59,93.35L416.61,93.31L418.23,87.58L418.25,87.45L419.41,77.63L419.6,80.22L419.62,80.42L421.25,98.09L421.27,98.13L422.02,100.38L422.26,98.86L422.27,98.76L423.04,89.19L423.05,88.84L424.29,59.31L424.63,66.45L424.65,66.76L426,95.32L426.29,94.48L426.3,94.44L428.13,86.75L428.14,86.48L429.25,65.79L429.55,71.78L429.56,72.08L430.95,100.24L431.57,98.32L431.58,98.28L432.33,93.53L432.35,93.26L434.22,59.52L434.31,61.38L434.33,61.68L436.3,99.79L436.32,99.95L437.14,102.06L437.2,102.02L437.22,102.01L437.82,100.75L437.84,100.46L439.3,71.26L439.43,74.61L439.44,74.98L440.99,91.12L441.01,91.24L442.09,106.46L442.1,106.68L442.5,108.24L442.82,106.3L442.84,106.22L443.15,99.81L443.16,99.45L444.36,70.58L444.76,76.86L444.77,76.98L447.45,102.85L448.07,101.84L448.09,101.81L448.53,97L448.55,96.82L449.56,84.29L449.76,88.07L449.77,88.36L450.86,93.95L450.88,94L452.99,102.19L453.21,100.15L453.22,100.01L453.4,98.37L453.99,99.72L454.01,99.76L455.67,107.35L455.69,107.47L455.86,109L456.31,106.4L456.32,106.31L456.96,102.57L457.38,104.37L457.4,104.43L458.5,109.09L458.7,106.97L458.71,106.83L458.93,108.17L459.29,106.88L459.3,106.82L460.92,102.87L461,103.56L461.01,103.7L461.6,109.22L462.05,106.49L462.06,106.4L462.9,101.21L463.28,103.4L463.3,103.48L464.76,111.98L465.16,109.97L465.17,109.9L465.79,106.78L466.22,108.39L466.23,108.44L468.05,115.27L468.18,113.11L468.2,112.87L468.85,102.33L469.3,104.36L469.32,104.43L470.16,108.16L470.48,106.33L470.5,106.24L470.76,104.19L471.09,106.82L471.1,106.87L471.99,109.86L472.25,108.28L472.27,108.19L472.68,105.74L473.2,107.04L473.21,107.08L473.77,108.49L474.02,107.18L474.04,107.11L474.58,104.26L475.04,105.77L475.06,105.82L476.22,109.66L476.71,109.12L476.72,109.1L477.24,107.44L477.25,107.33L477.49,105.62L477.8,108.66L477.82,108.8L478.74,107.98L478.94,108.73L478.95,108.79L479.87,112.38L480.16,110.84L480.18,110.77L481.06,106.17L481.43,108.09L481.44,108.16L482.57,114L483.05,112.72L483.07,112.68L483.44,109.57L483.45,109.41L484.48,106.71L484.5,106.71L487.11,105.8L487.24,106.52L487.26,106.6L489.06,116.28L489.43,114.46L489.44,114.39L490.59,108.7L491.02,110.2L491.03,110.25L492.15,114.19L492.42,112.63L492.44,112.54L493.5,106.3L493.73,107.97L493.75,108.07L495.05,116.9L495.53,115.51L495.55,115.46L499.25,107.37L499.27,107.35L500.25,105.79L500.36,106.84L500.37,106.99L501.46,117L501.77,114.29L501.79,114.16L502.26,110.04L502.82,111.58L502.84,111.62L504.78,116.99L505.09,116.64L505.11,116.62L506.52,105.83L506.85,108.39L506.86,108.5L507.97,117.21L508.44,115.3L508.46,115.24L509.95,109.21L510.24,110.64L510.26,110.71L511.69,117.2L511.89,115.62L511.91,115.5L513.01,107.02L513.72,107.23L513.74,107.23L516.85,108.92L516.86,109L518.33,117.3L518.64,114.97L518.65,114.86L519.74,106.65L520.46,106.85L520.48,106.86L523.27,108.35L523.28,108.43L524.52,114.84L524.91,113.02L524.92,112.95L526.38,106.07L526.96,106.23L526.97,106.23L531.41,106.65L531.43,106.64L533.86,106.8L533.87,106.81L536.93,109.61L536.94,109.71L538.61,116.95L538.7,116.28L538.71,116.16L539.94,106.9L540.63,107.28L540.65,107.29L544.54,108.66L544.56,108.66L547.92,108.59L547.93,108.6L552.83,110.36L552.85,110.36L554.82,111.2L554.84,111.27L556.09,117.39L556.61,116.35L556.62,116.32L559.48,112.26L559.5,112.25L564,112.37L564.01,112.38L566.98,114.13L566.99,114.17L568.85,117.3L568.88,117.18L568.9,117.12L570.31,111.46L570.92,111.76L570.93,111.77L576.98,113.86L577,113.85L578.28,114.17L578.29,114.2L580.93,117.03L580.95,117.04L582.42,116.84L582.44,116.82L583.28,115.7L583.69,116.34L583.71,116.36L585.09,117.13L585.11,117.14L586.16,116.91L586.17,116.9L587.75,116.89L587.76,116.9L589.28,117.13L589.3,117.12L591.51,117.3L591.53,117.31L597,117.44" style="vector-effect: non-scaling-stroke; fill: none; stroke: rgb(0, 0, 0); stroke-opacity: 1; stroke-width: 1px; opacity: 1;"/></g><g class="points"/><g class="text"/></g><g class="trace scatter trace206192" style="stroke-miterlimit: 2; opacity: 1;"><g class="fills"/><g class="errorbars"/><g class="lines"><path class="js-line" d="M0,117.14L3.69,116.64L3.7,116.63L8.19,114.36L8.2,114.34L12.85,110.46L12.86,110.45L20.85,101.42L20.86,101.4L25.51,94.69L25.52,94.65L27.09,93.12L27.1,93.13L27.11,93.14L27.71,92.21L27.72,92.18L29.77,89.01L29.87,89.1L29.89,89.11L31.11,88.11L31.13,88.08L33.21,85.84L33.27,85.91L33.28,85.93L34.24,86.08L34.26,86.09L36.04,84.75L36.05,84.74L39.82,82.26L39.83,82.23L41.01,81.59L41.03,81.59L42.81,80.8L42.83,80.8L44.33,80.67L44.35,80.68L46,80.54L46.01,80.56L46.03,80.58L49.35,82.38L49.36,82.38L50.88,83.73L50.9,83.75L52.89,85.39L52.9,85.41L53.71,86.36L53.73,86.39L56.37,90.9L56.84,90.54L56.86,90.53L57.76,91.17L57.77,91.18L58.69,92.04L58.7,92.06L59.87,93.78L60.31,93.29L60.32,93.27L61.05,93.3L61.16,93.51L61.18,93.53L63.64,94.76L63.66,94.73L64.36,93.97L64.66,94.31L64.67,94.33L65.94,94.57L65.96,94.56L66.86,95.26L67.12,94.7L67.14,94.69L68.01,93.89L68.38,94.3L68.39,94.32L70.37,95.03L70.38,95.01L70.4,94.99L71.52,93.14L71.96,93.56L71.98,93.58L72.77,93.28L72.79,93.28L74.29,92.85L74.31,92.84L75.36,91.8L75.65,92.11L75.67,92.12L76.64,91.54L76.65,91.53L78.39,89.82L78.41,89.79L79.16,89.56L79.28,89.63L79.29,89.63L81.73,87.17L81.74,87.14L83.35,85.92L83.37,85.92L90.54,82.58L90.55,82.59L91.27,82.12L91.29,82.11L93.53,82.14L93.54,82.15L95.23,82.58L95.24,82.58L96.86,83.1L96.88,83.1L97.78,83.68L97.79,83.69L102.15,84.75L102.16,84.75L107.12,85.63L107.13,85.62L111.44,86.36L111.45,86.38L112.24,86.09L112.25,86.08L113.24,86.4L113.25,86.42L113.96,86.05L113.98,86.04L115.04,86.28L115.05,86.3L115.53,86.47L115.82,86.07L115.84,86.05L116.62,85.83L116.79,86.07L116.81,86.1L117.21,86.37L117.58,85.94L117.59,85.92L118.54,85.82L118.62,85.92L118.64,85.94L119.16,86.32L119.48,85.85L119.49,85.83L120.25,85.45L120.47,85.73L120.48,85.76L120.94,86.13L121.28,85.66L121.29,85.63L122.24,85.51L122.3,85.57L122.31,85.59L122.86,85.94L123.15,85.47L123.17,85.44L123.91,84.95L124.16,85.23L124.17,85.25L124.63,85.67L124.98,85.14L125,85.12L125.9,84.92L126.03,85.04L126.04,85.05L126.55,85.33L126.86,84.84L126.87,84.82L127.58,84.33L127.84,84.61L127.86,84.63L128.23,85.15L128.7,84.65L128.71,84.64L132.15,84.27L132.17,84.28L132.89,83.59L132.9,83.56L134.32,82.13L134.34,82.12L135.55,81.43L135.72,81.68L135.74,81.7L136.36,81.21L136.37,81.17L137.36,80.02L137.64,80.3L137.65,80.3L138.54,79.71L138.55,79.7L139.22,80.16L139.23,80.18L139.25,80.2L139.9,79.63L139.91,79.6L141.02,78.64L141.21,78.85L141.22,78.87L142.08,78.87L142.1,78.87L143.53,78.36L143.54,78.33L144.43,77.59L144.71,77.86L144.72,77.88L145.92,78.43L146.15,78.04L146.17,78.02L147.38,77.27L147.39,77.27L148.78,77.62L148.79,77.66L149.19,78.1L149.6,77.67L149.62,77.65L150.98,77.13L150.99,77.14L153.42,77.27L153.44,77.25L153.96,77.04L154.24,77.44L154.25,77.46L155.45,78.19L155.46,78.19L156.4,78.39L156.42,78.4L158.03,79.12L158.04,79.16L159.08,79.61L159.09,79.6L159.1,79.58L159.77,79.61L159.95,79.9L159.96,79.93L161.24,80.84L161.26,80.85L162.85,81.79L162.87,81.79L163.68,82.68L163.69,82.7L165.18,83.51L165.2,83.52L168.34,86.29L168.35,86.28L168.93,86.44L169.06,86.72L169.08,86.76L170.32,88.07L170.33,88.07L171.1,88.53L171.11,88.55L172.22,89.08L172.29,88.98L172.31,88.96L172.62,89.06L172.84,89.54L172.85,89.55L173.69,89.36L173.71,89.37L175.1,89.46L175.11,89.46L175.82,89.59L175.91,89.79L175.92,89.83L176.13,90.02L176.6,89.53L176.62,89.52L176.9,89.26L177.38,89.75L177.4,89.78L179.46,91.55L179.48,91.55L180.73,91.58L180.75,91.61L182.37,92.54L182.38,92.53L182.4,92.52L184.33,93.16L184.35,93.18L185.41,93.72L185.42,93.72L187.09,93.63L187.1,93.65L187.12,93.67L188.39,94.83L188.4,94.82L190.98,95.05L191,95.07L192.47,95.54L192.49,95.54L193.33,95.29L193.34,95.28L194.04,95.37L194.14,95.52L194.16,95.55L195.72,96.26L195.73,96.27L196.09,96.23L196.34,95.79L196.35,95.79L197.11,96.19L197.12,96.21L197.14,96.23L199.3,96.57L199.32,96.56L201.27,97.34L201.36,97.2L201.37,97.17L201.74,96.73L202.24,97.06L202.26,97.05L202.98,96.25L203.39,96.58L203.41,96.6L203.85,96.69L204.13,96.3L204.14,96.28L205.44,95.44L205.46,95.42L206.33,95.32L206.34,95.31L211.73,89.88L211.74,89.85L213.63,87.61L213.67,87.63L213.69,87.64L214.28,86.85L214.29,86.81L215.56,85.42L215.58,85.38L217.6,82.53L217.61,82.54L218.35,81.55L218.36,81.52L219.63,80L219.65,79.98L223.38,75.24L223.4,75.21L225.21,73.69L225.22,73.69L225.8,73.02L225.81,72.98L226.8,72.38L226.82,72.36L228.87,70.31L228.88,70.32L228.9,70.34L229.72,69.9L229.74,69.88L235.32,67.25L235.33,67.26L235.94,66.8L235.95,66.78L235.96,66.76L236.76,66.92L236.78,66.91L237.71,66.46L237.84,66.67L237.85,66.69L241.73,66.8L241.75,66.81L243.81,66.34L243.83,66.33L245.47,66.11L245.48,66.1L247.96,65.52L247.97,65.51L249.73,65.07L249.74,65.09L249.76,65.11L250.58,64.6L250.6,64.59L252.15,64.07L252.16,64.08L252.18,64.1L252.92,64.11L253.03,63.91L253.05,63.89L253.9,63.97L253.92,63.96L256.09,63.28L256.1,63.3L256.12,63.31L256.81,63.41L257,63.17L257.02,63.15L257.21,63.04L257.56,63.57L257.62,63.59L257.64,63.59L258.37,63.13L258.39,63.12L260.28,63.86L260.29,63.88L272.83,68.11L272.85,68.12L275.03,69.06L275.04,69.08L276.84,70.91L276.86,70.91L277.63,71.86L277.64,71.91L279.17,74.28L279.19,74.3L280.43,76.13L280.44,76.15L281.62,77.8L281.64,77.83L284,81.18L284.01,81.2L288.17,86.56L288.19,86.55L288.73,87.31L288.75,87.35L290.12,89.12L290.14,89.14L291.94,90.64L291.95,90.65L292.66,91.73L292.67,91.75L303.18,102.18L303.19,102.17L304.05,102.74L304.06,102.75L306.14,103.67L306.16,103.66L308.21,104.41L308.22,104.42L311.08,104.41L311.1,104.39L313.18,103.61L313.19,103.63L314.43,103.37L314.45,103.37L316.6,103.48L316.62,103.47L318.55,103.64L318.56,103.64L323.71,103.83L323.73,103.82L325.2,103.26L325.22,103.24L327.69,102.75L327.71,102.74L338.67,100.36L338.69,100.37L340.13,100.39L340.15,100.38L348.16,99.1L348.17,99.08L350.21,98.22L350.22,98.22L353.84,95.96L353.85,95.94L366.17,86.72L366.18,86.69L367.28,86.63L367.29,86.63L370.15,84.89L370.17,84.87L371.02,85.13L371.04,85.14L373.32,84.84L373.34,84.84L374.95,84.84L374.96,84.86L379.2,86.47L379.21,86.49L380.58,87.15L380.6,87.16L383.58,88.98L383.59,89L386.45,91.02L386.47,91.03L391.82,94.48L391.84,94.48L392.64,95.39L392.65,95.41L394.69,95.92L394.7,95.91L395.88,96.72L395.9,96.75L396.62,97.07L396.85,96.93L396.87,96.93L402.65,100.01L402.67,100.02L405.07,100.75L405.09,100.75L406.5,101.56L406.52,101.58L408.58,102.47L408.6,102.47L410.06,102.94L410.07,102.96L414.34,104.5L414.35,104.52L415.41,104.4L415.43,104.39L417.43,104.99L417.45,105.01L418.78,105.7L418.79,105.69L422.2,106.35L422.21,106.38L423.31,106.6L423.32,106.6L424.96,106.82L424.97,106.83L427.67,107.13L427.69,107.12L430.78,107.49L430.8,107.48L437.63,107.18L437.64,107.18L446.41,108.81L446.42,108.79L448.49,109.14L448.5,109.15L451.44,109.61L451.45,109.6L455.41,110.5L455.42,110.51L457.8,110.66L457.81,110.66L473.17,112.39L473.18,112.38L480.52,112.53L480.53,112.54L493.31,112.68L493.32,112.68L540.25,113.28L540.26,113.29L544.38,113.63L544.39,113.63L552.62,113.98L552.64,113.98L561.08,114.73L561.09,114.74L573.06,115.58L573.07,115.58L580.43,116.33L580.45,116.34L597,117.54" style="vector-effect: non-scaling-stroke; fill: none; stroke: rgb(0, 0, 255); stroke-opacity: 1; stroke-width: 1px; opacity: 1;"/></g><g class="points"/><g class="text"/></g><g class="trace scatter trace46d9fa" style="stroke-miterlimit: 2; opacity: 1;"><g class="fills"/><g class="errorbars"/><g class="lines"><path class="js-line" d="M0,115.37L6.79,111.85L6.8,111.84L16.09,104.54L16.11,104.52L36.14,87.91L36.16,87.9L41.23,86.04L41.25,86.04L46.62,85.72L46.63,85.72L53.18,86.9L53.2,86.91L68.92,90.35L68.94,90.35L75.61,89.6L75.62,89.59L97.96,85.24L97.97,85.24L126.35,83.32L126.37,83.31L135,81.41L135.01,81.4L147.94,79.52L147.95,79.52L154.37,80.27L154.38,80.28L160.62,82.29L160.64,82.3L171.22,87.33L171.23,87.34L185.91,93.49L185.92,93.49L191.74,94.64L191.75,94.64L198.82,94.39L198.83,94.38L203.38,93.02L203.39,93.01L208.91,90L208.92,89.99L215.27,85.02L215.28,85L233.94,69.8L233.96,69.79L240.95,66.36L240.97,66.36L247.28,64.47L247.29,64.47L254.64,63.76L254.66,63.76L262.09,64.95L262.11,64.96L268.2,67.64L268.21,67.65L273.04,70.9L273.05,70.91L280.12,77.14L280.13,77.16L288.01,85.4L288.03,85.42L295.56,93.17L295.58,93.18L302.94,98.92L302.96,98.93L310.04,102.42L310.05,102.42L317.12,104L317.13,104L323.02,104.03L323.03,104.03L335.19,101.73L335.2,101.72L345.49,98.21L345.5,98.2L358.96,92.02L358.97,92.01L367.88,88.67L367.9,88.67L373.74,87.98L373.75,87.98L379.62,88.73L379.64,88.74L385.42,90.66L385.44,90.67L402.14,98.62L402.15,98.63L420.25,105.3L420.27,105.3L431.71,107.4L431.73,107.4L472.19,112.05L472.21,112.05L493.57,112.73L493.59,112.73L542.42,113.47L542.43,113.48L554.31,114.23L554.32,114.24L596.54,116.45L596.56,116.45L597,116.45" style="vector-effect: non-scaling-stroke; fill: none; stroke: rgb(0, 128, 0); stroke-opacity: 1; stroke-width: 1px; opacity: 1;"/></g><g class="points"/><g class="text"/></g><g class="trace scatter trace3b484a" style="stroke-miterlimit: 2; opacity: 1;"><g class="fills"/><g class="errorbars"/><g class="lines"><path class="js-line" d="M0,97.98L1.02,96.75L1.03,96.74L6.34,92.23L6.36,92.23L8.87,90.98L8.88,90.96L10.59,87.29L10.61,87.25L14.44,77.2L14.46,77.19L15.5,77.68L15.52,77.7L17.25,81.4L17.26,81.45L19.38,85.56L19.4,85.56L23.49,84.33L23.5,84.3L26.04,77.58L26.05,77.53L28.09,73.44L28.12,73.45L28.13,73.46L29.02,74.59L29.03,74.63L30.86,79L31.14,78.69L31.16,78.67L32.09,74.94L32.1,74.85L34.4,61.19L34.68,61.62L34.7,61.65L36.03,68L36.04,68.05L36.66,68.99L36.97,68.66L36.98,68.63L37.99,67.19L38.3,67.66L38.31,67.7L40.22,73.51L40.54,73.19L40.55,73.17L41.37,72.28L41.68,72.74L41.69,72.78L44.43,79.92L44.45,79.93L45.17,81.07L45.19,81.12L46.78,86.29L47.13,85.8L47.15,85.77L48.7,81.81L49.02,82.26L49.04,82.3L50.75,86.07L51.03,85.82L51.04,85.8L52.27,84.63L52.52,84.93L52.53,84.95L53.57,86.12L53.86,85.77L53.88,85.74L55.78,81.08L56.1,81.45L56.12,81.47L58.33,84.34L58.35,84.33L59.26,84.94L59.28,84.97L63.21,95.78L63.23,95.79L64.1,95.27L64.11,95.25L65.65,94.41L65.66,94.42L66.84,95.95L66.86,95.97L68.13,96.42L68.14,96.41L68.16,96.41L70.13,95.71L70.15,95.69L71.39,92.61L71.4,92.56L75.1,82.11L75.12,82.08L76.58,81.32L76.59,81.32L78.57,79.88L78.59,79.86L80.28,78.86L80.3,78.85L83.9,78.49L83.91,78.5L86.42,78.72L86.43,78.71L87.75,79.46L87.76,79.47L89.97,79.8L89.99,79.8L90.95,80.31L90.96,80.32L93.47,81.46L93.49,81.45L94.47,81.92L94.49,81.93L96.88,83.27L96.89,83.26L98.1,83.29L98.12,83.3L100.21,83.84L100.23,83.83L102.07,83.7L102.09,83.71L104.67,83.12L104.68,83.11L105.79,83.44L105.8,83.45L110.57,84.9L110.58,84.91L112.03,85.05L112.04,85.04L113.17,85.31L113.18,85.31L115.51,85.44L115.53,85.43L116.82,85.23L116.84,85.24L118.98,85.17L118.99,85.15L120.91,84.45L120.93,84.45L123.49,83.67L123.51,83.65L125.29,83.32L125.31,83.32L127.43,82.21L127.45,82.2L131.87,81.6L131.89,81.61L134.17,81.54L134.19,81.53L135.69,81.08L135.71,81.08L138.13,80.5L138.14,80.48L139.42,80.17L139.44,80.18L141.96,79.27L141.98,79.25L143.13,79.07L143.14,79.08L143.16,79.08L145.58,78.79L145.59,78.77L148.78,74.18L148.79,74.12L151.52,65.62L151.6,65.66L151.61,65.67L152.72,67.47L152.73,67.52L153.87,72.98L153.88,73.08L156.07,85.89L156.36,85.62L156.38,85.59L158.15,83.35L158.31,83.44L158.32,83.45L159.05,82.95L159.06,82.92L159.08,82.89L160.79,79.8L160.98,79.98L160.99,80L162.38,82.56L162.72,82.11L162.73,82.08L164.05,80.27L164.3,80.55L164.31,80.58L165.88,83.95L166.19,83.55L166.2,83.52L167.31,82.23L167.54,82.47L167.56,82.49L169.34,86.86L169.7,86.52L169.71,86.5L170.57,86.04L170.79,86.3L170.8,86.32L171.79,89.55L171.81,89.61L172.63,91.07L172.91,90.85L172.93,90.83L174.17,90.03L174.33,90.22L174.34,90.24L175.75,91.67L175.95,91.47L175.97,91.46L177.12,90.88L177.28,91.03L177.29,91.05L178.73,92.42L178.93,92.2L178.95,92.18L180.22,91.37L180.36,91.5L180.38,91.52L181.78,92.59L181.97,92.4L181.99,92.38L183.39,91.77L183.43,91.82L183.45,91.84L184.94,92.57L184.95,92.56L184.97,92.54L186.53,92.17L186.54,92.18L187.93,92.47L187.95,92.46L189.17,92.73L189.18,92.75L191.03,93.72L191.04,93.71L191.06,93.71L192.06,94.39L192.08,94.42L193.67,95.83L193.74,95.78L193.76,95.77L195.01,95.79L195.03,95.81L196.4,96.58L196.53,96.45L196.55,96.43L198.1,95.55L198.18,95.62L198.2,95.63L199.81,96.01L199.82,96.01L201.19,96.42L201.21,96.44L202.36,96.27L202.37,96.25L206.83,92.23L206.84,92.21L208.54,88.45L208.55,88.43L211.74,84.64L211.76,84.63L216.2,81.8L216.21,81.77L218.9,74.3L218.91,74.25L221.73,68.02L221.74,68.02L224.04,68.18L224.06,68.18L227.38,67.52L227.39,67.51L229.58,67.22L229.59,67.23L235.42,68.77L235.43,68.76L241.04,66.4L241.05,66.4L247.13,66.02L247.15,66.01L253.49,63.67L253.51,63.67L257.65,64.16L257.67,64.17L259.38,64.09L259.39,64.08L267.37,59.34L267.39,59.35L270.38,61.31L270.4,61.33L277.2,66.49L277.21,66.49L280.94,67.61L280.96,67.6L284.77,66.26L284.78,66.25L287.44,65.18L287.45,65.18L289.35,65.93L289.37,65.94L291.08,68.13L291.09,68.17L292.98,73.3L293,73.35L298.26,91.46L298.28,91.47L299.16,90.99L299.18,90.97L302.9,85.51L302.91,85.51L304.19,86.82L304.21,86.84L307.71,92.16L307.82,92.08L307.84,92.07L310.54,90.61L310.55,90.62L311.94,92.14L311.95,92.17L315.76,97.68L315.78,97.69L319.4,101.42L319.42,101.44L320.88,101.79L320.89,101.78L322.5,100.14L322.52,100.12L324.18,99.12L324.2,99.12L328.05,100.36L328.06,100.37L329.13,100.26L329.14,100.24L329.16,100.22L331.8,96.02L331.99,96.17L332,96.18L333.85,99.3L333.86,99.33L335.65,101.35L335.66,101.34L335.68,101.34L338.02,99.99L338.04,99.98L341.49,97.43L341.5,97.42L343.13,96.83L343.14,96.84L343.16,96.84L344.81,98.34L344.82,98.36L346.74,99.11L346.76,99.11L348.45,99.43L348.47,99.45L350,99.78L350.02,99.78L351.21,98.05L351.23,98.02L352.63,96.73L352.64,96.74L352.66,96.74L355.46,97.89L355.47,97.87L359.09,93.54L359.1,93.52L362.33,89.33L362.35,89.33L363.88,88.19L363.9,88.17L365.77,86.61L365.79,86.6L367.14,85L367.16,84.96L369.22,81.77L369.24,81.76L371.98,81.62L372,81.63L374.08,81.96L374.09,81.95L375.35,81.58L375.36,81.59L375.37,81.59L377.5,81.87L377.51,81.85L379.05,80.86L379.06,80.87L381.44,81.76L381.45,81.75L382.4,81.99L382.41,82.01L382.43,82.03L384.79,85.34L385.01,85.13L385.02,85.12L386.32,84.78L386.34,84.79L388.45,85.66L388.47,85.62L388.49,85.6L389.94,84.48L390.05,84.56L390.07,84.57L391.34,86.74L391.35,86.77L392.3,87.5L392.52,87.33L392.53,87.31L393.92,87.02L393.93,87.03L395.16,89.31L395.17,89.34L396.12,90.24L396.35,90.04L396.37,90.02L398.02,89.1L398.03,89.11L398.05,89.12L399.41,91.53L399.42,91.56L400.19,91.81L400.38,91.61L400.39,91.59L401.96,90.53L402.02,90.58L402.03,90.6L403.17,92.79L403.18,92.82L404.1,93.59L404.32,93.4L404.33,93.38L406.64,90.95L406.66,90.97L406.68,90.99L408.66,92L408.67,91.98L410.99,90.31L411,90.33L416.08,96.44L416.09,96.47L417.73,98.04L417.74,98.03L417.76,98.03L420.38,97.39L420.4,97.41L423.07,101.04L423.19,100.94L423.2,100.92L424.62,98.44L424.63,98.42L425.7,98.27L425.74,98.31L425.75,98.32L427.78,99.27L427.79,99.26L430.08,98.32L430.09,98.34L430.11,98.36L433.09,101.91L433.1,101.9L433.12,101.88L434.58,99.52L434.59,99.5L435.67,99.47L435.68,99.49L435.7,99.5L438.84,102.22L438.88,102.17L438.9,102.15L440.98,100.6L440.99,100.61L442.16,102.01L442.17,102.04L443.52,103.27L443.68,103.13L443.69,103.11L446.44,100.09L446.45,100.1L446.47,100.11L447.76,102.04L447.78,102.07L449.45,103.56L449.46,103.55L449.48,103.55L452.68,102.17L452.69,102.19L457.55,104.94L457.56,104.94L460.85,106.11L460.86,106.1L464.08,106.04L464.1,106.06L467.24,108.38L467.25,108.38L468.68,107.92L468.7,107.91L470.42,107.33L470.44,107.33L474.42,108.06L474.44,108.05L476,108.02L476.02,108.03L479.67,110.01L479.69,110.01L485.4,110.95L485.41,110.96L493.17,111.25L493.19,111.24L494.63,111.14L494.65,111.15L498.41,112.59L498.42,112.59L499.77,111.56L499.78,111.55L501.15,111.37L501.17,111.38L505.4,112.81L505.42,112.79L507.57,111.99L507.59,112L511.83,113.29L511.85,113.28L514.25,112.65L514.27,112.65L516.13,112.48L516.14,112.48L525.79,112.39L525.8,112.38L527.15,112.64L527.16,112.65L528.62,112.67L528.64,112.66L530.41,112.51L530.42,112.52L532.13,112.55L532.15,112.55L533.59,112.7L533.61,112.71L535.28,113.03L535.29,113.03L537.36,112.88L537.37,112.89L538.83,112.42L538.85,112.41L540.32,112.37L540.34,112.38L542.14,112.72L542.15,112.71L544.2,112.8L544.22,112.81L545.65,112.48L545.66,112.46L547.31,112.12L547.33,112.13L549.23,112.44L549.25,112.43L551.3,112.35L551.31,112.36L552.77,112L552.79,111.98L554.81,111.37L554.82,111.38L556.9,111.42L556.92,111.41L559.29,111.55L559.31,111.55L561.15,110.55L561.17,110.54L562.88,110.42L562.89,110.43L565.46,110.35L565.47,110.34L568.53,109.23L568.54,109.21L570.31,108.94L570.33,108.94L572.27,109.05L572.29,109.04L576.98,107.09L577,107.1L580.18,107.21L580.2,107.2L585.99,104.02L586.01,104.02L594.55,99.42L594.57,99.41L596.99,97.89L597,97.99" style="vector-effect: non-scaling-stroke; fill: none; stroke: rgb(255, 0, 0); stroke-opacity: 1; stroke-width: 1px; opacity: 1;"/></g><g class="points"/><g class="text"/></g></g></g><g class="overplot"/><path class="xlines-above crisp" d="M0,0" style="fill: none;"/><path class="ylines-above crisp" d="M0,0" style="fill: none;"/><g class="overlines-above"/><g class="xaxislayer-above"><g class="xtick"><text text-anchor="middle" x="0" y="272.3333" transform="translate(50,0)" style="font-family: 'Latin Modern Roman'; font-size: 13.3333px; fill: rgb(0, 0, 0); fill-opacity: 1; white-space: pre;">0</text></g><g class="xtick"><text text-anchor="middle" x="0" y="272.3333" transform="translate(123.76,0)" style="font-family: 'Latin Modern Roman'; font-size: 13.3333px; fill: rgb(0, 0, 0); fill-opacity: 1; white-space: pre;">5k</text></g><g class="xtick"><text text-anchor="middle" x="0" y="272.3333" transform="translate(197.52,0)" style="font-family: 'Latin Modern Roman'; font-size: 13.3333px; fill: rgb(0, 0, 0); fill-opacity: 1; white-space: pre;">10k</text></g><g class="xtick"><text text-anchor="middle" x="0" y="272.3333" transform="translate(271.28999999999996,0)" style="font-family: 'Latin Modern Roman'; font-size: 13.3333px; fill: rgb(0, 0, 0); fill-opacity: 1; white-space: pre;">15k</text></g><g class="xtick"><text text-anchor="middle" x="0" y="272.3333" transform="translate(345.05,0)" style="font-family: 'Latin Modern Roman'; font-size: 13.3333px; fill: rgb(0, 0, 0); fill-opacity: 1; white-space: pre;">20k</text></g><g class="xtick"><text text-anchor="middle" x="0" y="272.3333" transform="translate(418.81,0)" style="font-family: 'Latin Modern Roman'; font-size: 13.3333px; fill: rgb(0, 0, 0); fill-opacity: 1; white-space: pre;">25k</text></g><g class="xtick"><text text-anchor="middle" x="0" y="272.3333" transform="translate(492.57,0)" style="font-family: 'Latin Modern Roman'; font-size: 13.3333px; fill: rgb(0, 0, 0); fill-opacity: 1; white-space: pre;">30k</text></g><g class="xtick"><text text-anchor="middle" x="0" y="272.3333" transform="translate(566.33,0)" style="font-family: 'Latin Modern Roman'; font-size: 13.3333px; fill: rgb(0, 0, 0); fill-opacity: 1; white-space: pre;">35k</text></g><g class="xtick"><text text-anchor="middle" x="0" y="272.3333" transform="translate(640.1,0)" style="font-family: 'Latin Modern Roman'; font-size: 13.3333px; fill: rgb(0, 0, 0); fill-opacity: 1; white-space: pre;">40k</text></g></g><g class="yaxislayer-above"><g class="ytick"><text text-anchor="end" x="49" y="4.6666549999999996" transform="translate(0,246.25)" style="font-family: 'Latin Modern Roman'; font-size: 13.3333px; fill: rgb(0, 0, 0); fill-opacity: 1; white-space: pre;">1</text></g><g class="ytick"><text text-anchor="end" x="49" y="4.6666549999999996" transform="translate(0,193.38)" style="font-family: 'Latin Modern Roman'; font-size: 13.3333px; fill: rgb(0, 0, 0); fill-opacity: 1; white-space: pre;">0.5</text></g><g class="ytick"><text text-anchor="end" x="49" y="4.6666549999999996" transform="translate(0,140.5)" style="font-family: 'Latin Modern Roman'; font-size: 13.3333px; fill: rgb(0, 0, 0); fill-opacity: 1; white-space: pre;">0</text></g><g class="ytick"><text text-anchor="end" x="49" y="4.6666549999999996" transform="translate(0,87.63)" style="font-family: 'Latin Modern Roman'; font-size: 13.3333px; fill: rgb(0, 0, 0); fill-opacity: 1; white-space: pre;">0.5</text></g><g class="ytick"><text text-anchor="end" x="49" y="4.6666549999999996" transform="translate(0,34.75)" style="font-family: 'Latin Modern Roman'; font-size: 13.3333px; fill: rgb(0, 0, 0); fill-opacity: 1; white-space: pre;">1</text></g></g><g class="overaxes-above"/></g></g><g class="polarlayer"/><g class="ternarylayer"/><g class="geolayer"/><g class="funnelarealayer"/><g class="pielayer"/><g class="treemaplayer"/><g class="sunburstlayer"/><g class="glimages"/><defs id="topdefs-b0c8c6"><g class="clips"/><clipPath id="legendb0c8c6"><rect width="509" height="31" x="0" y="0"/></clipPath></defs><g class="layer-above"><g class="imagelayer"/><g class="shapelayer"/></g><g class="infolayer"><g class="legend" pointer-events="all" transform="translate(50, 0)"><rect class="bg" shape-rendering="crispEdges" style="stroke: rgb(68, 68, 68); stroke-opacity: 1; fill: rgb(255, 255, 255); fill-opacity: 1; stroke-width: 0px;" width="509" height="31" x="0" y="0"/><g class="scrollbox" transform="translate(0, 0)" clip-path="url('#legendb0c8c6')"><g class="groups"><g class="traces" transform="translate(0, 15.166645)" style="opacity: 1;"><text class="legendtext" text-anchor="start" x="40" y="5.199987" style="font-family: 'Latin Modern Roman'; font-size: 13.3333px; fill: rgb(0, 0, 0); fill-opacity: 1; white-space: pre;">Signal</text><g class="layers" style="opacity: 1;"><g class="legendfill"/><g class="legendlines"><path class="js-line" d="M5,0h30" style="fill: none; stroke: rgb(192, 192, 192); stroke-opacity: 1; stroke-width: 0.5px;"/></g><g class="legendsymbols"><g class="legendpoints"/></g></g><rect class="legendtoggle" x="0" y="-10.166645" width="76.875" height="20.33329" style="fill: rgb(0, 0, 0); fill-opacity: 0;"/></g><g class="traces" transform="translate(79.375, 15.166645)" style="opacity: 1;"><text class="legendtext" text-anchor="start" x="40" y="5.199987" style="font-family: 'Latin Modern Roman'; font-size: 13.3333px; fill: rgb(0, 0, 0); fill-opacity: 1; white-space: pre;">Present Work</text><g class="layers" style="opacity: 1;"><g class="legendfill"/><g class="legendlines"><path class="js-line" d="M5,0h30" style="fill: none; stroke: rgb(0, 0, 0); stroke-opacity: 1; stroke-width: 1px;"/></g><g class="legendsymbols"><g class="legendpoints"/></g></g><rect class="legendtoggle" x="0" y="-10.166645" width="114.703125" height="20.33329" style="fill: rgb(0, 0, 0); fill-opacity: 0;"/></g><g class="traces" transform="translate(196.578125, 15.166645)" style="opacity: 1;"><text class="legendtext" text-anchor="start" x="40" y="5.199987" style="font-family: 'Latin Modern Roman'; font-size: 13.3333px; fill: rgb(0, 0, 0); fill-opacity: 1; white-space: pre;">Smoothing</text><g class="layers" style="opacity: 1;"><g class="legendfill"/><g class="legendlines"><path class="js-line" d="M5,0h30" style="fill: none; stroke: rgb(0, 0, 255); stroke-opacity: 1; stroke-width: 1px;"/></g><g class="legendsymbols"><g class="legendpoints"/></g></g><rect class="legendtoggle" x="0" y="-10.166645" width="101.359375" height="20.33329" style="fill: rgb(0, 0, 0); fill-opacity: 0;"/></g><g class="traces" transform="translate(300.4375, 15.166645)" style="opacity: 1;"><text class="legendtext" text-anchor="start" x="40" y="5.199987" style="font-family: 'Latin Modern Roman'; font-size: 13.3333px; fill: rgb(0, 0, 0); fill-opacity: 1; white-space: pre;">Lowpass Filter</text><g class="layers" style="opacity: 1;"><g class="legendfill"/><g class="legendlines"><path class="js-line" d="M5,0h30" style="fill: none; stroke: rgb(0, 128, 0); stroke-opacity: 1; stroke-width: 1px;"/></g><g class="legendsymbols"><g class="legendpoints"/></g></g><rect class="legendtoggle" x="0" y="-10.166645" width="122.671875" height="20.33329" style="fill: rgb(0, 0, 0); fill-opacity: 0;"/></g><g class="traces" transform="translate(425.609375, 15.166645)" style="opacity: 1;"><text class="legendtext" text-anchor="start" x="40" y="5.199987" style="font-family: 'Latin Modern Roman'; font-size: 13.3333px; fill: rgb(0, 0, 0); fill-opacity: 1; white-space: pre;">Hilbert</text><g class="layers" style="opacity: 1;"><g class="legendfill"/><g class="legendlines"><path class="js-line" d="M5,0h30" style="fill: none; stroke: rgb(255, 0, 0); stroke-opacity: 1; stroke-width: 1px;"/></g><g class="legendsymbols"><g class="legendpoints"/></g></g><rect class="legendtoggle" x="0" y="-10.166645" width="80.5625" height="20.33329" style="fill: rgb(0, 0, 0); fill-opacity: 0;"/></g></g></g><rect class="scrollbar" rx="20" ry="3" width="0" height="0" style="fill: rgb(128, 139, 164); fill-opacity: 1;" x="0" y="0"/></g><g class="g-gtitle"/><g class="g-xtitle" transform="translate(0,-2.677059999999983)"><text class="xtitle" x="348.5" y="299.67706" text-anchor="middle" style="font-family: 'Latin Modern Roman'; font-size: 13.33px; fill: rgb(0, 0, 0); opacity: 1; font-weight: normal; white-space: pre;"><tspan style="font-weight:bold"><tspan style="font-style:italic">i</tspan></tspan></text></g><g class="g-ytitle" transform="translate(11.5205078125,0)"><text class="ytitle" transform="rotate(-90,0.47919000000000267,140.5)" x="0.47919000000000267" y="140.5" text-anchor="middle" style="font-family: 'Latin Modern Roman'; font-size: 13.33px; fill: rgb(0, 0, 0); opacity: 1; font-weight: normal; white-space: pre;"><tspan style="font-weight:bold">Amplitude</tspan></text></g></g></svg>