<svg class="main-svg" xmlns="http://www.w3.org/2000/svg" xmlns:xlink="http://www.w3.org/1999/xlink" width="650" height="280" style="" viewBox="0 0 650 280"><rect x="0" y="0" width="650" height="280" style="fill: rgb(255, 255, 255); fill-opacity: 1;"/><defs id="defs-169bbb"><g class="clips"><clipPath id="clip169bbbxyplot" class="plotclip"><rect width="600" height="216"/></clipPath><clipPath class="axesclip" id="clip169bbbx"><rect x="50" y="0" width="600" height="280"/></clipPath><clipPath class="axesclip" id="clip169bbby"><rect x="0" y="22" width="650" height="216"/></clipPath><clipPath class="axesclip" id="clip169bbbxy"><rect x="50" y="22" width="600" height="216"/></clipPath></g><g class="gradients"/></defs><g class="bglayer"/><g class="layer-below"><g class="imagelayer"/><g class="shapelayer"/></g><g class="cartesianlayer"><g class="subplot xy"><g class="layer-subplot"><g class="shapelayer"/><g class="imagelayer"/></g><g class="gridlayer"><g class="x"/><g class="y"/></g><g class="zerolinelayer"/><path class="xlines-below"/><path class="ylines-below"/><g class="overlines-below"/><g class="xaxislayer-below"/><g class="yaxislayer-below"/><g class="overaxes-below"/><g class="plot" transform="translate(50, 22)" clip-path="url('#clip169bbbxyplot')"><g class="scatterlayer mlayer"><g class="trace scatter trace129eae" style="stroke-miterlimit: 2; opacity: 1;"><g class="fills"/><g class="errorbars"/><g class="lines"><path class="js-line" d="M0,205.2L0.24,202.02L0.26,201.65L1.17,140.91L1.18,139.6L3.01,10.81L3.33,16.67L3.35,17.15L4.56,113.88L4.57,115.25L6,205.2L6.31,200.02L6.33,199.56L7.46,112.5L7.47,111.11L8.94,11.01L8.95,10.92L9.17,12.34L9.18,12.6L9.58,28.09L9.59,28.88L10.3,87.73L10.31,89.08L12,205.2L12.33,199.56L12.34,199.09L13.51,106.97L13.52,105.58L15.01,10.81L15.32,16.21L15.33,16.67L15.85,46.86L15.86,47.94L16.86,143.5L16.87,144.79L18,205.2L18.08,204.84L18.1,204.71L18.63,185.06L18.64,184.2L21.01,10.81L21.25,14.17L21.27,14.53L22.22,79.69L22.23,81.01L24,205.2L24.33,199.56L24.34,199.09L25.51,106.97L25.52,105.58L27.01,10.81L27.32,16.21L27.33,16.67L27.85,46.86L27.86,47.94L28.86,143.5L28.87,144.79L30,205.2L30.33,199.56L30.34,199.09L31.51,106.97L31.52,105.58L33.01,10.81L33.32,16.21L33.33,16.67L33.85,46.86L33.86,47.94L34.86,143.5L34.87,144.79L36,205.2L36.33,199.56L36.34,199.09L37.51,106.97L37.52,105.58L39.01,10.81L39.32,16.21L39.33,16.67L39.85,46.86L39.86,47.94L40.86,143.5L40.87,144.79L42,205.2L42.33,199.56L42.34,199.09L43.51,106.97L43.52,105.58L45.01,10.81L45.32,16.21L45.33,16.67L45.85,46.86L45.86,47.94L46.86,143.5L46.87,144.79L48,205.2L48.33,199.56L48.34,199.09L49.51,106.97L49.52,105.58L51.01,10.81L51.32,16.21L51.33,16.67L51.85,46.86L51.87,47.94L54,205.2L54.04,205.1L54.06,205.04L54.46,194.01L54.48,193.35L57.01,10.81L57.33,16.67L57.35,17.15L58.56,113.88L58.57,115.25L60,205.2L60.31,200.02L60.33,199.56L61.46,112.5L61.47,111.11L62.94,11.01L62.95,10.92L63.17,12.34L63.19,12.6L63.93,53.54L63.95,54.69L65.99,205.19L66,205.2L66.22,202.68L66.23,202.36L66.67,182.46L66.68,181.56L67.47,111.11L67.48,109.73L69.01,10.81L69.32,16.21L69.33,16.67L69.85,46.86L69.87,47.94L72,205.2L72.04,205.1L72.06,205.04L72.46,194.01L72.48,193.35L75.01,10.81L75.32,16.21L75.34,16.67L76.49,106.97L76.51,108.34L77.95,205.04L77.96,205.1L78.18,203.54L78.19,203.27L78.6,186.71L78.61,185.89L79.34,124.88L79.35,123.5L80.91,11.22L80.93,11.1L81.01,10.81L81.27,14.53L81.28,14.92L82.27,85.02L82.29,86.37L83.91,204.71L83.92,204.84L84,205.2L84.25,202.02L84.26,201.65L85.17,140.91L85.19,139.6L86.91,11.22L86.93,11.1L87.01,10.81L87.27,14.53L87.28,14.92L88.27,85.02L88.29,86.37L89.91,204.71L89.92,204.84L90,205.2L90.25,202.02L90.26,201.65L91.17,140.91L91.19,139.6L92.91,11.22L92.93,11.1L93.01,10.81L93.27,14.53L93.28,14.92L94.27,85.02L94.29,86.37L95.91,204.71L95.92,204.84L96,205.2L96.25,202.02L96.26,201.65L97.17,140.91L97.19,139.6L98.91,11.22L98.93,11.1L99.01,10.81L99.27,14.53L99.28,14.92L100.27,85.02L100.29,86.37L101.91,204.71L101.92,204.84L102,205.2L102.25,202.02L102.26,201.65L103.17,140.91L103.19,139.6L104.91,11.22L104.93,11.1L105.01,10.81L105.27,14.53L105.28,14.92L106.27,85.02L106.29,86.37L107.91,204.71L107.92,204.84L108,205.2L108.25,202.02L108.26,201.65L109.17,140.91L109.19,139.6L110.91,11.22L110.93,11.1L111.01,10.81L111.27,14.53L111.28,14.92L111.76,39.64L111.77,40.64L114,205.2L114.15,204L114.17,203.78L114.85,169.67L114.86,168.59L117.01,10.81L117.06,11.01L117.08,11.1L117.55,26.55L117.57,27.31L120,205.2L120.3,200.46L120.32,200.02L121.42,116.64L121.43,115.25L122.94,11.01L122.96,10.92L123.19,12.6L123.2,12.88L123.96,55.85L123.98,57.03L125.98,205.15L125.99,205.19L126.21,202.98L126.22,202.68L127.04,153.56L127.05,152.34L128.93,11.1L128.94,11.01L129.01,10.81L129.21,13.17L129.23,13.48L130.06,64.28L130.07,65.52L131.93,204.94L131.95,205.04L132,205.2L132.19,203.27L132.21,202.98L133,157.2L133.01,155.99L134.96,10.92L134.97,10.87L135.17,12.34L135.19,12.6L135.94,53.54L135.95,54.69L137.99,205.19L138,205.2L138.22,202.68L138.23,202.36L138.67,182.46L138.68,181.56L139.47,111.11L139.49,109.73L140.94,11.01L140.96,10.92L141.19,12.6L141.2,12.88L141.96,55.85L141.98,57.03L143.98,205.15L143.99,205.19L144.21,202.98L144.22,202.68L145.04,153.56L145.05,152.34L146.93,11.1L146.94,11.01L147.01,10.81L147.21,13.17L147.23,13.48L148.06,64.28L148.07,65.52L149.92,204.84L149.94,204.94L150,205.2L150.26,201.65L150.28,201.28L151.28,130.3L151.3,128.95L152.92,11.22L152.93,11.1L153.01,10.81L153.23,13.48L153.24,13.81L153.69,34.89L153.7,35.82L154.51,108.34L154.52,109.73L155.96,205.1L155.98,205.15L156.21,202.98L156.22,202.68L157.04,153.56L157.05,152.34L158.93,11.1L158.94,11.01L159.01,10.81L159.21,13.17L159.23,13.48L160.06,64.28L160.07,65.52L162,205.2L162.34,199.09L162.36,198.6L163.6,98.67L163.61,97.3L164.98,10.82L165,10.81L165.26,14.17L165.27,14.53L166.22,79.69L166.24,81.01L167.91,204.71L167.92,204.84L168,205.2L168.25,202.02L168.26,201.65L168.71,179.72L168.72,178.77L169.54,104.2L169.55,102.81L171.01,10.81L171.32,16.21L171.34,16.67L172.48,105.58L172.49,106.97L174,205.2L174.33,199.56L174.34,199.09L174.86,168.59L174.87,167.51L175.9,69.29L175.91,68.03L177.01,10.81L177.09,11.22L177.11,11.36L177.64,31.37L177.65,32.23L180,205.2L180.26,201.65L180.28,201.28L181.27,131.64L181.28,130.3L183.01,10.81L183.32,16.21L183.34,16.67L184.48,105.58L184.49,106.97L186,205.2L186.33,199.56L186.34,199.09L186.86,168.59L186.87,167.51L187.9,69.29L187.91,68.03L189.01,10.81L189.09,11.22L189.11,11.36L189.64,31.37L189.65,32.23L192,205.2L192.26,201.65L192.28,201.28L193.27,131.64L193.28,130.3L195.01,10.81L195.32,16.21L195.34,16.67L196.48,105.58L196.49,106.97L198,205.2L198.33,199.56L198.34,199.09L198.88,167.51L198.89,166.4L201.01,10.81L201.05,10.92L201.07,11.01L201.49,22.97L201.5,23.65L204,205.2L204.32,200.02L204.33,199.56L205.46,112.5L205.47,111.11L207.01,10.81L207.32,16.21L207.34,16.67L208.48,105.58L208.49,106.97L210,205.2L210.33,199.56L210.34,199.09L210.88,167.51L210.89,166.4L213.01,10.81L213.05,10.92L213.07,11.01L213.49,22.97L213.5,23.65L214.14,71.85L214.15,73.14L216,205.2L216.33,199.56L216.35,199.09L217.53,105.58L217.54,104.2L219.01,10.81L219.32,16.21L219.34,16.67L220.48,105.58L220.49,106.97L222.01,205.2L222.33,199.56L222.35,199.09L223.53,105.58L223.54,104.2L225.01,10.81L225.32,16.21L225.34,16.67L226.48,105.58L226.49,106.97L228.01,205.2L228.33,199.56L228.35,199.09L229.53,105.58L229.54,104.2L231.01,10.81L231.32,16.21L231.34,16.67L232.5,106.97L232.51,108.34L233.95,205.04L233.96,205.1L234.18,203.54L234.2,203.27L234.97,159.56L234.98,158.39L237.01,10.81L237.35,17.15L237.37,17.65L238.63,120.77L238.64,122.14L240.01,205.2L240.33,199.56L240.35,199.09L241.53,105.58L241.54,104.2L243.01,10.81L243.33,16.21L243.34,16.67L244.5,106.97L244.51,108.34L245.95,205.04L245.96,205.1L246.18,203.54L246.2,203.27L246.97,159.56L246.99,158.39L248.97,10.87L248.99,10.82L249.22,13.17L249.23,13.48L250.06,64.28L250.07,65.52L252.01,205.2L252.35,199.09L252.36,198.6L253.6,98.67L253.61,97.3L254.97,10.87L254.99,10.82L255.22,13.17L255.23,13.48L256.06,64.28L256.07,65.52L258.01,205.2L258.35,199.09L258.36,198.6L259.6,98.67L259.61,97.3L260.97,10.87L260.99,10.82L261.22,13.17L261.23,13.48L262.06,64.28L262.07,65.52L264.01,205.2L264.35,199.09L264.36,198.6L265.6,98.67L265.61,97.3L267.01,10.81L267.33,16.21L267.34,16.67L268.5,106.97L268.51,108.34L269.95,205.04L269.97,205.1L270.18,203.54L270.2,203.27L270.97,159.56L270.99,158.39L272.97,10.87L272.99,10.82L273.22,13.17L273.23,13.48L274.06,64.28L274.07,65.52L276.01,205.2L276.35,199.09L276.36,198.6L277.6,98.67L277.61,97.3L279.01,10.81L279.33,16.21L279.34,16.67L280.5,106.97L280.51,108.34L281.95,205.04L281.97,205.1L282.18,203.54L282.2,203.27L282.97,159.56L282.99,158.39L284.97,10.87L284.99,10.82L285.22,13.17L285.23,13.48L286.06,64.28L286.07,65.52L288.01,205.2L288.35,199.09L288.36,198.6L289.6,98.67L289.61,97.3L291.01,10.81L291.33,16.21L291.34,16.67L292.5,106.97L292.51,108.34L293.95,205.04L293.97,205.1L294.18,203.54L294.2,203.27L294.96,160.73L294.97,159.56L296.17,45.79L296.18,44.73L297.01,10.81L297.37,17.65L297.38,18.17L298.71,128.95L298.73,130.3L300.01,205.2L300.03,205.15L300.05,205.1L300.41,196.45L300.43,195.87L302.16,46.86L302.17,45.79L303.01,10.81L303.22,13.17L303.23,13.48L304.06,64.28L304.07,65.52L306.01,205.2L306.35,199.09L306.36,198.6L307.6,98.67L307.61,97.3L309.01,10.81L309.33,16.21L309.34,16.67L310.5,106.97L310.51,108.34L311.95,205.04L311.97,205.1L312.18,203.54L312.2,203.27L312.96,160.73L312.97,159.56L314.17,45.79L314.18,44.73L315.01,10.81L315.37,17.65L315.38,18.17L316.71,128.95L316.73,130.3L318.01,205.2L318.03,205.15L318.05,205.1L318.33,199.56L318.35,199.09L319.53,105.58L319.54,104.2L321.01,10.81L321.33,16.21L321.34,16.67L322.5,106.97L322.51,108.34L323.95,205.04L323.97,205.1L324.18,203.54L324.2,203.27L324.96,160.73L324.97,159.56L326.17,45.79L326.18,44.73L327.01,10.81L327.37,17.65L327.38,18.17L327.94,53.54L327.95,54.69L329.11,165.3L329.12,166.4L330.01,205.2L330.36,198.6L330.37,198.09L330.92,164.17L330.93,163.04L332.05,55.85L332.06,54.69L333.01,10.81L333.35,17.15L333.37,17.65L334.63,120.77L334.65,122.14L336.01,205.2L336.02,205.19L336.27,201.65L336.28,201.28L337.29,130.3L337.3,128.95L338.92,11.22L338.93,11.1L339.01,10.81L339.23,13.48L339.25,13.81L340.14,71.85L340.16,73.14L341.91,204.71L341.93,204.84L342.01,205.2L342.28,201.28L342.29,200.87L342.77,175.86L342.78,174.86L343.65,93.18L343.67,91.8L345.01,10.81L345.03,10.82L345.31,15.76L345.33,16.21L346.43,100.05L346.44,101.44L348.01,205.2L348.33,199.56L348.35,199.09L349.53,105.58L349.55,104.2L350.97,10.87L350.99,10.82L351.22,13.17L351.23,13.48L351.67,33.11L351.68,33.99L352.46,102.81L352.47,104.2L353.95,205.04L353.97,205.1L354.18,203.54L354.2,203.27L354.96,160.73L354.97,159.56L356.17,45.79L356.18,44.73L357.01,10.81L357.37,17.65L357.38,18.17L357.94,53.54L357.95,54.69L359.11,165.3L359.12,166.4L360.01,205.2L360.36,198.6L360.38,198.09L361.67,91.8L361.68,90.44L363.02,10.81L363.33,16.21L363.34,16.67L363.86,46.86L363.87,47.94L364.87,143.5L364.88,144.79L366.01,205.2L366.09,204.84L366.1,204.71L366.48,193.35L366.5,192.69L369.02,10.81L369.33,16.21L369.34,16.67L369.86,46.86L369.87,47.94L370.87,143.5L370.88,144.79L372.01,205.2L372.09,204.84L372.1,204.71L372.48,193.35L372.5,192.69L375.02,10.81L375.33,16.21L375.34,16.67L375.86,46.86L375.87,47.94L376.87,143.5L376.88,144.79L378.01,205.2L378.09,204.84L378.1,204.71L378.48,193.35L378.5,192.69L381.02,10.81L381.33,16.21L381.34,16.67L381.86,46.86L381.87,47.94L382.87,143.5L382.88,144.79L384.01,205.2L384.09,204.84L384.1,204.71L384.48,193.35L384.5,192.69L387.02,10.81L387.33,16.21L387.34,16.67L387.86,46.86L387.87,47.94L388.87,143.5L388.88,144.79L390.01,205.2L390.09,204.84L390.1,204.71L390.49,193.35L390.5,192.69L393.02,10.81L393.33,16.21L393.34,16.67L393.86,46.86L393.87,47.94L394.87,143.5L394.88,144.79L396.01,205.2L396.09,204.84L396.1,204.71L396.49,193.35L396.5,192.69L399.02,10.81L399.33,16.21L399.34,16.67L399.86,46.86L399.87,47.94L400.87,143.5L400.88,144.79L402.01,205.2L402.09,204.84L402.1,204.71L402.49,193.35L402.5,192.69L405.02,10.81L405.33,16.21L405.34,16.67L405.86,46.86L405.87,47.94L406.87,143.5L406.88,144.79L408.01,205.2L408.09,204.84L408.1,204.71L408.49,193.35L408.5,192.69L411.02,10.81L411.33,16.21L411.34,16.67L411.86,46.86L411.87,47.94L412.87,143.5L412.88,144.79L414.01,205.2L414.09,204.84L414.1,204.71L414.49,193.35L414.5,192.69L417.02,10.81L417.33,16.21L417.34,16.67L417.86,46.86L417.87,47.94L418.87,143.5L418.88,144.79L420.01,205.2L420.09,204.84L420.1,204.71L420.49,193.35L420.5,192.69L423.02,10.81L423.33,16.21L423.34,16.67L423.86,46.86L423.87,47.94L424.87,143.5L424.88,144.79L426.01,205.2L426.09,204.84L426.1,204.71L426.49,193.35L426.5,192.69L429.02,10.81L429.33,16.21L429.34,16.67L429.86,46.86L429.87,47.94L430.87,143.5L430.88,144.79L432.01,205.2L432.09,204.84L432.11,204.71L432.64,185.06L432.65,184.2L435.02,10.81L435.26,14.17L435.28,14.53L436.23,79.69L436.24,81.01L437.91,204.71L437.93,204.84L438.01,205.2L438.25,202.02L438.27,201.65L439.18,140.91L439.19,139.6L441.02,10.81L441.34,16.67L441.36,17.15L442.57,113.88L442.58,115.25L444.01,205.2L444.32,200.02L444.34,199.56L445.47,112.5L445.48,111.11L446.95,11.01L446.96,10.92L447.19,12.6L447.21,12.88L447.97,55.85L447.98,57.03L449.25,175.86L449.26,176.84L450.01,205.2L450.36,198.6L450.38,198.09L451.67,91.8L451.68,90.44L453.02,10.81L453.33,16.21L453.34,16.67L453.86,46.86L453.87,47.94L454.87,143.5L454.88,144.79L456.01,205.2L456.09,204.84L456.11,204.71L456.64,185.06L456.65,184.2L459.02,10.81L459.26,14.17L459.28,14.53L460.23,79.69L460.24,81.01L462.01,205.2L462.34,199.56L462.35,199.09L463.52,106.97L463.53,105.58L465.02,10.81L465.33,16.21L465.34,16.67L465.86,46.86L465.87,47.94L466.87,143.5L466.88,144.79L468.01,205.2L468.09,204.84L468.11,204.71L468.64,185.06L468.65,184.2L471.02,10.81L471.26,14.17L471.28,14.53L472.23,79.69L472.24,81.01L474.01,205.2L474.34,199.56L474.35,199.09L475.52,106.97L475.53,105.58L477.02,10.81L477.33,16.21L477.34,16.67L477.86,46.86L477.87,47.94L478.87,143.5L478.88,144.79L480.01,205.2L480.34,199.56L480.35,199.09L481.52,106.97L481.53,105.58L483.02,10.81L483.33,16.21L483.34,16.67L483.86,46.86L483.87,47.94L484.87,143.5L484.88,144.79L486.01,205.2L486.34,199.56L486.35,199.09L487.52,106.97L487.53,105.58L489.02,10.81L489.33,16.21L489.34,16.67L489.86,46.86L489.88,47.94L492.01,205.2L492.05,205.1L492.07,205.04L492.47,194.01L492.49,193.35L495.02,10.81L495.34,16.67L495.36,17.15L496.57,113.88L496.58,115.25L498.01,205.2L498.32,200.02L498.34,199.56L499.47,112.5L499.48,111.11L500.95,11.01L500.96,10.92L501.18,12.34L501.2,12.6L501.94,53.54L501.96,54.69L504,205.19L504.01,205.2L504.23,202.68L504.24,202.36L504.68,182.46L504.69,181.56L505.48,111.11L505.49,109.73L507.02,10.81L507.33,16.21L507.34,16.67L507.86,46.86L507.88,47.94L510.01,205.2L510.05,205.1L510.07,205.04L510.47,194.01L510.49,193.35L513.02,10.81L513.34,16.67L513.36,17.15L514.57,113.88L514.58,115.25L516.01,205.2L516.32,200.02L516.34,199.56L517.47,112.5L517.48,111.11L518.95,11.01L518.96,10.92L519.18,12.34L519.2,12.6L519.94,53.54L519.96,54.69L522,205.19L522.01,205.2L522.23,202.68L522.24,202.36L522.68,182.46L522.69,181.56L523.48,111.11L523.49,109.73L525.02,10.81L525.33,16.21L525.35,16.67L526.5,106.97L526.52,108.34L527.96,205.04L527.97,205.1L528.19,203.54L528.2,203.27L528.61,186.71L528.62,185.89L529.35,124.88L529.36,123.5L530.92,11.22L530.94,11.1L531.02,10.81L531.28,14.53L531.29,14.92L532.28,85.02L532.3,86.37L533.92,204.71L533.93,204.84L534.01,205.2L534.26,202.02L534.27,201.65L535.18,140.91L535.2,139.6L536.92,11.22L536.94,11.1L537.02,10.81L537.28,14.53L537.29,14.92L538.28,85.02L538.3,86.37L539.92,204.71L539.93,204.84L540.01,205.2L540.26,202.02L540.27,201.65L541.18,140.91L541.2,139.6L542.92,11.22L542.94,11.1L543.02,10.81L543.28,14.53L543.29,14.92L544.28,85.02L544.3,86.37L545.92,204.71L545.93,204.84L546.01,205.2L546.26,202.02L546.27,201.65L547.18,140.91L547.2,139.6L548.92,11.22L548.94,11.1L549.02,10.81L549.28,14.53L549.29,14.92L550.28,85.02L550.3,86.37L551.92,204.71L551.93,204.84L552.01,205.2L552.26,202.02L552.27,201.65L553.18,140.91L553.2,139.6L554.92,11.22L554.94,11.1L555.02,10.81L555.28,14.53L555.29,14.92L555.77,39.64L555.78,40.64L558.01,205.2L558.16,204L558.18,203.78L558.86,169.67L558.87,168.59L561.02,10.81L561.07,11.01L561.09,11.1L561.56,26.55L561.58,27.31L564.01,205.2L564.31,200.46L564.33,200.02L565.43,116.64L565.44,115.25L566.95,11.01L566.97,10.92L567.2,12.6L567.21,12.88L567.97,55.85L567.99,57.03L569.99,205.15L570,205.19L570.22,202.98L570.23,202.68L571.05,153.56L571.06,152.34L572.94,11.1L572.95,11.01L573.02,10.81L573.22,13.17L573.24,13.48L574.07,64.28L574.08,65.52L575.93,204.84L575.95,204.94L576.01,205.2L576.27,201.65L576.29,201.28L577.29,130.3L577.31,128.95L578.92,11.22L578.94,11.1L579.02,10.81L579.24,13.48L579.25,13.81L580.15,71.85L580.16,73.14L582.01,205.2L582.34,199.56L582.35,199.09L582.87,168.59L582.88,167.51L583.9,69.29L583.92,68.03L585.02,10.81L585.1,11.22L585.12,11.36L585.65,31.37L585.66,32.23L588.01,205.2L588.27,201.65L588.29,201.28L589.29,130.3L589.31,128.95L590.92,11.22L590.94,11.1L591.02,10.81L591.24,13.48L591.25,13.81L591.7,34.89L591.71,35.82L592.52,108.34L592.53,109.73L593.97,205.1L593.99,205.15L594.22,202.98L594.23,202.68L595.05,153.56L595.06,152.34L596.94,11.1L596.95,11.01L597.02,10.81L597.22,13.17L597.24,13.48L598.07,64.28L598.08,65.52L600,205.19" style="vector-effect: non-scaling-stroke; fill: none; stroke: rgb(192, 192, 192); stroke-opacity: 1; stroke-width: 0.5px; opacity: 1;"/></g><g class="points"/><g class="text"/></g><g class="trace scatter tracee597af" style="stroke-miterlimit: 2; opacity: 1;"><g class="fills"/><g class="errorbars"/><g class="lines"><path class="js-line" d="M0,17.87L0.78,39.45L0.79,39.66L1.85,48.22L1.97,48.08L1.99,48.06L3.09,45.24L3.42,45.84L3.43,45.88L4.48,49.16L4.82,48.39L4.83,48.34L6.04,43.73L6.38,44.37L6.39,44.42L7.54,48.52L7.88,47.75L7.89,47.7L9.02,43.71L9.37,44.38L9.39,44.43L10.52,48.59L10.88,47.78L10.9,47.73L12.01,43.73L12.37,44.37L12.38,44.41L13.52,48.59L13.88,47.8L13.89,47.75L15.02,43.73L15.37,44.39L15.39,44.43L16.52,48.59L16.88,47.78L16.9,47.72L18.03,43.73L18.37,44.37L18.38,44.41L19.51,48.59L19.88,47.8L19.89,47.75L21.02,43.73L21.37,44.39L21.39,44.43L22.52,48.59L22.88,47.78L22.9,47.72L24.03,43.73L24.37,44.37L24.38,44.41L25.51,48.59L25.88,47.8L25.89,47.75L27.02,43.73L27.37,44.39L27.39,44.43L28.52,48.59L28.87,47.83L28.89,47.78L30.03,43.73L30.37,44.37L30.38,44.41L31.51,48.59L31.88,47.8L31.89,47.75L33.02,43.73L33.37,44.39L33.39,44.43L34.52,48.59L34.87,47.83L34.89,47.78L36.03,43.73L36.37,44.37L36.38,44.41L37.51,48.59L37.88,47.8L37.89,47.75L39.02,43.73L39.36,44.34L39.38,44.39L40.52,48.59L40.87,47.83L40.89,47.78L42.03,43.73L42.37,44.36L42.38,44.41L43.51,48.59L43.88,47.8L43.89,47.75L45.02,43.73L45.36,44.34L45.38,44.39L46.52,48.59L46.87,47.83L46.89,47.78L48.03,43.73L48.37,44.36L48.38,44.41L49.51,48.59L49.88,47.8L49.89,47.75L51.02,43.73L51.36,44.34L51.38,44.39L52.52,48.59L52.87,47.83L52.89,47.78L54.03,43.73L54.37,44.36L54.38,44.41L55.51,48.59L55.88,47.8L55.89,47.75L57.02,43.73L57.36,44.34L57.38,44.39L58.52,48.59L58.87,47.83L58.89,47.78L60.03,43.73L60.37,44.36L60.38,44.41L61.51,48.59L61.88,47.8L61.89,47.75L63.02,43.73L63.36,44.34L63.38,44.39L64.52,48.59L64.87,47.83L64.89,47.78L66.03,43.73L66.37,44.36L66.38,44.41L67.51,48.59L67.88,47.8L67.89,47.75L69.02,43.73L69.36,44.34L69.38,44.39L70.52,48.59L70.87,47.83L70.89,47.78L72.03,43.73L72.37,44.36L72.38,44.41L73.51,48.59L73.88,47.8L73.89,47.75L75.02,43.73L75.38,44.39L75.39,44.43L76.52,48.59L76.87,47.83L76.89,47.78L78.03,43.73L78.37,44.36L78.38,44.41L79.51,48.59L79.88,47.8L79.89,47.75L81.02,43.73L81.38,44.39L81.39,44.43L82.52,48.59L82.89,47.78L82.9,47.72L84.03,43.73L84.37,44.36L84.38,44.41L85.51,48.59L85.88,47.8L85.89,47.75L87.02,43.73L87.38,44.39L87.39,44.43L88.52,48.59L88.89,47.78L88.9,47.72L90.03,43.73L90.38,44.41L90.4,44.46L91.51,48.59L91.88,47.8L91.89,47.75L93.02,43.73L93.38,44.39L93.39,44.43L94.52,48.59L94.89,47.78L94.9,47.72L96.03,43.73L96.37,44.36L96.38,44.41L97.51,48.59L97.88,47.8L97.89,47.75L99.02,43.73L99.38,44.39L99.39,44.43L100.52,48.59L100.89,47.78L100.9,47.72L102.03,43.73L102.38,44.41L102.4,44.46L103.51,48.59L103.88,47.8L103.89,47.75L105.02,43.73L105.38,44.39L105.39,44.43L106.52,48.59L106.89,47.78L106.9,47.72L108.03,43.73L108.38,44.41L108.4,44.46L109.51,48.59L109.88,47.8L109.89,47.75L111.02,43.73L111.38,44.39L111.39,44.43L112.52,48.59L112.89,47.78L112.9,47.72L114.03,43.73L114.38,44.41L114.4,44.46L115.51,48.59L115.88,47.8L115.89,47.75L117.02,43.73L117.38,44.39L117.39,44.43L118.52,48.59L118.89,47.78L118.9,47.72L120.03,43.73L120.38,44.41L120.4,44.46L121.51,48.59L121.88,47.8L121.89,47.75L123.02,43.73L123.38,44.39L123.39,44.43L124.52,48.59L124.89,47.78L124.9,47.72L126.03,43.73L126.38,44.41L126.4,44.46L127.51,48.59L127.88,47.8L127.89,47.75L129.02,43.73L129.38,44.39L129.39,44.43L130.52,48.59L130.89,47.78L130.9,47.72L132.03,43.73L132.38,44.41L132.4,44.46L133.51,48.59L133.88,47.8L133.89,47.75L135.02,43.73L135.39,44.43L135.4,44.48L136.52,48.59L136.87,47.83L136.89,47.78L138.03,43.73L138.37,44.36L138.38,44.41L139.51,48.59L139.88,47.8L139.89,47.75L141.02,43.73L141.39,44.43L141.4,44.48L142.52,48.59L142.87,47.83L142.89,47.78L144.03,43.73L144.37,44.36L144.38,44.41L145.51,48.59L145.88,47.8L145.89,47.75L147.02,43.73L147.39,44.43L147.4,44.48L148.52,48.59L148.87,47.83L148.89,47.78L150.03,43.73L150.37,44.36L150.38,44.41L151.51,48.59L151.88,47.8L151.89,47.75L153.02,43.73L153.39,44.43L153.4,44.48L154.52,48.59L154.87,47.83L154.89,47.78L156.03,43.73L156.37,44.36L156.38,44.41L157.51,48.59L157.88,47.8L157.89,47.75L159.02,43.73L159.39,44.43L159.4,44.48L160.52,48.59L160.87,47.83L160.89,47.78L162.03,43.73L162.37,44.36L162.38,44.41L163.51,48.59L163.88,47.8L163.89,47.75L165.02,43.73L165.39,44.43L165.41,44.48L166.52,48.59L166.89,47.78L166.9,47.72L168.03,43.73L168.38,44.41L168.4,44.46L169.51,48.59L169.88,47.8L169.9,47.75L171.02,43.73L171.38,44.39L171.39,44.43L172.52,48.59L172.89,47.78L172.9,47.72L174.03,43.73L174.38,44.41L174.4,44.46L175.51,48.59L175.88,47.8L175.9,47.75L177.02,43.73L177.38,44.39L177.39,44.43L178.52,48.59L178.89,47.78L178.9,47.72L180.03,43.73L180.37,44.36L180.39,44.41L181.51,48.59L181.88,47.8L181.9,47.75L183.02,43.73L183.38,44.39L183.39,44.43L184.52,48.59L184.89,47.78L184.9,47.72L186.03,43.73L186.37,44.36L186.39,44.41L187.51,48.59L187.88,47.8L187.9,47.75L189.02,43.73L189.38,44.39L189.39,44.43L190.52,48.59L190.89,47.78L190.9,47.72L192.03,43.73L192.37,44.36L192.39,44.41L193.51,48.59L193.88,47.8L193.9,47.75L195.02,43.73L195.38,44.39L195.39,44.43L196.52,48.59L196.89,47.78L196.9,47.72L198.03,43.73L198.37,44.36L198.39,44.41L199.51,48.59L199.88,47.8L199.9,47.75L201.02,43.73L201.38,44.39L201.39,44.43L202.52,48.59L202.89,47.78L202.9,47.72L204.03,43.73L204.37,44.36L204.39,44.41L205.51,48.59L205.88,47.8L205.9,47.75L207.03,43.73L207.38,44.39L207.39,44.43L208.52,48.59L208.89,47.78L208.9,47.72L210.03,43.73L210.37,44.36L210.39,44.41L211.52,48.59L211.88,47.8L211.9,47.75L213.03,43.73L213.38,44.39L213.39,44.43L214.52,48.59L214.89,47.78L214.9,47.72L216.03,43.73L216.37,44.36L216.39,44.41L217.52,48.59L217.88,47.8L217.9,47.75L219.03,43.73L219.38,44.39L219.39,44.43L220.52,48.59L220.89,47.78L220.9,47.72L222.03,43.73L222.37,44.36L222.39,44.41L223.52,48.59L223.88,47.8L223.9,47.75L225.03,43.73L225.38,44.39L225.39,44.43L226.52,48.59L226.89,47.78L226.9,47.72L228.03,43.73L228.37,44.36L228.39,44.41L229.52,48.59L229.88,47.8L229.9,47.75L231.03,43.73L231.38,44.39L231.39,44.43L232.52,48.59L232.89,47.78L232.9,47.72L234.03,43.73L234.37,44.36L234.39,44.41L235.52,48.59L235.88,47.8L235.9,47.75L237.03,43.73L237.38,44.39L237.39,44.43L238.52,48.59L238.89,47.78L238.9,47.72L240.03,43.73L240.37,44.36L240.39,44.41L241.52,48.59L241.88,47.8L241.9,47.75L243.03,43.73L243.38,44.39L243.39,44.43L244.52,48.59L244.89,47.78L244.9,47.72L246.03,43.73L246.37,44.36L246.39,44.41L247.52,48.59L247.88,47.8L247.9,47.75L249.03,43.73L249.38,44.39L249.39,44.43L250.52,48.59L250.89,47.78L250.9,47.72L252.03,43.73L252.37,44.36L252.39,44.41L253.52,48.59L253.88,47.8L253.9,47.75L255.03,43.73L255.38,44.39L255.39,44.43L256.52,48.59L256.89,47.78L256.9,47.72L258.03,43.73L258.37,44.36L258.39,44.41L259.52,48.59L259.88,47.8L259.9,47.75L261.03,43.73L261.38,44.39L261.39,44.43L262.52,48.59L262.89,47.78L262.9,47.72L264.03,43.73L264.37,44.36L264.39,44.41L265.52,48.59L265.88,47.8L265.9,47.75L267.03,43.73L267.38,44.39L267.39,44.43L268.52,48.59L268.89,47.78L268.9,47.72L270.03,43.73L270.37,44.36L270.39,44.41L271.52,48.59L271.88,47.8L271.9,47.75L273.03,43.73L273.38,44.39L273.39,44.43L274.52,48.59L274.89,47.78L274.9,47.72L276.03,43.73L276.39,44.41L276.4,44.46L277.52,48.59L277.88,47.8L277.9,47.75L279.03,43.73L279.38,44.39L279.39,44.43L280.52,48.59L280.89,47.78L280.9,47.72L282.03,43.73L282.39,44.41L282.4,44.46L283.52,48.59L283.88,47.8L283.9,47.75L285.03,43.73L285.38,44.39L285.39,44.43L286.55,48.58L286.89,47.78L286.9,47.72L288.03,43.73L288.39,44.41L288.4,44.46L289.52,48.59L289.88,47.8L289.9,47.75L291.03,43.73L291.38,44.39L291.39,44.43L292.55,48.58L292.89,47.78L292.9,47.72L294.03,43.73L294.39,44.41L294.4,44.46L295.52,48.59L295.88,47.8L295.9,47.75L297.03,43.73L297.38,44.39L297.39,44.43L298.55,48.58L298.89,47.78L298.9,47.72L300.03,43.73L300.39,44.41L300.4,44.46L301.52,48.59L301.88,47.8L301.9,47.75L303.03,43.73L303.38,44.39L303.39,44.43L304.55,48.58L304.89,47.78L304.9,47.72L306.03,43.73L306.39,44.41L306.4,44.46L307.52,48.59L307.88,47.8L307.9,47.75L309.03,43.73L309.38,44.39L309.39,44.43L310.55,48.58L310.89,47.78L310.91,47.72L312.03,43.73L312.37,44.36L312.39,44.41L313.52,48.59L313.88,47.8L313.9,47.75L315.03,43.73L315.38,44.39L315.39,44.43L316.55,48.58L316.89,47.78L316.91,47.72L318.03,43.73L318.37,44.36L318.39,44.41L319.52,48.59L319.88,47.8L319.9,47.75L321.03,43.73L321.38,44.39L321.4,44.43L322.52,48.59L322.89,47.78L322.91,47.72L324.03,43.73L324.37,44.36L324.39,44.41L325.52,48.59L325.88,47.8L325.9,47.75L327.03,43.73L327.38,44.39L327.4,44.43L328.52,48.59L328.89,47.78L328.91,47.72L330.03,43.73L330.37,44.36L330.39,44.41L331.52,48.59L331.89,47.8L331.9,47.75L333.03,43.73L333.38,44.39L333.4,44.43L334.52,48.59L334.89,47.78L334.91,47.72L336.03,43.73L336.39,44.41L336.4,44.46L337.52,48.59L337.89,47.8L337.9,47.75L339.03,43.73L339.38,44.39L339.4,44.43L340.52,48.59L340.89,47.78L340.91,47.72L342.03,43.73L342.39,44.41L342.4,44.46L343.52,48.59L343.89,47.8L343.9,47.75L345.03,43.73L345.38,44.39L345.4,44.43L346.52,48.59L346.89,47.78L346.91,47.72L348.04,43.73L348.39,44.41L348.4,44.46L349.52,48.59L349.89,47.8L349.9,47.75L351.03,43.73L351.38,44.39L351.4,44.43L352.53,48.59L352.89,47.78L352.91,47.72L354.04,43.73L354.39,44.41L354.4,44.46L355.52,48.59L355.89,47.8L355.9,47.75L357.03,43.73L357.38,44.39L357.4,44.43L358.53,48.59L358.89,47.78L358.91,47.72L360.04,43.73L360.39,44.41L360.4,44.46L361.52,48.59L361.89,47.8L361.9,47.75L363.03,43.73L363.38,44.39L363.4,44.43L364.53,48.59L364.89,47.78L364.91,47.72L366.04,43.73L366.39,44.41L366.4,44.46L367.52,48.59L367.89,47.8L367.9,47.75L369.03,43.73L369.38,44.39L369.4,44.43L370.53,48.59L370.89,47.78L370.91,47.72L372.04,43.73L372.39,44.41L372.4,44.46L373.52,48.59L373.89,47.8L373.9,47.75L375.03,43.73L375.38,44.39L375.4,44.43L376.53,48.59L376.89,47.78L376.91,47.72L378.04,43.73L378.39,44.41L378.4,44.46L379.52,48.59L379.89,47.8L379.9,47.75L381.03,43.73L381.38,44.39L381.4,44.43L382.53,48.59L382.89,47.78L382.91,47.72L384.04,43.73L384.39,44.41L384.4,44.46L385.52,48.59L385.89,47.8L385.9,47.75L387.03,43.73L387.38,44.39L387.4,44.43L388.53,48.59L388.89,47.78L388.91,47.72L390.04,43.73L390.39,44.41L390.4,44.46L391.52,48.59L391.89,47.8L391.9,47.75L393.03,43.73L393.38,44.39L393.4,44.43L394.53,48.59L394.89,47.78L394.91,47.72L396.04,43.73L396.39,44.41L396.4,44.46L397.52,48.59L397.89,47.8L397.9,47.75L399.03,43.73L399.38,44.39L399.4,44.43L400.53,48.59L400.89,47.78L400.91,47.72L402.04,43.73L402.39,44.41L402.4,44.46L403.52,48.59L403.89,47.8L403.9,47.75L405.03,43.73L405.38,44.39L405.4,44.43L406.53,48.59L406.89,47.78L406.91,47.72L408.04,43.73L408.39,44.41L408.4,44.46L409.52,48.59L409.89,47.8L409.9,47.75L411.03,43.73L411.38,44.39L411.4,44.43L412.53,48.59L412.89,47.78L412.91,47.72L414.04,43.73L414.39,44.41L414.4,44.46L415.52,48.59L415.89,47.8L415.9,47.75L417.03,43.73L417.38,44.39L417.4,44.43L418.53,48.59L418.89,47.78L418.91,47.72L420.04,43.73L420.39,44.41L420.4,44.46L421.52,48.59L421.89,47.8L421.9,47.75L423.03,43.73L423.38,44.39L423.4,44.43L424.53,48.59L424.89,47.78L424.91,47.72L426.04,43.73L426.39,44.41L426.4,44.46L427.55,48.58L427.89,47.8L427.9,47.75L429.03,43.73L429.38,44.39L429.4,44.43L430.53,48.59L430.89,47.78L430.91,47.72L432.04,43.73L432.39,44.41L432.4,44.46L433.55,48.58L433.89,47.8L433.9,47.75L435.03,43.73L435.38,44.39L435.4,44.43L436.53,48.59L436.89,47.78L436.91,47.72L438.04,43.73L438.39,44.41L438.4,44.46L439.55,48.58L439.89,47.8L439.9,47.75L441.03,43.73L441.38,44.39L441.4,44.43L442.53,48.59L442.89,47.78L442.91,47.72L444.04,43.73L444.39,44.41L444.4,44.46L445.55,48.58L445.89,47.8L445.9,47.75L447.03,43.73L447.38,44.39L447.4,44.43L448.53,48.59L448.89,47.78L448.91,47.72L450.04,43.73L450.39,44.41L450.4,44.46L451.55,48.58L451.89,47.8L451.9,47.75L453.03,43.73L453.38,44.39L453.4,44.43L454.53,48.59L454.89,47.78L454.91,47.72L456.04,43.73L456.39,44.41L456.4,44.46L457.55,48.58L457.89,47.8L457.9,47.75L459.03,43.73L459.38,44.39L459.4,44.43L460.53,48.59L460.89,47.78L460.91,47.72L462.04,43.73L462.39,44.41L462.41,44.46L463.52,48.59L463.89,47.8L463.9,47.75L465.03,43.73L465.38,44.39L465.4,44.43L466.53,48.59L466.89,47.78L466.91,47.72L468.04,43.73L468.39,44.41L468.41,44.46L469.52,48.59L469.89,47.8L469.9,47.75L471.03,43.73L471.38,44.39L471.4,44.43L472.53,48.59L472.88,47.83L472.9,47.78L474.04,43.73L474.38,44.36L474.39,44.41L475.52,48.59L475.89,47.8L475.9,47.75L477.03,43.73L477.38,44.39L477.4,44.43L478.53,48.59L478.88,47.83L478.9,47.78L480.04,43.73L480.38,44.36L480.39,44.41L481.52,48.59L481.89,47.8L481.9,47.75L483.03,43.73L483.37,44.34L483.39,44.39L484.53,48.59L484.88,47.83L484.9,47.78L486.04,43.73L486.38,44.36L486.39,44.41L487.52,48.59L487.89,47.8L487.9,47.75L489.03,43.73L489.37,44.34L489.39,44.39L490.53,48.59L490.88,47.83L490.9,47.78L492.04,43.73L492.38,44.36L492.39,44.41L493.52,48.59L493.89,47.8L493.9,47.75L495.03,43.73L495.37,44.34L495.39,44.39L496.53,48.59L496.88,47.83L496.9,47.78L498.04,43.73L498.38,44.36L498.39,44.41L499.52,48.59L499.89,47.8L499.9,47.75L501.03,43.73L501.37,44.34L501.39,44.39L502.53,48.59L502.88,47.83L502.9,47.78L504.04,43.73L504.38,44.36L504.39,44.41L505.52,48.59L505.89,47.8L505.9,47.75L507.03,43.73L507.37,44.34L507.39,44.39L508.53,48.59L508.88,47.83L508.9,47.78L510.04,43.73L510.38,44.36L510.39,44.41L511.52,48.59L511.89,47.8L511.9,47.75L513.03,43.73L513.39,44.39L513.4,44.43L514.53,48.59L514.88,47.83L514.9,47.78L516.04,43.73L516.38,44.36L516.39,44.41L517.52,48.59L517.89,47.8L517.9,47.75L519.03,43.73L519.39,44.39L519.4,44.43L520.53,48.59L520.9,47.78L520.91,47.72L522.04,43.73L522.39,44.41L522.41,44.46L523.52,48.59L523.89,47.8L523.9,47.75L525.03,43.73L525.39,44.39L525.4,44.43L526.53,48.59L526.9,47.78L526.91,47.72L528.04,43.73L528.39,44.41L528.41,44.46L529.52,48.59L529.89,47.8L529.9,47.75L531.03,43.73L531.39,44.39L531.4,44.43L532.53,48.59L532.9,47.78L532.91,47.72L534.04,43.73L534.39,44.41L534.41,44.46L535.52,48.59L535.89,47.8L535.9,47.75L537.03,43.73L537.39,44.39L537.4,44.43L538.53,48.59L538.9,47.78L538.91,47.72L540.04,43.73L540.39,44.41L540.41,44.46L541.52,48.59L541.89,47.8L541.9,47.75L543.03,43.73L543.39,44.39L543.4,44.43L544.53,48.59L544.9,47.78L544.91,47.72L546.04,43.73L546.39,44.41L546.41,44.46L547.52,48.59L547.89,47.8L547.9,47.75L549.03,43.73L549.39,44.39L549.4,44.43L550.53,48.59L550.9,47.78L550.91,47.72L552.04,43.73L552.39,44.41L552.41,44.46L553.52,48.59L553.89,47.8L553.9,47.75L555.03,43.73L555.39,44.39L555.4,44.43L556.53,48.59L556.9,47.78L556.91,47.72L558.04,43.73L558.39,44.41L558.41,44.46L559.52,48.59L559.89,47.8L559.9,47.75L561.03,43.73L561.39,44.39L561.4,44.43L562.53,48.59L562.9,47.78L562.91,47.72L564.04,43.73L564.39,44.41L564.41,44.46L565.52,48.59L565.89,47.81L565.9,47.75L567.03,43.73L567.39,44.39L567.4,44.43L568.53,48.59L568.9,47.78L568.91,47.72L570.04,43.73L570.39,44.41L570.41,44.46L571.52,48.59L571.89,47.81L571.9,47.75L573.03,43.73L573.39,44.39L573.4,44.43L574.53,48.59L574.9,47.78L574.91,47.72L576.04,43.73L576.39,44.41L576.41,44.46L577.52,48.59L577.89,47.81L577.9,47.75L579.03,43.73L579.4,44.43L579.41,44.48L580.53,48.59L580.88,47.83L580.9,47.78L582.04,43.73L582.38,44.36L582.39,44.41L583.52,48.59L583.89,47.81L583.9,47.75L585.03,43.73L585.4,44.43L585.41,44.48L586.53,48.59L586.88,47.83L586.9,47.78L588.04,43.73L588.38,44.36L588.39,44.41L589.54,48.59L589.89,47.81L589.9,47.76L591.03,43.74L591.4,44.45L591.41,44.49L592.53,48.59L592.88,47.82L592.9,47.77L594.05,43.62L594.39,44.24L594.41,44.29L595.52,48.27L595.89,47.49L595.9,47.44L596.97,43.85L597.31,44.6L597.32,44.65L598.9,52.55L599.25,52.02L599.27,51.98L599.92,48.84L599.93,48.89L599.95,47.98L600,38.84" style="vector-effect: non-scaling-stroke; fill: none; stroke: rgb(255, 0, 0); stroke-opacity: 1; stroke-width: 1px; opacity: 1;"/></g><g class="points"/><g class="text"/></g><g class="trace scatter traceb8342b" style="stroke-miterlimit: 2; opacity: 1;"><g class="fills"/><g class="errorbars"/><g class="lines"><path class="js-line" d="M0,43.7L4.39,46.21L4.41,46.21L8.67,47.11L8.68,47.11L14.48,46.76L14.49,46.75L20.64,45.19L20.65,45.17L21.24,45.04L21.47,45.36L21.48,45.39L22.63,47.45L22.91,46.99L22.93,46.96L24.08,44.94L24.31,45.12L24.33,45.14L25.61,47.46L25.92,46.98L25.93,46.94L27.13,44.96L27.37,45.21L27.39,45.23L28.63,47.45L28.91,46.99L28.93,46.96L30.08,44.94L30.31,45.12L30.33,45.14L31.61,47.46L31.92,46.98L31.93,46.94L33.13,44.96L33.37,45.21L33.39,45.23L34.63,47.45L34.91,46.99L34.93,46.96L36.08,44.94L36.31,45.12L36.33,45.14L37.61,47.46L37.92,46.98L37.93,46.94L39.13,44.96L39.38,45.21L39.39,45.23L40.63,47.45L40.91,46.99L40.93,46.96L42.08,44.94L42.31,45.12L42.33,45.14L43.61,47.46L43.92,46.98L43.93,46.94L45.13,44.96L45.38,45.21L45.39,45.23L46.63,47.45L46.91,46.99L46.93,46.96L48.08,44.94L48.31,45.12L48.33,45.14L49.61,47.46L49.92,46.98L49.93,46.94L51.13,44.96L51.38,45.21L51.39,45.23L52.63,47.45L52.91,46.99L52.93,46.96L54.08,44.94L54.31,45.12L54.33,45.14L55.61,47.46L55.92,46.98L55.93,46.94L57.13,44.96L57.38,45.21L57.39,45.23L58.63,47.45L58.91,46.99L58.93,46.96L60.08,44.94L60.31,45.12L60.33,45.14L61.61,47.46L61.92,46.98L61.93,46.94L63.13,44.96L63.38,45.21L63.39,45.23L64.63,47.45L64.91,46.99L64.93,46.96L66.08,44.94L66.31,45.12L66.33,45.14L67.61,47.46L67.92,46.98L67.93,46.94L69.13,44.96L69.38,45.21L69.39,45.23L70.63,47.45L70.91,46.99L70.93,46.96L72.08,44.94L72.31,45.12L72.33,45.14L73.61,47.46L73.92,46.98L73.93,46.94L75.13,44.96L75.38,45.21L75.39,45.23L76.63,47.45L76.91,46.99L76.93,46.96L78.08,44.94L78.31,45.12L78.33,45.14L79.61,47.46L79.92,46.98L79.93,46.94L81.13,44.96L81.38,45.21L81.39,45.23L82.63,47.45L82.91,46.99L82.93,46.96L84.11,44.95L84.36,45.18L84.37,45.2L85.61,47.46L85.92,46.98L85.93,46.94L87.13,44.96L87.38,45.21L87.39,45.23L88.63,47.45L88.91,46.99L88.93,46.96L90.11,44.95L90.36,45.18L90.37,45.2L91.61,47.46L91.92,46.98L91.93,46.94L93.13,44.96L93.38,45.21L93.39,45.23L94.63,47.45L94.91,46.99L94.93,46.96L96.11,44.95L96.36,45.18L96.37,45.2L97.61,47.46L97.92,46.98L97.93,46.94L99.13,44.96L99.38,45.21L99.39,45.23L100.63,47.45L100.91,46.99L100.93,46.96L102.11,44.95L102.36,45.18L102.37,45.2L103.61,47.46L103.92,46.98L103.93,46.94L105.13,44.96L105.38,45.21L105.39,45.23L106.63,47.45L106.91,46.99L106.93,46.96L108.11,44.95L108.36,45.18L108.37,45.2L109.61,47.46L109.92,46.98L109.93,46.94L111.13,44.96L111.38,45.21L111.39,45.23L112.63,47.45L112.91,46.99L112.93,46.96L114.11,44.95L114.36,45.18L114.37,45.2L115.61,47.46L115.92,46.98L115.93,46.94L117.13,44.96L117.38,45.21L117.39,45.23L118.63,47.45L118.91,46.99L118.93,46.96L120.11,44.95L120.36,45.18L120.37,45.2L121.61,47.46L121.92,46.98L121.93,46.94L123.13,44.96L123.38,45.21L123.39,45.23L124.63,47.45L124.91,46.99L124.93,46.96L126.11,44.95L126.36,45.18L126.37,45.2L127.61,47.46L127.92,46.98L127.93,46.94L129.13,44.96L129.38,45.21L129.39,45.23L130.63,47.45L130.91,46.99L130.93,46.96L132.11,44.95L132.36,45.18L132.37,45.2L133.61,47.46L133.92,46.98L133.94,46.94L135.08,44.94L135.32,45.13L135.34,45.15L136.63,47.45L136.91,46.99L136.93,46.96L138.11,44.95L138.36,45.18L138.37,45.2L139.6,47.47L139.92,46.98L139.94,46.94L141.08,44.94L141.32,45.13L141.34,45.15L142.63,47.45L142.91,46.99L142.93,46.96L144.11,44.95L144.36,45.18L144.37,45.2L145.6,47.47L145.92,46.98L145.94,46.94L147.08,44.94L147.32,45.13L147.34,45.15L148.63,47.45L148.91,46.99L148.93,46.96L150.09,44.94L150.36,45.18L150.37,45.2L151.6,47.47L151.92,46.98L151.94,46.94L153.08,44.94L153.32,45.13L153.34,45.15L154.63,47.45L154.92,46.99L154.93,46.96L156.09,44.94L156.36,45.18L156.37,45.2L157.6,47.47L157.92,46.98L157.94,46.94L159.08,44.94L159.32,45.13L159.34,45.15L160.63,47.45L160.92,46.99L160.93,46.96L162.09,44.94L162.36,45.18L162.37,45.2L163.6,47.47L163.92,46.98L163.94,46.94L165.08,44.94L165.32,45.13L165.34,45.15L166.63,47.45L166.92,46.99L166.93,46.96L168.09,44.94L168.36,45.18L168.37,45.2L169.6,47.47L169.92,46.98L169.94,46.94L171.08,44.94L171.32,45.13L171.34,45.15L172.63,47.45L172.92,46.99L172.93,46.96L174.09,44.94L174.36,45.18L174.37,45.2L175.6,47.47L175.92,46.98L175.94,46.94L177.08,44.94L177.32,45.13L177.34,45.15L178.63,47.45L178.92,46.99L178.93,46.96L180.09,44.94L180.36,45.18L180.37,45.2L181.6,47.47L181.92,46.98L181.94,46.94L183.08,44.94L183.32,45.13L183.34,45.15L184.63,47.45L184.92,46.99L184.93,46.96L186.09,44.94L186.36,45.18L186.37,45.2L187.6,47.47L187.92,46.98L187.94,46.94L189.08,44.94L189.32,45.13L189.34,45.15L190.63,47.45L190.92,46.99L190.93,46.96L192.09,44.94L192.36,45.18L192.37,45.2L193.6,47.47L193.92,46.98L193.94,46.94L195.08,44.94L195.32,45.13L195.34,45.15L196.63,47.45L196.92,46.99L196.93,46.96L198.09,44.94L198.36,45.18L198.37,45.2L199.6,47.47L199.92,46.98L199.94,46.94L201.08,44.94L201.32,45.13L201.34,45.15L202.63,47.45L202.92,46.99L202.93,46.96L204.09,44.94L204.36,45.18L204.37,45.2L205.6,47.47L205.92,46.98L205.94,46.94L207.08,44.94L207.32,45.13L207.34,45.15L208.63,47.45L208.92,46.99L208.93,46.96L210.09,44.94L210.36,45.18L210.37,45.2L211.6,47.47L211.92,46.98L211.94,46.94L213.08,44.94L213.32,45.13L213.34,45.15L214.63,47.45L214.92,46.99L214.93,46.96L216.09,44.94L216.36,45.18L216.37,45.2L217.6,47.47L217.92,46.98L217.94,46.94L219.08,44.94L219.32,45.13L219.34,45.15L220.63,47.45L220.92,46.99L220.93,46.96L222.09,44.94L222.36,45.18L222.37,45.2L223.6,47.47L223.92,46.98L223.94,46.94L225.11,44.95L225.35,45.17L225.37,45.19L226.58,47.48L226.92,46.99L226.93,46.96L228.09,44.94L228.36,45.18L228.37,45.2L229.6,47.47L229.92,46.98L229.94,46.94L231.11,44.95L231.35,45.17L231.37,45.19L232.58,47.48L232.92,46.99L232.93,46.96L234.09,44.94L234.36,45.18L234.37,45.2L235.6,47.47L235.92,46.98L235.94,46.94L237.11,44.95L237.35,45.17L237.37,45.19L238.58,47.48L238.92,46.99L238.93,46.96L240.09,44.94L240.39,45.22L240.4,45.24L241.6,47.47L241.92,46.98L241.94,46.94L243.11,44.95L243.35,45.17L243.37,45.19L244.58,47.48L244.92,46.99L244.93,46.96L246.09,44.94L246.39,45.22L246.4,45.24L247.6,47.47L247.92,46.98L247.94,46.94L249.11,44.95L249.35,45.17L249.37,45.19L250.58,47.48L250.92,46.99L250.93,46.96L252.09,44.94L252.39,45.22L252.4,45.24L253.6,47.47L253.92,46.98L253.94,46.94L255.14,44.96L255.37,45.19L255.38,45.21L256.63,47.45L256.92,46.99L256.93,46.96L258.09,44.94L258.39,45.22L258.4,45.24L259.6,47.47L259.92,46.98L259.94,46.94L261.14,44.96L261.37,45.19L261.38,45.21L262.63,47.45L262.92,46.99L262.93,46.96L264.09,44.94L264.39,45.22L264.4,45.24L265.6,47.47L265.92,46.98L265.94,46.94L267.14,44.96L267.37,45.19L267.38,45.21L268.63,47.45L268.92,46.99L268.93,46.96L270.09,44.94L270.39,45.22L270.4,45.24L271.6,47.47L271.92,46.98L271.94,46.94L273.14,44.96L273.37,45.19L273.38,45.21L274.63,47.45L274.92,46.99L274.93,46.96L276.12,44.95L276.39,45.22L276.4,45.24L277.6,47.47L277.92,46.98L277.94,46.94L279.14,44.96L279.37,45.19L279.38,45.21L280.63,47.45L280.92,46.99L280.93,46.96L282.12,44.95L282.39,45.22L282.4,45.24L283.6,47.47L283.92,46.98L283.94,46.94L285.14,44.96L285.37,45.19L285.38,45.21L286.63,47.45L286.92,46.99L286.93,46.96L288.12,44.95L288.39,45.22L288.4,45.24L289.6,47.47L289.92,46.98L289.94,46.94L291.14,44.96L291.37,45.19L291.38,45.21L292.63,47.45L292.92,46.99L292.93,46.96L294.12,44.95L294.39,45.22L294.4,45.24L295.6,47.47L295.91,47.01L295.93,46.98L297.11,44.95L297.33,45.13L297.34,45.15L298.62,47.46L298.92,46.99L298.93,46.96L300.12,44.95L300.39,45.22L300.4,45.24L301.6,47.47L301.91,47.01L301.93,46.98L303.11,44.95L303.33,45.13L303.34,45.15L304.63,47.45L304.92,46.99L304.93,46.96L306.12,44.95L306.39,45.22L306.4,45.24L307.6,47.47L307.93,46.98L307.94,46.94L309.14,44.96L309.37,45.19L309.38,45.21L310.63,47.45L310.92,46.99L310.93,46.96L312.12,44.95L312.39,45.22L312.4,45.24L313.6,47.47L313.93,46.98L313.94,46.94L315.14,44.96L315.37,45.19L315.38,45.21L316.63,47.45L316.92,46.99L316.93,46.96L318.12,44.95L318.39,45.22L318.4,45.24L319.6,47.47L319.93,46.98L319.94,46.94L321.14,44.96L321.37,45.19L321.38,45.21L322.63,47.45L322.92,46.99L322.93,46.96L324.12,44.95L324.39,45.22L324.4,45.24L325.6,47.47L325.93,46.98L325.94,46.94L327.14,44.96L327.37,45.19L327.38,45.21L328.63,47.45L328.92,46.99L328.93,46.96L330.12,44.95L330.39,45.22L330.4,45.24L331.6,47.47L331.93,46.98L331.94,46.94L333.14,44.96L333.37,45.19L333.38,45.21L334.63,47.45L334.92,46.99L334.93,46.96L336.12,44.95L336.39,45.22L336.4,45.24L337.6,47.47L337.93,46.98L337.94,46.94L339.14,44.96L339.37,45.19L339.38,45.21L340.63,47.45L340.92,46.99L340.93,46.96L342.12,44.95L342.39,45.22L342.4,45.24L343.6,47.47L343.93,46.98L343.94,46.94L345.14,44.96L345.37,45.19L345.38,45.21L346.63,47.45L346.92,46.99L346.93,46.96L348.12,44.95L348.39,45.22L348.4,45.24L349.6,47.47L349.93,46.98L349.94,46.94L351.14,44.96L351.37,45.19L351.38,45.21L352.63,47.45L352.92,46.99L352.93,46.96L354.12,44.95L354.39,45.22L354.4,45.24L355.6,47.47L355.93,46.98L355.94,46.94L357.14,44.96L357.37,45.19L357.38,45.21L358.63,47.45L358.92,46.99L358.93,46.96L360.12,44.95L360.39,45.22L360.4,45.24L361.6,47.47L361.93,46.98L361.94,46.94L363.14,44.96L363.37,45.19L363.38,45.21L364.63,47.45L364.92,46.99L364.93,46.96L366.12,44.95L366.39,45.22L366.4,45.24L367.6,47.47L367.93,46.98L367.94,46.94L369.14,44.96L369.37,45.19L369.38,45.21L370.63,47.45L370.92,46.99L370.93,46.96L372.12,44.95L372.39,45.22L372.4,45.24L373.6,47.47L373.93,46.98L373.94,46.94L375.14,44.96L375.37,45.19L375.38,45.21L376.63,47.45L376.92,46.99L376.93,46.96L378.12,44.95L378.39,45.22L378.4,45.24L379.6,47.47L379.93,46.98L379.94,46.94L381.14,44.96L381.38,45.21L381.4,45.23L382.63,47.45L382.92,46.99L382.93,46.96L384.12,44.95L384.39,45.22L384.4,45.24L385.6,47.47L385.93,46.98L385.94,46.94L387.14,44.96L387.38,45.21L387.4,45.23L388.63,47.45L388.92,46.99L388.93,46.96L390.12,44.95L390.39,45.22L390.4,45.24L391.66,47.43L391.93,46.98L391.94,46.94L393.14,44.96L393.38,45.21L393.4,45.23L394.63,47.45L394.92,46.99L394.93,46.96L396.12,44.95L396.39,45.22L396.4,45.24L397.66,47.43L397.93,46.98L397.94,46.94L399.14,44.96L399.38,45.21L399.4,45.23L400.63,47.45L400.92,46.99L400.93,46.96L402.12,44.95L402.39,45.22L402.4,45.24L403.66,47.43L403.93,46.98L403.94,46.94L405.14,44.96L405.38,45.21L405.4,45.23L406.64,47.45L406.92,46.99L406.93,46.96L408.12,44.95L408.39,45.22L408.4,45.24L409.66,47.43L409.93,46.98L409.94,46.94L411.14,44.96L411.38,45.21L411.4,45.23L412.64,47.45L412.92,46.99L412.93,46.96L414.12,44.95L414.39,45.22L414.4,45.24L415.66,47.43L415.93,46.98L415.94,46.94L417.14,44.96L417.38,45.21L417.4,45.23L418.64,47.45L418.92,46.99L418.93,46.96L420.12,44.95L420.39,45.22L420.4,45.24L421.62,47.46L421.93,46.98L421.94,46.94L423.14,44.96L423.38,45.21L423.4,45.23L424.64,47.45L424.92,46.99L424.93,46.96L426.12,44.95L426.39,45.22L426.4,45.24L427.62,47.46L427.93,46.98L427.94,46.94L429.14,44.96L429.38,45.21L429.4,45.23L430.64,47.45L430.92,46.99L430.93,46.96L432.12,44.95L432.39,45.22L432.4,45.24L433.62,47.46L433.93,46.98L433.94,46.94L435.14,44.96L435.38,45.21L435.4,45.23L436.64,47.45L436.92,46.99L436.94,46.96L438.12,44.95L438.32,45.12L438.34,45.14L439.62,47.46L439.93,46.98L439.94,46.94L441.14,44.96L441.38,45.21L441.4,45.23L442.64,47.45L442.92,46.99L442.94,46.96L444.12,44.95L444.32,45.12L444.34,45.14L445.62,47.46L445.93,46.98L445.94,46.94L447.14,44.96L447.38,45.21L447.4,45.23L448.64,47.45L448.92,46.99L448.94,46.96L450.12,44.95L450.32,45.12L450.34,45.14L451.62,47.46L451.93,46.98L451.94,46.94L453.14,44.96L453.38,45.21L453.4,45.23L454.64,47.45L454.92,46.99L454.94,46.96L456.12,44.95L456.32,45.12L456.34,45.14L457.62,47.46L457.93,46.98L457.94,46.94L459.14,44.96L459.38,45.21L459.4,45.23L460.64,47.45L460.92,46.99L460.94,46.96L462.12,44.95L462.32,45.12L462.34,45.14L463.62,47.46L463.93,46.98L463.94,46.94L465.14,44.96L465.38,45.21L465.4,45.23L466.64,47.45L466.92,46.99L466.94,46.96L468.12,44.95L468.32,45.12L468.34,45.14L469.62,47.46L469.93,46.98L469.94,46.94L471.14,44.96L471.38,45.21L471.4,45.23L472.64,47.45L472.92,46.99L472.94,46.96L474.12,44.95L474.32,45.12L474.34,45.14L475.62,47.46L475.93,46.98L475.94,46.94L477.14,44.96L477.38,45.21L477.4,45.23L478.64,47.45L478.92,46.99L478.94,46.96L480.12,44.95L480.32,45.12L480.34,45.14L481.62,47.46L481.93,46.98L481.94,46.94L483.14,44.96L483.39,45.21L483.4,45.23L484.64,47.45L484.92,46.99L484.94,46.96L486.12,44.95L486.32,45.12L486.34,45.14L487.62,47.46L487.93,46.98L487.94,46.94L489.14,44.96L489.39,45.21L489.4,45.23L490.64,47.45L490.92,46.99L490.94,46.96L492.12,44.95L492.32,45.12L492.34,45.14L493.62,47.46L493.93,46.98L493.94,46.94L495.14,44.96L495.39,45.21L495.4,45.23L496.64,47.45L496.92,46.99L496.94,46.96L498.12,44.95L498.32,45.12L498.34,45.14L499.62,47.46L499.93,46.98L499.94,46.94L501.14,44.96L501.39,45.21L501.4,45.23L502.64,47.45L502.92,46.99L502.94,46.96L504.12,44.95L504.32,45.12L504.34,45.14L505.62,47.46L505.93,46.98L505.94,46.94L507.14,44.96L507.39,45.21L507.4,45.23L508.64,47.45L508.92,46.99L508.94,46.96L510.12,44.95L510.32,45.12L510.34,45.14L511.62,47.46L511.93,46.98L511.94,46.94L513.14,44.96L513.39,45.21L513.4,45.23L514.64,47.45L514.92,46.99L514.94,46.96L516.09,44.94L516.32,45.12L516.34,45.14L517.62,47.46L517.93,46.98L517.94,46.94L519.14,44.96L519.39,45.21L519.4,45.23L520.64,47.45L520.92,46.99L520.94,46.96L522.12,44.95L522.37,45.18L522.38,45.2L523.62,47.46L523.93,46.98L523.94,46.94L525.14,44.96L525.39,45.21L525.4,45.23L526.64,47.45L526.92,46.99L526.94,46.96L528.12,44.95L528.37,45.18L528.38,45.2L529.62,47.46L529.93,46.98L529.94,46.94L531.14,44.96L531.39,45.21L531.4,45.23L532.64,47.45L532.92,46.99L532.94,46.96L534.12,44.95L534.37,45.18L534.38,45.2L535.62,47.46L535.93,46.98L535.94,46.94L537.14,44.96L537.39,45.21L537.4,45.23L538.64,47.45L538.92,46.99L538.94,46.96L540.12,44.95L540.37,45.18L540.38,45.2L541.62,47.46L541.93,46.98L541.94,46.94L543.14,44.96L543.39,45.21L543.4,45.23L544.64,47.45L544.92,46.99L544.94,46.96L546.12,44.95L546.37,45.18L546.38,45.2L547.62,47.46L547.93,46.98L547.94,46.94L549.14,44.96L549.39,45.21L549.4,45.23L550.64,47.45L550.92,46.99L550.94,46.96L552.12,44.95L552.37,45.18L552.38,45.2L553.62,47.46L553.93,46.98L553.94,46.94L555.14,44.96L555.39,45.21L555.4,45.23L556.64,47.45L556.92,46.99L556.94,46.96L558.12,44.95L558.37,45.18L558.38,45.2L559.62,47.46L559.93,46.98L559.94,46.94L561.14,44.96L561.39,45.21L561.4,45.23L562.64,47.45L562.92,46.99L562.94,46.96L564.12,44.95L564.37,45.18L564.38,45.2L565.62,47.46L565.93,46.98L565.94,46.94L567.14,44.96L567.39,45.21L567.4,45.23L568.64,47.45L568.92,46.99L568.94,46.96L570.12,44.95L570.37,45.18L570.38,45.2L571.62,47.46L571.93,46.98L571.94,46.94L573.12,44.95L573.39,45.21L573.4,45.23L574.64,47.45L574.92,46.99L574.94,46.96L576.12,44.95L576.37,45.18L576.38,45.2L577.62,47.46L577.93,46.98L577.95,46.94L579.09,44.94L579.33,45.13L579.35,45.15L580.61,45.78L580.63,45.78L591.18,47.14L591.2,47.14L596.19,46.06L596.2,46.05L600,43.86" style="vector-effect: non-scaling-stroke; fill: none; stroke: rgb(0, 0, 255); stroke-opacity: 1; stroke-width: 1px; opacity: 1;"/></g><g class="points"/><g class="text"/></g><g class="trace scatter trace4bd0dd" style="stroke-miterlimit: 2; opacity: 1;"><g class="fills"/><g class="errorbars"/><g class="lines"><path class="js-line" d="M0,28.06L9.67,39.49L9.69,39.5L15.4,43.73L15.42,43.74L20.31,45.87L20.33,45.87L26.31,47.08L26.33,47.08L33.78,47.32L33.8,47.32L62.76,46.14L62.78,46.14L75.1,46.07L75.12,46.07L600,46.22" style="vector-effect: non-scaling-stroke; fill: none; stroke: rgb(0, 128, 0); stroke-opacity: 1; stroke-width: 1px; opacity: 1;"/></g><g class="points"/><g class="text"/></g><g class="trace scatter trace625ae9" style="stroke-miterlimit: 2; opacity: 1;"><g class="fills"/><g class="errorbars"/><g class="lines"><path class="js-line" d="M0,10.82L600,10.82" style="vector-effect: non-scaling-stroke; fill: none; stroke: rgb(0, 0, 0); stroke-opacity: 1; stroke-width: 1px; opacity: 1;"/></g><g class="points"/><g class="text"/></g></g></g><g class="overplot"/><path class="xlines-above crisp" d="M0,0" style="fill: none;"/><path class="ylines-above crisp" d="M0,0" style="fill: none;"/><g class="overlines-above"/><g class="xaxislayer-above"><g class="xtick"><text text-anchor="middle" x="0" y="252.3333" transform="translate(50,0)" style="font-family: 'Latin Modern Roman'; font-size: 13.3333px; fill: rgb(0, 0, 0); fill-opacity: 1; white-space: pre;">0</text></g><g class="xtick"><text text-anchor="middle" x="0" y="252.3333" transform="translate(186.06,0)" style="font-family: 'Latin Modern Roman'; font-size: 13.3333px; fill: rgb(0, 0, 0); fill-opacity: 1; white-space: pre;">10k</text></g><g class="xtick"><text text-anchor="middle" x="0" y="252.3333" transform="translate(322.12,0)" style="font-family: 'Latin Modern Roman'; font-size: 13.3333px; fill: rgb(0, 0, 0); fill-opacity: 1; white-space: pre;">20k</text></g><g class="xtick"><text text-anchor="middle" x="0" y="252.3333" transform="translate(458.17,0)" style="font-family: 'Latin Modern Roman'; font-size: 13.3333px; fill: rgb(0, 0, 0); fill-opacity: 1; white-space: pre;">30k</text></g><g class="xtick"><text text-anchor="middle" x="0" y="252.3333" transform="translate(594.23,0)" style="font-family: 'Latin Modern Roman'; font-size: 13.3333px; fill: rgb(0, 0, 0); fill-opacity: 1; white-space: pre;">40k</text></g></g><g class="yaxislayer-above"><g class="ytick"><text text-anchor="end" x="49" y="4.6666549999999996" transform="translate(0,227.2)" style="font-family: 'Latin Modern Roman'; font-size: 13.3333px; fill: rgb(0, 0, 0); fill-opacity: 1; white-space: pre;">−1</text></g><g class="ytick"><text text-anchor="end" x="49" y="4.6666549999999996" transform="translate(0,178.6)" style="font-family: 'Latin Modern Roman'; font-size: 13.3333px; fill: rgb(0, 0, 0); fill-opacity: 1; white-space: pre;">−0.5</text></g><g class="ytick"><text text-anchor="end" x="49" y="4.6666549999999996" transform="translate(0,130)" style="font-family: 'Latin Modern Roman'; font-size: 13.3333px; fill: rgb(0, 0, 0); fill-opacity: 1; white-space: pre;">0</text></g><g class="ytick"><text text-anchor="end" x="49" y="4.6666549999999996" transform="translate(0,81.4)" style="font-family: 'Latin Modern Roman'; font-size: 13.3333px; fill: rgb(0, 0, 0); fill-opacity: 1; white-space: pre;">0.5</text></g><g class="ytick"><text text-anchor="end" x="49" y="4.6666549999999996" transform="translate(0,32.8)" style="font-family: 'Latin Modern Roman'; font-size: 13.3333px; fill: rgb(0, 0, 0); fill-opacity: 1; white-space: pre;">1</text></g></g><g class="overaxes-above"/></g></g><g class="polarlayer"/><g class="ternarylayer"/><g class="geolayer"/><g class="funnelarealayer"/><g class="pielayer"/><g class="treemaplayer"/><g class="sunburstlayer"/><g class="glimages"/><defs id="topdefs-169bbb"><g class="clips"/><clipPath id="legend169bbb"><rect width="509" height="31" x="0" y="0"/></clipPath></defs><g class="layer-above"><g class="imagelayer"/><g class="shapelayer"/></g><g class="infolayer"><g class="legend" pointer-events="all" transform="translate(50, 0.3999999999999808)"><rect class="bg" shape-rendering="crispEdges" style="stroke: rgb(68, 68, 68); stroke-opacity: 1; fill: rgb(255, 255, 255); fill-opacity: 1; stroke-width: 0px;" width="509" height="31" x="0" y="0"/><g class="scrollbox" transform="translate(0, 0)" clip-path="url('#legend169bbb')"><g class="groups"><g class="traces" transform="translate(0, 15.166645)" style="opacity: 1;"><text class="legendtext" text-anchor="start" x="40" y="5.199987" style="font-family: 'Latin Modern Roman'; font-size: 13.3333px; fill: rgb(0, 0, 0); fill-opacity: 1; white-space: pre;">Signal</text><g class="layers" style="opacity: 1;"><g class="legendfill"/><g class="legendlines"><path class="js-line" d="M5,0h30" style="fill: none; stroke: rgb(192, 192, 192); stroke-opacity: 1; stroke-width: 0.5px;"/></g><g class="legendsymbols"><g class="legendpoints"/></g></g><rect class="legendtoggle" x="0" y="-10.166645" width="76.875" height="20.33329" style="fill: rgb(0, 0, 0); fill-opacity: 0;"/></g><g class="traces" transform="translate(79.375, 15.166645)" style="opacity: 1;"><text class="legendtext" text-anchor="start" x="40" y="5.199987" style="font-family: 'Latin Modern Roman'; font-size: 13.3333px; fill: rgb(0, 0, 0); fill-opacity: 1; white-space: pre;">Hilbert</text><g class="layers" style="opacity: 1;"><g class="legendfill"/><g class="legendlines"><path class="js-line" d="M5,0h30" style="fill: none; stroke: rgb(255, 0, 0); stroke-opacity: 1; stroke-width: 1px;"/></g><g class="legendsymbols"><g class="legendpoints"/></g></g><rect class="legendtoggle" x="0" y="-10.166645" width="80.5625" height="20.33329" style="fill: rgb(0, 0, 0); fill-opacity: 0;"/></g><g class="traces" transform="translate(162.4375, 15.166645)" style="opacity: 1;"><text class="legendtext" text-anchor="start" x="40" y="5.199987" style="font-family: 'Latin Modern Roman'; font-size: 13.3333px; fill: rgb(0, 0, 0); fill-opacity: 1; white-space: pre;">Smoothing</text><g class="layers" style="opacity: 1;"><g class="legendfill"/><g class="legendlines"><path class="js-line" d="M5,0h30" style="fill: none; stroke: rgb(0, 0, 255); stroke-opacity: 1; stroke-width: 1px;"/></g><g class="legendsymbols"><g class="legendpoints"/></g></g><rect class="legendtoggle" x="0" y="-10.166645" width="101.359375" height="20.33329" style="fill: rgb(0, 0, 0); fill-opacity: 0;"/></g><g class="traces" transform="translate(266.296875, 15.166645)" style="opacity: 1;"><text class="legendtext" text-anchor="start" x="40" y="5.199987" style="font-family: 'Latin Modern Roman'; font-size: 13.3333px; fill: rgb(0, 0, 0); fill-opacity: 1; white-space: pre;">Lowpass Filter</text><g class="layers" style="opacity: 1;"><g class="legendfill"/><g class="legendlines"><path class="js-line" d="M5,0h30" style="fill: none; stroke: rgb(0, 128, 0); stroke-opacity: 1; stroke-width: 1px;"/></g><g class="legendsymbols"><g class="legendpoints"/></g></g><rect class="legendtoggle" x="0" y="-10.166645" width="122.671875" height="20.33329" style="fill: rgb(0, 0, 0); fill-opacity: 0;"/></g><g class="traces" transform="translate(391.46875, 15.166645)" style="opacity: 1;"><text class="legendtext" text-anchor="start" x="40" y="5.199987" style="font-family: 'Latin Modern Roman'; font-size: 13.3333px; fill: rgb(0, 0, 0); fill-opacity: 1; white-space: pre;">Present Work</text><g class="layers" style="opacity: 1;"><g class="legendfill"/><g class="legendlines"><path class="js-line" d="M5,0h30" style="fill: none; stroke: rgb(0, 0, 0); stroke-opacity: 1; stroke-width: 1px;"/></g><g class="legendsymbols"><g class="legendpoints"/></g></g><rect class="legendtoggle" x="0" y="-10.166645" width="114.703125" height="20.33329" style="fill: rgb(0, 0, 0); fill-opacity: 0;"/></g></g></g><rect class="scrollbar" rx="20" ry="3" width="0" height="0" style="fill: rgb(128, 139, 164); fill-opacity: 1;" x="0" y="0"/></g><g class="g-gtitle"/><g class="g-xtitle" transform="translate(0,-2.677059999999983)"><text class="xtitle" x="350" y="279.67706" text-anchor="middle" style="font-family: 'Latin Modern Roman'; font-size: 13.33px; fill: rgb(0, 0, 0); opacity: 1; font-weight: normal; white-space: pre;"><tspan style="font-weight:bold"><tspan style="font-style:italic">i</tspan></tspan></text></g><g class="g-ytitle" transform="translate(11.5205078125,0)"><text class="ytitle" transform="rotate(-90,0.47919000000000267,130)" x="0.47919000000000267" y="130" text-anchor="middle" style="font-family: 'Latin Modern Roman'; font-size: 13.33px; fill: rgb(0, 0, 0); opacity: 1; font-weight: normal; white-space: pre;"><tspan style="font-weight:bold">Amplitude</tspan></text></g></g></svg>