<svg class="main-svg" xmlns="http://www.w3.org/2000/svg" xmlns:xlink="http://www.w3.org/1999/xlink" width="650" height="300" style="" viewBox="0 0 650 300"><rect x="0" y="0" width="650" height="300" style="fill: rgb(255, 255, 255); fill-opacity: 1;"/><defs id="defs-9a10f5"><g class="clips"><clipPath id="clip9a10f5xyplot" class="plotclip"><rect width="589" height="235"/></clipPath><clipPath class="axesclip" id="clip9a10f5x"><rect x="52" y="0" width="589" height="300"/></clipPath><clipPath class="axesclip" id="clip9a10f5y"><rect x="0" y="23" width="650" height="235"/></clipPath><clipPath class="axesclip" id="clip9a10f5xy"><rect x="52" y="23" width="589" height="235"/></clipPath></g><g class="gradients"/></defs><g class="bglayer"/><g class="layer-below"><g class="imagelayer"/><g class="shapelayer"/></g><g class="cartesianlayer"><g class="subplot xy"><g class="layer-subplot"><g class="shapelayer"/><g class="imagelayer"/></g><g class="gridlayer"><g class="x"/><g class="y"/></g><g class="zerolinelayer"><path class="xzl zl crisp" transform="translate(52,0)" d="M0,23v235" style="stroke: rgb(192, 192, 192); stroke-opacity: 1; stroke-width: 1px;"/><path class="yzl zl crisp" transform="translate(0,246.28)" d="M52,0h589" style="stroke: rgb(192, 192, 192); stroke-opacity: 1; stroke-width: 1px;"/></g><path class="xlines-below"/><path class="ylines-below"/><g class="overlines-below"/><g class="xaxislayer-below"/><g class="yaxislayer-below"/><g class="overaxes-below"/><g class="plot" transform="translate(52, 23)" clip-path="url('#clip9a10f5xyplot')"><g class="scatterlayer mlayer"><g class="trace scatter trace0c7f94" style="stroke-miterlimit: 2; opacity: 1;"><g class="fills"/><g class="errorbars"/><g class="lines"><path class="js-line" d="M0,223.25L1.76,220.58L2.34,219.85L8.2,213.34L8.78,213.1L13.47,209.95L14.05,209.71L17.56,207.9L18.15,207.06L19.91,205.48L20.49,205.24L26.93,200.66L27.52,200.42L31.03,198.35L31.62,198.11L38.64,194.58L39.23,194.1L46.25,190.48L46.84,190L84.31,173.81L84.9,173.33L298.6,85.66L299.18,85.54L307.97,83L308.55,82.76L318.5,79.47L319.09,79.38L328.46,76.57L329.04,76.33L413.35,42.35L413.94,42.24L423.89,39.45L424.48,39.22L470.73,20.1L471.32,19.86L491.22,11.75" style="vector-effect: non-scaling-stroke; fill: none; stroke: rgb(0, 0, 0); stroke-opacity: 1; stroke-width: 1px; opacity: 1; stroke-dasharray: 9px, 9px;"/></g><g class="points"/><g class="text"/></g><g class="trace scatter tracebe2074" style="stroke-miterlimit: 2; opacity: 1;"><g class="fills"/><g class="errorbars"/><g class="lines"><path class="js-line" d="M0,223.18L2.34,220.04L2.93,219.31L5.85,216.42L6.44,216.18L8.78,212.79L9.37,212.31L11.71,210.86L12.3,210.14L14.64,208.7L15.22,207.72L28.69,201.44L29.27,201.18L32.79,199.24L33.37,198.76L42.74,194.18L43.33,193.69L269.91,100.01L270.5,99.87L275.18,98.43L275.76,98.19L339.58,72.78L340.17,72.65L344.27,71.68L344.85,71.57L355.98,68.54L356.56,68.3L379.4,59.71L379.98,59.6L412.77,52.08L413.35,51.83L446.73,38.78L447.31,38.66L457.85,35.76L458.44,35.52L463.12,34.31L463.71,34.18L494.74,27.54L495.32,27.3L502.93,25L503.52,24.89L515.81,21.61L516.4,21.37L524.6,18.71L525.18,18.59L556.21,11.83" style="vector-effect: non-scaling-stroke; fill: none; stroke: rgb(128, 128, 128); stroke-opacity: 1; stroke-width: 1px; opacity: 1; stroke-dasharray: 9px, 9px;"/></g><g class="points"/><g class="text"/></g><g class="trace scatter trace2c6c45" style="stroke-miterlimit: 2; opacity: 1;"><g class="fills"/><g class="errorbars"/><g class="lines"><path class="js-line" d="M0,223.25L4.1,222.21L4.68,222.19L10.54,220.34L11.12,220.09L63.23,199.45L63.82,199.32L334.31,88.2L334.9,87.96L343.1,85.3L343.68,85.17L350.12,83.24L350.71,83L360.66,79.62L361.25,79.47L368.86,77.54L369.44,77.3L444.97,46.11L445.56,45.87L454.92,42.6L455.51,42.48L466.63,39.45L467.22,39.22L513.47,20.1L514.06,19.86L533.96,11.75" style="vector-effect: non-scaling-stroke; fill: none; stroke: rgb(0, 0, 0); stroke-opacity: 1; stroke-width: 1px; opacity: 1;"/></g><g class="points"/><g class="text"/></g><g class="trace scatter tracec50ddf" style="stroke-miterlimit: 2; opacity: 1;"><g class="fills"/><g class="errorbars"/><g class="lines"><path class="js-line" d="M0,223.18L11.12,219.8L11.71,219.56L86.65,188.62L87.24,188.38L302.7,100.01L303.28,99.87L307.97,98.43L308.55,98.19L372.37,72.78L372.96,72.65L377.05,71.68L377.64,71.57L388.76,68.54L389.35,68.3L411.6,59.84L412.18,59.71L442.63,53.28L443.21,53.04L479.51,38.78L480.1,38.66L490.64,35.76L491.22,35.52L496.49,34.18L497.08,34.07L535.14,25.24L535.72,25L547.43,22.1L548.02,21.86L556.8,18.84L557.38,18.71L589,11.83" style="vector-effect: non-scaling-stroke; fill: none; stroke: rgb(128, 128, 128); stroke-opacity: 1; stroke-width: 1px; opacity: 1;"/></g><g class="points"/><g class="text"/></g><g class="trace scatter tracee0a10f" style="stroke-miterlimit: 2; opacity: 1;"><g class="fills"/><g class="errorbars"/><g class="lines"><path class="js-line" d="M0,223.22L18.74,216.81L19.32,216.57L220.14,134.4L220.73,134.15L327.87,90.54L328.46,90.4L360.07,78.43L360.66,78.25L393.45,66.99L394.03,66.75L416.28,58.41L416.87,58.23L449.07,47.52L449.65,47.28L460.19,43.78L460.78,43.59L468.98,40.45L469.56,40.21L484.2,35.01L484.78,34.82L495.32,31.01L495.91,30.83L533.96,18.74" style="vector-effect: non-scaling-stroke; fill: none; stroke: rgb(192, 192, 192); stroke-opacity: 1; stroke-width: 1px; opacity: 1;"/></g><g class="points"/><g class="text"/></g></g></g><g class="overplot"/><path class="xlines-above crisp" d="M0,0" style="fill: none;"/><path class="ylines-above crisp" d="M0,0" style="fill: none;"/><g class="overlines-above"/><g class="xaxislayer-above"><g class="xtick"><text text-anchor="middle" x="0" y="272.3333" transform="translate(52,0)" style="font-family: 'Latin Modern Roman'; font-size: 13.3333px; fill: rgb(0, 0, 0); fill-opacity: 1; white-space: pre;">0</text></g><g class="xtick"><text text-anchor="middle" x="0" y="272.3333" transform="translate(169.1,0)" style="font-family: 'Latin Modern Roman'; font-size: 13.3333px; fill: rgb(0, 0, 0); fill-opacity: 1; white-space: pre;">200</text></g><g class="xtick"><text text-anchor="middle" x="0" y="272.3333" transform="translate(286.19,0)" style="font-family: 'Latin Modern Roman'; font-size: 13.3333px; fill: rgb(0, 0, 0); fill-opacity: 1; white-space: pre;">400</text></g><g class="xtick"><text text-anchor="middle" x="0" y="272.3333" transform="translate(403.29,0)" style="font-family: 'Latin Modern Roman'; font-size: 13.3333px; fill: rgb(0, 0, 0); fill-opacity: 1; white-space: pre;">600</text></g><g class="xtick"><text text-anchor="middle" x="0" y="272.3333" transform="translate(520.39,0)" style="font-family: 'Latin Modern Roman'; font-size: 13.3333px; fill: rgb(0, 0, 0); fill-opacity: 1; white-space: pre;">800</text></g><g class="xtick"><text text-anchor="middle" x="0" y="272.3333" transform="translate(637.49,0)" style="font-family: 'Latin Modern Roman'; font-size: 13.3333px; fill: rgb(0, 0, 0); fill-opacity: 1; white-space: pre;">1000</text></g></g><g class="yaxislayer-above"><g class="ytick"><text text-anchor="end" x="51" y="4.6666549999999996" transform="translate(0,246.28)" style="font-family: 'Latin Modern Roman'; font-size: 13.3333px; fill: rgb(0, 0, 0); fill-opacity: 1; white-space: pre;">0</text></g><g class="ytick"><text text-anchor="end" x="51" y="4.6666549999999996" transform="translate(0,198.3)" style="font-family: 'Latin Modern Roman'; font-size: 13.3333px; fill: rgb(0, 0, 0); fill-opacity: 1; white-space: pre;">50k</text></g><g class="ytick"><text text-anchor="end" x="51" y="4.6666549999999996" transform="translate(0,150.32)" style="font-family: 'Latin Modern Roman'; font-size: 13.3333px; fill: rgb(0, 0, 0); fill-opacity: 1; white-space: pre;">100k</text></g><g class="ytick"><text text-anchor="end" x="51" y="4.6666549999999996" transform="translate(0,102.34)" style="font-family: 'Latin Modern Roman'; font-size: 13.3333px; fill: rgb(0, 0, 0); fill-opacity: 1; white-space: pre;">150k</text></g><g class="ytick"><text text-anchor="end" x="51" y="4.6666549999999996" transform="translate(0,54.36)" style="font-family: 'Latin Modern Roman'; font-size: 13.3333px; fill: rgb(0, 0, 0); fill-opacity: 1; white-space: pre;">200k</text></g></g><g class="overaxes-above"/></g></g><g class="polarlayer"/><g class="ternarylayer"/><g class="geolayer"/><g class="funnelarealayer"/><g class="pielayer"/><g class="treemaplayer"/><g class="sunburstlayer"/><g class="glimages"/><defs id="topdefs-9a10f5"><g class="clips"/><clipPath id="legend9a10f5"><rect width="349" height="71" x="0" y="0"/></clipPath></defs><g class="layer-above"><g class="imagelayer"/><g class="shapelayer"/></g><g class="infolayer"><g class="legend" pointer-events="all" transform="translate(52, 0)"><rect class="bg" shape-rendering="crispEdges" style="stroke: rgb(68, 68, 68); stroke-opacity: 1; fill: rgb(255, 255, 255); fill-opacity: 1; stroke-width: 0px;" width="349" height="71" x="0" y="0"/><g class="scrollbox" transform="translate(0, 0)" clip-path="url('#legend9a10f5')"><g class="groups"><g class="traces" transform="translate(0, 15.166645)" style="opacity: 1;"><text class="legendtext" text-anchor="start" x="40" y="5.199987" style="font-family: 'Latin Modern Roman'; font-size: 13.3333px; fill: rgb(0, 0, 0); fill-opacity: 1; white-space: pre;">Maxima</text><g class="layers" style="opacity: 1;"><g class="legendfill"/><g class="legendlines"><path class="js-line" d="M5,0h30" style="fill: none; stroke: rgb(0, 0, 0); stroke-opacity: 1; stroke-dasharray: 9px, 9px; stroke-width: 1px;"/></g><g class="legendsymbols"><g class="legendpoints"/></g></g><rect class="legendtoggle" x="0" y="-10.166645" width="87.015625" height="20.33329" style="fill: rgb(0, 0, 0); fill-opacity: 0;"/></g><g class="traces" transform="translate(215.78125, 15.166645)" style="opacity: 1;"><text class="legendtext" text-anchor="start" x="40" y="5.199987" style="font-family: 'Latin Modern Roman'; font-size: 13.3333px; fill: rgb(0, 0, 0); fill-opacity: 1; white-space: pre;">Minima</text><g class="layers" style="opacity: 1;"><g class="legendfill"/><g class="legendlines"><path class="js-line" d="M5,0h30" style="fill: none; stroke: rgb(128, 128, 128); stroke-opacity: 1; stroke-dasharray: 9px, 9px; stroke-width: 1px;"/></g><g class="legendsymbols"><g class="legendpoints"/></g></g><rect class="legendtoggle" x="0" y="-10.166645" width="84.796875" height="20.33329" style="fill: rgb(0, 0, 0); fill-opacity: 0;"/></g><g class="traces" transform="translate(0, 35.499935)" style="opacity: 1;"><text class="legendtext" text-anchor="start" x="40" y="5.199987" style="font-family: 'Latin Modern Roman'; font-size: 13.3333px; fill: rgb(0, 0, 0); fill-opacity: 1; white-space: pre;">Refined Maxima</text><g class="layers" style="opacity: 1;"><g class="legendfill"/><g class="legendlines"><path class="js-line" d="M5,0h30" style="fill: none; stroke: rgb(0, 0, 0); stroke-opacity: 1; stroke-width: 1px;"/></g><g class="legendsymbols"><g class="legendpoints"/></g></g><rect class="legendtoggle" x="0" y="-10.166645" width="132.546875" height="20.33329" style="fill: rgb(0, 0, 0); fill-opacity: 0;"/></g><g class="traces" transform="translate(215.78125, 35.499935)" style="opacity: 1;"><text class="legendtext" text-anchor="start" x="40" y="5.199987" style="font-family: 'Latin Modern Roman'; font-size: 13.3333px; fill: rgb(0, 0, 0); fill-opacity: 1; white-space: pre;">Refined Minima</text><g class="layers" style="opacity: 1;"><g class="legendfill"/><g class="legendlines"><path class="js-line" d="M5,0h30" style="fill: none; stroke: rgb(128, 128, 128); stroke-opacity: 1; stroke-width: 1px;"/></g><g class="legendsymbols"><g class="legendpoints"/></g></g><rect class="legendtoggle" x="0" y="-10.166645" width="130.328125" height="20.33329" style="fill: rgb(0, 0, 0); fill-opacity: 0;"/></g><g class="traces" transform="translate(0, 55.833225000000006)" style="opacity: 1;"><text class="legendtext" text-anchor="start" x="40" y="5.199987" style="font-family: 'Latin Modern Roman'; font-size: 13.3333px; fill: rgb(0, 0, 0); fill-opacity: 1; white-space: pre;">Average Pseudo Pulses Position</text><g class="layers" style="opacity: 1;"><g class="legendfill"/><g class="legendlines"><path class="js-line" d="M5,0h30" style="fill: none; stroke: rgb(192, 192, 192); stroke-opacity: 1; stroke-width: 1px;"/></g><g class="legendsymbols"><g class="legendpoints"/></g></g><rect class="legendtoggle" x="0" y="-10.166645" width="213.28125" height="20.33329" style="fill: rgb(0, 0, 0); fill-opacity: 0;"/></g></g></g><rect class="scrollbar" rx="20" ry="3" width="0" height="0" style="fill: rgb(128, 139, 164); fill-opacity: 1;" x="0" y="0"/></g><g class="g-gtitle"/><g class="g-xtitle" transform="translate(0,-2.677059999999983)"><text class="xtitle" x="346.5" y="299.67706" text-anchor="middle" style="font-family: 'Latin Modern Roman'; font-size: 13.33px; fill: rgb(0, 0, 0); opacity: 1; font-weight: normal; white-space: pre;"><tspan style="font-weight:bold">Ordinality</tspan></text></g><g class="g-ytitle" transform="translate(12.0048828125,0)"><text class="ytitle" transform="rotate(-90,-0.005184999999997331,140.5)" x="-0.005184999999997331" y="140.5" text-anchor="middle" style="font-family: 'Latin Modern Roman'; font-size: 13.33px; fill: rgb(0, 0, 0); opacity: 1; font-weight: normal; white-space: pre;"><tspan style="font-weight:bold"><tspan style="font-style:italic">i</tspan></tspan></text></g></g></svg>