<?xml version="1.0" encoding="UTF-8" standalone="no"?>
<svg
   xmlns:dc="http://purl.org/dc/elements/1.1/"
   xmlns:cc="http://creativecommons.org/ns#"
   xmlns:rdf="http://www.w3.org/1999/02/22-rdf-syntax-ns#"
   xmlns:svg="http://www.w3.org/2000/svg"
   xmlns="http://www.w3.org/2000/svg"
   xmlns:sodipodi="http://sodipodi.sourceforge.net/DTD/sodipodi-0.dtd"
   xmlns:inkscape="http://www.inkscape.org/namespaces/inkscape"
   class="main-svg"
   width="18cm"
   height="8cm"
   viewBox="0 0 680.31496 302.36221"
   version="1.1"
   id="svg283"
   sodipodi:docname="05approximation-alto_.svg"
   inkscape:version="1.0.1 (3bc2e813f5, 2020-09-07)">
  <metadata
     id="metadata287">
    <rdf:RDF>
      <cc:Work
         rdf:about="">
        <dc:format>image/svg+xml</dc:format>
        <dc:type
           rdf:resource="http://purl.org/dc/dcmitype/StillImage" />
        <dc:title></dc:title>
      </cc:Work>
    </rdf:RDF>
  </metadata>
  <sodipodi:namedview
     pagecolor="#ffffff"
     bordercolor="#666666"
     borderopacity="1"
     objecttolerance="10"
     gridtolerance="10"
     guidetolerance="10"
     inkscape:pageopacity="0"
     inkscape:pageshadow="2"
     inkscape:window-width="1920"
     inkscape:window-height="1001"
     id="namedview285"
     showgrid="false"
     inkscape:zoom="1.4142136"
     inkscape:cx="318.9337"
     inkscape:cy="237.69374"
     inkscape:window-x="-9"
     inkscape:window-y="-9"
     inkscape:window-maximized="1"
     inkscape:current-layer="svg283"
     inkscape:document-rotation="0"
     units="cm"
     fit-margin-top="0"
     fit-margin-left="0"
     fit-margin-right="0"
     fit-margin-bottom="0" />
  <defs
     id="defs-2cdaae" />
  <g
     class="layer-below"
     id="g27">
    <g
       class="imagelayer"
       id="g23" />
    <g
       class="shapelayer"
       id="g25" />
  </g>
  <path
     class="ylines-below"
     id="path47"
     d="" />
  <path
     class="xlines-above crisp"
     d="M 0,0"
     style="fill:none"
     id="path133" />
  <path
     class="ylines-above crisp"
     d="M 0,0"
     style="fill:none"
     id="path135" />
  <g
     class="trace scatter trace30fcf6"
     style="stroke-miterlimit:2"
     id="g125"
     transform="translate(48,37)">
    <g
       class="fills"
       id="g113" />
    <g
       class="errorbars"
       id="g115" />
    <g
       class="lines"
       id="g119" />
    <g
       class="points"
       id="g121" />
    <g
       class="text"
       id="g123" />
  </g>
  <defs
     id="topdefs-2cdaae" />
  <g
     id="g1190"
     transform="translate(-2.3486967,-46.422233)">
    <path
       style="font-variation-settings:normal;opacity:1;vector-effect:none;fill:#c0c0c0;fill-opacity:1;stroke:none;stroke-width:1px;stroke-linecap:butt;stroke-linejoin:miter;stroke-miterlimit:4;stroke-dasharray:none;stroke-dashoffset:0;stroke-opacity:1;stop-color:#000000;stop-opacity:1"
       d="M 359.80281,76.437616 506.21068,58.048174 475.50721,189.37204 357.14266,84.919195 Z"
       id="path1070"
       sodipodi:nodetypes="ccccc" />
    <circle
       style="font-variation-settings:normal;display:inline;opacity:1;vector-effect:none;fill:#ffffff;fill-opacity:1;stroke:#c0c0c0;stroke-width:1px;stroke-linecap:butt;stroke-linejoin:miter;stroke-miterlimit:4;stroke-dasharray:none;stroke-dashoffset:0;stroke-opacity:1;stop-color:#000000;stop-opacity:1"
       id="path1521-2"
       cx="360.31912"
       cy="81.308533"
       r="4.558157" />
    <path
       class="yzl zl crisp"
       d="M 48,211.17 H 672"
       style="stroke:#c0c0c0;stroke-width:1px;stroke-opacity:1"
       id="path41" />
    <g
       class="trace scatter trace0eb58d"
       style="stroke-miterlimit:2"
       id="g69"
       transform="translate(48,37)">
      <g
         class="fills"
         id="g57" />
      <g
         class="errorbars"
         id="g59" />
      <g
         class="lines"
         id="g63">
        <path
           class="js-line"
           d="M 312,261.9 V 16.1"
           style="opacity:1;vector-effect:non-scaling-stroke;fill:none;stroke:#000000;stroke-width:4px;stroke-dasharray:12px, 12px;stroke-opacity:1"
           id="path61"
           sodipodi:nodetypes="cc" />
      </g>
      <g
         class="points"
         id="g65" />
      <g
         class="text"
         id="g67" />
    </g>
    <g
       class="trace scatter tracea3e3e5"
       style="stroke-miterlimit:2"
       id="g83"
       transform="translate(48,37)">
      <g
         class="fills"
         id="g71" />
      <g
         class="errorbars"
         id="g73" />
      <g
         class="lines"
         id="g77">
        <path
           class="js-line"
           d="m 0,42.48 3.71,2.3 3.72,5.75 7.43,17.86 3.71,11.39 11.14,33.45 3.72,9.69 18.57,48.24 3.71,10.34 11.15,25.64 3.71,6.78 3.72,5.07 3.71,2.92 3.71,0.78 3.72,-0.71 3.71,-0.88 3.72,0.25 7.43,2.23 3.71,-1.25 11.14,-8.48 3.72,-1.64 3.71,-3.59 3.72,-6.48 7.42,-15.12 3.72,-5.17 7.43,-6.39 3.71,-1.75 3.72,0.52 3.71,3.08 7.43,6.85 3.71,1.28 7.43,2.49 3.72,2.33 18.57,11.62 3.71,5.14 7.43,15.98 3.71,9.34 7.43,13.9 3.72,4.23 7.43,6.51 3.71,0.71 3.71,-2.73 3.72,-6.82 7.43,-24.08 3.71,-14.18 11.14,-37.03 3.72,-11.37 7.43,-19.52 3.71,-8.1 14.86,-35.27 3.71,-10.28 11.15,-35.79 3.71,-7.56"
           style="opacity:1;vector-effect:non-scaling-stroke;fill:none;stroke:#808080;stroke-width:4px;stroke-opacity:1"
           id="path75" />
      </g>
      <g
         class="points"
         id="g79" />
      <g
         class="text"
         id="g81" />
    </g>
    <g
       class="trace scatter tracecc64a1"
       style="stroke-miterlimit:2"
       id="g97"
       transform="translate(48,37)">
      <g
         class="fills"
         id="g85" />
      <g
         class="errorbars"
         id="g87" />
      <g
         class="lines"
         id="g91">
        <path
           class="js-line"
           d="m 312,42.48 3.71,2.3 3.72,5.75 7.43,17.86 3.71,11.39 11.14,33.45 3.72,9.69 18.57,48.24 3.71,10.34 11.15,25.64 3.71,6.78 3.72,5.07 3.71,2.92 3.71,0.78 3.72,-0.71 3.71,-0.88 3.72,0.25 7.43,2.23 3.71,-1.25 11.14,-8.48 3.72,-1.64 3.71,-3.59 3.72,-6.48 7.42,-15.12 3.72,-5.17 7.43,-6.39 3.71,-1.75 3.72,0.52 3.71,3.08 7.43,6.85 3.71,1.28 7.43,2.49 3.72,2.33 18.57,11.62 3.71,5.14 7.43,15.98 3.71,9.34 7.43,13.9 3.72,4.23 7.43,6.51 3.71,0.71 3.71,-2.73 3.72,-6.82 7.43,-24.08 3.71,-14.18 11.14,-37.03 3.72,-11.37 7.43,-19.52 3.71,-8.1 14.86,-35.27 3.71,-10.28 11.15,-35.79 3.71,-7.56"
           style="opacity:1;vector-effect:non-scaling-stroke;fill:none;stroke:#808080;stroke-width:4px;stroke-opacity:1"
           id="path89" />
      </g>
      <g
         class="points"
         id="g93" />
      <g
         class="text"
         id="g95" />
    </g>
    <g
       class="trace scatter traceb2e132"
       style="stroke-miterlimit:2"
       id="g111"
       transform="translate(48,37)">
      <g
         class="fills"
         id="g99" />
      <g
         class="errorbars"
         id="g101" />
      <g
         class="lines"
         id="g105">
        <path
           class="js-line"
           d="m 0,45.23 c 0,0 1.7532704,0.320544 2.57,0.66 0.1324995,0.05507 0.2556606,0.133309 0.37,0.22 1.0784108,0.817644 2.029118,1.799098 2.94,2.8 0.1342011,0.147464 0.2566892,0.305938 0.37,0.47 1.4836907,2.14822 2.7819137,4.422336 4.04,6.71 0.132894,0.24165 0.25481,0.489427 0.37,0.74 1.978666,4.304184 3.762093,8.697053 5.51,13.1 0.129987,0.327436 0.252818,0.657766 0.37,0.99 3.104019,8.800523 5.998673,17.674818 8.82,26.57 0.125293,0.395027 0.236989,0.794257 0.36,1.19 7.295164,23.46946 14.417031,47.00237 22.42,70.24 0.115734,0.33605 0.240389,0.66906 0.37,1 2.687456,6.86202 5.461477,13.69365 8.45,20.43 0.116698,0.26305 0.239322,0.52361 0.37,0.78 2.321403,4.55453 4.731441,9.06958 7.35,13.46 0.116032,0.19455 0.24008,0.38444 0.37,0.57 1.750093,2.49957 3.56763,4.95673 5.51,7.31 0.117184,0.14197 0.239552,0.28011 0.37,0.41 1.746392,1.73897 3.566155,3.41496 5.51,4.93 0.1174,0.0915 0.241902,0.17419 0.37,0.25 1.538294,0.91033 3.127968,1.74376 4.77,2.45 0.120088,0.0516 0.243517,0.097 0.37,0.13 1.686135,0.44033 3.416091,0.72535 5.15,0.9 0.119442,0.012 0.240114,0.0162 0.36,0.01 1.729248,-0.0896 3.452136,-0.34003 5.15,-0.68 0.125272,-0.0251 0.249232,-0.0583 0.37,-0.1 2.261941,-0.78065 4.464234,-1.741 6.61,-2.8 0.127169,-0.0628 0.249537,-0.13517 0.37,-0.21 2.51385,-1.56162 4.95571,-3.24062 7.35,-4.98 0.12299,-0.0893 0.24229,-0.1838 0.36,-0.28 4.25183,-3.47499 8.36744,-7.11398 12.5,-10.73 0.12437,-0.10883 0.24437,-0.22263 0.37,-0.33 4.57184,-3.90741 9.13663,-7.83769 13.96,-11.43 0.11938,-0.0889 0.24404,-0.17069 0.37,-0.25 2.52339,-1.5889 5.08253,-3.12865 7.72,-4.52 0.11738,-0.0619 0.23708,-0.11998 0.36,-0.17 2.16177,-0.87961 4.37212,-1.65228 6.62,-2.28 0.12153,-0.0339 0.24536,-0.0603 0.37,-0.08 1.94578,-0.30697 3.91144,-0.51887 5.88,-0.59 0.11997,-0.004 0.2404,-3.7e-4 0.36,0.01 1.97345,0.17113 3.94046,0.45755 5.88,0.86 0.12509,0.026 0.24866,0.06 0.37,0.1 1.99882,0.65887 3.96143,1.43485 5.88,2.3 0.12639,0.057 0.24977,0.12095 0.37,0.19 2.26686,1.30183 4.46439,2.72676 6.61,4.22 0.12695,0.0883 0.25008,0.18232 0.37,0.28 2.6521,2.16007 5.2067,4.4399 7.72,6.76 0.12644,0.11672 0.25041,0.23627 0.37,0.36 4.80833,4.97473 9.37659,10.17731 13.96,15.36 0.12527,0.14165 0.24368,0.2893 0.37,0.43 5.14708,5.73299 10.24529,11.531 15.8,16.87 0.11756,0.113 0.24295,0.21779 0.37,0.32 2.14328,1.72411 4.32301,3.41165 6.61,4.94 0.1193,0.0797 0.24159,0.15597 0.37,0.22 2.0147,1.0047 4.10171,1.88671 6.25,2.56 0.1173,0.0368 0.23811,0.064 0.36,0.08 1.58122,0.20712 3.18698,0.27373 4.78,0.2 0.12432,-0.006 0.24857,-0.0227 0.37,-0.05 1.50483,-0.33787 2.98404,-0.81236 4.41,-1.4 0.12819,-0.0528 0.25134,-0.1183 0.37,-0.19 1.53789,-0.92929 3.01822,-1.9635 4.41,-3.1 0.12785,-0.1044 0.24493,-0.22166 0.36,-0.34 1.53878,-1.58258 3.00874,-3.23445 4.41,-4.94 0.12993,-0.15814 0.25366,-0.32161 0.37,-0.49 1.82992,-2.64856 3.5374,-5.38378 5.15,-8.17 0.12847,-0.22197 0.24556,-0.45048 0.36,-0.68 2.06137,-4.13432 4.01284,-8.32441 5.88,-12.55 0.12985,-0.29387 0.25297,-0.59079 0.37,-0.89 2.33331,-5.96534 4.52823,-11.98574 6.62,-18.04 0.12702,-0.36765 0.24382,-0.73878 0.36,-1.11 2.66115,-8.50301 5.22236,-17.03753 7.72,-25.59 0.1272,-0.43556 0.25058,-0.87225 0.37,-1.31 4.05317,-14.85764 7.7779,-29.80315 11.76,-44.68 3.49883,-13.07138 6.64405,-26.248123 10.66,-39.17 1.97799,-6.364459 3.92017,-12.772164 6.61,-18.87 1.25138,-2.836874 2.49052,-5.754965 4.41,-8.19 0.91631,-1.162424 1.89883,-2.513402 3.31,-2.96 1.1743,-0.371634 2.55445,-0.09214 3.67,0.43 1.53116,0.716671 2.62596,2.168237 3.68,3.49 1.79923,2.256236 3.11617,4.870494 4.41,7.45 2.28172,4.549068 4.09978,9.322285 5.88,14.09 3.40922,9.130445 6.16817,18.490877 9.18,27.76 7.595,23.37415 14.41703,47.00237 22.42,70.24 0.11573,0.33605 0.24039,0.66906 0.37,1 2.68746,6.86202 5.46148,13.69365 8.45,20.43 0.1167,0.26305 0.23932,0.52361 0.37,0.78 2.3214,4.55453 4.73144,9.06958 7.35,13.46 0.11603,0.19455 0.24008,0.38444 0.37,0.57 1.75009,2.49957 3.56763,4.95673 5.51,7.31 0.11718,0.14197 0.23955,0.28011 0.37,0.41 1.74639,1.73897 3.56616,3.41496 5.51,4.93 0.1174,0.0915 0.2419,0.17419 0.37,0.25 1.53829,0.91033 3.12797,1.74376 4.77,2.45 0.12009,0.0516 0.24352,0.097 0.37,0.13 1.68614,0.44033 3.41609,0.72535 5.15,0.9 0.11944,0.012 0.24011,0.0162 0.36,0.01 1.72925,-0.0896 3.45214,-0.34003 5.15,-0.68 0.12527,-0.0251 0.24923,-0.0583 0.37,-0.1 2.26194,-0.78065 4.46423,-1.741 6.61,-2.8 0.12717,-0.0628 0.24954,-0.13517 0.37,-0.21 2.51385,-1.56162 4.95571,-3.24062 7.35,-4.98 0.12299,-0.0893 0.24229,-0.1838 0.36,-0.28 4.25183,-3.47499 8.36744,-7.11398 12.5,-10.73 0.12437,-0.10883 0.24437,-0.22263 0.37,-0.33 4.57184,-3.90741 9.13663,-7.83769 13.96,-11.43 0.11938,-0.0889 0.24404,-0.17069 0.37,-0.25 2.52339,-1.5889 5.08253,-3.12865 7.72,-4.52 0.11738,-0.0619 0.23708,-0.11998 0.36,-0.17 2.16177,-0.87961 4.37212,-1.65228 6.62,-2.28 0.12153,-0.0339 0.24536,-0.0603 0.37,-0.08 1.94578,-0.30697 3.91144,-0.51887 5.88,-0.59 0.11997,-0.004 0.2404,-3.7e-4 0.36,0.01 1.97345,0.17113 3.94046,0.45755 5.88,0.86 0.12509,0.026 0.24866,0.06 0.37,0.1 1.99882,0.65887 3.96143,1.43485 5.88,2.3 0.12639,0.057 0.24977,0.12095 0.37,0.19 2.26686,1.30183 4.46439,2.72676 6.61,4.22 0.12695,0.0883 0.25008,0.18232 0.37,0.28 2.6521,2.16007 5.2067,4.4399 7.72,6.76 0.12644,0.11672 0.25041,0.23627 0.37,0.36 4.80833,4.97473 9.37659,10.17731 13.96,15.36 0.12527,0.14165 0.24368,0.2893 0.37,0.43 5.14708,5.73299 10.24529,11.531 15.8,16.87 0.11756,0.113 0.24295,0.21779 0.37,0.32 2.14328,1.72411 4.32301,3.41165 6.61,4.94 0.1193,0.0797 0.24159,0.15597 0.37,0.22 2.0147,1.0047 4.10171,1.88671 6.25,2.56 0.1173,0.0368 0.23811,0.064 0.36,0.08 1.58122,0.20712 3.18698,0.27373 4.78,0.2 0.12432,-0.006 0.24857,-0.0227 0.37,-0.05 1.50483,-0.33787 2.98404,-0.81236 4.41,-1.4 0.12819,-0.0528 0.25134,-0.1183 0.37,-0.19 1.53789,-0.92929 3.01822,-1.9635 4.41,-3.1 0.12785,-0.1044 0.24493,-0.22166 0.36,-0.34 1.53878,-1.58258 3.00874,-3.23445 4.41,-4.94 0.12993,-0.15814 0.25366,-0.32161 0.37,-0.49 1.82992,-2.64856 3.5374,-5.38378 5.15,-8.17 0.12847,-0.22197 0.24556,-0.45048 0.36,-0.68 2.06137,-4.13432 4.01284,-8.32441 5.88,-12.55 0.12985,-0.29387 0.25297,-0.59079 0.37,-0.89 2.33331,-5.96534 4.52823,-11.98574 6.62,-18.04 0.12702,-0.36765 0.24382,-0.73878 0.36,-1.11 2.66115,-8.50301 5.22236,-17.03753 7.72,-25.59 0.1272,-0.43556 0.25058,-0.87225 0.37,-1.31 4.05317,-14.85764 7.87113,-29.77851 11.76,-44.68 0.12433,-0.47641 0.24357,-0.95414 0.37,-1.43 3.34818,-12.60202 6.70132,-25.204345 10.29,-37.74 0.11494,-0.401484 0.23033,-0.803028 0.36,-1.2 1.93985,-5.9388 3.9475,-11.86217 6.25,-17.67 0.11276,-0.284423 0.23451,-0.565674 0.37,-0.84 1.238,-2.506663 2.50872,-5.010942 4.04,-7.35 0.11065,-0.16902 0.23033,-0.334042 0.37,-0.48 0.88641,-0.926317 1.82693,-1.843725 2.94,-2.48 0.11349,-0.06488 0.24357,-0.09676 0.37,-0.13 0.23904,-0.06284 0.73,-0.13 0.73,-0.13"
           style="opacity:1;vector-effect:non-scaling-stroke;fill:none;stroke:#000000;stroke-width:2px;stroke-opacity:1"
           id="path103"
           sodipodi:nodetypes="caaaaaaaaaaaaaaaaaaaaaaaaaaaaaaaaaaaaaaaaaaaaaaaaaaaaaaaaaaaaaaaaaaaaaaaaaaaaaaaaaaaaaaaaaaaaaaaaaaaaaaaaaaaaaaaaaaaaaaaaaaaaaaaaaaaaaaaaaaaaaaaaaaaaaaaaaac" />
      </g>
      <g
         class="points"
         id="g107" />
      <g
         class="text"
         id="g109" />
    </g>
    <text
       text-anchor="end"
       x="47"
       y="280.54001"
       style="font-style:normal;font-variant:normal;font-weight:normal;font-stretch:normal;font-size:13.3333px;line-height:normal;font-family:'Latin Modern Roman';font-variant-ligatures:normal;font-variant-position:normal;font-variant-caps:normal;font-variant-numeric:normal;font-variant-alternates:normal;font-variant-east-asian:normal;font-feature-settings:normal;font-variation-settings:normal;text-indent:0;text-align:start;text-decoration:none;text-decoration-line:none;text-decoration-style:solid;text-decoration-color:#000000;letter-spacing:normal;word-spacing:normal;text-transform:none;writing-mode:lr-tb;direction:ltr;text-orientation:mixed;dominant-baseline:auto;baseline-shift:baseline;text-anchor:end;white-space:pre;shape-padding:0;shape-margin:0;inline-size:0;vector-effect:none;fill:#000000;fill-opacity:1;stroke-width:1;stroke-linecap:butt;stroke-linejoin:miter;stroke-miterlimit:4;stroke-dasharray:none;stroke-dashoffset:0;stroke-opacity:1;stop-color:#000000"
       id="text165"
       transform="translate(-6)">−0.5</text>
    <text
       text-anchor="end"
       x="47"
       y="214.67"
       style="font-style:normal;font-variant:normal;font-weight:normal;font-stretch:normal;font-size:13.3333px;line-height:normal;font-family:'Latin Modern Roman';font-variant-ligatures:normal;font-variant-position:normal;font-variant-caps:normal;font-variant-numeric:normal;font-variant-alternates:normal;font-variant-east-asian:normal;font-feature-settings:normal;font-variation-settings:normal;text-indent:0;text-align:start;text-decoration:none;text-decoration-line:none;text-decoration-style:solid;text-decoration-color:#000000;letter-spacing:normal;word-spacing:normal;text-transform:none;writing-mode:lr-tb;direction:ltr;text-orientation:mixed;dominant-baseline:auto;baseline-shift:baseline;text-anchor:end;white-space:pre;shape-padding:0;shape-margin:0;inline-size:0;vector-effect:none;fill:#000000;fill-opacity:1;stroke-width:1;stroke-linecap:butt;stroke-linejoin:miter;stroke-miterlimit:4;stroke-dasharray:none;stroke-dashoffset:0;stroke-opacity:1;stop-color:#000000"
       id="text169"
       transform="translate(-6)">0</text>
    <text
       text-anchor="end"
       x="47"
       y="148.81"
       style="font-style:normal;font-variant:normal;font-weight:normal;font-stretch:normal;font-size:13.3333px;line-height:normal;font-family:'Latin Modern Roman';font-variant-ligatures:normal;font-variant-position:normal;font-variant-caps:normal;font-variant-numeric:normal;font-variant-alternates:normal;font-variant-east-asian:normal;font-feature-settings:normal;font-variation-settings:normal;text-indent:0;text-align:start;text-decoration:none;text-decoration-line:none;text-decoration-style:solid;text-decoration-color:#000000;letter-spacing:normal;word-spacing:normal;text-transform:none;writing-mode:lr-tb;direction:ltr;text-orientation:mixed;dominant-baseline:auto;baseline-shift:baseline;text-anchor:end;white-space:pre;shape-padding:0;shape-margin:0;inline-size:0;vector-effect:none;fill:#000000;fill-opacity:1;stroke-width:1;stroke-linecap:butt;stroke-linejoin:miter;stroke-miterlimit:4;stroke-dasharray:none;stroke-dashoffset:0;stroke-opacity:1;stop-color:#000000"
       id="text173"
       transform="translate(-6)">0.5</text>
    <text
       text-anchor="end"
       x="41"
       y="82.949997"
       style="font-size:13.3333px;font-family:'Latin Modern Roman';white-space:pre;fill:#000000;fill-opacity:1"
       id="text177">1</text>
    <g
       class="traces"
       transform="translate(88.000001,80.300001)"
       id="g235">
      <text
         class="legendtext"
         text-anchor="start"
         x="40"
         y="3.9000001"
         style="font-size:13.3333px;font-family:'Latin Modern Roman';white-space:pre;fill:#000000;fill-opacity:1"
         id="text219">Pseudo Cycles Average</text>
      <g
         class="layers"
         style="opacity:1"
         id="g231">
        <g
           class="legendfill"
           id="g221" />
        <g
           class="legendlines"
           id="g225">
          <path
             class="js-line"
             d="M 5,0 H 35"
             style="fill:none;stroke:#808080;stroke-width:4px;stroke-opacity:1"
             id="path223" />
        </g>
        <g
           class="legendsymbols"
           id="g229">
          <g
             class="legendpoints"
             id="g227" />
        </g>
      </g>
      <rect
         class="legendtoggle"
         pointer-events="all"
         x="0"
         y="-9.5"
         width="137.29688"
         height="19"
         style="fill:#000000;fill-opacity:0"
         id="rect233" />
    </g>
    <g
       class="traces"
       transform="translate(88.000001,112.985)"
       id="g253">
      <text
         class="legendtext"
         text-anchor="start"
         x="40"
         y="3.9000001"
         style="font-size:13.3333px;font-family:'Latin Modern Roman';white-space:pre;fill:#000000;fill-opacity:1"
         id="text237">Parametric Pseudo Cycles Average</text>
      <g
         class="layers"
         style="opacity:1"
         id="g249">
        <g
           class="legendfill"
           id="g239" />
        <g
           class="legendlines"
           id="g243">
          <path
             class="js-line"
             d="M 5,0 H 35"
             style="fill:none;stroke:#000000;stroke-width:2px;stroke-opacity:1"
             id="path241" />
        </g>
        <g
           class="legendsymbols"
           id="g247">
          <g
             class="legendpoints"
             id="g245" />
        </g>
      </g>
      <rect
         class="legendtoggle"
         pointer-events="all"
         x="0"
         y="-9.5"
         width="183.10938"
         height="19"
         style="fill:#000000;fill-opacity:0"
         id="rect251" />
    </g>
    <text
       class="ytitle"
       transform="rotate(-90,19.911198,10.845934)"
       x="-143.5"
       y="11.000393"
       text-anchor="middle"
       style="font-style:normal;font-variant:normal;font-weight:normal;font-stretch:normal;font-size:13.3333px;line-height:normal;font-family:'Latin Modern Roman';font-variant-ligatures:normal;font-variant-position:normal;font-variant-caps:normal;font-variant-numeric:normal;font-variant-alternates:normal;font-variant-east-asian:normal;font-feature-settings:normal;font-variation-settings:normal;text-indent:0;text-align:start;text-decoration:none;text-decoration-line:none;text-decoration-style:solid;text-decoration-color:#000000;letter-spacing:normal;word-spacing:normal;text-transform:none;writing-mode:lr-tb;direction:ltr;text-orientation:mixed;dominant-baseline:auto;baseline-shift:baseline;text-anchor:end;white-space:pre;shape-padding:0;shape-margin:0;inline-size:0;opacity:1;vector-effect:none;fill:#000000;fill-opacity:1;stroke-width:1;stroke-linecap:butt;stroke-linejoin:miter;stroke-miterlimit:4;stroke-dasharray:none;stroke-dashoffset:0;stroke-opacity:1;stop-color:#000000;stop-opacity:1"
       id="text294"><tspan
         style="font-style:normal;font-variant:normal;font-weight:bold;font-stretch:normal;font-size:13.3333px;font-family:'Latin Modern Roman';-inkscape-font-specification:'Latin Modern Roman, Bold'"
         id="tspan1551">Amplitude</tspan></text>
    <circle
       style="font-variation-settings:normal;display:inline;opacity:1;vector-effect:none;fill:none;fill-opacity:1;stroke:#c0c0c0;stroke-width:1px;stroke-linecap:butt;stroke-linejoin:miter;stroke-miterlimit:4;stroke-dasharray:none;stroke-dashoffset:0;stroke-opacity:1;stop-color:#000000;stop-opacity:1"
       id="path1521"
       cx="360.31912"
       cy="81.308533"
       r="4.558157" />
    <g
       id="g1020"
       transform="matrix(16.103855,0,0,16.279047,14596.306,-1264.2835)"
       style="stroke-width:0.0617619">
      <circle
         style="font-variation-settings:normal;opacity:1;vector-effect:none;fill:#ffffff;fill-opacity:1;stroke:#c0c0c0;stroke-width:0.0617619px;stroke-linecap:butt;stroke-linejoin:miter;stroke-miterlimit:4;stroke-dasharray:none;stroke-dashoffset:0;stroke-opacity:1;stop-color:#000000;stop-opacity:1"
         id="path1521-8-4"
         cx="-874.03571"
         cy="85.692917"
         r="4.558157" />
      <path
         style="opacity:1;vector-effect:non-scaling-stroke;fill:none;stroke:#808080;stroke-width:0.247047px;stroke-miterlimit:2;stroke-opacity:1"
         d="m -876.07973,89.859312 1.72492,-3.514924"
         id="path998" />
      <path
         style="opacity:1;vector-effect:non-scaling-stroke;fill:none;stroke:#808080;stroke-width:0.247047px;stroke-miterlimit:2;stroke-opacity:1"
         d="m -874.35481,83.864388 3.71,2.3 0.8315,1.285253"
         id="path89-8" />
      <path
         style="opacity:1;vector-effect:non-scaling-stroke;fill:none;stroke:#000000;stroke-width:0.123524px;stroke-miterlimit:2;stroke-opacity:1"
         d="m -877.70865,88.499403 c 0.64103,-0.729009 1.36179,-1.372705 2.25384,-1.655015 1.1743,-0.371635 2.55445,-0.09214 3.67,0.43 0.54603,0.255572 1.03656,0.604601 1.48954,1.007872"
         id="path988" />
      <circle
         style="font-variation-settings:normal;opacity:1;vector-effect:none;fill:none;fill-opacity:1;stroke:#c0c0c0;stroke-width:0.0617619px;stroke-linecap:butt;stroke-linejoin:miter;stroke-miterlimit:4;stroke-dasharray:none;stroke-dashoffset:0;stroke-opacity:1;stop-color:#000000;stop-opacity:1"
         id="path1521-8"
         cx="-874.03571"
         cy="85.692917"
         r="4.558157" />
    </g>
    <g
       id="g1116"
       transform="translate(0,-48)">
      <text
         text-anchor="middle"
         x="204"
         y="370"
         style="font-size:13.3333px;font-family:'Latin Modern Roman';white-space:pre;fill:#000000;fill-opacity:1"
         id="text143">0.5</text>
      <text
         text-anchor="middle"
         x="48"
         y="370"
         style="font-style:normal;font-variant:normal;font-weight:normal;font-stretch:normal;font-size:13.3333px;line-height:normal;font-family:'Latin Modern Roman';font-variant-ligatures:normal;font-variant-position:normal;font-variant-caps:normal;font-variant-numeric:normal;font-variant-alternates:normal;font-variant-east-asian:normal;font-feature-settings:normal;font-variation-settings:normal;text-indent:0;text-align:start;text-decoration:none;text-decoration-line:none;text-decoration-style:solid;text-decoration-color:#000000;letter-spacing:normal;word-spacing:normal;text-transform:none;writing-mode:lr-tb;direction:ltr;text-orientation:mixed;dominant-baseline:auto;baseline-shift:baseline;text-anchor:middle;white-space:pre;shape-padding:0;shape-margin:0;inline-size:0;vector-effect:none;fill:#000000;fill-opacity:1;stroke-width:1;stroke-linecap:butt;stroke-linejoin:miter;stroke-miterlimit:4;stroke-dasharray:none;stroke-dashoffset:0;stroke-opacity:1;stop-color:#000000"
         id="text139"
         transform="translate(-6)">0</text>
      <text
         text-anchor="middle"
         x="360"
         y="370"
         style="font-style:normal;font-variant:normal;font-weight:normal;font-stretch:normal;font-size:13.3333px;line-height:normal;font-family:'Latin Modern Roman';font-variant-ligatures:normal;font-variant-position:normal;font-variant-caps:normal;font-variant-numeric:normal;font-variant-alternates:normal;font-variant-east-asian:normal;font-feature-settings:normal;font-variation-settings:normal;text-indent:0;text-align:start;text-decoration:none;text-decoration-line:none;text-decoration-style:solid;text-decoration-color:#000000;letter-spacing:normal;word-spacing:normal;text-transform:none;writing-mode:lr-tb;direction:ltr;text-orientation:mixed;dominant-baseline:auto;baseline-shift:baseline;text-anchor:middle;white-space:pre;shape-padding:0;shape-margin:0;inline-size:0;opacity:1;vector-effect:none;fill:#000000;fill-opacity:1;stroke-width:1;stroke-linecap:butt;stroke-linejoin:miter;stroke-miterlimit:4;stroke-dasharray:none;stroke-dashoffset:0;stroke-opacity:1;stop-color:#000000;stop-opacity:1"
         id="text147">1;0</text>
      <text
         text-anchor="middle"
         x="516"
         y="370"
         style="font-style:normal;font-variant:normal;font-weight:normal;font-stretch:normal;font-size:13.3333px;line-height:normal;font-family:'Latin Modern Roman';font-variant-ligatures:normal;font-variant-position:normal;font-variant-caps:normal;font-variant-numeric:normal;font-variant-alternates:normal;font-variant-east-asian:normal;font-feature-settings:normal;font-variation-settings:normal;text-indent:0;text-align:start;text-decoration:none;text-decoration-line:none;text-decoration-style:solid;text-decoration-color:#000000;letter-spacing:normal;word-spacing:normal;text-transform:none;writing-mode:lr-tb;direction:ltr;text-orientation:mixed;dominant-baseline:auto;baseline-shift:baseline;text-anchor:middle;white-space:pre;shape-padding:0;shape-margin:0;inline-size:0;opacity:1;vector-effect:none;fill:#000000;fill-opacity:1;stroke-width:1;stroke-linecap:butt;stroke-linejoin:miter;stroke-miterlimit:4;stroke-dasharray:none;stroke-dashoffset:0;stroke-opacity:1;stop-color:#000000;stop-opacity:1"
         id="text151">0.5</text>
      <text
         text-anchor="middle"
         x="672"
         y="370"
         style="font-style:normal;font-variant:normal;font-weight:normal;font-stretch:normal;font-size:13.3333px;line-height:normal;font-family:'Latin Modern Roman';font-variant-ligatures:normal;font-variant-position:normal;font-variant-caps:normal;font-variant-numeric:normal;font-variant-alternates:normal;font-variant-east-asian:normal;font-feature-settings:normal;font-variation-settings:normal;text-indent:0;text-align:start;text-decoration:none;text-decoration-line:none;text-decoration-style:solid;text-decoration-color:#000000;letter-spacing:normal;word-spacing:normal;text-transform:none;writing-mode:lr-tb;direction:ltr;text-orientation:mixed;dominant-baseline:auto;baseline-shift:baseline;text-anchor:middle;white-space:pre;shape-padding:0;shape-margin:0;inline-size:0;opacity:1;vector-effect:none;fill:#000000;fill-opacity:1;stroke-width:1;stroke-linecap:butt;stroke-linejoin:miter;stroke-miterlimit:4;stroke-dasharray:none;stroke-dashoffset:0;stroke-opacity:1;stop-color:#000000;stop-opacity:1"
         id="text155">1</text>
      <text
         text-anchor="middle"
         x="204"
         y="370"
         style="font-style:normal;font-variant:normal;font-weight:normal;font-stretch:normal;font-size:13.3333px;line-height:normal;font-family:'Latin Modern Roman';font-variant-ligatures:normal;font-variant-position:normal;font-variant-caps:normal;font-variant-numeric:normal;font-variant-alternates:normal;font-variant-east-asian:normal;font-feature-settings:normal;font-variation-settings:normal;text-indent:0;text-align:start;text-decoration:none;text-decoration-line:none;text-decoration-style:solid;text-decoration-color:#000000;letter-spacing:normal;word-spacing:normal;text-transform:none;writing-mode:lr-tb;direction:ltr;text-orientation:mixed;dominant-baseline:auto;baseline-shift:baseline;text-anchor:middle;white-space:pre;shape-padding:0;shape-margin:0;inline-size:0;opacity:1;vector-effect:none;fill:#000000;fill-opacity:1;stroke-width:1;stroke-linecap:butt;stroke-linejoin:miter;stroke-miterlimit:4;stroke-dasharray:none;stroke-dashoffset:0;stroke-opacity:1;stop-color:#000000;stop-opacity:1"
         id="text143-6"
         transform="translate(0,20)"><tspan
           style="font-style:italic;font-variant:normal;font-weight:bold;font-stretch:normal;font-family:'Latin Modern Roman';-inkscape-font-specification:'Latin Modern Roman,  Bold Italic'"
           id="tspan1519">x</tspan></text>
      <text
         text-anchor="middle"
         x="204"
         y="370"
         style="font-style:normal;font-variant:normal;font-weight:normal;font-stretch:normal;font-size:13.3333px;line-height:normal;font-family:'Latin Modern Roman';font-variant-ligatures:normal;font-variant-position:normal;font-variant-caps:normal;font-variant-numeric:normal;font-variant-alternates:normal;font-variant-east-asian:normal;font-feature-settings:normal;font-variation-settings:normal;text-indent:0;text-align:start;text-decoration:none;text-decoration-line:none;text-decoration-style:solid;text-decoration-color:#000000;letter-spacing:normal;word-spacing:normal;text-transform:none;writing-mode:lr-tb;direction:ltr;text-orientation:mixed;dominant-baseline:auto;baseline-shift:baseline;text-anchor:middle;white-space:pre;shape-padding:0;shape-margin:0;inline-size:0;opacity:1;vector-effect:none;fill:#000000;fill-opacity:1;stroke-width:1;stroke-linecap:butt;stroke-linejoin:miter;stroke-miterlimit:4;stroke-dasharray:none;stroke-dashoffset:0;stroke-opacity:1;stop-color:#000000;stop-opacity:1"
         id="text143-6-9"
         transform="translate(312,20.000004)"><tspan
           style="font-style:italic;font-variant:normal;font-weight:bold;font-stretch:normal;font-family:'Latin Modern Roman';-inkscape-font-specification:'Latin Modern Roman,  Bold Italic'"
           id="tspan1519-1">x</tspan></text>
    </g>
  </g>
</svg>
