<?xml version="1.0" encoding="UTF-8" standalone="no"?>
<svg
   xmlns:dc="http://purl.org/dc/elements/1.1/"
   xmlns:cc="http://creativecommons.org/ns#"
   xmlns:rdf="http://www.w3.org/1999/02/22-rdf-syntax-ns#"
   xmlns:svg="http://www.w3.org/2000/svg"
   xmlns="http://www.w3.org/2000/svg"
   xmlns:sodipodi="http://sodipodi.sourceforge.net/DTD/sodipodi-0.dtd"
   xmlns:inkscape="http://www.inkscape.org/namespaces/inkscape"
   class="main-svg"
   width="605"
   height="400"
   style=""
   viewBox="0 0 605 400"
   version="1.1"
   id="svg255"
   sodipodi:docname="02AnalyticSignal.svg"
   inkscape:version="1.0.1 (3bc2e813f5, 2020-09-07)">
  <text
     class="ytitle"
     transform="rotate(-90)"
     x="-195.5"
     y="11.999694"
     text-anchor="middle"
     style="font-weight:normal;font-size:13.33px;font-family:'Latin Modern Roman';white-space:pre;fill:#000000"
     id="text249"><tspan
       style="font-weight:bold"
       id="tspan247">Amplitude</tspan></text>
  <metadata
     id="metadata259">
    <rdf:RDF>
      <cc:Work
         rdf:about="">
        <dc:format>image/svg+xml</dc:format>
        <dc:type
           rdf:resource="http://purl.org/dc/dcmitype/StillImage" />
      </cc:Work>
    </rdf:RDF>
  </metadata>
  <sodipodi:namedview
     pagecolor="#ffffff"
     bordercolor="#666666"
     borderopacity="1"
     objecttolerance="10"
     gridtolerance="10"
     guidetolerance="10"
     inkscape:pageopacity="0"
     inkscape:pageshadow="2"
     inkscape:window-width="1920"
     inkscape:window-height="1001"
     id="namedview257"
     showgrid="false"
     inkscape:zoom="2.075"
     inkscape:cx="302.5"
     inkscape:cy="200"
     inkscape:window-x="-9"
     inkscape:window-y="-9"
     inkscape:window-maximized="1"
     inkscape:current-layer="svg255" />
  <rect
     x="0"
     y="0"
     width="605"
     height="400"
     style="fill: rgb(0, 0, 0); fill-opacity: 0;"
     id="rect2" />
  <defs
     id="defs-7ec69e">
    <g
       class="clips"
       id="g16">
      <clipPath
         id="clip7ec69exyplot"
         class="plotclip">
        <rect
           width="542"
           height="325"
           id="rect4" />
      </clipPath>
      <clipPath
         class="axesclip"
         id="clip7ec69ex">
        <rect
           x="50"
           y="0"
           width="542"
           height="400"
           id="rect7" />
      </clipPath>
      <clipPath
         class="axesclip"
         id="clip7ec69ey">
        <rect
           x="0"
           y="33"
           width="605"
           height="325"
           id="rect10" />
      </clipPath>
      <clipPath
         class="axesclip"
         id="clip7ec69exy">
        <rect
           x="50"
           y="33"
           width="542"
           height="325"
           id="rect13" />
      </clipPath>
    </g>
    <g
       class="gradients"
       id="g18" />
  </defs>
  <rect
     class="bg"
     x="50"
     y="33"
     width="542"
     height="325"
     style="fill:#000000;fill-opacity:0;stroke-width:0"
     id="rect21" />
  <g
     class="x"
     id="g37" />
  <g
     class="y"
     id="g39" />
  <path
     class="yzl zl crisp"
     d="M 50,210.79 H 592"
     style="stroke:#808080;stroke-width:2px;stroke-opacity:1"
     id="path43" />
  <g
     class="shapelayer"
     id="g31" />
  <g
     class="imagelayer"
     id="g33" />
  <path
     class="xlines-below"
     id="path47"
     d="" />
  <path
     class="ylines-below"
     id="path49"
     d="" />
  <path
     class="xlines-above crisp"
     d="M 0,0"
     style="fill:none"
     id="path107" />
  <path
     class="ylines-above crisp"
     d="M 0,0"
     style="fill:none"
     id="path109" />
  <g
     class="scatterlayer mlayer"
     id="g101"
     transform="translate(50,33)">
    <g
       class="trace scatter trace604a78"
       style="opacity:1;stroke-miterlimit:2"
       id="g71">
      <g
         class="fills"
         id="g59" />
      <g
         class="errorbars"
         id="g61" />
      <g
         class="lines"
         id="g65">
        <path
           class="js-line"
           d="m 0,256.8 1.08,-3.8 0.55,-3.63 2.16,-24.16 0.55,-7.89 6.5,-92.94 0.54,-3.93 1.63,-5.88 0.54,0.06 1.08,3.05 0.55,2.92 2.16,19.29 0.55,6.29 6.5,73.68 0.54,3.1 1.63,4.6 0.54,-0.06 1.08,-2.42 0.55,-2.3 2.16,-15.18 0.55,-4.94 6.5,-57.52 0.54,-2.4 1.63,-3.56 0.54,0.05 1.08,1.9 0.55,1.78 2.16,11.76 0.55,3.81 6.5,44.31 0.54,1.84 1.63,2.73 0.54,-0.04 1.08,-1.45 0.55,-1.36 2.16,-8.99 0.55,-2.91 6.5,-33.85 0.54,-1.42 1.63,-2.11 0.54,0.02 1.08,1.08 0.55,1.04 2.16,6.82 0.55,2.21 6.5,25.99 0.54,1.11 1.63,1.69 0.54,0.01 1.63,-1.56 0.54,-1.01 2.71,-7.74 0.54,-1.9 5.42,-16.83 0.54,-0.91 1.63,-1.47 0.54,-0.05 1.63,1.15 0.54,0.78 2.71,6.21 0.54,1.56 5.42,14.32 0.54,0.83 2.17,1.52 0.54,-0.1 1.63,-1.4 0.54,-0.8 2.71,-5.99 0.54,-1.46 5.42,-12.92 0.54,-0.69 1.63,-1.01 0.54,0.03 1.63,1.21 0.54,0.76 2.71,5.9 0.54,1.48 5.42,13.79 0.54,0.79 1.63,1.26 0.54,0.02 1.63,-1.19 0.54,-0.79 2.71,-6.46 0.54,-1.66 5.96,-16.98 0.55,-0.76 1.62,-0.9 0.54,0.19 1.63,2.01 0.54,1.14 2.71,8.46 0.54,2.08 5.42,18.58 0.55,0.95 1.62,1.16 0.54,-0.2 1.63,-2.41 0.54,-1.38 2.71,-10.34 0.54,-2.55 5.42,-22.93 0.55,-1.18 1.62,-1.46 0.54,0.24 1.63,2.95 0.54,1.7 2.71,12.71 0.54,3.13 5.42,28.17 0.55,1.43 1.62,1.79 0.54,-0.3 1.09,-1.96 0.54,-1.65 2.17,-10.5 0.54,-3.42 6.5,-41.61 0.55,-1.74 1.62,-2.14 0.54,0.37 1.09,2.38 0.54,2 2.17,12.64 0.54,4.12 6.5,49.71 0.55,2.05 1.62,2.51 0.54,-0.45 1.09,-2.84 0.54,-2.37 2.17,-14.99 0.54,-4.86 6.5,-58.43 0.55,-2.39 1.62,-2.91 0.54,0.53 1.09,3.35 0.54,2.77 2.17,17.48 0.54,5.65 6.5,67.61 0.55,2.74 1.62,3.32 0.54,-0.63 1.09,-3.86 0.54,-3.2 2.17,-20.06 0.54,-6.47 6.5,-77.07 0.55,-3.11 1.62,-3.73 0.54,0.72 1.09,4.39 0.54,3.62 2.17,22.7 0.54,7.31 6.5,86.66 0.55,3.48 0.54,2.46 0.54,13.44 0.54,-12.15 0.54,5.24 3.26,-28.08 0.54,-15.93 0.54,-16.48 0.54,2.29 0.54,-8.81 0.55,0.64 0.54,-23.05 0.54,1.57 0.54,-8.61 1.63,-38.73 0.54,-9.33 0.54,9.22 0.54,-10 0.55,-16.4 0.54,3.36 0.54,0.41 0.54,-4.96 0.54,15.78 1.09,-10.35 0.54,2.76 1.08,26.94 0.55,2.44 2.71,64.37 0.54,-7.27 1.62,45.34 0.55,-12.36 1.08,38.14 0.54,-5.42 0.54,-7.25 0.55,3.49 0.54,23.72 0.54,-6.57 0.54,11.67 0.54,-22.44 0.55,18.92 2.16,-47.11 0.55,12.13 2.16,-59.63 0.55,-3.65 0.54,8.25 0.54,-60.65 0.54,18.66 0.54,-5.46 0.55,3.82 1.62,-42.21 0.54,-3.34 0.55,-18.02 0.54,12.36 0.54,-5.21 0.54,0.91 0.54,5.86 0.55,2.84 0.54,-7.97 1.08,27.87 0.54,12.25 1.09,-2.78 0.54,21.66 0.54,-5.61 0.54,35.37 0.55,3.16 0.54,37.19 0.54,-6.45 0.54,8.79 0.54,3.17 0.55,-1.17 0.54,25.65 0.54,-5.14 0.54,15.09 0.54,3.03 0.55,18.97 0.54,-14.63 0.54,25.94 0.54,-14.96 0.54,13.07 0.55,-6.94 0.54,5.15 1.62,-34.61 0.55,3.39 0.54,-38.51 0.54,0.14 0.54,-18.58 0.54,-10.09 0.55,2.02 0.54,0.29 1.08,-56.89 0.54,11.46 0.55,-30.07 0.54,4.46 0.54,-19.38 0.54,14.86 0.54,-37.32 0.55,7.28 0.54,-13.19 0.54,5.15 0.54,-6.74 0.54,10.56 0.55,-5.96 1.08,29.42 0.54,-11.54 1.63,39.02 0.54,4.6 1.63,53.75 0.54,7.95 0.54,-1.64 0.54,11.93 0.54,35.51 0.55,-9.16 0.54,30.81 0.54,-9.51 0.54,36.66 1.63,-2.57 0.54,-15.12 0.54,6.06 0.54,-8.61 0.55,1.03 0.54,11.62 0.54,-6.39 0.54,-22.36 0.54,2.18 0.55,-8.16 0.54,1.56 0.54,-25.85 0.54,16.64 0.54,-39.33 0.55,-8.02 0.54,-32.46 0.54,-0.76 0.54,-15.06 0.54,-31.51 0.55,14.67 0.54,-26.33 0.54,14.83 1.63,-52.29 0.54,15.83 1.08,-16.38 0.54,5.13 1.09,2.42 0.54,7.18 1.08,35.52 0.55,-31.42 0.54,18.46 0.54,50.49 0.54,-7.55 0.54,11.95 1.09,34.21 0.54,26.45 0.54,5.29 0.54,16.78 0.55,5.23 0.54,16.06 0.54,8.65 0.54,-4.39 0.54,4.92 0.55,33.63 0.54,-4.27 0.54,6.12 0.54,-22.88 0.54,13.52 0.55,-20.68 0.54,17.44 0.54,-12.46 0.54,7.8 0.54,-40.52 0.55,8.44 0.54,1 3.25,-119.8 0.54,6.96 1.09,-33.37 0.54,-5.71 0.54,11.7 0.54,-44.58 0.54,9.55 0.55,-12.01 0.54,11.05 0.54,-20.62 1.08,3.91 0.55,5.15 0.54,-8.96 0.54,7.69 0.54,11.16 0.54,-20.87 1.09,67.09 0.54,20.73 0.54,-3.2 0.54,27.77 0.55,38.58 0.54,-2.73 0.54,-0.55 0.54,3.17 0.54,44.03 0.55,1.6 0.54,6.14 0.54,17.5 0.54,-5.82 0.54,13.82 0.55,2.14 0.54,16.55 0.54,-24.48 0.54,18.69 0.54,-16.74 0.55,17.29 0.54,-17.23 0.54,8.29 0.54,-5.14 0.54,-12.75 1.63,-63.26 0.54,17.85 0.54,-15.19 0.55,-47.81 0.54,-1.91 0.54,14.79 1.08,-52.91 0.55,15.39 1.62,-65.23 0.54,-10.16 0.55,4.27 0.54,-15.17 1.62,21.83 0.55,-14.15 0.54,34.42 0.54,-24.28 1.08,30.23 0.55,0.91 0.54,3.83 0.54,50.12 0.54,0.53 0.54,4.32 1.63,68.64 0.54,-14.52 1.09,29.62 0.54,-0.73 0.54,37.4 0.54,-18.24 0.54,28.41 0.55,-10.81 0.54,16.18 0.54,-10.93 0.54,0.83 0.54,24.51 1.09,-23.94 0.54,-4.92 0.54,-2.19 0.54,-39.47 0.55,8.03 0.54,-27.3 0.54,11.5 0.54,-7.88 1.63,-81.76 0.54,10.31 0.54,-23.93 0.54,2.58 0.55,-11.04 1.62,-42.99 0.54,3.8 0.55,0.72 0.54,0.45 0.54,-13.23 0.54,-7.63 0.54,2.66 0.55,8.41 0.54,11.24 0.54,-1.91 0.54,3.16 1.63,39.08 0.54,0.61 1.63,45.76 0.54,10.06 0.54,5.11 0.54,21.97 0.54,13.27 0.55,33.96 1.08,-20.38 0.54,41.69 0.54,8.76 0.55,-3.37 0.54,-9.51 0.54,7.28 0.54,10.94 0.54,-6.02 1.63,-39.44 0.54,7.47 0.54,-1.92 0.55,-12.57 0.54,-0.83 0.54,-5.13 1.08,-39.98 0.55,6.5 2.16,-60.91 0.55,-17.97 0.54,-6.39 0.54,-18.45 0.54,20.13 0.54,-39.83 0.55,-2.39 0.54,10.24 0.54,-7.7 0.54,0.22 0.54,14.47 1.09,-7.65 0.54,10.22 0.54,-0.19 0.54,17.33 2.17,46.36 0.54,-8.81 1.09,48.88 0.54,-1.52 0.54,16.62 0.54,36.94 0.55,-22.72 0.54,27.55 0.54,-11.5 1.08,30.83 0.55,-13.3 0.54,20.71 0.54,-7.84 0.54,-5.64 1.09,-8.61 0.54,2.91 0.54,1.74 0.54,-30.1 0.54,14.47 0.55,-28.81 0.54,10.26 0.54,-23.23 0.54,-9.21 0.54,7.4 1.63,-45.45 0.54,-2.41 1.09,-16.3 0.54,-1.6 0.54,-24.1 0.54,6.38 0.54,-20.06 0.55,2.51 0.54,9.19 0.54,-6.9 0.54,0.95 0.54,5.64 0.55,-8.02 0.54,10.87 0.54,-11.18 0.54,11.28 1.09,19.97 0.54,9.22 0.54,17.79 0.54,-9.28 2.71,51.07 0.54,-0.08 0.55,1.26 1.08,33.53 0.54,-2.54 0.54,-2.4 0.55,-0.83 0.54,16.87 2.17,-15.35 0.54,8.3 3.79,-47.72 0.54,-2.24 0.55,-1.31 0.54,-7.16 1.08,-18.77 0.54,-3.49 1.63,-18.12 0.54,-2.75 0.54,1.3 0.55,5 0.54,-18.97 0.54,5 0.54,13.99 1.09,-11.03 0.54,5.14 0.54,-0.5 0.54,10.04 0.54,-0.9 0.55,5.19 4.87,38.55 0.55,2.21 0.54,1.04 0.54,6.84 0.54,8.41 0.54,-5.38 0.55,-0.4 0.54,1.87 0.54,-0.26"
           style="opacity:1;vector-effect:non-scaling-stroke;fill:none;stroke:#808080;stroke-width:1px;stroke-opacity:1"
           id="path63" />
      </g>
      <g
         class="points"
         id="g67" />
      <g
         class="text"
         id="g69" />
    </g>
    <g
       class="trace scatter trace5cf7d5"
       style="opacity:1;stroke-miterlimit:2"
       id="g85">
      <g
         class="fills"
         id="g73" />
      <g
         class="errorbars"
         id="g75" />
      <g
         class="lines"
         id="g79">
        <path
           class="js-line"
           d="m 0,86.17 1.08,16.4 0.55,1.04 1.62,4.51 0.54,-1.54 0.55,2.67 0.54,-1.77 0.54,2.58 0.54,-1.76 0.54,2.41 0.55,-1.62 0.54,2.19 0.54,-1.38 0.54,1.92 0.54,-1.07 0.55,1.61 0.54,-0.71 0.54,1.29 0.54,-0.34 0.54,0.96 1.09,0.68 0.54,0.39 2.71,2.06 0.54,1.21 0.54,-0.25 0.55,1.37 0.54,-0.35 0.54,1.47 0.54,-0.39 0.54,1.5 0.55,-0.37 0.54,1.47 0.54,-0.31 0.54,1.4 0.54,-0.2 0.55,1.26 0.54,-0.05 0.54,1.1 0.54,0.11 0.54,0.91 2.17,1.99 0.54,0.65 1.63,1.25 0.54,0.94 0.54,-0.01 0.55,1.03 0.54,-0.12 0.54,1.08 0.54,-0.18 0.54,1.1 0.55,-0.21 0.54,1.07 0.54,-0.19 0.54,1 0.54,-0.12 0.55,0.89 0.54,-0.03 0.54,0.77 1.63,0.92 0.54,0.49 21.68,13.82 0.54,-0.1 1.63,1.1 0.54,-0.02 2.17,1.05 0.54,0.3 18.43,6.75 0.54,-0.08 1.62,0.67 0.55,-0.12 1.62,0.62 0.54,-0.1 2.17,0.49 0.54,0.21 5.42,0.77 0.55,0.26 2.71,0.17 0.54,0.28 h 1.62 l 0.55,0.23 2.71,0.16 0.54,0.09 15.17,0.26 0.55,-0.07 5.96,-0.31 0.54,-0.18 2.71,-0.16 0.54,-0.14 5.42,-0.63 0.54,-0.17 3.8,-0.53 0.54,-0.2 3.79,-0.67 0.55,-0.14 10.84,-2.54 0.54,-0.2 7.59,-2.21 0.54,-0.22 7.04,-2.3 0.55,-0.2 15.17,-5.83 0.54,-0.23 22.77,-10.28 0.54,-0.33 8.67,-4.4 0.54,-0.42 2.71,-1.25 0.55,-0.4 3.79,-1.84 0.54,-0.27 30.9,-17.01 0.54,0.38 1.62,-1.77 0.55,0.69 0.54,-1.4 0.54,0.81 0.54,-1.55 0.54,0.92 0.55,-1.67 0.54,1 0.54,-1.77 0.54,1.06 0.54,-1.89 0.55,1.14 0.54,-2.56 0.54,-10.26 0.54,11.68 0.54,-5.8 1.63,4.06 0.54,-3.71 1.09,-1.24 0.54,-7.33 0.54,17.27 0.54,-3.44 0.54,3.15 1.09,-11.79 0.54,10.47 1.08,-14.87 0.55,2.28 0.54,-6.62 0.54,5.31 0.54,11.53 0.54,-11.78 0.55,-8.26 0.54,7.35 0.54,0.73 0.54,-5.52 0.54,14.04 0.55,-6.96 1.08,-14.4 0.54,10.28 0.54,9.23 0.55,-11.58 1.08,5.34 0.54,-0.14 0.54,-15.95 0.55,19.13 0.54,-1.84 0.54,-5.52 0.54,-4.94 0.54,8.05 0.55,4.37 0.54,-24.86 1.62,35.53 0.55,-9.57 0.54,-16.07 0.54,8.25 0.54,-12.01 0.54,19.48 1.09,-20.15 0.54,21.43 0.54,-18.04 0.54,18.71 1.09,-18.38 0.54,7.87 0.54,-2.37 0.54,-9.22 0.55,27.96 0.54,-38.08 0.54,-0.77 0.54,36.57 1.63,-22 0.54,6.8 1.63,-19.3 0.54,16.79 0.54,-5.48 0.54,0.25 0.54,5.3 0.55,0.09 0.54,-9.18 0.54,-7.45 0.54,13.89 1.09,11.89 0.54,-22.26 0.54,13.74 0.54,-18.41 1.09,4.39 0.54,-4.89 0.54,30.39 0.54,-15.7 0.54,19.27 0.55,-17.21 0.54,-0.84 0.54,5.33 1.63,-14.55 0.54,15.15 0.54,-22.63 0.54,16.73 0.54,-13.1 0.55,3.24 0.54,-7.3 0.54,0.04 0.54,12.86 0.54,0.47 0.55,-16.36 0.54,6.17 0.54,17.08 0.54,-14.57 0.54,25.35 0.55,-11.62 0.54,1.95 0.54,-34.53 0.54,23.28 0.54,-1.48 0.55,-4.08 1.62,14.29 0.54,-28.21 0.55,17.71 0.54,-11.48 0.54,8.14 0.54,-6.84 0.54,7.37 0.55,-8.57 1.08,26.8 0.54,-24.62 0.54,6.45 0.55,-3.35 0.54,10.21 0.54,-16.13 0.54,11.94 0.54,-8.5 0.55,0.88 0.54,11.32 0.54,4.12 0.54,-24.44 1.09,13.28 0.54,-13.75 0.54,15.89 0.54,-30.38 1.09,21.44 0.54,4.27 0.54,15.12 0.54,-6.63 0.54,7.63 0.55,-1.68 0.54,-13.13 0.54,-7.87 0.54,19.51 0.54,-6.85 0.55,4.52 0.54,-17.1 0.54,15.06 1.08,-28.4 0.55,12.75 0.54,-12.46 0.54,28.85 0.54,-32.35 0.54,20.57 0.55,4.69 0.54,-4.37 0.54,11.53 0.54,-24.89 0.54,3.65 0.55,-1.16 0.54,18.74 0.54,-15.75 0.54,1.36 0.54,4.32 1.09,-4.61 0.54,-3.77 1.08,31.74 0.55,-29.85 0.54,-27.78 0.54,29.57 0.54,10.86 0.54,-13.82 0.55,2.24 0.54,-13.77 1.08,14.23 0.54,1.83 0.55,1.88 0.54,-3.02 0.54,3.38 0.54,13.08 1.09,-31.48 0.54,10.31 0.54,-3.33 0.54,22.56 0.54,-14.63 0.55,17.81 1.62,-28.68 0.54,14.26 0.55,14.94 0.54,-30.78 0.54,18.44 0.54,-23.79 0.54,-3.49 0.55,15.46 0.54,-10.81 0.54,13.27 0.54,7.66 0.54,-11.28 1.63,20.43 0.54,-31.13 0.54,26.27 0.55,-11.54 0.54,17.17 0.54,-22.23 1.63,8.55 0.54,-7.34 0.54,-10.4 0.54,19.49 0.54,-47.22 0.55,23.54 1.08,18.3 0.54,-4.79 0.54,-17.63 0.55,15.33 0.54,23.89 0.54,-3.04 0.54,-11.61 0.54,-22 0.55,31.78 0.54,-15.89 0.54,8.45 0.54,2.84 0.54,-1.85 1.09,-10.42 0.54,24.44 0.54,-18.37 0.54,16.01 0.55,-19.04 0.54,11.25 1.62,-18.85 0.55,7.74 0.54,-7.83 0.54,19.68 0.54,2.78 0.54,-32.34 0.55,10.43 0.54,32.25 1.08,-35.98 0.54,28.37 0.55,-1.32 0.54,-24.85 0.54,7.3 0.54,-10.68 1.09,13.53 0.54,-8.31 1.62,22.81 0.55,-21.12 0.54,30.96 0.54,-24.66 1.08,16.67 0.55,-11.69 0.54,-17.22 0.54,6.36 0.54,32.13 0.54,-25.7 0.55,17.51 1.08,-21.12 0.54,32.63 0.54,-25.86 0.55,13.22 1.08,-20.58 0.54,22.81 0.54,-23.08 0.55,19.96 0.54,-16.05 0.54,14.75 0.54,-1.95 0.54,-24.59 1.09,13.19 0.54,1.98 0.54,-17.32 0.54,25.1 0.55,-2.3 0.54,3.29 0.54,9.95 0.54,-32.85 0.54,16.85 0.55,-21.52 1.08,29.1 0.54,-11.3 0.54,18.66 0.55,-15.18 0.54,2.3 0.54,-8.22 0.54,3.29 0.54,9.74 1.09,5.59 0.54,-10.82 0.54,-5.29 0.54,1.42 0.55,4.81 0.54,7.67 0.54,-3.04 0.54,-8.53 0.54,7.22 0.55,-1.81 0.54,7.93 0.54,-9.95 0.54,2 0.54,11.66 0.55,-6.99 0.54,8.45 1.62,-19.22 0.55,-3.9 0.54,33.47 0.54,-13.09 0.54,-25.07 0.54,9.87 1.09,20.81 0.54,-7.16 0.54,-9.43 0.54,2.71 0.55,11.26 0.54,-4.78 0.54,16.41 0.54,0.49 0.54,-12.98 0.55,9.07 0.54,-6.94 1.08,-13.54 0.54,22.1 1.63,-20.83 0.54,4.93 1.63,-3.07 0.54,2.26 0.54,15.89 0.54,-36.38 1.09,25.36 0.54,-5.7 0.54,0.1 0.54,12.34 1.09,-14.01 0.54,7.45 0.54,-10.6 0.54,6.74 0.55,-2.26 0.54,8.75 0.54,0.05 0.54,9.24 1.09,-25.76 0.54,12.07 0.54,7.6 0.54,-22.53 0.54,8.45 0.55,24.1 0.54,-21.84 0.54,25.07 0.54,-27.97 0.54,11.31 0.55,9.65 0.54,-14.86 1.62,18.26 0.55,0.18 0.54,-1.39 0.54,-17.12 0.54,27.64 0.54,-17.27 0.55,11.47 0.54,-1.87 0.54,-8.66 0.54,22.48 0.54,-15.45 0.55,-5.2 0.54,5.91 1.08,7.42 0.54,-6.68 0.55,12 0.54,-11.11 0.54,-5.27 0.54,10.1 0.54,-14.33 0.55,11.27 0.54,9.38 0.54,-6.26 0.54,1.49 0.54,5.66 0.55,-9.78 0.54,8.65 1.08,-16.2 0.54,13.73 0.55,1.52 0.54,-6.38 0.54,15.9 0.54,-2.58 0.54,-6.93 0.55,-3.86 0.54,4.51 0.54,4.31 0.54,-6.32 0.54,13.47 0.55,-9.38 0.54,-8.47 0.54,0.39 0.54,11.85 1.09,4.65 0.54,-13.01 1.08,11.93 0.54,1.44 0.55,5.34 0.54,-10.09 0.54,0.2 0.54,8.46 0.54,1.86 0.55,-3.04 0.54,7.8 0.54,-1.69 0.54,1.67 0.54,3.71 0.55,-3.89 1.08,-5.71 0.54,7.54 0.54,-3.71 0.55,1.77 0.54,3.59 0.54,-4.31 1.63,10.83 0.54,-16.28 1.08,21.87 0.54,-9.09 0.55,-3.43 0.54,3.61 0.54,-3.75 0.54,5.45 0.54,-0.14 0.55,-2.34 1.62,5.06 0.54,-4.78 0.55,0.21 0.54,4.37 0.54,-0.65 0.54,0.69 1.09,1.69 0.54,-1.73 1.08,-5.44 0.54,9.77 0.55,-6.01 0.54,2.35 0.54,-20.97"
           style="opacity:1;vector-effect:non-scaling-stroke;fill:none;stroke:#000000;stroke-width:1px;stroke-opacity:1"
           id="path77" />
      </g>
      <g
         class="points"
         id="g81" />
      <g
         class="text"
         id="g83" />
    </g>
    <g
       class="trace scatter tracea49d1b"
       style="opacity:1;stroke-miterlimit:2"
       id="g99">
      <g
         class="fills"
         id="g87" />
      <g
         class="errorbars"
         id="g89" />
      <g
         class="lines"
         id="g93">
        <path
           class="js-line"
           d="M 271,301.04 V 23.72"
           style="opacity:1;vector-effect:non-scaling-stroke;fill:none;stroke:#c0c0c0;stroke-width:2px;stroke-dasharray:9px, 9px;stroke-opacity:1"
           id="path91" />
      </g>
      <g
         class="points"
         id="g95" />
      <g
         class="text"
         id="g97" />
    </g>
  </g>
  <g
     class="ytick"
     id="g141">
    <text
       text-anchor="end"
       x="49"
       y="4.6666551"
       transform="translate(0,287.82)"
       style="font-size:13.3333px;font-family:'Latin Modern Roman';white-space:pre;fill:#000000;fill-opacity:1"
       id="text139">−0.5</text>
  </g>
  <g
     class="ytick"
     id="g145">
    <text
       text-anchor="end"
       x="49"
       y="4.6666551"
       transform="translate(0,210.79)"
       style="font-size:13.3333px;font-family:'Latin Modern Roman';white-space:pre;fill:#000000;fill-opacity:1"
       id="text143">0</text>
  </g>
  <g
     class="ytick"
     id="g149">
    <text
       text-anchor="end"
       x="49"
       y="4.6666551"
       transform="translate(0,133.75)"
       style="font-size:13.3333px;font-family:'Latin Modern Roman';white-space:pre;fill:#000000;fill-opacity:1"
       id="text147">0.5</text>
  </g>
  <g
     class="ytick"
     id="g153">
    <text
       text-anchor="end"
       x="49"
       y="4.6666551"
       transform="translate(0,56.72)"
       style="font-size:13.3333px;font-family:'Latin Modern Roman';white-space:pre;fill:#000000;fill-opacity:1"
       id="text151">1</text>
  </g>
  <g
     class="xtick"
     id="g115">
    <text
       text-anchor="middle"
       x="0"
       y="372.33331"
       transform="translate(50)"
       style="font-size:13.3333px;font-family:'Latin Modern Roman';white-space:pre;fill:#000000;fill-opacity:1"
       id="text113">0</text>
  </g>
  <g
     class="xtick"
     id="g119">
    <text
       text-anchor="middle"
       x="0"
       y="372.33331"
       transform="translate(158.4)"
       style="font-size:13.3333px;font-family:'Latin Modern Roman';white-space:pre;fill:#000000;fill-opacity:1"
       id="text117">200</text>
  </g>
  <g
     class="xtick"
     id="g123">
    <text
       text-anchor="middle"
       x="0"
       y="372.33331"
       transform="translate(266.8)"
       style="font-size:13.3333px;font-family:'Latin Modern Roman';white-space:pre;fill:#000000;fill-opacity:1"
       id="text121">400</text>
  </g>
  <g
     class="xtick"
     id="g127">
    <text
       text-anchor="middle"
       x="0"
       y="372.33331"
       transform="translate(375.2)"
       style="font-size:13.3333px;font-family:'Latin Modern Roman';white-space:pre;fill:#000000;fill-opacity:1"
       id="text125">600</text>
  </g>
  <g
     class="xtick"
     id="g131">
    <text
       text-anchor="middle"
       x="0"
       y="372.33331"
       transform="translate(483.6)"
       style="font-size:13.3333px;font-family:'Latin Modern Roman';white-space:pre;fill:#000000;fill-opacity:1"
       id="text129">800</text>
  </g>
  <g
     class="xtick"
     id="g135">
    <text
       text-anchor="middle"
       x="0"
       y="372.33331"
       transform="translate(592)"
       style="font-size:13.3333px;font-family:'Latin Modern Roman';white-space:pre;fill:#000000;fill-opacity:1"
       id="text133">1000</text>
  </g>
  <defs
     id="topdefs-7ec69e">
    <g
       class="clips"
       id="g179" />
    <clipPath
       id="legend7ec69e">
      <rect
         width="216"
         height="31"
         x="0"
         y="0"
         id="rect181" />
    </clipPath>
  </defs>
  <rect
     class="bg"
     shape-rendering="crispEdges"
     style="fill:#000000;fill-opacity:0;stroke:#444444;stroke-width:0px;stroke-opacity:1"
     width="216"
     height="31"
     x="50"
     y="0.5"
     id="rect191" />
  <rect
     class="scrollbar"
     rx="20"
     ry="3"
     width="0"
     height="0"
     style="fill:#808ba4;fill-opacity:1"
     x="50"
     y="0.5"
     id="rect233" />
  <text
     class="xtitle"
     x="321"
     y="397"
     text-anchor="middle"
     style="font-weight:normal;font-size:13.33px;font-family:'Latin Modern Roman';white-space:pre;fill:#000000"
     id="text243"><tspan
       style="font-weight:bold"
       id="tspan241"><tspan
         style="font-style:italic"
         id="tspan239">i</tspan></tspan></text>
  <g
     class="groups"
     id="g229"
     transform="translate(50,0.5)">
    <g
       class="traces"
       transform="translate(0,15.166645)"
       style="opacity:1"
       id="g209">
      <text
         class="legendtext"
         text-anchor="start"
         x="40"
         y="5.1999869"
         style="font-size:13.3333px;font-family:'Latin Modern Roman';white-space:pre;fill:#000000;fill-opacity:1"
         id="text193">Signal</text>
      <g
         class="layers"
         style="opacity:1"
         id="g205">
        <g
           class="legendfill"
           id="g195" />
        <g
           class="legendlines"
           id="g199">
          <path
             class="js-line"
             d="M 5,0 H 35"
             style="fill:none;stroke:#808080;stroke-width:1px;stroke-opacity:1"
             id="path197" />
        </g>
        <g
           class="legendsymbols"
           id="g203">
          <g
             class="legendpoints"
             id="g201" />
        </g>
      </g>
      <rect
         class="legendtoggle"
         x="0"
         y="-10.166645"
         width="76.875"
         height="20.33329"
         style="fill:#000000;fill-opacity:0"
         id="rect207" />
    </g>
    <g
       class="traces"
       transform="translate(79.375,15.166645)"
       style="opacity:1"
       id="g227">
      <text
         class="legendtext"
         text-anchor="start"
         x="40"
         y="5.1999869"
         style="font-size:13.3333px;font-family:'Latin Modern Roman';white-space:pre;fill:#000000;fill-opacity:1"
         id="text211">Hilbert Envelope</text>
      <g
         class="layers"
         style="opacity:1"
         id="g223">
        <g
           class="legendfill"
           id="g213" />
        <g
           class="legendlines"
           id="g217">
          <path
             class="js-line"
             d="M 5,0 H 35"
             style="fill:none;stroke:#000000;stroke-width:1px;stroke-opacity:1"
             id="path215" />
        </g>
        <g
           class="legendsymbols"
           id="g221">
          <g
             class="legendpoints"
             id="g219" />
        </g>
      </g>
      <rect
         class="legendtoggle"
         x="0"
         y="-10.166645"
         width="134.01562"
         height="20.33329"
         style="fill:#000000;fill-opacity:0"
         id="rect225" />
    </g>
  </g>
</svg>
