<svg class="main-svg" xmlns="http://www.w3.org/2000/svg" xmlns:xlink="http://www.w3.org/1999/xlink" width="605" height="400" style="" viewBox="0 0 605 400"><rect x="0" y="0" width="605" height="400" style="fill: rgb(0, 0, 0); fill-opacity: 0;"/><defs id="defs-68590d"><g class="clips"><clipPath id="clip68590dxyplot" class="plotclip"><rect width="555" height="325"/></clipPath><clipPath class="axesclip" id="clip68590dx"><rect x="50" y="0" width="555" height="400"/></clipPath><clipPath class="axesclip" id="clip68590dy"><rect x="0" y="33" width="605" height="325"/></clipPath><clipPath class="axesclip" id="clip68590dxy"><rect x="50" y="33" width="555" height="325"/></clipPath></g><g class="gradients"/></defs><g class="bglayer"><rect class="bg" x="50" y="33" width="555" height="325" style="fill: rgb(0, 0, 0); fill-opacity: 0; stroke-width: 0;"/></g><g class="layer-below"><g class="imagelayer"/><g class="shapelayer"/></g><g class="cartesianlayer"><g class="subplot xy"><g class="layer-subplot"><g class="shapelayer"/><g class="imagelayer"/></g><g class="gridlayer"><g class="x"/><g class="y"/></g><g class="zerolinelayer"><path class="yzl zl crisp" transform="translate(0,193.63)" d="M50,0h555" style="stroke: rgb(128, 128, 128); stroke-opacity: 1; stroke-width: 2px;"/></g><path class="xlines-below"/><path class="ylines-below"/><g class="overlines-below"/><g class="xaxislayer-below"/><g class="yaxislayer-below"/><g class="overaxes-below"/><g class="plot" transform="translate(50, 33)" clip-path="url('#clip68590dxyplot')"><g class="scatterlayer mlayer"><g class="trace scatter tracec01b45" style="stroke-miterlimit: 2; opacity: 1;"><g class="fills"/><g class="errorbars"/><g class="lines"><path class="js-line" d="M0.41,160.61L2.89,141.93L3.72,138.79L5.37,135.95L6.19,135.5L11.98,137.45L12.8,136.85L13.63,138.19L14.45,138.05L16.93,140.59L17.76,140.74L18.58,140.74L19.41,138.79L20.23,138.34L21.06,135.35L24.36,126.39L25.19,122.35L26.02,121.16L26.84,117.27L33.45,98.74L34.27,95.6L38.4,81.1L39.23,79.75L41.71,83.34L42.53,86.03L45.84,92.31L46.66,91.86L47.49,93.06L48.31,91.86L49.14,91.71L49.97,90.22L51.62,87.67L52.44,87.97L53.27,86.78L54.1,89.32L54.92,90.22L55.75,94.25L58.23,107.55L59.05,114.88L59.88,118.17L60.7,125.79L61.53,127.58L62.35,133.86L63.18,135.21L64.01,139.54L64.83,140.74L65.66,144.47L66.48,146.27L67.31,150L68.96,156.58L69.79,160.47L76.4,196.34L77.22,197.98L78.05,201.27L78.87,200.82L79.7,204.56L80.52,203.81L81.35,205.75L82.18,205.45L86.31,206.05L87.13,206.95L93.74,215.47L94.56,217.56L96.22,224.74L97.04,230.12L104.48,295.43L105.3,298.87L106.95,303.95L107.78,305L109.43,304.1L110.26,300.22L111.08,297.68L111.91,292.15L114.39,275.55L115.21,268.83L122.65,209.19L123.47,205.75L125.95,197.83L126.77,197.08L129.25,188.42L130.08,186.32L133.38,176.91L134.21,175.71L139.99,156.43L140.81,152.39L141.64,151.65L142.47,148.36L143.29,147.01L144.12,144.17L149.07,126.98L149.9,126.54L150.73,124.74L151.55,125.04L152.38,124.59L153.2,123.25L154.03,122.05L154.85,118.17L156.51,108.75L157.33,103.07L162.29,71.68L163.11,69.14L164.77,64.36L165.59,64.06L167.24,66.3L168.07,69.74L171.37,78.11L172.2,78.71L173.85,77.51L174.68,76.02L175.5,77.21L176.33,75.87L181.28,98.29L182.11,102.47L184.59,119.36L185.41,126.84L194.5,213.97L195.32,218.61L197.8,228.62L198.63,227.87L199.45,226.83L200.28,222.34L201.93,210.69L202.76,203.51L207.71,161.96L208.54,157.63L212.67,141.18L213.49,140.29L215.97,137.45L216.8,137.75L217.62,137.15L218.45,138.49L219.27,138.05L220.1,139.99L221.75,142.53L222.58,144.02L224.23,144.77L225.06,144.62L230.01,132.51L230.84,131.32L231.66,128.78L232.49,128.78L234.97,123.1L235.79,121.6L241.57,95.6L242.4,92.46L244.05,87.67L244.88,86.48L246.53,86.93L247.35,89.47L248.18,90.22L249.01,93.65L249.83,93.8L250.66,96.19L253.96,93.21L254.79,90.66L255.61,89.92L256.44,86.78L257.27,86.18L258.09,84.39L259.74,85.28L260.57,87.97L263.05,99.63L263.87,104.42L268,121.3L268.83,124.14L271.31,131.92L272.13,136.4L272.96,138.64L273.78,143.43L275.44,150.75L276.26,155.23L282.87,192.6L283.69,193.2L286.17,196.04L287,196.04L287.82,198.88L288.65,199.03L290.3,204.26L291.13,204.56L292.78,206.95L293.6,206.8L295.26,205.16L296.08,203.21L296.91,203.66L297.73,201.87L300.21,204.41L301.04,207.85L302.69,215.77L303.52,221.45L305.99,242.67L306.82,251.19L310.95,284.37L311.77,289.9L314.25,300.07L315.08,300.22L315.9,302.91L316.73,300.37L317.56,299.92L318.38,295.58L320.03,286.02L320.86,280.19L328.29,222.79L329.12,218.16L331.6,204.86L332.42,202.62L333.25,199.33L334.07,199.33L334.9,195.44L335.73,195.74L338.2,184.38L339.03,183.33L339.85,178.55L340.68,178.85L341.51,174.52L342.33,175.86L343.16,171.82L343.98,171.97L351.42,141.93L352.24,140.74L356.37,134.31L357.2,133.86L359.68,131.47L360.5,129.53L362.15,121.16L362.98,116.07L367.11,82.44L367.94,79.45L369.59,74.82L370.41,73.92L371.24,73.48L372.06,73.92L374.54,73.48L375.37,73.92L376.19,72.58L377.02,74.07L377.85,73.03L378.67,74.07L380.32,74.22L381.15,74.07L382.8,74.37L383.63,75.12L385.28,77.96L386.1,80.65L387.76,88.57L388.58,93.21L393.54,128.48L394.36,136.7L396.84,162.71L397.67,173.32L401.8,216.52L402.62,220.1L404.27,226.53L405.1,226.38L405.93,225.04L406.75,222.2L410.06,200.97L410.88,194.24L419.14,145.37L419.97,142.98L421.62,139.84L422.44,139.09L429.05,142.98L429.88,141.93L430.7,142.08L431.53,140.29L435.66,135.35L436.48,135.21L437.31,135.06L438.14,134.01L438.96,133.56L439.79,131.92L441.44,127.43L442.27,124.29L448.87,91.86L449.7,90.07L451.35,89.32L452.18,90.66L455.48,96.04L456.31,95L457.13,94.85L457.96,92.31L462.91,82.44L463.74,82.74L464.56,82.14L465.39,83.79L466.22,84.09L467.04,86.78L470.35,98.88L471.17,103.52L474.48,113.98L475.3,115.03L476.95,118.76L477.78,120.56L481.08,139.84L481.91,145.82L485.21,166.89L486.04,170.48L490.17,185.87L490.99,188.12L493.47,196.49L494.3,197.98L496.77,204.71L497.6,207.25L498.43,206.35L499.25,207.25L504.21,198.28L505.03,197.68L506.69,200.52L507.51,204.41L509.16,211.58L509.99,217.11L513.29,240.43L514.12,249.1L519.07,291.1L519.9,294.54L521.55,298.57L522.38,300.67L524.85,299.02L525.68,296.18L526.51,293.64L527.33,288.26L529.81,269.88L530.64,262.85L533.94,239.98L534.77,235.65L539.72,205.75L540.55,203.96L543.02,196.19L543.85,195.44L546.33,187.82L547.15,186.47L549.63,177.5L550.46,177.65L552.94,166.15L553.76,162.41L554.59,157.48" style="vector-effect: non-scaling-stroke; fill: none; stroke: rgb(128, 128, 128); stroke-opacity: 1; stroke-width: 0.8px; opacity: 1;"/></g><g class="points"/><g class="text"/></g><g class="trace scatter trace294521" style="stroke-miterlimit: 2;"><g class="fills"><g><path class="js-fill" d="M555,160.63L0,160.63L0,160.63L39.23,79.75L70.2,160.63L107.78,305L138.75,160.63L165.59,64.06L188.3,160.63L197.8,228.62L208.12,160.63L258.09,84.39L277.5,160.63L315.9,302.91L346.88,160.63L376.19,72.58L396.43,160.63L404.27,226.53L416.25,160.63L464.56,82.14L483.97,160.63L522.38,300.67L554.17,160.63L554.59,157.48L555,160.63" style="fill: rgb(0, 0, 0); fill-opacity: 0.16; stroke-width: 0;"/></g></g><g class="errorbars"/><g class="lines"/><g class="points"/><g class="text"/></g><g class="trace scatter trace218ba5" style="stroke-miterlimit: 2; opacity: 1;"><g class="fills"/><g class="errorbars"/><g class="lines"/><g class="points"><path class="point" transform="translate(39.23,79.75)" d="M3,0A3,3 0 1,1 0,-3A3,3 0 0,1 3,0Z" style="opacity: 1; stroke-width: 0px; fill: rgb(0, 0, 0); fill-opacity: 1;"/><path class="point" transform="translate(165.59,64.06)" d="M3,0A3,3 0 1,1 0,-3A3,3 0 0,1 3,0Z" style="opacity: 1; stroke-width: 0px; fill: rgb(0, 0, 0); fill-opacity: 1;"/><path class="point" transform="translate(258.09,84.39)" d="M3,0A3,3 0 1,1 0,-3A3,3 0 0,1 3,0Z" style="opacity: 1; stroke-width: 0px; fill: rgb(0, 0, 0); fill-opacity: 1;"/><path class="point" transform="translate(376.19,72.58)" d="M3,0A3,3 0 1,1 0,-3A3,3 0 0,1 3,0Z" style="opacity: 1; stroke-width: 0px; fill: rgb(0, 0, 0); fill-opacity: 1;"/><path class="point" transform="translate(464.56,82.14)" d="M3,0A3,3 0 1,1 0,-3A3,3 0 0,1 3,0Z" style="opacity: 1; stroke-width: 0px; fill: rgb(0, 0, 0); fill-opacity: 1;"/></g><g class="text"/></g><g class="trace scatter traceea1293" style="stroke-miterlimit: 2; opacity: 1;"><g class="fills"/><g class="errorbars"/><g class="lines"/><g class="points"><path class="point" transform="translate(107.78,305)" d="M3,0A3,3 0 1,1 0,-3A3,3 0 0,1 3,0Z" style="opacity: 1; stroke-width: 0px; fill: rgb(0, 0, 0); fill-opacity: 1;"/><path class="point" transform="translate(197.8,228.62)" d="M3,0A3,3 0 1,1 0,-3A3,3 0 0,1 3,0Z" style="opacity: 1; stroke-width: 0px; fill: rgb(0, 0, 0); fill-opacity: 1;"/><path class="point" transform="translate(315.9,302.91)" d="M3,0A3,3 0 1,1 0,-3A3,3 0 0,1 3,0Z" style="opacity: 1; stroke-width: 0px; fill: rgb(0, 0, 0); fill-opacity: 1;"/><path class="point" transform="translate(404.27,226.53)" d="M3,0A3,3 0 1,1 0,-3A3,3 0 0,1 3,0Z" style="opacity: 1; stroke-width: 0px; fill: rgb(0, 0, 0); fill-opacity: 1;"/><path class="point" transform="translate(522.38,300.67)" d="M3,0A3,3 0 1,1 0,-3A3,3 0 0,1 3,0Z" style="opacity: 1; stroke-width: 0px; fill: rgb(0, 0, 0); fill-opacity: 1;"/></g><g class="text"/></g><g class="trace scatter trace7b57d1" style="stroke-miterlimit: 2; opacity: 1;"><g class="fills"/><g class="errorbars"/><g class="lines"><path class="js-line" d="M39.23,79.75L165.59,64.06L376.19,72.58L464.56,82.14L464.56,82.14" style="vector-effect: non-scaling-stroke; fill: none; stroke: rgb(0, 0, 0); stroke-opacity: 1; stroke-width: 1px; opacity: 1;"/></g><g class="points"/><g class="text"/></g><g class="trace scatter trace74c7d2" style="stroke-miterlimit: 2; opacity: 1;"><g class="fills"/><g class="errorbars"/><g class="lines"><path class="js-line" d="M107.78,305L522.38,300.67L522.38,300.67" style="vector-effect: non-scaling-stroke; fill: none; stroke: rgb(0, 0, 0); stroke-opacity: 1; stroke-width: 1px; opacity: 1;"/></g><g class="points"/><g class="text"/></g><g class="trace scatter trace28affa" style="stroke-miterlimit: 2; opacity: 1;"><g class="fills"/><g class="errorbars"/><g class="lines"><path class="js-line" d="M0.41,49.87L335.73,45.09L336.55,45.07L554.59,41.96" style="vector-effect: non-scaling-stroke; fill: none; stroke: rgb(192, 192, 192); stroke-opacity: 1; stroke-width: 1px; opacity: 1;"/></g><g class="points"/><g class="text"/></g><g class="trace scatter trace36ab85" style="stroke-miterlimit: 2; opacity: 1;"><g class="fills"/><g class="errorbars"/><g class="lines"><path class="js-line" d="M0.41,271.38L335.73,276.16L336.55,276.18L554.59,279.29" style="vector-effect: non-scaling-stroke; fill: none; stroke: rgb(192, 192, 192); stroke-opacity: 1; stroke-width: 1px; opacity: 1;"/></g><g class="points"/><g class="text"/></g><g class="trace scatter trace9aa31b" style="stroke-miterlimit: 2; opacity: 1;"><g class="fills"/><g class="errorbars"/><g class="lines"><path class="js-line" d="M138.75,305L138.75,16.25" style="vector-effect: non-scaling-stroke; fill: none; stroke: rgb(0, 0, 0); stroke-opacity: 1; stroke-width: 2px; opacity: 1; stroke-dasharray: 9px, 9px;"/><path class="js-line" d="M346.88,305L346.88,16.25" style="vector-effect: non-scaling-stroke; fill: none; stroke: rgb(0, 0, 0); stroke-opacity: 1; stroke-width: 2px; opacity: 1; stroke-dasharray: 9px, 9px;"/></g><g class="points"/><g class="text"/></g></g></g><g class="overplot"/><path class="xlines-above crisp" d="M0,0" style="fill: none;"/><path class="ylines-above crisp" d="M0,0" style="fill: none;"/><g class="overlines-above"/><g class="xaxislayer-above"><g class="xtick"><text text-anchor="middle" x="0" y="372.3333" transform="translate(50.41,0)" style="font-family: 'Latin Modern Roman'; font-size: 13.3333px; fill: rgb(0, 0, 0); fill-opacity: 1; white-space: pre;">0</text></g><g class="xtick"><text text-anchor="middle" x="0" y="372.3333" transform="translate(133,0)" style="font-family: 'Latin Modern Roman'; font-size: 13.3333px; fill: rgb(0, 0, 0); fill-opacity: 1; white-space: pre;">100</text></g><g class="xtick"><text text-anchor="middle" x="0" y="372.3333" transform="translate(215.59,0)" style="font-family: 'Latin Modern Roman'; font-size: 13.3333px; fill: rgb(0, 0, 0); fill-opacity: 1; white-space: pre;">200</text></g><g class="xtick"><text text-anchor="middle" x="0" y="372.3333" transform="translate(298.18,0)" style="font-family: 'Latin Modern Roman'; font-size: 13.3333px; fill: rgb(0, 0, 0); fill-opacity: 1; white-space: pre;">300</text></g><g class="xtick"><text text-anchor="middle" x="0" y="372.3333" transform="translate(380.77,0)" style="font-family: 'Latin Modern Roman'; font-size: 13.3333px; fill: rgb(0, 0, 0); fill-opacity: 1; white-space: pre;">400</text></g><g class="xtick"><text text-anchor="middle" x="0" y="372.3333" transform="translate(463.36,0)" style="font-family: 'Latin Modern Roman'; font-size: 13.3333px; fill: rgb(0, 0, 0); fill-opacity: 1; white-space: pre;">500</text></g><g class="xtick"><text text-anchor="middle" x="0" y="372.3333" transform="translate(545.95,0)" style="font-family: 'Latin Modern Roman'; font-size: 13.3333px; fill: rgb(0, 0, 0); fill-opacity: 1; white-space: pre;">600</text></g></g><g class="yaxislayer-above"><g class="ytick"><text text-anchor="end" x="49" y="4.6666549999999996" transform="translate(0,338)" style="font-family: 'Latin Modern Roman'; font-size: 13.3333px; fill: rgb(0, 0, 0); fill-opacity: 1; white-space: pre;">−1</text></g><g class="ytick"><text text-anchor="end" x="49" y="4.6666549999999996" transform="translate(0,265.81)" style="font-family: 'Latin Modern Roman'; font-size: 13.3333px; fill: rgb(0, 0, 0); fill-opacity: 1; white-space: pre;">−0.5</text></g><g class="ytick"><text text-anchor="end" x="49" y="4.6666549999999996" transform="translate(0,193.63)" style="font-family: 'Latin Modern Roman'; font-size: 13.3333px; fill: rgb(0, 0, 0); fill-opacity: 1; white-space: pre;">0</text></g><g class="ytick"><text text-anchor="end" x="49" y="4.6666549999999996" transform="translate(0,121.44)" style="font-family: 'Latin Modern Roman'; font-size: 13.3333px; fill: rgb(0, 0, 0); fill-opacity: 1; white-space: pre;">0.5</text></g><g class="ytick"><text text-anchor="end" x="49" y="4.6666549999999996" transform="translate(0,49.25)" style="font-family: 'Latin Modern Roman'; font-size: 13.3333px; fill: rgb(0, 0, 0); fill-opacity: 1; white-space: pre;">1</text></g></g><g class="overaxes-above"/></g></g><g class="polarlayer"/><g class="ternarylayer"/><g class="geolayer"/><g class="funnelarealayer"/><g class="pielayer"/><g class="treemaplayer"/><g class="sunburstlayer"/><g class="glimages"/><defs id="topdefs-68590d"><g class="clips"/><clipPath id="legend68590d"><rect width="472" height="31" x="0" y="0"/></clipPath></defs><g class="layer-above"><g class="imagelayer"/><g class="shapelayer"/></g><g class="infolayer"><g class="legend" pointer-events="all" transform="translate(50, 0.4999999999999716)"><rect class="bg" shape-rendering="crispEdges" style="stroke: rgb(68, 68, 68); stroke-opacity: 1; fill: rgb(0, 0, 0); fill-opacity: 0; stroke-width: 0px;" width="472" height="31" x="0" y="0"/><g class="scrollbox" transform="translate(0, 0)" clip-path="url('#legend68590d')"><g class="groups"><g class="traces" transform="translate(0, 15.166645)" style="opacity: 1;"><text class="legendtext" text-anchor="start" x="40" y="5.199987" style="font-family: 'Latin Modern Roman'; font-size: 13.3333px; fill: rgb(0, 0, 0); fill-opacity: 1; white-space: pre;">Signal</text><g class="layers" style="opacity: 1;"><g class="legendfill"/><g class="legendlines"><path class="js-line" d="M5,0h30" style="fill: none; stroke: rgb(128, 128, 128); stroke-opacity: 1; stroke-width: 0.8px;"/></g><g class="legendsymbols"><g class="legendpoints"/></g></g><rect class="legendtoggle" x="0" y="-10.166645" width="76.875" height="20.33329" style="fill: rgb(0, 0, 0); fill-opacity: 0;"/></g><g class="traces" transform="translate(79.375, 15.166645)" style="opacity: 1;"><text class="legendtext" text-anchor="start" x="40" y="5.199987" style="font-family: 'Latin Modern Roman'; font-size: 13.3333px; fill: rgb(0, 0, 0); fill-opacity: 1; white-space: pre;">Pulses</text><g class="layers"><g class="legendfill"><path class="js-fill" d="M5,-3h30v6h-30z" style="stroke-width: 0; fill: rgb(0, 0, 0); fill-opacity: 0.16;"/></g><g class="legendlines"/><g class="legendsymbols"><g class="legendpoints"/></g></g><rect class="legendtoggle" x="0" y="-10.166645" width="76.578125" height="20.33329" style="fill: rgb(0, 0, 0); fill-opacity: 0;"/></g><g class="traces" transform="translate(158.453125, 15.166645)" style="opacity: 1;"><text class="legendtext" text-anchor="start" x="40" y="5.199987" style="font-family: 'Latin Modern Roman'; font-size: 13.3333px; fill: rgb(0, 0, 0); fill-opacity: 1; white-space: pre;">Frontiers</text><g class="layers" style="opacity: 1;"><g class="legendfill"/><g class="legendlines"><path class="js-line" d="M5,0h30" style="fill: none; stroke: rgb(0, 0, 0); stroke-opacity: 1; stroke-width: 1px;"/></g><g class="legendsymbols"><g class="legendpoints"/></g></g><rect class="legendtoggle" x="0" y="-10.166645" width="90.640625" height="20.33329" style="fill: rgb(0, 0, 0); fill-opacity: 0;"/></g><g class="traces" transform="translate(251.59375, 15.166645)" style="opacity: 1;"><text class="legendtext" text-anchor="start" x="40" y="5.199987" style="font-family: 'Latin Modern Roman'; font-size: 13.3333px; fill: rgb(0, 0, 0); fill-opacity: 1; white-space: pre;">Envelope</text><g class="layers" style="opacity: 1;"><g class="legendfill"/><g class="legendlines"><path class="js-line" d="M5,0h30" style="fill: none; stroke: rgb(192, 192, 192); stroke-opacity: 1; stroke-width: 1px;"/></g><g class="legendsymbols"><g class="legendpoints"/></g></g><rect class="legendtoggle" x="0" y="-10.166645" width="92.9375" height="20.33329" style="fill: rgb(0, 0, 0); fill-opacity: 0;"/></g><g class="traces" transform="translate(347.03125, 15.166645)" style="opacity: 1;"><text class="legendtext" text-anchor="start" x="40" y="5.199987" style="font-family: 'Latin Modern Roman'; font-size: 13.3333px; fill: rgb(0, 0, 0); fill-opacity: 1; white-space: pre;">Pseudo-Cycles</text><g class="layers" style="opacity: 1;"><g class="legendfill"/><g class="legendlines"><path class="js-line" d="M5,0h30" style="fill: none; stroke: rgb(0, 0, 0); stroke-opacity: 1; stroke-dasharray: 9px, 9px; stroke-width: 2px;"/></g><g class="legendsymbols"><g class="legendpoints"/></g></g><rect class="legendtoggle" x="0" y="-10.166645" width="121.734375" height="20.33329" style="fill: rgb(0, 0, 0); fill-opacity: 0;"/></g></g></g><rect class="scrollbar" rx="20" ry="3" width="0" height="0" style="fill: rgb(128, 139, 164); fill-opacity: 1;" x="0" y="0"/></g><g class="g-gtitle"/><g class="g-xtitle" transform="translate(0,-2.677059999999983)"><text class="xtitle" x="327.5" y="399.67706" text-anchor="middle" style="font-family: 'Latin Modern Roman'; font-size: 13.33px; fill: rgb(0, 0, 0); opacity: 1; font-weight: normal; white-space: pre;"><tspan style="font-weight:bold"><tspan style="font-style:italic">i</tspan></tspan></text></g><g class="g-ytitle" transform="translate(11.5205078125,0)"><text class="ytitle" transform="rotate(-90,0.47919000000000267,195.5)" x="0.47919000000000267" y="195.5" text-anchor="middle" style="font-family: 'Latin Modern Roman'; font-size: 13.33px; fill: rgb(0, 0, 0); opacity: 1; font-weight: normal; white-space: pre;"><tspan style="font-weight:bold">Amplitude</tspan></text></g></g></svg>