<svg class="main-svg" xmlns="http://www.w3.org/2000/svg" xmlns:xlink="http://www.w3.org/1999/xlink" width="605" height="400" style="" viewBox="0 0 605 400"><rect x="0" y="0" width="605" height="400" style="fill: rgb(0, 0, 0); fill-opacity: 0;"/><defs id="defs-4fc0f9"><g class="clips"><clipPath id="clip4fc0f9xyplot" class="plotclip"><rect width="515" height="160.875"/></clipPath><clipPath id="clip4fc0f9x2y2plot" class="plotclip"><rect width="515" height="160.875"/></clipPath><clipPath class="axesclip" id="clip4fc0f9x"><rect x="90" y="0" width="515" height="400"/></clipPath><clipPath class="axesclip" id="clip4fc0f9y"><rect x="0" y="33" width="605" height="160.875"/></clipPath><clipPath class="axesclip" id="clip4fc0f9xy"><rect x="90" y="33" width="515" height="160.875"/></clipPath><clipPath class="axesclip" id="clip4fc0f9y2"><rect x="0" y="197.125" width="605" height="160.875"/></clipPath><clipPath class="axesclip" id="clip4fc0f9xy2"><rect x="90" y="197.125" width="515" height="160.875"/></clipPath><clipPath class="axesclip" id="clip4fc0f9x2"><rect x="90" y="0" width="515" height="400"/></clipPath><clipPath class="axesclip" id="clip4fc0f9x2y"><rect x="90" y="33" width="515" height="160.875"/></clipPath><clipPath class="axesclip" id="clip4fc0f9x2y2"><rect x="90" y="197.125" width="515" height="160.875"/></clipPath></g><g class="gradients"/></defs><g class="bglayer"><rect class="bg" x="90" y="33" width="515" height="160.875" style="fill: rgb(0, 0, 0); fill-opacity: 0; stroke-width: 0;"/><rect class="bg" x="90" y="197.125" width="515" height="160.875" style="fill: rgb(0, 0, 0); fill-opacity: 0; stroke-width: 0;"/></g><g class="layer-below"><g class="imagelayer"/><g class="shapelayer"/></g><g class="cartesianlayer"><g class="subplot xy"><g class="layer-subplot"><g class="shapelayer"/><g class="imagelayer"/></g><g class="gridlayer"><g class="x"/><g class="y"/></g><g class="zerolinelayer"><path class="yzl zl crisp" transform="translate(0,121.72)" d="M90,0h515" style="stroke: rgb(192, 192, 192); stroke-opacity: 1; stroke-width: 1px;"/></g><path class="xlines-below"/><path class="ylines-below"/><g class="overlines-below"/><g class="xaxislayer-below"/><g class="yaxislayer-below"/><g class="overaxes-below"/><g class="plot" transform="translate(90, 33)" clip-path="url('#clip4fc0f9xyplot')"><g class="scatterlayer mlayer"><g class="trace scatter traceaf6350" style="stroke-miterlimit: 2; opacity: 1;"><g class="fills"/><g class="errorbars"/><g class="lines"><path class="js-line" d="M0,88.72L0.61,122.29L0.79,106.54L0.81,94.72L1.16,8.04L1.55,104.93L1.56,100.78L1.58,95.94L1.73,123.22L2.25,114.48L2.27,113.66L2.32,119.22L3.14,85.67L3.26,95.34L3.27,97.34L3.39,111.95L3.87,70.36L3.89,71.41L3.9,71.56L3.98,72.48L4.2,51.58L4.22,48.34L4.43,41.21L4.6,60.52L4.9,59.15L4.92,60.69L5.51,152.83L5.87,118.05L5.89,117.83L6.45,68.48L6.64,89.1L6.66,89.81L6.69,92.24L7.09,63.8L7.1,61.92L7.16,54.95L7.8,70.72L7.81,71.75L7.98,71.14L9.11,137.07L9.46,124.82L9.47,123.82L10.11,46.75L10.53,69.59L10.55,70.72L10.8,63.75L11.87,115.4L11.9,114.28L11.91,113.89L12.36,120.75L13.02,86.75L13.03,86.64L13.79,46.49L13.8,45.77L13.9,41.23L14.2,55.55L14.21,57L14.78,118.7L15.25,104.52L15.26,104.87L15.58,117.89L15.59,118.85L15.7,125.35L16.12,91.89L16.13,91.55L16.58,60.25L17.23,64.55L17.24,64.4L17.4,62.83L17.63,75.46L17.65,76.03L18.5,126.45L18.85,112.47L18.86,111.22L19.64,69.84L20,71.08L20.02,70.43L20.27,54.39L20.73,73.67L20.74,74.45L21.48,116.4L21.91,115.87L21.92,115.99L21.99,116.31L22.19,110.1L22.2,109.94L22.63,88.12L22.64,87.38L23.32,57.35L23.58,70.37L23.59,70.32L23.67,68.9L23.96,77.95L23.98,78.57L24.99,129.94L25.31,112.15L25.32,111.39L26.45,62.39L26.6,64.22L26.61,64.15L26.71,62.82L26.93,68.27L26.94,68.83L27.95,117.18L28.35,103.88L28.37,103.64L28.69,107.63L28.88,104.16L28.89,103.66L29.78,48.61L30.13,68.65L30.14,69.11L31.57,119.66L31.68,115.79L31.69,115.07L33.36,61.6L33.39,61.82L33.4,61.99L34.36,114.38L34.37,115.83L34.54,124.81L34.96,104.81L34.98,104.24L36.39,58.3L36.63,71.14L36.65,72L37.48,104.04L37.79,102.76L37.8,103.15L38.23,121.71L38.47,102.23L38.48,101.19L39.24,67.43L39.54,69.87L39.55,69.45L39.92,63.44L40.07,69.77L40.08,70.61L41.1,117.52L41.22,114.29L41.24,114.12L42.94,58.23L43.02,60.29L43.03,60.71L44.74,114.34L44.89,110.57L44.9,110.01L45.91,66.34L46.23,66.94L46.25,66.91L46.64,75.8L46.65,76.56L47.76,115.44L47.94,110.85L47.95,110.53L49.18,76.84L49.19,76.31L49.5,59.81L49.91,78.57L49.92,79.23L50.72,109.99L51.34,108.1L51.35,107.92L52.55,64.62L52.77,71.64L52.79,72.29L54.28,115.33L54.41,111.84L54.42,111.03L56.02,65.5L56.18,69.84L56.2,70.36L57.34,114.84L57.6,107.09L57.61,106.65L59.06,62.47L59.07,62.34L59.1,61.95L59.34,73.4L59.35,74.32L60.7,113.87L60.72,114.23L60.79,115.2L61.09,102.93L61.1,102.24L62.28,66.3L62.37,67.38L62.39,67.5L63.97,112.75L64.11,109.36L64.13,108.92L65.67,64.55L65.68,64.52L65.91,70.9L65.92,71.57L66.95,103.59L66.96,104.01L67.23,109.46L67.61,102.3L67.62,102.01L68.81,69.28L69.05,73.27L69.07,73.67L70.53,111.19L70.83,103.04L70.84,102.74L72.29,67.15L72.37,68.15L72.38,68.36L73.61,104.39L74.24,102.95L74.25,102.74L75.83,72.88L75.97,74.26L75.98,74.58L77.15,107.25L77.54,102.96L77.56,102.77L79.05,73.22L79.14,73.98L79.16,74.25L80.64,104.22L80.84,101.56L80.85,101.18L82.38,73.27L82.48,74.39L82.5,74.63L83.42,104.08L84.04,102.07L84.05,102.04L84.34,95.61L84.35,95.24L85.4,75.36L85.51,75.51L85.52,75.44L85.92,79.36L85.93,79.64L87.14,105.1L87.38,99.88L87.39,99.68L88.67,73.12L88.68,73.01L88.74,72.75L88.93,74.86L88.94,74.98L90.23,102.54L90.34,102.23L90.35,101.95L90.85,96.53L90.86,96.24L91.98,75.2L92.32,78.33L92.33,78.49L92.82,87.16L92.83,87.58L93.59,104.98L93.86,100.47L93.87,99.92L95.26,74.37L95.5,77.57L95.52,77.78L96.88,105.14L97.02,102.89L97.03,102.52L98.51,72.81L98.81,77.81L98.82,78.2L100.13,103.36L100.33,101.32L100.34,101.15L101.81,74.87L101.96,76.43L101.97,76.53L103.5,105.06L103.78,99.35L103.8,98.98L105.17,74.8L105.4,77.78L105.41,78.11L106.66,100.03L106.86,99.23L106.87,99.22L107.05,99.39L107.43,94.11L107.44,93.7L108.39,77.15L108.93,78.18L108.95,78.29L110.1,101.06L110.39,97.77L110.41,97.73L112.01,77.29L112.15,78.52L112.16,78.63L113.73,99.6L113.75,99.52L113.96,97.08L113.97,96.7L114.94,77.75L115.49,79.31L115.5,79.48L115.83,86.92L115.84,87.16L116.79,98.73L116.81,99.01L116.93,99.55L117.21,96.02L117.23,95.67L118.7,76.54L118.83,78.01L118.84,78.33L119.81,98.27L120.2,97.97L120.22,98.02L120.4,99.31L120.62,95.33L120.64,94.74L121.83,79.98L121.91,80.17L121.92,80.08L123.53,99.04L123.59,98.7L123.6,98.56L124.33,86.79L124.34,86.45L125.27,78.4L125.28,78.51L125.3,78.52L125.58,82.94L125.59,83.33L126.52,98.22L126.85,96.94L126.86,96.73L127.4,91.09L127.41,90.75L128.34,79.07L128.55,80.68L128.57,80.9L130.1,99.07L130.38,95.86L130.39,95.68L131.73,78.99L131.99,81.41L132,81.66L133.34,98.92L133.59,96.02L133.6,95.76L135,79.21L135.19,80.29L135.2,80.51L136.6,98.33L136.94,95.72L136.95,95.41L138.22,79.57L138.63,82.58L138.64,82.57L139.98,98.47L140.27,95.02L140.28,94.75L141.6,78.64L141.9,81.74L141.91,81.96L143.21,97.6L143.57,94.99L143.58,94.65L144.83,81.08L145.34,82.53L145.35,82.61L146.64,97.57L146.83,96.53L146.84,96.44L148.37,80.6L148.66,83.33L148.68,83.56L150.04,96.39L150.14,96.1L150.15,95.95L151.85,81.56L152,82.48L152.02,82.6L153.51,95.22L153.52,95.19L153.53,95.18L153.87,91.5L153.88,91.22L155.09,82.37L155.2,82.63L155.22,82.78L155.71,88.73L155.72,89.01L156.66,96.16L156.82,95.51L156.83,95.39L158.35,81.88L158.59,83.08L158.6,83.27L160.03,94.48L160.25,94.02L160.26,93.76L160.76,87.49L160.77,87.19L161.62,82.66L161.85,83.08L161.86,83.18L162.3,87.48L162.32,87.69L163.37,95.56L163.41,95.51L163.43,95.29L164.16,86.53L164.17,86.35L165.07,82.97L165.22,83.49L165.24,83.67L166.45,94.86L166.86,92.9L166.87,92.74L167.29,90.22L167.3,90.01L168.2,83.02L168.46,83.85L168.47,83.81L169.88,94.78L169.94,94.67L169.95,94.57L170.9,87.43L170.91,87.29L171.43,82.74L171.85,84.64L171.86,84.79L173.15,95.46L173.5,92.75L173.52,92.45L174.85,82.16L175.16,84.81L175.17,85L176.54,94.33L176.74,93.73L176.75,93.57L177.7,86.87L177.71,86.55L178.11,83L178.55,85.02L178.56,85.14L179.47,91.85L179.48,91.98L179.8,95.04L180.21,91.7L180.22,91.75L181.36,83.82L181.38,83.96L181.56,83.54L181.98,86.53L181.99,86.65L183.06,93.63L183.47,92.7L183.48,92.63L184.74,83.17L184.91,83.64L184.93,83.58L186.06,91.21L186.07,91.24L186.48,94.4L186.83,91.34L186.84,91.34L187.87,85.03L187.88,85.03L188.27,83.83L188.52,85.53L188.53,85.61L189.98,93.54L190.17,92.65L190.18,92.6L191.45,84.48L191.47,84.53L191.94,85.74L191.96,85.8L193.22,93.49L193.4,92.69L193.42,92.57L194.92,84.79L195.05,85.06L195.06,85.15L195.9,90.91L195.91,91.09L196.28,92.56L196.79,91.92L196.8,91.94L197.13,90.63L197.14,90.53L197.93,85.38L198.23,85.55L198.24,85.52L198.6,85.53L198.72,86.13L198.73,86.27L199.78,92.09L200.01,91.9L200.03,91.9L200.5,90.27L200.52,90.22L201.38,84.84L201.58,85.22L201.59,85.25L202.35,89.19L202.36,89.28L203.04,92.44L203.37,91.52L203.38,91.45L204.09,88.15L204.1,88.02L204.63,85.39L205.02,85.88L205.04,85.93L205.22,85.83L205.39,86.56L205.4,86.45L205.41,86.71L206.73,92.22L206.88,91.89L206.89,91.71L208.43,85.54L208.54,85.76L208.55,85.93L209.65,92.09L210.12,91.19L210.13,91.07L211.33,85.42L211.75,86.15L211.76,86.34L211.77,86.16L212.37,88.75L212.38,88.87L212.99,91.94L213.34,91.17L213.35,91.12L214.85,85.6L215.13,86.33L215.14,86.47L216.52,92.05L216.69,91.52L216.7,91.52L218.08,85.05L218.4,86.61L218.41,86.68L219.79,92.29L219.84,92.16L219.86,92.19L221.54,85.75L221.71,86.07L221.72,86.16L223.15,91.94L223.49,90.7L223.5,90.68L224.78,85.61L224.98,86.31L224.99,86.4L226.43,91.72L226.73,90.54L226.75,90.39L228.09,85.91L228.46,86.76L228.47,86.95L229.64,91.18L230.16,90.68L230.17,90.63L231.04,87.35L231.05,87.27L231.35,86.01L231.83,87.02L231.84,87.11L232.58,89.55L232.6,89.59L233.11,91.38L233.53,90.34L233.54,90.34L235.07,86.47L235.2,86.74L235.21,86.87L236.77,90.88L236.85,90.76L236.86,90.74L238.41,86.43L238.54,86.64L238.55,86.71L240.13,90.66L240.14,90.46L240.15,90.66L240.76,88.1L240.77,88.03L241.13,86.79L241.61,87.12L241.62,87.05L241.81,86.72L242.14,87.77L242.15,87.86L242.78,90.47L243.18,90.22L243.19,90.25L243.63,90.48L243.78,90L243.8,89.82L244.94,86.93L245.02,87.03L245.03,87.1L245.87,89.7L245.89,89.82L246.61,90.57L246.77,90.43L246.79,90.21L246.8,90.42L247.45,88.36L247.46,88.33L247.87,86.87L248.4,87.23L248.41,87.22L248.56,87.13L248.79,87.81L248.81,87.79L248.82,87.93L249.61,90.51L249.99,90.29L250,90.16L250.48,89.56L250.49,89.46L251.53,86.79L251.54,86.87L252.03,87.81L252.04,87.88L253.25,90.51L253.5,90.08L253.51,90.09L254.68,86.97L255.17,87.25L255.18,87.28L256.31,90.54L256.64,89.74L256.65,89.68L257.02,89.92L257.21,89.25L257.23,89.2L258.07,87.21L258.3,87.37L258.31,87.48L258.9,88.35L258.91,88.36L259.83,90.55L259.92,90.5L259.93,90.45L261.43,86.94L261.77,87.67L261.78,87.73L263.02,90.51L263.18,90.29L263.19,90.17L264.76,87.11L265.21,87.66L265.23,87.71L266.63,90.31L266.77,90.12L266.78,90.03L268.31,87.13L268.39,87.22L268.4,87.29L269.9,90.18L270.13,89.86L270.14,89.84L271.53,87.33L271.69,87.49L271.71,87.55L273.46,89.74L273.49,89.71L273.51,89.73L275.03,87.45L275.26,87.79L275.27,87.88L276.54,90.08L276.8,89.71L276.81,89.68L278.15,87.49L278.5,87.96L278.52,87.97L280.15,89.77L280.21,89.69L280.22,89.67L281.82,87.42L281.97,87.64L281.98,87.72L283.34,89.75L283.35,89.7L283.55,89.82L283.79,89.11L283.81,89.07L284.77,87.92L284.79,87.89L285.24,87.78L285.49,88.14L285.5,88.2L286.11,89.57L286.49,89.46L286.5,89.42L286.9,89.82L287.19,89.13L287.2,89.1L287.95,87.75L288.29,87.93L288.3,87.96L288.5,87.75L288.84,88.51L288.85,88.51L288.86,88.63L289.68,89.56L289.94,89.37L289.95,89.3L290.31,89.53L290.59,88.91L290.6,88.88L291.48,87.76L291.69,87.87L291.7,87.95L293.45,89.65L293.63,89.25L293.64,89.21L295.04,87.93L295.05,87.95L295.06,87.96L296.3,89.47L296.31,89.4L296.32,89.52L297.05,89.21L297.08,89.12L297.1,89.1L298.26,87.54L298.48,87.94L298.5,88.03L300.04,89.46L300.05,89.33L301.86,88.04L301.99,88.22L302,88.28L303.39,89.58L303.64,89.27L303.65,89.18L304.9,87.64L305.11,88.29L305.12,88.36L306.45,89.65L306.46,89.57L308.25,87.88L308.57,88.33L308.59,88.38L309.32,89.04L309.33,89.11L309.95,89.64L310.21,89.13L310.22,89.09L311.56,87.87L311.6,87.89L311.61,87.91L313.42,89.39L313.58,89.19L313.6,89.15L314.79,87.78L315.11,88.17L315.13,88.26L317.11,89.1L317.12,89.04L317.14,89.03L318.49,88.13L318.52,88.17L318.54,88.28L320.15,89.48L320.36,89.12L320.37,89.08L321.32,87.99L321.49,88.08L321.5,88.1L323.25,89.17L323.27,89.1L325.5,88.42L325.54,88.51L325.56,88.56L326.75,89.39L326.82,89.32L326.83,89.29L328.22,88.26L328.23,88.26L328.86,88.65L328.87,88.69L330.46,89.23L330.52,89.13L330.53,89.08L331.52,88.21L331.69,88.3L331.7,88.36L333.86,88.91L333.87,88.85L335.34,88.34L335.35,88.39L336.12,89.05L336.14,89.12L336.64,89.27L336.95,88.97L336.96,88.91L338.77,88.56L338.79,88.67L338.8,88.52L339.31,89.06L339.51,89.02L339.52,89.03L340.85,88.79L340.87,88.77L342.06,88.5L342.07,88.59L343.67,88.9L343.68,88.87L345.13,88.53L345.14,88.58L347.71,88.54L347.72,88.36L348,88.16L348.47,88.55L348.48,88.5L348.49,88.53L350.27,88.75L350.28,88.66L352.18,88.49L352.19,88.48L352.77,89.03L352.78,89.13L353.57,88.98L353.61,88.88L353.62,88.88L354.81,88.26L354.83,88.29L354.84,88.33L356.79,89.03L356.84,88.95L356.85,88.93L358.62,88.55L358.63,88.58L360.54,88.72L360.55,88.7L361.58,88.61L361.59,88.66L362.77,88.77L362.79,88.85L365.92,88.87L365.93,88.92L367.19,88.88L367.2,88.8L368.51,88.48L368.52,88.43L369.17,88.85L369.19,88.95L372.99,88.77L373,88.82L374.55,88.51L374.56,88.46L377.35,88.64L377.36,88.59L378.84,88.57L378.85,88.58L380.72,88.77L380.73,88.72L381.97,88.75L381.98,88.77L383.32,88.76L383.33,88.79L385.43,88.55L385.44,88.66L388.58,88.67L388.59,88.8L389.83,88.83L389.84,88.91L392.53,88.84L392.54,88.86L394.02,88.67L394.04,88.66L395.36,88.66L395.37,88.58L397.89,88.55L397.9,88.53L400.63,88.72L400.65,88.75L401.85,88.55L401.86,88.5L403.75,88.76L403.76,88.71L405.08,88.63L405.1,88.69L406.75,88.9L406.77,88.93L410.3,88.78L410.32,88.66L411.4,88.76L411.41,88.68L413.95,88.71L413.96,88.69L416.54,88.73L416.55,88.77L418.09,88.64L418.11,88.58L423.86,88.78L423.87,88.73L428.85,88.68L428.86,88.59L430.31,88.79L430.32,88.75L433.04,88.75L433.05,88.78L515,88.7" style="vector-effect: non-scaling-stroke; fill: none; stroke: rgb(192, 192, 192); stroke-opacity: 1; stroke-width: 2px; opacity: 1;"/></g><g class="points"/><g class="text"/></g><g class="trace scatter trace774b23" style="stroke-miterlimit: 2; opacity: 1;"><g class="fills"/><g class="errorbars"/><g class="lines"><path class="js-line" d="M1.16,8.04L13.9,41.23L20.27,54.39L23.32,57.35L29.78,48.61L36.39,58.3L42.92,58.23L49.5,59.81L52.55,64.62L56.02,65.5L59.1,61.95L72.27,67.15L75.83,72.88L82.38,73.27L85.38,75.36L88.74,72.75L91.98,75.2L98.51,72.81L101.81,74.87L105.17,74.8L108.33,77.15L114.94,77.75L118.7,76.54L121.83,79.98L125.27,78.4L128.31,79.07L131.7,78.99L138.22,79.57L141.6,78.64L144.83,81.08L148.37,80.6L155.09,82.37L158.35,81.88L165.05,82.97L168.2,83.02L174.85,82.16L178.11,83L181.56,83.54L184.74,83.17L197.93,85.38L201.38,84.84L208.43,85.54L211.28,85.41L247.82,86.87L251.53,86.79L271.53,87.33L274.98,87.42L335.39,88.28L337.99,88.15L364.84,88.36L365.61,88.64L375.18,88.41L377.51,88.5L405.19,88.6L405.54,88.68L458.08,88.59L461.46,88.68L465.22,88.68L468.46,88.63L471.36,88.7L472.34,88.66L488.82,88.7L491.35,88.69L501.75,88.71" style="vector-effect: non-scaling-stroke; fill: none; stroke: rgb(0, 0, 0); stroke-opacity: 1; stroke-width: 2px; opacity: 1;"/></g><g class="points"/><g class="text"/></g><g class="trace scatter trace6cfa82" style="stroke-miterlimit: 2; opacity: 1;"><g class="fills"/><g class="errorbars"/><g class="lines"><path class="js-line" d="M1.73,123.22L5.51,152.83L24.99,129.94L34.54,124.81L38.22,121.71L54.27,115.33L60.79,115.2L70.53,111.19L77.15,107.25L87.14,105.1L93.59,104.98L103.5,105.06L116.93,99.55L146.64,97.57L156.66,96.16L163.37,95.56L173.15,95.46L193.22,93.49L203.04,92.44L216.41,92.06L219.79,92.29L243.52,90.57L246.61,90.57L332.68,89.27L336.4,89.37L346.7,89.16L349.66,89.21L380,89.02L382.86,88.98L436.17,88.85L438.05,88.77L458.98,88.81L460.98,88.76L486.27,88.79L488.08,88.75L514.86,88.73" style="vector-effect: non-scaling-stroke; fill: none; stroke: rgb(0, 0, 0); stroke-opacity: 1; stroke-width: 2px; opacity: 1;"/></g><g class="points"/><g class="text"/></g></g></g><g class="overplot"/><path class="xlines-above crisp" d="M0,0" style="fill: none;"/><path class="ylines-above crisp" d="M0,0" style="fill: none;"/><g class="overlines-above"/><g class="xaxislayer-above"/><g class="yaxislayer-above"><g class="ytick"><text text-anchor="end" x="89" y="4.6666549999999996" transform="translate(0,162.06)" style="font-family: 'Latin Modern Roman'; font-size: 13.3333px; fill: rgb(0, 0, 0); fill-opacity: 1; white-space: pre;">−0.5×10​<tspan style="font-size:70%" dy="-0.6em">−305</tspan><tspan dy="0.42em">​</tspan></text></g><g class="ytick"><text text-anchor="end" x="89" y="4.6666549999999996" transform="translate(0,121.72)" style="font-family: 'Latin Modern Roman'; font-size: 13.3333px; fill: rgb(0, 0, 0); fill-opacity: 1; white-space: pre;">0</text></g><g class="ytick"><text text-anchor="end" x="89" y="4.6666549999999996" transform="translate(0,81.38)" style="font-family: 'Latin Modern Roman'; font-size: 13.3333px; fill: rgb(0, 0, 0); fill-opacity: 1; white-space: pre;">0.5×10​<tspan style="font-size:70%" dy="-0.6em">−305</tspan><tspan dy="0.42em">​</tspan></text></g><g class="ytick"><text text-anchor="end" x="89" y="4.6666549999999996" transform="translate(0,41.04)" style="font-family: 'Latin Modern Roman'; font-size: 13.3333px; fill: rgb(0, 0, 0); fill-opacity: 1; white-space: pre;">1×10​<tspan style="font-size:70%" dy="-0.6em">−305</tspan><tspan dy="0.42em">​</tspan></text></g></g><g class="overaxes-above"/></g><g class="subplot x2y2"><g class="layer-subplot"><g class="shapelayer"/><g class="imagelayer"/></g><g class="gridlayer"><g class="x2"/><g class="y2"/></g><g class="zerolinelayer"><path class="y2zl zl crisp" transform="translate(0,285.845)" d="M90,0h515" style="stroke: rgb(192, 192, 192); stroke-opacity: 1; stroke-width: 1px;"/></g><path class="xlines-below"/><path class="ylines-below"/><g class="overlines-below"/><g class="xaxislayer-below"/><g class="yaxislayer-below"/><g class="overaxes-below"/><g class="plot" transform="translate(90, 197.125)" clip-path="url('#clip4fc0f9x2y2plot')"><g class="scatterlayer mlayer"><g class="trace scatter trace5a36d9" style="stroke-miterlimit: 2; opacity: 1;"><g class="fills"/><g class="errorbars"/><g class="lines"><path class="js-line" d="M0,88.72L0.61,122.29L0.79,106.54L0.81,94.72L1.16,8.04L1.55,104.93L1.56,100.78L1.58,95.94L1.73,123.22L2.25,114.48L2.27,113.66L2.32,119.22L3.14,85.67L3.26,95.34L3.27,97.34L3.39,111.95L3.87,70.36L3.89,71.41L3.9,71.56L3.98,72.48L4.2,51.58L4.22,48.34L4.43,41.21L4.6,60.52L4.9,59.15L4.92,60.69L5.51,152.83L5.87,118.05L5.89,117.83L6.45,68.48L6.64,89.1L6.66,89.81L6.69,92.24L7.09,63.8L7.1,61.92L7.16,54.95L7.8,70.72L7.81,71.75L7.98,71.14L9.11,137.07L9.46,124.82L9.47,123.82L10.11,46.75L10.53,69.59L10.55,70.72L10.8,63.75L11.87,115.4L11.9,114.28L11.91,113.89L12.36,120.75L13.02,86.75L13.03,86.64L13.79,46.49L13.8,45.77L13.9,41.23L14.2,55.55L14.21,57L14.78,118.7L15.25,104.52L15.26,104.87L15.58,117.89L15.59,118.85L15.7,125.35L16.12,91.89L16.13,91.55L16.58,60.25L17.23,64.55L17.24,64.4L17.4,62.83L17.63,75.46L17.65,76.03L18.5,126.45L18.85,112.47L18.86,111.22L19.64,69.84L20,71.08L20.02,70.43L20.27,54.39L20.73,73.67L20.74,74.45L21.48,116.4L21.91,115.87L21.92,115.99L21.99,116.31L22.19,110.1L22.2,109.94L22.63,88.12L22.64,87.38L23.32,57.35L23.58,70.37L23.59,70.32L23.67,68.9L23.96,77.95L23.98,78.57L24.99,129.94L25.31,112.15L25.32,111.39L26.45,62.39L26.6,64.22L26.61,64.15L26.71,62.82L26.93,68.27L26.94,68.83L27.95,117.18L28.35,103.88L28.37,103.64L28.69,107.63L28.88,104.16L28.89,103.66L29.78,48.61L30.13,68.65L30.14,69.11L31.57,119.66L31.68,115.79L31.69,115.07L33.36,61.6L33.39,61.82L33.4,61.99L34.36,114.38L34.37,115.83L34.54,124.81L34.96,104.81L34.98,104.24L36.39,58.3L36.63,71.14L36.65,72L37.48,104.04L37.79,102.76L37.8,103.15L38.23,121.71L38.47,102.23L38.48,101.19L39.24,67.43L39.54,69.87L39.55,69.45L39.92,63.44L40.07,69.77L40.08,70.61L41.1,117.52L41.22,114.29L41.24,114.12L42.94,58.23L43.02,60.29L43.03,60.71L44.74,114.34L44.89,110.57L44.9,110.01L45.91,66.34L46.23,66.94L46.25,66.91L46.64,75.8L46.65,76.56L47.76,115.44L47.94,110.85L47.95,110.53L49.18,76.84L49.19,76.31L49.5,59.81L49.91,78.57L49.92,79.23L50.72,109.99L51.34,108.1L51.35,107.92L52.55,64.62L52.77,71.64L52.79,72.29L54.28,115.33L54.41,111.84L54.42,111.03L56.02,65.5L56.18,69.84L56.2,70.36L57.34,114.84L57.6,107.09L57.61,106.65L59.06,62.47L59.07,62.34L59.1,61.95L59.34,73.4L59.35,74.32L60.7,113.87L60.72,114.23L60.79,115.2L61.09,102.93L61.1,102.24L62.28,66.3L62.37,67.38L62.39,67.5L63.97,112.75L64.11,109.36L64.13,108.92L65.67,64.55L65.68,64.52L65.91,70.9L65.92,71.57L66.95,103.59L66.96,104.01L67.23,109.46L67.61,102.3L67.62,102.01L68.81,69.28L69.05,73.27L69.07,73.67L70.53,111.19L70.83,103.04L70.84,102.74L72.29,67.15L72.37,68.15L72.38,68.36L73.61,104.39L74.24,102.95L74.25,102.74L75.83,72.88L75.97,74.26L75.98,74.58L77.15,107.25L77.54,102.96L77.56,102.77L79.05,73.22L79.14,73.98L79.16,74.25L80.64,104.22L80.84,101.56L80.85,101.18L82.38,73.27L82.48,74.39L82.5,74.63L83.42,104.08L84.04,102.07L84.05,102.04L84.34,95.61L84.35,95.24L85.4,75.36L85.51,75.51L85.52,75.44L85.92,79.36L85.93,79.64L87.14,105.1L87.38,99.88L87.39,99.68L88.67,73.12L88.68,73.01L88.74,72.75L88.93,74.86L88.94,74.98L90.23,102.54L90.34,102.23L90.35,101.95L90.85,96.53L90.86,96.24L91.98,75.2L92.32,78.33L92.33,78.49L92.82,87.16L92.83,87.58L93.59,104.98L93.86,100.47L93.87,99.92L95.26,74.37L95.5,77.57L95.52,77.78L96.88,105.14L97.02,102.89L97.03,102.52L98.51,72.81L98.81,77.81L98.82,78.2L100.13,103.36L100.33,101.32L100.34,101.15L101.81,74.87L101.96,76.43L101.97,76.53L103.5,105.06L103.78,99.35L103.8,98.98L105.17,74.8L105.4,77.78L105.41,78.11L106.66,100.03L106.86,99.23L106.87,99.22L107.05,99.39L107.43,94.11L107.44,93.7L108.39,77.15L108.93,78.18L108.95,78.29L110.1,101.06L110.39,97.77L110.41,97.73L112.01,77.29L112.15,78.52L112.16,78.63L113.73,99.6L113.75,99.52L113.96,97.08L113.97,96.7L114.94,77.75L115.49,79.31L115.5,79.48L115.83,86.92L115.84,87.16L116.79,98.73L116.81,99.01L116.93,99.55L117.21,96.02L117.23,95.67L118.7,76.54L118.83,78.01L118.84,78.33L119.81,98.27L120.2,97.97L120.22,98.02L120.4,99.31L120.62,95.33L120.64,94.74L121.83,79.98L121.91,80.17L121.92,80.08L123.53,99.04L123.59,98.7L123.6,98.56L124.33,86.79L124.34,86.45L125.27,78.4L125.28,78.51L125.3,78.52L125.58,82.94L125.59,83.33L126.52,98.22L126.85,96.94L126.86,96.73L127.4,91.09L127.41,90.75L128.34,79.07L128.55,80.68L128.57,80.9L130.1,99.07L130.38,95.86L130.39,95.68L131.73,78.99L131.99,81.41L132,81.66L133.34,98.92L133.59,96.02L133.6,95.76L135,79.21L135.19,80.29L135.2,80.51L136.6,98.33L136.94,95.72L136.95,95.41L138.22,79.57L138.63,82.58L138.64,82.57L139.98,98.47L140.27,95.02L140.28,94.75L141.6,78.64L141.9,81.74L141.91,81.96L143.21,97.6L143.57,94.99L143.58,94.65L144.83,81.08L145.34,82.53L145.35,82.61L146.64,97.57L146.83,96.53L146.84,96.44L148.37,80.6L148.66,83.33L148.68,83.56L150.04,96.39L150.14,96.1L150.15,95.95L151.85,81.56L152,82.48L152.02,82.6L153.51,95.22L153.52,95.19L153.53,95.18L153.87,91.5L153.88,91.22L155.09,82.37L155.2,82.63L155.22,82.78L155.71,88.73L155.72,89.01L156.66,96.16L156.82,95.51L156.83,95.39L158.35,81.88L158.59,83.08L158.6,83.27L160.03,94.48L160.25,94.02L160.26,93.76L160.76,87.49L160.77,87.19L161.62,82.66L161.85,83.08L161.86,83.18L162.3,87.48L162.32,87.69L163.37,95.56L163.41,95.51L163.43,95.29L164.16,86.53L164.17,86.35L165.07,82.97L165.22,83.49L165.24,83.67L166.45,94.86L166.86,92.9L166.87,92.74L167.29,90.22L167.3,90.01L168.2,83.02L168.46,83.85L168.47,83.81L169.88,94.78L169.94,94.67L169.95,94.57L170.9,87.43L170.91,87.29L171.43,82.74L171.85,84.64L171.86,84.79L173.15,95.46L173.5,92.75L173.52,92.45L174.85,82.16L175.16,84.81L175.17,85L176.54,94.33L176.74,93.73L176.75,93.57L177.7,86.87L177.71,86.55L178.11,83L178.55,85.02L178.56,85.14L179.47,91.85L179.48,91.98L179.8,95.04L180.21,91.7L180.22,91.75L181.36,83.82L181.38,83.96L181.56,83.54L181.98,86.53L181.99,86.65L183.06,93.63L183.47,92.7L183.48,92.63L184.74,83.17L184.91,83.64L184.93,83.58L186.06,91.21L186.07,91.24L186.48,94.4L186.83,91.34L186.84,91.34L187.87,85.03L187.88,85.03L188.27,83.83L188.52,85.53L188.53,85.61L189.98,93.54L190.17,92.65L190.18,92.6L191.45,84.48L191.47,84.53L191.94,85.74L191.96,85.8L193.22,93.49L193.4,92.69L193.42,92.57L194.92,84.79L195.05,85.06L195.06,85.15L195.9,90.91L195.91,91.09L196.28,92.56L196.79,91.92L196.8,91.94L197.13,90.63L197.14,90.53L197.93,85.38L198.23,85.55L198.24,85.52L198.6,85.53L198.72,86.13L198.73,86.27L199.78,92.09L200.01,91.9L200.03,91.9L200.5,90.27L200.52,90.22L201.38,84.84L201.58,85.22L201.59,85.25L202.35,89.19L202.36,89.28L203.04,92.44L203.37,91.52L203.38,91.45L204.09,88.15L204.1,88.02L204.63,85.39L205.02,85.88L205.04,85.93L205.22,85.83L205.39,86.56L205.4,86.45L205.41,86.71L206.73,92.22L206.88,91.89L206.89,91.71L208.43,85.54L208.54,85.76L208.55,85.93L209.65,92.09L210.12,91.19L210.13,91.07L211.33,85.42L211.75,86.15L211.76,86.34L211.77,86.16L212.37,88.75L212.38,88.87L212.99,91.94L213.34,91.17L213.35,91.12L214.85,85.6L215.13,86.33L215.14,86.47L216.52,92.05L216.69,91.52L216.7,91.52L218.08,85.05L218.4,86.61L218.41,86.68L219.79,92.29L219.84,92.16L219.86,92.19L221.54,85.75L221.71,86.07L221.72,86.16L223.15,91.94L223.49,90.7L223.5,90.68L224.78,85.61L224.98,86.31L224.99,86.4L226.43,91.72L226.73,90.54L226.75,90.39L228.09,85.91L228.46,86.76L228.47,86.95L229.64,91.18L230.16,90.68L230.17,90.63L231.04,87.35L231.05,87.27L231.35,86.01L231.83,87.02L231.84,87.11L232.58,89.55L232.6,89.59L233.11,91.38L233.53,90.34L233.54,90.34L235.07,86.47L235.2,86.74L235.21,86.87L236.77,90.88L236.85,90.76L236.86,90.74L238.41,86.43L238.54,86.64L238.55,86.71L240.13,90.66L240.14,90.46L240.15,90.66L240.76,88.1L240.77,88.03L241.13,86.79L241.61,87.12L241.62,87.05L241.81,86.72L242.14,87.77L242.15,87.86L242.78,90.47L243.18,90.22L243.19,90.25L243.63,90.48L243.78,90L243.8,89.82L244.94,86.93L245.02,87.03L245.03,87.1L245.87,89.7L245.89,89.82L246.61,90.57L246.77,90.43L246.79,90.21L246.8,90.42L247.45,88.36L247.46,88.33L247.87,86.87L248.4,87.23L248.41,87.22L248.56,87.13L248.79,87.81L248.81,87.79L248.82,87.93L249.61,90.51L249.99,90.29L250,90.16L250.48,89.56L250.49,89.46L251.53,86.79L251.54,86.87L252.03,87.81L252.04,87.88L253.25,90.51L253.5,90.08L253.51,90.09L254.68,86.97L255.17,87.25L255.18,87.28L256.31,90.54L256.64,89.74L256.65,89.68L257.02,89.92L257.21,89.25L257.23,89.2L258.07,87.21L258.3,87.37L258.31,87.48L258.9,88.35L258.91,88.36L259.83,90.55L259.92,90.5L259.93,90.45L261.43,86.94L261.77,87.67L261.78,87.73L263.02,90.51L263.18,90.29L263.19,90.17L264.76,87.11L265.21,87.66L265.23,87.71L266.63,90.31L266.77,90.12L266.78,90.03L268.31,87.13L268.39,87.22L268.4,87.29L269.9,90.18L270.13,89.86L270.14,89.84L271.53,87.33L271.69,87.49L271.71,87.55L273.46,89.74L273.49,89.71L273.51,89.73L275.03,87.45L275.26,87.79L275.27,87.88L276.54,90.08L276.8,89.71L276.81,89.68L278.15,87.49L278.5,87.96L278.52,87.97L280.15,89.77L280.21,89.69L280.22,89.67L281.82,87.42L281.97,87.64L281.98,87.72L283.34,89.75L283.35,89.7L283.55,89.82L283.79,89.11L283.81,89.07L284.77,87.92L284.79,87.89L285.24,87.78L285.49,88.14L285.5,88.2L286.11,89.57L286.49,89.46L286.5,89.42L286.9,89.82L287.19,89.13L287.2,89.1L287.95,87.75L288.29,87.93L288.3,87.96L288.5,87.75L288.84,88.51L288.85,88.51L288.86,88.63L289.68,89.56L289.94,89.37L289.95,89.3L290.31,89.53L290.59,88.91L290.6,88.88L291.48,87.76L291.69,87.87L291.7,87.95L293.45,89.65L293.63,89.25L293.64,89.21L295.04,87.93L295.05,87.95L295.06,87.96L296.3,89.47L296.31,89.4L296.32,89.52L297.05,89.21L297.08,89.12L297.1,89.1L298.26,87.54L298.48,87.94L298.5,88.03L300.04,89.46L300.05,89.33L301.86,88.04L301.99,88.22L302,88.28L303.39,89.58L303.64,89.27L303.65,89.18L304.9,87.64L305.11,88.29L305.12,88.36L306.45,89.65L306.46,89.57L308.25,87.88L308.57,88.33L308.59,88.38L309.32,89.04L309.33,89.11L309.95,89.64L310.21,89.13L310.22,89.09L311.56,87.87L311.6,87.89L311.61,87.91L313.42,89.39L313.58,89.19L313.6,89.15L314.79,87.78L315.11,88.17L315.13,88.26L317.11,89.1L317.12,89.04L317.14,89.03L318.49,88.13L318.52,88.17L318.54,88.28L320.15,89.48L320.36,89.12L320.37,89.08L321.32,87.99L321.49,88.08L321.5,88.1L323.25,89.17L323.27,89.1L325.5,88.42L325.54,88.51L325.56,88.56L326.75,89.39L326.82,89.32L326.83,89.29L328.22,88.26L328.23,88.26L328.86,88.65L328.87,88.69L330.46,89.23L330.52,89.13L330.53,89.08L331.52,88.21L331.69,88.3L331.7,88.36L333.86,88.91L333.87,88.85L335.34,88.34L335.35,88.39L336.12,89.05L336.14,89.12L336.64,89.27L336.95,88.97L336.96,88.91L338.77,88.56L338.79,88.67L338.8,88.52L339.31,89.06L339.51,89.02L339.52,89.03L340.85,88.79L340.87,88.77L342.06,88.5L342.07,88.59L343.67,88.9L343.68,88.87L345.13,88.53L345.14,88.58L347.71,88.54L347.72,88.36L348,88.16L348.47,88.55L348.48,88.5L348.49,88.53L350.27,88.75L350.28,88.66L352.18,88.49L352.19,88.48L352.77,89.03L352.78,89.13L353.57,88.98L353.61,88.88L353.62,88.88L354.81,88.26L354.83,88.29L354.84,88.33L356.79,89.03L356.84,88.95L356.85,88.93L358.62,88.55L358.63,88.58L360.54,88.72L360.55,88.7L361.58,88.61L361.59,88.66L362.77,88.77L362.79,88.85L365.92,88.87L365.93,88.92L367.19,88.88L367.2,88.8L368.51,88.48L368.52,88.43L369.17,88.85L369.19,88.95L372.99,88.77L373,88.82L374.55,88.51L374.56,88.46L377.35,88.64L377.36,88.59L378.84,88.57L378.85,88.58L380.72,88.77L380.73,88.72L381.97,88.75L381.98,88.77L383.32,88.76L383.33,88.79L385.43,88.55L385.44,88.66L388.58,88.67L388.59,88.8L389.83,88.83L389.84,88.91L392.53,88.84L392.54,88.86L394.02,88.67L394.04,88.66L395.36,88.66L395.37,88.58L397.89,88.55L397.9,88.53L400.63,88.72L400.65,88.75L401.85,88.55L401.86,88.5L403.75,88.76L403.76,88.71L405.08,88.63L405.1,88.69L406.75,88.9L406.77,88.93L410.3,88.78L410.32,88.66L411.4,88.76L411.41,88.68L413.95,88.71L413.96,88.69L416.54,88.73L416.55,88.77L418.09,88.64L418.11,88.58L423.86,88.78L423.87,88.73L428.85,88.68L428.86,88.59L430.31,88.79L430.32,88.75L433.04,88.75L433.05,88.78L515,88.7" style="vector-effect: non-scaling-stroke; fill: none; stroke: rgb(192, 192, 192); stroke-opacity: 1; stroke-width: 2px; opacity: 1;"/></g><g class="points"/><g class="text"/></g><g class="trace scatter trace551a7d" style="stroke-miterlimit: 2; opacity: 1;"><g class="fills"/><g class="errorbars"/><g class="lines"><path class="js-line" d="M1.16,8.04L13.9,41.23L20.27,54.39L23.32,57.35L29.78,48.61L36.39,58.3L42.92,58.23L49.5,59.81L52.55,64.62L56.02,65.5L59.1,61.95L72.27,67.15L75.83,72.88L82.38,73.27L85.38,75.36L88.74,72.75L91.98,75.2L98.51,72.81L101.81,74.87L105.17,74.8L108.33,77.15L114.94,77.75L118.7,76.54L121.83,79.98L125.27,78.4L128.31,79.07L131.7,78.99L138.22,79.57L141.6,78.64L144.83,81.08L148.37,80.6L155.09,82.37L158.35,81.88L165.05,82.97L168.2,83.02L174.85,82.16L178.11,83L181.56,83.54L184.74,83.17L197.93,85.38L201.38,84.84L208.43,85.54L211.28,85.41L247.82,86.87L251.53,86.79L271.53,87.33L274.98,87.42L335.39,88.28L337.99,88.15L364.84,88.36L365.61,88.64L375.18,88.41L377.51,88.5L405.19,88.6L405.54,88.68L458.08,88.59L461.46,88.68L465.22,88.68L468.46,88.63L471.36,88.7L472.34,88.66L488.82,88.7L491.35,88.69L501.75,88.71" style="vector-effect: non-scaling-stroke; fill: none; stroke: rgb(0, 0, 0); stroke-opacity: 1; stroke-width: 2px; opacity: 1;"/></g><g class="points"/><g class="text"/></g><g class="trace scatter trace87b0ae" style="stroke-miterlimit: 2; opacity: 1;"><g class="fills"/><g class="errorbars"/><g class="lines"><path class="js-line" d="M1.73,123.22L5.51,152.83L24.99,129.94L34.54,124.81L38.22,121.71L54.27,115.33L60.79,115.2L70.53,111.19L77.15,107.25L87.14,105.1L93.59,104.98L103.5,105.06L116.93,99.55L146.64,97.57L156.66,96.16L163.37,95.56L173.15,95.46L193.22,93.49L203.04,92.44L216.41,92.06L219.79,92.29L243.52,90.57L246.61,90.57L332.68,89.27L336.4,89.37L346.7,89.16L349.66,89.21L380,89.02L382.86,88.98L436.17,88.85L438.05,88.77L458.98,88.81L460.98,88.76L486.27,88.79L488.08,88.75L514.86,88.73" style="vector-effect: non-scaling-stroke; fill: none; stroke: rgb(0, 0, 0); stroke-opacity: 1; stroke-width: 2px; opacity: 1;"/></g><g class="points"/><g class="text"/></g></g></g><g class="overplot"/><path class="xlines-above crisp" d="M0,0" style="fill: none;"/><path class="ylines-above crisp" d="M0,0" style="fill: none;"/><g class="overlines-above"/><g class="xaxislayer-above"><g class="x2tick"><text text-anchor="middle" x="0" y="372.3333" transform="translate(90,0)" style="font-family: 'Latin Modern Roman'; font-size: 13.3333px; fill: rgb(0, 0, 0); fill-opacity: 1; white-space: pre;">0</text></g><g class="x2tick"><text text-anchor="middle" x="0" y="372.3333" transform="translate(206.78,0)" style="font-family: 'Latin Modern Roman'; font-size: 13.3333px; fill: rgb(0, 0, 0); fill-opacity: 1; white-space: pre;">10k</text></g><g class="x2tick"><text text-anchor="middle" x="0" y="372.3333" transform="translate(323.57,0)" style="font-family: 'Latin Modern Roman'; font-size: 13.3333px; fill: rgb(0, 0, 0); fill-opacity: 1; white-space: pre;">20k</text></g><g class="x2tick"><text text-anchor="middle" x="0" y="372.3333" transform="translate(440.35,0)" style="font-family: 'Latin Modern Roman'; font-size: 13.3333px; fill: rgb(0, 0, 0); fill-opacity: 1; white-space: pre;">30k</text></g><g class="x2tick"><text text-anchor="middle" x="0" y="372.3333" transform="translate(557.13,0)" style="font-family: 'Latin Modern Roman'; font-size: 13.3333px; fill: rgb(0, 0, 0); fill-opacity: 1; white-space: pre;">40k</text></g></g><g class="yaxislayer-above"><g class="y2tick"><text text-anchor="end" x="89" y="4.6666549999999996" transform="translate(0,326.185)" style="font-family: 'Latin Modern Roman'; font-size: 13.3333px; fill: rgb(0, 0, 0); fill-opacity: 1; white-space: pre;">−0.5×10​<tspan style="font-size:70%" dy="-0.6em">19</tspan><tspan dy="0.42em">​</tspan></text></g><g class="y2tick"><text text-anchor="end" x="89" y="4.6666549999999996" transform="translate(0,285.845)" style="font-family: 'Latin Modern Roman'; font-size: 13.3333px; fill: rgb(0, 0, 0); fill-opacity: 1; white-space: pre;">0</text></g><g class="y2tick"><text text-anchor="end" x="89" y="4.6666549999999996" transform="translate(0,245.505)" style="font-family: 'Latin Modern Roman'; font-size: 13.3333px; fill: rgb(0, 0, 0); fill-opacity: 1; white-space: pre;">0.5×10​<tspan style="font-size:70%" dy="-0.6em">19</tspan><tspan dy="0.42em">​</tspan></text></g><g class="y2tick"><text text-anchor="end" x="89" y="4.6666549999999996" transform="translate(0,205.165)" style="font-family: 'Latin Modern Roman'; font-size: 13.3333px; fill: rgb(0, 0, 0); fill-opacity: 1; white-space: pre;">1×10​<tspan style="font-size:70%" dy="-0.6em">19</tspan><tspan dy="0.42em">​</tspan></text></g></g><g class="overaxes-above"/></g></g><g class="polarlayer"/><g class="ternarylayer"/><g class="geolayer"/><g class="funnelarealayer"/><g class="pielayer"/><g class="treemaplayer"/><g class="sunburstlayer"/><g class="glimages"/><defs id="topdefs-4fc0f9"><g class="clips"/><clipPath id="legend4fc0f9"><rect width="173" height="31" x="0" y="0"/></clipPath></defs><g class="layer-above"><g class="imagelayer"/><g class="shapelayer"/></g><g class="infolayer"><g class="legend" pointer-events="all" transform="translate(90, 0.4999999999999716)"><rect class="bg" shape-rendering="crispEdges" style="stroke: rgb(68, 68, 68); stroke-opacity: 1; fill: rgb(0, 0, 0); fill-opacity: 0; stroke-width: 0px;" width="173" height="31" x="0" y="0"/><g class="scrollbox" transform="translate(0, 0)" clip-path="url('#legend4fc0f9')"><g class="groups"><g class="traces" transform="translate(0, 15.166645)" style="opacity: 1;"><text class="legendtext" text-anchor="start" x="40" y="5.199987" style="font-family: 'Latin Modern Roman'; font-size: 13.3333px; fill: rgb(0, 0, 0); fill-opacity: 1; white-space: pre;">Signal</text><g class="layers" style="opacity: 1;"><g class="legendfill"/><g class="legendlines"><path class="js-line" d="M5,0h30" style="fill: none; stroke: rgb(192, 192, 192); stroke-opacity: 1; stroke-width: 2px;"/></g><g class="legendsymbols"><g class="legendpoints"/></g></g><rect class="legendtoggle" x="0" y="-10.166645" width="76.875" height="20.33329" style="fill: rgb(0, 0, 0); fill-opacity: 0;"/></g><g class="traces" transform="translate(79.375, 15.166645)" style="opacity: 1;"><text class="legendtext" text-anchor="start" x="40" y="5.199987" style="font-family: 'Latin Modern Roman'; font-size: 13.3333px; fill: rgb(0, 0, 0); fill-opacity: 1; white-space: pre;">Frontiers</text><g class="layers" style="opacity: 1;"><g class="legendfill"/><g class="legendlines"><path class="js-line" d="M5,0h30" style="fill: none; stroke: rgb(0, 0, 0); stroke-opacity: 1; stroke-width: 2px;"/></g><g class="legendsymbols"><g class="legendpoints"/></g></g><rect class="legendtoggle" x="0" y="-10.166645" width="90.640625" height="20.33329" style="fill: rgb(0, 0, 0); fill-opacity: 0;"/></g></g></g><rect class="scrollbar" rx="20" ry="3" width="0" height="0" style="fill: rgb(128, 139, 164); fill-opacity: 1;" x="0" y="0"/></g><g class="g-gtitle"/><g class="g-xtitle"/><g class="g-x2title" transform="translate(0,-2.677059999999983)"><text class="x2title" x="347.5" y="399.67706" text-anchor="middle" style="font-family: 'Latin Modern Roman'; font-size: 13.33px; fill: rgb(0, 0, 0); opacity: 1; font-weight: normal; white-space: pre;"><tspan style="font-weight:bold"><tspan style="font-style:italic">i</tspan></tspan></text></g><g class="g-ytitle" transform="translate(11.6298828125,0)"><text class="ytitle" transform="rotate(-90,0.36981500000000267,113.4375)" x="0.36981500000000267" y="113.4375" text-anchor="middle" style="font-family: 'Latin Modern Roman'; font-size: 13.33px; fill: rgb(0, 0, 0); opacity: 1; font-weight: normal; white-space: pre;"><tspan style="font-weight:bold">Min. Amp.</tspan></text></g><g class="g-y2title" transform="translate(1.6923828125,0)"><text class="y2title" transform="rotate(-90,10.307315000000003,277.5625)" x="10.307315000000003" y="277.5625" text-anchor="middle" style="font-family: 'Latin Modern Roman'; font-size: 13.33px; fill: rgb(0, 0, 0); opacity: 1; font-weight: normal; white-space: pre;"><tspan style="font-weight:bold">Max. Amp.</tspan></text></g></g></svg>