<svg class="main-svg" xmlns="http://www.w3.org/2000/svg" xmlns:xlink="http://www.w3.org/1999/xlink" width="605" height="200" style="" viewBox="0 0 605 200"><rect x="0" y="0" width="605" height="200" style="fill: rgb(0, 0, 0); fill-opacity: 0;"/><defs id="defs-a7f960"><g class="clips"><clipPath id="clipa7f960xyplot" class="plotclip"><rect width="274.725" height="144"/></clipPath><clipPath id="clipa7f960x2y2plot" class="plotclip"><rect width="274.725" height="144"/></clipPath><clipPath class="axesclip" id="clipa7f960x"><rect x="50" y="0" width="274.725" height="200"/></clipPath><clipPath class="axesclip" id="clipa7f960y"><rect x="0" y="14" width="605" height="144"/></clipPath><clipPath class="axesclip" id="clipa7f960xy"><rect x="50" y="14" width="274.725" height="144"/></clipPath><clipPath class="axesclip" id="clipa7f960y2"><rect x="0" y="14" width="605" height="144"/></clipPath><clipPath class="axesclip" id="clipa7f960xy2"><rect x="50" y="14" width="274.725" height="144"/></clipPath><clipPath class="axesclip" id="clipa7f960x2"><rect x="330.275" y="0" width="274.725" height="200"/></clipPath><clipPath class="axesclip" id="clipa7f960x2y"><rect x="330.275" y="14" width="274.725" height="144"/></clipPath><clipPath class="axesclip" id="clipa7f960x2y2"><rect x="330.275" y="14" width="274.725" height="144"/></clipPath></g><g class="gradients"/></defs><g class="bglayer"><rect class="bg" x="50" y="14" width="274.725" height="144" style="fill: rgb(0, 0, 0); fill-opacity: 0; stroke-width: 0;"/><rect class="bg" x="330.275" y="14" width="274.725" height="144" style="fill: rgb(0, 0, 0); fill-opacity: 0; stroke-width: 0;"/></g><g class="layer-below"><g class="imagelayer"/><g class="shapelayer"/></g><g class="cartesianlayer"><g class="subplot xy"><g class="layer-subplot"><g class="shapelayer"/><g class="imagelayer"/></g><g class="gridlayer"><g class="x"/><g class="y"/></g><g class="zerolinelayer"><path class="yzl zl crisp" transform="translate(0,93.42)" d="M50,0h274.725" style="stroke: rgb(192, 192, 192); stroke-opacity: 1; stroke-width: 1px;"/></g><path class="xlines-below"/><path class="ylines-below"/><g class="overlines-below"/><g class="xaxislayer-below"/><g class="yaxislayer-below"/><g class="overaxes-below"/><g class="plot" transform="translate(50, 14)" clip-path="url('#clipa7f960xyplot')"><g class="scatterlayer mlayer"><g class="trace scatter trace71c31b" style="stroke-miterlimit: 2; opacity: 1;"><g class="fills"/><g class="errorbars"/><g class="lines"><path class="js-line" d="M0,79.42L0.32,109.47L0.54,16.86L0.57,22.26L0.58,19.24L0.62,7.2L0.92,110.29L1.09,99.16L1.1,99L1.24,106.71L1.68,76.68L1.85,93.61L1.86,91.38L2.36,36.89L2.61,51.39L2.62,52.94L2.94,136.8L3.37,71.85L3.38,70.16L3.57,82.56L3.82,49.19L4.13,55.99L4.14,57.13L4.86,122.69L4.89,121.65L4.9,121.26L4.95,121.3L5.39,41.85L5.65,64.87L5.66,64.29L5.76,57.07L6.33,103.29L6.41,100.78L6.42,100.88L6.59,108.09L7.17,62.2L7.18,61.69L7.41,36.91L7.89,106.25L7.93,105.03L7.94,104.75L8.37,112.2L8.69,71.96L8.7,71.3L8.85,53.93L9.45,74.01L9.46,75.11L9.87,113.19L10.21,86.51L10.22,85.81L10.81,48.69L10.97,54.7L10.98,55.14L11.46,104.19L11.73,104.11L11.74,104.1L11.92,93.03L11.92,92.26L12.44,51.33L12.84,72.59L12.85,72.73L13.17,96.16L13.18,97.07L13.33,116.31L13.93,63.48L13.94,63.01L14.11,55.85L14.69,82.26L14.7,82.76L14.91,104.89L15.45,89.83L15.46,89.25L15.89,43.51L16.21,70.85L16.22,71.05L16.84,107.11L16.97,94.08L16.98,93.18L17.73,57.92L17.74,57.3L17.8,55.14L18.43,111.72L18.49,108.41L18.5,107.98L19.25,63.03L19.26,62.18L19.41,52.19L19.99,93.13L20.01,93.02L20.02,92.82L20.12,90.26L20.29,102.49L20.3,103.07L20.39,108.94L20.93,60.36L21.05,64.24L21.06,64.08L21.29,56.79L21.81,95.26L21.82,96L21.92,105.19L22.51,68.8L22.57,69.32L22.58,69.43L22.68,71.03L22.76,65.19L22.77,64.31L22.91,52.13L23.26,79.88L23.26,80.35L23.87,102.34L24.05,86.27L24.06,85.55L24.49,59.38L24.92,72.74L24.93,73.57L25.48,103.33L25.68,91.76L25.69,91.03L26.41,53.53L26.44,54.22L26.45,54.55L27.06,98.45L27.2,95.56L27.21,95.54L27.32,98.2L27.5,87.39L27.5,86.49L28.03,57.84L28.43,72.14L28.43,72.46L28.96,103.23L29.25,87L29.26,86.92L29.47,71.46L29.47,70.82L29.88,58.63L30.13,73.87L30.13,74.28L30.59,102.79L30.92,86.18L30.93,86.09L31.53,55.45L31.76,72.44L31.77,72.43L31.82,72.14L31.95,75.45L31.96,75.73L32.43,103.12L32.71,85.24L32.72,85.22L33.22,59.34L33.47,68.79L33.48,69.03L34.13,100.92L34.23,95.4L34.24,94.92L34.99,58.59L35,58.34L35.04,57.75L35.75,94.54L35.76,94.88L35.86,97.98L36.51,73.29L36.52,72.62L36.71,62.02L37.27,80.83L37.28,81.04L37.62,99.52L38.03,82.63L38.04,82.36L38.55,60.11L38.79,72.13L38.8,72.52L39.27,93.44L39.75,83.16L39.76,82.92L40.45,65.23L40.51,66.04L40.52,66.24L41.15,96L41.27,94.3L41.28,94.05L41.6,76.21L41.6,75.84L42.17,65.54L42.37,73.29L42.38,73.68L43.02,93.29L43.28,83.7L43.28,83.5L43.94,65.59L44.1,71.81L44.11,72.27L44.5,93.17L44.86,91.08L44.87,90.99L45.56,67.46L45.92,74.51L45.93,74.81L46.49,94.07L46.68,86.72L46.69,86.47L47.34,65.12L47.61,76.28L47.62,76.3L48.13,91.79L48.54,84.14L48.55,84.01L49.07,67.31L49.3,70.71L49.31,70.63L49.93,93.97L50.06,90.11L50.07,89.93L50.82,66.57L50.82,66.62L50.83,66.62L51.29,78.74L51.3,78.9L51.68,94.12L52.05,84.79L52.06,84.59L52.5,65.79L52.5,65.57L52.55,65.17L52.72,70L52.72,70.26L53.41,92.52L53.77,82.95L53.78,82.69L54.31,67.02L54.71,76L54.72,76.37L55.21,94.04L55.47,85.22L55.48,85.07L56.1,66.96L56.23,69.92L56.24,70.18L56.9,89.54L56.99,88.88L57,88.88L57.11,88.96L57.34,82.43L57.35,82.01L57.82,69.06L58.22,74.77L58.23,75.27L58.73,90.46L59.1,83.21L59.11,82.82L59.75,69.18L59.98,76.69L59.99,76.89L60.68,89.17L60.74,88.43L60.75,88.34L61.31,69.6L61.5,70.78L61.51,70.86L61.69,72.79L61.7,73.11L62.38,89.1L62.6,83.72L62.6,83.49L63.32,68.51L63.49,75.13L63.49,75.37L64.23,88.89L64.4,81.9L64.41,81.74L64.99,71.59L65.28,74.41L65.29,74.68L65.9,88.65L66.04,85.53L66.05,85.36L66.8,70.32L66.81,70.34L66.83,70.18L67,74.82L67.01,75.06L67.46,87.92L67.76,85.86L67.77,85.77L68.08,77.28L68.09,76.93L68.46,70.77L68.84,76.53L68.85,76.66L69.4,88.67L69.72,81.69L69.73,81.53L70.27,70.7L70.55,76.66L70.56,76.8L71.12,88.54L71.31,84.39L71.32,84.27L72.02,70.91L72.07,71.33L72.08,71.46L72.87,88.01L73.17,82.56L73.18,82.41L73.74,71.22L74.11,76.72L74.12,76.84L74.67,88.14L74.87,84.01L74.88,83.73L75.54,70.4L75.85,77.55L75.86,77.71L76.4,87.36L76.74,81.38L76.75,81.31L77.26,72.58L77.67,77.67L77.68,77.9L78.23,87.34L78.52,82.04L78.53,81.64L79.16,72.15L79.39,77.17L79.4,77.15L80.04,86.28L80.15,84.96L80.16,84.88L81.01,73.01L81.16,75.66L81.17,75.89L81.89,85.24L81.92,85.17L81.93,85.04L82.73,73.73L82.97,76.71L82.98,76.9L83.57,86.07L83.86,81.4L83.87,81.36L84.47,73.29L84.75,77.59L84.76,77.76L85.37,84.57L85.64,81.67L85.65,81.46L86.2,73.99L86.4,74.78L86.41,74.87L87.16,85.53L87.4,81.45L87.41,81.29L88.06,74.26L88.29,77.67L88.3,77.9L88.79,84.91L89.18,81.88L89.19,81.74L89.73,74.31L90.1,77.46L90.11,77.68L90.62,84.84L90.96,80.56L90.97,80.44L91.45,74.06L91.83,77.78L91.84,77.83L92.37,85.45L92.7,81.19L92.71,81.17L93.27,73.54L93.62,78.61L93.63,78.77L94.17,84.44L94.41,82.04L94.41,81.81L95.01,74.29L95.35,77.36L95.36,77.53L95.91,85.07L96.26,80.56L96.27,80.43L96.61,76.29L96.62,76.31L96.62,76.13L96.85,74.77L97.12,78.18L97.13,78.31L97.65,83.81L98.03,80.58L98.04,80.54L98.55,74.45L98.79,76.31L98.8,76.41L99.48,84.5L99.82,80.48L99.83,80.47L100.04,78.46L100.05,78.3L100.43,75.04L100.77,78.75L100.77,78.71L100.78,78.8L101.35,83.72L101.58,80.85L101.58,80.75L102.16,75.59L102.47,77.75L102.48,77.87L103.07,83.68L103.35,80.94L103.36,80.91L103.98,75.9L104.31,78.01L104.32,78.21L104.7,82.85L105.19,80.6L105.2,80.5L105.59,76.43L106.05,77.85L106.06,77.89L106.57,82.43L106.95,80.95L106.96,80.8L107.43,75.94L107.83,78.28L107.84,78.48L108.31,82.74L108.74,80.66L108.75,80.62L109.16,76.44L109.59,77.76L109.6,77.85L110.28,82.55L110.5,80.24L110.51,80.04L111.19,76.57L111.35,78.03L111.36,78.1L111.84,82.43L112.26,80.44L112.27,80.46L112.71,76.45L113.16,77.99L113.17,78.15L113.62,82.3L114.05,80.58L114.06,80.52L114.61,76.62L114.91,78.61L114.92,78.75L115.5,82.4L115.75,80.59L115.75,80.51L116.33,76.13L116.61,78.52L116.62,78.56L117.24,82.61L117.47,80.64L117.47,80.56L118.18,76.75L118.46,78.47L118.46,78.57L119.04,82.3L119.32,80.29L119.33,80.23L119.91,76.63L120.27,78.55L120.28,78.64L120.79,82.1L121.2,80.31L121.21,80.23L121.67,76.9L122.08,78.97L122.09,78.99L122.5,81.61L122.95,80.07L122.96,79.95L123.41,76.99L123.83,78.59L123.83,78.76L124.35,81.8L124.72,80.08L124.73,80L125.4,77.4L125.62,78.91L125.62,78.94L126.3,81.35L126.5,80.03L126.51,79.86L127.18,77.37L127.39,78.59L127.4,78.73L128.11,81.15L128.29,80.22L128.3,80.09L128.99,77.62L129.18,78.65L129.19,78.8L129.9,81.07L130.08,80.25L130.08,80.2L130.66,77.82L130.96,78.7L130.96,78.76L131.55,81.07L131.86,80.08L131.86,79.93L132.23,77.75L132.74,78.65L132.74,78.82L133.15,81.02L133.63,79.99L133.64,79.84L134.18,77.68L134.48,78.75L134.49,78.84L135.1,81.02L135.39,79.94L135.4,79.86L135.86,77.85L136.3,79.06L136.31,79.12L136.73,81.04L137.18,80.08L137.19,80.02L137.66,78.06L138.08,78.87L138.08,78.98L138.61,81.05L138.94,79.64L138.95,79.58L139.42,77.79L139.69,78.74L139.7,78.82L140.31,81.02L140.65,80L140.66,79.84L141.23,77.97L141.58,78.87L141.58,78.95L142.2,80.85L142.49,79.63L142.49,79.51L143.11,77.98L143.35,79.17L143.36,79.2L143.98,80.72L144.28,79.79L144.29,79.78L144.85,78.17L145.19,79.06L145.2,79.16L145.84,80.35L146.07,79.86L146.08,79.77L146.69,78.25L146.95,79.05L146.96,79.17L147.52,80.63L147.87,79.6L147.88,79.59L148.38,78.32L148.7,79.01L148.71,79.06L149.38,80.41L149.64,79.74L149.65,79.64L150.32,78.23L150.52,79.13L150.53,79.17L151.26,80.4L151.36,79.98L151.36,79.91L152.12,78.55L152.28,78.84L152.29,78.92L153.05,80.4L153.2,79.79L153.21,79.75L153.9,78.55L154.06,79.15L154.07,79.13L154.83,80.16L154.9,80.08L154.91,80.02L155.49,78.55L155.87,79.06L155.88,79.13L156.48,80.34L156.74,79.56L156.75,79.49L157.42,78.69L157.61,79.2L157.61,79.34L158.25,80.18L158.55,79.58L158.55,79.54L159.11,78.36L159.44,79.21L159.45,79.28L159.98,80.14L160.29,79.57L160.3,79.54L161.03,78.81L161.23,79.26L161.24,79.32L161.77,80.24L162.14,79.54L162.15,79.47L162.6,78.42L162.87,79.37L162.88,79.47L163.08,79.22L163.35,80.07L163.36,80.01L163.36,80.09L163.5,80.23L163.75,79.57L163.91,79.58L163.92,79.56L164.42,78.64L164.81,79.19L164.81,79.22L165.29,80.3L165.64,79.35L165.65,79.31L166.26,78.65L166.5,79.41L166.5,79.45L167.52,79.48L167.52,79.47L167.92,78.57L168.29,79.19L168.3,79.24L169.13,79.84L169.2,79.65L169.21,79.61L169.86,78.87L170.09,79.24L170.1,79.31L170.78,80.09L170.99,79.39L171,79.35L171.44,78.77L171.9,79.33L171.91,79.34L172.75,79.71L172.84,79.55L172.85,79.45L173.42,78.74L173.7,79.35L173.71,79.39L174.3,80.01L174.49,79.44L174.5,79.43L175.18,78.87L175.34,79.16L175.34,79.23L176.23,79.93L176.38,79.57L176.39,79.52L176.85,78.96L177.23,79.24L177.24,79.28L177.47,79.91L178.1,79.58L178.1,79.53L178.91,79.02L179.07,79.22L179.07,79.31L179.52,79.97L179.94,79.39L179.95,79.39L180.39,78.91L180.86,79.39L180.87,79.39L181.53,79.65L181.73,79.51L181.74,79.5L182.39,79.07L182.61,79.43L182.61,79.49L183.24,79.67L183.5,79.38L183.51,79.31L184.68,79.62L184.69,79.69L185.37,79.42L185.43,79.3L185.43,79.28L185.64,78.91L186.16,79.35L186.17,79.44L187.22,79.47L187.24,79.42L187.25,79.35L187.96,79.16L188.05,79.31L188.06,79.41L188.27,79.91L188.81,79.38L188.82,79.35L190.22,79.71L190.22,79.77L191.15,78.99L191.43,79.32L191.44,79.39L192.23,79.64L192.4,79.31L192.41,79.24L193.79,79.69L193.8,79.77L195.1,79.38L195.18,79.54L195.19,79.57L196.05,79.47L196.06,79.45L196.07,79.4L196.7,79.09L196.93,79.53L196.94,79.62L198.98,79.44L198.99,79.52L199.83,79.19L199.84,79.18L201.15,79.57L201.25,79.38L201.26,79.38L202.04,79.2L202.18,79.34L202.19,79.38L203.21,79.37L203.25,79.26L203.26,79.25L204.01,79.36L204.04,79.41L204.05,79.5L204.92,79.57L205.01,79.43L205.02,79.37L205.99,79.55L206,79.57L206.98,79.26L206.98,79.26L206.99,79.24L208.78,79.23L208.78,79.18L210.38,79.43L210.39,79.36L212.58,79.34L212.58,79.42L215.59,79.32L215.6,79.29L218.8,79.44L218.81,79.42L274.73,79.4" style="vector-effect: non-scaling-stroke; fill: none; stroke: rgb(192, 192, 192); stroke-opacity: 1; stroke-width: 2px; opacity: 1;"/></g><g class="points"/><g class="text"/></g><g class="trace scatter trace57950f" style="stroke-miterlimit: 2; opacity: 1;"><g class="fills"/><g class="errorbars"/><g class="lines"><path class="js-line" d="M0.62,7.2L10.81,48.69L12.44,51.33L15.89,43.51L19.41,52.19L22.89,52.13L26.41,53.53L28.03,57.84L29.88,58.63L31.53,55.45L35.04,57.75L38.55,60.11L40.45,65.23L43.94,65.59L45.55,67.46L47.34,65.12L49.07,67.31L52.55,65.17L54.31,67.02L56.1,66.96L57.79,69.06L61.31,69.6L63.32,68.51L64.99,71.59L66.83,70.18L70.25,70.7L72.02,70.91L73.74,71.22L75.54,70.4L77.26,72.58L79.15,72.15L82.73,73.73L84.47,73.29L88.04,74.26L89.73,74.31L93.27,73.54L95.01,74.29L105.59,76.43L107.43,75.94L111.19,76.57L112.71,76.45L137.66,78.06L139.42,77.79L153.52,78.52L155.49,78.55L166.2,78.65L167.92,78.57L173.42,78.74L175.18,78.87L201.98,79.2L203.43,79.09L205.47,79.19L207.06,79.18L207.46,79.39L208.78,79.18L216.76,79.37L217.67,79.25L230.79,79.32L231.87,79.3L267.65,79.41" style="vector-effect: non-scaling-stroke; fill: none; stroke: rgb(0, 0, 0); stroke-opacity: 1; stroke-width: 2px; opacity: 1;"/></g><g class="points"/><g class="text"/></g><g class="trace scatter trace95a7ca" style="stroke-miterlimit: 2; opacity: 1;"><g class="fills"/><g class="errorbars"/><g class="lines"><path class="js-line" d="M0.92,110.29L2.94,136.8L13.33,116.31L18.43,111.72L20.39,108.94L28.95,103.23L32.43,103.12L37.62,99.52L41.15,96L46.49,94.07L49.93,93.97L55.21,94.04L62.38,89.1L78.23,87.34L83.57,86.07L92.37,85.45L95.91,85.07L113.61,82.3L115.44,82.41L119.04,82.3L120.79,82.1L136.72,81.04L138.61,81.05L227.42,79.57L229.37,79.59L254.8,79.47L255.82,79.49L266.67,79.43L266.98,79.45L274.65,79.42" style="vector-effect: non-scaling-stroke; fill: none; stroke: rgb(0, 0, 0); stroke-opacity: 1; stroke-width: 2px; opacity: 1;"/></g><g class="points"/><g class="text"/></g></g></g><g class="overplot"/><path class="xlines-above crisp" d="M0,0" style="fill: none;"/><path class="ylines-above crisp" d="M0,0" style="fill: none;"/><g class="overlines-above"/><g class="xaxislayer-above"><g class="xtick"><text text-anchor="middle" x="0" y="172.3333" transform="translate(50,0)" style="font-family: 'Latin Modern Roman'; font-size: 13.3333px; fill: rgb(0, 0, 0); fill-opacity: 1; white-space: pre;">0</text></g><g class="xtick"><text text-anchor="middle" x="0" y="172.3333" transform="translate(112.3,0)" style="font-family: 'Latin Modern Roman'; font-size: 13.3333px; fill: rgb(0, 0, 0); fill-opacity: 1; white-space: pre;">1×10​<tspan style="font-size:70%" dy="-0.6em">−155</tspan><tspan dy="0.42em">​</tspan></text></g><g class="xtick"><text text-anchor="middle" x="0" y="172.3333" transform="translate(174.59,0)" style="font-family: 'Latin Modern Roman'; font-size: 13.3333px; fill: rgb(0, 0, 0); fill-opacity: 1; white-space: pre;">2×10​<tspan style="font-size:70%" dy="-0.6em">−155</tspan><tspan dy="0.42em">​</tspan></text></g><g class="xtick"><text text-anchor="middle" x="0" y="172.3333" transform="translate(236.89,0)" style="font-family: 'Latin Modern Roman'; font-size: 13.3333px; fill: rgb(0, 0, 0); fill-opacity: 1; white-space: pre;">3×10​<tspan style="font-size:70%" dy="-0.6em">−155</tspan><tspan dy="0.42em">​</tspan></text></g><g class="xtick"><text text-anchor="middle" x="0" y="172.3333" transform="translate(299.19,0)" style="font-family: 'Latin Modern Roman'; font-size: 13.3333px; fill: rgb(0, 0, 0); fill-opacity: 1; white-space: pre;">4×10​<tspan style="font-size:70%" dy="-0.6em">−155</tspan><tspan dy="0.42em">​</tspan></text></g></g><g class="yaxislayer-above"><g class="ytick"><text text-anchor="end" x="49" y="4.6666549999999996" transform="translate(0,129.51999999999998)" style="font-family: 'Latin Modern Roman'; font-size: 13.3333px; fill: rgb(0, 0, 0); fill-opacity: 1; white-space: pre;">−0.5</text></g><g class="ytick"><text text-anchor="end" x="49" y="4.6666549999999996" transform="translate(0,93.42)" style="font-family: 'Latin Modern Roman'; font-size: 13.3333px; fill: rgb(0, 0, 0); fill-opacity: 1; white-space: pre;">0</text></g><g class="ytick"><text text-anchor="end" x="49" y="4.6666549999999996" transform="translate(0,57.31)" style="font-family: 'Latin Modern Roman'; font-size: 13.3333px; fill: rgb(0, 0, 0); fill-opacity: 1; white-space: pre;">0.5</text></g><g class="ytick"><text text-anchor="end" x="49" y="4.6666549999999996" transform="translate(0,21.2)" style="font-family: 'Latin Modern Roman'; font-size: 13.3333px; fill: rgb(0, 0, 0); fill-opacity: 1; white-space: pre;">1</text></g></g><g class="overaxes-above"/></g><g class="subplot x2y2"><g class="layer-subplot"><g class="shapelayer"/><g class="imagelayer"/></g><g class="gridlayer"><g class="x2"/><g class="y2"/></g><g class="zerolinelayer"><path class="y2zl zl crisp" transform="translate(0,93.42)" d="M330.275,0h274.725" style="stroke: rgb(192, 192, 192); stroke-opacity: 1; stroke-width: 1px;"/></g><path class="xlines-below"/><path class="ylines-below"/><g class="overlines-below"/><g class="xaxislayer-below"/><g class="yaxislayer-below"/><g class="overaxes-below"/><g class="plot" transform="translate(330.275, 14)" clip-path="url('#clipa7f960x2y2plot')"><g class="scatterlayer mlayer"><g class="trace scatter traceb579f4" style="stroke-miterlimit: 2; opacity: 1;"><g class="fills"/><g class="errorbars"/><g class="lines"><path class="js-line" d="M0,79.42L0.32,109.47L0.54,16.86L0.57,22.26L0.58,19.24L0.62,7.2L0.92,110.29L1.09,99.16L1.1,99L1.24,106.71L1.68,76.68L1.85,93.61L1.86,91.38L2.36,36.89L2.61,51.39L2.62,52.94L2.94,136.8L3.37,71.85L3.38,70.16L3.57,82.56L3.82,49.19L4.13,55.99L4.14,57.13L4.86,122.69L4.89,121.65L4.9,121.26L4.95,121.3L5.39,41.85L5.65,64.87L5.66,64.29L5.76,57.07L6.33,103.29L6.41,100.78L6.42,100.88L6.59,108.09L7.17,62.2L7.18,61.69L7.41,36.91L7.89,106.25L7.93,105.03L7.94,104.75L8.37,112.2L8.69,71.96L8.7,71.3L8.85,53.93L9.45,74.01L9.46,75.11L9.87,113.19L10.21,86.51L10.22,85.81L10.81,48.69L10.97,54.7L10.98,55.14L11.46,104.19L11.73,104.11L11.74,104.1L11.92,93.03L11.92,92.26L12.44,51.33L12.84,72.59L12.85,72.73L13.17,96.16L13.18,97.07L13.33,116.31L13.93,63.48L13.94,63.01L14.11,55.85L14.69,82.26L14.7,82.76L14.91,104.89L15.45,89.83L15.46,89.25L15.89,43.51L16.21,70.85L16.22,71.05L16.84,107.11L16.97,94.08L16.98,93.18L17.73,57.92L17.74,57.3L17.8,55.14L18.43,111.72L18.49,108.41L18.5,107.98L19.25,63.03L19.26,62.18L19.41,52.19L19.99,93.13L20.01,93.02L20.02,92.82L20.12,90.26L20.29,102.49L20.3,103.07L20.39,108.94L20.93,60.36L21.05,64.24L21.06,64.08L21.29,56.79L21.81,95.26L21.82,96L21.92,105.19L22.51,68.8L22.57,69.32L22.58,69.43L22.68,71.03L22.76,65.19L22.77,64.31L22.91,52.13L23.26,79.88L23.26,80.35L23.87,102.34L24.05,86.27L24.06,85.55L24.49,59.38L24.92,72.74L24.93,73.57L25.48,103.33L25.68,91.76L25.69,91.03L26.41,53.53L26.44,54.22L26.45,54.55L27.06,98.45L27.2,95.56L27.21,95.54L27.32,98.2L27.5,87.39L27.5,86.49L28.03,57.84L28.43,72.14L28.43,72.46L28.96,103.23L29.25,87L29.26,86.92L29.47,71.46L29.47,70.82L29.88,58.63L30.13,73.87L30.13,74.28L30.59,102.79L30.92,86.18L30.93,86.09L31.53,55.45L31.76,72.44L31.77,72.43L31.82,72.14L31.95,75.45L31.96,75.73L32.43,103.12L32.71,85.24L32.72,85.22L33.22,59.34L33.47,68.79L33.48,69.03L34.13,100.92L34.23,95.4L34.24,94.92L34.99,58.59L35,58.34L35.04,57.75L35.75,94.54L35.76,94.88L35.86,97.98L36.51,73.29L36.52,72.62L36.71,62.02L37.27,80.83L37.28,81.04L37.62,99.52L38.03,82.63L38.04,82.36L38.55,60.11L38.79,72.13L38.8,72.52L39.27,93.44L39.75,83.16L39.76,82.92L40.45,65.23L40.51,66.04L40.52,66.24L41.15,96L41.27,94.3L41.28,94.05L41.6,76.21L41.6,75.84L42.17,65.54L42.37,73.29L42.38,73.68L43.02,93.29L43.28,83.7L43.28,83.5L43.94,65.59L44.1,71.81L44.11,72.27L44.5,93.17L44.86,91.08L44.87,90.99L45.56,67.46L45.92,74.51L45.93,74.81L46.49,94.07L46.68,86.72L46.69,86.47L47.34,65.12L47.61,76.28L47.62,76.3L48.13,91.79L48.54,84.14L48.55,84.01L49.07,67.31L49.3,70.71L49.31,70.63L49.93,93.97L50.06,90.11L50.07,89.93L50.82,66.57L50.82,66.62L50.83,66.62L51.29,78.74L51.3,78.9L51.68,94.12L52.05,84.79L52.06,84.59L52.5,65.79L52.5,65.57L52.55,65.17L52.72,70L52.72,70.26L53.41,92.52L53.77,82.95L53.78,82.69L54.31,67.02L54.71,76L54.72,76.37L55.21,94.04L55.47,85.22L55.48,85.07L56.1,66.96L56.23,69.92L56.24,70.18L56.9,89.54L56.99,88.88L57,88.88L57.11,88.96L57.34,82.43L57.35,82.01L57.82,69.06L58.22,74.77L58.23,75.27L58.73,90.46L59.1,83.21L59.11,82.82L59.75,69.18L59.98,76.69L59.99,76.89L60.68,89.17L60.74,88.43L60.75,88.34L61.31,69.6L61.5,70.78L61.51,70.86L61.69,72.79L61.7,73.11L62.38,89.1L62.6,83.72L62.6,83.49L63.32,68.51L63.49,75.13L63.49,75.37L64.23,88.89L64.4,81.9L64.41,81.74L64.99,71.59L65.28,74.41L65.29,74.68L65.9,88.65L66.04,85.53L66.05,85.36L66.8,70.32L66.81,70.34L66.83,70.18L67,74.82L67.01,75.06L67.46,87.92L67.76,85.86L67.77,85.77L68.08,77.28L68.09,76.93L68.46,70.77L68.84,76.53L68.85,76.66L69.4,88.67L69.72,81.69L69.73,81.53L70.27,70.7L70.55,76.66L70.56,76.8L71.12,88.54L71.31,84.39L71.32,84.27L72.02,70.91L72.07,71.33L72.08,71.46L72.87,88.01L73.17,82.56L73.18,82.41L73.74,71.22L74.11,76.72L74.12,76.84L74.67,88.14L74.87,84.01L74.88,83.73L75.54,70.4L75.85,77.55L75.86,77.71L76.4,87.36L76.74,81.38L76.75,81.31L77.26,72.58L77.67,77.67L77.68,77.9L78.23,87.34L78.52,82.04L78.53,81.64L79.16,72.15L79.39,77.17L79.4,77.15L80.04,86.28L80.15,84.96L80.16,84.88L81.01,73.01L81.16,75.66L81.17,75.89L81.89,85.24L81.92,85.17L81.93,85.04L82.73,73.73L82.97,76.71L82.98,76.9L83.57,86.07L83.86,81.4L83.87,81.36L84.47,73.29L84.75,77.59L84.76,77.76L85.37,84.57L85.64,81.67L85.65,81.46L86.2,73.99L86.4,74.78L86.41,74.87L87.16,85.53L87.4,81.45L87.41,81.29L88.06,74.26L88.29,77.67L88.3,77.9L88.79,84.91L89.18,81.88L89.19,81.74L89.73,74.31L90.1,77.46L90.11,77.68L90.62,84.84L90.96,80.56L90.97,80.44L91.45,74.06L91.83,77.78L91.84,77.83L92.37,85.45L92.7,81.19L92.71,81.17L93.27,73.54L93.62,78.61L93.63,78.77L94.17,84.44L94.41,82.04L94.41,81.81L95.01,74.29L95.35,77.36L95.36,77.53L95.91,85.07L96.26,80.56L96.27,80.43L96.61,76.29L96.62,76.31L96.62,76.13L96.85,74.77L97.12,78.18L97.13,78.31L97.65,83.81L98.03,80.58L98.04,80.54L98.55,74.45L98.79,76.31L98.8,76.41L99.48,84.5L99.82,80.48L99.83,80.47L100.04,78.46L100.05,78.3L100.43,75.04L100.77,78.75L100.77,78.71L100.78,78.8L101.35,83.72L101.58,80.85L101.58,80.75L102.16,75.59L102.47,77.75L102.48,77.87L103.07,83.68L103.35,80.94L103.36,80.91L103.98,75.9L104.31,78.01L104.32,78.21L104.7,82.85L105.19,80.6L105.2,80.5L105.59,76.43L106.05,77.85L106.06,77.89L106.57,82.43L106.95,80.95L106.96,80.8L107.43,75.94L107.83,78.28L107.84,78.48L108.31,82.74L108.74,80.66L108.75,80.62L109.16,76.44L109.59,77.76L109.6,77.85L110.28,82.55L110.5,80.24L110.51,80.04L111.19,76.57L111.35,78.03L111.36,78.1L111.84,82.43L112.26,80.44L112.27,80.46L112.71,76.45L113.16,77.99L113.17,78.15L113.62,82.3L114.05,80.58L114.06,80.52L114.61,76.62L114.91,78.61L114.92,78.75L115.5,82.4L115.75,80.59L115.75,80.51L116.33,76.13L116.61,78.52L116.62,78.56L117.24,82.61L117.47,80.64L117.47,80.56L118.18,76.75L118.46,78.47L118.46,78.57L119.04,82.3L119.32,80.29L119.33,80.23L119.91,76.63L120.27,78.55L120.28,78.64L120.79,82.1L121.2,80.31L121.21,80.23L121.67,76.9L122.08,78.97L122.09,78.99L122.5,81.61L122.95,80.07L122.96,79.95L123.41,76.99L123.83,78.59L123.83,78.76L124.35,81.8L124.72,80.08L124.73,80L125.4,77.4L125.62,78.91L125.62,78.94L126.3,81.35L126.5,80.03L126.51,79.86L127.18,77.37L127.39,78.59L127.4,78.73L128.11,81.15L128.29,80.22L128.3,80.09L128.99,77.62L129.18,78.65L129.19,78.8L129.9,81.07L130.08,80.25L130.08,80.2L130.66,77.82L130.96,78.7L130.96,78.76L131.55,81.07L131.86,80.08L131.86,79.93L132.23,77.75L132.74,78.65L132.74,78.82L133.15,81.02L133.63,79.99L133.64,79.84L134.18,77.68L134.48,78.75L134.49,78.84L135.1,81.02L135.39,79.94L135.4,79.86L135.86,77.85L136.3,79.06L136.31,79.12L136.73,81.04L137.18,80.08L137.19,80.02L137.66,78.06L138.08,78.87L138.08,78.98L138.61,81.05L138.94,79.64L138.95,79.58L139.42,77.79L139.69,78.74L139.7,78.82L140.31,81.02L140.65,80L140.66,79.84L141.23,77.97L141.58,78.87L141.58,78.95L142.2,80.85L142.49,79.63L142.49,79.51L143.11,77.98L143.35,79.17L143.36,79.2L143.98,80.72L144.28,79.79L144.29,79.78L144.85,78.17L145.19,79.06L145.2,79.16L145.84,80.35L146.07,79.86L146.08,79.77L146.69,78.25L146.95,79.05L146.96,79.17L147.52,80.63L147.87,79.6L147.88,79.59L148.38,78.32L148.7,79.01L148.71,79.06L149.38,80.41L149.64,79.74L149.65,79.64L150.32,78.23L150.52,79.13L150.53,79.17L151.26,80.4L151.36,79.98L151.36,79.91L152.12,78.55L152.28,78.84L152.29,78.92L153.05,80.4L153.2,79.79L153.21,79.75L153.9,78.55L154.06,79.15L154.07,79.13L154.83,80.16L154.9,80.08L154.91,80.02L155.49,78.55L155.87,79.06L155.88,79.13L156.48,80.34L156.74,79.56L156.75,79.49L157.42,78.69L157.61,79.2L157.61,79.34L158.25,80.18L158.55,79.58L158.55,79.54L159.11,78.36L159.44,79.21L159.45,79.28L159.98,80.14L160.29,79.57L160.3,79.54L161.03,78.81L161.23,79.26L161.24,79.32L161.77,80.24L162.14,79.54L162.15,79.47L162.6,78.42L162.87,79.37L162.88,79.47L163.08,79.22L163.35,80.07L163.36,80.01L163.36,80.09L163.5,80.23L163.75,79.57L163.91,79.58L163.92,79.56L164.42,78.64L164.81,79.19L164.81,79.22L165.29,80.3L165.64,79.35L165.65,79.31L166.26,78.65L166.5,79.41L166.5,79.45L167.52,79.48L167.52,79.47L167.92,78.57L168.29,79.19L168.3,79.24L169.13,79.84L169.2,79.65L169.21,79.61L169.86,78.87L170.09,79.24L170.1,79.31L170.78,80.09L170.99,79.39L171,79.35L171.44,78.77L171.9,79.33L171.91,79.34L172.75,79.71L172.84,79.55L172.85,79.45L173.42,78.74L173.7,79.35L173.71,79.39L174.3,80.01L174.49,79.44L174.5,79.43L175.18,78.87L175.34,79.16L175.34,79.23L176.23,79.93L176.38,79.57L176.39,79.52L176.85,78.96L177.23,79.24L177.24,79.28L177.47,79.91L178.1,79.58L178.1,79.53L178.91,79.02L179.07,79.22L179.07,79.31L179.52,79.97L179.94,79.39L179.95,79.39L180.39,78.91L180.86,79.39L180.87,79.39L181.53,79.65L181.73,79.51L181.74,79.5L182.39,79.07L182.61,79.43L182.61,79.49L183.24,79.67L183.5,79.38L183.51,79.31L184.68,79.62L184.69,79.69L185.37,79.42L185.43,79.3L185.43,79.28L185.64,78.91L186.16,79.35L186.17,79.44L187.22,79.47L187.24,79.42L187.25,79.35L187.96,79.16L188.05,79.31L188.06,79.41L188.27,79.91L188.81,79.38L188.82,79.35L190.22,79.71L190.22,79.77L191.15,78.99L191.43,79.32L191.44,79.39L192.23,79.64L192.4,79.31L192.41,79.24L193.79,79.69L193.8,79.77L195.1,79.38L195.18,79.54L195.19,79.57L196.05,79.47L196.06,79.45L196.07,79.4L196.7,79.09L196.93,79.53L196.94,79.62L198.98,79.44L198.99,79.52L199.83,79.19L199.84,79.18L201.15,79.57L201.25,79.38L201.26,79.38L202.04,79.2L202.18,79.34L202.19,79.38L203.21,79.37L203.25,79.26L203.26,79.25L204.01,79.36L204.04,79.41L204.05,79.5L204.92,79.57L205.01,79.43L205.02,79.37L205.99,79.55L206,79.57L206.98,79.26L206.98,79.26L206.99,79.24L208.78,79.23L208.78,79.18L210.38,79.43L210.39,79.36L212.58,79.34L212.58,79.42L215.59,79.32L215.6,79.29L218.8,79.44L218.81,79.42L274.73,79.4" style="vector-effect: non-scaling-stroke; fill: none; stroke: rgb(192, 192, 192); stroke-opacity: 1; stroke-width: 2px; opacity: 1;"/></g><g class="points"/><g class="text"/></g><g class="trace scatter trace35288c" style="stroke-miterlimit: 2; opacity: 1;"><g class="fills"/><g class="errorbars"/><g class="lines"><path class="js-line" d="M0.62,7.2L10.81,48.69L12.44,51.33L15.89,43.51L19.41,52.19L22.89,52.13L26.41,53.53L28.03,57.84L29.88,58.63L31.53,55.45L35.04,57.75L38.55,60.11L40.45,65.23L43.94,65.59L45.55,67.46L47.34,65.12L49.07,67.31L52.55,65.17L54.31,67.02L56.1,66.96L57.79,69.06L61.31,69.6L63.32,68.51L64.99,71.59L66.83,70.18L70.25,70.7L72.02,70.91L73.74,71.22L75.54,70.4L77.26,72.58L79.15,72.15L82.73,73.73L84.47,73.29L88.04,74.26L89.73,74.31L93.27,73.54L95.01,74.29L105.59,76.43L107.43,75.94L111.19,76.57L112.71,76.45L137.66,78.06L139.42,77.79L153.52,78.52L155.49,78.55L166.2,78.65L167.92,78.57L173.42,78.74L175.18,78.87L201.98,79.2L203.43,79.09L205.47,79.19L207.06,79.18L207.46,79.39L208.78,79.18L216.76,79.37L217.67,79.25L230.79,79.32L231.87,79.3L267.65,79.41" style="vector-effect: non-scaling-stroke; fill: none; stroke: rgb(0, 0, 0); stroke-opacity: 1; stroke-width: 2px; opacity: 1;"/></g><g class="points"/><g class="text"/></g><g class="trace scatter trace3af6a5" style="stroke-miterlimit: 2; opacity: 1;"><g class="fills"/><g class="errorbars"/><g class="lines"><path class="js-line" d="M0.92,110.29L2.94,136.8L13.33,116.31L18.43,111.72L20.39,108.94L28.95,103.23L32.43,103.12L37.62,99.52L41.15,96L46.49,94.07L49.93,93.97L55.21,94.04L62.38,89.1L78.23,87.34L83.57,86.07L92.37,85.45L95.91,85.07L113.61,82.3L115.44,82.41L119.04,82.3L120.79,82.1L136.72,81.04L138.61,81.05L227.42,79.57L229.37,79.59L254.8,79.47L255.82,79.49L266.67,79.43L266.98,79.45L274.65,79.42" style="vector-effect: non-scaling-stroke; fill: none; stroke: rgb(0, 0, 0); stroke-opacity: 1; stroke-width: 2px; opacity: 1;"/></g><g class="points"/><g class="text"/></g></g></g><g class="overplot"/><path class="xlines-above crisp" d="M0,0" style="fill: none;"/><path class="ylines-above crisp" d="M0,0" style="fill: none;"/><g class="overlines-above"/><g class="xaxislayer-above"><g class="x2tick"><text text-anchor="middle" x="0" y="172.3333" transform="translate(330.275,0)" style="font-family: 'Latin Modern Roman'; font-size: 13.3333px; fill: rgb(0, 0, 0); fill-opacity: 1; white-space: pre;">0</text></g><g class="x2tick"><text text-anchor="middle" x="0" y="172.3333" transform="translate(392.575,0)" style="font-family: 'Latin Modern Roman'; font-size: 13.3333px; fill: rgb(0, 0, 0); fill-opacity: 1; white-space: pre;">10B</text></g><g class="x2tick"><text text-anchor="middle" x="0" y="172.3333" transform="translate(454.865,0)" style="font-family: 'Latin Modern Roman'; font-size: 13.3333px; fill: rgb(0, 0, 0); fill-opacity: 1; white-space: pre;">20B</text></g><g class="x2tick"><text text-anchor="middle" x="0" y="172.3333" transform="translate(517.165,0)" style="font-family: 'Latin Modern Roman'; font-size: 13.3333px; fill: rgb(0, 0, 0); fill-opacity: 1; white-space: pre;">30B</text></g><g class="x2tick"><text text-anchor="middle" x="0" y="172.3333" transform="translate(579.4649999999999,0)" style="font-family: 'Latin Modern Roman'; font-size: 13.3333px; fill: rgb(0, 0, 0); fill-opacity: 1; white-space: pre;">40B</text></g></g><g class="yaxislayer-above"/><g class="overaxes-above"/></g></g><g class="polarlayer"/><g class="ternarylayer"/><g class="geolayer"/><g class="funnelarealayer"/><g class="pielayer"/><g class="treemaplayer"/><g class="sunburstlayer"/><g class="glimages"/><defs id="topdefs-a7f960"><g class="clips"/><clipPath id="legenda7f960"><rect width="173" height="31" x="0" y="0"/></clipPath></defs><g class="layer-above"><g class="imagelayer"/><g class="shapelayer"/></g><g class="infolayer"><g class="legend" pointer-events="all" transform="translate(50, 0)"><rect class="bg" shape-rendering="crispEdges" style="stroke: rgb(68, 68, 68); stroke-opacity: 1; fill: rgb(0, 0, 0); fill-opacity: 0; stroke-width: 0px;" width="173" height="31" x="0" y="0"/><g class="scrollbox" transform="translate(0, 0)" clip-path="url('#legenda7f960')"><g class="groups"><g class="traces" transform="translate(0, 15.166645)" style="opacity: 1;"><text class="legendtext" text-anchor="start" x="40" y="5.199987" style="font-family: 'Latin Modern Roman'; font-size: 13.3333px; fill: rgb(0, 0, 0); fill-opacity: 1; white-space: pre;">Signal</text><g class="layers" style="opacity: 1;"><g class="legendfill"/><g class="legendlines"><path class="js-line" d="M5,0h30" style="fill: none; stroke: rgb(192, 192, 192); stroke-opacity: 1; stroke-width: 2px;"/></g><g class="legendsymbols"><g class="legendpoints"/></g></g><rect class="legendtoggle" x="0" y="-10.166645" width="76.875" height="20.33329" style="fill: rgb(0, 0, 0); fill-opacity: 0;"/></g><g class="traces" transform="translate(79.375, 15.166645)" style="opacity: 1;"><text class="legendtext" text-anchor="start" x="40" y="5.199987" style="font-family: 'Latin Modern Roman'; font-size: 13.3333px; fill: rgb(0, 0, 0); fill-opacity: 1; white-space: pre;">Frontiers</text><g class="layers" style="opacity: 1;"><g class="legendfill"/><g class="legendlines"><path class="js-line" d="M5,0h30" style="fill: none; stroke: rgb(0, 0, 0); stroke-opacity: 1; stroke-width: 2px;"/></g><g class="legendsymbols"><g class="legendpoints"/></g></g><rect class="legendtoggle" x="0" y="-10.166645" width="90.640625" height="20.33329" style="fill: rgb(0, 0, 0); fill-opacity: 0;"/></g></g></g><rect class="scrollbar" rx="20" ry="3" width="0" height="0" style="fill: rgb(128, 139, 164); fill-opacity: 1;" x="0" y="0"/></g><g class="g-gtitle"/><g class="g-xtitle" transform="translate(0,-2.677059999999983)"><text class="xtitle" x="187.3625" y="199.67705999999998" text-anchor="middle" style="font-family: 'Latin Modern Roman'; font-size: 13.33px; fill: rgb(0, 0, 0); opacity: 1; font-weight: normal; white-space: pre;"><tspan style="font-weight:bold">Min <tspan style="font-style:italic">x</tspan></tspan></text></g><g class="g-x2title" transform="translate(0,-2.677059999999983)"><text class="x2title" x="467.6375" y="199.67705999999998" text-anchor="middle" style="font-family: 'Latin Modern Roman'; font-size: 13.33px; fill: rgb(0, 0, 0); opacity: 1; font-weight: normal; white-space: pre;"><tspan style="font-weight:bold">Max <tspan style="font-style:italic">x</tspan></tspan></text></g><g class="g-ytitle" transform="translate(11.5205078125,0)"><text class="ytitle" transform="rotate(-90,0.47919000000000267,86)" x="0.47919000000000267" y="86" text-anchor="middle" style="font-family: 'Latin Modern Roman'; font-size: 13.33px; fill: rgb(0, 0, 0); opacity: 1; font-weight: normal; white-space: pre;"><tspan style="font-weight:bold">Amplitude</tspan></text></g><g class="g-y2title"/></g></svg>