<?xml version="1.0" encoding="UTF-8" standalone="no"?>
<svg
   xmlns:dc="http://purl.org/dc/elements/1.1/"
   xmlns:cc="http://creativecommons.org/ns#"
   xmlns:rdf="http://www.w3.org/1999/02/22-rdf-syntax-ns#"
   xmlns:svg="http://www.w3.org/2000/svg"
   xmlns="http://www.w3.org/2000/svg"
   xmlns:sodipodi="http://sodipodi.sourceforge.net/DTD/sodipodi-0.dtd"
   xmlns:inkscape="http://www.inkscape.org/namespaces/inkscape"
   class="main-svg"
   width="605"
   height="300"
   style=""
   viewBox="0 0 605 300"
   version="1.1"
   id="svg337"
   sodipodi:docname="13FrontiersToEnvelope.svg"
   inkscape:version="1.0.1 (3bc2e813f5, 2020-09-07)">
  <metadata
     id="metadata341">
    <rdf:RDF>
      <cc:Work
         rdf:about="">
        <dc:format>image/svg+xml</dc:format>
        <dc:type
           rdf:resource="http://purl.org/dc/dcmitype/StillImage" />
      </cc:Work>
    </rdf:RDF>
  </metadata>
  <sodipodi:namedview
     pagecolor="#ffffff"
     bordercolor="#666666"
     borderopacity="1"
     objecttolerance="10"
     gridtolerance="10"
     guidetolerance="10"
     inkscape:pageopacity="0"
     inkscape:pageshadow="2"
     inkscape:window-width="1920"
     inkscape:window-height="1001"
     id="namedview339"
     showgrid="false"
     inkscape:zoom="1.5474535"
     inkscape:cx="337.8943"
     inkscape:cy="135.47593"
     inkscape:window-x="-9"
     inkscape:window-y="-9"
     inkscape:window-maximized="1"
     inkscape:current-layer="svg337" />
  <rect
     x="0"
     y="0"
     width="605"
     height="300"
     style="fill: rgb(255, 255, 255); fill-opacity: 1;"
     id="rect2" />
  <defs
     id="defs-4441ba">
    <g
       class="clips"
       id="g16">
      <clipPath
         id="clip4441baxyplot"
         class="plotclip">
        <rect
           width="544"
           height="235"
           id="rect4" />
      </clipPath>
      <clipPath
         class="axesclip"
         id="clip4441bax">
        <rect
           x="50"
           y="0"
           width="544"
           height="300"
           id="rect7" />
      </clipPath>
      <clipPath
         class="axesclip"
         id="clip4441bay">
        <rect
           x="0"
           y="23"
           width="605"
           height="235"
           id="rect10" />
      </clipPath>
      <clipPath
         class="axesclip"
         id="clip4441baxy">
        <rect
           x="50"
           y="23"
           width="544"
           height="235"
           id="rect13" />
      </clipPath>
    </g>
    <g
       class="gradients"
       id="g18" />
  </defs>
  <g
     class="bglayer"
     id="g21" />
  <g
     class="layer-below"
     id="g27">
    <g
       class="imagelayer"
       id="g23" />
    <g
       class="shapelayer"
       id="g25" />
  </g>
  <g
     class="cartesianlayer"
     id="g207">
    <g
       class="subplot xy"
       id="g205">
      <g
         class="layer-subplot"
         id="g33">
        <g
           class="shapelayer"
           id="g29" />
        <g
           class="imagelayer"
           id="g31" />
      </g>
      <g
         class="gridlayer"
         id="g39">
        <g
           class="x"
           id="g35" />
        <g
           class="y"
           id="g37" />
      </g>
      <g
         class="zerolinelayer"
         id="g43">
        <path
           class="yzl zl crisp"
           transform="translate(0,140.5)"
           d="M50,0h544"
           style="stroke: rgb(128, 128, 128); stroke-opacity: 1; stroke-width: 2px;"
           id="path41" />
      </g>
      <path
         class="xlines-below"
         id="path45" />
      <path
         class="ylines-below"
         id="path47" />
      <g
         class="overlines-below"
         id="g49" />
      <g
         class="xaxislayer-below"
         id="g51" />
      <g
         class="yaxislayer-below"
         id="g53" />
      <g
         class="overaxes-below"
         id="g55" />
      <g
         class="plot"
         transform="translate(50, 23)"
         clip-path="url('#clip4441baxyplot')"
         id="g145">
        <g
           class="scatterlayer mlayer"
           id="g143">
          <g
             class="trace scatter trace7d1024"
             style="stroke-miterlimit: 2; opacity: 1;"
             id="g69">
            <g
               class="fills"
               id="g57" />
            <g
               class="errorbars"
               id="g59" />
            <g
               class="lines"
               id="g63">
              <path
                 class="js-line"
                 d="M0,115.51L0.07,105.49L0.09,115.83L0.1,118.52L0.55,188.02L0.59,33.88L0.85,110.12L0.86,135.66L1.11,206.37L1.46,39.15L1.6,184.9L1.61,176.45L1.74,211.26L2.1,34.15L2.35,153.14L2.36,174.69L2.37,221.75L2.74,36.52L3.11,164.01L3.12,148.17L3.38,40.76L3.65,223.25L3.87,83.35L3.88,90.97L4.01,39.41L4.28,221.15L4.54,69.99L4.55,58.05L4.92,218.52L5.2,36.15L5.3,62.55L5.31,77.17L5.56,216.41L5.83,33.85L6.06,110.97L6.07,107.38L6.19,215.8L6.45,53.94L6.46,40.71L6.47,31.77L6.83,213.01L7.13,81.77L7.14,97.98L7.47,210.94L7.74,29.73L7.89,79.19L7.9,70.84L8.11,208.67L8.38,29.03L8.65,183.6L8.66,185.92L8.74,204.38L9.02,29.38L9.29,175.07L9.29,182.64L9.3,183.61L9.33,119.87L9.33,111.78L9.38,200.57L9.66,28.22L9.9,97.18L9.91,114.12L10.02,196.16L10.29,28.14L10.66,186.58L10.67,177.67L10.8,185.57L10.93,31.46L11.42,167.8L11.43,177.62L11.57,36.93L12.08,192.64L12.1,141.75L12.11,122.65L12.2,43.96L12.71,195.9L12.86,81.76L12.87,90.56L13.07,52.47L13.35,199.97L13.62,56.55L13.63,55.83L13.71,50.27L13.99,201.69L14.25,63.99L14.26,56.26L14.63,202.26L14.98,49.47L15.01,103.87L15.02,116.09L15.26,197.85L15.54,50.04L15.77,125.73L15.78,123.84L15.82,198.62L16.18,49.1L16.52,182.85L16.53,191.84L16.53,194.08L16.81,48.94L17.28,126.25L17.29,118.26L17.45,49.67L17.73,191.72L18.04,112.21L18.05,110.68L18.08,49.61L18.36,187.55L18.8,62.81L18.81,58.02L19,182.99L19.36,54.24L19.56,134.48L19.57,126.19L19.72,179.19L20,54.43L20.27,167.78L20.27,171.16L20.36,179.5L20.64,53.81L20.89,120.27L20.89,135.12L20.99,178.23L21.27,53.65L21.65,159.44L21.65,149.21L21.71,177.61L21.91,54.59L22.39,147.51L22.39,156.03L22.7,54.84L23.05,182.37L23.08,129.01L23.09,114.56L23.33,55.43L23.69,185.28L23.84,88.63L23.85,96.98L24.33,189.75L24.6,54.93L24.61,55.51L24.97,193.11L25.24,54.26L25.31,79.59L25.32,73.04L25.61,193.9L25.88,53.64L25.98,92.57L25.99,104.21L26.24,196.17L26.52,52.38L26.74,142.69L26.75,137.59L26.88,197.01L27.16,52.18L27.5,182.03L27.51,191.57L27.51,195.3L27.79,54.06L28.26,107.09L28.27,103.2L28.43,55.76L28.79,186.63L29.02,114.61L29.03,114.59L29.06,58.63L29.42,181.87L29.78,65.07L29.79,65.78L29.98,177.47L30.26,64.42L30.54,134.99L30.55,130.8L30.77,176.37L31.06,64.64L31.24,155.31L31.24,165.7L31.41,178.53L31.69,63.5L31.92,129.03L31.93,125.02L32.33,63.16L32.68,182.03L32.69,181.56L32.97,63.03L33.32,182.38L33.44,82.82L33.45,84.7L33.6,63.24L33.95,182.81L34.2,101.5L34.21,96.84L34.59,182.4L34.95,62.39L34.96,73.26L34.97,82.27L35.23,180.1L35.58,61.57L35.72,141.83L35.73,138.43L35.94,178.37L36.22,60.5L36.48,160.5L36.49,168.35L36.86,59.35L37.22,183.63L37.23,173.46L37.24,164L37.5,58.48L37.86,184.8L37.99,96.92L38,103.05L38.13,58.35L38.49,186.66L38.75,68.8L38.76,62.26L39.13,187.8L39.41,57.15L39.43,86.45L39.44,92.86L39.77,186.73L40.04,58.93L40.19,96.44L40.2,98.51L40.4,185.09L40.68,59.8L40.95,160.55L40.96,165.41L41.04,182.42L41.31,62.07L41.71,156.74L41.72,159.95L41.95,64.52L42.38,176.88L42.47,124.06L42.48,115.94L42.59,68.15L43.01,180.39L43.23,74.45L43.24,78.63L43.3,69.85L43.65,182.55L43.99,84.44L44,79.13L44.29,184.95L44.65,66.44L44.75,135.04L44.76,141.78L44.93,186.26L45.29,64.1L45.51,144.88L45.51,141.9L45.52,141.26L45.56,185.7L45.56,187.13L45.92,62.38L46.17,150.86L46.17,160.09L46.2,186.06L46.55,61.56L46.91,159.06L46.92,153.36L47.19,63.07L47.47,179.52L47.67,87.6L47.68,89.63L47.82,65.77L48.1,175.24L48.43,88.78L48.44,81.46L48.74,171.94L49.1,66.16L49.17,83.88L49.18,87.1L49.45,172.46L49.73,66.61L49.93,147.1L49.94,142.92L50.08,176.73L50.36,66.68L50.69,162.35L50.7,168.46L51,67.65L51.35,181.51L51.45,120.59L51.46,111.91L51.71,68.16L51.99,182.74L52.21,98.16L52.22,101.91L52.62,183.99L52.97,64.12L52.98,63.07L53.26,183.91L53.61,62.28L53.73,134.38L53.74,133.52L53.89,183.28L54.24,62.31L54.43,140.85L54.44,145.8L54.53,181.42L54.88,62.18L55.19,154.28L55.2,153.9L55.51,62.78L55.86,177.1L55.95,145.9L55.96,141.51L56.15,63.53L56.5,178.3L56.71,79.3L56.72,82.06L56.79,64.75L57.14,179.77L57.47,80.97L57.48,76.71L57.77,180.6L58.13,69.08L58.23,123.08L58.24,129.19L58.41,180.21L58.76,68.8L58.99,142.79L59,142.82L59.39,66.86L59.67,181.84L59.75,162.92L59.76,160.81L60.03,60.09L60.31,182.15L60.51,92.56L60.52,93.45L60.67,61.36L60.95,175.59L61.21,89.27L61.21,83.82L61.3,62.75L61.58,170.57L61.96,78.73L61.97,81.92L62.29,169.01L62.57,66.05L62.72,105.44L62.73,106.27L62.92,170.14L63.2,67.29L63.48,156.25L63.49,157.32L63.55,170.9L63.66,131.58L63.66,127.43L63.84,69.71L64.18,170.41L64.55,79.05L64.56,83.16L64.82,170.05L65.16,69.47L65.31,105.27L65.32,104.49L65.45,168.36L65.79,67.82L66.07,166.94L66.08,167.3L66.42,70.41L66.42,68.21L66.43,67.5L66.54,110.99L66.54,114.16L66.58,98.84L66.78,168.07L66.97,99.17L66.97,93.71L67.41,170.65L67.7,67.52L67.73,87.77L67.74,86.97L68.05,173.71L68.33,67.36L68.49,93.08L68.5,95.66L68.68,175.14L68.96,68.75L69.25,152.84L69.26,149.66L69.67,67.59L69.95,176L70.01,153.77L70.02,157.75L70.03,159.71L70.3,66.13L70.31,65.6L70.58,175.58L71.06,113.39L71.07,111.89L71.22,172.61L71.58,67.71L71.82,141.98L71.83,149.66L71.85,169.62L72.2,69.47L72.57,150.03L72.58,145.61L72.84,71.85L73.12,159.94L73.33,116.95L73.34,119.56L73.47,74.93L73.81,156.85L74.09,80.56L74.1,78.43L74.1,77.34L74.44,157.88L74.85,106.17L74.86,104.66L75.08,157.8L75.36,82.75L75.57,109.55L75.58,109.82L76.06,82.25L76.33,158.03L76.34,158.21L76.69,81.03L77.09,128.42L77.1,130.71L77.32,80.2L77.6,156.53L77.85,112.83L77.86,106.89L78.23,155.38L78.58,79.99L78.61,101.24L78.62,105.85L78.94,154.34L79.22,80.01L79.37,93.6L79.38,94.1L79.85,80.3L80.2,155.29L80.21,149.79L80.22,144.29L80.48,81.55L80.83,154.48L80.98,126.62L80.99,128.66L81.11,83.32L81.47,153.44L81.74,85.26L81.75,85.55L82.09,151.3L82.5,109.07L82.51,108L82.73,149.9L83.01,89.16L83.26,125.89L83.27,128.79L83.64,91.49L83.98,149.72L84.02,139.65L84.03,141.14L84.32,89.91L84.6,151.24L84.78,114.1L84.79,110.98L84.95,86.45L85.24,152.45L85.54,102.85L85.55,103.12L85.87,152.28L86.22,83.24L86.3,101.27L86.31,102.72L86.5,151.3L86.85,83.35L87.06,123.05L87.07,120.01L87.13,149.98L87.48,83.95L87.74,135.28L87.75,140.32L87.83,148.45L88.12,85.85L88.5,131.61L88.51,129.6L88.74,88.9L89.09,143.94L89.26,114.11L89.27,112.3L89.38,91.88L89.71,143.52L90.06,98.91L90.07,99.98L90.34,145.71L90.61,92.01L90.82,118.85L90.83,117.24L90.97,148.59L91.24,87.9L91.58,147.28L91.59,150.28L91.6,151.75L91.87,84.04L91.93,93.3L91.94,90.16L92.23,153.53L92.51,82.17L92.69,121.82L92.7,124.17L92.86,153.45L93.13,81.52L93.45,127.98L93.46,131.66L93.49,153.02L93.77,82.57L94.21,141.28L94.22,137.25L94.46,83.71L94.75,149.27L94.97,110.77L94.98,110.39L95.44,149.97L95.71,77.51L95.73,82.94L95.74,84.9L96.06,154.43L96.34,73.3L96.49,111.06L96.5,113.22L96.97,70.35L97.32,162.81L97.35,145.47L97.36,143.91L97.39,150.63L97.52,96.96L97.56,97.09L97.57,91.96L97.6,68.71L97.95,164.45L98.32,91.63L98.33,96.74L98.58,164.38L98.86,72.55L99.08,116.2L99.09,117.11L99.2,163.46L99.55,72.81L99.91,155.63L99.91,153.25L100.52,162.08L100.79,70.09L100.85,82.8L100.85,83.35L100.98,124.98L100.99,126.9L101.14,166.46L101.42,68.86L101.74,159.84L101.75,162.41L102.05,68.52L102.4,172.16L102.5,129.37L102.51,126.02L102.67,68.64L102.99,156.53L103,159.81L103.02,172.69L103.3,69.9L103.75,142.14L103.76,138.64L103.93,72.02L104.28,169.58L104.51,94.26L104.52,90.58L104.9,167.04L105.24,71.25L105.27,81.81L105.28,82.25L105.31,80.87L105.41,112.06L105.41,116.17L105.86,70.23L106.21,170.63L106.24,155.91L106.24,153.16L106.48,69.99L106.77,157.29L106.78,157.02L106.79,156.8L106.83,170.46L107.11,71.07L107.54,152.93L107.55,150.18L107.73,72.39L108.09,167.75L108.44,82.66L108.45,83.99L108.71,164.06L108.94,94L108.95,91L109.33,161.71L109.66,78.05L109.7,87.8L109.71,88.15L110.01,159.6L110.29,78.41L110.46,105.67L110.47,109.37L110.63,158.76L110.91,79.83L111.22,149.83L111.23,151L111.26,157.16L111.53,82.32L111.58,89.65L111.59,88.48L111.61,84.39L111.88,154.42L112.34,108.23L112.35,109.97L112.49,152.18L112.85,86.39L113.1,148.53L113.11,149.91L113.19,150.73L113.47,86.88L113.86,138.74L113.87,139.16L114.09,88.72L114.44,147.29L114.62,93.68L114.63,92.86L114.71,91.72L114.97,144.8L115.2,110.75L115.21,109.07L115.25,94.68L115.59,143.32L115.96,100.73L115.97,101.1L116.01,96.77L116.12,119.11L116.13,121.1L116.55,95.76L116.83,143.83L116.88,137.69L116.89,138.55L117.17,94.64L117.45,144.62L117.64,119.4L117.65,118.52L117.79,95.35L118.07,143.94L118.4,96.18L118.41,96.09L118.69,143.33L119.01,93.85L119.16,106.73L119.17,107.09L119.36,144.8L119.54,106.1L119.55,102.69L119.98,146.59L120.25,87.88L120.3,100.68L120.31,100.28L120.6,146.77L120.87,86.34L121.06,115.56L121.07,116.94L121.48,85.22L121.82,149.35L121.83,149.43L122.1,82.85L122.44,152.84L122.58,133.65L122.59,133.92L122.72,81.34L123.07,153.77L123.34,82.79L123.35,82.52L123.68,152.7L124.1,95.22L124.11,97.01L124.29,152.37L124.63,80.37L124.86,130.73L124.87,133.04L125.26,79.68L125.53,155.23L125.62,148.38L125.63,146.55L125.87,80.88L126.14,151.23L126.15,152.43L126.21,153.76L126.37,117.12L126.38,114.43L126.82,156.54L127.09,81.49L127.13,85.94L127.14,85.55L127.44,158.09L127.79,80.44L127.89,98.78L127.9,101.36L128.06,157.33L128.4,81.32L128.65,151.46L128.66,152.8L129.02,81.31L129.35,155.82L129.41,149.46L129.42,148.84L129.63,81.36L129.97,156.42L130.17,93.16L130.18,92.32L130.24,82.23L130.59,156.27L130.93,83.85L130.94,84.19L131.21,154.54L131.69,119.01L131.7,121.2L132.14,85.73L132.5,154.84L132.52,148.32L132.53,146.45L132.76,84.61L133.11,154.78L133.28,100.46L133.29,98.11L133.39,84.79L133.74,152.39L134.04,91.38L134.05,91.8L134.08,90.71L134.16,113.65L134.17,116.02L134.36,147.55L134.67,89.71L134.92,144.5L134.93,145.96L134.95,148.26L135.21,90.12L135.21,89.58L135.29,89.08L135.57,149.25L135.8,99.54L135.81,97.65L135.83,89.04L136.19,147.55L136.56,95.95L136.57,96.53L136.85,145.78L137.12,92.61L137.32,134.16L137.33,135L137.47,146.04L137.75,92.37L138.08,144.8L138.09,144.86L138.37,94.05L138.69,145.4L138.84,105.44L138.85,105.07L139.04,94.64L139.31,146.57L139.6,98.24L139.61,98.94L139.66,96L139.93,145.25L140.36,121.46L140.37,124.08L140.53,143.65L140.79,96.13L141.12,139.92L141.13,141.68L141.15,144.95L141.42,94.42L141.88,112.53L141.89,110.61L142.03,95.11L142.4,142.21L142.64,97.37L142.65,97.76L142.97,142.43L143.24,93.38L143.4,107.24L143.41,109.53L143.59,143.74L143.85,90.88L144.16,138.53L144.17,138.7L144.21,143.54L144.36,111.66L144.37,109.41L144.74,143.85L145.08,86.75L145.12,91.97L145.13,92.27L145.42,145.72L145.69,86.55L145.88,115.52L145.89,116.79L146.3,85.61L146.64,150.4L146.65,150.47L146.92,84.65L147.32,151.75L147.4,130.7L147.41,128.94L147.59,84.34L147.93,154.84L148.16,86.32L148.17,85.2L148.54,157.85L148.81,80.41L148.92,94.07L148.93,95.95L149.17,158.34L149.44,81.57L149.68,143.73L149.69,144.91L150.09,80.88L150.38,157.35L150.44,155.77L150.45,154.62L150.72,79.47L151,158.28L151.2,100.69L151.21,99.56L151.33,79.69L151.55,140.58L151.55,141.79L151.65,159.35L151.85,92.1L151.86,90.95L151.94,79.53L152.12,127.26L152.13,128.8L152.27,160.9L152.56,79.76L152.88,160.04L152.89,159.98L153,124.46L153,122.16L153.5,158.82L153.83,79.02L153.87,90.09L153.88,91.85L154.11,156.63L154.45,81.68L154.63,130.53L154.64,132.28L154.74,152.39L155.05,86.43L155.06,86.21L155.12,91.98L155.12,93.76L155.38,149.92L155.66,88.42L156.03,138.98L156.04,137.49L156.28,91.99L156.6,143.81L156.79,105.55L156.8,104.49L156.94,94.79L157.21,142.57L157.55,98.1L157.56,97.94L157.76,137.43L157.76,138.24L157.83,139.75L157.98,111.41L157.99,110.9L158.13,98.24L158.32,125.48L158.33,126.77L158.76,98.56L159.04,141.47L159.08,130.22L159.09,129.78L159.38,100.24L159.47,117.95L159.48,119.36L159.65,140.65L159.93,100.8L160.3,134.03L160.31,132.89L160.86,142.26L161.06,97.77L161.06,97.82L161.07,98.12L161.47,144.11L161.73,94.54L161.82,98.82L161.83,100.02L162.08,145.49L162.35,92.65L162.58,131.79L162.59,132.46L162.94,91.42L163.29,146.65L163.34,145.63L163.35,145.45L163.56,88.58L163.9,149.25L164.1,98.79L164.11,98.09L164.55,149.89L164.83,84.46L164.86,87.3L164.87,88.19L165.18,152.03L165.46,83.27L165.62,124L165.63,126.06L166.09,84.41L166.38,152.37L166.39,152.36L166.47,138.96L166.47,136.54L166.72,84.31L167,152.29L167.36,89.44L167.37,91.31L167.61,150.15L167.94,85.73L168.12,132.21L168.13,133.8L168.22,149.44L168.53,90.98L168.53,90.07L168.56,86.51L168.79,139.93L168.79,140.75L168.84,148.69L169.07,99L169.07,98.18L169.17,89.77L169.37,132.71L169.37,134.06L169.47,147.66L169.76,89.08L169.81,94.2L169.82,94.35L170.1,146.82L170.38,89.4L170.57,128.87L170.58,129.64L170.99,91.73L171.31,145.75L171.33,142.27L171.34,140.69L171.59,92.23L171.93,144.21L172.09,104.65L172.1,103.78L172.22,93.9L172.51,142.51L172.85,95.07L172.86,95.32L173.13,144.19L173.4,92.48L173.61,128.64L173.62,129.44L174.03,91.36L174.33,148.97L174.37,143.24L174.38,142.61L174.61,88.88L174.95,152.13L175.13,103.32L175.14,101.51L175.57,152.48L175.87,84.83L175.89,86.04L175.9,86.81L176.2,152.16L176.49,83.26L176.65,124.42L176.66,126.1L177.1,83.11L177.43,153.98L177.47,143.34L177.48,141.56L177.71,81.63L178.04,154.59L178.23,96.08L178.24,94.61L178.32,80.69L178.65,154.73L178.99,88.14L179,89.34L179.26,155.38L179.55,81.47L179.75,129.38L179.76,131.05L179.87,155.7L180.18,81.32L180.54,146.42L180.55,144.56L180.79,80.87L181.09,154.46L181.3,101.8L181.31,100.5L181.41,81.63L181.66,146.85L181.67,148.34L181.73,153.62L182.02,82.89L182.42,132.65L182.43,131.08L182.63,84.54L182.96,151.59L183.18,93.54L183.19,92.9L183.24,86.43L183.56,151.08L183.94,99.3L183.95,100.62L184.17,151.28L184.45,86.93L184.7,140.41L184.71,141.73L184.78,151.45L185.06,87.06L185.46,138.57L185.47,136.88L185.68,87.79L185.99,149.9L186.22,101.06L186.23,99.19L186.31,87.79L186.6,149.63L186.98,97.71L186.99,98.1L187.21,149.22L187.53,88.97L187.74,131.32L187.75,132.63L187.83,147.75L188.14,88.99L188.5,141.74L188.51,139.85L188.76,90.27L189.05,146.89L189.26,108.27L189.27,106.91L189.68,146.85L189.96,91.63L190.02,97.16L190.03,97.68L190.29,146.17L190.48,109.49L190.49,108.12L190.58,92.73L190.89,146.2L191.24,97.47L191.25,98.74L191.5,146.34L191.79,93.11L192,120.92L192.01,122.19L192.12,145.08L192.43,93.84L192.76,141.18L192.77,140.69L193.05,93.97L193.34,143.71L193.52,110.51L193.53,109.65L193.95,142.43L194.26,93.74L194.28,96.09L194.29,97.12L194.55,143.22L194.84,94.45L194.85,94.23L195.17,144.46L195.47,92.68L195.6,113.86L195.61,114.75L195.79,145.28L196.08,91.71L196.36,143.48L196.37,144.26L196.69,91.94L197.01,148.06L197.12,120.13L197.13,118.67L197.29,90.23L197.63,149.23L197.88,91.42L197.89,90.46L197.9,89.23L198.24,148.96L198.64,106.29L198.65,107.58L198.84,149.16L199.11,88.97L199.4,140.65L199.41,141.49L199.45,150.45L199.74,88.18L200.16,132.18L200.17,130.57L200.38,87.54L200.68,149.36L200.68,149.36L200.69,149.32L200.8,128.06L200.8,126.74L200.99,87.23L201.29,148.81L201.3,148.81L201.37,138.97L201.37,137.29L201.61,88.04L201.92,148.42L201.93,148.37L202.21,89.14L202.68,116.83L202.69,115.55L202.82,89.83L203.12,147.08L203.13,147.48L203.14,147.92L203.43,90.46L203.88,124.33L203.89,123.27L204.03,91.18L204.36,146.98L204.64,92.02L204.65,92.05L204.78,105.3L204.79,106.55L204.97,146.42L205.26,92.67L205.54,140.13L205.55,141.27L205.58,145.17L205.9,92.69L206.3,128.93L206.31,128.31L206.51,93.03L206.7,126.52L206.71,128.02L206.8,144.66L207.11,92.77L207.46,140.33L207.47,139.25L207.72,91.69L208.01,145.03L208.02,144.91L208.33,90.87L208.62,145.88L208.77,124.41L208.78,122.99L208.94,90.9L209.26,146.49L209.53,91.44L209.54,90.93L209.55,90.56L209.69,110.07L209.7,111.18L209.88,147.1L210.16,90.4L210.45,145.1L210.46,145.7L210.77,90.02L211.1,148.51L211.21,126.49L211.22,125.22L211.38,89.36L211.66,144.28L211.67,145.28L211.7,149.31L211.94,98.68L211.94,97.27L211.99,88.79L212.3,148.95L212.31,149.4L212.31,149.7L212.62,88.31L213.06,126.14L213.07,124.88L213.25,88.12L213.55,148.81L213.82,91.85L213.83,91.27L213.86,88.88L214.16,147.94L214.58,103.21L214.59,104.35L214.79,146.96L215.08,91.09L215.34,142.4L215.35,143.23L215.39,145.93L215.58,111.48L215.58,109.69L215.7,91.98L216,145.6L216.38,97.55L216.38,98.27L216.61,145.43L216.82,106.59L216.83,105.42L217.22,144.46L217.54,92.86L217.58,96.16L217.59,97.01L217.83,144.05L218.16,93.18L218.34,122.66L218.35,124.25L218.44,143.31L218.77,94.29L219.1,140.84L219.11,140.37L219.38,94.88L219.65,141.31L219.86,111.1L219.87,109.8L220.27,141.46L220.59,95.01L220.66,99.34L220.67,100.02L220.88,141.56L221.2,94.32L221.42,128.3L221.43,129.83L221.81,94.23L222.11,142.57L222.18,136.31L222.19,135.59L222.43,94.82L222.73,143.16L222.94,106.11L222.95,105.16L223.35,142.94L223.64,94.73L223.7,97.03L223.71,97.75L223.95,142.51L224.28,93.89L224.46,124.36L224.47,126.21L224.89,93.25L225.17,144.33L225.22,139.65L225.23,139.22L225.5,92.89L225.68,125.02L225.69,126.75L225.78,144.51L226.11,92.55L226.47,137.73L226.48,136.55L226.71,92.05L227,144.15L227.23,103.09L227.24,101.79L227.33,91.98L227.61,144.08L227.62,144.19L227.7,138.26L227.71,137.35L227.93,92.32L228.25,144.74L228.46,102L228.47,101L228.87,144.76L229.16,91.88L229.22,96.1L229.23,96.86L229.47,145.42L229.79,91.76L229.98,128.16L229.99,130.09L230.08,146.14L230.37,91.11L230.74,142.89L230.75,142.45L231.01,90.29L231.3,145.27L231.5,110.07L231.51,108.95L231.63,89.9L231.91,145.38L232.26,91.84L232.27,92.54L232.53,144.94L232.85,91.82L233.02,119.54L233.03,121.48L233.16,144.36L233.46,92.03L233.78,144.12L233.79,144L234.07,92.43L234.38,144.65L234.54,118.8L234.55,117.25L234.67,92.95L235,144.96L235.3,93.83L235.31,94.03L235.46,112.76L235.46,114.43L235.61,144.18L235.92,94.02L236.29,138.31L236.3,137.13L236.54,94.38L236.83,143.35L237.05,102.67L237.06,101.5L237.15,94.75L237.43,142.69L237.44,142.61L237.45,142.45L237.75,94.12L238.04,143.14L238.2,120.61L238.21,118.86L238.66,143.22L238.96,93.76L238.97,93.78L239.29,143.04L239.58,93.31L239.72,108.67L239.73,109.81L239.9,143.17L240.19,93.42L240.48,142.49L240.49,142.88L240.79,93L241.13,144.46L241.24,124.73L241.25,123.42L241.41,92.49L241.72,144.26L241.73,144.44L241.8,138.04L241.81,136.99L242.04,92.52L242.34,145.37L242.56,102.98L242.57,101.78L242.96,145.77L243.27,91.71L243.32,94.91L243.33,95.4L243.58,145.6L243.88,91.34L244.08,129.52L244.09,130.9L244.21,145.52L244.5,91.46L244.84,144.4L244.85,143.8L245.11,92.11L245.43,145.31L245.6,110.4L245.61,108.78L245.71,92.32L246.05,145.18L246.36,93.24L246.37,93.3L246.48,112.04L246.49,113.79L246.65,144.73L246.97,93.16L247.33,138.63L247.34,137.62L247.59,93.4L247.88,143.73L248.09,102.84L248.1,101.72L248.2,93.63L248.46,142.14L248.47,142.58L248.48,143.03L248.82,94.21L249.22,126.24L249.23,124.99L249.42,95.31L249.73,141.68L249.98,98.06L249.99,97.69L250.02,95.99L250.34,141.22L250.74,105.3L250.75,106.41L250.95,141.29L251.23,96.41L251.27,97.19L251.28,97.28L251.41,117.89L251.41,119.37L251.84,96.19L252.16,141.94L252.22,136.26L252.23,135.45L252.48,96.43L252.71,136.11L252.72,136.79L253.11,96.19L253.39,142.61L253.47,133.41L253.48,132.19L253.68,95.87L254.01,142.29L254.23,98.88L254.24,98.24L254.32,95.09L254.47,120.2L254.48,121.73L254.93,94.38L255.22,143.09L255.23,142.57L255.24,142.27L255.54,94.26L255.84,143.11L255.99,117.4L256,115.87L256.46,143.16L256.75,93.37L256.76,93.26L256.88,108.88L256.89,110.23L257.38,93.36L257.69,144.02L257.75,138.12L257.75,137.3L258.02,93.43L258.22,136.19L258.23,137.3L258.3,144.03L258.62,93.34L258.98,136.94L258.99,135.89L259.24,93.24L259.52,143.51L259.74,103.21L259.75,102.32L259.85,93.75L260.14,142.79L260.5,96.17L260.51,96.62L260.74,141.96L261.07,93.89L261.26,129.06L261.27,130.13L261.35,141.81L261.69,94.56L262.02,139.1L262.03,138.36L262.29,95.32L262.6,141.21L262.78,109.35L262.79,108.2L262.9,95.73L263.21,140.87L263.54,96.08L263.55,96.24L263.82,140.83L264.15,95.89L264.3,122.91L264.31,123.89L264.43,140.79L264.72,97.33L264.73,97.06L265.04,140.31L265.37,95.88L265.48,113.14L265.49,114.51L265.65,140.17L265.99,96.17L266.24,138.86L266.25,139.26L266.27,139.91L266.4,119.88L266.41,118.62L266.59,96.81L266.88,139.34L267.16,99.08L267.17,98.69L267.2,96.92L267.48,139.19L267.92,111.46L267.93,112.59L268.11,139.26L268.41,97.35L268.78,134.96L268.78,134.06L269.03,96.88L269.31,139.07L269.32,139.24L269.4,133.67L269.4,132.66L269.66,96.99L269.95,139.91L269.95,139.89L269.96,139.74L270.28,97.16L270.56,139.83L270.71,114.84L270.72,113.73L270.88,97.13L271.18,139.39L271.47,97.37L271.48,97.19L271.49,96.95L271.58,107.49L271.59,108.73L271.78,139.4L272.11,96.91L272.34,136.29L272.35,136.8L272.39,139.62L272.72,97.1L273.1,129.06L273.11,127.94L273.32,96.69L273.61,139.62L273.86,100.86L273.87,100.32L273.93,96.37L274.11,125.01L274.12,126.07L274.54,96.21L274.85,139.92L274.87,139.31L274.88,138.88L275.15,96.22L275.47,140.04L275.63,111.23L275.64,110.19L275.77,96.4L276.08,139.99L276.39,96.55L276.4,96.68L276.57,125.85L276.57,126.92L276.69,139.87L276.97,97.08L276.98,96.79L277.29,140.38L277.62,95.77L277.73,112.05L277.74,113.31L277.91,141.06L278.23,95.22L278.49,139.11L278.5,139.65L278.53,141.18L278.84,94.89L279.25,125.57L279.26,124.32L279.46,94.94L279.76,140.75L280.01,99.53L280.02,98.88L280.08,95.35L280.38,140.67L280.77,105.48L280.78,106.57L281,140.54L281.29,95.62L281.66,135.24L281.67,134.31L281.91,95.84L282.22,140.13L282.42,105.85L282.43,105.05L282.52,96.13L282.84,140.1L283.18,98.05L283.19,98.58L283.45,139.91L283.75,96.33L283.94,126.59L283.95,127.65L284.06,139.62L284.37,96.76L284.38,96.81L284.57,128.49L284.57,129.49L284.68,139.27L284.97,97.27L284.98,97.19L285.08,107.5L285.08,108.48L285.29,138.92L285.59,97.12L285.6,97.19L285.9,138.55L286.2,96.98L286.35,117.16L286.36,118.18L286.5,138.67L286.82,97.07L287.11,138.49L287.12,138.64L287.19,132.79L287.2,131.79L287.42,96.94L287.74,138.83L287.95,104.73L287.96,103.96L288.36,138.84L288.65,96.77L288.71,100.87L288.72,101.56L288.97,138.87L289.27,96.7L289.47,128.92L289.48,129.88L289.87,96.44L290.19,139.77L290.23,137.23L290.24,136.57L290.49,96.17L290.8,140.24L290.99,108.71L291,107.77L291.42,140.59L291.72,95.76L291.75,97.01L291.76,97.43L292.04,140.62L292.34,95.45L292.51,122.5L292.52,123.64L292.96,95.21L293.27,140.77L293.27,140.69L293.28,140.53L293.57,95.17L293.88,140.92L294.03,115.36L294.04,114.26L294.5,140.91L294.79,94.95L294.8,95.05L294.9,106.69L294.9,107.83L295.12,140.71L295.41,94.95L295.42,95.24L295.43,95.49L295.73,140.7L296.02,95.06L296.18,118.14L296.19,119.24L296.34,140.89L296.64,95.38L296.94,140.3L296.95,140.58L296.96,140.76L297.25,95.48L297.7,119.34L297.71,118.19L297.88,95.54L298.18,140.11L298.55,100.49L298.56,101.24L298.79,140.08L299.11,95.81L299.31,129.2L299.32,130.11L299.41,140.07L299.67,98.41L299.68,97.92L300.03,140L300.33,95.82L300.43,107.22L300.44,108.27L300.65,139.95L300.94,95.7L301.19,135.08L301.2,135.91L301.26,140.23L301.48,102.51L301.49,101.66L301.87,140.56L302.17,95.59L302.24,100.98L302.25,101.89L302.49,140.61L302.79,95.58L303,128.15L303.01,129.12L303.1,140.47L303.41,95.49L303.76,137.14L303.77,136.36L304.02,95.43L304.33,140.52L304.52,108.81L304.53,107.78L304.95,140.61L305.25,95.17L305.28,96.43L305.29,96.94L305.56,140.73L305.87,95.04L306.04,121.43L306.05,122.51L306.48,94.81L306.79,141.06L306.8,140.96L306.81,140.78L307.1,94.66L307.41,141.13L307.56,116.25L307.57,115.14L307.71,94.68L308.02,141.16L308.32,94.77L308.33,94.73L308.45,110.63L308.46,111.7L308.64,141.33L308.94,94.74L309.21,138.03L309.22,138.7L309.56,94.83L309.87,141.5L309.97,127.9L309.98,126.74L310.18,95.02L310.49,141.28L310.85,99.36L310.86,100.13L311.1,141L311.41,95.13L311.61,126.22L311.62,127.32L312.03,95.23L312.34,140.9L312.37,139.25L312.38,138.71L312.64,95.36L312.96,140.84L313.13,111.23L313.14,110.1L313.25,95.33L313.57,140.64L313.89,96.13L313.9,96.52L314.19,140.53L314.49,95.45L314.65,118.13L314.66,119.19L314.8,140.7L315.1,95.71L315.41,140.54L315.42,140.65L315.52,127L315.53,125.83L315.71,95.87L316.03,140.28L316.28,99.45L316.29,98.8L316.33,95.98L316.65,139.98L317.04,104.15L317.05,104.98L317.26,140.03L317.57,96.13L317.8,131.71L317.81,132.64L317.88,140L318.18,96.1L318.56,133.8L318.57,132.97L318.8,96.05L319.06,135.68L319.06,136.53L319.11,139.73L319.33,103.76L319.34,102.8L319.42,96.14L319.73,139.8L320.09,100.52L320.1,101.24L320.35,139.77L320.64,96.22L320.85,125.66L320.86,126.69L320.96,139.68L321.26,96.22L321.61,138.06L321.62,137.52L321.88,96.36L322.19,139.65L322.37,111.55L322.38,110.41L322.81,139.69L323.11,96.4L323.17,100.05L323.18,100.81L323.43,139.74L323.73,96.35L323.93,124.97L323.94,126.03L324.35,96.25L324.66,139.95L324.69,138.02L324.7,137.5L324.96,96.08L325.27,139.97L325.45,111.77L325.46,110.71L325.58,95.98L325.89,139.95L326.21,96.2L326.22,96.46L326.5,139.95L326.81,96.1L326.97,116.61L326.98,117.69L327.13,140.02L327.43,96.16L327.73,140.01L327.74,140.08L327.83,131.5L327.83,130.54L328.04,96.08L328.34,139.67L328.35,139.94L328.66,96.01L328.98,140.25L329.1,123.58L329.11,122.5L329.28,96L329.59,140.19L329.86,97.41L329.87,97.06L329.9,96.08L330.21,140L330.62,107.55L330.63,108.58L330.82,139.74L331.14,96.19L331.38,134.17L331.39,135.03L331.44,139.58L331.76,96.42L332.14,132.3L332.15,131.33L332.37,96.68L332.68,139.17L332.9,103.59L332.91,102.8L332.98,96.75L333.22,131.73L333.22,132.72L333.29,138.83L333.58,97.72L333.58,97.42L333.6,96.88L333.74,112.82L333.74,113.78L333.91,138.81L334.21,97.11L334.22,97.08L334.41,123.57L334.42,124.66L334.53,138.94L334.83,97.16L335.17,138.02L335.18,137.63L335.45,97.28L335.77,138.59L335.93,114.11L335.94,113.03L336.07,97.49L336.38,138.46L336.69,97.67L336.7,97.74L336.99,138.43L337.3,97.42L337.45,115.27L337.46,116.29L337.61,138.37L337.91,97.2L338.21,137.97L338.22,138.12L338.31,131.48L338.31,130.68L338.53,97.04L338.8,135.6L338.8,136.22L338.84,138.25L339.04,108.72L339.05,107.62L339.15,96.96L339.46,138.35L339.5,136.75L339.51,136.23L339.77,96.98L340.08,138.48L340.26,111.65L340.27,110.54L340.38,97L340.7,138.52L341.06,100.79L341.07,101.42L341.31,138.64L341.62,97.1L341.82,125.03L341.83,126.18L341.93,138.73L342.23,97.1L342.58,136.95L342.59,136.52L342.85,97.19L343.16,138.44L343.34,113.56L343.35,112.42L343.47,97.32L343.78,138.33L344.1,97.54L344.11,97.73L344.4,138.3L344.7,97.44L344.86,115L344.87,116.02L345.02,138.18L345.32,97.52L345.62,137.86L345.63,137.91L345.72,131.04L345.73,130.2L345.94,97.68L346.25,137.81L346.48,104.35L346.49,103.5L346.56,97.96L346.88,137.66L347.24,101.97L347.25,102.56L347.49,137.46L347.71,105.29L347.72,104.5L347.79,98.35L348.11,137.18L348.47,102.01L348.48,102.56L348.72,137L348.93,108.47L348.94,107.51L349.03,98.66L349.34,136.83L349.69,100.9L349.7,101.41L349.96,136.66L350.26,98.81L350.45,121.86L350.46,122.94L350.58,136.45L350.88,98.89L351.21,136.09L351.22,135.95L351.5,99.1L351.81,136.02L351.97,117.65L351.98,116.59L352.12,99.33L352.44,135.96L352.73,99.45L352.74,99.53L352.94,123.87L352.94,124.81L353.05,135.9L353.35,99.54L353.73,132.33L353.74,131.76L353.97,99.71L354.28,135.66L354.49,108.8L354.5,107.88L354.58,99.76L354.9,135.67L355.25,101.74L355.26,102.18L355.53,135.64L355.72,110.98L355.72,110.06L355.82,99.88L356.14,135.47L356.5,102.75L356.51,103.23L356.76,135.2L357.06,100.3L357.26,123.01L357.27,123.96L357.37,134.94L357.68,100.54L358.02,134.15L358.03,133.93L358.29,100.65L358.61,134.69L358.78,115.8L358.79,114.77L358.91,100.67L359.24,134.64L359.54,100.88L359.55,101.01L359.86,134.43L360.3,113.56L360.31,114.45L360.47,134.14L360.77,101.27L361.06,133.33L361.07,133.58L361.09,133.98L361.21,124L361.22,123.16L361.39,101.35L361.71,133.9L361.97,102.53L361.98,102.26L362.02,101.5L362.17,115.84L362.18,116.73L362.33,133.78L362.64,101.68L362.93,133.53L362.94,133.6L363.04,128.14L363.04,127.45L363.25,101.8L363.52,131.59L363.52,132.03L363.57,133.58L363.75,113.84L363.75,112.92L363.87,101.87L364.19,133.49L364.55,104.53L364.56,104.94L364.81,133.38L365,110.85L365.01,109.97L365.11,102.24L365.43,133.23L365.45,132.74L365.46,132.51L365.73,102.43L366.04,133.12L366.21,116.07L366.22,115.12L366.34,102.51L366.67,133.04L366.97,102.55L366.98,102.59L367.14,118.8L367.15,119.69L367.3,132.97L367.59,102.58L367.97,130.35L367.98,129.83L368.22,102.74L368.45,127.86L368.46,128.46L368.53,132.75L368.84,102.96L369.21,130.64L369.22,130.18L369.45,103.14L369.78,132.45L369.97,110.12L369.98,109.32L370.08,103.19L370.4,132.45L370.73,103.94L370.74,104.17L371.02,132.6L371.32,103.23L371.49,118.34L371.5,119.13L371.64,132.67L371.95,103.4L372.25,132.47L372.26,132.58L372.36,125.06L372.37,124.31L372.56,103.55L372.88,132.5L373.12,106.27L373.13,105.82L373.19,103.64L373.51,132.38L373.88,106.17L373.89,106.62L374.13,132.26L374.44,103.77L374.64,123.64L374.65,124.38L375.06,103.77L375.38,132.29L375.4,131.6L375.41,131.32L375.68,103.81L375.86,120.78L375.87,121.57L376,132.34L376.31,103.89L376.34,104.48L376.35,104.7L376.62,132.33L376.93,103.96L377.1,119.31L377.11,120.08L377.25,132.29L377.55,103.93L377.86,132.29L377.87,132.24L378.04,113.88L378.04,113.13L378.48,132.26L378.8,103.72L378.86,105.72L378.86,106.08L379.11,132.29L379.31,110.93L379.31,110.3L379.43,103.61L379.71,132.11L379.72,132.23L379.82,127.17L379.82,126.54L380.05,103.58L380.35,132.46L380.36,132.47L380.59,107.37L380.59,106.91L380.67,103.5L380.88,126.21L380.89,126.88L381.29,103.39L381.6,132.57L381.64,131.29L381.65,130.93L381.91,103.22L382.23,132.66L382.4,113.18L382.41,112.44L382.85,132.85L383.16,102.89L383.17,102.9L383.44,132.22L383.44,132.49L383.47,133.03L383.59,122.11L383.59,121.23L384.09,133.15L384.41,102.46L384.46,104.73L384.47,105.22L384.72,133.27L385.03,102.19L385.22,124.69L385.23,125.43L385.33,133.43L385.64,102.03L385.65,101.95L385.78,113.57L385.78,114.43L386.27,101.76L386.58,133.7L386.64,130.4L386.65,129.81L386.89,101.62L387.15,131.47L387.15,131.9L387.2,133.83L387.38,113.03L387.39,112.2L387.83,133.98L388.14,101.32L388.15,101.34L388.35,126.26L388.35,127.02L388.45,134.16L388.72,102.52L388.73,102.19L389.07,134.31L389.39,100.97L389.48,108.94L389.49,109.77L389.69,134.45L390.01,100.84L390.02,100.89L390.21,125.05L390.21,125.87L390.31,134.55L390.61,101.06L390.62,100.93L390.63,100.75L390.75,111.72L390.75,112.63L390.94,134.62L391.25,100.7L391.3,102.81L391.31,103.24L391.57,134.73L391.87,100.55L392.06,123.65L392.07,124.47L392.49,100.36L392.81,135.16L392.82,135.03L392.83,134.93L393.12,100.24L393.44,135.25L393.58,117.69L393.59,116.73L393.74,100.29L394.06,135.2L394.34,100.92L394.35,100.78L394.37,100.43L394.68,135.05L395.1,110.7L395.11,111.56L395.31,134.93L395.61,100.63L395.99,131.88L395.99,131.29L396.24,100.73L396.49,131.52L396.5,132.02L396.55,134.73L396.86,100.77L397.25,130.09L397.26,129.37L397.49,100.89L397.8,134.53L398.01,107.85L398.02,107.2L398.11,101.06L398.38,132L398.38,132.46L398.43,134.36L398.59,114.79L398.6,113.91L398.74,101.3L399.06,134.14L399.07,133.95L399.08,133.82L399.36,101.58L399.68,133.88L399.83,117.69L399.84,116.84L399.99,101.88L400.31,133.62L400.59,102.54L400.6,102.37L400.62,102.16L400.75,113.86L400.76,114.65L400.94,133.32L401.24,102.4L401.51,130.68L401.52,131.07L401.57,133L401.87,102.72L402.27,127.53L402.28,126.83L402.5,103.22L402.79,131.44L402.8,131.64L402.83,132.08L402.95,120.68L402.96,119.88L403.13,103.75L403.46,131.62L403.71,105.84L403.72,105.53L403.76,104.18L404.08,131.3L404.47,107.94L404.48,108.4L404.72,131.13L404.98,106.08L404.98,105.76L405.03,104.58L405.19,117.69L405.2,118.42L405.35,131.02L405.67,104.69L405.95,130.19L405.96,130.44L405.99,130.88L406.16,114.16L406.17,113.53L406.3,104.83L406.62,130.84L406.92,104.95L406.93,104.94L407.05,113.35L407.06,114L407.25,130.81L407.57,104.9L407.94,128.66L407.94,128.18L408.2,104.9L408.45,127.3L408.45,127.76L408.52,130.82L408.76,108.2L408.76,107.73L408.84,104.82L409.05,124.81L409.06,125.36L409.46,104.58L409.79,131.32L409.81,130.68L409.82,130.4L410.1,104.25L410.42,131.71L410.57,117.48L410.58,116.77L410.73,103.92L411.05,132.07L411.33,104.42L411.34,104.2L411.68,132.48L412,103.17L412.09,108.9L412.1,109.53L412.32,132.92L412.59,103.84L412.6,103.55L412.95,133.35L413.27,102.19L413.35,107.7L413.36,108.34L413.58,133.78L413.89,101.75L414.11,126.14L414.12,126.9L414.53,101.35L414.84,134.49L414.87,133.22L414.88,132.84L415.16,101.01L415.36,124.42L415.36,125.21L415.47,134.72L415.78,100.74L415.79,100.73L415.92,113.12L415.92,113.99L416.1,134.99L416.4,100.57L416.41,100.5L416.54,111.99L416.54,112.81L416.73,135.16L417.04,100.34L417.05,100.35L417.22,120.45L417.23,121.33L417.36,135.23L417.67,100.33L417.98,135.01L417.99,135.11L418.12,122.03L418.13,121.09L418.31,100.51L418.62,135.02L418.88,102.87L418.89,102.46L418.93,100.71L419.25,134.87L419.64,105.61L419.65,106.21L419.89,134.68L420.19,101.13L420.4,124.74L420.41,125.53L420.52,134.4L420.83,101.51L421.16,133.84L421.17,133.71L421.46,102L421.92,119.25L421.93,118.38L422.09,102.58L422.41,132.75L422.68,104.37L422.69,104.08L422.73,103.18L422.87,116L422.88,116.71L423.05,132.12L423.36,103.82L423.63,129.38L423.64,129.78L423.69,131.44L424,104.6L424.39,126.97L424.4,126.44L424.63,105.45L424.96,129.66L425.15,113.36L425.16,112.82L425.26,106.36L425.6,128.85L425.91,107.16L425.92,107.14L426.08,117.57L426.09,118.14L426.24,128.15L426.56,107.76L426.84,126.3L426.85,126.58L426.88,127.67L427.22,108.08L427.6,125.58L427.61,125.24L427.87,108.05L428.19,127.56L428.36,115.81L428.37,115.36L428.51,107.83L428.84,127.95L429.12,107.95L429.13,107.78L429.47,128.55L429.8,106.73L429.88,109.63L429.89,110L430.12,129.33L430.44,105.88L430.64,120.93L430.65,121.57L431.09,104.97L431.4,131.04L431.41,131.05L431.54,121.08L431.55,120.41L431.73,104.03L432.05,131.97L432.3,106.04L432.31,105.61L432.69,132.95L433.01,102.18L433.06,104.34L433.07,104.77L433.33,133.75L433.64,101.49L433.82,119.88L433.83,120.72L434.28,101.05L434.58,134.35L434.59,134.55L434.6,134.74L434.72,123.29L434.73,122.43L434.92,100.76L435.24,135.02L435.48,104.8L435.49,104.2L435.87,135.15L436.19,100.54L436.24,103.09L436.25,103.6L436.51,135.07L436.82,100.72L437,119.81L437.01,120.65L437.14,134.77L437.46,101.06L437.76,133.91L437.77,134.08L437.78,134.34L437.91,122.63L437.91,121.8L438.1,101.58L438.42,133.69L438.45,132.66L438.46,132.31L438.74,102.3L438.93,121.17L438.93,121.95L439.06,132.9L439.37,103.14L439.38,103.21L439.39,103.29L439.7,131.96L439.86,116.3L439.87,115.57L440.02,104.08L440.34,131L440.62,105.6L440.63,105.43L440.66,105.02L440.98,130.07L441.38,109.32L441.39,109.76L441.63,129.2L441.95,106.55L442.14,120.5L442.15,121.05L442.28,128.55L442.6,107.16L442.9,127.79L442.91,127.88L443.03,122.15L443.03,121.67L443.24,107.64L443.57,127.5L443.57,127.5L443.58,127.48L443.89,107.98L444.07,118.26L444.07,118.72L444.22,127.28L444.54,108.06L444.57,108.54L444.58,108.69L444.87,127.32L445.19,107.88L445.33,114.98L445.34,115.46L445.52,127.67L445.84,107.52L446.09,125.24L446.1,125.65L446.48,107.03L446.82,128.82L446.85,127.99L446.86,127.74L447.13,106.57L447.45,129.37L447.61,117.44L447.62,116.83L447.77,106.1L448.09,129.81L448.37,106.63L448.38,106.39L448.74,130.15L449.06,105.48L449.13,108.08L449.14,108.45L449.38,130.36L449.7,105.27L449.89,120.72L449.9,121.42L450.34,105.06L450.65,130.68L450.66,130.73L450.79,121.46L450.8,120.77L450.98,104.88L451.3,130.86L451.55,107.45L451.56,107.08L451.94,130.92L452.26,104.7L452.31,106.07L452.32,106.37L452.58,130.93L452.9,104.69L453.07,117.97L453.08,118.65L453.22,130.81L453.55,104.84L453.83,129.6L453.84,129.84L453.86,130.46L454.19,105.12L454.59,126.05L454.6,125.58L454.83,105.42L455.11,128.8L455.12,129.03L455.16,129.79L455.32,117.16L455.33,116.51L455.48,105.65L455.8,129.62L456.08,106.54L456.09,106.33L456.12,105.79L456.27,115.84L456.28,116.45L456.45,129.55L456.76,105.85L456.79,106.21L456.8,106.38L456.98,123.12L456.99,123.7L457.09,129.6L457.38,106.34L457.39,106.2L457.74,129.75L458.06,105.63L458.14,109.04L458.15,109.46L458.38,130.03L458.71,105.29L458.9,121.61L458.91,122.25L459.36,104.79L459.66,130.92L459.67,131.03L459.8,121.45L459.81,120.73L460,104.22L460.32,131.59L460.56,107.36L460.57,106.92L460.96,131.99L461.28,103.46L461.32,104.47L461.33,104.77L461.6,132.24L461.92,103.22L462.08,117.69L462.09,118.49L462.24,132.48L462.56,102.93L462.84,131.7L462.85,132L463.2,102.7L463.52,132.91L463.6,128.18L463.61,127.6L463.84,102.57L464.17,132.94L464.36,111.39L464.37,110.67L464.48,102.57L464.8,132.83L465.12,102.7L465.13,102.77L465.34,125.1L465.34,125.79L465.44,132.65L465.73,103.62L465.73,103.44L465.76,102.91L465.92,116.61L465.92,117.35L466.08,132.28L466.4,103.35L466.77,130.03L466.78,129.63L467.04,103.87L467.36,131.22L467.53,116.32L467.54,115.6L467.68,104.47L468,130.58L468.29,105.42L468.3,105.29L468.32,105.08L468.46,114.66L468.47,115.3L468.64,129.93L468.96,105.71L469.22,126.8L469.23,127.15L469.29,129.29L469.61,106.29L469.98,127.55L469.99,127.26L470.26,106.81L470.58,128.13L470.74,117.03L470.75,116.45L470.9,107.37L471.23,127.6L471.24,127.52L471.43,113.66L471.43,113.18L471.54,107.91L471.87,127.12L471.88,127.13L472.1,111.87L472.1,111.45L472.19,108.41L472.45,124.1L472.45,124.44L472.52,126.78L472.76,111.22L472.77,110.88L472.84,108.81L473.17,126.54L473.52,109.46L473.53,109.59L473.82,126.46L474.05,112.11L474.06,111.78L474.47,126.57L474.8,108.98L474.81,109.09L474.82,109.16L475.12,126.81L475.3,115.61L475.31,115.16L475.44,108.72L475.77,127.05L476.06,108.88L476.07,108.77L476.1,108.43L476.28,119.13L476.28,119.66L476.42,127.3L476.74,108.1L476.75,108.13L476.76,108.21L477,125.83L477.01,126.14L477.39,107.73L477.71,127.9L477.76,126.51L477.77,126.23L478.03,107.43L478.35,128.09L478.52,116.83L478.53,116.29L478.68,107.22L479,128.25L479.28,107.9L479.29,107.74L479.64,128.45L479.97,106.89L480.04,109.53L480.05,109.94L480.29,128.65L480.52,110.29L480.53,109.9L480.93,128.87L481.26,106.55L481.28,106.85L481.29,106.98L481.58,129.04L481.9,106.42L482.04,115.81L482.05,116.41L482.22,129.09L482.54,106.36L482.8,127.19L482.81,127.5L482.86,129.03L483.18,106.41L483.56,127.11L483.57,126.79L483.83,106.53L484.15,128.72L484.32,116.22L484.33,115.66L484.47,106.66L484.8,128.57L485.08,107.25L485.09,107.13L485.11,106.82L485.28,118.45L485.29,119.03L485.44,128.42L485.76,107.01L485.8,107.8L485.81,108.01L486.08,128.22L486.4,107.21L486.56,117.43L486.57,118.03L486.72,128.04L487.05,107.46L487.32,126.67L487.33,126.93L487.37,127.81L487.69,107.72L488.08,125.4L488.09,125.06L488.34,108.08L488.66,127.09L488.84,115.88L488.85,115.42L488.99,108.47L489.31,126.65L489.6,109.19L489.61,109.06L489.64,108.77L489.8,118.09L489.81,118.59L489.96,126.35L490.29,108.94L490.32,109.31L490.33,109.42L490.61,126.15L490.94,109.06L491.08,116.47L491.09,116.94L491.26,126.07L491.58,109.11L491.84,124.22L491.85,124.5L492.24,109L492.56,126.37L492.6,125.66L492.61,125.44L492.89,108.76L493.21,126.71L493.36,118.45L493.37,117.97L493.54,108.46L493.86,127.02L494.12,109.82L494.13,109.59L494.19,108.17L494.4,121.72L494.4,122.2L494.51,127.36L494.79,108.72L494.8,108.5L495.15,127.81L495.48,107.24L495.55,109.58L495.56,109.98L495.8,128.3L496.03,111.08L496.04,110.69L496.44,128.75L496.77,106.3L496.79,106.45L496.8,106.55L497.09,129.16L497.42,105.89L497.55,114.89L497.56,115.48L497.73,129.54L498.06,105.55L498.07,105.59L498.24,119.99L498.25,120.61L498.71,105.23L499,129.93L499.01,130.08L499.03,130.24L499.16,120.53L499.16,119.91L499.35,104.99L499.66,130.51L499.69,130.16L499.7,130L499.99,104.82L500.31,130.67L500.45,119.6L500.46,118.94L500.64,104.75L500.95,130.67L500.96,130.63L500.97,130.52L501.28,104.77L501.46,119.63L501.46,120.32L501.6,130.62L501.92,104.84L501.93,104.88L501.94,104.97L502.24,130.56L502.41,116.6L502.42,115.94L502.57,104.83L502.89,130.56L503.17,105.66L503.18,105.42L503.21,104.79L503.35,114.97L503.36,115.65L503.53,130.61L503.85,104.76L504.11,127.86L504.12,128.26L504.5,104.75L504.82,130.64L504.87,129.18L504.88,128.85L505.15,104.74L505.47,130.7L505.63,117.98L505.64,117.31L505.79,104.66L506.12,130.81L506.39,106.03L506.4,105.71L506.76,130.94L507.09,104.39L507.15,106.51L507.16,106.88L507.41,131.18L507.74,104.13L507.91,118.95L507.92,119.7L508.06,131.49L508.39,103.79L508.67,131.01L508.68,131.25L509.03,103.43L509.35,132.18L509.43,127.09L509.44,126.49L509.67,103.1L509.94,130.81L509.95,131.15L510.32,102.76L510.63,132.83L510.7,129.67L510.71,129.14L510.96,102.42L511.28,133.11L511.46,114.59L511.47,113.83L511.61,102.24L511.92,133.19L512.22,102.83L512.23,102.63L512.25,102.24L512.57,133.15L512.98,108.01L512.99,108.66L513.21,133.15L513.53,102.24L513.74,124.37L513.75,125.1L513.85,133.13L514.18,102.29L514.5,133.02L514.51,132.98L514.73,108.01L514.73,107.38L514.82,102.42L515.06,128L515.07,128.57L515.14,132.85L515.47,102.62L515.82,131.58L515.83,131.27L516.11,102.84L516.43,132.4L516.58,118.82L516.59,118.03L516.76,103.09L517.08,132.12L517.34,105.74L517.35,105.34L517.41,103.4L517.73,131.87L518.1,105.29L518.11,105.66L518.37,131.64L518.7,103.87L518.86,117.98L518.87,118.7L519.02,131.51L519.34,103.97L519.37,104.5L519.38,104.71L519.67,131.45L519.99,104L520.13,114.44L520.14,115.16L520.32,131.49L520.64,103.93L520.89,128.23L520.9,128.69L521.29,103.75L521.61,131.79L521.65,130.65L521.66,130.36L521.93,103.51L522.26,132.04L522.41,118.05L522.42,117.28L522.58,103.25L522.9,132.29L523.17,105.02L523.18,104.64L523.55,132.51L523.87,102.8L523.93,104.94L523.94,105.38L524.19,132.65L524.52,102.7L524.69,119L524.7,119.78L524.84,132.71L525.16,102.66L525.45,132.12L525.46,132.32L525.48,132.73L525.61,122.88L525.61,122.11L525.81,102.58L526.12,132.76L526.13,132.81L526.31,114.88L526.31,114.11L526.45,102.55L526.77,132.83L526.78,132.74L526.79,132.63L527.09,102.59L527.42,132.76L527.54,122.45L527.55,121.7L527.74,102.74L528.06,132.54L528.3,107.3L528.31,106.8L528.38,103.01L528.71,132.28L529.06,104.19L529.07,104.49L529.35,131.96L529.68,103.77L529.82,115.7L529.83,116.44L529.99,131.59L530.32,104.22L530.58,128.69L530.59,129.07L530.64,131.17L530.97,104.6L531.34,129.08L531.35,128.75L531.62,104.83L531.94,130.43L532.1,116.59L532.11,115.92L532.27,104.96L532.58,130.06L532.58,130.06L532.59,130.02L532.81,110.76L532.81,110.22L532.92,105.11L533.21,129.54L533.22,129.58L533.38,119.28L533.39,118.49L533.57,105.46L533.87,128.86L534.14,108.89L534.15,108.6L534.22,106.11L534.52,127.74L534.9,108.37L534.91,108.65L535.23,126.87L535.52,108.04L535.66,115.03L535.67,115.27L535.88,126.08L536.09,112.04L536.1,111.77L536.17,108.9L536.53,125.36L536.85,110.16L536.86,110.33L537.18,124.71L537.38,113.8L537.39,113.44L537.48,110.28L537.83,124.08L538.14,111.03L538.15,111.11L538.48,123.42L538.72,113.07L538.73,112.93L538.78,111.55L539.13,122.75L539.48,112.9L539.49,112.97L539.78,122.09L540.03,113.59L540.04,113.47L540.08,112.88L540.39,121.56L540.4,121.54L540.41,121.49L540.61,115.8L540.62,115.6L540.73,113.55L541.03,120.93L541.37,114.24L541.38,114.23L541.68,120.28L541.92,115.84L541.93,115.73L542.02,114.89L542.32,119.71L542.68,115.53L542.69,115.59L542.96,119.26L543.61,118.91L543.62,118.91L543.91,116.12L544,116.62"
                 style="vector-effect: non-scaling-stroke; fill: none; stroke: rgb(211, 211, 211); stroke-opacity: 1; stroke-width: 0.5px; opacity: 1;"
                 id="path61" />
            </g>
            <g
               class="points"
               id="g65" />
            <g
               class="text"
               id="g67" />
          </g>
          <g
             class="trace scatter trace8e7a0e"
             style="stroke-miterlimit: 2; opacity: 1;"
             id="g85">
            <g
               class="fills"
               id="g71" />
            <g
               class="errorbars"
               id="g73" />
            <g
               class="lines"
               id="g79">
              <path
                 class="js-line"
                 d="M0,32.41L4.7,33.47L4.7,33.48L9.14,35.74L9.14,35.75L13.57,39.32L13.57,39.36L15.06,43.81L15.07,43.82L17.17,46.37L17.17,46.37L17.18,46.37L18.65,47.94L18.66,47.95L21.89,50.93L21.89,50.93L21.9,50.93L28.65,54.78L28.65,54.78L28.66,54.78L32.69,55.22L32.69,55.23L38.3,57.81L38.31,57.81L40.63,58.28L40.64,58.28L45.27,58.43L45.27,58.43L45.28,58.44L51.22,59.79L51.23,59.79L56.05,60.64L56.05,60.65L59.2,61.97L59.2,61.96L62.55,62.12L62.55,62.12L62.56,62.13L67.3,66.31L67.3,66.32L71.28,70.21L71.29,70.22L75.42,75.4L75.42,75.41L78.34,79.39L78.34,79.4L83.69,86.28L83.69,86.28L83.7,86.28L85.66,86.85L85.66,86.85L85.67,86.85L89.92,85.82L89.92,85.81L92,83.66L92,83.65L95.42,78.4L95.42,78.39L99.72,71.44L99.73,71.44L102.47,68.41L102.47,68.41L102.48,68.41L104.06,68.76L104.07,68.77L106.8,71.56L106.8,71.56L106.81,71.57L109.58,77.48L109.58,77.49L112.79,83.51L112.8,83.52L116.39,88.02L116.39,88.02L116.4,88.02L119.07,88.52L119.07,88.52L119.08,88.52L121.48,86.83L121.48,86.83L121.49,86.82L127.22,81.65L127.23,81.65L129.08,81.38L129.08,81.38L129.09,81.38L130.68,82.23L130.68,82.23L130.69,82.24L133.5,85.55L133.5,85.56L138.34,90.45L138.34,90.45L138.35,90.45L141.04,90.61L141.04,90.61L141.05,90.6L143.53,88.2L143.54,88.19L147.82,83.72L147.82,83.72L147.83,83.72L150.85,83.68L150.85,83.69L153.88,85.27L153.88,85.28L160.65,89.5L160.65,89.5L160.66,89.51L163.86,91.21L163.86,91.21L163.87,91.21L165.99,90.87L165.99,90.87L166,90.86L168.18,88.94L168.18,88.94L168.19,88.93L172.34,85.5L172.34,85.5L172.35,85.5L175.99,84.82L175.99,84.82L176,84.82L180.78,83.76L180.78,83.76L180.79,83.75L183.79,84.28L183.79,84.29L186.38,86.41L186.38,86.42L189.72,89.27L189.72,89.27L189.73,89.27L193,90.07L193.01,90.07L199.93,89.79L199.93,89.78L199.94,89.78L208.47,88.74L208.47,88.75L219.77,91.86L219.77,91.86L219.78,91.86L225.77,92.35L225.77,92.34L234.31,91.39L234.31,91.4L242.33,92.07L242.33,92.07L242.34,92.08L249.15,92.7L249.15,92.7L249.16,92.7L253.23,93.17L253.23,93.18L253.24,93.18L267.86,95.73L267.86,95.73L267.87,95.74L272.55,95.92L272.55,95.92L272.56,95.92L280.37,95.63L280.37,95.63L280.38,95.63L291.65,95.63L291.65,95.63L291.66,95.63L312.04,94.74L312.04,94.74L312.05,94.74L347.3,97.83L347.3,97.83L347.31,97.84L354.39,99.53L354.39,99.54L368.92,102.64L368.92,102.64L368.93,102.64L378.14,103.13L378.14,103.13L378.15,103.13L384.87,101.94L384.87,101.94L384.88,101.93L394.74,100.5L394.74,100.5L394.75,100.5L399.68,101.91L399.68,101.91L399.69,101.92L406.89,103.63L406.89,103.63L406.9,103.62L410.64,102.87L410.64,102.87L410.65,102.86L417.09,101.42L417.09,101.42L417.1,101.42L421.52,103.06L421.52,103.06L421.53,103.07L426.79,104.54L426.79,104.54L426.8,104.54L431.75,103.79L431.75,103.78L439.16,103.51L439.16,103.51L439.17,103.52L443.37,104.83L443.37,104.84L449.07,106.32L449.07,106.32L449.08,106.32L452.63,105.57L452.63,105.56L460.45,103.58L460.45,103.58L460.46,103.58L465.36,104.33L465.36,104.33L465.37,104.34L477.96,107.5L477.96,107.5L477.97,107.5L495.93,106.95L495.93,106.94L501.45,105.08L501.45,105.08L501.46,105.07L507.58,103.26L507.58,103.26L507.59,103.26L517.95,102.63L517.95,102.63L517.96,102.63L525.66,102.86L525.67,102.87L529.72,103.89L529.72,103.9L534.13,106.59L534.13,106.6L538.75,110.99L538.75,111L542.68,115.99L542.68,116L544,117.93"
                 style="vector-effect: non-scaling-stroke; fill: none; stroke: rgb(0, 0, 0); stroke-opacity: 1; stroke-width: 1px; opacity: 1;"
                 id="path75" />
              <path
                 class="js-line"
                 d="M0,202.59L4.7,201.53L4.7,201.52L9.14,199.26L9.14,199.25L13.57,195.68L13.57,195.64L15.06,191.19L15.07,191.18L17.17,188.63L17.17,188.63L17.18,188.63L18.65,187.06L18.66,187.05L21.75,184.16L21.76,184.16L28.3,180.22L28.3,180.23L28.31,180.23L32.17,179.99L32.18,179.98L36.81,177.99L36.81,177.99L36.82,177.98L40.76,176.73L40.77,176.73L45.27,176.57L45.27,176.57L45.28,176.56L51.22,175.21L51.23,175.21L56.05,174.36L56.05,174.35L59.2,173.03L59.2,173.04L62.55,172.88L62.55,172.88L62.56,172.87L67.3,168.69L67.3,168.68L71.28,164.79L71.29,164.78L75.42,159.6L75.42,159.59L78.34,155.61L78.34,155.6L83.69,148.72L83.69,148.72L83.7,148.72L85.66,148.15L85.66,148.15L85.67,148.15L89.92,149.18L89.92,149.19L92,151.34L92,151.35L95.42,156.6L95.42,156.61L99.72,163.56L99.73,163.56L102.47,166.59L102.47,166.59L102.48,166.59L104.06,166.24L104.07,166.23L106.8,163.44L106.8,163.44L106.81,163.43L109.58,157.52L109.58,157.51L112.79,151.49L112.8,151.48L116.39,146.98L116.39,146.98L116.4,146.98L119.07,146.48L119.07,146.48L119.08,146.48L121.48,148.17L121.48,148.17L121.49,148.18L127.22,153.35L127.23,153.35L129.08,153.62L129.08,153.62L129.09,153.62L130.68,152.77L130.68,152.77L130.69,152.76L133.5,149.45L133.5,149.44L138.34,144.55L138.34,144.55L138.35,144.55L141.04,144.39L141.04,144.39L141.05,144.4L143.53,146.8L143.54,146.81L147.82,151.28L147.82,151.28L147.83,151.28L150.85,151.32L150.85,151.31L153.88,149.73L153.88,149.72L160.65,145.5L160.65,145.5L160.66,145.49L164.18,143.74L164.18,143.74L164.19,143.74L166.36,144.33L166.36,144.34L173.59,149.86L173.59,149.86L173.6,149.86L183.48,150.86L183.48,150.86L183.49,150.85L186.38,148.59L186.38,148.58L189.72,145.73L189.72,145.73L189.73,145.73L193,144.93L193.01,144.93L199.93,145.21L199.93,145.22L199.94,145.22L208.47,146.26L208.47,146.25L219.77,143.14L219.77,143.14L219.78,143.14L225.77,142.65L225.77,142.66L234.31,143.61L234.31,143.6L242.33,142.93L242.33,142.93L242.34,142.92L249.15,142.3L249.15,142.3L249.16,142.3L253.23,141.83L253.23,141.82L253.24,141.82L267.86,139.27L267.86,139.27L267.87,139.26L272.55,139.08L272.55,139.08L272.56,139.08L280.37,139.37L280.37,139.37L280.38,139.37L291.65,139.37L291.65,139.37L291.66,139.37L312.04,140.26L312.04,140.26L312.05,140.26L347.3,137.17L347.3,137.17L347.31,137.16L354.39,135.47L354.39,135.46L368.92,132.36L368.92,132.36L368.93,132.36L378.14,131.87L378.14,131.87L378.15,131.87L384.87,133.06L384.87,133.06L384.88,133.07L394.74,134.5L394.74,134.5L394.75,134.5L399.68,133.09L399.68,133.09L399.69,133.08L406.89,131.37L406.89,131.37L406.9,131.38L410.64,132.13L410.64,132.13L410.65,132.14L417.09,133.58L417.09,133.58L417.1,133.58L421.52,131.94L421.52,131.94L421.53,131.93L426.79,130.46L426.79,130.46L426.8,130.46L431.75,131.21L431.75,131.22L439.16,131.49L439.16,131.49L439.17,131.48L443.37,130.17L443.37,130.16L449.07,128.68L449.07,128.68L449.08,128.68L452.63,129.43L452.63,129.44L460.45,131.42L460.45,131.42L460.46,131.42L465.36,130.67L465.36,130.67L465.37,130.66L477.96,127.5L477.96,127.5L477.97,127.5L495.89,128.04L495.89,128.05L501.45,129.92L501.45,129.92L501.46,129.93L507.58,131.74L507.58,131.74L507.59,131.74L517.95,132.37L517.95,132.37L517.96,132.37L525.66,132.14L525.67,132.13L529.72,131.11L529.72,131.1L534.13,128.41L534.13,128.4L538.75,124.01L538.75,124L542.68,119.01L542.68,119L544,117.07"
                 style="vector-effect: non-scaling-stroke; fill: none; stroke: rgb(0, 0, 0); stroke-opacity: 1; stroke-width: 1px; opacity: 1;"
                 id="path77" />
            </g>
            <g
               class="points"
               id="g81" />
            <g
               class="text"
               id="g83" />
          </g>
          <g
             class="trace scatter trace933ddd"
             style="stroke-miterlimit: 2; opacity: 1;"
             id="g99">
            <g
               class="fills"
               id="g87" />
            <g
               class="errorbars"
               id="g89" />
            <g
               class="lines"
               id="g93">
              <path
                 class="js-line"
                 d="M0.18,99.09L0.59,33.88L1.46,39.15L2.1,34.15L2.74,36.52L3.38,40.76L4.01,39.41L4.56,39.43L5.2,36.15L7.1,31.82L7.74,29.73L9.66,28.22L10.29,28.14L11.57,36.93L12.2,43.96L13.71,50.27L14.35,49.97L14.98,49.47L15.54,50.04L16.18,49.1L16.81,48.94L17.45,49.67L18.08,49.61L18.72,51.94L20,54.43L20.64,53.81L21.27,53.65L21.91,54.59L23.97,55.67L24.6,54.93L27.16,52.18L27.79,54.06L29.06,58.63L29.7,62.01L31.06,64.64L31.69,63.5L33.6,63.24L34.24,63.07L36.22,60.5L36.86,59.35L38.77,58.01L39.41,57.15L41.95,64.52L42.59,68.15L43.3,69.85L44.01,68.71L46.55,61.56L47.19,63.07L48.46,66.3L49.1,66.16L51.71,68.16L52.34,65.27L53.61,62.28L54.24,62.31L55.51,62.78L56.15,63.53L57.42,66.91L58.13,69.08L58.76,68.8L59.39,66.86L60.03,60.09L60.67,61.36L64.53,70.77L65.16,69.47L66.43,67.5L67.06,67.95L68.33,67.36L68.96,68.75L70.31,65.6L70.94,66.31L72.84,71.85L73.47,74.93L75.36,82.75L76.06,82.25L77.95,80.14L78.58,79.99L79.85,80.3L80.48,81.55L83.64,91.49L84.32,89.91L86.22,83.24L86.85,83.35L87.48,83.95L88.12,85.85L90,94.06L90.61,92.01L92.51,82.17L93.13,81.52L94.46,83.71L95.09,81.21L97.6,68.71L98.23,69.92L99.55,72.81L100.17,71.97L102.05,68.52L102.67,68.64L104.61,72.45L105.24,71.25L106.48,69.99L107.11,71.07L108.36,75.44L109.04,79.49L109.66,78.05L110.29,78.41L110.91,79.83L112.85,86.39L113.47,86.88L114.71,91.72L115.25,94.68L115.87,96.67L116.55,95.76L117.17,94.64L117.79,95.35L118.41,96.09L119.01,93.85L120.87,86.34L121.48,85.22L122.72,81.34L123.35,82.52L124.01,82.96L124.63,80.37L125.26,79.68L125.87,80.88L126.48,82.8L127.16,81.36L127.79,80.44L128.4,81.32L129.63,81.36L130.24,82.23L132.14,85.73L132.76,84.61L133.39,84.79L134.01,88.08L134.67,89.71L135.29,89.08L135.83,89.04L136.46,91.72L139.66,96L140.12,97.01L141.42,94.42L142.03,95.11L142.61,96.23L143.24,93.38L145.08,86.75L145.69,86.55L147.59,84.34L148.2,81.75L148.81,80.41L149.44,81.57L151.33,79.69L151.94,79.53L153.21,79.89L153.83,79.02L158.13,98.24L158.76,98.56L159.93,100.8L160.58,100.36L162.35,92.65L162.94,91.42L165.46,83.27L166.09,84.41L166.72,84.31L167.34,85.29L168.56,86.51L169.17,89.77L170.38,89.4L170.99,91.73L171.59,92.23L172.22,93.9L172.85,95.07L173.4,92.48L174.61,88.88L175.23,86.89L177.1,83.11L177.71,81.63L178.94,80.88L179.55,81.47L180.79,80.87L181.41,81.63L183.84,86.93L184.45,86.93L186.92,88.05L187.53,88.97L188.14,88.99L188.76,90.27L189.96,91.63L190.58,92.73L192.43,93.84L193.05,93.97L193.65,94.49L194.26,93.74L196.69,91.94L197.29,90.23L198.52,89.3L199.11,88.97L200.99,87.23L201.61,88.04L204.03,91.18L204.64,92.02L206.51,93.03L207.11,92.77L208.94,90.9L209.55,90.56L211.38,89.36L211.99,88.79L213.25,88.12L213.86,88.88L216.92,93.13L217.54,92.86L218.77,94.29L219.38,94.88L220.59,95.01L221.2,94.32L222.43,94.82L223.02,95.09L226.11,92.55L226.71,92.05L229.79,91.76L230.37,91.11L231.63,89.9L232.25,90.66L233.46,92.03L234.07,92.43L237.15,94.75L237.75,94.12L240.79,93L241.41,92.49L242.66,92.32L243.27,91.71L244.5,91.46L245.11,92.11L248.2,93.63L248.82,94.21L250.63,96.46L251.23,96.41L254.32,95.09L254.93,94.38L259.24,93.24L259.85,93.75L261.69,94.56L262.29,95.32L264.15,95.89L264.76,96.01L265.99,96.17L266.59,96.81L270.88,97.13L271.49,96.95L273.93,96.37L274.54,96.21L277.62,95.77L278.23,95.22L279.46,94.94L280.08,95.35L286.82,97.07L287.42,96.94L292.34,95.45L292.96,95.21L297.25,95.48L297.88,95.54L301.56,95.61L302.17,95.59L306.48,94.81L307.1,94.66L314.49,95.45L315.1,95.71L320.03,96.23L320.64,96.22L332.37,96.68L332.98,96.75L337.91,97.2L338.53,97.04L342.85,97.19L343.47,97.32L350.88,98.89L351.5,99.1L355.21,99.78L355.82,99.88L373.81,103.72L374.44,103.77L381.91,103.22L382.54,103.09L393.12,100.24L393.74,100.29L401.24,102.4L401.87,102.72L405.03,104.58L405.67,104.69L408.84,104.82L409.46,104.58L417.67,100.33L418.31,100.51L421.46,102L422.09,102.58L427.87,108.05L428.51,107.83L430.44,105.88L431.09,104.97L434.28,101.05L434.92,100.76L436.82,100.72L437.46,101.06L440.02,104.08L440.66,105.02L443.24,107.64L443.89,107.98L445.84,107.52L446.48,107.03L450.34,105.06L450.98,104.88L453.55,104.84L454.19,105.12L456.76,105.85L457.41,105.8L459.36,104.79L460,104.22L463.2,102.7L463.84,102.57L465.76,102.91L466.4,103.35L474.14,109.16L474.8,108.98L482.54,106.36L483.18,106.41L488.34,108.08L488.99,108.47L491.58,109.11L492.24,109L495.49,107.24L496.13,106.74L499.99,104.82L500.64,104.75L507.09,104.39L507.74,104.13L512.89,102.25L513.53,102.24L516.76,103.09L517.41,103.4L519.99,104L520.64,103.93L527.09,102.59L527.74,102.74L534.22,106.11L534.87,107.04L538.13,110.93L538.78,111.55L543.3,115.89"
                 style="vector-effect: non-scaling-stroke; fill: none; stroke: rgb(47, 79, 79); stroke-opacity: 1; stroke-width: 1px; opacity: 1;"
                 id="path91" />
            </g>
            <g
               class="points"
               id="g95" />
            <g
               class="text"
               id="g97" />
          </g>
          <g
             class="trace scatter trace89d025"
             style="stroke-miterlimit: 2; opacity: 1;"
             id="g113">
            <g
               class="fills"
               id="g101" />
            <g
               class="errorbars"
               id="g103" />
            <g
               class="lines"
               id="g107">
              <path
                 class="js-line"
                 d="M0.18,135.91L0.59,201.12L1.46,195.85L2.1,200.85L2.74,198.48L3.38,194.24L4.01,195.59L4.56,195.57L5.2,198.85L7.1,203.18L7.74,205.27L9.66,206.78L10.29,206.86L11.57,198.07L12.2,191.04L13.71,184.73L14.35,185.03L14.98,185.53L15.54,184.96L16.18,185.9L16.81,186.06L17.45,185.33L18.08,185.39L18.72,183.06L20,180.57L20.64,181.19L21.27,181.35L21.91,180.41L23.97,179.33L24.6,180.07L27.16,182.82L27.79,180.94L29.06,176.37L29.7,172.99L31.06,170.36L31.69,171.5L33.6,171.76L34.24,171.93L36.22,174.5L36.86,175.65L38.77,176.99L39.41,177.85L41.95,170.48L42.59,166.85L43.3,165.15L44.01,166.29L46.55,173.44L47.19,171.93L48.46,168.7L49.1,168.84L51.71,166.84L52.34,169.73L53.61,172.72L54.24,172.69L55.51,172.22L56.15,171.47L57.42,168.09L58.13,165.92L58.76,166.2L59.39,168.14L60.03,174.91L60.67,173.64L64.53,164.23L65.16,165.53L66.43,167.5L67.06,167.05L68.33,167.64L68.96,166.25L70.31,169.4L70.94,168.69L72.84,163.15L73.47,160.07L75.36,152.25L76.06,152.75L77.95,154.86L78.58,155.01L79.85,154.7L80.48,153.45L83.64,143.51L84.32,145.09L86.22,151.76L86.85,151.65L87.48,151.05L88.12,149.15L90,140.94L90.61,142.99L92.51,152.83L93.13,153.48L94.46,151.29L95.09,153.79L97.6,166.29L98.23,165.08L99.55,162.19L100.17,163.03L102.05,166.48L102.67,166.36L104.61,162.55L105.24,163.75L106.48,165.01L107.11,163.93L108.36,159.56L109.04,155.51L109.66,156.95L110.29,156.59L110.91,155.17L112.85,148.61L113.47,148.12L114.71,143.28L115.25,140.32L115.87,138.33L116.55,139.24L117.17,140.36L117.79,139.65L118.41,138.91L119.01,141.15L120.87,148.66L121.48,149.78L122.72,153.66L123.35,152.48L124.01,152.04L124.63,154.63L125.26,155.32L125.87,154.12L126.48,152.2L127.16,153.64L127.79,154.56L128.4,153.68L129.63,153.64L130.24,152.77L132.14,149.27L132.76,150.39L133.39,150.21L134.01,146.92L134.67,145.29L135.29,145.92L135.83,145.96L136.46,143.28L139.66,139L140.12,137.99L141.42,140.58L142.03,139.89L142.61,138.77L143.24,141.62L145.08,148.25L145.69,148.45L147.59,150.66L148.2,153.25L148.81,154.59L149.44,153.43L151.33,155.31L151.94,155.47L153.21,155.11L153.83,155.98L158.13,136.76L158.76,136.44L159.93,134.2L160.58,134.64L162.35,142.35L162.94,143.58L165.46,151.73L166.09,150.59L166.72,150.69L167.34,149.71L168.56,148.49L169.17,145.23L170.38,145.6L170.99,143.27L171.59,142.77L172.22,141.1L172.85,139.93L173.4,142.52L174.61,146.12L175.23,148.11L177.1,151.89L177.71,153.37L178.94,154.12L179.55,153.53L180.79,154.13L181.41,153.37L183.84,148.07L184.45,148.07L186.92,146.95L187.53,146.03L188.14,146.01L188.76,144.73L189.96,143.37L190.58,142.27L192.43,141.16L193.05,141.03L193.65,140.51L194.26,141.26L196.69,143.06L197.29,144.77L198.52,145.7L199.11,146.03L200.99,147.77L201.61,146.96L204.03,143.82L204.64,142.98L206.51,141.97L207.11,142.23L208.94,144.1L209.55,144.44L211.38,145.64L211.99,146.21L213.25,146.88L213.86,146.12L216.92,141.87L217.54,142.14L218.77,140.71L219.38,140.12L220.59,139.99L221.2,140.68L222.43,140.18L223.02,139.91L226.11,142.45L226.71,142.95L229.79,143.24L230.37,143.89L231.63,145.1L232.25,144.34L233.46,142.97L234.07,142.57L237.15,140.25L237.75,140.88L240.79,142L241.41,142.51L242.66,142.68L243.27,143.29L244.5,143.54L245.11,142.89L248.2,141.37L248.82,140.79L250.63,138.54L251.23,138.59L254.32,139.91L254.93,140.62L259.24,141.76L259.85,141.25L261.69,140.44L262.29,139.68L264.15,139.11L264.76,138.99L265.99,138.83L266.59,138.19L270.88,137.87L271.49,138.05L273.93,138.63L274.54,138.79L277.62,139.23L278.23,139.78L279.46,140.06L280.08,139.65L286.82,137.93L287.42,138.06L292.34,139.55L292.96,139.79L297.25,139.52L297.88,139.46L301.56,139.39L302.17,139.41L306.48,140.19L307.1,140.34L314.49,139.55L315.1,139.29L320.03,138.77L320.64,138.78L332.37,138.32L332.98,138.25L337.91,137.8L338.53,137.96L342.85,137.81L343.47,137.68L350.88,136.11L351.5,135.9L355.21,135.22L355.82,135.12L373.81,131.28L374.44,131.23L381.91,131.78L382.54,131.91L393.12,134.76L393.74,134.71L401.24,132.6L401.87,132.28L405.03,130.42L405.67,130.31L408.84,130.18L409.46,130.42L417.67,134.67L418.31,134.49L421.46,133L422.09,132.42L427.87,126.95L428.51,127.17L430.44,129.12L431.09,130.03L434.28,133.95L434.92,134.24L436.82,134.28L437.46,133.94L440.02,130.92L440.66,129.98L443.24,127.36L443.89,127.02L445.84,127.48L446.48,127.97L450.34,129.94L450.98,130.12L453.55,130.16L454.19,129.88L456.76,129.15L457.41,129.2L459.36,130.21L460,130.78L463.2,132.3L463.84,132.43L465.76,132.09L466.4,131.65L474.14,125.84L474.8,126.02L482.54,128.64L483.18,128.59L488.34,126.92L488.99,126.53L491.58,125.89L492.24,126L495.49,127.76L496.13,128.26L499.99,130.18L500.64,130.25L507.09,130.61L507.74,130.87L512.89,132.75L513.53,132.76L516.76,131.91L517.41,131.6L519.99,131L520.64,131.07L527.09,132.41L527.74,132.26L534.22,128.89L534.87,127.96L538.13,124.07L538.78,123.45L543.3,119.11"
                 style="vector-effect: non-scaling-stroke; fill: none; stroke: rgb(128, 128, 128); stroke-opacity: 1; stroke-width: 1px; opacity: 1;"
                 id="path105" />
            </g>
            <g
               class="points"
               id="g109" />
            <g
               class="text"
               id="g111" />
          </g>
          <g
             class="trace scatter trace41c8f4"
             style="stroke-miterlimit: 2; opacity: 1;"
             id="g127">
            <g
               class="fills"
               id="g115" />
            <g
               class="errorbars"
               id="g117" />
            <g
               class="lines"
               id="g121">
              <path
                 class="js-line"
                 d="M0.11,122L1.11,206.37L1.74,211.26L2.37,221.75L3.01,221.65L3.65,223.25L8.11,208.67L8.74,204.38L11.44,188.2L12.08,192.64L13.99,201.69L14.63,202.26L15.26,197.85L15.82,198.62L16.45,197.85L19.72,179.19L20.36,179.5L21.71,177.61L22.42,178.49L25.61,193.9L26.24,196.17L26.88,197.01L27.51,195.3L30.06,176.92L30.77,176.37L32.68,182.03L33.32,182.38L34.59,182.4L35.23,180.1L35.94,178.37L36.58,181.2L38.49,186.66L39.13,187.8L40.4,185.09L41.04,182.42L42.38,176.88L43.01,180.39L45.56,187.13L46.2,186.06L47.47,179.52L48.1,175.24L48.74,171.94L49.45,172.46L51.35,181.51L51.99,182.74L53.26,183.91L53.89,183.28L55.86,177.1L56.5,178.3L57.77,180.6L58.41,180.21L59.04,179.12L59.67,181.84L60.31,182.15L60.95,175.59L62.29,169.01L62.92,170.14L63.55,170.9L64.18,170.41L64.82,170.05L65.45,168.36L66.08,167.3L66.78,168.07L69.32,175.77L69.95,176L70.58,175.58L71.22,172.61L72.49,164.97L73.12,159.94L73.81,156.85L74.44,157.88L76.97,157.54L77.6,156.53L78.94,154.34L79.57,155.19L80.2,155.29L80.83,154.48L82.09,151.3L82.73,149.9L83.35,149.22L83.98,149.72L85.24,152.45L85.87,152.28L87.83,148.45L88.47,146.33L89.71,143.52L90.34,145.71L92.23,153.53L92.86,153.45L93.49,153.02L94.13,150.82L94.75,149.27L95.44,149.97L97.95,164.45L98.58,164.38L100.52,162.08L101.14,166.46L103.02,172.69L103.65,171.71L104.9,167.04L105.58,169.29L106.83,170.46L107.46,169.93L113.19,150.73L113.82,149.58L115.59,143.32L116.21,143.21L117.45,144.62L118.07,143.94L118.69,143.33L119.36,144.8L120.6,146.77L121.21,146.52L123.07,153.77L123.68,152.7L124.29,152.37L124.91,154.77L125.53,155.23L126.21,153.76L127.44,158.09L128.06,157.33L128.68,155.09L129.35,155.82L130.59,156.27L131.21,154.54L131.88,153.65L132.5,154.84L133.11,154.78L133.74,152.39L134.36,147.55L134.95,148.26L135.57,149.25L136.85,145.78L137.47,146.04L138.09,144.86L139.31,146.57L139.93,145.25L140.53,143.65L141.15,144.95L141.77,144.53L142.4,142.21L142.97,142.43L143.59,143.74L144.74,143.85L145.42,145.72L148.54,157.85L149.17,158.34L149.78,156.97L150.38,157.35L151,158.28L152.27,160.9L152.88,160.04L154.11,156.63L154.74,152.39L157.83,139.75L158.41,140.26L159.04,141.47L159.65,140.65L160.26,139.79L160.86,142.26L162.7,145.51L163.29,146.65L165.18,152.03L165.79,151.88L167,152.29L167.61,150.15L170.1,146.82L170.7,145.06L171.31,145.75L171.93,144.21L172.51,142.51L173.13,144.19L173.74,144.92L174.33,148.97L175.57,152.48L176.2,152.16L179.87,155.7L180.48,154.99L182.34,153.01L182.96,151.59L184.17,151.28L184.78,151.45L189.05,146.89L189.68,146.85L190.89,146.2L191.5,146.34L193.95,142.43L194.55,143.22L198.24,148.96L198.84,149.16L200.07,150.24L200.68,149.36L203.14,147.92L203.75,147.63L206.8,144.66L207.4,144.49L211.1,148.51L211.7,149.31L212.93,149.33L213.55,148.81L217.22,144.46L217.83,144.05L220.27,141.46L220.88,141.56L223.35,142.94L223.95,142.51L225.78,144.51L226.39,144.24L227.63,144.24L228.25,144.74L229.47,145.42L230.08,146.14L233.78,144.16L234.38,144.65L235,144.96L235.61,144.18L238.04,143.14L238.66,143.22L239.9,143.17L240.51,143.88L242.96,145.77L243.59,145.6L247.27,144.39L247.88,143.73L250.95,141.29L251.56,141.58L253.39,142.61L254.01,142.29L256.46,143.16L257.07,143.54L258.3,144.03L258.91,143.63L260.14,142.79L260.74,141.96L266.27,139.91L266.88,139.34L269.33,139.37L269.95,139.91L273.61,139.62L274.23,139.76L277.29,140.38L277.91,141.06L279.76,140.75L280.38,140.67L285.29,138.92L285.9,138.55L290.19,139.77L290.81,140.24L292.65,140.67L293.27,140.77L296.34,140.89L296.96,140.76L298.79,140.08L299.41,140.07L301.25,140.23L301.87,140.56L311.1,141L311.72,140.88L316.03,140.28L316.65,139.98L320.96,139.68L321.57,139.6L330.82,139.74L331.44,139.58L340.08,138.48L340.7,138.52L343.16,138.44L343.78,138.33L347.49,137.46L348.11,137.18L358.61,134.69L359.24,134.64L365.43,133.23L366.04,133.12L376.62,132.33L377.25,132.29L382.85,132.85L383.47,133.03L395.31,134.93L395.93,134.8L400.31,133.62L400.94,133.32L406.62,130.84L407.25,130.81L409.79,131.32L410.42,131.71L417.36,135.23L418,135.17L421.15,133.96L421.78,133.38L427.53,127.45L428.19,127.56L430.12,129.33L430.76,130.16L434.6,134.74L435.24,135.02L437.14,134.77L437.78,134.34L440.98,130.07L441.63,129.2L444.22,127.28L444.87,127.32L451.3,130.86L451.94,130.92L453.87,130.46L454.51,130.09L457.09,129.6L457.74,129.75L460.32,131.59L460.96,131.99L464.8,132.83L465.44,132.65L468.01,130.58L468.64,129.93L472.52,126.78L473.17,126.54L475.12,126.81L475.77,127.05L482.22,129.09L482.86,129.03L488.66,127.09L489.31,126.65L491.91,126.13L492.56,126.37L500.95,130.67L501.6,130.62L506.12,130.81L506.76,130.94L513.21,133.15L513.85,133.13L517.08,132.12L517.73,131.87L520.32,131.49L520.96,131.59L526.77,132.83L527.42,132.76L531.94,130.43L532.58,130.06L533.87,128.86L534.52,127.74L541.04,120.93L541.68,120.28L543.59,118.94"
                 style="vector-effect: non-scaling-stroke; fill: none; stroke: rgb(47, 79, 79); stroke-opacity: 1; stroke-width: 1px; opacity: 1;"
                 id="path119" />
            </g>
            <g
               class="points"
               id="g123" />
            <g
               class="text"
               id="g125" />
          </g>
          <g
             class="trace scatter traceb0df19"
             style="stroke-miterlimit: 2; opacity: 1;"
             id="g141">
            <g
               class="fills"
               id="g129" />
            <g
               class="errorbars"
               id="g131" />
            <g
               class="lines"
               id="g135">
              <path
                 class="js-line"
                 d="M0.11,113L1.11,28.63L1.74,23.74L2.37,13.25L3.01,13.35L3.65,11.75L8.11,26.33L8.74,30.62L11.44,46.8L12.08,42.36L13.99,33.31L14.63,32.74L15.26,37.15L15.82,36.38L16.45,37.15L19.72,55.81L20.36,55.5L21.71,57.39L22.42,56.51L25.61,41.1L26.24,38.83L26.88,37.99L27.51,39.7L30.06,58.08L30.77,58.63L32.68,52.97L33.32,52.62L34.59,52.6L35.23,54.9L35.94,56.63L36.58,53.8L38.49,48.34L39.13,47.2L40.4,49.91L41.04,52.58L42.38,58.12L43.01,54.61L45.56,47.87L46.2,48.94L47.47,55.48L48.1,59.76L48.74,63.06L49.45,62.54L51.35,53.49L51.99,52.26L53.26,51.09L53.89,51.72L55.86,57.9L56.5,56.7L57.77,54.4L58.41,54.79L59.04,55.88L59.67,53.16L60.31,52.85L60.95,59.41L62.29,65.99L62.92,64.86L63.55,64.1L64.18,64.59L64.82,64.95L65.45,66.64L66.08,67.7L66.78,66.93L69.32,59.23L69.95,59L70.58,59.42L71.22,62.39L72.49,70.03L73.12,75.06L73.81,78.15L74.44,77.12L76.97,77.46L77.6,78.47L78.94,80.66L79.57,79.81L80.2,79.71L80.83,80.52L82.09,83.7L82.73,85.1L83.35,85.78L83.98,85.28L85.24,82.55L85.87,82.72L87.83,86.55L88.47,88.67L89.71,91.48L90.34,89.29L92.23,81.47L92.86,81.55L93.49,81.98L94.13,84.18L94.75,85.73L95.44,85.03L97.95,70.55L98.58,70.62L100.52,72.92L101.14,68.54L103.02,62.31L103.65,63.29L104.9,67.96L105.58,65.71L106.83,64.54L107.46,65.07L113.19,84.27L113.82,85.42L115.59,91.68L116.21,91.79L117.45,90.38L118.07,91.06L118.69,91.67L119.36,90.2L120.6,88.23L121.21,88.48L123.07,81.23L123.68,82.3L124.29,82.63L124.91,80.23L125.53,79.77L126.21,81.24L127.44,76.91L128.06,77.67L128.68,79.91L129.35,79.18L130.59,78.73L131.21,80.46L131.88,81.35L132.5,80.16L133.11,80.22L133.74,82.61L134.36,87.45L134.95,86.74L135.57,85.75L136.85,89.22L137.47,88.96L138.09,90.14L139.31,88.43L139.93,89.75L140.53,91.35L141.15,90.05L141.77,90.47L142.4,92.79L142.97,92.57L143.59,91.26L144.74,91.15L145.42,89.28L148.54,77.15L149.17,76.66L149.78,78.03L150.38,77.65L151,76.72L152.27,74.1L152.88,74.96L154.11,78.37L154.74,82.61L157.83,95.25L158.41,94.74L159.04,93.53L159.65,94.35L160.26,95.21L160.86,92.74L162.7,89.49L163.29,88.35L165.18,82.97L165.79,83.12L167,82.71L167.61,84.85L170.1,88.18L170.7,89.94L171.31,89.25L171.93,90.79L172.51,92.49L173.13,90.81L173.74,90.08L174.33,86.03L175.57,82.52L176.2,82.84L179.87,79.3L180.48,80.01L182.34,81.99L182.96,83.41L184.17,83.72L184.78,83.55L189.05,88.11L189.68,88.15L190.89,88.8L191.5,88.66L193.95,92.57L194.55,91.78L198.24,86.04L198.84,85.84L200.07,84.76L200.68,85.64L203.14,87.08L203.75,87.37L206.8,90.34L207.4,90.51L211.1,86.49L211.7,85.69L212.93,85.67L213.55,86.19L217.22,90.54L217.83,90.95L220.27,93.54L220.88,93.44L223.35,92.06L223.95,92.49L225.78,90.49L226.39,90.76L227.63,90.76L228.25,90.26L229.47,89.58L230.08,88.86L233.78,90.84L234.38,90.35L235,90.04L235.61,90.82L238.04,91.86L238.66,91.78L239.9,91.83L240.51,91.12L242.96,89.23L243.59,89.4L247.27,90.61L247.88,91.27L250.95,93.71L251.56,93.42L253.39,92.39L254.01,92.71L256.46,91.84L257.07,91.46L258.3,90.97L258.91,91.37L260.14,92.21L260.74,93.04L266.27,95.09L266.88,95.66L269.33,95.63L269.95,95.09L273.61,95.38L274.23,95.24L277.29,94.62L277.91,93.94L279.76,94.25L280.38,94.33L285.29,96.08L285.9,96.45L290.19,95.23L290.81,94.76L292.65,94.33L293.27,94.23L296.34,94.11L296.96,94.24L298.79,94.92L299.41,94.93L301.25,94.77L301.87,94.44L311.1,94L311.72,94.12L316.03,94.72L316.65,95.02L320.96,95.32L321.57,95.4L330.82,95.26L331.44,95.42L340.08,96.52L340.7,96.48L343.16,96.56L343.78,96.67L347.49,97.54L348.11,97.82L358.61,100.31L359.24,100.36L365.43,101.77L366.04,101.88L376.62,102.67L377.25,102.71L382.85,102.15L383.47,101.97L395.31,100.07L395.93,100.2L400.31,101.38L400.94,101.68L406.62,104.16L407.25,104.19L409.79,103.68L410.42,103.29L417.36,99.77L418,99.83L421.15,101.04L421.78,101.62L427.53,107.55L428.19,107.44L430.12,105.67L430.76,104.84L434.6,100.26L435.24,99.98L437.14,100.23L437.78,100.66L440.98,104.93L441.63,105.8L444.22,107.72L444.87,107.68L451.3,104.14L451.94,104.08L453.87,104.54L454.51,104.91L457.09,105.4L457.74,105.25L460.32,103.41L460.96,103.01L464.8,102.17L465.44,102.35L468.01,104.42L468.64,105.07L472.52,108.22L473.17,108.46L475.12,108.19L475.77,107.95L482.22,105.91L482.86,105.97L488.66,107.91L489.31,108.35L491.91,108.87L492.56,108.63L500.95,104.33L501.6,104.38L506.12,104.19L506.76,104.06L513.21,101.85L513.85,101.87L517.08,102.88L517.73,103.13L520.32,103.51L520.96,103.41L526.77,102.17L527.42,102.24L531.94,104.57L532.58,104.94L533.87,106.14L534.52,107.26L541.04,114.07L541.68,114.72L543.59,116.06"
                 style="vector-effect: non-scaling-stroke; fill: none; stroke: rgb(128, 128, 128); stroke-opacity: 1; stroke-width: 1px; opacity: 1;"
                 id="path133" />
            </g>
            <g
               class="points"
               id="g137" />
            <g
               class="text"
               id="g139" />
          </g>
        </g>
      </g>
      <g
         class="overplot"
         id="g147" />
      <path
         class="xlines-above crisp"
         d="M0,0"
         style="fill: none;"
         id="path149" />
      <path
         class="ylines-above crisp"
         d="M0,0"
         style="fill: none;"
         id="path151" />
      <g
         class="overlines-above"
         id="g153" />
      <g
         class="xaxislayer-above"
         id="g179">
        <g
           class="xtick"
           id="g157">
          <text
             text-anchor="middle"
             x="0"
             y="272.3333"
             transform="translate(50,0)"
             style="font-family: 'Latin Modern Roman'; font-size: 13.3333px; fill: rgb(0, 0, 0); fill-opacity: 1; white-space: pre;"
             id="text155">0</text>
        </g>
        <g
           class="xtick"
           id="g161">
          <text
             text-anchor="middle"
             x="0"
             y="272.3333"
             transform="translate(158.39,0)"
             style="font-family: 'Latin Modern Roman'; font-size: 13.3333px; fill: rgb(0, 0, 0); fill-opacity: 1; white-space: pre;"
             id="text159">20k</text>
        </g>
        <g
           class="xtick"
           id="g165">
          <text
             text-anchor="middle"
             x="0"
             y="272.3333"
             transform="translate(266.78,0)"
             style="font-family: 'Latin Modern Roman'; font-size: 13.3333px; fill: rgb(0, 0, 0); fill-opacity: 1; white-space: pre;"
             id="text163">40k</text>
        </g>
        <g
           class="xtick"
           id="g169">
          <text
             text-anchor="middle"
             x="0"
             y="272.3333"
             transform="translate(375.17,0)"
             style="font-family: 'Latin Modern Roman'; font-size: 13.3333px; fill: rgb(0, 0, 0); fill-opacity: 1; white-space: pre;"
             id="text167">60k</text>
        </g>
        <g
           class="xtick"
           id="g173">
          <text
             text-anchor="middle"
             x="0"
             y="272.3333"
             transform="translate(483.56,0)"
             style="font-family: 'Latin Modern Roman'; font-size: 13.3333px; fill: rgb(0, 0, 0); fill-opacity: 1; white-space: pre;"
             id="text171">80k</text>
        </g>
        <g
           class="xtick"
           id="g177">
          <text
             text-anchor="middle"
             x="0"
             y="272.3333"
             transform="translate(591.95,0)"
             style="font-family: 'Latin Modern Roman'; font-size: 13.3333px; fill: rgb(0, 0, 0); fill-opacity: 1; white-space: pre;"
             id="text175">100k</text>
        </g>
      </g>
      <g
         class="yaxislayer-above"
         id="g201">
        <g
           class="ytick"
           id="g183">
          <text
             text-anchor="end"
             x="49"
             y="4.6666549999999996"
             transform="translate(0,246.25)"
             style="font-family: 'Latin Modern Roman'; font-size: 13.3333px; fill: rgb(0, 0, 0); fill-opacity: 1; white-space: pre;"
             id="text181">1</text>
        </g>
        <g
           class="ytick"
           id="g187">
          <text
             text-anchor="end"
             x="49"
             y="4.6666549999999996"
             transform="translate(0,193.38)"
             style="font-family: 'Latin Modern Roman'; font-size: 13.3333px; fill: rgb(0, 0, 0); fill-opacity: 1; white-space: pre;"
             id="text185">0.5</text>
        </g>
        <g
           class="ytick"
           id="g191">
          <text
             text-anchor="end"
             x="49"
             y="4.6666549999999996"
             transform="translate(0,140.5)"
             style="font-family: 'Latin Modern Roman'; font-size: 13.3333px; fill: rgb(0, 0, 0); fill-opacity: 1; white-space: pre;"
             id="text189">0</text>
        </g>
        <g
           class="ytick"
           id="g195">
          <text
             text-anchor="end"
             x="49"
             y="4.6666549999999996"
             transform="translate(0,87.63)"
             style="font-family: 'Latin Modern Roman'; font-size: 13.3333px; fill: rgb(0, 0, 0); fill-opacity: 1; white-space: pre;"
             id="text193">0.5</text>
        </g>
        <g
           class="ytick"
           id="g199">
          <text
             text-anchor="end"
             x="49"
             y="4.6666549999999996"
             transform="translate(0,34.75)"
             style="font-family: 'Latin Modern Roman'; font-size: 13.3333px; fill: rgb(0, 0, 0); fill-opacity: 1; white-space: pre;"
             id="text197">1</text>
        </g>
      </g>
      <g
         class="overaxes-above"
         id="g203" />
    </g>
  </g>
  <g
     class="polarlayer"
     id="g209" />
  <g
     class="ternarylayer"
     id="g211" />
  <g
     class="geolayer"
     id="g213" />
  <g
     class="funnelarealayer"
     id="g215" />
  <g
     class="pielayer"
     id="g217" />
  <g
     class="treemaplayer"
     id="g219" />
  <g
     class="sunburstlayer"
     id="g221" />
  <g
     class="glimages"
     id="g223" />
  <defs
     id="topdefs-4441ba">
    <g
       class="clips"
       id="g225" />
    <clipPath
       id="legend4441ba">
      <rect
         width="413"
         height="31"
         x="0"
         y="0"
         id="rect227" />
    </clipPath>
  </defs>
  <g
     class="layer-above"
     id="g235">
    <g
       class="imagelayer"
       id="g231" />
    <g
       class="shapelayer"
       id="g233" />
  </g>
  <rect
     class="bg"
     shape-rendering="crispEdges"
     style="fill:#ffffff;fill-opacity:1;stroke:#444444;stroke-width:0px;stroke-opacity:1"
     width="413"
     height="31"
     x="50"
     y="0"
     id="rect237" />
  <g
     class="groups"
     id="g311"
     transform="translate(50)">
    <g
       class="traces"
       transform="translate(0,15.166645)"
       style="opacity:1"
       id="g255">
      <text
         class="legendtext"
         text-anchor="start"
         x="40"
         y="5.1999869"
         style="font-size:13.3333px;font-family:'Latin Modern Roman';white-space:pre;fill:#000000;fill-opacity:1"
         id="text239">Signal</text>
      <g
         class="layers"
         style="opacity:1"
         id="g251">
        <g
           class="legendfill"
           id="g241" />
        <g
           class="legendlines"
           id="g245">
          <path
             class="js-line"
             d="M 5,0 H 35"
             style="fill:none;stroke:#d3d3d3;stroke-width:0.5px;stroke-opacity:1"
             id="path243" />
        </g>
        <g
           class="legendsymbols"
           id="g249">
          <g
             class="legendpoints"
             id="g247" />
        </g>
      </g>
      <rect
         class="legendtoggle"
         x="0"
         y="-10.166645"
         width="76.875"
         height="20.33329"
         style="fill:#000000;fill-opacity:0"
         id="rect253" />
    </g>
    <g
       class="traces"
       transform="translate(79.375,15.166645)"
       style="opacity:1"
       id="g273">
      <text
         class="legendtext"
         text-anchor="start"
         x="40"
         y="5.1999869"
         style="font-size:13.3333px;font-family:'Latin Modern Roman';white-space:pre;fill:#000000;fill-opacity:1"
         id="text257">Envelope</text>
      <g
         class="layers"
         style="opacity:1"
         id="g269">
        <g
           class="legendfill"
           id="g259" />
        <g
           class="legendlines"
           id="g263">
          <path
             class="js-line"
             d="M 5,0 H 35"
             style="fill:none;stroke:#000000;stroke-width:1px;stroke-opacity:1"
             id="path261" />
        </g>
        <g
           class="legendsymbols"
           id="g267">
          <g
             class="legendpoints"
             id="g265" />
        </g>
      </g>
      <rect
         class="legendtoggle"
         x="0"
         y="-10.166645"
         width="92.9375"
         height="20.33329"
         style="fill:#000000;fill-opacity:0"
         id="rect271" />
    </g>
    <g
       class="traces"
       transform="translate(174.8125,15.166645)"
       style="opacity:1"
       id="g291">
      <text
         class="legendtext"
         text-anchor="start"
         x="40"
         y="5.1999869"
         style="font-size:13.3333px;font-family:'Latin Modern Roman';white-space:pre;fill:#000000;fill-opacity:1"
         id="text275">Frontiers</text>
      <g
         class="layers"
         style="opacity:1"
         id="g287">
        <g
           class="legendfill"
           id="g277" />
        <g
           class="legendlines"
           id="g281">
          <path
             class="js-line"
             d="M 5,0 H 35"
             style="fill:none;stroke:#2f4f4f;stroke-width:1px;stroke-opacity:1"
             id="path279" />
        </g>
        <g
           class="legendsymbols"
           id="g285">
          <g
             class="legendpoints"
             id="g283" />
        </g>
      </g>
      <rect
         class="legendtoggle"
         x="0"
         y="-10.166645"
         width="90.640625"
         height="20.33329"
         style="fill:#000000;fill-opacity:0"
         id="rect289" />
    </g>
    <g
       class="traces"
       transform="translate(267.95312,15.166645)"
       style="opacity:1"
       id="g309">
      <text
         class="legendtext"
         text-anchor="start"
         x="40"
         y="5.1999869"
         style="font-size:13.3333px;font-family:'Latin Modern Roman';white-space:pre;fill:#000000;fill-opacity:1"
         id="text293">Mirrored Frontiers</text>
      <g
         class="layers"
         style="opacity:1"
         id="g305">
        <g
           class="legendfill"
           id="g295" />
        <g
           class="legendlines"
           id="g299">
          <path
             class="js-line"
             d="M 5,0 H 35"
             style="fill:none;stroke:#808080;stroke-width:1px;stroke-opacity:1"
             id="path297" />
        </g>
        <g
           class="legendsymbols"
           id="g303">
          <g
             class="legendpoints"
             id="g301" />
        </g>
      </g>
      <rect
         class="legendtoggle"
         x="0"
         y="-10.166645"
         width="142.09375"
         height="20.33329"
         style="fill:#000000;fill-opacity:0"
         id="rect307" />
    </g>
  </g>
  <rect
     class="scrollbar"
     rx="20"
     ry="3"
     width="0"
     height="0"
     style="fill:#808ba4;fill-opacity:1"
     x="50"
     y="0"
     id="rect315" />
  <g
     class="g-gtitle"
     id="g319" />
  <g
     class="g-xtitle"
     transform="translate(0,-2.67706)"
     id="g327">
    <text
       class="xtitle"
       x="322"
       y="299.67706"
       text-anchor="middle"
       style="font-weight:normal;font-size:13.33px;font-family:'Latin Modern Roman';white-space:pre;opacity:1;fill:#000000"
       id="text325"><tspan
         style="font-weight:bold"
         id="tspan323"><tspan
           style="font-style:italic"
           id="tspan321">i</tspan></tspan></text>
  </g>
  <g
     class="g-ytitle"
     transform="translate(11.520508)"
     id="g333">
    <text
       class="ytitle"
       transform="rotate(-90,0.47919,140.5)"
       x="0.47918999"
       y="140.5"
       text-anchor="middle"
       style="font-weight:normal;font-size:13.33px;font-family:'Latin Modern Roman';white-space:pre;opacity:1;fill:#000000"
       id="text331"><tspan
         style="font-weight:bold"
         id="tspan329">Amplitude</tspan></text>
  </g>
</svg>
